<svg width="24" height="24" viewBox="0 0 24 24" fill="none" xmlns="http://www.w3.org/2000/svg">
<path fill-rule="evenodd" clip-rule="evenodd" d="M9.17113 3.16424C10.7332 1.60215 13.2659 1.60215 14.828 3.16424L20.8353 9.17158C22.3974 10.7337 22.3974 13.2663 20.8353 14.8284L14.828 20.8358C13.2659 22.3979 10.7332 22.3979 9.17111 20.8358L3.16375 14.8284C1.60166 13.2663 1.60167 10.7337 3.16377 9.17158L9.17113 3.16424ZM12.9995 9C12.9995 8.44771 12.5518 8 11.9995 8C11.4472 8 10.9995 8.44771 10.9995 9V11H8.99951C8.44723 11 7.99951 11.4477 7.99951 12C7.99951 12.5523 8.44723 13 8.99951 13H10.9995V15C10.9995 15.5523 11.4472 16 11.9995 16C12.5518 16 12.9995 15.5523 12.9995 15V13H14.9995C15.5518 13 15.9995 12.5523 15.9995 12C15.9995 11.4477 15.5518 11 14.9995 11H12.9995V9Z" fill="currentColor"/>
</svg>
