<svg width="24" height="24" viewBox="0 0 24 24" fill="none" xmlns="http://www.w3.org/2000/svg">
<path d="M18.092 4.17827C17.5051 4.03266 16.8885 4.06733 16.3212 4.27892C14.7119 4.8792 10.1928 6.56286 8.26027 7.26297C7.98049 7.36432 7.66992 7.33661 7.41313 7.18788L6.05933 6.40382C5.03635 5.81136 3.8037 5.70174 2.69223 6.10438L1.6594 6.47854C1.36927 6.58364 1.14391 6.81681 1.04875 7.11035C0.953582 7.40389 0.999268 7.72493 1.17254 7.98027L3.15954 10.9083L3.1533 10.9216C2.81726 11.6389 2.77851 12.4599 3.04551 13.2056L3.11999 13.4137C3.68684 14.9969 5.44412 15.805 7.01502 15.2049L9.34669 14.3141C9.46653 15.6132 10.7849 16.4564 12.0193 16.0092L12.6942 15.7647C13.4718 15.483 14.143 14.9671 14.6154 14.2882L16.3894 11.7381L20.3305 10.3103C21.5008 9.88639 22.2803 8.77499 22.2803 7.53031C22.2803 6.17157 21.3543 4.98773 20.0355 4.66051L18.092 4.17827Z" fill="currentColor" style="fill:currentColor;fill-opacity:1;"/>
<path d="M3.00001 17.9996C2.44772 17.9996 2.00001 18.4473 2.00001 18.9996C2.00001 19.5519 2.44772 19.9996 3.00001 19.9996H21C21.5523 19.9996 22 19.5519 22 18.9996C22 18.4473 21.5523 17.9996 21 17.9996H3.00001Z" fill="currentColor" style="fill:currentColor;fill-opacity:1;"/>
</svg>
