<svg width="24" height="24" viewBox="0 0 24 24" fill="none" xmlns="http://www.w3.org/2000/svg">
<path d="M19.1569 2C17.8308 2 16.559 2.52678 15.6213 3.46446L13.2385 5.84726L7.11572 3.68626C5.66314 3.17359 4.04523 3.54057 2.95601 4.62979L2.29291 5.29289C2.08943 5.49637 1.98347 5.77765 2.00212 6.06481C2.02077 6.35196 2.16222 6.61717 2.39031 6.79262L7.98758 11.0982L7.0858 12H6.74266C5.68179 12 4.66438 12.4214 3.91423 13.1716L2.29291 14.7929C2.0525 15.0333 1.95071 15.3794 2.02268 15.7117C2.09466 16.044 2.33054 16.3169 2.64889 16.4363L5.37208 17.4575C5.91293 17.6603 6.33968 18.0871 6.54249 18.6279L7.56369 21.3511C7.68307 21.6695 7.95603 21.9054 8.28832 21.9773C8.62061 22.0493 8.96671 21.9475 9.20712 21.7071L10.8284 20.0858C11.5786 19.3356 12 18.3182 12 17.2574V16.9142L12.9018 16.0124L17.2074 21.6097C17.3828 21.8378 17.6481 21.9792 17.9352 21.9979C18.2224 22.0165 18.5036 21.9106 18.7071 21.7071L19.3702 21.044C20.4594 19.9548 20.8264 18.3369 20.3138 16.8843L18.1528 10.7615L20.5356 8.37868C21.4732 7.441 22 6.16923 22 4.84315V3C22 2.44772 21.5523 2 21 2H19.1569Z" fill="currentColor" style="fill:currentColor;fill-opacity:1;"/>
</svg>
