<svg width="24" height="24" viewBox="0 0 24 24" fill="none" xmlns="http://www.w3.org/2000/svg">
<path d="M4.25411 2.01573C3.95023 1.96121 3.6382 2.05011 3.40868 2.2566C3.17917 2.46309 3.0579 2.76402 3.08011 3.07196L3.33829 6.65106C2.6619 7.1881 2.20261 7.95601 2.04856 8.81097C1.75005 10.4676 2.8587 12.0615 4.52693 12.3307L7.00235 12.7303C6.44968 13.915 7.15663 15.3262 8.46292 15.5605L9.17043 15.6875C9.98727 15.834 10.8288 15.7215 11.5789 15.3659L14.3919 14.0324L18.5213 14.7732C19.7529 14.9942 20.9848 14.4125 21.6054 13.3283C22.2816 12.1471 22.0739 10.6528 21.0972 9.70358L19.6535 8.30066C19.2183 7.87768 18.6661 7.59615 18.0668 7.49453C16.371 7.20694 11.6103 6.39772 9.58437 6.03424C9.29353 5.98206 9.03708 5.80193 8.8871 5.53911L8.10583 4.16999C7.51726 3.13856 6.50449 2.41947 5.33685 2.20998L4.25411 2.01573Z" fill="currentColor" style="fill:currentColor;fill-opacity:1;"/>
<path d="M3.00007 18C2.44778 18 2.00007 18.4477 2.00007 19C2.00007 19.5523 2.44778 20 3.00007 20H21.0001C21.5523 20 22.0001 19.5523 22.0001 19C22.0001 18.4477 21.5523 18 21.0001 18H3.00007Z" fill="currentColor" style="fill:currentColor;fill-opacity:1;"/>
</svg>
