<svg width="24" height="24" viewBox="0 0 24 24" fill="none" xmlns="http://www.w3.org/2000/svg">
<path fill-rule="evenodd" clip-rule="evenodd" d="M7.25 13C8.76878 13 10 14.2312 10 15.75C10 16.4925 9.70384 17.1644 9.22559 17.6592C9.70258 18.2548 9.88835 18.9763 9.95898 19.6426L9.9834 19.9375L9.98438 20.04C9.96469 20.5465 9.56458 20.9657 9.04785 20.998C8.53112 21.0303 8.08156 20.6641 7.99902 20.1641L7.9873 20.0625L7.96875 19.8418C7.91562 19.3552 7.79763 19.0605 7.64453 18.8838C7.52054 18.7409 7.26834 18.5557 6.66309 18.5117L6.38086 18.502L6.33984 18.5H6V20C6 20.5523 5.55228 21 5 21C4.44772 21 4 20.5523 4 20V14L4.00488 13.8975C4.05621 13.3933 4.48232 13 5 13H7.25ZM6 16.5H7.25C7.66421 16.5 8 16.1642 8 15.75C8 15.3358 7.66421 15 7.25 15H6V16.5Z" fill="currentColor"/>
<path d="M15 3C17.7614 3 20 5.23858 20 8V19C20 20.1046 19.1046 21 18 21C16.8954 21 16 20.1046 16 19V12.9004C15.6769 12.966 15.3424 13 15 13C13.8444 13 12.7803 12.6076 11.9336 11.9492C11.2496 11.4173 11 10.5316 11 9.66504V6.33496C11 5.4684 11.2496 4.58274 11.9336 4.05078C12.7803 3.39244 13.8444 3 15 3Z" fill="currentColor"/>
</svg>
