<svg width="24" height="24" viewBox="0 0 24 24" fill="none" xmlns="http://www.w3.org/2000/svg">
<path d="M9 3C10.1556 3 11.2197 3.39244 12.0664 4.05078C12.7504 4.58274 13 5.4684 13 6.33496V9.66504C13 10.5316 12.7504 11.4173 12.0664 11.9492C11.2197 12.6076 10.1556 13 9 13C8.65756 13 8.32308 12.966 8 12.9004V19C8 20.1046 7.10457 21 6 21C4.89543 21 4 20.1046 4 19V8C4 5.23858 6.23858 3 9 3Z" fill="currentColor"/>
<path d="M16 13C16.5523 13 17 13.4477 17 14V19H19C19.5523 19 20 19.4477 20 20C20 20.5523 19.5523 21 19 21H16C15.4477 21 15 20.5523 15 20V14C15 13.4477 15.4477 13 16 13Z" fill="currentColor"/>
</svg>
