<svg width="24" height="24" viewBox="0 0 24 24" fill="none" xmlns="http://www.w3.org/2000/svg">
<path fill-rule="evenodd" clip-rule="evenodd" d="M3 11C3 6.02944 7.02944 2 12 2C16.9706 2 21 6.02944 21 11C21 14.3272 19.3454 17.3024 17.5026 19.4085C16.5746 20.4691 15.5716 21.3416 14.6484 21.9571C14.187 22.2647 13.7316 22.5174 13.3033 22.6962C12.8885 22.8694 12.4365 23 12 23C11.5635 23 11.1115 22.8694 10.6967 22.6962C10.2684 22.5174 9.81298 22.2647 9.35155 21.9571C8.42837 21.3416 7.4254 20.4691 6.49742 19.4085C4.65457 17.3024 3 14.3272 3 11ZM7.38195 9.92737C10.156 9.83264 10.8406 11.2375 10.9727 13.1176C11.008 13.6207 10.622 14.0554 10.118 14.0726C7.34396 14.1673 6.65931 12.7624 6.52727 10.8824C6.49194 10.3793 6.87792 9.94458 7.38195 9.92737ZM16.618 9.92737C13.844 9.83264 13.1593 11.2376 13.0273 13.1176C12.9919 13.6207 13.3779 14.0554 13.882 14.0726C16.656 14.1673 17.3406 12.7624 17.4727 10.8824C17.508 10.3793 17.122 9.94458 16.618 9.92737Z" fill="currentColor" style="fill:currentColor;fill-opacity:1;"/>
</svg>
