<svg width="24" height="24" viewBox="0 0 24 24" fill="none" xmlns="http://www.w3.org/2000/svg">
<path fill-rule="evenodd" clip-rule="evenodd" d="M8.70711 15.2929C9.09763 15.6834 9.09763 16.3166 8.70711 16.7071L3.70711 21.7071C3.31658 22.0976 2.68342 22.0976 2.29289 21.7071C1.90237 21.3166 1.90237 20.6834 2.29289 20.2929L7.29289 15.2929C7.68342 14.9024 8.31658 14.9024 8.70711 15.2929Z" fill="currentColor" style="fill:currentColor;fill-opacity:1;"/>
<path fill-rule="evenodd" clip-rule="evenodd" d="M13.2071 17.7929C13.5976 18.1834 13.5976 18.8166 13.2071 19.2071L10.7071 21.7071C10.3166 22.0976 9.68342 22.0976 9.29289 21.7071C8.90237 21.3166 8.90237 20.6834 9.29289 20.2929L11.7929 17.7929C12.1834 17.4024 12.8166 17.4024 13.2071 17.7929Z" fill="currentColor" style="fill:currentColor;fill-opacity:1;"/>
<path fill-rule="evenodd" clip-rule="evenodd" d="M6.20711 10.7929C6.59763 11.1834 6.59763 11.8166 6.20711 12.2071L3.70711 14.7071C3.31658 15.0976 2.68342 15.0976 2.29289 14.7071C1.90237 14.3166 1.90237 13.6834 2.29289 13.2929L4.79289 10.7929C5.18342 10.4024 5.81658 10.4024 6.20711 10.7929Z" fill="currentColor" style="fill:currentColor;fill-opacity:1;"/>
<path d="M15 2C11.134 2 8 5.13401 8 9C8 12.866 11.134 16 15 16C18.866 16 22 12.866 22 9C22 5.13401 18.866 2 15 2Z" fill="currentColor" style="fill:currentColor;fill-opacity:1;"/>
</svg>
