<svg width="24" height="24" viewBox="0 0 24 24" fill="none" xmlns="http://www.w3.org/2000/svg">
<path d="M12.5804 3.19455C12.9221 3.20092 13.2619 3.23854 13.5982 3.304C13.5343 3.52494 13.5 3.75847 13.5 4V6C12.8602 6 12.2204 6.24408 11.7322 6.73223C10.7559 7.70854 10.7559 9.29146 11.7322 10.2678L14.2322 12.7678C15.2085 13.7441 16.7915 13.7441 17.7678 12.7678L20.2678 10.2678C20.4435 10.092 20.5876 9.89662 20.7001 9.68864C21.1679 10.7623 21.4575 11.8875 21.4957 12.9883C21.536 14.1514 21.2948 15.3127 20.6537 16.3367C20.0717 17.2662 19.1955 18.0257 18.0239 18.5662C17.4753 19.7273 16.706 20.5928 15.7687 21.1665C14.7367 21.7982 13.5678 22.0353 12.3975 21.9958C10.0846 21.9177 7.65956 20.7619 5.81918 19.177C3.99356 17.6048 2.54394 15.433 2.50099 13.1712C2.46092 11.0607 3.63759 9.18632 6.13262 7.8678C5.77849 7.26688 5.52016 6.64119 5.37717 5.97784C5.14916 4.92006 5.22976 3.83752 5.58832 2.69951C5.75428 2.17276 6.31585 1.88028 6.8426 2.04624C7.36936 2.21221 7.66184 2.77378 7.49587 3.30053C7.22414 4.16298 7.18869 4.89037 7.33226 5.5564C7.38096 5.7823 7.45198 6.00915 7.54728 6.23896C8.85872 4.13993 10.6245 3.15804 12.5804 3.19455Z" fill="currentColor"/>
<path d="M16 3C16.5523 3 17 3.44772 17 4V8.58579L17.7929 7.79289C18.1834 7.40237 18.8166 7.40237 19.2071 7.79289C19.5976 8.18342 19.5976 8.81658 19.2071 9.20711L16.7071 11.7071C16.3166 12.0976 15.6834 12.0976 15.2929 11.7071L12.7929 9.20711C12.4024 8.81658 12.4024 8.18342 12.7929 7.79289C13.1834 7.40237 13.8166 7.40237 14.2071 7.79289L15 8.58579V4C15 3.44772 15.4477 3 16 3Z" fill="currentColor"/>
</svg>
