<svg width="24" height="24" viewBox="0 0 24 24" fill="none" xmlns="http://www.w3.org/2000/svg">
  <path
    d="M11.75 2C9.42936 2 7.20376 2.92187 5.56282 4.56282C3.92187 6.20376 3 8.42936 3 10.75C3.0001 12.4597 3.5012 14.1319 4.44136 15.5599C5.38153 16.9879 6.71953 18.1092 8.29 18.785C8.153 17.975 8.048 17.16 8.016 16.514C7.05311 15.8916 6.26128 15.0381 5.71266 14.0314C5.16404 13.0246 4.87607 11.8965 4.875 10.75C4.87712 8.92729 5.60213 7.17983 6.89098 5.89098C8.17983 4.60213 9.92729 3.87712 11.75 3.875C13.5727 3.87712 15.3202 4.60213 16.609 5.89098C17.8979 7.17983 18.6229 8.92729 18.625 10.75C18.625 13.164 17.372 15.285 15.485 16.516C15.452 17.16 15.346 17.976 15.21 18.788C17.0605 17.992 18.5797 16.582 19.5112 14.7958C20.4426 13.0096 20.7292 10.9567 20.3226 8.98375C19.9159 7.01077 18.841 5.23852 17.2792 3.96619C15.7174 2.69386 13.7644 1.99938 11.75 2ZM11.75 14.188C10.466 14.188 9.25 14.524 9.25 15.896C9.25 17.191 9.753 19.971 10.056 21.084C10.258 21.828 11.012 22 11.75 22C12.488 22 13.244 21.83 13.444 21.087C13.746 19.965 14.25 17.187 14.25 15.898C14.25 14.523 13.035 14.188 11.75 14.188ZM11.75 12.938C12.0374 12.9383 12.322 12.8818 12.5876 12.772C12.8532 12.6621 13.0945 12.501 13.2977 12.2977C13.501 12.0945 13.6621 11.8532 13.772 11.5876C13.8818 11.322 13.9383 11.0374 13.938 10.75C13.938 9.541 12.926 8.562 11.75 8.562C10.574 8.562 9.562 9.539 9.562 10.75C9.562 11.96 10.539 12.938 11.75 12.938ZM17.375 10.75C17.375 9.25816 16.7824 7.82742 15.7275 6.77252C14.6726 5.71763 13.2418 5.125 11.75 5.125C10.2582 5.125 8.82742 5.71763 7.77252 6.77252C6.71763 7.82742 6.125 9.25816 6.125 10.75C6.125 12.501 6.942 14.046 8.197 15.078C8.387 14.584 8.749 14.068 9.449 13.709C9.449 13.707 9.461 13.707 9.469 13.707C9.01395 13.3596 8.64482 12.9123 8.39011 12.3996C8.1354 11.8869 8.00193 11.3225 8 10.75C8 10.2575 8.097 9.76991 8.28545 9.31494C8.47391 8.85997 8.75013 8.44657 9.09835 8.09835C9.44657 7.75013 9.85997 7.47391 10.3149 7.28545C10.7699 7.097 11.2575 7 11.75 7C12.2425 7 12.7301 7.097 13.1851 7.28545C13.64 7.47391 14.0534 7.75013 14.4017 8.09835C14.7499 8.44657 15.0261 8.85997 15.2145 9.31494C15.403 9.76991 15.5 10.2575 15.5 10.75C15.5 11.958 14.92 13.02 14.032 13.706C14.037 13.707 14.052 13.708 14.051 13.709C14.751 14.067 15.113 14.583 15.303 15.078C16.559 14.047 17.375 12.5 17.375 10.75Z"
    fill="currentColor" />
</svg>
