<svg width="25" height="24" viewBox="0 0 25 24" fill="none" xmlns="http://www.w3.org/2000/svg">
<path d="M15.6892 5.89619C15.2347 6.02873 14.7606 6.2013 14.2741 6.41205C13.3037 6.83238 12.1956 6.83238 11.2252 6.41205C10.7387 6.2013 10.2646 6.02873 9.81013 5.89619M15.6892 5.89619C17.5372 5.35725 19.0617 5.48007 19.7863 6.38877C20.5109 7.29746 20.2914 8.811 19.3546 10.4927M15.6892 5.89619C14.9584 4.1153 13.9119 3 12.7497 3C11.5874 3 10.5409 4.1153 9.81013 5.89619M15.6892 5.89619C15.8689 6.33417 16.0296 6.8124 16.1681 7.32419C16.4445 8.34496 17.1354 9.21131 18.069 9.70796C18.5371 9.95697 18.9676 10.22 19.3546 10.4927M9.81013 5.89619C7.96211 5.35725 6.43767 5.48007 5.71304 6.38877C4.98842 7.29747 5.20797 8.811 6.14471 10.4927M9.81013 5.89619C9.6304 6.33417 9.46976 6.8124 9.33118 7.3242C9.0548 8.34496 8.36394 9.21131 7.43029 9.70796C6.96218 9.95697 6.53169 10.22 6.14471 10.4927M19.3546 10.4927C20.9282 11.6016 21.7826 12.87 21.5239 14.0031C21.2652 15.1362 19.945 15.9082 18.0461 16.2243M19.3546 10.4927C19.1242 10.9063 18.8505 11.3301 18.5367 11.7575C17.911 12.61 17.6644 13.6903 17.8582 14.7299C17.9553 15.2512 18.0181 15.7517 18.0461 16.2243M18.0461 16.2243C18.1602 18.1459 17.7012 19.6048 16.654 20.109C15.607 20.6131 14.1805 20.0625 12.7497 18.7753M18.0461 16.2243C17.5793 16.302 17.0776 16.3522 16.5481 16.3734C15.4913 16.4157 14.4928 16.8966 13.8008 17.6964C13.4539 18.0975 13.1016 18.4587 12.7497 18.7753M12.7497 18.7753C11.3188 20.0625 9.89236 20.6131 8.84532 20.109C7.79813 19.6048 7.3391 18.1459 7.45321 16.2243M12.7497 18.7753C12.3977 18.4587 12.0454 18.0975 11.6985 17.6964C11.0065 16.8966 10.0081 16.4157 8.95127 16.3734C8.42173 16.3522 7.91999 16.302 7.45321 16.2243M7.45321 16.2243C5.55434 15.9082 4.23409 15.1362 3.97541 14.0031C3.71673 12.87 4.57115 11.6016 6.14471 10.4927M7.45321 16.2243C7.48127 15.7517 7.544 15.2512 7.64117 14.7299C7.83497 13.6903 7.58835 12.61 6.96258 11.7575C6.64883 11.3301 6.37508 10.9063 6.14471 10.4927" stroke="currentColor" style="stroke:currentColor;stroke-opacity:1;" stroke-width="2" stroke-linejoin="round"/>
</svg>
