<svg width="24" height="24" viewBox="0 0 24 24" fill="none" xmlns="http://www.w3.org/2000/svg">
<path fill-rule="evenodd" clip-rule="evenodd" d="M10.039 2.95571C11.2566 2.27078 12.7434 2.27078 13.961 2.95571L18.961 5.76821C19.2896 5.95305 19.5856 6.18037 19.8435 6.44109L12.0006 10.8528L4.15681 6.4408C4.41467 6.1802 4.71049 5.95298 5.03896 5.76821L10.039 2.95571ZM3.14997 8.16915C3.05169 8.51766 3 8.88236 3 9.25452V14.7454C3 16.1905 3.77945 17.5233 5.03896 18.2317L10.039 21.0442C10.3453 21.2166 10.6687 21.3455 11.0006 21.4311V12.585L3.14997 8.16915ZM13.0006 21.4308C13.332 21.3452 13.655 21.2164 13.961 21.0442L18.961 18.2317C20.2206 17.5233 21 16.1905 21 14.7454V9.25452C21 8.8825 20.9483 8.51793 20.8501 8.16953L13.0006 12.585V21.4308Z" fill="currentColor" style="fill:currentColor;fill-opacity:1;"/>
</svg>
