<svg width="24" height="24" viewBox="0 0 24 24" fill="none" xmlns="http://www.w3.org/2000/svg">
<path fill-rule="evenodd" clip-rule="evenodd" d="M12 2.49999C12.5523 2.49999 13 2.9477 13 3.49999V5.99999C13 6.55227 12.5523 6.99999 12 6.99999C11.4477 6.99999 11 6.55227 11 5.99999V3.49999C11 2.9477 11.4477 2.49999 12 2.49999ZM20.366 7.28866C20.6422 7.76695 20.4783 8.37854 20 8.65469L17.9019 9.86601C17.4236 10.1422 16.812 9.97828 16.5359 9.49999C16.2598 9.02169 16.4236 8.4101 16.9019 8.13396L19 6.92264C19.4783 6.64649 20.0899 6.81037 20.366 7.28866ZM3.63397 7.28866C3.91012 6.81037 4.52171 6.64649 5 6.92264L7.09808 8.13396C7.57637 8.4101 7.74024 9.02169 7.4641 9.49999C7.18796 9.97828 6.57637 10.1422 6.09808 9.86601L4 8.65469C3.52171 8.37855 3.35783 7.76695 3.63397 7.28866ZM7.4641 14.5C7.74024 14.9783 7.57637 15.5899 7.09808 15.866L5 17.0773C4.52171 17.3535 3.91012 17.1896 3.63397 16.7113C3.35783 16.233 3.52171 15.6214 4 15.3453L6.09808 14.134C6.57637 13.8578 7.18796 14.0217 7.4641 14.5ZM16.5359 14.5C16.812 14.0217 17.4236 13.8578 17.9019 14.134L20 15.3453C20.4783 15.6214 20.6422 16.233 20.366 16.7113C20.0899 17.1896 19.4783 17.3535 19 17.0773L16.9019 15.866C16.4236 15.5899 16.2598 14.9783 16.5359 14.5ZM12 17C12.5523 17 13 17.4477 13 18V20.5C13 21.0523 12.5523 21.5 12 21.5C11.4477 21.5 11 21.0523 11 20.5V18C11 17.4477 11.4477 17 12 17Z" fill="currentColor" style="fill:currentColor;fill-opacity:1;"/>
<path fill-rule="evenodd" clip-rule="evenodd" d="M12.2451 4.28522C12.0929 4.1996 11.9071 4.1996 11.7549 4.28522L10.3112 5.09729C9.82983 5.36805 9.22012 5.19733 8.94935 4.71598C8.67859 4.23462 8.84931 3.6249 9.33067 3.35414L10.7743 2.54207C11.5354 2.11399 12.4646 2.11399 13.2257 2.54207L14.6693 3.35414C15.1507 3.6249 15.3214 4.23462 15.0506 4.71598C14.7799 5.19733 14.1702 5.36805 13.6888 5.09729L12.2451 4.28522ZM16.871 5.73993C17.1418 5.25857 17.7515 5.08785 18.2328 5.35861L19.7257 6.19832C20.5128 6.64112 21 7.47407 21 8.37726V9.99999C21 10.5523 20.5523 11 20 11C19.4477 11 19 10.5523 19 9.99999V8.37726C19 8.19662 18.9026 8.03003 18.7451 7.94147L17.2523 7.10177C16.771 6.831 16.6002 6.22129 16.871 5.73993ZM7.12899 5.73993C7.39975 6.22129 7.22903 6.831 6.74768 7.10177L5.2546 7.94162C5.09736 8.03007 5 8.19639 5 8.37726L5 9.99999C5 10.5523 4.55228 11 4 11C3.44771 11 3 10.5523 3 9.99999L3 8.37726C3 7.47431 3.48668 6.64138 4.27407 6.19847L5.76715 5.35862C6.24851 5.08785 6.85823 5.25857 7.12899 5.73993ZM4 13C4.55228 13 5 13.4477 5 14V15.6227C5 15.8034 5.09743 15.9699 5.25487 16.0585L6.74768 16.8982C7.22903 17.169 7.39975 17.7787 7.12899 18.26C6.85823 18.7414 6.24851 18.9121 5.76715 18.6414L4.27435 17.8017C3.48715 17.3589 3 16.5259 3 15.6227V14C3 13.4477 3.44772 13 4 13ZM20 13C20.5523 13 21 13.4477 21 14V15.6227C21 16.5259 20.5128 17.3589 19.7257 17.8017L18.2328 18.6414C17.7515 18.9121 17.1418 18.7414 16.871 18.26C16.6002 17.7787 16.771 17.169 17.2523 16.8982L18.7451 16.0585C18.9026 15.9699 19 15.8034 19 15.6227V14C19 13.4477 19.4477 13 20 13ZM8.94934 19.284C9.22011 18.8026 9.82982 18.6319 10.3112 18.9027L11.7549 19.7148C11.9071 19.8004 12.0929 19.8004 12.2451 19.7148L13.6888 18.9027C14.1702 18.6319 14.7799 18.8026 15.0507 19.284C15.3214 19.7654 15.1507 20.3751 14.6693 20.6458L13.2257 21.4579C12.4646 21.886 11.5354 21.886 10.7743 21.4579L9.33066 20.6458C8.8493 20.3751 8.67858 19.7654 8.94934 19.284Z" fill="currentColor" style="fill:currentColor;fill-opacity:1;"/>
<path fill-rule="evenodd" clip-rule="evenodd" d="M14.5981 10.5C14.8742 10.9783 14.7104 11.5899 14.2321 11.866L13 12.5773V14C13 14.5523 12.5523 15 12 15C11.4477 15 11 14.5523 11 14V12.5773L9.76794 11.866C9.28965 11.5899 9.12578 10.9783 9.40192 10.5C9.67806 10.0217 10.2897 9.85782 10.7679 10.134L12 10.8453L13.2321 10.134C13.7103 9.85782 14.3219 10.0217 14.5981 10.5Z" fill="currentColor" style="fill:currentColor;fill-opacity:1;"/>
</svg>
