<svg width="24" height="24" viewBox="0 0 24 24" fill="none" xmlns="http://www.w3.org/2000/svg">
<path d="M7.20688 18.2929C7.5974 18.6834 7.5974 19.3166 7.20688 19.7071C6.81636 20.0976 6.18319 20.0976 5.79267 19.7071L2.85333 16.7678C1.87701 15.7915 1.87702 14.2085 2.85333 13.2322L5.79267 10.2929C6.18319 9.90237 6.81636 9.90237 7.20688 10.2929C7.5974 10.6834 7.5974 11.3166 7.20688 11.7071L4.91399 14H16.5C18.433 14 20 12.433 20 10.5C20 8.567 18.433 7 16.5 7H12C11.4477 7 11 6.55229 11 6C11 5.44771 11.4477 5 12 5H16.5C19.5376 5 22 7.46243 22 10.5C22 13.5376 19.5376 16 16.5 16H4.91399L7.20688 18.2929Z" fill="currentColor" style="fill:currentColor;fill-opacity:1;"/>
</svg>
