<svg width="24" height="24" viewBox="0 0 24 24" fill="none" xmlns="http://www.w3.org/2000/svg">
<path d="M16.7931 5.70711C16.4026 5.31658 16.4026 4.68342 16.7931 4.29289C17.1836 3.90237 17.8168 3.90237 18.2073 4.29289L21.1467 7.23223C22.123 8.20855 22.123 9.79146 21.1467 10.7678L18.2073 13.7071C17.8168 14.0976 17.1836 14.0976 16.7931 13.7071C16.4026 13.3166 16.4026 12.6834 16.7931 12.2929L19.086 10H7.5C5.567 10 4 11.567 4 13.5C4 15.433 5.567 17 7.5 17H12C12.5523 17 13 17.4477 13 18C13 18.5523 12.5523 19 12 19H7.5C4.46243 19 2 16.5376 2 13.5C2 10.4624 4.46243 8 7.5 8H19.086L16.7931 5.70711Z" fill="currentColor" style="fill:currentColor;fill-opacity:1;"/>
</svg>
