<svg width="24" height="24" viewBox="0 0 24 24" fill="none" xmlns="http://www.w3.org/2000/svg">
<path fill-rule="evenodd" clip-rule="evenodd" d="M15.7929 21.7071C16.1834 22.0976 16.8166 22.0976 17.2071 21.7071L20.1464 18.7678C21.1228 17.7915 21.1228 16.2085 20.1464 15.2322L19.4393 15.9393M15.7929 21.7071C15.4024 21.3166 15.4024 20.6834 15.7929 20.2929V21.7071ZM15.7929 20.2929L18.0858 18L15.7929 20.2929ZM18.0858 18H4C3.44772 18 3 17.5523 3 17C3 16.4477 3.44772 16 4 16H18.0858L15.7929 13.7071C15.4024 13.3166 15.4024 12.6834 15.7929 12.2929C16.1834 11.9024 16.8166 11.9024 17.2071 12.2929L20.1464 15.2322M8.20711 11.7071C8.59763 11.3166 8.59763 10.6834 8.20711 10.2929L5.91421 8L20 8C20.5523 8 21 7.55229 21 7C21 6.44771 20.5523 6 20 6L5.91421 6L8.20711 3.70711C8.59763 3.31658 8.59763 2.68342 8.20711 2.29289C7.81658 1.90237 7.18342 1.90237 6.79289 2.29289L3.85355 5.23223C2.87724 6.20854 2.87724 7.79145 3.85355 8.76777L6.79289 11.7071C7.18342 12.0976 7.81658 12.0976 8.20711 11.7071Z" fill="currentColor" style="fill:currentColor;fill-opacity:1;"/>
</svg>
