<svg width="24" height="24" viewBox="0 0 24 24" fill="none" xmlns="http://www.w3.org/2000/svg">
<path fill-rule="evenodd" clip-rule="evenodd" d="M9.41804 4C8.22103 4 7.08693 4.53608 6.32713 5.46104L3.04142 9.46104C1.82929 10.9367 1.82929 13.0633 3.04142 14.539L6.32713 18.539C7.08692 19.4639 8.22103 20 9.41804 20H18C20.2091 20 22 18.2091 22 16V8C22 5.79086 20.2091 4 18 4H9.41804ZM10.5412 9.29289C10.9317 8.90237 11.5649 8.90237 11.9554 9.29289L13.25 10.5875L14.5445 9.29289C14.9351 8.90237 15.5682 8.90237 15.9587 9.29289C16.3493 9.68342 16.3493 10.3166 15.9587 10.7071L14.6642 12.0017L15.9571 13.2946C16.3476 13.6851 16.3476 14.3182 15.9571 14.7088C15.5666 15.0993 14.9334 15.0993 14.5429 14.7088L13.25 13.4159L11.9571 14.7088C11.5666 15.0993 10.9334 15.0993 10.5429 14.7088C10.1523 14.3182 10.1523 13.6851 10.5429 13.2946L11.8358 12.0017L10.5412 10.7071C10.1507 10.3166 10.1507 9.68342 10.5412 9.29289Z" fill="currentColor" style="fill:currentColor;fill-opacity:1;"/>
</svg>
