<svg width="24" height="24" viewBox="0 0 24 24" fill="none" xmlns="http://www.w3.org/2000/svg">
<path d="M11.7071 1.29289C11.3166 0.902369 10.6834 0.902369 10.2929 1.29289C9.90237 1.68342 9.90237 2.31658 10.2929 2.70711L11.7071 1.29289ZM14 5L14.7071 5.70711C15.0976 5.31658 15.0976 4.68342 14.7071 4.29289L14 5ZM10.2929 7.29289C9.90237 7.68342 9.90237 8.31658 10.2929 8.70711C10.6834 9.09763 11.3166 9.09763 11.7071 8.70711L10.2929 7.29289ZM13.7071 16.7071C14.0976 16.3166 14.0976 15.6834 13.7071 15.2929C13.3166 14.9024 12.6834 14.9024 12.2929 15.2929L13.7071 16.7071ZM10 19L9.29289 18.2929C8.90237 18.6834 8.90237 19.3166 9.29289 19.7071L10 19ZM12.2929 22.7071C12.6834 23.0976 13.3166 23.0976 13.7071 22.7071C14.0976 22.3166 14.0976 21.6834 13.7071 21.2929L12.2929 22.7071ZM19.7142 6.40111C19.3277 6.00665 18.6946 6.00023 18.3001 6.38677C17.9056 6.77332 17.8992 7.40645 18.2858 7.80091L19.7142 6.40111ZM13 6C13.5523 6 14 5.55228 14 5C14 4.44772 13.5523 4 13 4V6ZM4.28576 17.5989C4.6723 17.9933 5.30544 17.9998 5.6999 17.6132C6.09436 17.2267 6.10079 16.5935 5.71424 16.1991L4.28576 17.5989ZM10.2929 2.70711L13.2929 5.70711L14.7071 4.29289L11.7071 1.29289L10.2929 2.70711ZM13.2929 4.29289L10.2929 7.29289L11.7071 8.70711L14.7071 5.70711L13.2929 4.29289ZM12.2929 15.2929L9.29289 18.2929L10.7071 19.7071L13.7071 16.7071L12.2929 15.2929ZM9.29289 19.7071L12.2929 22.7071L13.7071 21.2929L10.7071 18.2929L9.29289 19.7071ZM14 18H11V20H14V18ZM20 12C20 15.3137 17.3137 18 14 18V20C18.4183 20 22 16.4183 22 12H20ZM22 12C22 9.82056 21.1272 7.84299 19.7142 6.40111L18.2858 7.80091C19.3472 8.88411 20 10.3648 20 12H22ZM10 6H13V4H10V6ZM4 12C4 8.68629 6.68629 6 10 6V4C5.58172 4 2 7.58172 2 12H4ZM2 12C2 14.1794 2.87283 16.157 4.28576 17.5989L5.71424 16.1991C4.65279 15.1159 4 13.6352 4 12H2Z" fill="currentColor"/>
</svg>
