<svg width="24" height="24" viewBox="0 0 24 24" fill="none" xmlns="http://www.w3.org/2000/svg">
<path d="M12.0073 16.9155L23 10.0614V11.9201L12.0073 18.8033L1 11.9201V10.0614L12.0073 16.9155Z" fill="currentColor"/>
<path d="M12.0073 8.3188C9.5241 8.3188 7.34588 9.56764 6.09703 11.499C6.19868 11.3973 6.25676 11.3393 6.35842 11.2667C9.45148 8.69636 13.9096 9.27721 16.3347 12.5155L17.9465 11.4845C16.6686 9.61121 14.4759 8.3188 12.0073 8.3188Z" fill="currentColor"/>
<path d="M12.0073 11.499C10.6568 11.499 9.46601 12.1815 8.75446 13.169C9.33532 12.7479 10.0033 12.53 10.7149 12.53C11.9056 12.53 12.9657 13.1399 13.6772 14.171L15.2165 13.2125C14.5485 12.1525 13.3578 11.499 12.0073 11.499Z" fill="currentColor"/>
<path d="M4.57228 8.7109C9.10297 5.13862 15.5069 6.11155 18.9195 10.8601L18.9485 10.8891L20.6185 9.85808C18.7888 7.05544 15.6086 5.1967 12.0073 5.1967C8.43499 5.1967 5.25478 7.0264 3.39603 9.85808C3.73003 9.48053 4.15116 9.03037 4.57228 8.7109Z" fill="currentColor"/>
</svg>
