<svg width="24" height="24" viewBox="0 0 24 24" fill="none" xmlns="http://www.w3.org/2000/svg">
<path fill-rule="evenodd" clip-rule="evenodd" d="M8.12602 4H6C4.34315 4 3 5.34315 3 7V8C3 9.03948 3.39651 9.98636 4.04653 10.6976C4.0163 10.793 4 10.8946 4 11V18C4 20.2091 5.79086 22 8 22H16C18.2091 22 20 20.2091 20 18V11C20 10.8946 19.9837 10.793 19.9535 10.6976C20.6035 9.98636 21 9.03949 21 8V7C21 5.34315 19.6569 4 18 4H15.874C15.4299 2.27477 13.8638 1 12 1C10.1362 1 8.57006 2.27477 8.12602 4ZM10.2676 4H13.7324C13.3866 3.4022 12.7403 3 12 3C11.2597 3 10.6134 3.4022 10.2676 4ZM18 11.874C17.6804 11.9562 17.3453 12 17 12H16V13C16 13.5523 15.5523 14 15 14C14.4477 14 14 13.5523 14 13V12H10V13C10 13.5523 9.55228 14 9 14C8.44772 14 8 13.5523 8 13V12H7C6.6547 12 6.31962 11.9562 6 11.874V18C6 19.1046 6.89543 20 8 20H16C17.1046 20 18 19.1046 18 18V11.874ZM9 17C9 16.4477 9.44772 16 10 16H14C14.5523 16 15 16.4477 15 17C15 17.5523 14.5523 18 14 18H10C9.44772 18 9 17.5523 9 17Z" fill="currentColor" style="fill:currentColor;fill-opacity:1;"/>
</svg>
