<svg width="24" height="24" viewBox="0 0 24 24" fill="none" xmlns="http://www.w3.org/2000/svg">
<path d="M9.00195 6C9.00195 5.44772 9.44967 5 10.002 5H14.002C14.5542 5 15.002 5.44772 15.002 6V7H17V21H18.0022C20.2113 21 22.0022 19.2091 22.0022 17V12C22.0022 11.9775 22.0015 11.9553 22 11.9332V11C22 8.79086 20.2091 7 18 7H17.002V6C17.002 4.34315 15.6588 3 14.002 3H10.002C8.3451 3 7.00195 4.34315 7.00195 6V7H9V21H15V7H9.00195V6Z" fill="currentColor" style="fill:currentColor;fill-opacity:1;"/>
<path d="M6 7H7V21H6.0022C3.79306 21 2.0022 19.2091 2.0022 17L2 11C2 8.79086 3.79086 7 6 7Z" fill="currentColor" style="fill:currentColor;fill-opacity:1;"/>
</svg>
