<svg width="24" height="24" viewBox="0 0 24 24" fill="none" xmlns="http://www.w3.org/2000/svg">
<path d="M2 2C1.44772 2 1 2.44772 1 3C1 3.55228 1.44772 4 2 4H2.72931C2.97373 4 3.18232 4.17671 3.22251 4.4178L4.59581 12.6576C4.91726 14.5863 6.58602 16 8.54138 16H17.0271C18.9419 16 20.5881 14.643 20.9536 12.7635L21.8843 7.97717C22.1844 6.43391 21.0024 5 19.4302 5H5.34713L5.19529 4.089C4.99438 2.88353 3.95141 2 2.72931 2H2Z" fill="currentColor" style="fill:currentColor;fill-opacity:1;"/>
<path d="M8 17C6.89543 17 6 17.8954 6 19C6 20.1046 6.89543 21 8 21C9.10457 21 10 20.1046 10 19C10 17.8954 9.10457 17 8 17Z" fill="currentColor" style="fill:currentColor;fill-opacity:1;"/>
<path d="M17 17C15.8954 17 15 17.8954 15 19C15 20.1046 15.8954 21 17 21C18.1046 21 19 20.1046 19 19C19 17.8954 18.1046 17 17 17Z" fill="currentColor" style="fill:currentColor;fill-opacity:1;"/>
</svg>
