<svg width="24" height="24" viewBox="0 0 24 24" fill="none" xmlns="http://www.w3.org/2000/svg">
<path fill-rule="evenodd" clip-rule="evenodd" d="M5 5C2.79086 5 1 6.79086 1 9V15C1 17.2091 2.79086 19 5 19H16C17.8638 19 19.4299 17.7252 19.874 16H20.5C21.8807 16 23 14.8807 23 13.5V10.5C23 9.11929 21.8807 8 20.5 8H19.874C19.4299 6.27477 17.8638 5 16 5H5ZM20 10V14H20.5C20.7761 14 21 13.7761 21 13.5V10.5C21 10.2239 20.7761 10 20.5 10H20ZM7.79289 9.29289C8.18342 8.90237 8.81658 8.90237 9.20711 9.29289L10.5 10.5858L11.7929 9.29289C12.1834 8.90237 12.8166 8.90237 13.2071 9.29289C13.5976 9.68342 13.5976 10.3166 13.2071 10.7071L11.9142 12L13.2071 13.2929C13.5976 13.6834 13.5976 14.3166 13.2071 14.7071C12.8166 15.0976 12.1834 15.0976 11.7929 14.7071L10.5 13.4142L9.20711 14.7071C8.81658 15.0976 8.18342 15.0976 7.79289 14.7071C7.40237 14.3166 7.40237 13.6834 7.79289 13.2929L9.08579 12L7.79289 10.7071C7.40237 10.3166 7.40237 9.68342 7.79289 9.29289Z" fill="currentColor" style="fill:currentColor;fill-opacity:1;"/>
</svg>
