<svg width="24" height="24" viewBox="0 0 24 24" fill="none" xmlns="http://www.w3.org/2000/svg">
<path d="M19.6354 4.1678C15.9861 0.647322 9.74973 1.59127 5.6705 5.6705C2.15256 9.18844 0.966453 14.3107 2.96468 17.9944C3.89164 15.9103 5.08208 14.4894 6.44719 13.4654C8.10079 12.2251 9.95207 11.6188 11.632 11.0687L11.691 11.0494C13.4306 10.4797 14.9906 9.96042 16.3616 8.9337C17.6175 7.9932 18.7687 6.58014 19.6354 4.1678Z" fill="currentColor"/>
<path d="M4.37837 19.8454C8.02964 23.3495 14.255 22.4027 18.3288 18.3288C21.8411 14.8165 23.0291 9.70493 21.0442 6.02256C20.1145 8.09769 18.9238 9.51358 17.5604 10.5346C15.9055 11.7739 14.0544 12.38 12.3752 12.9299L12.3135 12.9501C10.574 13.5198 9.01558 14.039 7.6473 15.0653C6.39143 16.0074 5.24129 17.4239 4.37837 19.8454Z" fill="currentColor"/>
</svg>
