<svg width="24" height="24" viewBox="0 0 24 24" fill="none" xmlns="http://www.w3.org/2000/svg">
<path d="M8.1426 2.76465C7.85845 2.29107 8.01202 1.67681 8.4856 1.39266C8.95918 1.10851 9.57344 1.26208 9.85759 1.73566L11.3576 4.23566C11.4155 4.33221 11.4553 4.4346 11.4778 4.53886C11.6482 4.51336 11.8226 4.50015 12.0001 4.50015C12.1776 4.50015 12.352 4.51336 12.5224 4.53886C12.5449 4.4346 12.5847 4.33221 12.6426 4.23566L14.1426 1.73566C14.4267 1.26208 15.041 1.10851 15.5146 1.39266C15.9882 1.67681 16.1417 2.29107 15.8576 2.76465L14.3576 5.26465C14.3382 5.29704 14.3172 5.32794 14.2948 5.3573C15.0332 5.999 15.5001 6.94505 15.5001 8.00015C15.5001 8.00012 15.5001 8.00018 15.5001 8.00015C15.5001 8.97473 15.1017 9.85634 14.459 10.4909C13.9228 11.0202 13.2167 11.3777 12.4298 11.474C12.4298 11.474 12.4298 11.4741 12.4298 11.474C12.2889 11.4913 12.1455 11.5002 12 11.5002C11.8545 11.5002 11.7111 11.4913 11.5702 11.4741C11.5702 11.4741 11.5702 11.4741 11.5702 11.4741C10.7834 11.3777 10.0773 11.0202 9.54125 10.4909C9.54124 10.4909 9.54125 10.491 9.54125 10.4909C9.39039 10.342 9.25302 10.1797 9.13107 10.0055C9.13103 10.0055 9.13112 10.0055 9.13107 10.0055C8.73335 9.4376 8.50009 8.74613 8.50009 8.00015C8.50009 6.94505 8.96696 5.99899 9.70539 5.35729C9.68302 5.32793 9.66204 5.29704 9.6426 5.26465L8.1426 2.76465Z" fill="currentColor"/>
<path d="M6.99968 10.294C3.9338 11.0977 2.47471 13.5083 2.1 17.0032C1.98225 18.1015 2.90483 19.0293 3.99168 18.8322C7.41879 18.2107 9.09413 15.9201 9.4835 12.892C8.39243 12.3296 7.51379 11.4129 6.99968 10.294Z" fill="currentColor"/>
<path d="M11.38 13.4657C11.1326 14.8551 10.6334 16.1679 9.8023 17.3053C9.30503 17.9857 8.71494 18.5686 8.03835 19.051C8.25207 19.4391 8.49613 19.7972 8.768 20.1176C9.36688 20.8235 10.1262 21.3714 11 21.6139V22.0002C11 22.5525 11.4477 23.0002 12 23.0002C12.5523 23.0002 13 22.5525 13 22.0002V21.6139C13.8738 21.3714 14.6331 20.8235 15.2319 20.1176C15.5038 19.7971 15.7479 19.4391 15.9616 19.0509C15.285 18.5685 14.695 17.9857 14.1977 17.3053C13.3666 16.1679 12.8675 14.8551 12.62 13.4657C12.4165 13.4885 12.2096 13.5002 12 13.5002C11.7904 13.5002 11.5835 13.4885 11.38 13.4657Z" fill="currentColor"/>
<path d="M14.5167 12.892C14.906 15.9201 16.5814 18.2107 20.0085 18.8322C21.0954 19.0293 22.0167 18.1021 21.9155 17.0021C21.5803 13.3597 20.2059 11.0149 17.0146 10.2628C16.5025 11.3958 15.6178 12.3243 14.5167 12.892Z" fill="currentColor"/>
</svg>
