<svg width="24" height="25" viewBox="0 0 24 25" fill="none" xmlns="http://www.w3.org/2000/svg">
<path d="M8.97488 2.64664C7.40222 3.11814 6.0155 5.82314 7.06002 6.38155C7.42227 6.57523 16.6623 6.61625 16.9413 6.4255C17.9343 5.74632 16.548 3.09357 14.974 2.66178C14.219 2.45459 9.65375 2.44304 8.97488 2.64664ZM4.6946 8.00715C3.86827 8.34731 3.48582 9.09859 3.48582 10.3816C3.48582 11.4145 3.53145 11.6082 3.80928 11.7569C4.37082 12.057 20.2419 11.9029 20.4365 11.5954C20.6807 11.2092 20.621 9.7055 20.3381 9.11893C19.7467 7.89306 20.0454 7.93733 12.1223 7.90055C8.22367 7.88232 4.88118 7.93033 4.6946 8.00715ZM2.38687 13.3905C1.53349 13.7332 1.11633 15.1954 1.60356 16.1365C2.08883 17.0737 2.33668 17.1291 6.04662 17.1286L9.43357 17.1282L9.75951 16.5314C10.7732 14.6756 13.3358 14.7595 14.3409 16.6816L14.5749 17.1291H21.4432L21.9973 16.5757C22.8057 15.7683 22.8057 14.5838 21.9973 13.7763L21.4432 13.2229L12.0979 13.2332C6.95068 13.2389 2.58828 13.3096 2.38687 13.3905ZM3.77099 18.607C3.53829 18.7423 3.48582 19.0044 3.48582 20.0305C3.48582 22.1947 3.93801 22.5 7.14411 22.5H9.35211V18.4311L6.70413 18.4361C5.21035 18.4389 3.93182 18.5133 3.77099 18.607ZM14.5666 20.4656V22.5H16.9074C19.9845 22.5 20.5958 22.0739 20.5958 19.9293C20.5958 18.4544 20.5442 18.4311 17.2832 18.4311H14.5666V20.4656Z" fill="currentColor"/>
</svg>
