<svg width="24" height="24" viewBox="0 0 24 24" fill="none" xmlns="http://www.w3.org/2000/svg">
<path d="M16 6V6.5C16 7.32843 16.6716 8 17.5 8H18M16 6V5.5C16 4.67157 16.6716 4 17.5 4H18.5C19.3284 4 20 4.67157 20 5.5V6.5C20 7.32843 19.3284 8 18.5 8H18M16 6H8M6 8V16M8 18H16M18 16V8M14 12H10M20 18.5V17.5C20 16.6716 19.3284 16 18.5 16H17.5C16.6716 16 16 16.6716 16 17.5V18.5C16 19.3284 16.6716 20 17.5 20H18.5C19.3284 20 20 19.3284 20 18.5ZM5.5 20H6.5C7.32843 20 8 19.3284 8 18.5V17.5C8 16.6716 7.32843 16 6.5 16H5.5C4.67157 16 4 16.6716 4 17.5V18.5C4 19.3284 4.67157 20 5.5 20ZM5.5 8H6.5C7.32843 8 8 7.32843 8 6.5V5.5C8 4.67157 7.32843 4 6.5 4H5.5C4.67157 4 4 4.67157 4 5.5V6.5C4 7.32843 4.67157 8 5.5 8Z" stroke="currentColor" stroke-width="2" stroke-linecap="round" stroke-linejoin="round"/>
</svg>
