<svg width="24" height="24" viewBox="0 0 24 24" fill="none" xmlns="http://www.w3.org/2000/svg">
<path fill-rule="evenodd" clip-rule="evenodd" d="M5.5 3C4.11929 3 3 4.11929 3 5.5V6.5C3 7.70948 3.85888 8.71836 5 8.94999V15.05C3.85888 15.2816 3 16.2905 3 17.5V18.5C3 19.8807 4.11929 21 5.5 21H6.5C7.70948 21 8.71836 20.1411 8.94999 19H15.05C15.2816 20.1411 16.2905 21 17.5 21H18.5C19.8807 21 21 19.8807 21 18.5V17.5C21 16.2905 20.1411 15.2816 19 15.05V8.94999C20.1411 8.71836 21 7.70948 21 6.5V5.5C21 4.11929 19.8807 3 18.5 3H17.5C16.2905 3 15.2816 3.85888 15.05 5H8.94999C8.71836 3.85888 7.70948 3 6.5 3H5.5ZM7 15.05V8.94999C7.97957 8.75115 8.75115 7.97957 8.94999 7H15.05C15.2488 7.97957 16.0204 8.75115 17 8.94999V15.05C16.0204 15.2488 15.2488 16.0204 15.05 17H8.94999C8.75115 16.0204 7.97957 15.2488 7 15.05Z" fill="currentColor" style="fill:currentColor;fill-opacity:1;"/>
</svg>
