<svg width="24" height="24" viewBox="0 0 24 24" fill="none" xmlns="http://www.w3.org/2000/svg">
<path d="M16 6V6.5C16 7.32843 16.6716 8 17.5 8H18M16 6V5.5C16 4.67157 16.6716 4 17.5 4H18.5C19.3284 4 20 4.67157 20 5.5V6.5C20 7.32843 19.3284 8 18.5 8H18M16 6H8M6 8V16M8 18H10M18 8V10M5.5 20H6.5C7.32843 20 8 19.3284 8 18.5V17.5C8 16.6716 7.32843 16 6.5 16H5.5C4.67157 16 4 16.6716 4 17.5V18.5C4 19.3284 4.67157 20 5.5 20ZM5.5 8H6.5C7.32843 8 8 7.32843 8 6.5V5.5C8 4.67157 7.32843 4 6.5 4H5.5C4.67157 4 4 4.67157 4 5.5V6.5C4 7.32843 4.67157 8 5.5 8ZM13.1154 12.4972L19.5674 14.3407C19.9988 14.4639 20.0621 15.049 19.6671 15.2617L16.9356 16.7325C16.8495 16.7788 16.7788 16.8495 16.7325 16.9356L15.2617 19.6671C15.049 20.0621 14.4639 19.9988 14.3407 19.5674L12.4972 13.1154C12.3895 12.7382 12.7382 12.3895 13.1154 12.4972Z" stroke="currentColor" stroke-width="2" stroke-linecap="round" stroke-linejoin="round"/>
</svg>
