<svg width="24" height="24" viewBox="0 0 24 24" fill="none" xmlns="http://www.w3.org/2000/svg">
<path fill-rule="evenodd" clip-rule="evenodd" d="M13 5C13 4.44772 13.4477 4 14 4C15.6287 4 17.0645 5.06831 17.5325 6.6283L18.55 10.02C18.6982 10.0068 18.8483 10 19 10C21.7614 10 24 12.2386 24 15C24 17.7614 21.7614 20 19 20C16.2386 20 14 17.7614 14 15C14 13.0944 15.066 11.4378 16.6342 10.594L16.3533 9.65783L12.8964 13.4988C12.8855 13.7939 12.813 14.1005 12.6501 14.4069C12.1474 15.3525 11.1501 16 10 16H9.89998C9.43671 18.2822 7.41896 20 5 20C2.23858 20 0 17.7614 0 15C0 12.2386 2.23858 10 5 10C7.41896 10 9.43671 11.7178 9.89998 14H10C10.3815 14 10.7148 13.7867 10.8841 13.4681C10.8842 13.4679 10.8844 13.4676 10.8845 13.4674C10.8891 13.4589 10.9092 13.4218 10.8791 13.3035C10.8448 13.1692 10.7585 12.9931 10.6175 12.7992L7.19126 8.08817C7.17039 8.05948 7.15127 8.03004 7.13388 8H7C6.44772 8 6 7.55228 6 7C6 6.44772 6.44772 6 7 6H10C10.5523 6 11 6.44772 11 7C11 7.55228 10.5523 8 10 8H9.60013L12.0826 11.4134L15.6806 7.41556L15.6169 7.203C15.4027 6.48898 14.7455 6 14 6C13.4477 6 13 5.55228 13 5ZM7.82929 14C7.41746 12.8348 6.30622 12 5 12C3.34315 12 2 13.3431 2 15C2 16.6569 3.34315 18 5 18C6.30622 18 7.41746 17.1652 7.82929 16H5C4.44772 16 4 15.5523 4 15C4 14.4477 4.44772 14 5 14H7.82929ZM19.1451 12.0034L19.9578 14.7127C20.1165 15.2416 19.8163 15.7991 19.2873 15.9578C18.7584 16.1165 18.2009 15.8163 18.0422 15.2873L17.2294 12.578C16.484 13.1238 16 14.0054 16 15C16 16.6569 17.3431 18 19 18C20.6569 18 22 16.6569 22 15C22 13.3918 20.7345 12.0791 19.1451 12.0034Z" fill="currentColor" style="fill:currentColor;fill-opacity:1;"/>
</svg>
