<svg width="24" height="24" viewBox="0 0 24 24" fill="none" xmlns="http://www.w3.org/2000/svg">
<path fill-rule="evenodd" clip-rule="evenodd" d="M7 22C5.34315 22 4 20.6569 4 19V6C4 3.79086 5.79086 2 8 2H16C18.2091 2 20 3.79086 20 6V15.8571C20 16.8154 19.6892 17.7477 19.1143 18.5143C17.4686 20.7086 14.8857 22 12.1429 22H7ZM18 15.5C18 15.8668 17.8824 16.0695 17.7388 16.2067C17.5716 16.3665 17.2912 16.5067 16.8887 16.5777C16.05 16.7257 15.0668 16.5093 14.5547 16.1679C14.1581 15.9035 13.63 15.9558 13.2929 16.2929L12.2218 17.364C11.2944 18.2914 10.5602 18.9354 9.77838 19.3601C9.02426 19.7698 8.17809 20 7 20C6.44772 20 6 19.5523 6 19V6C6 4.89543 6.89543 4 8 4H16C17.1046 4 18 4.89543 18 6V15.5Z" fill="currentColor" style="fill:currentColor;fill-opacity:1;"/>
</svg>
