<svg width="24" height="24" viewBox="0 0 24 24" fill="none" xmlns="http://www.w3.org/2000/svg">
<path fill-rule="evenodd" clip-rule="evenodd" d="M9.75869 2C8.95373 1.99999 8.28937 1.99998 7.74818 2.04419C7.18608 2.09012 6.66938 2.18868 6.18404 2.43598C5.4314 2.81947 4.81947 3.43139 4.43598 4.18404C4.18869 4.66937 4.09012 5.18608 4.0442 5.74818C3.99998 6.28937 3.99999 6.95373 4 7.7587L4 18.9346C3.99997 19.3993 3.99995 19.8149 4.0302 20.1459C4.06022 20.4742 4.13131 20.909 4.41673 21.2788C4.77955 21.7489 5.33249 22.0334 5.92589 22.0554C6.39272 22.0727 6.7878 21.8779 7.07245 21.7115C7.35934 21.5437 7.69748 21.3022 8.07564 21.032L11.6513 18.478C11.8295 18.3507 11.9229 18.2846 11.9935 18.2412L12 18.2372L12.0065 18.2412C12.0771 18.2846 12.1705 18.3507 12.3487 18.478L15.9244 21.032C16.3024 21.3021 16.6408 21.5438 16.9276 21.7115C17.2122 21.8779 17.6073 22.0727 18.0741 22.0554C18.6675 22.0334 19.2205 21.7489 19.5833 21.2788C19.8687 20.909 19.9398 20.4742 19.9698 20.1459C20.0001 19.8149 20 19.3994 20 18.9347L20 7.75873C20 6.95374 20 6.28938 19.9558 5.74818C19.9099 5.18608 19.8113 4.66937 19.564 4.18404C19.1805 3.43139 18.5686 2.81947 17.816 2.43598C17.3306 2.18868 16.8139 2.09012 16.2518 2.04419C15.7106 1.99998 15.0463 1.99999 14.2413 2H9.75869ZM14.8284 7.17159C15.219 7.56211 15.219 8.19528 14.8284 8.5858L13.4142 10L14.8284 11.4142C15.219 11.8047 15.219 12.4379 14.8284 12.8284C14.4379 13.2189 13.8048 13.2189 13.4142 12.8284L12 11.4142L10.5858 12.8284C10.1953 13.219 9.56212 13.219 9.17159 12.8284C8.78107 12.4379 8.78107 11.8048 9.17159 11.4142L10.5858 10L9.17159 8.58577C8.78107 8.19525 8.78107 7.56208 9.17159 7.17156C9.56212 6.78104 10.1953 6.78104 10.5858 7.17156L12 8.58579L13.4142 7.17159C13.8048 6.78106 14.4379 6.78106 14.8284 7.17159Z" fill="currentColor" style="fill:currentColor;fill-opacity:1;"/>
</svg>
