<svg width="24" height="24" viewBox="0 0 24 24" fill="none" xmlns="http://www.w3.org/2000/svg">
<path fill-rule="evenodd" clip-rule="evenodd" d="M8 6C8 3.79086 9.79086 2 12 2H18C20.2091 2 22 3.79086 22 6V12C22 14.2091 20.2091 16 18 16H16V18C16 20.2091 14.2091 22 12 22H6C3.79086 22 2 20.2091 2 18V12C2 9.79086 3.79086 8 6 8H8V6ZM18 14H16V12C16 9.79086 14.2091 8 12 8H10V6C10 4.89543 10.8954 4 12 4H18C19.1046 4 20 4.89543 20 6V12C20 13.1046 19.1046 14 18 14ZM8 12V10H6C4.89543 10 4 10.8954 4 12V18C4 19.1046 4.89543 20 6 20H12C13.1046 20 14 19.1046 14 18V16H12C9.79086 16 8 14.2091 8 12Z" fill="currentColor" style="fill:currentColor;fill-opacity:1;"/>
</svg>
