<svg width="24" height="24" viewBox="0 0 24 24" fill="none" xmlns="http://www.w3.org/2000/svg">
<path fill-rule="evenodd" clip-rule="evenodd" d="M12 2C9.79086 2 8 3.79086 8 6V8H6C3.79086 8 2 9.79086 2 12V18C2 20.2091 3.79086 22 6 22H12C14.2091 22 16 20.2091 16 18V16H18C20.2091 16 22 14.2091 22 12V6C22 3.79086 20.2091 2 18 2H12ZM13 15C13 15.5523 12.5523 16 12 16C9.79086 16 8 14.2091 8 12C8 11.4477 8.44772 11 9 11C9.55228 11 10 11.4477 10 12C10 13.1046 10.8954 14 12 14C12.5523 14 13 14.4477 13 15ZM12 8C11.4477 8 11 8.44771 11 9C11 9.55229 11.4477 10 12 10C13.1046 10 14 10.8954 14 12C14 12.5523 14.4477 13 15 13C15.5523 13 16 12.5523 16 12C16 9.79086 14.2091 8 12 8Z" fill="currentColor" style="fill:currentColor;fill-opacity:1;"/>
</svg>
