<svg width="24" height="24" viewBox="0 0 24 24" fill="none" xmlns="http://www.w3.org/2000/svg">
<path d="M12.0572 8.83765C12.2412 8.31694 12.8125 8.04401 13.3332 8.22806C14.4705 8.63002 15.3702 9.52968 15.7721 10.6669C15.9562 11.1877 15.6833 11.759 15.1625 11.943C14.6418 12.1271 14.0705 11.8542 13.8865 11.3334C13.6858 10.7659 13.2343 10.3143 12.6668 10.1137C12.146 9.92969 11.8731 9.35837 12.0572 8.83765Z" fill="currentColor" style="fill:currentColor;fill-opacity:1;"/>
<path fill-rule="evenodd" clip-rule="evenodd" d="M8 6C8 3.79086 9.79086 2 12 2H18C20.2091 2 22 3.79086 22 6V12C22 14.2091 20.2091 16 18 16H16V18C16 20.2091 14.2091 22 12 22H6C3.79086 22 2 20.2091 2 18V12C2 9.79086 3.79086 8 6 8H8V6ZM10 12C10 13.1046 10.8954 14 12 14H18C19.1046 14 20 13.1046 20 12V6C20 4.89543 19.1046 4 18 4H12C10.8954 4 10 4.89543 10 6V12Z" fill="currentColor" style="fill:currentColor;fill-opacity:1;"/>
</svg>
