<svg width="24" height="24" viewBox="0 0 24 24" fill="none" xmlns="http://www.w3.org/2000/svg">
<path d="M9.5 1C8.94772 1 8.5 1.44772 8.5 2C8.5 2.37014 8.7011 2.69331 9 2.86622V5.75736C9 6.28779 8.78929 6.7965 8.41421 7.17157L7.17157 8.41421C6.42143 9.16436 6 10.1818 6 11.2426V19C6 21.2091 7.79086 23 10 23H14C16.2091 23 18 21.2091 18 19V11.2426C18 10.1818 17.5786 9.16436 16.8284 8.41421L15.5858 7.17157C15.2107 6.7965 15 6.28779 15 5.75736V2.86622C15.2989 2.69331 15.5 2.37014 15.5 2C15.5 1.44772 15.0523 1 14.5 1H9.5Z" fill="currentColor" style="fill:currentColor;fill-opacity:1;"/>
</svg>
