<svg width="24" height="24" viewBox="0 0 24 24" fill="none" xmlns="http://www.w3.org/2000/svg">
<path fill-rule="evenodd" clip-rule="evenodd" d="M3 7C3 4.79086 4.79086 3 7 3C7.55228 3 8 3.44772 8 4C8 4.55228 7.55228 5 7 5C5.89543 5 5 5.89543 5 7V17C5 18.1046 5.89543 19 7 19C7.55228 19 8 19.4477 8 20C8 20.5523 7.55228 21 7 21C4.79086 21 3 19.2091 3 17V7ZM16 4C16 3.44772 16.4477 3 17 3C19.2091 3 21 4.79086 21 7V17C21 19.2091 19.2091 21 17 21C16.4477 21 16 20.5523 16 20C16 19.4477 16.4477 19 17 19C18.1046 19 19 18.1046 19 17V7C19 5.89543 18.1046 5 17 5C16.4477 5 16 4.55228 16 4Z" fill="currentColor" style="fill:currentColor;fill-opacity:1;"/>
</svg>
