<svg width="24" height="24" viewBox="0 0 24 24" fill="none" xmlns="http://www.w3.org/2000/svg">
<path d="M12.9474 9.10225L15.7696 4.14382C16.3823 3.06724 17.7491 2.68379 18.8339 3.2841C19.9268 3.88892 20.3217 5.26376 19.7159 6.3549L16.933 11.3669M9.00214 11.8469C7.35656 13.7881 5.49042 14.3741 3 13.8443C4 20.5005 15.5045 24.8297 16.5048 16.341M17.9582 16.5016L7.9937 10.9874C8.07484 10.8413 8.15598 10.6952 8.23712 10.549C9.0408 9.10161 10.8651 8.57869 12.3134 9.38066L17.0312 11.9929C18.4798 12.795 19.0039 14.6186 18.2 16.0661C18.1194 16.2113 18.0388 16.3564 17.9582 16.5016Z" stroke="currentColor" stroke-width="2" stroke-linecap="square" stroke-linejoin="round"/>
</svg>
