<svg width="25" height="24" viewBox="0 0 25 24" fill="none" xmlns="http://www.w3.org/2000/svg">
<path d="M4.93342 7.40804C5.03018 7.35966 5.10864 7.2812 5.15702 7.18444L5.80194 5.8946C5.9862 5.52608 6.51211 5.52608 6.69637 5.8946L7.34128 7.18444C7.38967 7.2812 7.46813 7.35966 7.56489 7.40804L8.85473 8.05296C9.22325 8.23722 9.22325 8.76313 8.85473 8.94739L7.56489 9.59231C7.46813 9.64069 7.38967 9.71915 7.34128 9.81591L6.69637 11.1057C6.5121 11.4743 5.9862 11.4743 5.80194 11.1057L5.15702 9.81591C5.10864 9.71915 5.03018 9.64069 4.93342 9.59231L3.64358 8.94739C3.27506 8.76313 3.27506 8.23722 3.64358 8.05296L4.93342 7.40804Z" fill="currentColor" style="fill:currentColor;fill-opacity:1;"/>
<path d="M10.3093 3.72008C10.3785 3.68552 10.4345 3.62948 10.4691 3.56036L10.9297 2.63905C11.0613 2.37582 11.437 2.37582 11.5686 2.63905L12.0292 3.56036C12.0638 3.62948 12.1199 3.68552 12.189 3.72008L13.1103 4.18074C13.3735 4.31235 13.3735 4.688 13.1103 4.81961L12.189 5.28027C12.1199 5.31483 12.0638 5.37087 12.0292 5.43999L11.5686 6.3613C11.437 6.62453 11.0613 6.62453 10.9297 6.3613L10.4691 5.43999C10.4345 5.37087 10.3785 5.31483 10.3093 5.28027L9.38803 4.81961C9.1248 4.688 9.1248 4.31235 9.38803 4.18074L10.3093 3.72008Z" fill="currentColor" style="fill:currentColor;fill-opacity:1;"/>
<path d="M21.2432 2.13071C21.7234 2.40354 21.8915 3.01398 21.6186 3.49417L16.9601 11.6934L17.2231 11.7891C18.7438 12.3426 19.9598 13.8511 19.7069 15.6529C19.3709 18.046 18.3488 19.7732 16.4624 21.6998C16.1752 21.9931 15.738 22.0811 15.3598 21.9218L9.71602 19.5452C9.6095 19.5003 9.56307 19.3748 9.61475 19.2714L10.482 17.5368C10.568 17.3649 10.3856 17.1825 10.2137 17.2685L7.59746 18.5772C7.54523 18.6033 7.48419 18.6053 7.43037 18.5826L5.86106 17.9218C5.5218 17.7789 5.28846 17.4612 5.25365 17.0947C5.21883 16.7283 5.38818 16.3723 5.69447 16.1681C7.15176 15.1966 8.31693 14.2453 9.19223 12.8684C10.2487 11.2064 12.3465 10.0142 14.4731 10.7882L15.054 10.9996L19.8797 2.50618C20.1525 2.02599 20.763 1.85788 21.2432 2.13071Z" fill="currentColor" style="fill:currentColor;fill-opacity:1;"/>
</svg>
