<svg width="24" height="24" viewBox="0 0 24 24" fill="none" xmlns="http://www.w3.org/2000/svg">
<path fill-rule="evenodd" clip-rule="evenodd" d="M19 2C16.7909 2 15 3.79086 15 6C15 8.20914 16.7909 10 19 10C21.2091 10 23 8.20914 23 6C23 3.79086 21.2091 2 19 2ZM17 6C17 4.89543 17.8954 4 19 4C20.1046 4 21 4.89543 21 6C21 7.10457 20.1046 8 19 8C17.8954 8 17 7.10457 17 6Z" fill="currentColor" style="fill:currentColor;fill-opacity:1;"/>
<path d="M13 6C13 4.90714 13.2922 3.88252 13.8027 3L6.00195 3.00001C3.79281 3.00001 2.00195 4.79088 2.00195 7.00001V15.0358C2.00195 17.2449 3.79281 19.0358 6.00195 19.0358H8.65157L11.3553 21.3021C11.7252 21.6122 12.2639 21.6138 12.6357 21.3058L15.3757 19.0358L18.002 19.0358C20.2111 19.0357 22.002 17.2449 22.002 15.0357V11.1962C21.119 11.7074 20.0937 12 19 12C15.6863 12 13 9.31371 13 6Z" fill="currentColor" style="fill:currentColor;fill-opacity:1;"/>
</svg>
