<svg width="24" height="24" viewBox="0 0 24 24" fill="none" xmlns="http://www.w3.org/2000/svg">
<path fill-rule="evenodd" clip-rule="evenodd" d="M7.00195 3.00002L17.0019 3C19.2111 3 21.002 4.79086 21.002 7V15.0358C21.002 17.2449 19.2111 19.0357 17.002 19.0358L15.3757 19.0358L12.6357 21.3058C12.2639 21.6138 11.7252 21.6123 11.3553 21.3021L8.65157 19.0358H7.00195C4.79281 19.0358 3.00195 17.2449 3.00195 15.0358V7.00002C3.00195 4.79088 4.79281 3.00002 7.00195 3.00002ZM12.9998 8C12.9998 7.44771 12.552 7 11.9998 7C11.4475 7 10.9998 7.44771 10.9998 8L10.9998 9.99997H8.99976C8.44747 9.99997 7.99976 10.4477 7.99976 11C7.99976 11.5523 8.44747 12 8.99976 12H10.9998V14C10.9998 14.5523 11.4475 15 11.9998 15C12.552 15 12.9998 14.5523 12.9998 14V12H14.9998C15.552 12 15.9998 11.5523 15.9998 11C15.9998 10.4477 15.552 9.99997 14.9998 9.99997H12.9998V8Z" fill="currentColor" style="fill:currentColor;fill-opacity:1;"/>
</svg>
