<svg width="24" height="24" viewBox="0 0 24 24" fill="none" xmlns="http://www.w3.org/2000/svg">
<path fill-rule="evenodd" clip-rule="evenodd" d="M17.0019 3L7.00195 3.00002C4.79281 3.00002 3.00195 4.79088 3.00195 7.00002V15.0358C3.00195 17.2449 4.79281 19.0358 7.00195 19.0358H8.65157L11.3553 21.3021C11.7252 21.6123 12.2639 21.6138 12.6357 21.3058L15.3757 19.0358L17.002 19.0358C19.2111 19.0357 21.002 17.2449 21.002 15.0358V7C21.002 4.79086 19.2111 3 17.0019 3ZM11.9994 14.2801C12.2703 14.2801 15.2507 12.7448 15.2507 10.6675C15.2507 9.22252 14.3475 8.5 13.4444 8.5C12.5412 8.5 11.9994 9.04189 11.9994 9.04189C11.9994 9.04189 11.4575 8.5 10.5543 8.5C9.65119 8.5 8.74805 9.22252 8.74805 10.6675C8.74805 12.7448 11.7284 14.2801 11.9994 14.2801Z" fill="currentColor" style="fill:currentColor;fill-opacity:1;"/>
</svg>
