<svg width="24" height="24" viewBox="0 0 24 24" fill="none" xmlns="http://www.w3.org/2000/svg">
<path fill-rule="evenodd" clip-rule="evenodd" d="M7.00195 3.00002L17.0019 3C19.2111 3 21.002 4.79086 21.002 7V15.0358C21.002 17.2449 19.2111 19.0357 17.002 19.0358L15.3757 19.0358L12.6357 21.3058C12.2639 21.6138 11.7252 21.6123 11.3553 21.3021L8.65157 19.0358H7.00195C4.79281 19.0358 3.00195 17.2449 3.00195 15.0358V7.00002C3.00195 4.79088 4.79281 3.00002 7.00195 3.00002ZM6.49976 11.25C6.49976 11.9404 7.0594 12.5 7.74976 12.5C8.44011 12.5 8.99976 11.9404 8.99976 11.25C8.99976 10.5596 8.44011 10 7.74976 10C7.0594 10 6.49976 10.5596 6.49976 11.25ZM10.7498 11.25C10.7498 11.9404 11.3094 12.5 11.9998 12.5C12.6901 12.5 13.2498 11.9404 13.2498 11.25C13.2498 10.5596 12.6901 10 11.9998 10C11.3094 10 10.7498 10.5596 10.7498 11.25ZM16.2498 12.5C15.5594 12.5 14.9998 11.9404 14.9998 11.25C14.9998 10.5596 15.5594 10 16.2498 10C16.9401 10 17.4998 10.5596 17.4998 11.25C17.4998 11.9404 16.9401 12.5 16.2498 12.5Z" fill="currentColor" style="fill:currentColor;fill-opacity:1;"/>
</svg>
