<svg width="24" height="24" viewBox="0 0 24 24" fill="none" xmlns="http://www.w3.org/2000/svg">
<path fill-rule="evenodd" clip-rule="evenodd" d="M21 7C21 4.79086 19.2091 3 17 3H7C4.79086 3 3 4.79086 3 7H2C1.44772 7 1 7.44772 1 8C1 8.55228 1.44772 9 2 9H3V11.5H21V9H22C22.5523 9 23 8.55228 23 8C23 7.44772 22.5523 7 22 7H21ZM9 5.5C9 5.99706 9.40294 6.4 9.9 6.4H14.1C14.5971 6.4 15 5.99706 15 5.5C15 5.00294 14.5971 4.6 14.1 4.6H9.9C9.40294 4.6 9 5.00294 9 5.5Z" fill="currentColor"/>
<path fill-rule="evenodd" clip-rule="evenodd" d="M21 13H3V20C3 20.5523 3.44772 21 4 21H6C6.55228 21 7 20.5523 7 20V19H17V20C17 20.5523 17.4477 21 18 21H20C20.5523 21 21 20.5523 21 20V13ZM9 16C9 16.5523 8.55228 17 8 17H7C6.44772 17 6 16.5523 6 16C6 15.4477 6.44772 15 7 15H8C8.55228 15 9 15.4477 9 16ZM15 16C15 16.5523 15.4477 17 16 17H17C17.5523 17 18 16.5523 18 16C18 15.4477 17.5523 15 17 15H16C15.4477 15 15 15.4477 15 16Z" fill="currentColor"/>
</svg>
