<svg width="24" height="24" viewBox="0 0 24 24" fill="none" xmlns="http://www.w3.org/2000/svg">
<path d="M11 4H6C3.79086 4 2 5.79086 2 8C2 9.47897 2.80266 10.7705 3.99613 11.4626L3.00877 18.8678C2.93578 19.4153 3.3204 19.9182 3.86784 19.9912C4.41528 20.0642 4.91824 19.6796 4.99123 19.1322L5.94224 11.9996C5.96146 11.9999 5.98071 12 6 12H11V4Z" fill="currentColor" style="fill:currentColor;fill-opacity:1;"/>
<path d="M13 12H18C18.0193 12 18.0385 11.9999 18.0578 11.9996L19.0088 19.1322C19.0818 19.6796 19.5847 20.0642 20.1322 19.9912C20.6796 19.9182 21.0642 19.4153 20.9912 18.8678L20.0039 11.4626C21.1973 10.7705 22 9.47897 22 8C22 5.79086 20.2091 4 18 4H13V12Z" fill="currentColor" style="fill:currentColor;fill-opacity:1;"/>
</svg>
