<svg width="24" height="24" viewBox="0 0 24 24" fill="none" xmlns="http://www.w3.org/2000/svg">
<path d="M5 4V10.1716C5 10.702 5.21071 11.2107 5.58579 11.5858L5.91421 11.9142C6.28929 12.2893 6.5 12.798 6.5 13.3284V18.5C6.5 19.3284 7.17157 20 8 20C8.82843 20 9.5 19.3284 9.5 18.5V13.3284C9.5 12.798 9.71071 12.2893 10.0858 11.9142L10.4142 11.5858C10.7893 11.2107 11 10.702 11 10.1716V4" stroke="currentColor" stroke-width="2" stroke-linecap="round" stroke-linejoin="round"/>
<path d="M8 4V9" stroke="currentColor" stroke-width="2" stroke-linecap="round" stroke-linejoin="round"/>
<path d="M19 18.5V4C18.105 4 14.9094 6.46963 14.0177 12.9027C13.8605 14.037 14.7698 15 15.8997 15H16.0409V18.5C16.0409 19.3284 16.7033 20 17.5204 20C18.3376 20 19 19.3284 19 18.5Z" stroke="currentColor" stroke-width="2" stroke-linecap="round" stroke-linejoin="round"/>
</svg>
