<svg width="24" height="24" viewBox="0 0 24 24" fill="none" xmlns="http://www.w3.org/2000/svg">
<path fill-rule="evenodd" clip-rule="evenodd" d="M3 7C3 4.79086 4.79086 3 7 3H17C19.2091 3 21 4.79086 21 7V17C21 19.2091 19.2091 21 17 21H7C4.79086 21 3 19.2091 3 17V7ZM19 9H5V17C5 18.1046 5.89543 19 7 19H17C18.1046 19 19 18.1046 19 17V9ZM8.29289 11.7929C8.68342 11.4024 9.31658 11.4024 9.70711 11.7929L11.2071 13.2929C11.5976 13.6834 11.5976 14.3166 11.2071 14.7071L9.70711 16.2071C9.31658 16.5976 8.68342 16.5976 8.29289 16.2071C7.90237 15.8166 7.90237 15.1834 8.29289 14.7929L9.08579 14L8.29289 13.2071C7.90237 12.8166 7.90237 12.1834 8.29289 11.7929ZM13.0429 11.7929C13.4334 11.4024 14.0666 11.4024 14.4571 11.7929L15.9571 13.2929C16.3476 13.6834 16.3476 14.3166 15.9571 14.7071L14.4571 16.2071C14.0666 16.5976 13.4334 16.5976 13.0429 16.2071C12.6524 15.8166 12.6524 15.1834 13.0429 14.7929L13.8358 14L13.0429 13.2071C12.6524 12.8166 12.6524 12.1834 13.0429 11.7929Z" fill="currentColor" style="fill:currentColor;fill-opacity:1;"/>
</svg>
