<svg width="24" height="24" viewBox="0 0 24 24" fill="none" xmlns="http://www.w3.org/2000/svg">
<path fill-rule="evenodd" clip-rule="evenodd" d="M8 2C8.55228 2 9 2.44772 9 3V4H15V3C15 2.44772 15.4477 2 16 2C16.5523 2 17 2.44772 17 3V4C19.2091 4 21 5.79086 21 8V17C21 19.2091 19.2091 21 17 21H7C4.79086 21 3 19.2091 3 17V8C3 5.79086 4.79086 4 7 4V3C7 2.44772 7.44772 2 8 2ZM15.2071 10.0429C15.5976 10.4334 15.5976 11.0666 15.2071 11.4571L11.7071 14.9571C11.5196 15.1446 11.2652 15.25 11 15.25C10.7348 15.25 10.4804 15.1446 10.2929 14.9571L8.79289 13.4571C8.40237 13.0666 8.40237 12.4334 8.79289 12.0429C9.18342 11.6524 9.81658 11.6524 10.2071 12.0429L11 12.8358L13.7929 10.0429C14.1834 9.65237 14.8166 9.65237 15.2071 10.0429Z" fill="currentColor" style="fill:currentColor;fill-opacity:1;"/>
</svg>
