<svg width="24" height="24" viewBox="0 0 24 24" fill="none" xmlns="http://www.w3.org/2000/svg">
<path fill-rule="evenodd" clip-rule="evenodd" d="M3 7C3 4.79086 4.79086 3 7 3H17C19.2091 3 21 4.79086 21 7V17C21 19.2091 19.2091 21 17 21H7C4.79086 21 3 19.2091 3 17V7ZM19 9H5V17C5 18.1046 5.89543 19 7 19H17C18.1046 19 19 18.1046 19 17V9ZM10.5429 11.5429C10.9334 11.1524 11.5666 11.1524 11.9571 11.5429L13.7071 13.2929C14.0976 13.6834 14.0976 14.3166 13.7071 14.7071L11.9571 16.4571C11.5666 16.8476 10.9334 16.8476 10.5429 16.4571C10.1524 16.0666 10.1524 15.4334 10.5429 15.0429L11.5858 14L10.5429 12.9571C10.1524 12.5666 10.1524 11.9334 10.5429 11.5429Z" fill="currentColor" style="fill:currentColor;fill-opacity:1;"/>
</svg>
