<svg width="24" height="24" viewBox="0 0 24 24" fill="none" xmlns="http://www.w3.org/2000/svg">
<path d="M8 2C8.55228 2 9 2.44772 9 3V4H15V3C15 2.44772 15.4477 2 16 2C16.5523 2 17 2.44772 17 3V4C19.1156 4 20.8475 5.64235 20.9905 7.72161L17.9475 8.48235L14.6414 8.01005C14.3298 7.96554 14.0155 8.07033 13.7929 8.29289L13.2592 8.82663L11.3714 8.07152C11.1518 7.98368 10.9082 7.97652 10.6838 8.05132L7.97726 8.95349L3.02629 7.53892C3.25491 5.54696 4.9468 4 7 4V3C7 2.44772 7.44772 2 8 2Z" fill="currentColor" style="fill:currentColor;fill-opacity:1;"/>
<path d="M3 9.61144V17C3 19.2091 4.79086 21 7 21H17C19.2091 21 21 19.2091 21 17V9.78078L18.2425 10.4701C18.117 10.5015 17.9866 10.5082 17.8586 10.4899L14.8536 10.0607L14.2071 10.7071C13.9242 10.99 13.5 11.077 13.1286 10.9285L10.9687 10.0645L8.31623 10.9487C8.12504 11.0124 7.91906 11.0169 7.72528 10.9615L3 9.61144Z" fill="currentColor" style="fill:currentColor;fill-opacity:1;"/>
</svg>
