<svg width="24" height="24" viewBox="0 0 24 24" fill="none" xmlns="http://www.w3.org/2000/svg">
<path fill-rule="evenodd" clip-rule="evenodd" d="M6 3C3.79086 3 2 4.79086 2 7V17C2 19.2091 3.79086 21 6 21H18C20.2091 21 22 19.2091 22 17V7C22 4.79086 20.2091 3 18 3H6ZM8.5 12C8.5 10.067 10.067 8.5 12 8.5C13.933 8.5 15.5 10.067 15.5 12C15.5 13.933 13.933 15.5 12 15.5C10.067 15.5 8.5 13.933 8.5 12ZM17.5 8.75C16.8096 8.75 16.25 8.19036 16.25 7.5C16.25 6.80964 16.8096 6.25 17.5 6.25C18.1904 6.25 18.75 6.80964 18.75 7.5C18.75 8.19036 18.1904 8.75 17.5 8.75Z" fill="currentColor" style="fill:currentColor;fill-opacity:1;"/>
</svg>
