<svg width="24" height="24" viewBox="0 0 24 24" fill="none" xmlns="http://www.w3.org/2000/svg">
<path fill-rule="evenodd" clip-rule="evenodd" d="M11.1056 3C9.76814 3 8.51921 3.6684 7.77735 4.7812L7.53814 5.14002C7.17996 5.67729 6.57696 6 5.93125 6C3.76008 6 2 7.76008 2 9.93125V17C2 19.2091 3.79086 21 6 21H18C20.2091 21 22 19.2091 22 17V9.93124C22 7.76008 20.2399 6 18.0688 6C17.423 6 16.82 5.67729 16.4619 5.14002L16.2226 4.7812C15.4808 3.6684 14.2319 3 12.8944 3H11.1056ZM9.29123 10.7929C9.68175 10.4024 10.3149 10.4024 10.7054 10.7929L12 12.0875L13.2946 10.7929C13.6851 10.4024 14.3182 10.4024 14.7088 10.7929C15.0993 11.1834 15.0993 11.8166 14.7088 12.2071L13.4142 13.5017L14.7071 14.7946C15.0976 15.1851 15.0976 15.8182 14.7071 16.2088C14.3166 16.5993 13.6834 16.5993 13.2929 16.2088L12 14.9159L10.7071 16.2088C10.3166 16.5993 9.68342 16.5993 9.29289 16.2088C8.90237 15.8182 8.90237 15.1851 9.29289 14.7946L10.5858 13.5017L9.29123 12.2071C8.9007 11.8166 8.9007 11.1834 9.29123 10.7929Z" fill="currentColor" style="fill:currentColor;fill-opacity:1;"/>
</svg>
