<svg width="24" height="24" viewBox="0 0 24 24" fill="none" xmlns="http://www.w3.org/2000/svg">
<path d="M14 10C12.8954 10 12 10.8954 12 12C12 13.1046 12.8954 14 14 14C15.1046 14 16 13.1046 16 12C16 10.8954 15.1046 10 14 10Z" fill="currentColor" style="fill:currentColor;fill-opacity:1;"/>
<path fill-rule="evenodd" clip-rule="evenodd" d="M6.74264 3C5.87042 3 5.02763 3.28487 4.33857 3.80304C3.95241 4.09344 3.70693 4.46565 3.54215 4.76302L3.46146 4.90866C2.57072 5.64092 2 6.75386 2 8V16C2 18.2091 3.79086 20 6 20H18C20.2091 20 22 18.2091 22 16V8C22 5.79086 20.2091 4 18 4H9.90312C9.17463 3.35748 8.23442 3 7.25736 3H6.74264ZM10 12C10 9.79086 11.7909 8 14 8C16.2091 8 18 9.79086 18 12C18 14.2091 16.2091 16 14 16C11.7909 16 10 14.2091 10 12ZM7 10C7.55228 10 8 9.55228 8 9C8 8.44772 7.55228 8 7 8C6.44772 8 6 8.44772 6 9C6 9.55228 6.44772 10 7 10Z" fill="currentColor" style="fill:currentColor;fill-opacity:1;"/>
</svg>
