<svg width="24" height="24" viewBox="0 0 24 24" fill="none" xmlns="http://www.w3.org/2000/svg">
<path fill-rule="evenodd" clip-rule="evenodd" d="M9.51614 5.39309C6.31384 6.43805 4 9.44881 4 13V13.4734C5.26992 12.9598 6.51693 12.5654 7.75166 12.2901C7.79408 9.59647 8.64432 7.07939 9.51614 5.39309ZM11.75 5.51658C10.9713 6.71102 9.89509 9.19649 9.76338 11.9458C11.09 11.7884 12.409 11.7707 13.734 11.8928C13.5911 9.16457 12.5237 6.70334 11.75 5.51658ZM15.7463 12.1846C17.145 12.4606 18.5577 12.8901 20 13.4734V13C20 9.23495 17.3991 6.07739 13.896 5.22601C14.7862 6.8892 15.6816 9.44051 15.7463 12.1846ZM2 13C2 7.47715 6.47715 3 12 3C17.5228 3 22 7.47715 22 13V18.4292C22 19.9144 20.4793 20.8206 19.186 20.3016C14.2394 18.3165 9.76064 18.3165 4.81403 20.3016C3.52069 20.8206 2 19.9144 2 18.4292V13Z" fill="currentColor" style="fill:currentColor;fill-opacity:1;"/>
</svg>
