<svg width="24" height="24" viewBox="0 0 24 24" fill="none" xmlns="http://www.w3.org/2000/svg">
<path fill-rule="evenodd" clip-rule="evenodd" d="M23 11.6857V17C23 18.6569 21.6569 20 20 20C18.6938 20 17.5825 19.1652 17.1707 18H6.82929C6.41746 19.1652 5.30622 20 4 20C2.34315 20 1 18.6569 1 17V11.5C0.447715 11.5 0 11.0523 0 10.5C0 9.94772 0.447715 9.5 1 9.5H1.49078L4.29273 5.64731C5.04544 4.61234 6.24793 4 7.52767 4H16.4425C17.7444 4 18.9649 4.63362 19.714 5.69843L22.5192 9.68571H23C23.5523 9.68571 24 10.1334 24 10.6857C24 11.238 23.5523 11.6857 23 11.6857ZM6 12C5.44772 12 5 12.4477 5 13C5 13.5523 5.44772 14 6 14H8C8.55228 14 9 13.5523 9 13C9 12.4477 8.55228 12 8 12H6ZM16 12C15.4477 12 15 12.4477 15 13C15 13.5523 15.4477 14 16 14H18C18.5523 14 19 13.5523 19 13C19 12.4477 18.5523 12 18 12H16Z" fill="currentColor" style="fill:currentColor;fill-opacity:1;"/>
</svg>
