<svg width="24" height="24" viewBox="0 0 24 24" fill="none" xmlns="http://www.w3.org/2000/svg">
<path fill-rule="evenodd" clip-rule="evenodd" d="M5.27735 5.7812C6.01921 4.6684 7.26814 4 8.60555 4H15.3944C16.7319 4 17.9808 4.6684 18.7226 5.7812L20.8685 9H22C22.5523 9 23 9.44772 23 10C23 10.5523 22.5523 11 22 11H21.8955C21.9646 11.2963 22 11.601 22 11.9083V18C22 19.1046 21.1046 20 20 20H19C17.8954 20 17 19.1046 17 18H7C7 19.1046 6.10457 20 5 20H4C2.89543 20 2 19.1046 2 18V11.9083C2 11.601 2.03541 11.2963 2.1045 11H2C1.44772 11 1 10.5523 1 10C1 9.44772 1.44772 9 2 9H3.13148L5.27735 5.7812ZM5 13C5 12.4477 5.44772 12 6 12H7C7.55228 12 8 12.4477 8 13C8 13.5523 7.55228 14 7 14H6C5.44772 14 5 13.5523 5 13ZM16 13C16 12.4477 16.4477 12 17 12H18C18.5523 12 19 12.4477 19 13C19 13.5523 18.5523 14 18 14H17C16.4477 14 16 13.5523 16 13Z" fill="currentColor"/>
</svg>
