<svg width="24" height="24" viewBox="0 0 24 24" fill="none" xmlns="http://www.w3.org/2000/svg">
<path fill-rule="evenodd" clip-rule="evenodd" d="M8 6C8 4.89543 8.89543 4 10 4H13.5C14.759 4 15.9446 4.59278 16.7 5.6L18.374 7.83193C18.5118 8.01567 18.7086 8.14637 18.9314 8.20208L19.9701 8.46176C21.7508 8.90693 23 10.5069 23 12.3423V15C23 16.6014 21.7453 17.9097 20.1653 17.9955C19.6045 19.1804 18.398 20 17 20C15.6038 20 14.3985 19.1825 13.8368 18H10.1632C9.60145 19.1825 8.3962 20 7 20C5.60204 20 4.39551 19.1804 3.8347 17.9955C2.25472 17.9097 1 16.6014 1 15V12C1 10.3431 2.34315 9 4 9H8V6ZM7 15C6.17157 15 5.5 15.6716 5.5 16.5C5.5 17.3284 6.17157 18 7 18C7.82843 18 8.5 17.3284 8.5 16.5C8.5 15.6716 7.82843 15 7 15ZM17 15C16.1716 15 15.5 15.6716 15.5 16.5C15.5 17.3284 16.1716 18 17 18C17.8284 18 18.5 17.3284 18.5 16.5C18.5 15.6716 17.8284 15 17 15Z" fill="currentColor"/>
</svg>
