<svg width="24" height="24" viewBox="0 0 24 24" fill="none" xmlns="http://www.w3.org/2000/svg">
<path fill-rule="evenodd" clip-rule="evenodd" d="M8.60555 4C7.26814 4 6.01921 4.6684 5.27735 5.7812L4.38983 7.11248C4.3166 7.22233 4.22233 7.3166 4.11248 7.38983L2.7812 8.27735C1.6684 9.01921 1 10.2681 1 11.6056V15C1 16.6014 2.25472 17.9097 3.8347 17.9955C4.39551 19.1804 5.60204 20 7 20C8.3962 20 9.60145 19.1825 10.1632 18H13.8368C14.3985 19.1825 15.6038 20 17 20C18.398 20 19.6045 19.1804 20.1653 17.9955C21.7453 17.9097 23 16.6014 23 15V12.4594C23 10.5527 21.6542 8.91103 19.7845 8.53709L17.9454 8.16928C17.7041 8.12103 17.4891 7.98553 17.3415 7.7887L15.7 5.6C14.9446 4.59278 13.759 4 12.5 4H8.60555ZM8.5 16.5C8.5 17.3284 7.82843 18 7 18C6.17157 18 5.5 17.3284 5.5 16.5C5.5 15.6716 6.17157 15 7 15C7.82843 15 8.5 15.6716 8.5 16.5ZM17 18C17.8284 18 18.5 17.3284 18.5 16.5C18.5 15.6716 17.8284 15 17 15C16.1716 15 15.5 15.6716 15.5 16.5C15.5 17.3284 16.1716 18 17 18Z" fill="currentColor"/>
</svg>
