<svg width="24" height="24" viewBox="0 0 24 24" fill="none" xmlns="http://www.w3.org/2000/svg">
<path fill-rule="evenodd" clip-rule="evenodd" d="M2.595 7.3424C2.91646 5.41365 4.58522 4 6.54058 4H12.8828C14.8293 4 16.6878 4.81047 18.0123 6.23684L21.1287 9.59298C22.331 10.8877 22.9992 12.5893 22.9992 14.3561V16C22.9992 17.1046 22.1038 18 20.9992 18H20.1625C19.6007 19.1825 18.3955 20 16.9993 20C15.6031 20 14.3978 19.1825 13.8361 18H10.1625C9.60072 19.1825 8.39547 20 6.99927 20C5.58369 20 4.3644 19.1596 3.81307 17.9506C2.23884 17.6619 1.12696 16.1506 1.40094 14.5068L2.595 7.3424ZM6.99927 15C6.17084 15 5.49927 15.6716 5.49927 16.5C5.49927 17.3284 6.17084 18 6.99927 18C7.82769 18 8.49927 17.3284 8.49927 16.5C8.49927 15.6716 7.82769 15 6.99927 15ZM16.9993 15C16.1708 15 15.4993 15.6716 15.4993 16.5C15.4993 17.3284 16.1708 18 16.9993 18C17.8277 18 18.4993 17.3284 18.4993 16.5C18.4993 15.6716 17.8277 15 16.9993 15Z" fill="currentColor"/>
</svg>
