<svg width="24" height="24" viewBox="0 0 24 24" fill="none" xmlns="http://www.w3.org/2000/svg">
<path fill-rule="evenodd" clip-rule="evenodd" d="M10 4C8.89543 4 8 4.89543 8 6V9H4C2.34315 9 1 10.3431 1 12V15C1 16.6014 2.25472 17.9097 3.8347 17.9955C4.39551 19.1804 5.60204 20 7 20C8.3962 20 9.60145 19.1825 10.1632 18H13.8368C14.3985 19.1825 15.6038 20 17 20C18.398 20 19.6045 19.1804 20.1653 17.9955C21.7453 17.9097 23 16.6014 23 15V12.3423C23 10.5069 21.7508 8.90693 19.9701 8.46176L18.9314 8.20208C18.7086 8.14637 18.5118 8.01567 18.374 7.83193L16.7 5.6C15.9446 4.59278 14.759 4 13.5 4H10ZM5.5 16.5C5.5 15.6716 6.17157 15 7 15C7.82843 15 8.5 15.6716 8.5 16.5C8.5 17.3284 7.82843 18 7 18C6.17157 18 5.5 17.3284 5.5 16.5ZM15.5 16.5C15.5 15.6716 16.1716 15 17 15C17.8284 15 18.5 15.6716 18.5 16.5C18.5 17.3284 17.8284 18 17 18C16.1716 18 15.5 17.3284 15.5 16.5ZM13.8797 10.1037H15.7718C15.9606 10.1037 16.0675 10.3167 15.9526 10.4641L13.2658 13.9115C13.1235 14.0941 12.8273 13.9723 12.8594 13.7443L13.1203 11.8963H11.2282C11.0394 11.8963 10.9325 11.6833 11.0474 11.5359L13.7342 8.08851C13.8765 7.90586 14.1728 8.02771 14.1406 8.25567L13.8797 10.1037Z" fill="currentColor"/>
</svg>
