<svg width="24" height="24" viewBox="0 0 24 24" fill="none" xmlns="http://www.w3.org/2000/svg">
<path fill-rule="evenodd" clip-rule="evenodd" d="M18.7635 2.82458C17.7367 2.5 16.7832 2.5 14.8759 2.5H9.12441C7.21675 2.5 6.26306 2.5 5.23653 2.82458C4.11553 3.23256 3.23256 4.11553 2.82458 5.23653C2.5 6.26306 2.5 7.21701 2.5 9.12441V14.8756C2.5 16.7832 2.5 17.7367 2.82458 18.7635C3.23256 19.8845 4.11553 20.7674 5.23653 21.1754C6.26306 21.5 7.21675 21.5 9.12441 21.5H14.8759C16.7832 21.5 17.7367 21.5 18.7635 21.1754C19.8845 20.7674 20.7674 19.8845 21.1754 18.7635C21.5 17.7367 21.5 16.7832 21.5 14.8756V9.12441C21.5 7.21701 21.5 6.26306 21.1754 5.23653C20.7674 4.11553 19.8845 3.23256 18.7635 2.82458ZM14.7648 9.8014C14.1895 9.29084 13.309 8.91885 12.3905 8.91885C11.6715 8.91885 10.9521 9.17612 10.9521 9.82664C10.9521 10.4429 11.6089 10.6797 12.4103 10.9687C12.4771 10.9928 12.5448 11.0172 12.6133 11.0422C14.1716 11.5731 15.4556 12.2238 15.4556 13.7648C15.4556 15.4397 14.1671 16.584 12.0619 16.7139L11.8707 17.6244C11.8359 17.7914 11.6879 17.9105 11.5174 17.9092L10.1927 17.8993C9.9654 17.8974 9.79731 17.688 9.84439 17.466L10.0461 16.519C9.21751 16.2933 8.49147 15.8903 7.91804 15.3337C7.7731 15.1932 7.77179 14.9601 7.91568 14.8184L8.65119 14.0928C8.7906 13.9553 9.01368 13.9563 9.15309 14.0939C9.86387 14.7947 10.7798 15.0832 11.6542 15.0832C12.6133 15.0832 13.2638 14.6894 13.2638 14.0215C13.2638 13.4331 12.7314 13.2366 11.717 12.8622C11.6101 12.8228 11.4979 12.7814 11.3804 12.7373C10.079 12.2751 8.84612 11.6073 8.84612 10.0489C8.84612 8.24887 10.3363 7.37159 12.0945 7.28373L12.2879 6.37462C12.3231 6.20916 12.4694 6.09079 12.6385 6.09079H13.9612C14.189 6.09079 14.3586 6.30018 14.3121 6.52298L14.0974 7.54521C14.8564 7.79379 15.4729 8.18206 15.9322 8.57691C16.0882 8.7108 16.0935 8.95068 15.949 9.09722L15.2646 9.79143C15.1281 9.92977 14.9103 9.93054 14.7648 9.8014Z" fill="currentColor"/>
</svg>
