<svg width="24" height="24" viewBox="0 0 24 24" fill="none" xmlns="http://www.w3.org/2000/svg">
<path d="M14.001 2C14.001 2 14.1787 3.04001 14.001 4C13.8095 5.03394 13.001 6 13.001 6M15.501 8.5L16.501 7.5M18.301 4.75L18.751 3.5M20.001 8L21.001 7.5M18.001 11C18.001 11 18.7571 11.032 19.501 11.27C20.1715 11.4846 21.001 12 21.001 12M5.78101 20.814L15.1635 17.118C16.5037 16.5901 16.8632 14.8615 15.8447 13.843L10.1586 8.15688C9.14017 7.13843 7.41158 7.49792 6.88362 8.83797L3.18721 18.22C2.54631 19.8468 4.15426 21.4548 5.78101 20.814Z" stroke="currentColor" stroke-width="2" stroke-linecap="round" stroke-linejoin="round"/>
</svg>
