<svg width="24" height="24" viewBox="0 0 24 24" fill="none" xmlns="http://www.w3.org/2000/svg">
<path d="M4.62129 16.6214L3.91419 17.3285H3.91419L4.62129 16.6214ZM7.37866 19.3787L6.67155 20.0858H6.67155L7.37866 19.3787ZM19.3787 7.37872L18.6715 8.08582V8.08582L19.3787 7.37872ZM16.6213 4.62135L15.9142 5.32846L16.6213 4.62135ZM12.3787 4.62136L11.6715 3.91425L12.3787 4.62136ZM10.2929 5.29293C9.90234 5.68345 9.90234 6.31662 10.2929 6.70714C10.6834 7.09767 11.3166 7.09767 11.7071 6.70714L10.2929 5.29293ZM6.70708 11.7071C7.09761 11.3166 7.09761 10.6835 6.70708 10.2929C6.31656 9.9024 5.68339 9.9024 5.29287 10.2929L6.70708 11.7071ZM4.62129 12.3787L5.3284 13.0858H5.3284L4.62129 12.3787ZM17.2929 12.2929C16.9023 12.6835 16.9023 13.3166 17.2929 13.7071C17.6834 14.0977 18.3166 14.0977 18.7071 13.7071L17.2929 12.2929ZM19.3787 11.6214L18.6715 10.9142V10.9142L19.3787 11.6214ZM11.6213 19.3787L10.9142 18.6716H10.9142L11.6213 19.3787ZM13.7071 18.7071C14.0976 18.3166 14.0976 17.6835 13.7071 17.2929C13.3166 16.9024 12.6834 16.9024 12.2929 17.2929L13.7071 18.7071ZM8.29287 14.2929C7.90234 14.6835 7.90234 15.3166 8.29287 15.7071C8.68339 16.0977 9.31656 16.0977 9.70708 15.7071L8.29287 14.2929ZM15.7071 9.70714C16.0976 9.31662 16.0976 8.68345 15.7071 8.29293C15.3166 7.9024 14.6834 7.9024 14.2929 8.29293L15.7071 9.70714ZM3.91419 17.3285L6.67155 20.0858L8.08576 18.6716L5.3284 15.9142L3.91419 17.3285ZM20.0858 6.67161L17.3284 3.91425L15.9142 5.32846L18.6715 8.08582L20.0858 6.67161ZM11.6715 3.91425L10.2929 5.29293L11.7071 6.70714L13.0858 5.32846L11.6715 3.91425ZM5.29287 10.2929L3.91419 11.6716L5.3284 13.0858L6.70708 11.7071L5.29287 10.2929ZM18.7071 13.7071L20.0858 12.3285L18.6715 10.9142L17.2929 12.2929L18.7071 13.7071ZM12.3284 20.0858L13.7071 18.7071L12.2929 17.2929L10.9142 18.6716L12.3284 20.0858ZM18.6715 8.08582C19.4526 8.86687 19.4526 10.1332 18.6715 10.9142L20.0858 12.3285C21.6479 10.7664 21.6479 8.23371 20.0858 6.67161L18.6715 8.08582ZM6.67155 20.0858C8.23365 21.6479 10.7663 21.6479 12.3284 20.0858L10.9142 18.6716C10.1331 19.4527 8.86681 19.4527 8.08576 18.6716L6.67155 20.0858ZM5.3284 15.9142C4.54735 15.1332 4.54735 13.8669 5.3284 13.0858L3.91419 11.6716C2.35209 13.2337 2.35209 15.7664 3.91419 17.3285L5.3284 15.9142ZM17.3284 3.91425C15.7663 2.35215 13.2336 2.35215 11.6715 3.91425L13.0858 5.32846C13.8668 4.54741 15.1331 4.54741 15.9142 5.32846L17.3284 3.91425ZM9.70708 15.7071L15.7071 9.70714L14.2929 8.29293L8.29287 14.2929L9.70708 15.7071Z" fill="currentColor"/>
</svg>
