<svg width="24" height="24" viewBox="0 0 24 24" fill="none" xmlns="http://www.w3.org/2000/svg">
<path fill-rule="evenodd" clip-rule="evenodd" d="M13.0495 4.36893C13.3521 2.45963 15.0055 1 17 1H18C19.1045 1 20 1.89543 20 3V4C20 6.20914 18.2091 8 16 8H15.6514C16.1647 8.99707 16.5697 10.0656 16.8485 11.2094C17.9153 11.0041 19.0139 11.0927 19.9563 11.6648C21.3052 12.4835 22 14.0825 22 16.25C22 19.6299 19.2451 22 16 22C14.4558 22 13.0227 21.4633 11.9445 20.5366C10.4763 21.8825 8.35613 22.3663 6.29654 21.8144C4.39161 21.304 3.15003 20.1147 2.51384 18.6772C1.89133 17.2705 1.86712 15.6756 2.2657 14.3082C2.66039 12.9542 3.51747 11.6778 4.81669 11.0743C5.81642 10.6099 6.94083 10.6052 8.08588 11.0942C8.10224 11.0575 8.12098 11.0214 8.14217 10.986C9.63687 8.49162 9.84675 6.13917 9.03754 3.27162C8.92107 2.85886 9.08075 2.41779 9.43447 2.17527C9.78819 1.93275 10.2572 1.94278 10.6002 2.20021C11.4839 2.86342 12.3058 3.58521 13.0495 4.36893ZM10.0821 11.6256C10.6007 11.6781 11.1044 11.8003 11.5702 12.0065C11.7178 11.8808 11.8756 11.7667 12.0436 11.6648C12.8718 11.1621 13.8206 11.0327 14.7624 11.148C14.1467 9.0298 13.0106 7.1994 11.4801 5.62146C11.6133 7.68563 11.1859 9.64023 10.0821 11.6256Z" fill="currentColor" style="fill:currentColor;fill-opacity:1;"/>
</svg>
