<svg width="24" height="24" viewBox="0 0 24 24" fill="none" xmlns="http://www.w3.org/2000/svg">
<path fill-rule="evenodd" clip-rule="evenodd" d="M7.29289 18.2071C7.68342 18.5976 8.31658 18.5976 8.70711 18.2071L11.6464 15.2678C11.8417 15.0725 12.1583 15.0725 12.3536 15.2678L15.2929 18.2071C15.6834 18.5976 16.3166 18.5976 16.7071 18.2071C17.0976 17.8166 17.0976 17.1834 16.7071 16.7929L13.7678 13.8536C12.7915 12.8772 11.2085 12.8772 10.2322 13.8536L7.29289 16.7929C6.90237 17.1834 6.90237 17.8166 7.29289 18.2071ZM7.29289 11.2071C7.68342 11.5976 8.31658 11.5976 8.70711 11.2071L11.6464 8.26777C11.8417 8.0725 12.1583 8.0725 12.3536 8.26777L15.2929 11.2071C15.6834 11.5976 16.3166 11.5976 16.7071 11.2071C17.0976 10.8166 17.0976 10.1834 16.7071 9.79289L13.7678 6.85355C12.7915 5.87724 11.2085 5.87724 10.2322 6.85355L7.29289 9.79289C6.90237 10.1834 6.90237 10.8166 7.29289 11.2071Z" fill="currentColor" style="fill:currentColor;fill-opacity:1;"/>
</svg>
