<svg width="24" height="24" viewBox="0 0 24 24" fill="none" xmlns="http://www.w3.org/2000/svg">
<path fill-rule="evenodd" clip-rule="evenodd" d="M3 7C3 4.79086 4.79086 3 7 3H17C19.2091 3 21 4.79086 21 7V17C21 19.2091 19.2091 21 17 21H7C4.79086 21 3 19.2091 3 17V7ZM9 19V18.5C9 17.9477 8.55228 17.5 8 17.5C7.44772 17.5 7 17.9477 7 18.5V19C5.89543 19 5 18.1046 5 17V7C5 5.89543 5.89543 5 7 5V5.5C7 6.05228 7.44772 6.5 8 6.5C8.55228 6.5 9 6.05228 9 5.5V5H11V5.5C11 6.05228 11.4477 6.5 12 6.5C12.5523 6.5 13 6.05228 13 5.5V5H15V5.5C15 6.05228 15.4477 6.5 16 6.5C16.5523 6.5 17 6.05228 17 5.5V5C18.1046 5 19 5.89543 19 7V17C19 18.1046 18.1046 19 17 19V18.5C17 17.9477 16.5523 17.5 16 17.5C15.4477 17.5 15 17.9477 15 18.5V19H13V18.5C13 17.9477 12.5523 17.5 12 17.5C11.4477 17.5 11 17.9477 11 18.5V19H9ZM7 10C7 8.89543 7.89543 8 9 8H15C16.1046 8 17 8.89543 17 10V14C17 15.1046 16.1046 16 15 16H9C7.89543 16 7 15.1046 7 14V10Z" fill="currentColor"/>
</svg>
