<svg width="24" height="24" viewBox="0 0 24 24" fill="none" xmlns="http://www.w3.org/2000/svg">
<path fill-rule="evenodd" clip-rule="evenodd" d="M2 8C2 5.79086 3.79086 4 6 4H18C20.2091 4 22 5.79086 22 8V16C22 18.2091 20.2091 20 18 20H6C3.79086 20 2 18.2091 2 16V8ZM4 8C4 6.89543 4.89543 6 6 6H6.7802L6.1802 9H4V8ZM20 9V8C20 6.89543 19.1046 6 18 6H17.8198L17.2198 9H20ZM15.1802 9L15.7802 6H13.3198L12.7198 9H15.1802ZM10.6802 9L11.2802 6H8.8198L8.2198 9H10.6802Z" fill="currentColor" style="fill:currentColor;fill-opacity:1;"/>
</svg>
