<svg width="24" height="24" viewBox="0 0 24 24" fill="none" xmlns="http://www.w3.org/2000/svg">
<path fill-rule="evenodd" clip-rule="evenodd" d="M20.5 9.5C20.8955 9.5 21.2812 9.45826 21.653 9.37895C21.8793 10.2143 22 11.0931 22 12C22 17.5228 17.5228 22 12 22C6.47715 22 2 17.5228 2 12C2 6.47715 6.47715 2 12 2C13.1193 2 14.1957 2.1839 15.2005 2.52314C15.0699 2.9931 15 3.48839 15 4C15 7.03757 17.4624 9.5 20.5 9.5ZM13 8C13 7.44772 12.5523 7 12 7C11.4477 7 11 7.44772 11 8V12C11 12.2652 11.1054 12.5196 11.2929 12.7071L13.7929 15.2071C14.1834 15.5976 14.8166 15.5976 15.2071 15.2071C15.5976 14.8166 15.5976 14.1834 15.2071 13.7929L13 11.5858V8Z" fill="currentColor" style="fill:currentColor;fill-opacity:1;"/>
<path fill-rule="evenodd" clip-rule="evenodd" d="M18 2C18 1.44772 18.4477 1 19 1H22C22.3788 1 22.725 1.214 22.8944 1.55279C23.0638 1.89157 23.0273 2.29698 22.8 2.6L21 5H22C22.5523 5 23 5.44772 23 6C23 6.55228 22.5523 7 22 7H19C18.6212 7 18.275 6.786 18.1056 6.44721C17.9362 6.10843 17.9727 5.70302 18.2 5.4L20 3H19C18.4477 3 18 2.55228 18 2Z" fill="currentColor" style="fill:currentColor;fill-opacity:1;"/>
</svg>
