<svg width="24" height="24" viewBox="0 0 24 24" fill="none" xmlns="http://www.w3.org/2000/svg">
<path d="M12 9C12.5523 9 13 9.44772 13 10V11.5855L14.2072 12.793C14.5977 13.1836 14.5976 13.8167 14.207 14.2072C13.8164 14.5977 13.1833 14.5976 12.7928 14.207L11.2928 12.7066C11.1053 12.5191 11 12.2648 11 11.9996V10C11 9.44772 11.4477 9 12 9Z" fill="currentColor" style="fill:currentColor;fill-opacity:1;"/>
<path fill-rule="evenodd" clip-rule="evenodd" d="M3 7C3 4.79086 4.79086 3 7 3H17C19.2091 3 21 4.79086 21 7V17C21 19.2091 19.2091 21 17 21H7C4.79086 21 3 19.2091 3 17V7ZM12 6.5C8.96243 6.5 6.5 8.96243 6.5 12C6.5 15.0376 8.96243 17.5 12 17.5C15.0376 17.5 17.5 15.0376 17.5 12C17.5 8.96243 15.0376 6.5 12 6.5Z" fill="currentColor" style="fill:currentColor;fill-opacity:1;"/>
</svg>
