<svg width="24" height="24" viewBox="0 0 24 24" fill="none" xmlns="http://www.w3.org/2000/svg">
<path d="M7.00391 5H6.00391C4.34705 5 3.00391 6.34315 3.00391 8V10.2308C3.00391 11.7602 4.24373 13 5.77314 13C5.90059 13 6.00391 13.1033 6.00391 13.2308V19C6.00391 19 10.0039 17.5 10.0039 13V7.99901C10.0039 6.34216 8.66076 5 7.00391 5Z" stroke="currentColor" stroke-width="2" stroke-linejoin="round"/>
<path d="M18.0039 5H17.0039C15.3471 5 14.0039 6.34315 14.0039 8V10.2308C14.0039 11.7602 15.2437 13 16.7731 13C16.9006 13 17.0039 13.1033 17.0039 13.2308V19C17.0039 19 21.0039 17.5 21.0039 13V7.99901C21.0039 6.34216 19.6608 5 18.0039 5Z" stroke="currentColor" stroke-width="2" stroke-linejoin="round"/>
</svg>
