<svg width="24" height="24" viewBox="0 0 24 24" fill="none" xmlns="http://www.w3.org/2000/svg">
<path fill-rule="evenodd" clip-rule="evenodd" d="M5.59824 8.16485C6.68595 5.71241 9.14187 4 12 4C15.5571 4 18.4944 6.65314 18.9412 10.0884C21.2527 10.5287 23 12.5603 23 15C23 17.7614 20.7614 20 18 20H7C3.68629 20 1 17.3137 1 14C1 11.1686 2.96041 8.79651 5.59824 8.16485ZM11 9C11 8.44772 11.4477 8 12 8C12.5523 8 13 8.44772 13 9V13.0858L13.7929 12.2929C14.1834 11.9024 14.8166 11.9024 15.2071 12.2929C15.5976 12.6834 15.5976 13.3166 15.2071 13.7071L12.7071 16.2071C12.3166 16.5976 11.6834 16.5976 11.2929 16.2071L8.79289 13.7071C8.40237 13.3166 8.40237 12.6834 8.79289 12.2929C9.18342 11.9024 9.81658 11.9024 10.2071 12.2929L11 13.0858V9Z" fill="currentColor" style="fill:currentColor;fill-opacity:1;"/>
</svg>
