<svg width="24" height="24" viewBox="0 0 24 24" fill="none" xmlns="http://www.w3.org/2000/svg">
<path fill-rule="evenodd" clip-rule="evenodd" d="M1 12C1 7.58172 4.58172 4 9 4C11.9981 4 14.6092 5.6491 15.9789 8.0867C16.3112 8.02966 16.6524 8 17 8C20.3137 8 23 10.6863 23 14C23 16.4619 21.5174 18.5754 19.4004 19.5003C18.8943 19.7214 18.3048 19.4904 18.0836 18.9843C17.8625 18.4782 18.0935 17.8887 18.5996 17.6676C20.0144 17.0494 21 15.6387 21 14C21 11.7909 19.2091 10 17 10C16.562 10 16.1424 10.07 15.7506 10.1987C15.2579 10.3605 14.7232 10.1188 14.5192 9.64202C13.6021 7.49867 11.4749 6 9 6C5.68629 6 3 8.68629 3 12C3 14.0381 4.01524 15.8392 5.5721 16.9251C6.02507 17.2411 6.13615 17.8644 5.82019 18.3174C5.50422 18.7704 4.88088 18.8815 4.4279 18.5655C2.35779 17.1215 1 14.7194 1 12ZM12 13C12.5523 13 13 13.4477 13 14V17.5858L13.7929 16.7929C14.1834 16.4024 14.8166 16.4024 15.2071 16.7929C15.5976 17.1834 15.5976 17.8166 15.2071 18.2071L12.7071 20.7071C12.3166 21.0976 11.6834 21.0976 11.2929 20.7071L8.79289 18.2071C8.40237 17.8166 8.40237 17.1834 8.79289 16.7929C9.18342 16.4024 9.81658 16.4024 10.2071 16.7929L11 17.5858V14C11 13.4477 11.4477 13 12 13Z" fill="currentColor" style="fill:currentColor;fill-opacity:1;"/>
</svg>
