<svg width="24" height="24" viewBox="0 0 24 24" fill="none" xmlns="http://www.w3.org/2000/svg">
<path d="M12 2C17.5228 2 22 6.47715 22 12C22 17.5228 17.5228 22 12 22C6.47715 22 2 17.5228 2 12C2 6.47715 6.47715 2 12 2ZM10 7.09961C9.50294 7.09961 9.09961 7.50294 9.09961 8V11.5488L7.05371 12.7188C6.62218 12.9653 6.47223 13.5147 6.71875 13.9463C6.96534 14.3778 7.51474 14.5278 7.94629 14.2812L9.09961 13.6221V16C9.09961 16.4971 9.50294 16.9004 10 16.9004H12.1973C13.6244 16.9004 14.9574 16.1865 15.749 14.999C16.0245 14.5855 15.9125 14.0266 15.499 13.751C15.0855 13.4755 14.5266 13.5875 14.251 14.001C13.7931 14.6876 13.0225 15.0996 12.1973 15.0996H10.9004V12.5928L14.9463 10.2812C15.3778 10.0347 15.5278 9.48526 15.2812 9.05371C15.0347 8.62218 14.4853 8.47223 14.0537 8.71875L10.9004 10.5205V8C10.9004 7.50294 10.4971 7.09961 10 7.09961Z" fill="currentColor"/>
</svg>
