<svg width="24" height="24" viewBox="0 0 24 24" fill="none" xmlns="http://www.w3.org/2000/svg">
<path fill-rule="evenodd" clip-rule="evenodd" d="M2 12C2 6.47715 6.47715 2 12 2C17.5228 2 22 6.47715 22 12C22 17.5228 17.5228 22 12 22C6.47715 22 2 17.5228 2 12ZM11 9.5C11 8.67157 11.6716 8 12.5 8C12.9082 8 13.2766 8.16175 13.5481 8.42688C13.9431 8.81281 14.5762 8.8054 14.9622 8.41034C15.3481 8.01528 15.3407 7.38215 14.9456 6.99622C14.3157 6.38087 13.4513 6 12.5 6C10.567 6 9 7.567 9 9.5C9 10.077 9.13007 10.5788 9.29241 11H9C8.44772 11 8 11.4477 8 12C8 12.5523 8.44772 13 9 13H9.56253L8.13176 15.5039C7.9549 15.8134 7.95617 16.1936 8.13509 16.5019C8.31401 16.8102 8.64353 17 9 17H14C14.5523 17 15 16.5523 15 16C15 15.4477 14.5523 15 14 15H10.7232L11.866 13H14C14.5523 13 15 12.5523 15 12C15 11.4477 14.5523 11 14 11H11.5056L11.479 10.9497C11.4462 10.8877 11.4152 10.8292 11.3883 10.7773C11.1557 10.3273 11 9.94192 11 9.5Z" fill="currentColor"/>
</svg>
