<svg width="24" height="24" viewBox="0 0 24 24" fill="none" xmlns="http://www.w3.org/2000/svg">
<path fill-rule="evenodd" clip-rule="evenodd" d="M12 2C17.5228 2 22 6.47715 22 12C22 17.5228 17.5228 22 12 22C6.47715 22 2 17.5228 2 12C2 6.47715 6.47715 2 12 2ZM12 5.5C11.4477 5.5 11 5.94772 11 6.5V6.86035C9.75929 7.1434 8.50022 8.11028 8.5 9.77734C8.5 10.8667 9.00575 11.6177 9.71289 12.1064C10.3363 12.5372 11.126 12.7672 11.7119 12.9434C12.381 13.1445 12.8431 13.2911 13.1602 13.5049C13.3912 13.6607 13.4999 13.8139 13.5 14.1455C13.5 14.5427 13.1316 15.0286 12.2148 15.1777C11.364 15.3161 10.7036 15.0361 10.4414 14.6348L10.3438 14.4639C10.0724 14.0357 9.51584 13.8739 9.05273 14.1055C8.58961 14.337 8.38471 14.8796 8.56445 15.3535L8.60547 15.4473L8.68164 15.5898C9.19846 16.5006 10.0874 16.9676 11 17.1348V17.5C11 18.0523 11.4477 18.5 12 18.5C12.5523 18.5 13 18.0523 13 17.5V17.0479C14.2191 16.7073 15.5 15.7825 15.5 14.1455C15.4999 13.0612 14.9834 12.3227 14.2773 11.8467C13.657 11.4285 12.8689 11.203 12.2881 11.0283C11.624 10.8287 11.1637 10.678 10.8496 10.4609C10.6194 10.3018 10.5 10.1361 10.5 9.77734C10.5002 9.31418 10.8441 8.90656 11.5391 8.79102C12.1957 8.68185 12.7789 8.91578 13.0547 9.35645L13.1055 9.44727L13.1562 9.53613C13.4276 9.96426 13.9842 10.1261 14.4473 9.89453C14.9104 9.66297 15.1153 9.12042 14.9355 8.64648L14.8945 8.55273L14.7432 8.2832C14.3137 7.59566 13.6816 7.16676 13 6.94727V6.5C13 5.94772 12.5523 5.5 12 5.5Z" fill="currentColor"/>
</svg>
