<svg width="24" height="24" viewBox="0 0 24 24" fill="none" xmlns="http://www.w3.org/2000/svg">
<path d="M13.3945 11.4004C13.0573 12.1089 12.3371 12.5996 11.5 12.5996H10.9004V11.4004H13.3945Z" fill="currentColor"/>
<path d="M11.5 8.40039C12.3371 8.40039 13.0573 8.89108 13.3945 9.59961H10.9004V8.40039H11.5Z" fill="currentColor"/>
<path fill-rule="evenodd" clip-rule="evenodd" d="M12 2C17.5228 2 22 6.47715 22 12C22 17.5228 17.5228 22 12 22C6.47715 22 2 17.5228 2 12C2 6.47715 6.47715 2 12 2ZM10 6.59961C9.53393 6.59961 9.15047 6.95426 9.10449 7.4082L9.09961 7.5V9.59961H8C7.50294 9.59961 7.09961 10.0029 7.09961 10.5C7.09961 10.9971 7.50294 11.4004 8 11.4004H9.09961V16.5C9.09961 16.9971 9.50294 17.4004 10 17.4004C10.4971 17.4004 10.9004 16.9971 10.9004 16.5V14.4004H11.5C13.3439 14.4004 14.8883 13.1202 15.2949 11.4004H16L16.0918 11.3955C16.5457 11.3495 16.9004 10.9661 16.9004 10.5C16.9004 10.0339 16.5457 9.65047 16.0918 9.60449L16 9.59961H15.2949C14.8883 7.87981 13.3439 6.59961 11.5 6.59961H10Z" fill="currentColor"/>
</svg>
