<svg width="24" height="24" viewBox="0 0 24 24" fill="none" xmlns="http://www.w3.org/2000/svg">
<path fill-rule="evenodd" clip-rule="evenodd" d="M3 7C3 4.79086 4.79086 3 7 3H17C19.2091 3 21 4.79086 21 7V17C21 19.2091 19.2091 21 17 21H7C4.79086 21 3 19.2091 3 17V7ZM14.5243 8.24786C15.2708 8.04427 15.9558 8.72924 15.7522 9.47574L14.6327 13.5803C14.493 14.0927 14.0927 14.493 13.5803 14.6327L9.47574 15.7522C8.72924 15.9558 8.04427 15.2708 8.24786 14.5243L9.36728 10.4197C9.50703 9.90733 9.90733 9.50703 10.4197 9.36728L14.5243 8.24786Z" fill="currentColor" style="fill:currentColor;fill-opacity:1;"/>
</svg>
