<svg width="24" height="24" viewBox="0 0 24 24" fill="none" xmlns="http://www.w3.org/2000/svg">
<path fill-rule="evenodd" clip-rule="evenodd" d="M12 4V20C12.4531 20 12.8975 19.9623 13.3301 19.8899V4.11007C12.8975 4.03768 12.4531 4 12 4ZM15.3301 4.7239V19.2761C15.7996 19.0609 16.2446 18.8016 16.6599 18.5035V5.49654C16.2446 5.19843 15.7996 4.93911 15.3301 4.7239ZM18.6599 7.56613V16.4339C19.5065 15.1648 20 13.64 20 12C20 10.36 19.5065 8.83523 18.6599 7.56613ZM2 12C2 6.47715 6.47715 2 12 2C17.5228 2 22 6.47715 22 12C22 17.5228 17.5228 22 12 22C6.47715 22 2 17.5228 2 12Z" fill="currentColor" style="fill:currentColor;fill-opacity:1;"/>
</svg>
