<svg width="24" height="24" viewBox="0 0 24 24" fill="none" xmlns="http://www.w3.org/2000/svg">
<path d="M19 21H6.5C5.67157 21 5 20.3284 5 19.5M5 19.5V6C5 4.34315 6.34315 3 8 3H18C18.5523 3 19 3.44772 19 4V18H6.5C5.67157 18 5 18.6716 5 19.5ZM12.75 8.75C12.75 9.16421 12.4142 9.5 12 9.5C11.5858 9.5 11.25 9.16421 11.25 8.75M12.75 8.75C12.75 8.33579 12.4142 8 12 8C11.5858 8 11.25 8.33579 11.25 8.75M12.75 8.75H11.25M12 12C10.4851 12 10.1145 12.6357 10.0265 12.8934C10.0074 12.9494 10.0513 13 10.1105 13H13.8895C13.9487 13 13.9926 12.9494 13.9735 12.8934C13.8855 12.6357 13.5149 12 12 12Z" stroke="currentColor" stroke-width="2" stroke-linecap="round" stroke-linejoin="round"/>
</svg>
