<svg width="24" height="24" viewBox="0 0 24 24" fill="none" xmlns="http://www.w3.org/2000/svg">
<path fill-rule="evenodd" clip-rule="evenodd" d="M8 2C5.79086 2 4 3.79086 4 6V19.5C4 20.8807 5.11929 22 6.5 22H19C19.5523 22 20 21.5523 20 21C20 20.4477 19.5523 20 19 20H6.5C6.22386 20 6 19.7761 6 19.5C6 19.2239 6.22386 19 6.5 19H19C19.5523 19 20 18.5523 20 18V4C20 2.89543 19.1046 2 18 2H8ZM12 7C11.0335 7 10.25 7.7835 10.25 8.75C10.25 9.7165 11.0335 10.5 12 10.5C12.9665 10.5 13.75 9.7165 13.75 8.75C13.75 7.7835 12.9665 7 12 7ZM12 11C11.1063 11 10.4297 11.1877 9.93177 11.5125C9.42357 11.844 9.18461 12.2643 9.08013 12.5703C8.79411 13.4079 9.51241 14 10.1105 14H13.8895C14.4876 14 15.2059 13.4079 14.9199 12.5703C14.8154 12.2643 14.5764 11.844 14.0682 11.5125C13.5703 11.1877 12.8937 11 12 11Z" fill="currentColor" style="fill:currentColor;fill-opacity:1;"/>
</svg>
