<svg width="24" height="24" viewBox="0 0 24 24" fill="none" xmlns="http://www.w3.org/2000/svg">
<path d="M6 4C3.79086 4 2 5.79086 2 8V9H22V8C22 5.79086 20.2091 4 18 4H6Z" fill="currentColor" style="fill:currentColor;fill-opacity:1;"/>
<path fill-rule="evenodd" clip-rule="evenodd" d="M2 16V11H22V16C22 18.2091 20.2091 20 18 20H6C3.79086 20 2 18.2091 2 16ZM7 13C6.44772 13 6 13.4477 6 14C6 14.5523 6.44772 15 7 15H10C10.5523 15 11 14.5523 11 14C11 13.4477 10.5523 13 10 13H7Z" fill="currentColor" style="fill:currentColor;fill-opacity:1;"/>
</svg>
