<svg width="24" height="24" viewBox="0 0 24 24" fill="none" xmlns="http://www.w3.org/2000/svg">
<path d="M12.9004 2C15.5237 2.00013 17.8435 3.26934 19.4453 5.2207L19.7559 5.61914L19.8271 5.72656C20.1493 6.27168 20.0127 6.98312 19.4922 7.36719C18.9713 7.75135 18.2508 7.67147 17.8252 7.20215L17.7441 7.10352L17.5127 6.80566C16.3235 5.35573 14.6772 4.50013 12.9004 4.5C10.4465 4.5 8.18588 6.18253 7.12891 8.75H12.75C13.4404 8.75 14 9.30964 14 10C14 10.6904 13.4404 11.25 12.75 11.25H6.53223C6.51175 11.4959 6.5 11.746 6.5 12C6.5 12.254 6.51175 12.5041 6.53223 12.75H12.75C13.4404 12.75 14 13.3096 14 14C14 14.6904 13.4404 15.25 12.75 15.25H7.12891C8.18588 17.8175 10.4465 19.5 12.9004 19.5C14.7955 19.4999 16.5422 18.5262 17.7441 16.8965C18.1539 16.3411 18.9367 16.2231 19.4922 16.6328C20.0476 17.0426 20.1656 17.8253 19.7559 18.3809C18.1513 20.5563 15.6984 21.9999 12.9004 22C8.89878 22 5.66989 19.1061 4.4873 15.25H3.25C2.55964 15.25 2 14.6904 2 14C2 13.3096 2.55964 12.75 3.25 12.75H4.02734C4.0107 12.5018 4 12.2518 4 12C4 11.7482 4.0107 11.4982 4.02734 11.25H3.25C2.55964 11.25 2 10.6904 2 10C2 9.30964 2.55964 8.75 3.25 8.75H4.4873C5.66989 4.89391 8.89878 2 12.9004 2Z" fill="currentColor"/>
</svg>
