<svg width="24" height="24" viewBox="0 0 24 24" fill="none" xmlns="http://www.w3.org/2000/svg">
<path d="M13.5156 3C15.3276 3.00019 16.9315 3.87826 17.9404 5.22363L18.1338 5.49902L18.1992 5.60938C18.4925 6.17041 18.3188 6.87394 17.7793 7.23047C17.2393 7.58694 16.5238 7.46999 16.123 6.97949L16.0479 6.87598L15.9395 6.72266C15.3782 5.97394 14.498 5.50019 13.5156 5.5C11.8481 5.5 10.4668 6.87561 10.4668 8.60938C10.4668 9.16357 10.5397 9.96521 10.6182 11H13.75L13.8779 11.0068C14.5082 11.0709 15 11.6028 15 12.25C15 12.8972 14.5082 13.4291 13.8779 13.4932L13.75 13.5H10.7529C10.7653 14.0936 10.7604 14.6972 10.7236 15.2871C10.6561 16.3704 10.4779 17.5166 10.0459 18.5H17.75L17.8779 18.5068C18.5082 18.5709 19 19.1028 19 19.75C19 20.3972 18.5082 20.9291 17.8779 20.9932L17.75 21H6.25C5.55964 21 5 20.4404 5 19.75C5 19.0596 5.55964 18.5 6.25 18.5H6.35059C6.98994 18.4999 7.34219 18.2515 7.62109 17.7695C7.95445 17.1933 8.1561 16.2923 8.22852 15.1318C8.26141 14.6045 8.26476 14.0545 8.25195 13.5H6.25C5.55964 13.5 5 12.9404 5 12.25C5 11.5596 5.55964 11 6.25 11H8.11035C8.03999 10.0949 7.9668 9.22099 7.9668 8.60938C7.9668 5.5279 10.4346 3 13.5156 3Z" fill="currentColor"/>
</svg>
