<svg width="24" height="24" viewBox="0 0 24 24" fill="none" xmlns="http://www.w3.org/2000/svg">
<path d="M18.7501 2C19.4405 2 20.0001 2.55964 20.0001 3.25C20.0001 3.94036 19.4405 4.5 18.7501 4.5H16.5001C17.0461 5.22681 17.4376 6.07631 17.6251 7H18.7501C19.4405 7 20.0001 7.55964 20.0001 8.25C20.0001 8.94036 19.4405 9.5 18.7501 9.5H17.6251C17.0461 12.3528 14.5238 14.5 11.5001 14.5H9.15151L16.4767 19.7324L16.5773 19.8125C17.0527 20.2309 17.1437 20.95 16.7677 21.4766C16.3915 22.0033 15.6812 22.1505 15.131 21.8359L15.0236 21.7676L4.52358 14.2676C4.0814 13.9517 3.89388 13.3856 4.05971 12.8682C4.22564 12.3509 4.70686 12 5.25014 12H11.5001C13.1327 12 14.5204 10.9563 15.0353 9.5H5.25014C4.55979 9.5 4.00014 8.94036 4.00014 8.25C4.00014 7.55964 4.55979 7 5.25014 7H15.0353C14.5204 5.54375 13.1327 4.5 11.5001 4.5H5.25014C4.55979 4.5 4.00014 3.94036 4.00014 3.25C4.00014 2.55964 4.55979 2 5.25014 2H18.7501Z" fill="currentColor"/>
</svg>
