<svg width="24" height="24" viewBox="0 0 24 24" fill="none" xmlns="http://www.w3.org/2000/svg">
<path d="M2 12C2 6.47715 6.47715 2 12 2C17.5228 2 22 6.47715 22 12C22 13.0452 21.8396 14.053 21.5422 15H13.618L15.8944 10.4472C16.1414 9.95324 15.9412 9.35256 15.4472 9.10557C14.9532 8.85858 14.3526 9.05881 14.1056 9.55279L11.382 15H2.4578C2.16035 14.053 2 13.0452 2 12Z" fill="currentColor" style="fill:currentColor;fill-opacity:1;"/>
<path d="M3.33782 17C5.06687 19.989 8.29859 22 12 22C15.7014 22 18.9331 19.989 20.6622 17H3.33782Z" fill="currentColor" style="fill:currentColor;fill-opacity:1;"/>
</svg>
