<svg width="24" height="24" viewBox="0 0 24 24" fill="none" xmlns="http://www.w3.org/2000/svg">
<path fill-rule="evenodd" clip-rule="evenodd" d="M8.6778 3.54561C8.90745 2.46517 9.96949 1.77548 11.0499 2.00513L13.0062 2.42096C14.0866 2.65061 14.7763 3.71264 14.5467 4.79308L14.1047 6.87264C15.6999 7.66567 16.6212 9.46259 16.2337 11.2857L14.6743 18.6218C14.215 20.7827 12.0909 22.1621 9.93008 21.7027L6.01749 20.8711C3.85663 20.4118 2.47724 18.2877 2.93655 16.1269L4.49589 8.79076C4.8834 6.96765 6.45593 5.70081 8.23578 5.62517L8.6778 3.54561ZM12.1746 6.33355L12.5904 4.37725L10.6341 3.96143L10.2183 5.91773L12.1746 6.33355ZM7.88511 11.0885C8.3483 10.7877 8.96762 10.9194 9.26842 11.3826L9.87913 12.323L10.8196 11.7123C11.2827 11.4115 11.9021 11.5431 12.2029 12.0063C12.5037 12.4695 12.372 13.0888 11.9088 13.3896L10.9684 14.0003L11.5791 14.9407C11.8799 15.4039 11.7483 16.0232 11.2851 16.324C10.8219 16.6248 10.2026 16.4932 9.90179 16.03L9.29107 15.0896L8.35065 15.7003C7.88747 16.0011 7.26814 15.8695 6.96734 15.4063C6.66655 14.9431 6.79819 14.3238 7.26138 14.023L8.20179 13.4122L7.59108 12.4718C7.29028 12.0086 7.42193 11.3893 7.88511 11.0885Z" fill="currentColor" style="fill:currentColor;fill-opacity:1;"/>
<path d="M17.5 5C17.5 5.55228 17.0523 6 16.5 6C15.9477 6 15.5 5.55228 15.5 5C15.5 4.44772 15.9477 4 16.5 4C17.0523 4 17.5 4.44772 17.5 5Z" fill="currentColor" style="fill:currentColor;fill-opacity:1;"/>
<path d="M22.5 5C22.5 5.55228 22.0523 6 21.5 6C20.9477 6 20.5 5.55228 20.5 5C20.5 4.44772 20.9477 4 21.5 4C22.0523 4 22.5 4.44772 22.5 5Z" fill="currentColor" style="fill:currentColor;fill-opacity:1;"/>
<path d="M20 3.75C20 4.30228 19.5523 4.75 19 4.75C18.4477 4.75 18 4.30228 18 3.75C18 3.19772 18.4477 2.75 19 2.75C19.5523 2.75 20 3.19772 20 3.75Z" fill="currentColor" style="fill:currentColor;fill-opacity:1;"/>
<path d="M20 6.25C20 6.80228 19.5523 7.25 19 7.25C18.4477 7.25 18 6.80228 18 6.25C18 5.69772 18.4477 5.25 19 5.25C19.5523 5.25 20 5.69772 20 6.25Z" fill="currentColor" style="fill:currentColor;fill-opacity:1;"/>
<path d="M22.5 2.5C22.5 3.05228 22.0523 3.5 21.5 3.5C20.9477 3.5 20.5 3.05228 20.5 2.5C20.5 1.94772 20.9477 1.5 21.5 1.5C22.0523 1.5 22.5 1.94772 22.5 2.5Z" fill="currentColor" style="fill:currentColor;fill-opacity:1;"/>
<path d="M22.5 7.5C22.5 8.05228 22.0523 8.5 21.5 8.5C20.9477 8.5 20.5 8.05228 20.5 7.5C20.5 6.94772 20.9477 6.5 21.5 6.5C22.0523 6.5 22.5 6.94772 22.5 7.5Z" fill="currentColor" style="fill:currentColor;fill-opacity:1;"/>
</svg>
