<svg width="24" height="24" viewBox="0 0 24 24" fill="none" xmlns="http://www.w3.org/2000/svg">
<path fill-rule="evenodd" clip-rule="evenodd" d="M5 5C5 3.89543 5.89543 3 7 3H13C14.1046 3 15 3.89543 15 5V8C15 9.10457 14.1046 10 13 10H11V11H17C19.2091 11 21 12.7909 21 15V19C21 20.1046 20.1046 21 19 21H14C12.8954 21 12 20.1046 12 19V13H7C5.89543 13 5 13.8954 5 15V20C5 20.5523 4.55228 21 4 21C3.44772 21 3 20.5523 3 20V15C3 12.7909 4.79086 11 7 11H9V10H7C5.89543 10 5 9.10457 5 8V5ZM14 13V15H19C19 13.8954 18.1046 13 17 13H14Z" fill="currentColor" style="fill:currentColor;fill-opacity:1;"/>
</svg>
