<svg width="24" height="24" viewBox="0 0 24 24" fill="none" xmlns="http://www.w3.org/2000/svg">
<path fill-rule="evenodd" clip-rule="evenodd" d="M20 11V6C20 3.79086 18.2091 2 16 2H8C5.79086 2 4 3.79086 4 6V11H3C2.44772 11 2 11.4477 2 12C2 12.5523 2.44772 13 3 13H4.70642L10.1509 16.5L4.45936 20.1588C3.99479 20.4575 3.86029 21.0762 4.15894 21.5408C4.4576 22.0053 5.07631 22.1398 5.54088 21.8412L12.0001 17.6888L18.4594 21.8412C18.9239 22.1398 19.5426 22.0053 19.8413 21.5408C20.14 21.0762 20.0054 20.4575 19.5409 20.1588L13.8494 16.5L19.2938 13H21C21.5523 13 22 12.5523 22 12C22 11.4477 21.5523 11 21 11H20ZM15.5953 13H8.40494L12.0001 15.3112L15.5953 13Z" fill="currentColor" style="fill:currentColor;fill-opacity:1;"/>
</svg>
