<svg width="24" height="24" viewBox="0 0 24 24" fill="none" xmlns="http://www.w3.org/2000/svg">
<path fill-rule="evenodd" clip-rule="evenodd" d="M7 3C4.79086 3 3 4.79086 3 7V17C3 19.2091 4.79086 21 7 21H17C19.2091 21 21 19.2091 21 17V7C21 4.79086 19.2091 3 17 3H7ZM12.3493 8.64222L12.3503 8.64325L12.3524 8.64526L12.3594 8.6522L12.3848 8.67744C12.4065 8.69923 12.4377 8.73081 12.4771 8.7714C12.5558 8.85254 12.6672 8.96985 12.8003 9.11693C13.0662 9.41052 13.4215 9.82559 13.7779 10.3107C14.1334 10.7944 14.4968 11.3569 14.7729 11.9451C15.047 12.5289 15.25 13.1692 15.25 13.8C15.25 15.4524 13.7994 17 12 17C10.2006 17 8.75 15.4524 8.75 13.8C8.75 13.1692 8.95301 12.5289 9.22708 11.9451C9.50323 11.3569 9.86664 10.7944 10.2221 10.3107C10.5785 9.82559 10.9338 9.41052 11.1997 9.11693C11.3328 8.96985 11.4442 8.85254 11.5229 8.7714C11.5623 8.73081 11.5935 8.69923 11.6152 8.67744L11.6406 8.6522L11.6476 8.64526L11.6497 8.64325L11.6507 8.64222C11.845 8.45259 12.155 8.45259 12.3493 8.64222ZM5 6.25C5 5.55964 5.55964 5 6.25 5C6.94036 5 7.5 5.55964 7.5 6.25C7.5 6.94036 6.94036 7.5 6.25 7.5C5.55964 7.5 5 6.94036 5 6.25Z" fill="currentColor" style="fill:currentColor;fill-opacity:1;"/>
</svg>
