<svg width="24" height="24" viewBox="0 0 24 24" fill="none" xmlns="http://www.w3.org/2000/svg">
<path d="M21.2274 8.848C20.3335 7.088 18.6062 6 16.7274 6H2.48485C2.21212 6 2 6.24 2 6.528C2 6.656 2.04545 6.8 2.13636 6.896L5.24245 10.192C5.51517 10.48 5.89396 10.64 6.27276 10.64H16.3183C17.0304 10.64 17.6213 11.232 17.6213 12C17.6213 12.752 17.0607 13.376 16.3334 13.376H9.42429C9.15156 13.376 8.93944 13.616 8.93944 13.904C8.93944 14.048 8.98489 14.176 9.0758 14.272L12.1819 17.568C12.4546 17.84 12.8334 18 13.2122 18H16.3486C20.4244 18 23.5001 13.408 21.2274 8.848Z" fill="currentColor"/>
</svg>
