<svg width="24" height="24" viewBox="0 0 24 24" fill="none" xmlns="http://www.w3.org/2000/svg">
<path fill-rule="evenodd" clip-rule="evenodd" d="M20 20V6C20 3.79086 18.2091 2 16 2H8C5.79086 2 4 3.79086 4 6V20H3C2.44772 20 2 20.4477 2 21C2 21.5523 2.44772 22 3 22H21C21.5523 22 22 21.5523 22 21C22 20.4477 21.5523 20 21 20H20ZM7 12C7 11.4477 7.44772 11 8 11H9C9.55228 11 10 11.4477 10 12C10 12.5523 9.55228 13 9 13H8C7.44772 13 7 12.5523 7 12Z" fill="currentColor" style="fill:currentColor;fill-opacity:1;"/>
</svg>
