<svg width="24" height="24" viewBox="0 0 24 24" fill="none" xmlns="http://www.w3.org/2000/svg">
<path d="M5 14C5.55228 14 6 14.4477 6 15C6 15.5523 5.55228 16 5 16C4.44772 16 4 15.5523 4 15C4 14.4477 4.44772 14 5 14Z" stroke="currentColor" stroke-width="2"/>
<path d="M12 14C12.5523 14 13 14.4477 13 15C13 15.5523 12.5523 16 12 16C11.4477 16 11 15.5523 11 15C11 14.4477 11.4477 14 12 14Z" stroke="currentColor" stroke-width="2"/>
<path d="M19 14C19.5523 14 20 14.4477 20 15C20 15.5523 19.5523 16 19 16C18.4477 16 18 15.5523 18 15C18 14.4477 18.4477 14 19 14Z" stroke="currentColor" stroke-width="2"/>
<path d="M12 8C12.5523 8 13 8.4477 13 9C13 9.5523 12.5523 10 12 10C11.4477 10 11 9.5523 11 9C11 8.4477 11.4477 8 12 8Z" stroke="currentColor" stroke-width="2"/>
<path d="M19 8C19.5523 8 20 8.4477 20 9C20 9.5523 19.5523 10 19 10C18.4477 10 18 9.5523 18 9C18 8.4477 18.4477 8 19 8Z" stroke="currentColor" stroke-width="2"/>
<path d="M5 8C5.55228 8 6 8.4477 6 9C6 9.5523 5.55228 10 5 10C4.44772 10 4 9.5523 4 9C4 8.4477 4.44772 8 5 8Z" stroke="currentColor" stroke-width="2"/>
</svg>
