<svg width="24" height="24" viewBox="0 0 24 24" fill="none" xmlns="http://www.w3.org/2000/svg">
<path fill-rule="evenodd" clip-rule="evenodd" d="M10 6C10 8.20914 8.20914 10 6 10H4C3.44772 10 3 9.55228 3 9C3 8.44772 3.44772 8 4 8H6C7.10457 8 8 7.10457 8 6V4C8 3.44772 8.44772 3 9 3C9.55228 3 10 3.44772 10 4V6Z" fill="currentColor"/>
<path fill-rule="evenodd" clip-rule="evenodd" d="M21 9C21 9.55228 20.5523 10 20 10H18C15.7909 10 14 8.20914 14 6V4C14 3.44772 14.4477 3 15 3C15.5523 3 16 3.44772 16 4V6C16 7.10457 16.8954 8 18 8H20C20.5523 8 21 8.44772 21 9Z" fill="currentColor"/>
<path fill-rule="evenodd" clip-rule="evenodd" d="M15 21C14.4477 21 14 20.5523 14 20V18C14 15.7909 15.7909 14 18 14H20C20.5523 14 21 14.4477 21 15C21 15.5523 20.5523 16 20 16H18C16.8954 16 16 16.8954 16 18V20C16 20.5523 15.5523 21 15 21Z" fill="currentColor"/>
<path fill-rule="evenodd" clip-rule="evenodd" d="M9 21C8.44772 21 8 20.5523 8 20V18C8 16.8954 7.10457 16 6 16H4C3.44772 16 3 15.5523 3 15C3 14.4477 3.44772 14 4 14H6C8.20914 14 10 15.7909 10 18V20C10 20.5523 9.55228 21 9 21Z" fill="currentColor"/>
</svg>
