<svg width="24" height="24" viewBox="0 0 24 24" fill="none" xmlns="http://www.w3.org/2000/svg">
<path fill-rule="evenodd" clip-rule="evenodd" d="M6 4H11V17H6L6 19C6 19.5523 5.55228 20 5 20C4.44772 20 4 19.5523 4 19V16.4649C2.8044 15.7733 2 14.4806 2 13V8C2 5.79086 3.79086 4 6 4ZM9 11C9 11.5523 8.55228 12 8 12C7.44772 12 7 11.5523 7 11V9C7 8.44772 7.44772 8 8 8C8.55228 8 9 8.44772 9 9V11Z" fill="currentColor" style="fill:currentColor;fill-opacity:1;"/>
<path fill-rule="evenodd" clip-rule="evenodd" d="M18 17H13V4H18C20.2091 4 22 5.79086 22 8V13C22 14.4806 21.1956 15.7733 20 16.4649V19C20 19.5523 19.5523 20 19 20C18.4477 20 18 19.5523 18 19V17ZM17 11C17 11.5523 16.5523 12 16 12C15.4477 12 15 11.5523 15 11V9C15 8.44772 15.4477 8 16 8C16.5523 8 17 8.44772 17 9V11Z" fill="currentColor" style="fill:currentColor;fill-opacity:1;"/>
</svg>
