<svg width="24" height="24" viewBox="0 0 24 24" fill="none" xmlns="http://www.w3.org/2000/svg">
<path fill-rule="evenodd" clip-rule="evenodd" d="M3 7C3 4.79086 4.79086 3 7 3H17C19.2091 3 21 4.79086 21 7V15C21 16.8666 19.7215 18.4346 17.9924 18.8759C17.9974 18.9166 18 18.958 18 19V21C18 21.5523 17.5523 22 17 22C16.4477 22 16 21.5523 16 21V19H8V21C8 21.5523 7.55228 22 7 22C6.44772 22 6 21.5523 6 21V19C6 18.958 6.00259 18.9166 6.00763 18.8759C4.27853 18.4346 3 16.8666 3 15V7ZM11 12V17H7C5.89543 17 5 16.1046 5 15V12H11ZM11 10V5H7C5.89543 5 5 5.89543 5 7V10H11ZM15 9C15.5523 9 16 9.44772 16 10V12C16 12.5523 15.5523 13 15 13C14.4477 13 14 12.5523 14 12V10C14 9.44772 14.4477 9 15 9Z" fill="currentColor" style="fill:currentColor;fill-opacity:1;"/>
</svg>
