<svg width="24" height="24" viewBox="0 0 24 24" fill="none" xmlns="http://www.w3.org/2000/svg">
<path fill-rule="evenodd" clip-rule="evenodd" d="M6 4C3.79086 4 2 5.79086 2 8V15C2 16.4806 2.8044 17.7733 4 18.4649V20C4 20.5523 4.44772 21 5 21C5.55228 21 6 20.5523 6 20V19H11V4H6ZM9 12C9 12.5523 8.55228 13 8 13C7.44772 13 7 12.5523 7 12V10C7 9.44772 7.44772 9 8 9C8.55228 9 9 9.44772 9 10V12Z" fill="currentColor" style="fill:currentColor;fill-opacity:1;"/>
<path fill-rule="evenodd" clip-rule="evenodd" d="M13 4V19H18V20C18 20.5523 18.4477 21 19 21C19.5523 21 20 20.5523 20 20V18.4649C21.1956 17.7733 22 16.4806 22 15V8C22 5.79086 20.2091 4 18 4H13ZM16 9C15.4477 9 15 9.44772 15 10V12C15 12.5523 15.4477 13 16 13C16.5523 13 17 12.5523 17 12V10C17 9.44772 16.5523 9 16 9Z" fill="currentColor" style="fill:currentColor;fill-opacity:1;"/>
</svg>
