<svg width="24" height="24" viewBox="0 0 24 24" fill="none" xmlns="http://www.w3.org/2000/svg">
<path d="M4.17156 8.07011L6.85387 10.0833C7.50915 10.5752 8.44975 10.3548 8.81836 9.62306C8.99021 9.28194 9.30184 9.03235 9.67226 8.93916L11.2805 8.53459C12.3244 8.27199 13.139 7.45619 13.4001 6.41195L14.126 3.50882M21 12C21 16.9706 16.9706 21 12 21C7.02944 21 3 16.9706 3 12C3 7.02944 7.02944 3 12 3C16.9706 3 21 7.02944 21 12ZM11.2514 15.7378L10.6023 14.7641C10.2853 14.2886 10.3486 13.6553 10.7535 13.2519C10.9966 13.0096 11.3322 12.8834 11.6748 12.9052L12.318 12.9463C12.782 12.9759 13.2297 13.1281 13.6156 13.3874L14.8342 14.2063C15.4406 14.6138 15.6501 15.4083 15.3233 16.0618C15.0772 16.554 14.5742 16.8649 14.0239 16.8649H13.3575C12.5112 16.8649 11.7209 16.4419 11.2514 15.7378Z" stroke="currentColor" stroke-width="2" stroke-linecap="round" stroke-linejoin="round"/>
</svg>
