<svg width="24" height="24" viewBox="0 0 24 24" fill="none" xmlns="http://www.w3.org/2000/svg">
<path fill-rule="evenodd" clip-rule="evenodd" d="M22 12C22 17.5228 17.5228 22 12 22C6.47715 22 2 17.5228 2 12C2 6.47715 6.47715 2 12 2C17.5228 2 22 6.47715 22 12ZM8.46477 14.1213C8.8553 13.7308 9.48846 13.7308 9.87898 14.1213C11.0505 15.2929 12.95 15.2929 14.1216 14.1213C14.5121 13.7308 15.1453 13.7308 15.5358 14.1213C15.9264 14.5118 15.9264 15.145 15.5358 15.5355C13.5832 17.4882 10.4174 17.4882 8.46477 15.5355C8.07424 15.145 8.07425 14.5118 8.46477 14.1213ZM9.25 8.25C8.55964 8.25 8 8.80964 8 9.5C8 10.1904 8.55964 10.75 9.25 10.75C9.94036 10.75 10.5 10.1904 10.5 9.5C10.5 8.80964 9.94036 8.25 9.25 8.25ZM13.5 9.5C13.5 8.80964 14.0596 8.25 14.75 8.25C15.4404 8.25 16 8.80964 16 9.5C16 10.1904 15.4404 10.75 14.75 10.75C14.0596 10.75 13.5 10.1904 13.5 9.5Z" fill="currentColor" style="fill:currentColor;fill-opacity:1;"/>
</svg>
