<svg width="24" height="24" viewBox="0 0 24 24" fill="none" xmlns="http://www.w3.org/2000/svg">
<path fill-rule="evenodd" clip-rule="evenodd" d="M12 2C6.47715 2 2 6.47715 2 12C2 17.5228 6.47715 22 12 22C17.5228 22 22 17.5228 22 12C22 6.47715 17.5228 2 12 2ZM12 6C12.5523 6 13 6.44772 13 7V8.5H14.5C15.0523 8.5 15.5 8.94772 15.5 9.5C15.5 10.0523 15.0523 10.5 14.5 10.5H13V12C13 12.5523 12.5523 13 12 13C11.4477 13 11 12.5523 11 12V10.5H9.5C8.94772 10.5 8.5 10.0523 8.5 9.5C8.5 8.94772 8.94772 8.5 9.5 8.5H11V7C11 6.44772 11.4477 6 12 6ZM9.5 15C8.94772 15 8.5 15.4477 8.5 16C8.5 16.5523 8.94772 17 9.5 17H14.5C15.0523 17 15.5 16.5523 15.5 16C15.5 15.4477 15.0523 15 14.5 15H9.5Z" fill="currentColor" style="fill:currentColor;fill-opacity:1;"/>
</svg>
