<svg width="24" height="24" viewBox="0 0 24 24" fill="none" xmlns="http://www.w3.org/2000/svg">
<path fill-rule="evenodd" clip-rule="evenodd" d="M2.29289 2.29289C2.68342 1.90237 3.31658 1.90237 3.70711 2.29289L21.7071 20.2929C22.0976 20.6834 22.0976 21.3166 21.7071 21.7071C21.3166 22.0976 20.6834 22.0976 20.2929 21.7071L17.203 18.6172C14.7508 19.9844 12.019 20.3448 9.40471 19.6681C6.54345 18.9274 3.89989 16.9664 1.93129 13.8843C1.19801 12.7362 1.19697 11.2661 1.93064 10.1173C2.8561 8.66813 3.93044 7.46654 5.10829 6.52251L2.29289 3.70711C1.90237 3.31658 1.90237 2.68342 2.29289 2.29289ZM12.5184 13.9326L14.0319 15.4461C13.4364 15.7979 12.7414 16.0002 11.9999 16.0002C9.79077 16.0002 7.99991 14.2094 7.99991 12.0002C7.99991 11.2588 8.20225 10.5637 8.55399 9.96821L10.0676 11.4818C10.0234 11.647 9.99991 11.8208 9.99991 12.0002C9.99991 13.1048 10.8953 14.0002 11.9999 14.0002C12.1793 14.0002 12.3531 13.9767 12.5184 13.9326Z" fill="currentColor" style="fill:currentColor;fill-opacity:1;"/>
<path d="M22.0676 13.8861C21.5419 14.7088 20.9681 15.4514 20.3551 16.1121L8.7627 4.51969C9.81695 4.17488 10.9045 4.00001 12.0003 4C15.8041 3.99997 19.5073 6.10671 22.0676 10.1138C22.8013 11.2622 22.8013 12.7377 22.0676 13.8861Z" fill="currentColor" style="fill:currentColor;fill-opacity:1;"/>
</svg>
