<svg width="25" height="24" viewBox="0 0 25 24" fill="none" xmlns="http://www.w3.org/2000/svg">
<path fill-rule="evenodd" clip-rule="evenodd" d="M22.8176 10.1138C20.2573 6.10671 16.5541 3.99997 12.7503 4C8.94662 4.00003 5.24337 6.10681 2.68313 10.1139C1.94937 11.2623 1.94937 12.7378 2.68313 13.8862C5.24338 17.8933 8.94663 20 12.7504 20C16.5541 20 20.2573 17.8932 22.8176 13.8861C23.5513 12.7377 23.5513 11.2622 22.8176 10.1138ZM12.3028 8.89443L11.4912 10.5176C11.4428 10.6144 11.3644 10.6928 11.2676 10.7412L9.64443 11.5528C9.2759 11.737 9.2759 12.263 9.64443 12.4472L11.2676 13.2588C11.3644 13.3072 11.4428 13.3856 11.4912 13.4824L12.3028 15.1056C12.487 15.4741 13.013 15.4741 13.1972 15.1056L14.0088 13.4824C14.0572 13.3856 14.1356 13.3072 14.2324 13.2588L15.8556 12.4472C16.2241 12.263 16.2241 11.737 15.8556 11.5528L14.2324 10.7412C14.1356 10.6928 14.0572 10.6144 14.0088 10.5176L13.1972 8.89443C13.013 8.5259 12.487 8.5259 12.3028 8.89443Z" fill="currentColor" style="fill:currentColor;fill-opacity:1;"/>
</svg>
