<svg width="24" height="24" viewBox="0 0 24 24" fill="none" xmlns="http://www.w3.org/2000/svg">
<path d="M4.72845 8.38942C6.88193 6.09969 9.46492 5.00002 12.0001 5C14.5352 4.99998 17.1181 6.0996 19.2716 8.38924C19.6499 8.79155 20.2828 8.81095 20.6851 8.43257C21.0874 8.05419 21.1068 7.42133 20.7284 7.01902C18.2368 4.36978 15.1423 2.99998 12 3C8.85771 3.00002 5.76324 4.36989 3.27156 7.01921C2.89318 7.42152 2.91259 8.05439 3.3149 8.43276C3.71721 8.81113 4.35008 8.79173 4.72845 8.38942Z" fill="currentColor" style="fill:currentColor;fill-opacity:1;"/>
<path d="M4.72845 12.253C4.35007 11.8507 3.71721 11.8313 3.3149 12.2097C2.91259 12.588 2.89319 13.2209 3.27156 13.6232C4.45425 14.8807 5.77275 15.85 7.16771 16.5213L6.14422 18.2148C5.85856 18.6875 6.01017 19.3023 6.48285 19.5879C6.95552 19.8736 7.57026 19.722 7.85592 19.2493L9.07039 17.2397C9.70568 17.4167 10.3506 17.5357 11.0001 17.596V20C11.0001 20.5523 11.4478 21 12.0001 21C12.5523 21 13.0001 20.5523 13.0001 20V17.596C13.6495 17.5357 14.2944 17.4166 14.9297 17.2397L16.1442 19.2493C16.4299 19.722 17.0446 19.8736 17.5173 19.5879C17.99 19.3023 18.1416 18.6875 17.8559 18.2148L16.8324 16.5212C18.2273 15.8499 19.5458 14.8807 20.7284 13.6232C21.1068 13.2209 21.0874 12.588 20.6851 12.2097C20.2828 11.8313 19.6499 11.8507 19.2716 12.253C17.1181 14.5427 14.5351 15.6423 12 15.6423C9.46488 15.6423 6.88191 14.5427 4.72845 12.253Z" fill="currentColor" style="fill:currentColor;fill-opacity:1;"/>
</svg>
