<svg width="24" height="24" viewBox="0 0 24 24" fill="none" xmlns="http://www.w3.org/2000/svg">
<path fill-rule="evenodd" clip-rule="evenodd" d="M9.50757 3.53561C9.15585 3.03713 8.50784 2.74107 7.95995 3.00942L2.60404 5.63265C1.53487 6.15631 0.990683 7.36755 1.3092 8.51467C1.68555 9.87011 3.11538 10.6389 4.45363 10.2054L4.99943 10.0285V17.0004C4.99943 19.2095 6.79029 21.0004 8.99943 21.0004H14.9994C17.2086 21.0004 18.9994 19.2095 18.9994 17.0004V10.0285L19.5452 10.2053C20.8834 10.6389 22.3133 9.87013 22.6896 8.51469C23.0082 7.36756 22.464 6.1563 21.3948 5.63264L16.0389 3.00941C15.491 2.74107 14.843 3.03713 14.4912 3.53561C13.2475 5.29833 10.7513 5.29834 9.50757 3.53561Z" fill="currentColor" style="fill:currentColor;fill-opacity:1;"/>
</svg>
