<svg width="24" height="24" viewBox="0 0 24 24" fill="none" xmlns="http://www.w3.org/2000/svg">
<path fill-rule="evenodd" clip-rule="evenodd" d="M3 7C3 4.79086 4.79086 3 7 3H17C19.2091 3 21 4.79086 21 7V17C21 19.2091 19.2091 21 17 21H13C12.4477 21 12 20.5523 12 20C12 19.4477 12.4477 19 13 19H17C18.1046 19 19 18.1046 19 17V7C19 5.89543 18.1046 5 17 5H16V7C16 8.65685 14.6569 10 13 10H11C9.34315 10 8 8.65685 8 7V5H7C5.89543 5 5 5.89543 5 7V9C5 9.55228 4.55228 10 4 10C3.44772 10 3 9.55228 3 9V7ZM3 14C3 13.4477 3.44772 13 4 13H8C8.55228 13 9 13.4477 9 14C9 14.5523 8.55228 15 8 15H4C3.44772 15 3 14.5523 3 14ZM1 17C1 16.4477 1.44772 16 2 16H6C6.55228 16 7 16.4477 7 17C7 17.5523 6.55228 18 6 18H2C1.44772 18 1 17.5523 1 17ZM3 20C3 19.4477 3.44772 19 4 19H8C8.55228 19 9 19.4477 9 20C9 20.5523 8.55228 21 8 21H4C3.44772 21 3 20.5523 3 20Z" fill="currentColor" style="fill:currentColor;fill-opacity:1;"/>
</svg>
