<svg width="24" height="24" viewBox="0 0 24 24" fill="none" xmlns="http://www.w3.org/2000/svg">
<path d="M12 2H8C5.79086 2 4 3.79086 4 6V9.34141C4.62556 9.12031 5.29873 9 6 9C9.31371 9 12 11.6863 12 15V18C12 19.5367 11.4223 20.9385 10.4722 22H16C18.2091 22 20 20.2091 20 18V10H15C13.3431 10 12 8.65685 12 7V2Z" fill="currentColor" style="fill:currentColor;fill-opacity:1;"/>
<path d="M19.4142 8L14 2.58579V7C14 7.55228 14.4477 8 15 8H19.4142Z" fill="currentColor" style="fill:currentColor;fill-opacity:1;"/>
<path d="M4 15C4 13.8954 4.89543 13 6 13C7.10457 13 8 13.8954 8 15C8 15.5523 8.44772 16 9 16C9.55228 16 10 15.5523 10 15C10 12.7909 8.20914 11 6 11C3.79086 11 2 12.7909 2 15C2 15.5523 2.44772 16 3 16C3.55228 16 4 15.5523 4 15Z" fill="currentColor" style="fill:currentColor;fill-opacity:1;"/>
<path d="M7 16C7 15.4477 6.55228 15 6 15C5.44772 15 5 15.4477 5 16V17C5 17.5523 5.44772 18 6 18C6.55228 18 7 17.5523 7 17V16Z" fill="currentColor" style="fill:currentColor;fill-opacity:1;"/>
<path d="M4 18C4 17.4477 3.55228 17 3 17C2.44772 17 2 17.4477 2 18C2 20.2091 3.79086 22 6 22C8.20914 22 10 20.2091 10 18C10 17.4477 9.55228 17 9 17C8.44772 17 8 17.4477 8 18C8 19.1046 7.10457 20 6 20C4.89543 20 4 19.1046 4 18Z" fill="currentColor" style="fill:currentColor;fill-opacity:1;"/>
</svg>
