<svg width="24" height="24" viewBox="0 0 24 24" fill="none" xmlns="http://www.w3.org/2000/svg">
<path fill-rule="evenodd" clip-rule="evenodd" d="M12 22C17.5228 22 22 17.5228 22 12C22 6.47715 17.5228 2 12 2C6.47715 2 2 6.47715 2 12C2 17.5228 6.47715 22 12 22ZM9 11.75C8.44771 11.75 8 12.1977 8 12.75C8 13.3023 8.44771 13.75 9 13.75H15C15.5523 13.75 16 13.3023 16 12.75C16 12.1977 15.5523 11.75 15 11.75H9ZM6.5 9.25C6.5 8.69771 6.94772 8.25 7.5 8.25H16.5C17.0523 8.25 17.5 8.69771 17.5 9.25C17.5 9.80229 17.0523 10.25 16.5 10.25H7.5C6.94772 10.25 6.5 9.80229 6.5 9.25ZM10.5 15.25C9.94771 15.25 9.5 15.6977 9.5 16.25C9.5 16.8023 9.94771 17.25 10.5 17.25H13.5C14.0523 17.25 14.5 16.8023 14.5 16.25C14.5 15.6977 14.0523 15.25 13.5 15.25H10.5Z" fill="currentColor" style="fill:currentColor;fill-opacity:1;"/>
</svg>
