<svg width="24" height="24" viewBox="0 0 24 24" fill="none" xmlns="http://www.w3.org/2000/svg">
<path fill-rule="evenodd" clip-rule="evenodd" d="M11.9989 4C10.8986 4 9.86029 4.25315 8.93642 4.70346C8.43997 4.94544 7.84135 4.73915 7.59937 4.2427C7.35739 3.74625 7.56368 3.14763 8.06013 2.90565C9.25099 2.32521 10.5884 2 11.9989 2C16.9695 2 20.9989 6.02944 20.9989 11C20.9989 13.1309 20.8028 15.217 20.4273 17.2407C20.3265 17.7837 19.8046 18.1423 19.2616 18.0415C18.7186 17.9407 18.3601 17.4189 18.4608 16.8758C18.8141 14.9718 18.9989 13.0079 18.9989 11C18.9989 7.13401 15.8649 4 11.9989 4ZM6.08189 5.52417C6.53036 5.84649 6.63263 6.47134 6.31031 6.91982C5.48483 8.06839 4.99895 9.47597 4.99895 11C4.99895 12.4666 4.82334 13.8935 4.49154 15.2604C4.36126 15.7971 3.82056 16.1266 3.28387 15.9963C2.74717 15.866 2.4177 15.3253 2.54798 14.7886C2.84257 13.575 2.99895 12.3065 2.99895 11C2.99895 9.04341 3.62446 7.22996 4.68624 5.7526C5.00856 5.30412 5.63342 5.20185 6.08189 5.52417ZM11.9989 8C10.3421 8 8.99895 9.34315 8.99895 11C8.99895 12.2482 8.89491 13.4728 8.69481 14.6655C8.60343 15.2101 8.08781 15.5776 7.54314 15.4862C6.99847 15.3948 6.631 14.8792 6.72238 14.3345C6.9042 13.2508 6.99895 12.1368 6.99895 11C6.99895 8.23858 9.23752 6 11.9989 6C14.7604 6 16.9989 8.23858 16.9989 11C16.9989 11.6374 16.9791 12.2703 16.9398 12.8981C16.9054 13.4493 16.4307 13.8682 15.8794 13.8338C15.3282 13.7994 14.9093 13.3246 14.9437 12.7734C14.9804 12.1871 14.9989 11.5958 14.9989 11C14.9989 9.34315 13.6558 8 11.9989 8ZM11.9994 10C12.5517 10 12.9994 10.4477 12.9994 11C12.9994 13.8691 12.5343 16.6315 11.6746 19.2149C11.4534 19.8796 11.2062 20.5323 10.9341 21.1718C10.7178 21.68 10.1306 21.9167 9.62237 21.7004C9.11418 21.4842 8.8775 20.8969 9.09374 20.3887C9.3448 19.7987 9.57291 19.1965 9.77693 18.5834C10.5697 16.2011 10.9994 13.6517 10.9994 11C10.9994 10.4477 11.4471 10 11.9994 10ZM15.7046 15.2679C16.2479 15.3673 16.6077 15.8882 16.5083 16.4315C16.371 17.1823 16.2057 17.9233 16.0136 18.6535C15.8019 19.4583 15.5576 20.2499 15.2821 21.0268C15.0976 21.5473 14.526 21.8197 14.0055 21.6351C13.4849 21.4506 13.2125 20.879 13.3971 20.3585C13.654 19.6338 13.8819 18.8954 14.0794 18.1446C14.2587 17.4635 14.4128 16.7721 14.541 16.0716C14.6403 15.5284 15.1613 15.1685 15.7046 15.2679ZM7.22722 16.7491C7.75071 16.9251 8.03239 17.4921 7.85638 18.0156C7.69512 18.4952 7.5178 18.9674 7.32505 19.4316C7.11324 19.9416 6.52806 20.1834 6.018 19.9716C5.50795 19.7598 5.26617 19.1746 5.47798 18.6645C5.65309 18.2428 5.81418 17.8139 5.96066 17.3782C6.13668 16.8547 6.70373 16.573 7.22722 16.7491Z" fill="currentColor" style="fill:currentColor;fill-opacity:1;"/>
</svg>
