<svg width="24" height="24" viewBox="0 0 24 24" fill="none" xmlns="http://www.w3.org/2000/svg">
<path fill-rule="evenodd" clip-rule="evenodd" d="M2 7C2 4.79086 3.79086 3 6 3H8.92963C9.93269 3 10.8694 3.5013 11.4258 4.3359L12.2383 5.5547C12.4238 5.8329 12.736 6 13.0704 6H18C20.2091 6 22 7.79086 22 10V16C22 18.2091 20.2091 20 18 20H9.82917C10.1839 18.9942 9.98621 17.8371 9.23618 17C10.2916 15.8221 10.2533 14.0106 9.12132 12.8787C7.98937 11.7467 6.17791 11.7084 5 12.7638C4.16288 12.0138 3.00578 11.8161 2 12.1708V7Z" fill="currentColor" style="fill:currentColor;fill-opacity:1;"/>
<path fill-rule="evenodd" clip-rule="evenodd" d="M7.70711 14.2929C8.09763 14.6834 8.09763 15.3166 7.70711 15.7071L6.41421 17L7.70711 18.2929C8.09763 18.6834 8.09763 19.3166 7.70711 19.7071C7.31658 20.0976 6.68342 20.0976 6.29289 19.7071L5 18.4142L3.70711 19.7071C3.31658 20.0976 2.68342 20.0976 2.29289 19.7071C1.90237 19.3166 1.90237 18.6834 2.29289 18.2929L3.58579 17L2.29289 15.7071C1.90237 15.3166 1.90237 14.6834 2.29289 14.2929C2.68342 13.9024 3.31658 13.9024 3.70711 14.2929L5 15.5858L6.29289 14.2929C6.68342 13.9024 7.31658 13.9024 7.70711 14.2929Z" fill="currentColor" style="fill:currentColor;fill-opacity:1;"/>
</svg>
