<svg width="24" height="24" viewBox="0 0 24 24" fill="none" xmlns="http://www.w3.org/2000/svg">
<path d="M6 3C3.79086 3 2 4.79086 2 7V14C2 12.3431 3.34315 11 5 11C6.65685 11 8 12.3431 8 14C9.65685 14 11 15.3431 11 17C11 18.6569 9.65685 20 8 20H18C20.2091 20 22 18.2091 22 16V10C22 7.79086 20.2091 6 18 6H13.0704C12.736 6 12.4238 5.8329 12.2383 5.5547L11.4258 4.3359C10.8694 3.5013 9.93269 3 8.92963 3H6Z" fill="currentColor" style="fill:currentColor;fill-opacity:1;"/>
<path d="M6 14C6 13.4477 5.55228 13 5 13C4.44772 13 4 13.4477 4 14V16H2C1.44772 16 1 16.4477 1 17C1 17.5523 1.44772 18 2 18H4V20C4 20.5523 4.44772 21 5 21C5.55228 21 6 20.5523 6 20V18H8C8.55228 18 9 17.5523 9 17C9 16.4477 8.55228 16 8 16H6V14Z" fill="currentColor" style="fill:currentColor;fill-opacity:1;"/>
</svg>
