<svg width="24" height="24" viewBox="0 0 24 24" fill="none" xmlns="http://www.w3.org/2000/svg">
<path d="M2 7C2 4.79086 3.79086 3 6 3H8.92963C9.93269 3 10.8694 3.5013 11.4258 4.3359L12.2383 5.5547C12.4238 5.8329 12.736 6 13.0704 6H18C20.2091 6 22 7.79086 22 10V16C22 18.2091 20.2091 20 18 20H15V16C15 13.2386 12.7614 11 10 11H4C3.2889 11 2.61246 11.1484 2 11.416V7Z" fill="currentColor" style="fill:currentColor;fill-opacity:1;"/>
<path fill-rule="evenodd" clip-rule="evenodd" d="M5 17C5 16.4477 5.44772 16 6 16H8C8.55228 16 9 16.4477 9 17C9 17.5523 8.55228 18 8 18H6C5.44772 18 5 17.5523 5 17Z" fill="currentColor" style="fill:currentColor;fill-opacity:1;"/>
<path d="M4.5 13C2.567 13 1 14.567 1 16.5V17.5C1 19.433 2.567 21 4.5 21H5C5.55228 21 6 20.5523 6 20C6 19.4477 5.55228 19 5 19H4.5C3.67157 19 3 18.3284 3 17.5V16.5C3 15.6716 3.67157 15 4.5 15H5C5.55228 15 6 14.5523 6 14C6 13.4477 5.55228 13 5 13H4.5Z" fill="currentColor" style="fill:currentColor;fill-opacity:1;"/>
<path d="M9.5 13C11.433 13 13 14.567 13 16.5V17.5C13 19.433 11.433 21 9.5 21H9C8.44772 21 8 20.5523 8 20C8 19.4477 8.44772 19 9 19H9.5C10.3284 19 11 18.3284 11 17.5V16.5C11 15.6716 10.3284 15 9.5 15H9C8.44772 15 8 14.5523 8 14C8 13.4477 8.44772 13 9 13H9.5Z" fill="currentColor" style="fill:currentColor;fill-opacity:1;"/>
</svg>
