<svg width="24" height="24" viewBox="0 0 24 24" fill="none" xmlns="http://www.w3.org/2000/svg">
<path d="M16.2491 3C16.6279 3 16.9742 3.214 17.1436 3.55279L18.4112 6.08798L20.9464 7.35557C21.2851 7.52496 21.4991 7.87123 21.4991 8.25C21.4991 8.62877 21.2851 8.97503 20.9464 9.14443L18.4112 10.412L17.1436 12.9472C16.9742 13.286 16.6279 13.5 16.2491 13.5C15.8704 13.5 15.5241 13.286 15.3547 12.9472L14.0871 10.412L11.5519 9.14443C11.2131 8.97503 10.9991 8.62877 10.9991 8.25C10.9991 7.87123 11.2131 7.52496 11.5519 7.35557L14.0871 6.08798L15.3547 3.55279C15.5241 3.214 15.8704 3 16.2491 3Z" fill="currentColor" style="fill:currentColor;fill-opacity:1;"/>
<path d="M7.25795 8.51748C7.30633 8.61424 7.38479 8.69271 7.48156 8.74109L9.10473 9.55267C9.47325 9.73693 9.47325 10.2628 9.10473 10.4471L7.48156 11.2587C7.38479 11.3071 7.30633 11.3855 7.25795 11.4823L6.44637 13.1055C6.2621 13.474 5.7362 13.474 5.55194 13.1055L4.74036 11.4823C4.69197 11.3855 4.61351 11.3071 4.51675 11.2587L2.89358 10.4471C2.52506 10.2628 2.52506 9.73693 2.89358 9.55267L4.51675 8.74109C4.61351 8.69271 4.69197 8.61424 4.74036 8.51748L5.55194 6.89431C5.7362 6.52579 6.2621 6.52579 6.44637 6.89431L7.25795 8.51748Z" fill="currentColor" style="fill:currentColor;fill-opacity:1;"/>
<path d="M9.49915 3C8.67072 3 7.99915 3.67157 7.99915 4.5C7.99915 5.32843 8.67072 6 9.49915 6C10.3276 6 10.9991 5.32843 10.9991 4.5C10.9991 3.67157 10.3276 3 9.49915 3Z" fill="currentColor" style="fill:currentColor;fill-opacity:1;"/>
<path d="M3.99915 15C3.44686 15 2.99915 15.4477 2.99915 16V16.0863C2.99915 16.2976 3.06431 16.505 3.19677 16.6697C4.61199 18.4283 6.81916 19.3471 8.99915 19.7435V20C8.99915 20.5523 9.44686 21 9.99915 21H13.9991C14.5514 21 14.9991 20.5523 14.9991 20V19.7435C17.154 19.3517 19.4276 18.4369 20.8113 16.6651C20.9378 16.5032 20.9991 16.3012 20.9991 16.0958V16C20.9991 15.4477 20.5514 15 19.9991 15H3.99915Z" fill="currentColor" style="fill:currentColor;fill-opacity:1;"/>
</svg>
