<svg width="24" height="24" viewBox="0 0 24 24" fill="none" xmlns="http://www.w3.org/2000/svg">
<path d="M6 3C4.34315 3 3 4.34315 3 6C3 7.30622 3.83481 8.41746 5 8.82929V9C5 11.2091 6.79086 13 9 13C10.1046 13 11 13.8954 11 15V15.1707C9.83481 15.5825 9 16.6938 9 18C9 19.6569 10.3431 21 12 21C13.6569 21 15 19.6569 15 18C15 16.6938 14.1652 15.5825 13 15.1707V15C13 13.8954 13.8954 13 15 13C17.2091 13 19 11.2091 19 9V8.82929C20.1652 8.41746 21 7.30622 21 6C21 4.34315 19.6569 3 18 3C16.3431 3 15 4.34315 15 6C15 7.30622 15.8348 8.41746 17 8.82929V9C17 10.1046 16.1046 11 15 11C13.8053 11 12.7329 11.5238 12 12.3542C11.2671 11.5238 10.1947 11 9 11C7.89543 11 7 10.1046 7 9V8.82929C8.16519 8.41746 9 7.30622 9 6C9 4.34315 7.65685 3 6 3Z" fill="currentColor"/>
</svg>
