<svg width="24" height="24" viewBox="0 0 24 24" fill="none" xmlns="http://www.w3.org/2000/svg">
<path d="M8.25 5.75C8.25 3.67893 9.92893 2 12 2C14.0711 2 15.75 3.67893 15.75 5.75C15.75 7.82107 14.0711 9.5 12 9.5C9.92893 9.5 8.25 7.82107 8.25 5.75Z" fill="currentColor" style="fill:currentColor;fill-opacity:1;"/>
<path d="M14.5 12C14.5 9.92893 16.1789 8.25 18.25 8.25C20.3211 8.25 22 9.92893 22 12C22 14.0711 20.3211 15.75 18.25 15.75C16.1789 15.75 14.5 14.0711 14.5 12Z" fill="currentColor" style="fill:currentColor;fill-opacity:1;"/>
<path d="M8.25 18.25C8.25 16.1789 9.92893 14.5 12 14.5C14.0711 14.5 15.75 16.1789 15.75 18.25C15.75 20.3211 14.0711 22 12 22C9.92893 22 8.25 20.3211 8.25 18.25Z" fill="currentColor" style="fill:currentColor;fill-opacity:1;"/>
<path fill-rule="evenodd" clip-rule="evenodd" d="M5.75 8.25C7.82107 8.25 9.5 9.92893 9.5 12C9.5 14.0711 7.82107 15.75 5.75 15.75C3.67893 15.75 2 14.0711 2 12C2 9.92893 3.67893 8.25 5.75 8.25ZM7.5 12C7.5 11.0335 6.7165 10.25 5.75 10.25C4.7835 10.25 4 11.0335 4 12C4 12.9665 4.7835 13.75 5.75 13.75C6.7165 13.75 7.5 12.9665 7.5 12Z" fill="currentColor" style="fill:currentColor;fill-opacity:1;"/>
</svg>
