<svg width="24" height="24" viewBox="0 0 24 24" fill="none" xmlns="http://www.w3.org/2000/svg">
<path fill-rule="evenodd" clip-rule="evenodd" d="M7.16248 21.6251L7.70748 21.237C8.27611 20.832 9.0155 20.7523 9.6578 21.0268L11.2122 21.6909C11.7153 21.9059 12.2847 21.9059 12.7878 21.6909L14.3422 21.0268C14.9845 20.7523 15.7239 20.832 16.2925 21.237L16.8375 21.6251C18.1613 22.5678 20 21.6243 20 20.0025V9.97594C20 5.57095 16.4183 2 12 2C7.58172 2 4 5.57095 4 9.97594V20.0025C4 21.6244 5.83874 22.5678 7.16248 21.6251ZM11 10.5C11 11.3284 10.3284 12 9.5 12C8.67157 12 8 11.3284 8 10.5C8 9.67157 8.67157 9 9.5 9C10.3284 9 11 9.67157 11 10.5ZM14.5 12C15.3284 12 16 11.3284 16 10.5C16 9.67157 15.3284 9 14.5 9C13.6716 9 13 9.67157 13 10.5C13 11.3284 13.6716 12 14.5 12Z" fill="currentColor" style="fill:currentColor;fill-opacity:1;"/>
</svg>
