<svg width="24" height="24" viewBox="0 0 24 24" fill="none" xmlns="http://www.w3.org/2000/svg">
<path d="M3.5 5.5C3.5 3.567 5.067 2 7 2C8.933 2 10.5 3.567 10.5 5.5C10.5 7.08551 9.44574 8.42479 8 8.85506V9.5C8 10.3284 8.67157 11 9.5 11C10.4793 11 11.3647 11.4022 12 12.0505C12.6353 11.4022 13.5207 11 14.5 11C15.3284 11 16 10.3284 16 9.5V8.85506C14.5543 8.42479 13.5 7.08551 13.5 5.5C13.5 3.567 15.067 2 17 2C18.933 2 20.5 3.567 20.5 5.5C20.5 7.08551 19.4457 8.42479 18 8.85506V9.5C18 11.433 16.433 13 14.5 13C13.6716 13 13 13.6716 13 14.5V15.1449C14.4457 15.5752 15.5 16.9145 15.5 18.5C15.5 20.433 13.933 22 12 22C10.067 22 8.5 20.433 8.5 18.5C8.5 16.9145 9.55426 15.5752 11 15.1449V14.5C11 13.6716 10.3284 13 9.5 13C7.567 13 6 11.433 6 9.5V8.85506C4.55426 8.42479 3.5 7.08551 3.5 5.5Z" fill="currentColor" style="fill:currentColor;fill-opacity:1;"/>
</svg>
