<svg width="24" height="24" viewBox="0 0 24 24" fill="none" xmlns="http://www.w3.org/2000/svg">
<path d="M16.5 22C16.5 22.3138 16.3531 22.6099 16.1025 22.7988C15.8521 22.9877 15.5272 23.048 15.2256 22.9619L12 22.04L8.77441 22.9619C8.47281 23.048 8.14787 22.9877 7.89746 22.7988C7.64695 22.6099 7.5 22.3138 7.5 22V18.6182C8.83945 19.34 10.3718 19.75 12 19.75C13.6282 19.75 15.1605 19.34 16.5 18.6182V22Z" fill="currentColor"/>
<path fill-rule="evenodd" clip-rule="evenodd" d="M12 2C16.5563 2 20.25 5.69365 20.25 10.25C20.25 14.8063 16.5563 18.5 12 18.5C7.44365 18.5 3.75 14.8063 3.75 10.25C3.75 5.69365 7.44365 2 12 2ZM11.8174 6.25C11.4441 6.25 11.0777 6.35466 10.7607 6.55176L9.61035 7.2666C9.4007 7.39706 9.27344 7.62708 9.27344 7.87402C9.27362 8.43209 9.88514 8.77452 10.3613 8.4834L11.0537 8.05957C11.0594 8.05614 11.0666 8.05469 11.0732 8.05469C11.0931 8.05492 11.1091 8.07097 11.1094 8.09082V13.2852C11.1094 13.818 11.5414 14.25 12.0742 14.25C12.6071 14.25 13.0391 13.818 13.0391 13.2852V7.25C13.0391 6.69772 12.5913 6.25 12.0391 6.25H11.8174Z" fill="currentColor"/>
</svg>
