<svg width="24" height="24" viewBox="0 0 24 24" fill="none" xmlns="http://www.w3.org/2000/svg">
<path d="M7.50195 3C5.29281 3 3.50195 4.79086 3.50195 7C3.50195 9.20914 5.29281 11 7.50195 11C9.71109 11 11.502 9.20914 11.502 7C11.502 4.79086 9.71109 3 7.50195 3Z" fill="currentColor" style="fill:currentColor;fill-opacity:1;"/>
<path d="M16.502 3C14.2928 3 12.502 4.79086 12.502 7C12.502 9.20914 14.2928 11 16.502 11C18.7111 11 20.502 9.20914 20.502 7C20.502 4.79086 18.7111 3 16.502 3Z" fill="currentColor" style="fill:currentColor;fill-opacity:1;"/>
<path d="M13.7202 16.486C12.5003 13.5647 10.0478 12 7.50225 12C4.9567 12 2.50425 13.5647 1.28432 16.486C0.849331 17.5276 1.02642 18.5582 1.55257 19.3579C1.62773 19.4721 1.71002 19.5817 1.79867 19.6858C2.48968 20.4978 3.56771 21 4.72117 21H10.2833C11.4368 21 12.5148 20.4978 13.2058 19.6858C13.915 18.8525 14.2173 17.6764 13.7202 16.486Z" fill="currentColor" style="fill:currentColor;fill-opacity:1;"/>
<path d="M15.5657 15.7153C15.078 14.5475 14.4184 13.536 13.6328 12.7023C14.53 12.2382 15.5091 12 16.5024 12C19.0479 12 21.5004 13.5647 22.7203 16.486C23.2174 17.6764 22.9151 18.8525 22.2059 19.6858C21.5149 20.4978 20.4369 21 19.2834 21H14.7136L14.729 20.982C15.8643 19.6479 16.388 17.6842 15.5657 15.7153Z" fill="currentColor" style="fill:currentColor;fill-opacity:1;"/>
</svg>
