<svg width="24" height="24" viewBox="0 0 24 24" fill="none" xmlns="http://www.w3.org/2000/svg">
<path d="M8.25053 19.2734C7.27741 20.2466 5.69968 20.2466 4.72656 19.2734C3.75345 18.3003 3.75345 16.7226 4.72656 15.7495M12.7427 9.18393L16.8313 3.90287C17.6898 2.79402 19.3265 2.69028 20.3181 3.68187C21.3097 4.67346 21.206 6.31022 20.0971 7.16869L14.8161 11.2573M12.7427 9.18393C13.1851 9.38752 13.5995 9.67154 13.964 10.036C14.3285 10.4005 14.6125 10.8149 14.8161 11.2573M12.7427 9.18393C11.1807 8.46501 9.27061 8.74903 7.98364 10.036L6.69497 11.3247C6.2437 11.7759 5.63165 12.0295 4.99345 12.0295H4.40958C4.14524 12.0295 3.89171 12.1345 3.70479 12.3214V12.3214C3.31555 12.7106 3.31555 13.3417 3.70479 13.731L10.269 20.2952C10.6583 20.6845 11.2894 20.6845 11.6786 20.2952V20.2952C11.8655 20.1083 11.9705 19.8548 11.9705 19.5904V19.0065C11.9705 18.3684 12.2241 17.7563 12.6753 17.305L13.964 16.0164C15.251 14.7294 15.535 12.8193 14.8161 11.2573" stroke="currentColor" stroke-width="2" stroke-linejoin="round"/>
</svg>
