<svg width="24" height="24" viewBox="0 0 24 24" fill="none" xmlns="http://www.w3.org/2000/svg">
<path d="M8.5 3C7.11929 3 6 4.11929 6 5.5V14.5C6 15.8807 7.11929 17 8.5 17C9.88071 17 11 15.8807 11 14.5V5.5C11 4.11929 9.88071 3 8.5 3Z" fill="currentColor" style="fill:currentColor;fill-opacity:1;"/>
<path d="M15.5 7C14.1193 7 13 8.11929 13 9.5V14.5C13 15.8807 14.1193 17 15.5 17C16.8807 17 18 15.8807 18 14.5V9.5C18 8.11929 16.8807 7 15.5 7Z" fill="currentColor" style="fill:currentColor;fill-opacity:1;"/>
<path d="M4 19C3.44772 19 3 19.4477 3 20C3 20.5523 3.44772 21 4 21H20C20.5523 21 21 20.5523 21 20C21 19.4477 20.5523 19 20 19H4Z" fill="currentColor" style="fill:currentColor;fill-opacity:1;"/>
</svg>
