<svg width="24" height="24" viewBox="0 0 24 24" fill="none" xmlns="http://www.w3.org/2000/svg">
<path d="M9.49805 3.5C7.56505 3.5 5.99805 5.067 5.99805 7C5.99805 8.933 7.56505 10.5 9.49805 10.5C11.431 10.5 12.998 8.933 12.998 7C12.998 5.067 11.431 3.5 9.49805 3.5Z" fill="currentColor" style="fill:currentColor;fill-opacity:1;"/>
<path d="M20.6597 12.5751C20.0826 11.4592 19.4667 10.5661 18.7978 9.95326C18.122 9.33399 17.3165 8.93734 16.4164 9.01191C14.4283 9.17662 13.1101 10.7982 12.2314 11.9498C12.1043 12.1163 11.986 12.2741 11.874 12.4235C11.5514 12.8537 11.2816 13.2135 11.0098 13.5056C10.6716 13.8691 10.517 13.9134 10.4983 13.9187C10.3679 13.9187 10.1827 13.8742 9.89657 13.7265C9.63617 13.5921 9.37038 13.4159 9.03943 13.1966L8.91062 13.1113C8.20273 12.6433 7.1805 11.9715 5.93709 11.9715C5.08383 11.9715 4.39076 12.4083 3.87667 12.9065C3.36002 13.4071 2.93205 14.0555 2.58532 14.6951L2.50644 14.8402C2.06187 15.6562 1.65163 16.4093 1.77093 17.3701C1.82263 17.7866 1.99054 18.1925 2.18827 18.5246C2.386 18.8567 2.66289 19.1978 3.00434 19.4417C3.44908 19.7594 3.9275 19.8889 4.42591 19.9472C4.88298 20.0006 5.433 20.0005 6.05486 20.0005L15.6759 20.0005C16.7156 20.0005 17.575 20.0005 18.2688 19.9262C18.9939 19.8485 19.6501 19.6808 20.2338 19.2689C21.0722 18.6774 21.75 17.5638 21.8903 16.5474C21.9842 15.867 21.8689 15.2581 21.6369 14.6307C21.4219 14.0489 21.0831 13.3937 20.686 12.626L20.6597 12.5751Z" fill="currentColor" style="fill:currentColor;fill-opacity:1;"/>
</svg>
