<svg width="24" height="24" viewBox="0 0 24 24" fill="none" xmlns="http://www.w3.org/2000/svg">
<path d="M10 7C9.44772 7 9 7.44772 9 8C9 8.55228 9.44772 9 10 9H14C14.5523 9 15 8.55228 15 8C15 7.44772 14.5523 7 14 7H10Z" fill="currentColor" style="fill:currentColor;fill-opacity:1;"/>
<path fill-rule="evenodd" clip-rule="evenodd" d="M4 10.3859V6C4 3.79086 5.79086 2 8 2H16C18.2091 2 20 3.79086 20 6V10.3859C21.0641 10.3842 22 11.2455 22 12.3874V17C22 19.2091 20.2091 21 18 21H6C3.79086 21 2 19.2091 2 17V12.3874C2 11.2455 2.9359 10.3842 4 10.3859ZM6 6C6 4.89543 6.89543 4 8 4H16C17.1046 4 18 4.89543 18 6V10.9459L12.6325 12.7351C12.2219 12.8719 11.7781 12.8719 11.3675 12.7351L6 10.9459V6Z" fill="currentColor" style="fill:currentColor;fill-opacity:1;"/>
</svg>
