<svg width="24" height="24" viewBox="0 0 24 24" fill="none" xmlns="http://www.w3.org/2000/svg">
<path d="M13 3C13 2.44772 12.5523 2 12 2C11.4477 2 11 2.44772 11 3V4H10.7082C10.0872 4 9.47477 4.14458 8.91935 4.42229L8.18622 4.78885C7.90851 4.92771 7.60229 5 7.2918 5H3C2.44772 5 2 5.44772 2 6C2 6.55228 2.44772 7 3 7H4.11257L2.33197 12.3418C2.033 13.2387 2.05809 14.2389 2.42506 15.0809C2.80204 15.9458 3.5614 16.6686 4.66916 16.8241C5.2236 16.902 5.7764 16.902 6.33084 16.8241C7.4386 16.6686 8.19796 15.9458 8.57494 15.0809C8.94191 14.2389 8.967 13.2387 8.66802 12.3418L6.88743 7H7.2918C7.91278 7 8.52523 6.85542 9.08065 6.57771L9.81378 6.21115C10.0915 6.07229 10.3977 6 10.7082 6H11V19H7C6.44772 19 6 19.4477 6 20C6 20.5523 6.44772 21 7 21H17C17.5523 21 18 20.5523 18 20C18 19.4477 17.5523 19 17 19H13V6H13.2918C13.6023 6 13.9085 6.07229 14.1862 6.21115L14.9193 6.57771C15.4748 6.85542 16.0872 7 16.7082 7H17.1126L15.332 12.3418C15.033 13.2387 15.0581 14.2389 15.4251 15.0809C15.802 15.9458 16.5614 16.6686 17.6692 16.8241C18.2236 16.902 18.7764 16.902 19.3308 16.8241C20.4386 16.6686 21.198 15.9458 21.5749 15.0809C21.9419 14.2389 21.967 13.2387 21.668 12.3418L19.8874 7H21C21.5523 7 22 6.55228 22 6C22 5.44772 21.5523 5 21 5H16.7082C16.3977 5 16.0915 4.92771 15.8138 4.78885L15.0807 4.42229C14.5252 4.14458 13.9128 4 13.2918 4H13V3Z" fill="currentColor" style="fill:currentColor;fill-opacity:1;"/>
</svg>
