<svg width="24" height="24" viewBox="0 0 24 24" fill="none" xmlns="http://www.w3.org/2000/svg">
<path d="M20.7569 13.88L12.6831 16.8159C12.2416 16.9765 11.7576 16.9765 11.3161 16.8159L3.2423 13.88C2.10327 13.4658 1.70334 12.2751 2.04252 11.3156L11.9996 14.9363L21.9567 11.3156C22.2959 12.2751 21.896 13.4658 20.7569 13.88Z" fill="currentColor" style="fill:currentColor;fill-opacity:1;"/>
<path d="M20.7569 17.88L12.6831 20.8159C12.2416 20.9765 11.7576 20.9765 11.3161 20.8159L3.2423 17.88C2.10327 17.4658 1.70334 16.2751 2.04252 15.3156L11.9996 18.9363L21.9567 15.3156C22.2959 16.2751 21.896 17.4658 20.7569 17.88Z" fill="currentColor" style="fill:currentColor;fill-opacity:1;"/>
<path d="M12.6831 3.18487C12.2416 3.02431 11.7576 3.02432 11.3161 3.18487L3.24229 6.1208C1.48693 6.75912 1.48695 9.24167 3.2423 9.87998L11.3161 12.8159C11.7576 12.9765 12.2416 12.9765 12.6831 12.8159L20.7569 9.87998C22.5123 9.24166 22.5123 6.75911 20.7569 6.1208L12.6831 3.18487Z" fill="currentColor" style="fill:currentColor;fill-opacity:1;"/>
</svg>
