<svg width="24" height="24" viewBox="0 0 24 24" fill="none" xmlns="http://www.w3.org/2000/svg">
<path d="M12.0004 5C9.26844 5 6.90022 6.56482 5.74641 8.85163C5.49762 9.34471 4.89623 9.54275 4.40315 9.29397C3.91007 9.04518 3.71203 8.44379 3.96081 7.95071C5.44146 5.01613 8.48458 3 12.0004 3C15.5162 3 18.5593 5.01613 20.0399 7.95072C20.2887 8.4438 20.0907 9.0452 19.5976 9.29398C19.1045 9.54276 18.5031 9.34472 18.2543 8.85164C17.1005 6.56482 14.7323 5 12.0004 5Z" fill="currentColor" style="fill:currentColor;fill-opacity:1;"/>
<path d="M12.0004 8C10.5415 8 9.26386 8.78042 8.56393 9.95134C8.28056 10.4254 7.66655 10.58 7.19251 10.2966C6.71846 10.0132 6.56388 9.39922 6.84725 8.92517C7.89325 7.17532 9.80905 6 12.0004 6C14.1917 6 16.1075 7.17533 17.1535 8.92519C17.4369 9.39923 17.2823 10.0132 16.8082 10.2966C16.3342 10.58 15.7202 10.4254 15.4368 9.95135C14.7369 8.78042 13.4593 8 12.0004 8Z" fill="currentColor" style="fill:currentColor;fill-opacity:1;"/>
<path d="M3.75651 11.5279C2.06983 12.1418 1.20017 14.0068 1.81407 15.6935L2.41261 17.338C3.16818 19.4139 5.46355 20.4842 7.53946 19.7287C9.61537 18.9731 10.6857 16.6777 9.93015 14.6018L9.84464 14.3669C9.54213 13.5357 8.67545 13.073 7.83448 13.2538C7.1454 11.7105 5.36942 10.9409 3.75651 11.5279Z" fill="currentColor" style="fill:currentColor;fill-opacity:1;"/>
<path d="M20.2443 11.5279C21.931 12.1418 22.8007 14.0068 22.1868 15.6935L21.5882 17.338C20.8327 19.4139 18.5373 20.4842 16.4614 19.7287C14.3855 18.9731 13.3151 16.6777 14.0707 14.6018L14.1562 14.3669C14.4587 13.5357 15.3254 13.073 16.1664 13.2538C16.8554 11.7105 18.6314 10.9409 20.2443 11.5279Z" fill="currentColor" style="fill:currentColor;fill-opacity:1;"/>
</svg>
