<svg width="25" height="24" viewBox="0 0 25 24" fill="none" xmlns="http://www.w3.org/2000/svg">
<path d="M5.50518 5.15769C5.40005 4.94744 5.10001 4.94744 4.99488 5.15769L4.34168 6.4641C4.31407 6.51931 4.26931 6.56407 4.2141 6.59168L2.90769 7.24488C2.69744 7.35001 2.69744 7.65005 2.90769 7.75518L4.2141 8.40839C4.26931 8.43599 4.31407 8.48075 4.34168 8.53596L4.99488 9.84237C5.10001 10.0526 5.40005 10.0526 5.50518 9.84237L6.15839 8.53596C6.18599 8.48075 6.23075 8.43599 6.28596 8.40839L7.59237 7.75518C7.80262 7.65005 7.80262 7.35001 7.59237 7.24488L6.28596 6.59168C6.23075 6.56407 6.18599 6.51931 6.15839 6.4641L5.50518 5.15769Z" fill="currentColor" style="fill:currentColor;fill-opacity:1;"/>
<path d="M10.0145 2.16345C9.9055 1.94552 9.5945 1.94552 9.48553 2.16345L9.00558 3.12335C8.97697 3.18057 8.93057 3.22697 8.87335 3.25558L7.91345 3.73553C7.69552 3.8445 7.69552 4.1555 7.91345 4.26447L8.87335 4.74442C8.93057 4.77303 8.97697 4.81943 9.00558 4.87665L9.48553 5.83655C9.5945 6.05448 9.9055 6.05448 10.0145 5.83655L10.4944 4.87665C10.523 4.81943 10.5694 4.77303 10.6267 4.74442L11.5865 4.26447C11.8045 4.1555 11.8045 3.8445 11.5865 3.73553L10.6267 3.25558C10.5694 3.22697 10.523 3.18057 10.4944 3.12335L10.0145 2.16345Z" fill="currentColor" style="fill:currentColor;fill-opacity:1;"/>
<path d="M19.5051 15.1577C19.4 14.9474 19.1 14.9474 18.9949 15.1577L18.3417 16.4641C18.3141 16.5193 18.2693 16.5641 18.2141 16.5917L16.9077 17.2449C16.6974 17.35 16.6974 17.65 16.9077 17.7551L18.2141 18.4083C18.2693 18.4359 18.3141 18.4807 18.3417 18.5359L18.9949 19.8423C19.1 20.0526 19.4 20.0526 19.5051 19.8423L20.1583 18.5359C20.1859 18.4807 20.2307 18.4359 20.2859 18.4083L21.5923 17.7551C21.8026 17.65 21.8026 17.35 21.5923 17.2449L20.2859 16.5917C20.2307 16.5641 20.1859 16.5193 20.1583 16.4641L19.5051 15.1577Z" fill="currentColor" style="fill:currentColor;fill-opacity:1;"/>
<path d="M20.4571 4.29295C18.962 2.79786 16.538 2.79786 15.0429 4.29295L4.92157 14.4143C4.17143 15.1644 3.75 16.1818 3.75 17.2427V20.0001C3.75 20.5523 4.19772 21.0001 4.75 21.0001H7.50736C8.56822 21.0001 9.58564 20.5786 10.3358 19.8285L20.4571 9.70717C21.9522 8.21207 21.9522 5.78805 20.4571 4.29295Z" fill="currentColor" style="fill:currentColor;fill-opacity:1;"/>
</svg>
