<svg width="24" height="24" viewBox="0 0 24 24" fill="none" xmlns="http://www.w3.org/2000/svg">
<path d="M5.49958 13C5.07473 14.6994 3.92787 16.7598 2.6725 18.261C2.31821 18.6847 2.31616 19.3166 2.70669 19.7071L4.29247 21.2929C4.683 21.6834 5.3149 21.6814 5.73856 21.3271C7.23975 20.0717 9.30016 18.9249 10.9996 18.5M6.70775 9.91679L14.9117 3.60604C16.1061 2.68729 17.7967 2.79708 18.8622 3.86259L20.137 5.1374C21.2025 6.20292 21.3123 7.89348 20.3935 9.08785L14.0828 17.2918C12.9786 18.7272 10.8641 18.8645 9.5836 17.584L6.41556 14.416C5.13504 13.1355 5.27236 11.0209 6.70775 9.91679Z" stroke="currentColor" stroke-width="2" stroke-linecap="round" stroke-linejoin="round"/>
</svg>
