<svg width="24" height="24" viewBox="0 0 24 24" fill="none" xmlns="http://www.w3.org/2000/svg">
<path d="M6.0268 14.0687V11.1123C6.0268 10.362 5.71175 9.96557 5.11593 9.96557C4.59941 9.96557 4.05075 10.3777 4.05075 11.1414V14.0687H3.01341V11.1123C3.01341 10.362 2.69836 9.96557 2.10252 9.96557C1.586 9.96557 1.03734 10.3777 1.03734 11.1414V14.0687H0V9.09734H1.03734V9.74887L1.1452 9.61812C1.48385 9.20818 1.93536 9 2.48902 9C3.0427 9 3.49493 9.23517 3.77997 9.67994L3.82212 9.74603L3.87571 9.68919C4.31007 9.22594 4.81015 9 5.40527 9C6.4126 9 7.06341 9.69558 7.06341 10.7727V14.0687H6.0261H6.0268Z" fill="currentColor"/>
<path d="M20.5214 14.1763C19.5141 14.1763 18.8633 13.4843 18.8633 12.4128V9.09766H19.9005V12.1606C19.9005 12.8562 20.2414 13.2399 20.8593 13.2399C21.408 13.2399 21.9632 12.8356 21.9632 12.064V9.09766H23.0004V14.0697H21.9632V13.4225L21.8559 13.5482C21.5002 13.9653 21.0507 14.177 20.5214 14.177V14.1763Z" fill="currentColor"/>
<path d="M14.8573 14.1756C14.2157 14.1756 13.6371 14.0008 13.2291 13.6846C12.8019 13.3528 12.5762 12.8896 12.5762 12.3439C12.5762 11.5922 12.9598 11.0444 13.8193 10.567L13.885 10.5307L13.835 10.4746C13.5292 10.13 13.217 9.69733 13.217 9.10476V9.09766H14.3543C14.3772 9.45433 14.598 9.71793 14.8823 10.0213L14.9116 10.0526L14.9509 10.0355C15.6267 9.74065 15.9289 9.53887 15.9696 9.09766H17.032C16.9741 9.83088 16.4433 10.2345 15.611 10.6416L15.5346 10.6792L16.8662 11.9979L16.9077 11.9375C17.0863 11.6746 17.2006 11.3606 17.239 11.0267H18.3643C18.2986 11.5617 18.0592 12.1272 17.6527 12.7084L17.6235 12.7496L18.9615 14.0754H17.4593L16.882 13.5049L16.8398 13.5354C16.2575 13.961 15.5903 14.177 14.8566 14.177V14.1756H14.8573ZM14.4687 11.1886C13.9764 11.4707 13.7664 11.7776 13.7664 12.2153C13.7664 12.7098 14.135 13.2093 14.958 13.2093C15.3888 13.2093 15.7817 13.0907 16.1261 12.8562L16.1868 12.815L14.5094 11.1666L14.4694 11.1894H14.4687V11.1886Z" fill="currentColor"/>
<path d="M9.97328 14.1383C8.57374 14.1383 7.5957 13.0847 7.5957 11.577C7.5957 10.0693 8.59732 9.01562 9.92541 9.01562C11.2535 9.01562 12.0922 9.96841 12.0922 11.4427V11.7667H8.56731L8.57374 11.8328C8.66305 12.7251 9.19885 13.28 9.97256 13.28C10.3855 13.28 10.8513 13.0093 11.0335 12.6697H12.0787C11.6922 13.5522 10.8556 14.139 9.97256 14.139L9.97328 14.1383ZM9.91614 9.86466C9.27459 9.86466 8.80664 10.2597 8.63304 10.9475L8.61446 11.0228H11.0585V10.961C11.0463 10.2945 10.5977 9.86397 9.91614 9.86397V9.86466Z" fill="currentColor"/>
</svg>
