<svg width="24" height="24" viewBox="0 0 24 24" fill="none" xmlns="http://www.w3.org/2000/svg">
<path fill-rule="evenodd" clip-rule="evenodd" d="M6 12C6 8.68628 8.68629 5.99999 12 5.99999C15.3137 5.99999 18 8.68628 18 12V17C18 20.3137 15.3137 23 12 23C8.68629 23 6 20.3137 6 17V12ZM13 11C13 10.4477 12.5523 9.99999 12 9.99999C11.4477 9.99999 11 10.4477 11 11V13C11 13.5523 11.4477 14 12 14C12.5523 14 13 13.5523 13 13V11Z" fill="currentColor" style="fill:currentColor;fill-opacity:1;"/>
<path fill-rule="evenodd" clip-rule="evenodd" d="M8.16795 4.55469C8.4743 5.01421 9.09517 5.13839 9.5547 4.83204L11.4453 3.57164C11.7812 3.3477 12.2188 3.3477 12.5547 3.57164L14.4453 4.83204C14.9048 5.13839 15.5257 5.01421 15.8321 4.55469C16.1384 4.09516 16.0142 3.47429 15.5547 3.16794L13.6641 1.90754C12.6564 1.23574 11.3436 1.23574 10.3359 1.90754L8.4453 3.16794C7.98577 3.47429 7.8616 4.09516 8.16795 4.55469Z" fill="currentColor" style="fill:currentColor;fill-opacity:1;"/>
</svg>
