<svg width="24" height="24" viewBox="0 0 24 24" fill="none" xmlns="http://www.w3.org/2000/svg">
<path fill-rule="evenodd" clip-rule="evenodd" d="M3.79289 14.7929C4.18342 14.4024 4.81658 14.4024 5.20711 14.7929L5.70711 15.2929C6.09763 15.6834 6.09763 16.3166 5.70711 16.7071C5.31658 17.0976 4.68342 17.0976 4.29289 16.7071L3.79289 16.2071C3.40237 15.8166 3.40237 15.1834 3.79289 14.7929Z" fill="currentColor" style="fill:currentColor;fill-opacity:1;"/>
<path fill-rule="evenodd" clip-rule="evenodd" d="M5.79289 18.7929C6.18342 18.4024 6.81658 18.4024 7.20711 18.7929L7.70711 19.2929C8.09763 19.6834 8.09763 20.3166 7.70711 20.7071C7.31658 21.0976 6.68342 21.0976 6.29289 20.7071L5.79289 20.2071C5.40237 19.8166 5.40237 19.1834 5.79289 18.7929Z" fill="currentColor" style="fill:currentColor;fill-opacity:1;"/>
<path fill-rule="evenodd" clip-rule="evenodd" d="M18.2071 18.7929C17.8166 18.4024 17.1834 18.4024 16.7929 18.7929L16.2929 19.2929C15.9024 19.6834 15.9024 20.3166 16.2929 20.7071C16.6834 21.0976 17.3166 21.0976 17.7071 20.7071L18.2071 20.2071C18.5976 19.8166 18.5976 19.1834 18.2071 18.7929Z" fill="currentColor" style="fill:currentColor;fill-opacity:1;"/>
<path fill-rule="evenodd" clip-rule="evenodd" d="M20.2071 14.7929C19.8166 14.4024 19.1834 14.4024 18.7929 14.7929L18.2929 15.2929C17.9024 15.6834 17.9024 16.3166 18.2929 16.7071C18.6834 17.0976 19.3166 17.0976 19.7071 16.7071L20.2071 16.2071C20.5976 15.8166 20.5976 15.1834 20.2071 14.7929Z" fill="currentColor" style="fill:currentColor;fill-opacity:1;"/>
<path d="M6.99023 2C6.43795 2 5.99023 2.44772 5.99023 3C5.99023 3.55228 6.43795 4 6.99024 4H8.00023C9.1048 4 10.0002 4.89543 10.0002 6L10.0002 18.1178C10.0002 18.8581 10.2057 19.5838 10.5936 20.2142L11.5744 21.808C11.7697 22.1253 12.2308 22.1253 12.4261 21.808L13.4069 20.2142C13.7948 19.5838 14.0002 18.8581 14.0002 18.1178L14.0002 6C14.0002 4.89543 14.8957 4 16.0002 4H17.0102C17.5625 4 18.0102 3.55228 18.0102 3C18.0102 2.44772 17.5625 2 17.0102 2H6.99023Z" fill="currentColor" style="fill:currentColor;fill-opacity:1;"/>
</svg>
