<svg width="24" height="24" viewBox="0 0 24 24" fill="none" xmlns="http://www.w3.org/2000/svg">
<path d="M5.77634 5.57124C6.3924 6.07172 6.62351 6.03353 7.78029 5.95636L18.6861 5.30151C18.9174 5.30151 18.725 5.07075 18.6479 5.0324L16.8367 3.72303C16.4897 3.45361 16.0273 3.14505 15.1411 3.22223L4.58102 3.99245C4.19591 4.03064 4.11897 4.22319 4.27237 4.37755L5.77634 5.57124ZM6.43112 8.11281V19.5876C6.43112 20.2043 6.7393 20.435 7.43292 20.3969L19.4184 19.7034C20.1124 19.6652 20.1896 19.241 20.1896 18.7401V7.34226C20.1896 6.84211 19.9973 6.57237 19.5724 6.61088L7.04749 7.34226C6.58529 7.3811 6.43112 7.61232 6.43112 8.11281ZM18.2631 8.72835C18.34 9.07527 18.2631 9.42186 17.9156 9.46084L17.3381 9.5759V18.0474C16.8367 18.3168 16.3744 18.4709 15.9891 18.4709C15.3722 18.4709 15.2177 18.2782 14.7557 17.7009L10.9783 11.7709V17.5084L12.1736 17.7781C12.1736 17.7781 12.1736 18.4709 11.2092 18.4709L8.55068 18.6251C8.47344 18.4709 8.55068 18.0861 8.82033 18.009L9.5141 17.8168V10.2308L8.55084 10.1536C8.4736 9.80666 8.66599 9.30648 9.20592 9.26766L12.058 9.07541L15.9891 15.0827V9.76845L14.9868 9.65341C14.9099 9.22931 15.2177 8.92137 15.6032 8.88318L18.2631 8.72835ZM3.69437 2.95281L14.6786 2.14392C16.0275 2.02823 16.3745 2.10573 17.2223 2.72159L20.7286 5.18597C21.3071 5.60975 21.5 5.72513 21.5 6.1871V19.7034C21.5 20.5504 21.1914 21.0514 20.1125 21.128L7.35662 21.8983C6.54675 21.937 6.1613 21.8215 5.73717 21.2821L3.15508 17.932C2.6924 17.3153 2.5 16.854 2.5 16.3142V4.30006C2.5 3.60734 2.80866 3.02952 3.69437 2.95281Z" fill="currentColor" style="fill:currentColor;fill-opacity:1;"/>
</svg>
