<svg width="24" height="24" viewBox="0 0 24 24" fill="none" xmlns="http://www.w3.org/2000/svg">
<path fill-rule="evenodd" clip-rule="evenodd" d="M4.91349 6.66982C5.1136 4.61176 6.8278 3 8.92355 3H13.8586C15.9544 3 17.6686 4.61176 17.8687 6.66982C18.0155 8.18007 18.1837 9.55028 18.4026 10.881C20.5487 12.0768 22.0004 14.3689 22.0004 17V19C22.0004 20.1046 21.1049 21 20.0004 21H4.40933C3.02314 21 2.08085 19.6368 2.50472 18.3513C3.91651 14.0699 4.49965 10.9259 4.91349 6.66982ZM10.4164 15H19.5843C18.8128 13.2341 17.0507 12 15.0004 12C12.95 12 11.188 13.2341 10.4164 15ZM20.0004 17H10.0004V19H20.0004V17Z" fill="currentColor" style="fill:currentColor;fill-opacity:1;"/>
</svg>
