<svg width="24" height="24" viewBox="0 0 24 24" fill="none" xmlns="http://www.w3.org/2000/svg">
<path fill-rule="evenodd" clip-rule="evenodd" d="M6.52595 3.64935C6.82077 3.83156 7.00022 4.15342 7.00022 4.5V9.5C7.00022 10.0523 6.5525 10.5 6.00022 10.5C5.44793 10.5 5.00022 10.0523 5.00022 9.5V6.11804L4.44743 6.39443C3.95345 6.64142 3.35278 6.44119 3.10579 5.94721C2.8588 5.45324 3.05903 4.85256 3.55301 4.60557L5.55301 3.60557C5.86299 3.45058 6.23113 3.46714 6.52595 3.64935ZM12.0002 6C11.448 6 11.0002 6.44772 11.0002 7C11.0002 7.55228 11.448 8 12.0002 8H20.0002C20.5525 8 21.0002 7.55228 21.0002 7C21.0002 6.44772 20.5525 6 20.0002 6H12.0002ZM12.0002 16C11.448 16 11.0002 16.4477 11.0002 17C11.0002 17.5523 11.448 18 12.0002 18H20.0002C20.5525 18 21.0002 17.5523 21.0002 17C21.0002 16.4477 20.5525 16 20.0002 16H12.0002Z" fill="currentColor" style="fill:currentColor;fill-opacity:1;"/>
<path d="M4.85955 15.7929L4.85843 15.7938L4.85712 15.7948L4.85514 15.7963L4.85413 15.7971C4.41665 16.1286 3.79286 16.0455 3.45762 15.6097C3.12089 15.172 3.20278 14.5441 3.64053 14.2074L3.69876 14.1645C3.72848 14.1433 3.76848 14.1156 3.81757 14.0837C3.91499 14.0203 4.05212 13.9375 4.21887 13.8546C4.53672 13.6965 5.03718 13.5 5.61126 13.5C6.93066 13.5 8.00024 14.5696 8.00024 15.889C8.00024 16.6543 7.66895 17.2421 7.26742 17.6785C6.96138 18.0111 6.58959 18.2821 6.26512 18.5H7.25024C7.80253 18.5 8.25024 18.9477 8.25024 19.5C8.25024 20.0523 7.80253 20.5 7.25024 20.5H4.00024C3.44796 20.5 3.00024 20.0523 3.00024 19.5C3.00024 18.7457 3.39226 18.2011 3.7788 17.8324C4.10631 17.52 4.521 17.2506 4.84703 17.0388L4.95305 16.9698C5.33774 16.7183 5.61042 16.5256 5.79557 16.3244C5.95653 16.1494 6.00024 16.0234 6.00024 15.889C6.00024 15.6742 5.82609 15.5 5.61126 15.5C5.47433 15.5 5.29428 15.5535 5.10937 15.6454C5.02474 15.6875 4.95493 15.7297 4.90827 15.7601C4.8853 15.775 4.86816 15.7868 4.85955 15.7929Z" fill="currentColor" style="fill:currentColor;fill-opacity:1;"/>
</svg>
