<svg width="24" height="24" viewBox="0 0 24 24" fill="none" xmlns="http://www.w3.org/2000/svg">
<path fill-rule="evenodd" clip-rule="evenodd" d="M5 1C5.55228 1 6 1.44772 6 2V3.53513C6.58835 3.19479 7.27143 3 8 3H16C18.2091 3 20 4.79086 20 7V17C20 19.7614 17.7614 22 15 22H9C6.23858 22 4 19.7614 4 17V2C4 1.44772 4.44772 1 5 1ZM9 7C8.44772 7 8 7.44772 8 8V13C8 13.5523 8.44772 14 9 14H15C15.5523 14 16 13.5523 16 13V8C16 7.44772 15.5523 7 15 7H9Z" fill="currentColor" style="fill:currentColor;fill-opacity:1;"/>
</svg>
