<svg width="24" height="24" viewBox="0 0 24 24" fill="none" xmlns="http://www.w3.org/2000/svg">
<path d="M8.23667 5C4.23986 5 1 8.23986 1 12.2367C1 16.2335 4.23986 19.4733 8.23667 19.4733C12.2335 19.4733 15.4733 16.2335 15.4733 12.2367C15.4733 8.23986 12.2335 5 8.23667 5ZM8.23667 14.4077C7.03755 14.4077 6.06567 13.4358 6.06567 12.2367C6.06567 11.0376 7.03755 10.0657 8.23667 10.0657C9.43578 10.0657 10.4077 11.0376 10.4077 12.2367C10.4094 13.4341 9.43988 14.406 8.24246 14.4077C8.24053 14.4077 8.2386 14.4077 8.23667 14.4077Z" fill="currentColor"/>
<path d="M16.3707 10.4275C18.2093 10.9567 20.3798 10.4275 20.3798 10.4275C19.75 13.1774 17.7526 14.8998 14.8724 15.1094C13.731 17.759 11.1217 19.475 8.23667 19.4733L10.4077 12.5729C12.6395 5.48051 13.7833 5 19.076 5H22.71C22.1021 7.67757 20.0069 9.72289 16.3707 10.4275Z" fill="currentColor"/>
</svg>
