<svg width="24" height="24" viewBox="0 0 24 24" fill="none" xmlns="http://www.w3.org/2000/svg">
<path fill-rule="evenodd" clip-rule="evenodd" d="M7 5C5.89543 5 5 5.89543 5 7V9C5 9.55228 4.55228 10 4 10C3.44772 10 3 9.55228 3 9V7C3 4.79086 4.79086 3 7 3H17C19.2091 3 21 4.79086 21 7V17C21 19.2091 19.2091 21 17 21H14C13.4477 21 13 20.5523 13 20C13 19.4477 13.4477 19 14 19H17C18.1046 19 19 18.1046 19 17V7C19 5.89543 18.1046 5 17 5H16V7C16 8.65685 14.6569 10 13 10H11C9.34315 10 8 8.65685 8 7V5H7ZM5.20711 13.2929C5.59763 13.6834 5.59763 14.3166 5.20711 14.7071L4.91421 15H7C8.65685 15 10 16.3431 10 18V20C10 20.5523 9.55228 21 9 21C8.44772 21 8 20.5523 8 20V18C8 17.4477 7.55228 17 7 17H4.91421L5.20711 17.2929C5.59763 17.6834 5.59763 18.3166 5.20711 18.7071C4.81658 19.0976 4.18342 19.0976 3.79289 18.7071L1.79289 16.7071C1.40237 16.3166 1.40237 15.6834 1.79289 15.2929L3.79289 13.2929C4.18342 12.9024 4.81658 12.9024 5.20711 13.2929Z" fill="currentColor" style="fill:currentColor;fill-opacity:1;"/>
</svg>
