<svg width="24" height="24" viewBox="0 0 24 24" fill="none" xmlns="http://www.w3.org/2000/svg">
<path d="M8 3H7C4.79086 3 3 4.79086 3 7V17C3 19.2091 4.79086 21 7 21H15.1707C15.0602 20.6872 15 20.3506 15 20C13.3431 20 12 18.6569 12 17C12 15.3431 13.3431 14 15 14C15 12.3431 16.3431 11 18 11C19.6569 11 21 12.3431 21 14V7C21 4.79086 19.2091 3 17 3H16V6.5C16 7.88071 14.8807 9 13.5 9H10.5C9.11929 9 8 7.88071 8 6.5V3Z" fill="currentColor" style="fill:currentColor;fill-opacity:1;"/>
<path d="M14 3H10V6.5C10 6.77614 10.2239 7 10.5 7H13.5C13.7761 7 14 6.77614 14 6.5V3Z" fill="currentColor" style="fill:currentColor;fill-opacity:1;"/>
<path d="M19 14C19 13.4477 18.5523 13 18 13C17.4477 13 17 13.4477 17 14V16H15C14.4477 16 14 16.4477 14 17C14 17.5523 14.4477 18 15 18H17V20C17 20.5523 17.4477 21 18 21C18.5523 21 19 20.5523 19 20V18H21C21.5523 18 22 17.5523 22 17C22 16.4477 21.5523 16 21 16H19V14Z" fill="currentColor" style="fill:currentColor;fill-opacity:1;"/>
</svg>
