<svg width="24" height="24" viewBox="0 0 24 24" fill="none" xmlns="http://www.w3.org/2000/svg">
<path fill-rule="evenodd" clip-rule="evenodd" d="M3 4C3 3.44772 3.44772 3 4 3C6.20914 3 8 4.79086 8 7V13.126C9.40561 13.4878 10.5122 14.5944 10.874 16H20C20.5523 16 21 16.4477 21 17C21 17.5523 20.5523 18 20 18H10.874C10.4299 19.7252 8.86384 21 7 21C4.79086 21 3 19.2091 3 17C3 15.1362 4.27477 13.5701 6 13.126V7C6 5.89543 5.10457 5 4 5C3.44772 5 3 4.55228 3 4ZM7 15C8.10457 15 9 15.8954 9 17C9 18.1046 8.10457 19 7 19C5.89543 19 5 18.1046 5 17C5 15.8954 5.89543 15 7 15Z" fill="currentColor" style="fill:currentColor;fill-opacity:1;"/>
<path d="M14 4H14.5V8C14.5 8.55228 14.9477 9 15.5 9C16.0523 9 16.5 8.55228 16.5 8V4H17C19.2091 4 21 5.79086 21 8V10C21 12.2091 19.2091 14 17 14H14C11.7909 14 10 12.2091 10 10V8C10 5.79086 11.7909 4 14 4Z" fill="currentColor" style="fill:currentColor;fill-opacity:1;"/>
</svg>
