<svg width="24" height="24" viewBox="0 0 24 24" fill="none" xmlns="http://www.w3.org/2000/svg">
<path d="M8 3H7C4.79086 3 3 4.79086 3 7V17C3 19.2091 4.79086 21 7 21H14.5147L14 20.4853C11.6569 18.1422 11.6569 14.3432 14 12C15.8946 10.1055 18.741 9.74276 21 10.912V7C21 4.79086 19.2091 3 17 3H16V6.5C16 7.88071 14.8807 9 13.5 9H10.5C9.11929 9 8 7.88071 8 6.5V3Z" fill="currentColor" style="fill:currentColor;fill-opacity:1;"/>
<path d="M14 3H10V6.5C10 6.77614 10.2239 7 10.5 7H13.5C13.7761 7 14 6.77614 14 6.5V3Z" fill="currentColor" style="fill:currentColor;fill-opacity:1;"/>
<path fill-rule="evenodd" clip-rule="evenodd" d="M21.0711 19.0711C22.6332 17.509 22.6332 14.9763 21.0711 13.4142C19.509 11.8521 16.9763 11.8521 15.4142 13.4142C13.8522 14.9763 13.8522 17.509 15.4142 19.0711L17.5356 21.1924C17.9261 21.5829 18.5593 21.5829 18.9498 21.1924L21.0711 19.0711ZM16.8285 14.8285C17.6095 14.0474 18.8758 14.0474 19.6569 14.8285C20.4379 15.6095 20.4379 16.8758 19.6569 17.6569L18.2427 19.0711L16.8285 17.6569C16.0474 16.8758 16.0474 15.6095 16.8285 14.8285Z" fill="currentColor" style="fill:currentColor;fill-opacity:1;"/>
</svg>
