<svg width="24" height="24" viewBox="0 0 24 24" fill="none" xmlns="http://www.w3.org/2000/svg">
<path d="M8 3H7C4.79086 3 3 4.79086 3 7V17C3 19.2091 4.79086 21 7 21H12.1707C12.0601 20.6872 12 20.3507 12 20.0001V17.6667C12 16.8711 12.3161 16.108 12.8787 15.5454L16.3787 12.0454C17.6296 10.7945 19.4159 10.4053 21 10.8778V7C21 4.79086 19.2091 3 17 3H16V6.5C16 7.88071 14.8807 9 13.5 9H10.5C9.11929 9 8 7.88071 8 6.5V3Z" fill="currentColor" style="fill:currentColor;fill-opacity:1;"/>
<path d="M14 3H10V6.5C10 6.77614 10.2239 7 10.5 7H13.5C13.7761 7 14 6.77614 14 6.5V3Z" fill="currentColor" style="fill:currentColor;fill-opacity:1;"/>
<path fill-rule="evenodd" clip-rule="evenodd" d="M21.5404 13.4596C20.5056 12.4248 18.8278 12.4248 17.7929 13.4596L14.2929 16.9596C14.1054 17.1472 14 17.4015 14 17.6667V20.0001C14 20.5523 14.4477 21.0001 15 21.0001H17.3333C17.5985 21.0001 17.8529 20.8947 18.0404 20.7072L21.5404 17.2072C22.5753 16.1723 22.5753 14.4945 21.5404 13.4596ZM19.2071 14.8738C19.4609 14.62 19.8724 14.62 20.1262 14.8738C20.38 15.1276 20.38 15.5391 20.1262 15.7929L16.9191 19.0001H16V18.0809L19.2071 14.8738Z" fill="currentColor" style="fill:currentColor;fill-opacity:1;"/>
</svg>
