<svg width="24" height="24" viewBox="0 0 24 24" fill="none" xmlns="http://www.w3.org/2000/svg">
<path d="M8 3H7C4.79086 3 3 4.79086 3 7V17C3 19.2091 4.79086 21 7 21H13.0012C12.3918 20.1223 12 19.0308 12 17.7171V15C12 13.9195 12.5811 12.9225 13.5212 12.3898C14.8976 11.61 16.3849 11.1175 18 11.1175C19.0528 11.1175 20.0512 11.3267 21 11.6884V7C21 4.79086 19.2091 3 17 3H16V6.5C16 7.88071 14.8807 9 13.5 9H10.5C9.11929 9 8 7.88071 8 6.5V3Z" fill="currentColor" style="fill:currentColor;fill-opacity:1;"/>
<path d="M14 3H10V6.5C10 6.77614 10.2239 7 10.5 7H13.5C13.7761 7 14 6.77614 14 6.5V3Z" fill="currentColor" style="fill:currentColor;fill-opacity:1;"/>
<path fill-rule="evenodd" clip-rule="evenodd" d="M21.4929 14.1299C20.3418 13.4777 19.1922 13.1175 18 13.1175C16.8078 13.1175 15.6582 13.4777 14.5071 14.1299C14.1937 14.3075 14 14.6398 14 15V17.7171C14 18.9865 14.5292 19.9044 15.2804 20.5711C15.9791 21.1912 16.8731 21.5935 17.5939 21.9138C17.8524 22.0287 18.1476 22.0287 18.4061 21.9138C19.1269 21.5935 20.0209 21.1912 20.7196 20.5711C21.4708 19.9044 22 18.9865 22 17.7171V15C22 14.6398 21.8063 14.3075 21.4929 14.1299ZM16 17.7171V15.6069C16.7204 15.2684 17.3743 15.1175 18 15.1175C18.6257 15.1175 19.2796 15.2684 20 15.6069V17.7171C20 18.3453 19.7703 18.7395 19.3921 19.0752C19.0409 19.3868 18.5733 19.6373 18 19.9026C17.4267 19.6373 16.9591 19.3868 16.6079 19.0752C16.2297 18.7395 16 18.3453 16 17.7171Z" fill="currentColor" style="fill:currentColor;fill-opacity:1;"/>
</svg>
