<svg width="24" height="24" viewBox="0 0 24 24" fill="none" xmlns="http://www.w3.org/2000/svg">
<path d="M8 3H7C4.79086 3 3 4.79086 3 7V17C3 19.2091 4.79086 21 7 21H12.8096C11.6888 19.8321 11 18.2465 11 16.5C11 12.9101 13.9101 10 17.5 10C18.7886 10 19.9897 10.375 21 11.0218V7C21 4.79086 19.2091 3 17 3H16V5.5C16 6.88071 14.8807 8 13.5 8H10.5C9.11929 8 8 6.88071 8 5.5V3Z" fill="currentColor" style="fill:currentColor;fill-opacity:1;"/>
<path d="M14 3H10V5.5C10 5.77614 10.2239 6 10.5 6H13.5C13.7761 6 14 5.77614 14 5.5V3Z" fill="currentColor" style="fill:currentColor;fill-opacity:1;"/>
<path fill-rule="evenodd" clip-rule="evenodd" d="M20.682 13.318C18.9246 11.5607 16.0754 11.5607 14.318 13.318C12.5607 15.0754 12.5607 17.9246 14.318 19.682C16.0754 21.4393 18.9246 21.4393 20.682 19.682C22.4393 17.9246 22.4393 15.0754 20.682 13.318ZM19.8278 17.4136L16.5864 14.1722C17.4836 13.8207 18.5429 14.0073 19.2678 14.7322C19.9927 15.4571 20.1793 16.5164 19.8278 17.4136ZM15.1722 15.5864L18.4136 18.8278C17.5164 19.1793 16.4571 18.9927 15.7322 18.2678C15.0073 17.5429 14.8207 16.4836 15.1722 15.5864Z" fill="currentColor" style="fill:currentColor;fill-opacity:1;"/>
</svg>
