<svg width="24" height="24" viewBox="0 0 24 24" fill="none" xmlns="http://www.w3.org/2000/svg">
<path d="M8 2C5.79086 2 4 3.79086 4 6V18C4 20.2091 5.79086 22 8 22H13.5278C12.5777 20.9385 12 19.5367 12 18V15C12 11.6863 14.6863 9 18 9C18.7013 9 19.3744 9.12031 20 9.34141V6C20 3.79086 18.2091 2 16 2H8Z" fill="currentColor" style="fill:currentColor;fill-opacity:1;"/>
<path d="M16 15C16 13.8954 16.8954 13 18 13C19.1046 13 20 13.8954 20 15C20 15.5523 20.4477 16 21 16C21.5523 16 22 15.5523 22 15C22 12.7909 20.2091 11 18 11C15.7909 11 14 12.7909 14 15C14 15.5523 14.4477 16 15 16C15.5523 16 16 15.5523 16 15Z" fill="currentColor" style="fill:currentColor;fill-opacity:1;"/>
<path d="M19 16C19 15.4477 18.5523 15 18 15C17.4477 15 17 15.4477 17 16V17C17 17.5523 17.4477 18 18 18C18.5523 18 19 17.5523 19 17V16Z" fill="currentColor" style="fill:currentColor;fill-opacity:1;"/>
<path d="M16 18C16 17.4477 15.5523 17 15 17C14.4477 17 14 17.4477 14 18C14 20.2091 15.7909 22 18 22C20.2091 22 22 20.2091 22 18C22 17.4477 21.5523 17 21 17C20.4477 17 20 17.4477 20 18C20 19.1046 19.1046 20 18 20C16.8954 20 16 19.1046 16 18Z" fill="currentColor" style="fill:currentColor;fill-opacity:1;"/>
</svg>
