<svg width="24" height="24" viewBox="0 0 24 24" fill="none" xmlns="http://www.w3.org/2000/svg">
<path d="M9.75 21H8C6.34315 21 5 19.6569 5 18V6C5 4.34315 6.34315 3 8 3H16C17.6569 3 19 4.34315 19 6V9M17 13C14.7909 13 13 14.7909 13 17C13 19.2091 14.7909 21 17 21C18.1046 21 19.1046 20.5523 19.8284 19.8284M17 13C19.2091 13 21 14.7909 21 17C21 18.1046 20.5523 19.1046 19.8284 19.8284M17 13V17L19.8284 19.8284M9 7H15M9 11H11" stroke="currentColor" stroke-width="2" stroke-linecap="round" stroke-linejoin="round"/>
</svg>
