<svg width="24" height="24" viewBox="0 0 24 24" fill="none" xmlns="http://www.w3.org/2000/svg">
<path fill-rule="evenodd" clip-rule="evenodd" d="M8 2C5.79086 2 4 3.79086 4 6V18C4 20.2091 5.79086 22 8 22H14.0096C13.6962 20.9734 13.9454 19.8119 14.7574 18.9999C13.5858 17.8284 13.5858 15.9289 14.7574 14.7573C15.9289 13.5857 17.8284 13.5857 19 14.7573C19.2949 14.4623 19.636 14.2417 20 14.0952V6C20 3.79086 18.2091 2 16 2H8ZM8 5C7.44772 5 7 5.44772 7 6C7 6.55228 7.44772 7 8 7H14C14.5523 7 15 6.55228 15 6C15 5.44772 14.5523 5 14 5H8ZM8 9C7.44772 9 7 9.44772 7 10C7 10.5523 7.44772 11 8 11H10C10.5523 11 11 10.5523 11 10C11 9.44772 10.5523 9 10 9H8Z" fill="currentColor" style="fill:currentColor;fill-opacity:1;"/>
<path fill-rule="evenodd" clip-rule="evenodd" d="M21.8284 16.1716C22.219 16.5621 22.219 17.1953 21.8284 17.5858L20.4142 19L21.8284 20.4142C22.219 20.8047 22.219 21.4379 21.8284 21.8284C21.4379 22.219 20.8047 22.219 20.4142 21.8284L19 20.4142L17.5858 21.8284C17.1953 22.219 16.5621 22.219 16.1716 21.8284C15.781 21.4379 15.781 20.8047 16.1716 20.4142L17.5858 19L16.1716 17.5858C15.781 17.1953 15.781 16.5621 16.1716 16.1716C16.5621 15.781 17.1953 15.781 17.5858 16.1716L19 17.5858L20.4142 16.1716C20.8047 15.781 21.4379 15.781 21.8284 16.1716Z" fill="currentColor" style="fill:currentColor;fill-opacity:1;"/>
</svg>
