<svg width="24" height="24" viewBox="0 0 24 24" fill="none" xmlns="http://www.w3.org/2000/svg">
<path d="M12.0002 1.5C10.1679 1.5 8.66448 2.90794 8.51276 4.70096C6.12554 5.70517 4.26371 7.70789 3.4486 10.1878C3.27615 10.7125 3.56168 11.2776 4.08636 11.4501C4.61103 11.6225 5.17615 11.337 5.3486 10.8123C5.9421 9.00664 7.25203 7.52406 8.94108 6.70189C9.5391 7.77452 10.6849 8.5 12.0002 8.5C13.9332 8.5 15.5002 6.933 15.5002 5C15.5002 3.067 13.9332 1.5 12.0002 1.5Z" fill="currentColor" style="fill:currentColor;fill-opacity:1;"/>
<path d="M18.7878 7.08982C18.425 6.67344 17.7933 6.63003 17.3769 6.99287C16.9605 7.3557 16.9171 7.98737 17.28 8.40375C18.352 9.63404 19.0002 11.2401 19.0002 13.0001C19.0002 13.1684 18.9943 13.3352 18.9827 13.5003C17.7532 13.4801 16.5498 14.1098 15.8913 15.2502C14.9249 16.924 15.4984 19.0643 17.1723 20.0307C18.8461 20.9971 20.9864 20.4236 21.9528 18.7498C22.8678 17.165 22.4023 15.162 20.9295 14.1332C20.9762 13.7617 21.0002 13.3835 21.0002 13.0001C21.0002 10.7389 20.1651 8.67037 18.7878 7.08982Z" fill="currentColor" style="fill:currentColor;fill-opacity:1;"/>
<path d="M8.10121 15.2502C7.13482 13.5764 4.99451 13.0029 3.32069 13.9693C1.64686 14.9357 1.07337 17.076 2.03975 18.7498C2.95621 20.3371 4.92844 20.9349 6.55735 20.1682C8.06857 21.3172 9.95563 22.0001 12.0002 22.0001C12.5757 22.0001 13.1395 21.9459 13.6865 21.8422C14.2291 21.7392 14.5856 21.2159 14.4826 20.6733C14.3797 20.1307 13.8564 19.7743 13.3138 19.8772C12.8891 19.9578 12.4501 20.0001 12.0002 20.0001C10.5445 20.0001 9.19406 19.5566 8.07444 18.7966C8.70343 17.7427 8.75844 16.3886 8.10121 15.2502Z" fill="currentColor" style="fill:currentColor;fill-opacity:1;"/>
</svg>
