<svg width="24" height="24" viewBox="0 0 24 24" fill="none" xmlns="http://www.w3.org/2000/svg">
<path fill-rule="evenodd" clip-rule="evenodd" d="M6 2C3.79086 2 2 3.79086 2 6V14C2 16.2091 3.79086 18 6 18C6 20.2091 7.79086 22 10 22H18C20.2091 22 22 20.2091 22 18V10C22 7.79086 20.2091 6 18 6C18 3.79086 16.2091 2 14 2H6ZM16 6C16 4.89543 15.1046 4 14 4H6C4.89543 4 4 4.89543 4 6V14C4 15.1046 4.89543 16 6 16V10C6 7.79086 7.79086 6 10 6H16ZM14 14.5C15.3807 14.5 16.5 13.3807 16.5 12C16.5 10.6193 15.3807 9.5 14 9.5C12.6193 9.5 11.5 10.6193 11.5 12C11.5 13.3807 12.6193 14.5 14 14.5ZM9.75164 20C9.39442 20 9.15451 19.634 9.31884 19.3168C11.6102 14.8944 16.3898 14.8944 18.6812 19.3168C18.8455 19.634 18.6056 20 18.2484 20H9.75164Z" fill="currentColor" style="fill:currentColor;fill-opacity:1;"/>
</svg>
