<svg width="24" height="24" viewBox="0 0 24 24" fill="none" xmlns="http://www.w3.org/2000/svg">
<path d="M12 2C9.51472 2 7.5 4.01472 7.5 6.5C7.5 8.98528 9.51472 11 12 11C14.4853 11 16.5 8.98528 16.5 6.5C16.5 4.01472 14.4853 2 12 2Z" fill="currentColor" style="fill:currentColor;fill-opacity:1;"/>
<path d="M12.0001 12C8.64237 12 5.96263 13.7661 4.55269 16.3886C3.92347 17.5589 4.16063 18.7737 4.85818 19.6414C5.53148 20.479 6.62375 21 7.79536 21H16.2049C17.3765 21 18.4687 20.479 19.142 19.6414C19.8396 18.7737 20.0768 17.5589 19.4475 16.3886C18.0376 13.7661 15.3578 12 12.0001 12Z" fill="currentColor" style="fill:currentColor;fill-opacity:1;"/>
</svg>
