<svg width="24" height="24" viewBox="0 0 24 24" fill="none" xmlns="http://www.w3.org/2000/svg">
<path d="M12 2C9.51472 2 7.5 4.01472 7.5 6.5C7.5 8.98528 9.51472 11 12 11C14.4853 11 16.5 8.98528 16.5 6.5C16.5 4.01472 14.4853 2 12 2Z" fill="currentColor" style="fill:currentColor;fill-opacity:1;"/>
<path d="M4.55269 16.3886C5.96263 13.7661 8.64237 12 12.0001 12C13.3821 12 14.6493 12.2992 15.7603 12.8341C13.2775 13.3104 12 15.7197 12 17.75C12 18.9916 12.4715 20.1032 13.0986 21H7.79536C6.62375 21 5.53148 20.479 4.85818 19.6414C4.16063 18.7737 3.92347 17.5589 4.55269 16.3886Z" fill="currentColor" style="fill:currentColor;fill-opacity:1;"/>
<path fill-rule="evenodd" clip-rule="evenodd" d="M16.6667 14.75C15.9817 14.75 15.2983 15.0252 14.7913 15.5661C14.2795 16.112 14 16.8693 14 17.75C14 19.1781 14.9978 20.269 15.7694 20.9064C16.1821 21.2473 16.6013 21.5179 16.9401 21.7062C17.1094 21.8002 17.2683 21.8791 17.4054 21.9379C17.4729 21.9668 17.5465 21.9957 17.6202 22.0193L17.6232 22.0203C17.6676 22.0345 17.8196 22.0833 18 22.0833C18.1804 22.0833 18.3324 22.0345 18.3768 22.0203L18.3798 22.0193C18.4535 21.9957 18.5271 21.9668 18.5946 21.9379C18.7317 21.8791 18.8906 21.8002 19.0599 21.7062C19.3988 21.5179 19.8179 21.2473 20.2306 20.9064C21.0022 20.269 22 19.1781 22 17.75C22 16.8693 21.7205 16.112 21.2087 15.5661C20.7017 15.0252 20.0183 14.75 19.3333 14.75C18.7843 14.75 18.3321 14.896 18 15.0578C17.6679 14.896 17.2157 14.75 16.6667 14.75Z" fill="currentColor" style="fill:currentColor;fill-opacity:1;"/>
</svg>
