<svg width="24" height="24" viewBox="0 0 24 24" fill="none" xmlns="http://www.w3.org/2000/svg">
<path d="M11.9997 10C10.949 10 9.85827 10.5975 8.95148 11.318C8.0071 12.0683 7.09502 13.0847 6.38848 14.1905C5.68724 15.288 5.14368 16.544 5.02423 17.7755C4.90167 19.0392 5.22977 20.3303 6.33524 21.2776C7.15011 21.9759 8.04625 22.1278 8.89078 21.9039C9.65055 21.7025 10.299 21.2154 10.7814 20.802L10.8182 20.7705L10.8517 20.7356C11.0347 20.5452 11.4478 20.3645 12.0161 20.3645C12.5749 20.3645 13.0606 20.5417 13.329 20.7844L13.3389 20.7933L13.349 20.802C13.8059 21.1935 14.4265 21.6929 15.1585 21.8997C16.0004 22.1375 16.866 21.9617 17.6642 21.2776C18.7697 20.3303 19.0978 19.0392 18.9752 17.7755C18.8558 16.544 18.3122 15.288 17.611 14.1905C16.9044 13.0847 15.9923 12.0683 15.048 11.318C14.1412 10.5975 13.0505 10 11.9997 10Z" fill="currentColor" style="fill:currentColor;fill-opacity:1;"/>
<path d="M11.495 5.59303C11.5812 7.52533 10.5339 9.05012 9.15591 8.99874C7.77793 8.94736 6.59106 7.33927 6.50495 5.40697C6.41884 3.47467 7.46611 1.94988 8.84409 2.00126C10.2221 2.05264 11.4089 3.66073 11.495 5.59303Z" fill="currentColor" style="fill:currentColor;fill-opacity:1;"/>
<path d="M12.505 5.59303C12.4188 7.52533 13.4661 9.05012 14.8441 8.99874C16.2221 8.94736 17.4089 7.33927 17.495 5.40697C17.5812 3.47467 16.5339 1.94988 15.1559 2.00126C13.7779 2.05264 12.5911 3.66073 12.505 5.59303Z" fill="currentColor" style="fill:currentColor;fill-opacity:1;"/>
<path d="M6.89243 8.91749C7.29183 10.7029 6.54447 12.2991 5.22317 12.4827C3.90187 12.6663 2.50697 11.3679 2.10757 9.58251C1.70817 7.79714 2.45553 6.20095 3.77683 6.01731C5.09813 5.83367 6.49303 7.13213 6.89243 8.91749Z" fill="currentColor" style="fill:currentColor;fill-opacity:1;"/>
<path d="M21.8924 9.58251C21.493 11.3679 20.0981 12.6663 18.7768 12.4827C17.4555 12.2991 16.7082 10.7029 17.1076 8.91749C17.507 7.13213 18.9019 5.83367 20.2232 6.01731C21.5445 6.20095 22.2918 7.79714 21.8924 9.58251Z" fill="currentColor" style="fill:currentColor;fill-opacity:1;"/>
</svg>
