<svg width="24" height="24" viewBox="0 0 24 24" fill="none" xmlns="http://www.w3.org/2000/svg">
<path d="M4 8C4 6.89543 4.89543 6 6 6H16C17.1046 6 18 6.89543 18 8V11C18 11.5523 18.4477 12 19 12C19.5523 12 20 11.5523 20 11V8C20 5.79086 18.2091 4 16 4H6C3.79086 4 2 5.79086 2 8V14C2 16.2091 3.79086 18 6 18H9C9.55228 18 10 17.5523 10 17C10 16.4477 9.55228 16 9 16H6C4.89543 16 4 15.1046 4 14V8Z" fill="currentColor" style="fill:currentColor;fill-opacity:1;"/>
<path d="M14.5 14C13.1193 14 12 15.1193 12 16.5V18.5C12 19.8807 13.1193 21 14.5 21H19.5C20.8807 21 22 19.8807 22 18.5V16.5C22 15.1193 20.8807 14 19.5 14H14.5Z" fill="currentColor" style="fill:currentColor;fill-opacity:1;"/>
</svg>
