<svg width="24" height="24" viewBox="0 0 24 24" fill="none" xmlns="http://www.w3.org/2000/svg">
<path d="M12 3C7.02944 3 3 7.02944 3 12C3 16.9706 7.02944 21 12 21C15.9187 21 19.2524 18.4956 20.4879 15M12 3C16.9706 3 21 7.02944 21 12C21 13.0519 20.8195 14.0617 20.4879 15M12 3V12L20.4879 15" stroke="currentColor" style="stroke:currentColor;stroke-opacity:1;" stroke-width="2" stroke-linejoin="round"/>
<path d="M12 3C7.02944 3 3 7.02944 3 12C3 16.9706 7.02944 21 12 21C15.9187 21 19.2524 18.4956 20.4879 15M12 3C16.9706 3 21 7.02944 21 12C21 13.0519 20.8195 14.0617 20.4879 15M12 3V12L20.4879 15" stroke="currentColor" style="stroke:currentColor;stroke-opacity:1;" stroke-width="2" stroke-linejoin="round"/>
</svg>
