<svg width="24" height="24" viewBox="0 0 24 24" fill="none" xmlns="http://www.w3.org/2000/svg">
<path d="M17.368 3.43116C15.5008 2.93087 13.5816 4.03891 13.0813 5.90604L12.8225 6.87196C12.3222 8.73909 13.4303 10.6583 15.2974 11.1586L16.2633 11.4174C18.1305 11.9177 20.0496 10.8096 20.5499 8.94251L20.8088 7.97659C21.309 6.10946 20.201 4.19028 18.3339 3.68998L17.368 3.43116Z" fill="currentColor" style="fill:currentColor;fill-opacity:1;"/>
<path d="M5.34588 6.36592C5.0722 6.13627 4.69679 6.07008 4.36107 6.19227C4.02535 6.31446 3.78032 6.60647 3.71828 6.95831L2.51521 13.7813C2.45318 14.1331 2.58355 14.4913 2.85723 14.721C3.13092 14.9506 3.50632 15.0168 3.84204 14.8946L10.3524 12.525C10.6881 12.4028 10.9332 12.1108 10.9952 11.759C11.0573 11.4071 10.9269 11.0489 10.6532 10.8193L5.34588 6.36592Z" fill="currentColor" style="fill:currentColor;fill-opacity:1;"/>
<path d="M14.4443 13C12.2352 13 10.4443 14.7909 10.4443 17C10.4443 19.2092 12.2352 21 14.4443 21C16.6535 21 18.4443 19.2092 18.4443 17C18.4443 14.7909 16.6535 13 14.4443 13Z" fill="currentColor" style="fill:currentColor;fill-opacity:1;"/>
</svg>
