<svg width="24" height="24" viewBox="0 0 24 24" fill="none" xmlns="http://www.w3.org/2000/svg">
<path d="M18.9831 7.99941C19.0968 7.15336 18.5962 6.32886 17.8098 6.01031C17.3065 5.8064 16.9204 5.43302 16.7089 4.93187C16.3755 4.14234 15.5235 3.67396 14.6784 3.78287C14.1346 3.85246 13.6115 3.71878 13.172 3.38992C12.4876 2.87523 11.5117 2.87523 10.8273 3.38992C10.4122 3.70213 9.88587 3.85766 9.36819 3.79093C8.50319 3.67941 7.63462 4.11597 7.28966 4.93433C7.0787 5.43474 6.69251 5.80825 6.18984 6.01153C5.40329 6.32958 4.90238 7.15394 5.01603 7.99996" stroke="currentColor" stroke-width="2" stroke-linecap="round" stroke-linejoin="round"/>
<path d="M9.51971 8.5L9.98125 20.5M14.4813 8.5L14.0197 20.5M4.64499 9.12716L5.83144 18.3815C6.02338 19.8786 7.29773 21 8.80709 21H15.1939C16.7032 21 17.9776 19.8786 18.1695 18.3815L19.356 9.12716C19.4326 8.52929 18.9669 8 18.3641 8H5.63687C5.03411 8 4.56834 8.52929 4.64499 9.12716Z" stroke="currentColor" stroke-width="2" stroke-linecap="round" stroke-linejoin="round"/>
</svg>
