<svg width="24" height="24" viewBox="0 0 24 24" fill="none" xmlns="http://www.w3.org/2000/svg">
<path d="M15.2202 11.2791L15.5036 12.2381L15.2202 11.2791ZM9.6579 10.3242L9.78387 11.3163L9.6579 10.3242ZM5.22021 12.1038C4.87446 12.5344 4.9433 13.1638 5.37396 13.5096C5.80463 13.8553 6.43404 13.7865 6.77979 13.3558L5.22021 12.1038ZM10 17V16H9V17H10ZM14 17H15V16H14V17ZM15 16H9V18H15V16ZM7 14V8H5V14H7ZM17 8V9.5H19V8H17ZM17 9.5V14H19V9.5H17ZM15.5036 12.2381C16.2736 12.0106 17.0885 11.4725 17.6441 11.0653C17.9376 10.8502 18.1903 10.6476 18.3699 10.4988C18.4599 10.4242 18.5323 10.3625 18.583 10.3186C18.6083 10.2967 18.6283 10.2792 18.6424 10.2668C18.6495 10.2606 18.6551 10.2557 18.6591 10.2521C18.6612 10.2502 18.6628 10.2488 18.6641 10.2477C18.6647 10.2471 18.6653 10.2466 18.6657 10.2462C18.6659 10.246 18.6661 10.2459 18.6663 10.2457C18.6664 10.2456 18.6665 10.2455 18.6665 10.2455C18.6666 10.2454 18.6667 10.2453 18 9.5C17.3333 8.75468 17.3334 8.7546 17.3335 8.75453C17.3335 8.75452 17.3335 8.75445 17.3336 8.75442C17.3337 8.75436 17.3337 8.75431 17.3337 8.75429C17.3338 8.75425 17.3337 8.75429 17.3336 8.75442C17.3333 8.75467 17.3326 8.75526 17.3316 8.75617C17.3296 8.758 17.326 8.76113 17.3211 8.76548C17.3112 8.77418 17.2957 8.78777 17.275 8.80563C17.2336 8.84139 17.1719 8.89412 17.0936 8.95901C16.9364 9.08927 16.7156 9.2661 16.4618 9.45216C15.9227 9.84727 15.3478 10.1987 14.9369 10.3201L15.5036 12.2381ZM9.78387 11.3163C10.4677 11.2294 11.0282 11.488 11.9823 11.8775C12.8788 12.2433 14.0474 12.6684 15.5036 12.2381L14.9369 10.3201C14.1786 10.5441 13.5681 10.3645 12.738 10.0257C11.9656 9.7105 10.8521 9.16455 9.53192 9.33219L9.78387 11.3163ZM6.77979 13.3558C7.14877 12.8962 7.65805 12.4038 8.21623 12.0134C8.7846 11.6158 9.3324 11.3736 9.78387 11.3163L9.53192 9.33219C8.63736 9.44579 7.78135 9.87682 7.06985 10.3745C6.34816 10.8794 5.70151 11.5043 5.22021 12.1038L6.77979 13.3558ZM9 16C7.89543 16 7 15.1046 7 14H5C5 16.2091 6.79086 18 9 18V16ZM15 18C17.2091 18 19 16.2091 19 14H17C17 15.1046 16.1046 16 15 16V18ZM12 3C14.7614 3 17 5.23858 17 8H19C19 4.13401 15.866 1 12 1V3ZM12 1C8.13401 1 5 4.13401 5 8H7C7 5.23858 9.23858 3 12 3V1ZM10 18H14V16H10V18ZM13 17V20H15V17H13ZM11 20V17H9V20H11ZM12 21C11.4477 21 11 20.5523 11 20H9C9 21.6569 10.3431 23 12 23V21ZM13 20C13 20.5523 12.5523 21 12 21V23C13.6569 23 15 21.6569 15 20H13Z" fill="currentColor"/>
</svg>
