<svg width="24" height="24" viewBox="0 0 24 24" fill="none" xmlns="http://www.w3.org/2000/svg">
<path fill-rule="evenodd" clip-rule="evenodd" d="M6 4C3.79086 4 2 5.79086 2 8V16C2 18.2091 3.79086 20 6 20H18C20.2091 20 22 18.2091 22 16V8C22 5.79086 20.2091 4 18 4H6ZM7 9C6.44772 9 6 9.44772 6 10C6 10.5523 6.44772 11 7 11H9C9.55228 11 10 10.5523 10 10C10 9.44772 9.55228 9 9 9H7ZM14 9C12.8954 9 12 9.89543 12 11V13C12 14.1046 12.8954 15 14 15H16C17.1046 15 18 14.1046 18 13V11C18 9.89543 17.1046 9 16 9H14ZM7 13C6.44772 13 6 13.4477 6 14C6 14.5523 6.44772 15 7 15H9C9.55228 15 10 14.5523 10 14C10 13.4477 9.55228 13 9 13H7Z" fill="currentColor" style="fill:currentColor;fill-opacity:1;"/>
</svg>
