<svg width="24" height="24" viewBox="0 0 24 24" fill="none" xmlns="http://www.w3.org/2000/svg">
<path d="M6.5 3C4.84315 3 3.5 4.34315 3.5 6C3.5 7.30622 4.33481 8.41746 5.5 8.82929V15.1707C4.33481 15.5825 3.5 16.6938 3.5 18C3.5 19.6569 4.84315 21 6.5 21C8.15685 21 9.5 19.6569 9.5 18C9.5 16.6938 8.66519 15.5825 7.5 15.1707V8.82929C8.66519 8.41746 9.5 7.30622 9.5 6C9.5 4.34315 8.15685 3 6.5 3Z" fill="currentColor"/>
<path d="M16.4571 3.54289C16.0666 3.15237 15.4334 3.15237 15.0429 3.54289C14.6524 3.93342 14.6524 4.56658 15.0429 4.95711L16.0858 6L15.0429 7.04289C14.6524 7.43342 14.6524 8.06658 15.0429 8.45711C15.4334 8.84763 16.0666 8.84763 16.4571 8.45711L17.5 7.41421L18.5429 8.45711C18.9334 8.84763 19.5666 8.84763 19.9571 8.45711C20.3476 8.06658 20.3476 7.43342 19.9571 7.04289L18.9142 6L19.9571 4.95711C20.3476 4.56658 20.3476 3.93342 19.9571 3.54289C19.5666 3.15237 18.9334 3.15237 18.5429 3.54289L17.5 4.58579L16.4571 3.54289Z" fill="currentColor"/>
<path d="M18.5 11C18.5 10.4477 18.0523 10 17.5 10C16.9477 10 16.5 10.4477 16.5 11V15.1707C15.3348 15.5825 14.5 16.6938 14.5 18C14.5 19.6569 15.8431 21 17.5 21C19.1569 21 20.5 19.6569 20.5 18C20.5 16.6938 19.6652 15.5825 18.5 15.1707V11Z" fill="currentColor"/>
</svg>
