<svg width="24" height="24" viewBox="0 0 24 24" fill="none" xmlns="http://www.w3.org/2000/svg">
<path d="M3.50133 8.04118C3.50034 8.01947 3.50005 7.99768 3.50048 7.97587L3.50049 4C3.50049 3.44771 3.9482 3 4.50049 3C5.05277 3 5.50049 3.44772 5.50049 4L5.50049 5.07197C7.19921 3.47759 9.48531 2.5 12.0005 2.5C15.1592 2.5 17.9577 4.04258 19.6833 6.41114C20.0085 6.85752 19.9103 7.48302 19.4639 7.80824C19.0176 8.13345 18.3921 8.03523 18.0668 7.58885C16.7014 5.71475 14.4929 4.5 12.0005 4.5C9.78009 4.5 7.78408 5.46469 6.41003 7H8.50058C9.05287 7 9.50058 7.44772 9.50058 8C9.50058 8.55228 9.05287 9 8.50058 9H4.50048C4.23527 9 3.98091 8.89464 3.79338 8.70711C3.61557 8.5293 3.51164 8.29143 3.50133 8.04118Z" fill="currentColor"/>
<path d="M4.55189 12.8836C4.48761 12.3351 3.99082 11.9425 3.44229 12.0068C2.89376 12.0711 2.5012 12.5679 2.56549 13.1164C2.93555 16.2742 4.85202 18.955 7.53316 20.386C8.02039 20.646 8.62618 20.4619 8.88622 19.9746C9.14626 19.4874 8.96208 18.8816 8.47485 18.6216C6.35433 17.4898 4.8434 15.371 4.55189 12.8836Z" fill="currentColor"/>
<path d="M11.0915 19.7158L11.4979 17.8868C11.663 17.1442 12.0363 16.4641 12.5743 15.9261L15.9703 12.5301L19.4703 16.0301L16.0743 19.4261C15.5363 19.9641 14.8562 20.3374 14.1135 20.5025L12.2846 20.9089C11.5701 21.0677 10.9327 20.4303 11.0915 19.7158Z" fill="currentColor"/>
<path d="M20.5309 14.9694L17.0309 11.4694L17.7506 10.7498C18.7171 9.78328 20.2841 9.78328 21.2506 10.7498C22.2171 11.7163 22.2171 13.2833 21.2506 14.2498L20.5309 14.9694Z" fill="currentColor"/>
</svg>
