<svg width="24" height="24" viewBox="0 0 24 24" fill="none" xmlns="http://www.w3.org/2000/svg">
<path d="M11.0224 4.61172L8.3153 2.4122C7.98854 2.14671 7.5 2.37924 7.5 2.80026V3.99983C6.8101 4.00029 6.23027 4.00458 5.74818 4.04397C5.18608 4.0899 4.66937 4.18846 4.18404 4.43575C3.43139 4.81924 2.81947 5.43117 2.43598 6.18381C2.18868 6.66915 2.09012 7.18585 2.04419 7.74795C1.99998 8.28914 1.99999 8.9535 2 9.75846V14.2411C1.99999 15.046 1.99998 15.7104 2.04419 16.2516C2.09012 16.8137 2.18868 17.3304 2.43598 17.8157C2.81947 18.5684 3.43139 19.1803 4.18404 19.5638C4.66937 19.8111 5.18608 19.9097 5.74818 19.9556C6.28938 19.9998 6.95374 19.9998 7.75873 19.9998H9C9.55229 19.9998 10 19.5521 10 18.9998C10 18.4475 9.55229 17.9998 9 17.9998H7.8C6.94342 17.9998 6.36113 17.999 5.91104 17.9622C5.47262 17.9264 5.24842 17.8615 5.09202 17.7818C4.7157 17.59 4.40974 17.2841 4.21799 16.9078C4.1383 16.7514 4.07337 16.5272 4.03755 16.0887C4.00078 15.6386 4 15.0564 4 14.1998V9.79978C4 8.9432 4.00078 8.3609 4.03755 7.91081C4.07337 7.4724 4.1383 7.2482 4.21799 7.0918C4.40974 6.71547 4.7157 6.40951 5.09202 6.21776C5.24842 6.13807 5.47262 6.07315 5.91104 6.03733C6.30651 6.00502 6.80403 6.0005 7.5 5.99987V7.19929C7.5 7.62031 7.98854 7.85284 8.3153 7.58735L11.0224 5.38783C11.2687 5.18774 11.2687 4.81182 11.0224 4.61172Z" fill="currentColor" style="fill:currentColor;fill-opacity:1;"/>
<path d="M17.5 3.5C18.3284 2.67158 19.6716 2.67158 20.5 3.5C21.3284 4.32843 21.3284 5.67158 20.5 6.5L19.9571 7.0429L16.9571 4.0429L17.5 3.5Z" fill="currentColor" style="fill:currentColor;fill-opacity:1;"/>
<path d="M15.5429 5.45711L10.1716 10.8284C9.42143 11.5786 9 12.596 9 13.6569V14.5C9 14.7761 9.22386 15 9.5 15H10.3431C11.404 15 12.4214 14.5786 13.1716 13.8284L18.5429 8.45711L15.5429 5.45711Z" fill="currentColor" style="fill:currentColor;fill-opacity:1;"/>
<path d="M15.6847 16.4122L12.9776 18.6117C12.7313 18.8118 12.7313 19.1877 12.9776 19.3878L15.6847 21.5873C16.0115 21.8528 16.5 21.6203 16.5 21.1993V19.9997C17.1899 19.9993 17.7697 19.995 18.2518 19.9556C18.8139 19.9097 19.3306 19.8111 19.816 19.5638C20.5686 19.1803 21.1805 18.5684 21.564 17.8157C21.8113 17.3304 21.9099 16.8137 21.9558 16.2516C22 15.7104 22 15.0461 22 14.2411V11.9998C22 11.4475 21.5523 10.9998 21 10.9998C20.4477 10.9998 20 11.4475 20 11.9998V14.1998C20 15.0564 19.9992 15.6386 19.9625 16.0887C19.9266 16.5272 19.8617 16.7514 19.782 16.9078C19.5903 17.2841 19.2843 17.59 18.908 17.7818C18.7516 17.8615 18.5274 17.9264 18.089 17.9622C17.6935 17.9945 17.196 17.9991 16.5 17.9997V16.8003C16.5 16.3792 16.0115 16.1467 15.6847 16.4122Z" fill="currentColor" style="fill:currentColor;fill-opacity:1;"/>
</svg>
