<svg width="24" height="24" viewBox="0 0 24 24" fill="none" xmlns="http://www.w3.org/2000/svg">
<path fill-rule="evenodd" clip-rule="evenodd" d="M15 14.9123L12 17.4623V19.2336L14.029 18.0162C14.6314 17.6548 15 17.0038 15 16.3013V14.9123ZM10 17.414L6.58579 13.9998H4.76619C3.2116 13.9998 2.25138 12.3039 3.0512 10.9708L4.2686 8.94185C4.99149 7.73703 6.29352 6.99983 7.69857 6.99983H10.8147C13.3392 4.32966 16.2007 2.36872 19.9142 2.04636C21.0833 1.94487 22.055 2.9165 21.9535 4.08559C21.6311 7.79909 19.6702 10.6606 17 13.1852V16.3013C17 17.7063 16.2628 19.0083 15.058 19.7312L13.029 20.9486C11.6959 21.7485 10 20.7882 10 19.2336V17.414ZM9.08756 8.99983H7.69857C6.99605 8.99983 6.34503 9.36843 5.98358 9.97084L4.76619 11.9998H6.53756L9.08756 8.99983ZM2 18.9998C2 17.343 3.34315 15.9998 5 15.9998C6.65685 15.9998 8 17.343 8 18.9998C8 20.6567 6.65685 21.9998 5 21.9998H3C2.44772 21.9998 2 21.5521 2 20.9998V18.9998Z" fill="currentColor" style="fill:currentColor;fill-opacity:1;"/>
</svg>
