<svg width="24" height="24" viewBox="0 0 24 24" fill="none" xmlns="http://www.w3.org/2000/svg">
<path d="M13.6711 2.91425C15.2332 1.35215 17.7659 1.35215 19.328 2.91425L21.0853 4.67161C22.6474 6.2337 22.6474 8.76637 21.0853 10.3285L10.328 21.0858C8.76588 22.6479 6.23322 22.6479 4.67112 21.0858L2.91376 19.3285C1.35167 17.7664 1.35166 15.2337 2.91376 13.6716L4.08555 12.4998L6.04289 14.4572C6.43342 14.8477 7.06658 14.8477 7.45711 14.4572C7.84763 14.0666 7.84763 13.4335 7.45711 13.043L5.49976 11.0856L7.58555 8.99982L10.5429 11.9572C10.9334 12.3477 11.5666 12.3477 11.9571 11.9572C12.3476 11.5666 12.3476 10.9335 11.9571 10.543L8.99976 7.58561L11.0855 5.49982L13.0429 7.45717C13.4334 7.84769 14.0666 7.84769 14.4571 7.45717C14.8476 7.06664 14.8476 6.43348 14.4571 6.04295L12.4998 4.08561L13.6711 2.91425Z" fill="currentColor" style="fill:currentColor;fill-opacity:1;"/>
</svg>
