<svg width="24" height="24" viewBox="0 0 24 24" fill="none" xmlns="http://www.w3.org/2000/svg">
<path fill-rule="evenodd" clip-rule="evenodd" d="M7 3C4.79086 3 3 4.79086 3 7V17C3 19.2091 4.79086 21 7 21H17C19.2091 21 21 19.2091 21 17V7C21 4.79086 19.2091 3 17 3H7ZM14.8944 8.44721C15.1414 7.95324 14.9412 7.35256 14.4472 7.10557C13.9532 6.85858 13.3526 7.05881 13.1056 7.55279L9.10557 15.5528C8.85858 16.0468 9.05881 16.6474 9.55279 16.8944C10.0468 17.1414 10.6474 16.9412 10.8944 16.4472L14.8944 8.44721Z" fill="currentColor" style="fill:currentColor;fill-opacity:1;"/>
</svg>
