<svg width="24" height="24" viewBox="0 0 24 24" fill="none" xmlns="http://www.w3.org/2000/svg">
<path d="M12 18.002C12 18.3519 12.0601 18.6878 12.1704 19L12 18.002Z" fill="currentColor" style="fill:currentColor;fill-opacity:1;"/>
<path fill-rule="evenodd" clip-rule="evenodd" d="M18 10H19C20.6568 10 22 8.6571 22 7.00015V6C22 5.20421 21.6838 4.44134 21.1215 3.87885C20.5589 3.3161 19.7956 3 19 3C18.9999 3 19.0001 3 19 3H9.00035C8.20622 3 7.44312 3.31379 6.87986 3.87616C6.31591 4.43844 6 5.20128 6 5.9964V15H5.9682C4.32972 15 3 16.3282 3 17.9675C3 18.7713 3.31912 19.543 3.88829 20.1119C4.45715 20.6806 5.22857 21 6.0329 21H15C15.0109 21 15.0217 20.9998 15.0324 20.9995C16.6737 20.9832 18 19.6468 18 18.0016V10ZM18 6V8H19C19.5524 8 20 7.55233 20 7.00015V6C20 5.73487 19.8946 5.48051 19.707 5.29284C19.5197 5.10544 19.2653 5 19 5C18.7347 5 18.4803 5.10544 18.293 5.29284C18.1053 5.48051 18 5.73487 18 6ZM12.1704 19H6.0329C5.7588 19 5.496 18.8912 5.30224 18.6975C5.10877 18.5041 5 18.2414 5 17.9675C5 17.4336 5.4334 17 5.9682 17H10.9994C11.5506 17 11.9998 17.449 12 18.002" fill="currentColor" style="fill:currentColor;fill-opacity:1;"/>
</svg>
