<svg width="24" height="24" viewBox="0 0 24 24" fill="none" xmlns="http://www.w3.org/2000/svg">
<path fill-rule="evenodd" clip-rule="evenodd" d="M22 7.00015C22 8.6571 20.6568 10 19 10H18V18.0016C18 19.6468 16.6737 20.9832 15.0324 20.9995C15.0217 20.9998 15.0109 21 15 21H6.0329C5.22857 21 4.45715 20.6806 3.88829 20.1119C3.31912 19.543 3 18.7713 3 17.9675C3 16.3282 4.32972 15 5.9682 15H6V5.9964C6 5.20128 6.31591 4.43844 6.87986 3.87616C7.44312 3.31379 8.20622 3 9.00035 3H19C19.7956 3 20.5589 3.3161 21.1215 3.87885C21.6838 4.44134 22 5.20421 22 6V7.00015ZM20 7.00015C20 7.55233 19.5524 8 19 8H18V6C18 5.73487 18.1053 5.48051 18.293 5.29284C18.4803 5.10544 18.7347 5 19 5C19.2653 5 19.5197 5.10544 19.707 5.29284C19.8946 5.48051 20 5.73487 20 6V7.00015ZM5.30224 18.6975C5.496 18.8912 5.7588 19 6.0329 19H12.1704C12.0601 18.6878 12 18.3519 12 18.002C11.9998 17.449 11.5506 17 10.9994 17H5.9682C5.4334 17 5 17.4336 5 17.9675C5 18.2414 5.10877 18.5041 5.30224 18.6975ZM10 8C10 7.44772 10.4477 7 11 7H13C13.5523 7 14 7.44772 14 8C14 8.55228 13.5523 9 13 9H11C10.4477 9 10 8.55228 10 8ZM10 12C10 11.4477 10.4477 11 11 11H12C12.5523 11 13 11.4477 13 12C13 12.5523 12.5523 13 12 13H11C10.4477 13 10 12.5523 10 12Z" fill="currentColor" style="fill:currentColor;fill-opacity:1;"/>
</svg>
