<svg width="24" height="24" viewBox="0 0 24 24" fill="none" xmlns="http://www.w3.org/2000/svg">
<path fill-rule="evenodd" clip-rule="evenodd" d="M12 1C12.5523 1 13 1.44772 13 2V3.05511C13.9171 3.15662 14.7934 3.39607 15.6071 3.75239L16.134 2.83994C16.4101 2.36165 17.0217 2.19777 17.5 2.47392C17.9783 2.75006 18.1421 3.36165 17.866 3.83995L17.3384 4.7537C18.066 5.29047 18.7096 5.93414 19.2464 6.66167L20.1602 6.13407C20.6385 5.85793 21.2501 6.0218 21.5263 6.5001C21.8024 6.97839 21.6385 7.58998 21.1602 7.86612L20.2477 8.39297C20.604 9.20666 20.8435 10.083 20.945 11.0001H22C22.5523 11.0001 23 11.4478 23 12.0001C23 12.5524 22.5523 13.0001 22 13.0001H20.945C20.8435 13.9172 20.604 14.7936 20.2477 15.6073L21.1602 16.1342C21.6385 16.4103 21.8024 17.0219 21.5263 17.5002C21.2501 17.9785 20.6385 18.1424 20.1602 17.8662L19.2464 17.3386C18.7096 18.0661 18.0659 18.7098 17.3384 19.2465L17.866 20.1604C18.1421 20.6386 17.9783 21.2502 17.5 21.5264C17.0217 21.8025 16.4101 21.6386 16.134 21.1604L15.6071 20.2478C14.7934 20.6041 13.9171 20.8436 13 20.9451V22C13 22.5523 12.5523 23 12 23C11.4477 23 11 22.5523 11 22V20.9451C10.0829 20.8436 9.20657 20.6041 8.39289 20.2478L7.866 21.1604C7.58986 21.6387 6.97827 21.8026 6.49998 21.5265C6.02169 21.2503 5.85781 20.6387 6.13395 20.1605L6.66159 19.2465C5.93403 18.7098 5.29034 18.0661 4.75355 17.3385L3.83972 17.8661C3.36143 18.1423 2.74984 17.9784 2.4737 17.5001C2.19755 17.0218 2.36143 16.4102 2.83972 16.1341L3.75225 15.6072C3.39594 14.7935 3.15648 13.9172 3.05498 13.0001L1.99995 13C1.44767 13 0.999973 12.5522 1 12C1.00003 11.4477 1.44776 11 2.00005 11L3.05499 11.0001C3.1565 10.083 3.39593 9.2067 3.75222 8.39304L2.83973 7.86623C2.36143 7.59009 2.19755 6.9785 2.47369 6.5002C2.74983 6.02191 3.36142 5.85803 3.83971 6.13417L4.75351 6.66173C5.29029 5.93417 5.93399 5.29047 6.66155 4.75368L6.13395 3.83984C5.85781 3.36155 6.02168 2.74996 6.49998 2.47382C6.97827 2.19768 7.58986 2.36155 7.866 2.83984L8.39285 3.75237C9.20654 3.39606 10.0829 3.15661 11 3.05511V2C11 1.44772 11.4477 1 12 1ZM7.66968 6.49981C6.97287 7.04925 6.38281 7.7283 5.93615 8.50029C5.34095 9.529 4.99998 10.7232 4.99998 12.0001C4.99998 13.277 5.34096 14.4712 5.93618 15.5C6.38284 16.2719 6.9729 16.951 7.66971 17.5004L9.7198 13.9495C9.27162 13.4257 8.99998 12.7449 8.99998 12.0001C8.99998 11.2553 9.27162 10.5745 9.71979 10.0507L7.66968 6.49981ZM11.4516 9.05028L9.40082 5.49823C10.2037 5.17694 11.0804 5.0001 12 5.0001C13.2769 5.0001 14.4711 5.34109 15.4999 5.93632C16.5625 6.55114 17.449 7.43764 18.0638 8.50024C18.5006 9.25528 18.8006 10.0995 18.9292 11.0001H14.8293C14.4174 9.8349 13.3062 9.0001 12 9.0001C11.813 9.0001 11.6296 9.01731 11.4516 9.05028ZM14.8293 13.0001C14.4174 14.1653 13.3062 15.0001 12 15.0001C11.813 15.0001 11.6296 14.9829 11.4516 14.9499L9.40085 18.502C10.2037 18.8233 11.0804 19.0001 12 19.0001C13.2769 19.0001 14.4711 18.6591 15.4998 18.0639C16.5624 17.4491 17.4489 16.5626 18.0637 15.5C18.5006 14.745 18.8006 13.9007 18.9292 13.0001H14.8293Z" fill="currentColor" style="fill:currentColor;fill-opacity:1;"/>
</svg>
