<svg width="24" height="24" viewBox="0 0 24 24" fill="none" xmlns="http://www.w3.org/2000/svg">
<path d="M11.2929 1.29289C11.6834 0.902369 12.3166 0.902369 12.7071 1.29289L16.7071 5.29289C17.0976 5.68342 17.0976 6.31658 16.7071 6.70711C16.3166 7.09763 15.6834 7.09763 15.2929 6.70711L13 4.41421V13C13 13.5523 12.5523 14 12 14C11.4477 14 11 13.5523 11 13V4.41421L8.70711 6.70711C8.31658 7.09763 7.68342 7.09763 7.29289 6.70711C6.90237 6.31658 6.90237 5.68342 7.29289 5.29289L11.2929 1.29289Z" fill="currentColor"/>
<path d="M8 9H9.5V13C9.5 14.3807 10.6193 15.5 12 15.5C13.3807 15.5 14.5 14.3807 14.5 13V9H16C18.2091 9 20 10.7909 20 13V17C20 19.2091 18.2091 21 16 21H8C5.79086 21 4 19.2091 4 17V13C4 10.7909 5.79086 9 8 9Z" fill="currentColor"/>
</svg>
