<svg width="24" height="24" viewBox="0 0 24 24" fill="none" xmlns="http://www.w3.org/2000/svg">
<path fill-rule="evenodd" clip-rule="evenodd" d="M8.00012 6C8.00012 3.79086 9.79098 2 12.0001 2C14.2093 2 16.0001 3.79086 16.0001 6V7.14621C17.4826 7.55898 18.636 8.80686 18.8798 10.3918L19.9568 17.3918C20.3295 19.8148 18.4548 22 16.0033 22H7.99695C5.54541 22 3.67069 19.8148 4.04347 17.3918L5.12039 10.3918C5.36422 8.80685 6.51766 7.55897 8.00012 7.14621V6ZM10.0001 7H14.0001V6C14.0001 4.89543 13.1047 4 12.0001 4C10.8956 4 10.0001 4.89543 10.0001 6V7Z" fill="currentColor" style="fill:currentColor;fill-opacity:1;"/>
</svg>
