<svg width="24" height="24" viewBox="0 0 24 24" fill="none" xmlns="http://www.w3.org/2000/svg">
<path fill-rule="evenodd" clip-rule="evenodd" d="M7.81657 3C5.70431 3 3.95611 4.64235 3.82436 6.75049L3.19936 16.7505C3.05543 19.0533 4.88428 21 7.19157 21H12.8154C12.1183 20.1116 11.4973 18.9077 11.4973 17.4175C11.4973 16.0541 11.9357 14.7399 12.8731 13.7401C13.7956 12.7561 15.0475 12.25 16.3035 12.25C16.842 12.25 17.3264 12.3322 17.7486 12.4542C18.1707 12.3322 18.6552 12.25 19.1936 12.25C19.6439 12.25 20.0937 12.315 20.5279 12.4438L20.1721 6.75049C20.0403 4.64235 18.2921 3 16.1799 3H7.81657ZM8.99821 7C9.5505 7 9.99821 7.44772 9.99821 8C9.99821 9.10457 10.8936 10 11.9982 10C13.1028 10 13.9982 9.10457 13.9982 8C13.9982 7.44772 14.4459 7 14.9982 7C15.5505 7 15.9982 7.44772 15.9982 8C15.9982 10.2091 14.2074 12 11.9982 12C9.78908 12 7.99821 10.2091 7.99821 8C7.99821 7.44772 8.44593 7 8.99821 7Z" fill="currentColor" style="fill:currentColor;fill-opacity:1;"/>
<path fill-rule="evenodd" clip-rule="evenodd" d="M15.7912 16.4758C15.6519 16.6245 15.4972 16.9091 15.4972 17.4175C15.4972 17.9864 15.9321 18.632 16.6582 19.2318C16.9943 19.5095 17.3403 19.7327 17.6119 19.8836C17.6613 19.9111 17.7071 19.9355 17.7486 19.9568C17.79 19.9355 17.8358 19.9111 17.8852 19.8836C18.1568 19.7327 18.5028 19.5095 18.8389 19.2318C19.5651 18.632 19.9999 17.9864 19.9999 17.4175C19.9999 16.9091 19.8452 16.6245 19.7059 16.4758C19.5617 16.3221 19.3769 16.25 19.1936 16.25C18.9465 16.25 18.7492 16.3236 18.6112 16.3988C18.5424 16.4364 18.4922 16.4724 18.4636 16.4947C18.4523 16.5036 18.4448 16.51 18.4416 16.5128C18.0548 16.8849 17.4423 16.8849 17.0556 16.5128C17.0523 16.51 17.0448 16.5036 17.0335 16.4947C17.0049 16.4724 16.9547 16.4364 16.8859 16.3988C16.7479 16.3236 16.5506 16.25 16.3035 16.25C16.1203 16.25 15.9354 16.3221 15.7912 16.4758ZM17.7486 14.5933C17.3946 14.4153 16.9039 14.25 16.3035 14.25C15.5836 14.25 14.8654 14.5392 14.3322 15.1079C13.7942 15.6818 13.4972 16.481 13.4972 17.4175C13.4972 18.9259 14.5526 20.0866 15.3844 20.7738C15.8273 21.1396 16.2772 21.43 16.6406 21.6319C16.8221 21.7328 16.9918 21.8169 17.1371 21.8792C17.2088 21.91 17.2859 21.9402 17.3625 21.9648L17.3652 21.9656C17.4118 21.9806 17.5663 22.0301 17.7486 22.0301C17.9308 22.0301 18.0853 21.9806 18.1319 21.9656L18.1346 21.9648C18.2112 21.9402 18.2883 21.91 18.36 21.8792C18.5053 21.8169 18.675 21.7328 18.8565 21.6319C19.22 21.43 19.6698 21.1396 20.1127 20.7738C20.9445 20.0866 21.9999 18.9259 21.9999 17.4175C21.9999 16.481 21.7029 15.6818 21.1649 15.1079C20.6317 14.5392 19.9135 14.25 19.1936 14.25C18.5933 14.25 18.1025 14.4153 17.7486 14.5933Z" fill="currentColor" style="fill:currentColor;fill-opacity:1;"/>
</svg>
