<svg width="24" height="24" viewBox="0 0 24 24" fill="none" xmlns="http://www.w3.org/2000/svg">
<path d="M19.657 2.31535C19.2789 1.91281 18.646 1.89301 18.2435 2.27113C17.8409 2.64925 17.8211 3.28211 18.1992 3.68465C21.2668 6.95035 21.2669 12.0496 18.1996 15.3154C17.8215 15.718 17.8414 16.3508 18.2439 16.7289C18.6465 17.107 19.2794 17.0872 19.6575 16.6846C23.4477 12.649 23.4475 6.35072 19.657 2.31535Z" fill="currentColor"/>
<path d="M5.79453 3.69128C6.17223 3.28834 6.15177 2.65551 5.74882 2.27781C5.34588 1.90011 4.71305 1.92058 4.33535 2.32352C0.55249 6.35923 0.554885 12.6518 4.34254 16.6846C4.72063 17.0872 5.35349 17.107 5.75605 16.7289C6.15863 16.3508 6.17847 15.718 5.80037 15.3154C2.73516 12.0518 2.73321 6.95723 5.79453 3.69128Z" fill="currentColor"/>
<path d="M8.39417 5.22934C8.81979 5.58128 8.87953 6.21162 8.52759 6.63725C7.15747 8.29423 7.15747 10.7059 8.52759 12.3629C8.87953 12.7885 8.81979 13.4189 8.39417 13.7708C7.96854 14.1228 7.3382 14.063 6.98626 13.6374C5.00458 11.2408 5.00458 7.75936 6.98626 5.36276C7.3382 4.93714 7.96854 4.8774 8.39417 5.22934Z" fill="currentColor"/>
<path d="M15.6058 5.22934C16.0315 4.8774 16.6618 4.93714 17.0137 5.36276C18.9954 7.75936 18.9954 11.2408 17.0137 13.6374C16.6618 14.063 16.0315 14.1228 15.6058 13.7708C15.1802 13.4189 15.1205 12.7885 15.4724 12.3629C16.8425 10.7059 16.8425 8.29423 15.4724 6.63725C15.1205 6.21162 15.1802 5.58128 15.6058 5.22934Z" fill="currentColor"/>
<path fill-rule="evenodd" clip-rule="evenodd" d="M9.5 9.5C9.5 8.11929 10.6193 7 12 7C13.3807 7 14.5 8.11929 14.5 9.5C14.5 10.2014 14.2112 10.8352 13.746 11.2892L16.9465 20.6773C17.1247 21.2001 16.8454 21.7683 16.3227 21.9465C15.7999 22.1247 15.2317 21.8454 15.0535 21.3227L14.2617 19H9.73833L8.94651 21.3227C8.7683 21.8454 8.20007 22.1247 7.67733 21.9465C7.15458 21.7683 6.87528 21.2001 7.05349 20.6773L10.254 11.2892C9.7888 10.8352 9.5 10.2014 9.5 9.5ZM10.4201 17H13.5799L12 12.3658L10.4201 17Z" fill="currentColor"/>
</svg>
