<svg width="24" height="24" viewBox="0 0 24 24" fill="none" xmlns="http://www.w3.org/2000/svg">
<path fill-rule="evenodd" clip-rule="evenodd" d="M11 3C11 2.44772 11.4477 2 12 2H15.5C15.8729 2 16.2148 2.20746 16.387 2.53819C16.5592 2.86892 16.5331 3.26799 16.3192 3.57346L13.9207 7H15.5C16.0523 7 16.5 7.44772 16.5 8C16.5 8.55228 16.0523 9 15.5 9H12C11.6271 9 11.2852 8.79254 11.113 8.46181C10.9408 8.13108 10.9669 7.73201 11.1808 7.42654L13.5793 4H12C11.4477 4 11 3.55228 11 3ZM3 9C3 8.44772 3.44772 8 4 8H8C8.3688 8 8.70766 8.20298 8.88168 8.52814C9.0557 8.8533 9.03662 9.24784 8.83205 9.5547L5.86852 14H8C8.55229 14 9 14.4477 9 15C9 15.5523 8.55229 16 8 16H4C3.63121 16 3.29235 15.797 3.11833 15.4719C2.94431 15.1467 2.96338 14.7522 3.16795 14.4453L6.13148 10H4C3.44772 10 3 9.55228 3 9ZM12 13C12 12.4477 12.4477 12 13 12H19C19.3788 12 19.725 12.214 19.8944 12.5528C20.0638 12.8916 20.0273 13.297 19.8 13.6L15 20H19C19.5523 20 20 20.4477 20 21C20 21.5523 19.5523 22 19 22H13C12.6212 22 12.275 21.786 12.1056 21.4472C11.9362 21.1084 11.9727 20.703 12.2 20.4L17 14H13C12.4477 14 12 13.5523 12 13Z" fill="currentColor" style="fill:currentColor;fill-opacity:1;"/>
</svg>
