<svg width="24" height="24" viewBox="0 0 24 24" fill="none" xmlns="http://www.w3.org/2000/svg">
  <path
    d="M21.665 16.763C19.705 16.253 18.205 15.074 17.445 13.453C17.445 13.453 17.445 13.449 17.449 13.446L19.274 12.024C19.69 11.699 19.857 11.144 19.69 10.643C19.5941 10.3574 19.3985 10.1159 19.1389 9.96288C18.8794 9.80987 18.5733 9.75559 18.277 9.81L17.001 10.039C17.351 7.899 16.933 5.999 15.824 4.69C14.902 3.6 13.543 3 12 3C10.457 3 9.098 3.6 8.175 4.691C7.065 6.001 6.648 7.901 7.005 10.055C6.459 9.956 5.731 9.818 5.731 9.818C5.43389 9.75869 5.12536 9.81002 4.86346 9.96233C4.60156 10.1146 4.40437 10.3574 4.309 10.645C4.142 11.145 4.309 11.698 4.725 12.022L6.558 13.444C5.794 15.074 4.295 16.254 2.335 16.764L2 16.85L2.025 17.197C2.051 17.541 2.181 17.816 2.411 18.012C2.883 18.416 3.62 18.352 4.268 18.296C4.541 18.272 4.951 18.236 5.025 18.259C5.341 18.655 5.35 19.245 5.35 19.249V19.666H7.428C7.886 19.666 8.468 19.988 9.086 20.33C9.936 20.8 10.898 21.332 12 21.332C13.102 21.332 14.065 20.8 14.914 20.33C15.531 19.988 16.114 19.666 16.572 19.666L18.647 19.664L18.65 19.251C18.65 19.245 18.66 18.655 18.941 18.29C19.048 18.237 19.46 18.273 19.731 18.296C20.38 18.351 21.117 18.416 21.589 18.012C21.819 17.816 21.949 17.542 21.975 17.197L22 16.85L21.665 16.762V16.763Z"
    fill="currentColor" />
</svg>
