<svg width="24" height="24" viewBox="0 0 24 24" fill="none" xmlns="http://www.w3.org/2000/svg">
<path fill-rule="evenodd" clip-rule="evenodd" d="M8.78924 2.29289C9.17976 1.90237 9.81292 1.90237 10.2034 2.29289L11.9963 4.08579L13.7892 2.29289C14.1798 1.90237 14.8129 1.90237 15.2034 2.29289C15.594 2.68342 15.594 3.31658 15.2034 3.70711L12.9963 5.91421V10.2687L16.768 8.09106L17.5759 5.07609C17.7188 4.54263 18.2672 4.22604 18.8006 4.36899C19.3341 4.51193 19.6507 5.06027 19.5078 5.59373L18.8515 8.04287L21.3006 8.69911C21.8341 8.84205 22.1507 9.39039 22.0078 9.92386C21.8648 10.4573 21.3165 10.7739 20.783 10.631L17.768 9.82311L13.9976 12L17.768 14.1768L20.783 13.369C21.3165 13.226 21.8648 13.5426 22.0078 14.0761C22.1507 14.6096 21.8341 15.1579 21.3006 15.3008L18.8515 15.9571L19.5078 18.4062C19.6507 18.9397 19.3341 19.488 18.8006 19.631C18.2672 19.7739 17.7188 19.4573 17.5759 18.9239L16.768 15.9089L12.9963 13.7313V18.0858L15.2034 20.2929C15.594 20.6834 15.594 21.3166 15.2034 21.7071C14.8129 22.0976 14.1798 22.0976 13.7892 21.7071L11.9963 19.9142L10.2034 21.7071C9.81292 22.0976 9.17976 22.0976 8.78924 21.7071C8.39871 21.3166 8.39871 20.6834 8.78924 20.2929L10.9963 18.0858V13.7328L7.22716 15.9089L6.4193 18.9239C6.27636 19.4573 5.72802 19.7739 5.19455 19.631C4.66109 19.488 4.34451 18.9397 4.48745 18.4062L5.14369 15.9571L2.69455 15.3008C2.16109 15.1579 1.84451 14.6096 1.98745 14.0761C2.13039 13.5426 2.67873 13.226 3.21219 13.369L6.22716 14.1768L9.9976 12L6.22716 9.82311L3.21219 10.631C2.67873 10.7739 2.13039 10.4573 1.98745 9.92386C1.84451 9.39039 2.16109 8.84205 2.69455 8.69911L5.14369 8.04287L4.48745 5.59373C4.34451 5.06027 4.66109 4.51193 5.19455 4.36899C5.72802 4.22604 6.27636 4.54263 6.4193 5.07609L7.22716 8.09106L10.9963 10.2672V5.91421L8.78924 3.70711C8.39871 3.31658 8.39871 2.68342 8.78924 2.29289Z" fill="currentColor" style="fill:currentColor;fill-opacity:1;"/>
</svg>
