<svg width="24" height="24" viewBox="0 0 24 24" fill="none" xmlns="http://www.w3.org/2000/svg">
<path fill-rule="evenodd" clip-rule="evenodd" d="M15.3145 4.7165L14.3511 5.41641C12.9492 6.43498 11.0508 6.43499 9.64886 5.41641L8.68552 4.7165C7.70018 5.16572 6.82112 5.80955 6.09797 6.59935L6.46518 7.72949C7.00067 9.37758 6.41404 11.183 5.01209 12.2016L4.05004 12.9006C4.17282 13.9979 4.51741 15.0274 5.03811 15.9443H6.22815C7.96105 15.9443 9.49688 17.0601 10.0324 18.7082L10.4002 19.8402C10.9164 19.9449 11.4513 20 12 20C12.5487 20 13.0836 19.9449 13.5998 19.8402L13.9676 18.7082C14.5031 17.0601 16.0389 15.9443 17.7719 15.9443H18.9619C19.4826 15.0274 19.8272 13.9979 19.95 12.9006L18.9879 12.2016C17.586 11.1831 16.9993 9.37758 17.5348 7.72949L17.902 6.59935C17.1789 5.80955 16.2998 5.16572 15.3145 4.7165ZM8.46638 2.64253C9.56638 2.22695 10.7578 2 12 2C13.2422 2 14.4336 2.22695 15.5336 2.64253C17.2253 3.28166 18.6968 4.3653 19.8066 5.74987C21.1786 7.46163 22 9.63626 22 12C22 12.1562 21.9964 12.3117 21.9893 12.4664C21.9042 14.3176 21.3152 16.039 20.3566 17.4943C19.0376 19.4968 17.017 20.9982 14.6411 21.6473C13.7986 21.8774 12.9128 22 12 22C11.0872 22 10.2014 21.8774 9.3589 21.6473C6.98303 20.9982 4.96244 19.4968 3.64343 17.4943C2.68484 16.039 2.09583 14.3176 2.0107 12.4664C2.00359 12.3117 2 12.1562 2 12C2 9.63626 2.82136 7.46163 4.19344 5.74987C5.30325 4.3653 6.77466 3.28166 8.46638 2.64253ZM9.98563 9.22746C11.1868 8.35478 12.8132 8.35478 14.0144 9.22746C15.2155 10.1001 15.7181 11.647 15.2593 13.059C14.8005 14.471 13.4847 15.4271 12 15.4271C10.5153 15.4271 9.19947 14.471 8.74068 13.059C8.28189 11.647 8.78449 10.1001 9.98563 9.22746Z" fill="currentColor" style="fill:currentColor;fill-opacity:1;"/>
</svg>
