<svg width="24" height="24" viewBox="0 0 24 24" fill="none" xmlns="http://www.w3.org/2000/svg">
<path d="M12.9982 15H16.3388C18.863 15 20.7561 12.6907 20.2611 10.2155L20.218 10H12.9982V15Z" fill="currentColor" style="fill:currentColor;fill-opacity:1;"/>
<path d="M10.9982 15V19H4.9982C4.44591 19 3.9982 19.4477 3.9982 20C3.9982 20.5523 4.44591 21 4.9982 21H18.9982C19.5505 21 19.9982 20.5523 19.9982 20C19.9982 19.4477 19.5505 19 18.9982 19H12.9982V15H10.9982Z" fill="currentColor" style="fill:currentColor;fill-opacity:1;"/>
<path d="M10.9982 15V10H3.77839L3.73529 10.2155C3.24025 12.6907 5.13342 15 7.65761 15H10.9982Z" fill="currentColor" style="fill:currentColor;fill-opacity:1;"/>
<path d="M12.9982 8H19.818L19.4611 6.21554C19.0872 4.34584 17.4455 3 15.5388 3H12.9982V8Z" fill="currentColor" style="fill:currentColor;fill-opacity:1;"/>
<path d="M10.9982 3V8H4.17839L4.53529 6.21554C4.90922 4.34584 6.55088 3 8.45761 3H10.9982Z" fill="currentColor" style="fill:currentColor;fill-opacity:1;"/>
</svg>
