<svg width="25" height="24" viewBox="0 0 25 24" fill="none" xmlns="http://www.w3.org/2000/svg">
<path d="M13.75 3C13.75 2.44772 13.3023 2 12.75 2C12.1977 2 11.75 2.44772 11.75 3C11.75 6.18838 11.081 8.25562 9.8678 9.53621C8.66616 10.8046 6.73995 11.5 3.75 11.5C3.19772 11.5 2.75 11.9477 2.75 12.5C2.75 13.0523 3.19772 13.5 3.75 13.5C6.73995 13.5 8.66616 14.1954 9.8678 15.4638C11.081 16.7444 11.75 18.8116 11.75 22C11.75 22.5523 12.1977 23 12.75 23C13.3023 23 13.75 22.5523 13.75 22C13.75 18.8116 14.419 16.7444 15.6322 15.4638C16.8338 14.1954 18.76 13.5 21.75 13.5C22.3023 13.5 22.75 13.0523 22.75 12.5C22.75 11.9477 22.3023 11.5 21.75 11.5C18.76 11.5 16.8338 10.8046 15.6322 9.53621C14.419 8.25562 13.75 6.18838 13.75 3Z" fill="currentColor" style="fill:currentColor;fill-opacity:1;"/>
</svg>
