<svg width="25" height="24" viewBox="0 0 25 24" fill="none" xmlns="http://www.w3.org/2000/svg">
<path d="M8.75 16C8.75 16.5523 9.19772 17 9.75 17C10.3023 17 10.75 16.5523 10.75 16C10.75 13.6915 11.2608 12.2576 12.1342 11.3842C13.0076 10.5108 14.4415 10 16.75 10C17.3023 10 17.75 9.55228 17.75 9C17.75 8.44772 17.3023 8 16.75 8C14.4415 8 13.0076 7.48919 12.1342 6.61581C11.2608 5.74243 10.75 4.30849 10.75 2C10.75 1.44772 10.3023 1 9.75 1C9.19772 1 8.75 1.44772 8.75 2C8.75 4.30849 8.23919 5.74243 7.36581 6.61581C6.49243 7.48919 5.05849 8 2.75 8C2.19772 8 1.75 8.44772 1.75 9C1.75 9.55228 2.19772 10 2.75 10C5.05849 10 6.49243 10.5108 7.36581 11.3842C8.23919 12.2576 8.75 13.6915 8.75 16Z" fill="currentColor" style="fill:currentColor;fill-opacity:1;"/>
<path d="M17.25 22C17.25 22.5523 17.6977 23 18.25 23C18.8023 23 19.25 22.5523 19.25 22C19.25 20.5596 19.5698 19.7506 20.0352 19.2852C20.5006 18.8198 21.3096 18.5 22.75 18.5C23.3023 18.5 23.75 18.0523 23.75 17.5C23.75 16.9477 23.3023 16.5 22.75 16.5C21.3096 16.5 20.5006 16.1802 20.0352 15.7148C19.5698 15.2494 19.25 14.4404 19.25 13C19.25 12.4477 18.8023 12 18.25 12C17.6977 12 17.25 12.4477 17.25 13C17.25 14.4404 16.9302 15.2494 16.4648 15.7148C15.9994 16.1802 15.1904 16.5 13.75 16.5C13.1977 16.5 12.75 16.9477 12.75 17.5C12.75 18.0523 13.1977 18.5 13.75 18.5C15.1904 18.5 15.9994 18.8198 16.4648 19.2852C16.9302 19.7506 17.25 20.5596 17.25 22Z" fill="currentColor" style="fill:currentColor;fill-opacity:1;"/>
</svg>
