<svg width="24" height="24" viewBox="0 0 24 24" fill="none" xmlns="http://www.w3.org/2000/svg">
<path d="M8 5.00001L8.0001 13.5M4.0001 12L11.5 16.3301M8 18.9283L15.5 14.5982M16.0001 18.9283L16 10.5M20.0001 12L12.5 7.66983M16.1246 5.00001L8.5 9.40206M4.83984 6.13398L10.5001 2.86604C11.4283 2.33014 12.5719 2.33014 13.5001 2.86604L19.1604 6.13398C20.0886 6.66988 20.6604 7.66026 20.6604 8.73206V15.268C20.6604 16.3398 20.0886 17.3301 19.1604 17.866L13.5001 21.134C12.5719 21.6699 11.4283 21.6699 10.5001 21.134L4.83984 17.866C3.91164 17.3301 3.33984 16.3398 3.33984 15.268V8.73206C3.33984 7.66026 3.91164 6.66988 4.83984 6.13398Z" stroke="currentColor" stroke-width="2" stroke-linecap="round" stroke-linejoin="round"/>
</svg>
