<svg width="24" height="24" viewBox="0 0 24 24" fill="none" xmlns="http://www.w3.org/2000/svg">
<path d="M12 12C10.8954 12 10 12.8954 10 14C10 15.1046 10.8954 16 12 16C13.1046 16 14 15.1046 14 14C14 12.8954 13.1046 12 12 12Z" fill="currentColor" style="fill:currentColor;fill-opacity:1;"/>
<path fill-rule="evenodd" clip-rule="evenodd" d="M8 2C5.79086 2 4 3.79086 4 6V18C4 20.2091 5.79086 22 8 22H16C18.2091 22 20 20.2091 20 18V6C20 3.79086 18.2091 2 16 2H8ZM8 14C8 11.7909 9.79086 10 12 10C14.2091 10 16 11.7909 16 14C16 16.2091 14.2091 18 12 18C9.79086 18 8 16.2091 8 14ZM10 6C9.44772 6 9 6.44772 9 7C9 7.55228 9.44772 8 10 8H14C14.5523 8 15 7.55228 15 7C15 6.44772 14.5523 6 14 6H10Z" fill="currentColor" style="fill:currentColor;fill-opacity:1;"/>
</svg>
