<svg width="24" height="24" viewBox="0 0 24 24" fill="none" xmlns="http://www.w3.org/2000/svg">
<path fill-rule="evenodd" clip-rule="evenodd" d="M3 5C3 3.89543 3.89543 3 5 3H10C10.5523 3 11 3.44772 11 4C11 4.55228 10.5523 5 10 5H6.41421L10.9571 9.54289C11.3476 9.93342 11.3476 10.5666 10.9571 10.9571C10.5666 11.3476 9.93342 11.3476 9.54289 10.9571L5 6.41421V10C5 10.5523 4.55228 11 4 11C3.44772 11 3 10.5523 3 10V5ZM13 7C13 6.44772 13.4477 6 14 6H18C20.2091 6 22 7.79086 22 10V18C22 20.2091 20.2091 22 18 22H10C7.79086 22 6 20.2091 6 18V14C6 13.4477 6.44772 13 7 13C7.55228 13 8 13.4477 8 14V18C8 19.1046 8.89543 20 10 20H18C19.1046 20 20 19.1046 20 18V10C20 8.89543 19.1046 8 18 8H14C13.4477 8 13 7.55228 13 7Z" fill="currentColor" style="fill:currentColor;fill-opacity:1;"/>
</svg>
