<svg width="24" height="24" viewBox="0 0 24 24" fill="none" xmlns="http://www.w3.org/2000/svg">
<path fill-rule="evenodd" clip-rule="evenodd" d="M12 1.75C9.32508 1.75 7.11729 2.7197 5.58177 4.34466C4.05413 5.96128 3.25 8.16402 3.25 10.5395C3.25 13.2635 3.58032 15.5784 5.42615 17.8638C5.63653 18.1243 5.83916 18.4003 6.04443 18.6911C6.4204 19.2237 7.11527 20.0956 8.09562 20.8419C9.07824 21.5901 10.3994 22.25 12 22.25C13.6006 22.25 14.9218 21.5901 15.9044 20.8419C16.8847 20.0956 17.5796 19.2237 17.9556 18.6911C18.1608 18.4003 18.3635 18.1243 18.5738 17.8638C20.4197 15.5784 20.75 13.2635 20.75 10.5395C20.75 8.16402 19.9459 5.96128 18.4182 4.34466C16.8827 2.7197 14.6749 1.75 12 1.75ZM5.25841 11.2204C5.31586 13.4008 5.68769 15.0045 6.98206 16.6071C7.05955 16.7031 7.13528 16.7997 7.2094 16.8967C7.64899 15.7858 8.73273 15 10 15H14C15.2673 15 16.351 15.7858 16.7906 16.8967C16.8647 16.7997 16.9405 16.7031 17.0179 16.6071C18.3123 15.0045 18.6841 13.4008 18.7416 11.2204L17.7425 11.4701C17.7312 11.473 17.7199 11.4756 17.7086 11.478C17.4824 12.7689 16.3557 13.75 15 13.75C13.4812 13.75 12.25 12.5188 12.25 11L12.2501 10.9759C12.0836 10.9631 11.9164 10.9631 11.7499 10.976L11.75 11C11.75 12.5188 10.5188 13.75 9 13.75C7.64425 13.75 6.51765 12.7689 6.2914 11.478C6.28008 11.4756 6.26877 11.473 6.25746 11.4701L5.25841 11.2204ZM9.30715 19.2507C9.20079 19.1697 9.09836 19.0864 8.99999 19.0019L9 19V18C9 17.4477 9.44772 17 10 17H14C14.5523 17 15 17.4477 15 18V19L15 19.0019C14.9016 19.0864 14.7992 19.1697 14.6929 19.2507C14.5846 19.3331 14.4733 19.4123 14.3591 19.4877C14.3078 19.4017 14.2427 19.322 14.1638 19.252C13.5653 18.7209 12.6938 18.5528 12 18.5527C11.3063 18.5527 10.4347 18.7208 9.83623 19.252C9.75735 19.322 9.69216 19.4017 9.64086 19.4877C9.52666 19.4123 9.4154 19.3331 9.30715 19.2507ZM6.68476 9.51541C7.17385 8.75425 8.02804 8.25 9 8.25C9.97217 8.25 10.8265 8.75446 11.3156 9.51589C11.7694 9.44979 12.2306 9.44978 12.6845 9.51586C13.1735 8.75445 14.0278 8.25 15 8.25C15.972 8.25 16.8261 8.75424 17.3152 9.5154L18.1347 9.31054C18.0912 9.23497 18.0494 9.1591 18.0093 9.08368C17.7902 8.67182 17.5885 8.21076 17.4081 7.75659C17.1042 6.9914 16.8402 6.19098 16.6486 5.61007L16.6482 5.60884C16.6143 5.50633 16.5828 5.41068 16.5537 5.32327C16.1117 4.93744 15.603 4.60907 15.0295 4.35371C14.0777 5.06814 13.0774 5.50005 12 5.50005C10.9227 5.50005 9.92238 5.06813 8.97061 4.35368C8.397 4.60904 7.88836 4.93743 7.44634 5.32327C7.41717 5.41081 7.38556 5.50663 7.35169 5.60932C7.16006 6.19023 6.89578 6.99138 6.59189 7.75659C6.41153 8.21076 6.20976 8.67182 5.99068 9.08368C5.95057 9.1591 5.90878 9.23497 5.86529 9.31054L6.68476 9.51541ZM13.75 11C13.75 10.3096 14.3096 9.75 15 9.75C15.6904 9.75 16.25 10.3096 16.25 11C16.25 11.6904 15.6904 12.25 15 12.25C14.3096 12.25 13.75 11.6904 13.75 11ZM9 9.75C8.30964 9.75 7.75 10.3096 7.75 11C7.75 11.6904 8.30964 12.25 9 12.25C9.69036 12.25 10.25 11.6904 10.25 11C10.25 10.3096 9.69036 9.75 9 9.75Z" fill="currentColor" style="fill:currentColor;fill-opacity:1;"/>
</svg>
