<svg width="24" height="24" viewBox="0 0 24 24" fill="none" xmlns="http://www.w3.org/2000/svg">
<path d="M15 20V17C15 15.3431 13.6569 14 12 14C10.3431 14 9 15.3431 9 17V20M8 4V7M8 7C8 8.10457 7.10457 9 6 9C4.89543 9 4 8.10457 4 7M8 7C8 8.10457 8.89543 9 10 9C11.1046 9 12 8.10457 12 7M4 7V17C4 18.6569 5.34315 20 7 20H17C18.6569 20 20 18.6569 20 17V7M4 7C4 5.34315 5.34315 4 7 4H17C18.6569 4 20 5.34315 20 7M12 4V7M12 7C12 8.10457 12.8954 9 14 9C15.1046 9 16 8.10457 16 7M16 4V7M16 7C16 8.10457 16.8954 9 18 9C19.1046 9 20 8.10457 20 7" stroke="currentColor" stroke-width="2" stroke-linecap="round" stroke-linejoin="round"/>
</svg>
