<svg width="24" height="24" viewBox="0 0 24 24" fill="none" xmlns="http://www.w3.org/2000/svg">
<path d="M13 17C12.4477 17 12 17.4477 12 18C12 18.5523 12.4477 19 13 19C13.5523 19 14 18.5523 14 18C14 17.4477 13.5523 17 13 17Z" fill="currentColor" style="fill:currentColor;fill-opacity:1;"/>
<path d="M16 17C15.4477 17 15 17.4477 15 18C15 18.5523 15.4477 19 16 19C16.5523 19 17 18.5523 17 18C17 17.4477 16.5523 17 16 17Z" fill="currentColor" style="fill:currentColor;fill-opacity:1;"/>
<path fill-rule="evenodd" clip-rule="evenodd" d="M8 2C5.79086 2 4 3.79086 4 6V18C4 20.2091 5.79086 22 8 22H16C18.2091 22 20 20.2091 20 18V6C20 3.79086 18.2091 2 16 2H8ZM8 20C6.89543 20 6 19.1046 6 18C6 16.8954 6.89543 16 8 16H16C17.1046 16 18 16.8954 18 18C18 19.1046 17.1046 20 16 20H8Z" fill="currentColor" style="fill:currentColor;fill-opacity:1;"/>
</svg>
