<svg width="24" height="24" viewBox="0 0 24 24" fill="none" xmlns="http://www.w3.org/2000/svg">
<path d="M10.3591 3.58881C11.2748 2.70298 12.728 2.70298 13.6437 3.58881C14.1673 4.09537 14.8954 4.33194 15.6168 4.22991C16.8782 4.05148 18.0539 4.90565 18.274 6.16053C18.3999 6.87812 18.8499 7.49747 19.4935 7.83893C20.6189 8.43606 21.068 9.81815 20.5085 10.9627C20.1885 11.6173 20.1885 12.3828 20.5085 13.0374C21.068 14.182 20.6189 15.5641 19.4935 16.1612C18.8499 16.5027 18.3999 17.122 18.274 17.8396C18.0539 19.0945 16.8782 19.9486 15.6168 19.7702C14.8954 19.6682 14.1673 19.9048 13.6437 20.4113C12.728 21.2971 11.2748 21.2971 10.3591 20.4113C9.83548 19.9048 9.10739 19.6682 8.38602 19.7702C7.12454 19.9486 5.94887 19.0945 5.72875 17.8396C5.60287 17.122 5.15289 16.5027 4.50931 16.1612C3.38388 15.5641 2.93481 14.182 3.49433 13.0374C3.81428 12.3828 3.81428 11.6173 3.49433 10.9627C2.93481 9.81815 3.38388 8.43606 4.50931 7.83893C5.15289 7.49747 5.60287 6.87812 5.72875 6.16053C5.94887 4.90565 7.12454 4.05148 8.38602 4.22991C9.10739 4.33194 9.83548 4.09537 10.3591 3.58881Z" stroke="currentColor" stroke-width="2" stroke-linejoin="round"/>
<path d="M11.3268 8.11278C11.6019 7.55534 12.3968 7.55534 12.6719 8.11278L13.3678 9.52279C13.477 9.74414 13.6882 9.89757 13.9325 9.93307L15.4885 10.1592C16.1037 10.2486 16.3493 11.0045 15.9042 11.4384L14.7782 12.536C14.6014 12.7083 14.5208 12.9565 14.5625 13.1998L14.8283 14.7496C14.9334 15.3623 14.2903 15.8295 13.7401 15.5402L12.3483 14.8085C12.1298 14.6937 11.8688 14.6937 11.6503 14.8085L10.2586 15.5402C9.70834 15.8295 9.06527 15.3623 9.17035 14.7496L9.43616 13.1998C9.47788 12.9565 9.39722 12.7083 9.22046 12.536L8.0945 11.4384C7.64936 11.0045 7.89499 10.2486 8.51016 10.1592L10.0662 9.93307C10.3105 9.89757 10.5217 9.74414 10.6309 9.52279L11.3268 8.11278Z" fill="currentColor"/>
</svg>
