<svg width="24" height="24" viewBox="0 0 24 24" fill="none" xmlns="http://www.w3.org/2000/svg">
<path fill-rule="evenodd" clip-rule="evenodd" d="M2 6C2 3.79086 3.79086 2 6 2H10.7574C11.8182 2 12.8356 2.42143 13.5858 3.17157L20.8358 10.4216C22.3979 11.9837 22.3979 14.5163 20.8358 16.0784L16.0784 20.8358C14.5163 22.3979 11.9837 22.3979 10.4216 20.8358L3.17157 13.5858C2.42143 12.8356 2 11.8182 2 10.7574V6ZM7.5 9C8.32843 9 9 8.32843 9 7.5C9 6.67157 8.32843 6 7.5 6C6.67157 6 6 6.67157 6 7.5C6 8.32843 6.67157 9 7.5 9Z" fill="currentColor" style="fill:currentColor;fill-opacity:1;"/>
</svg>
