<svg width="24" height="24" viewBox="0 0 24 24" fill="none" xmlns="http://www.w3.org/2000/svg">
<path d="M7.4 7.5H7.6M8 7.5C8 7.77614 7.77614 8 7.5 8C7.22386 8 7 7.77614 7 7.5C7 7.22386 7.22386 7 7.5 7C7.77614 7 8 7.22386 8 7.5ZM3 6V10.7574C3 11.553 3.31607 12.3161 3.87868 12.8787L11.1287 20.1287C12.3003 21.3003 14.1997 21.3003 15.3713 20.1287L20.1287 15.3713C21.3003 14.1997 21.3003 12.3003 20.1287 11.1287L12.8787 3.87868C12.3161 3.31607 11.553 3 10.7574 3H6C4.34315 3 3 4.34315 3 6Z" stroke="currentColor" stroke-width="2" stroke-linecap="square"/>
</svg>
