<svg width="24" height="24" viewBox="0 0 24 24" fill="none" xmlns="http://www.w3.org/2000/svg">
<path fill-rule="evenodd" clip-rule="evenodd" d="M21.2071 4.20711C21.5976 3.81658 21.5976 3.18342 21.2071 2.79289C20.8166 2.40237 20.1834 2.40237 19.7929 2.79289L18.5021 4.08366C16.5538 2.69163 13.9063 2.53389 12.2201 4.22009C10.5339 5.90628 10.6916 8.55377 12.0837 10.5021L11.2929 11.2929C11.2861 11.2996 11.2795 11.3065 11.273 11.3134L9.95654 9.99692C9.17798 9.21837 7.91659 9.21552 7.13452 9.99054L6.58025 10.5398C6.28222 10.8352 6.20047 11.2849 6.37467 11.6659L6.38132 11.6819C6.38905 11.7012 6.40183 11.7349 6.41619 11.7798C6.44573 11.8722 6.47733 11.9977 6.49056 12.1344C6.5175 12.4127 6.46441 12.6248 6.29996 12.7861C6.13183 12.9509 5.91866 12.9987 5.64828 12.9684C5.51465 12.9534 5.39247 12.9206 5.30287 12.8902C5.25932 12.8755 5.22681 12.8625 5.20838 12.8547L5.19349 12.8483C4.81274 12.6658 4.3579 12.7421 4.05752 13.0398L3.50968 13.5827C2.72259 14.3627 2.71972 15.634 3.50327 16.4175L4.83704 17.7513C4.82201 17.7646 4.80729 17.7785 4.79289 17.7929L2.79289 19.7929C2.40237 20.1834 2.40237 20.8166 2.79289 21.2071C3.18342 21.5976 3.81658 21.5976 4.20711 21.2071L6.20711 19.2071C6.2215 19.1927 6.23536 19.178 6.2487 19.163L7.58264 20.4969C8.36619 21.2805 9.63746 21.2776 10.4175 20.4905L14.0096 16.8656C14.7847 16.0836 14.7818 14.8222 14.0033 14.0436L12.6866 12.727C12.6935 12.7205 12.7004 12.7139 12.7071 12.7071L13.4979 11.9163C15.4462 13.3084 18.0937 13.4661 19.7799 11.7799C21.4661 10.0937 21.3084 7.44623 19.9163 5.49788L21.2071 4.20711ZM8.63426 18.6993L7.5 17.5C8 16 10 16 10.5 17.5L9.36003 18.7C9.16261 18.9079 8.83124 18.9075 8.63426 18.6993Z" fill="currentColor" style="fill:currentColor;fill-opacity:1;"/>
</svg>
