<svg width="24" height="24" viewBox="0 0 24 24" fill="none" xmlns="http://www.w3.org/2000/svg">
<path fill-rule="evenodd" clip-rule="evenodd" d="M19.5 9.00023C21.433 9.00023 23 10.5672 23 12.5002C22.9999 14.4331 21.4329 16.0002 19.5 16.0002H18.748C17.8599 19.4506 14.7276 22.0002 11 22.0002C6.58181 22.0002 3.00014 18.4184 3 14.0002V12.0002C3 10.3434 4.34315 9.00023 6 9.00023H19.5ZM18.8262 11.0002C18.9369 11.3132 19 11.6493 19 12.0002V14.0002H19.5C20.3283 14.0002 20.9999 13.3285 21 12.5002C21 11.6718 20.3284 11.0002 19.5 11.0002H18.8262Z" fill="currentColor"/>
<path d="M8.04492 2.6975C8.1978 2.21417 8.6952 1.91614 9.20215 2.02172C9.70876 2.12741 10.0457 2.59887 9.99316 3.10277L9.97656 3.20433C9.81659 3.97282 9.79694 4.70871 9.91699 5.46898L9.97656 5.79613L9.99316 5.89769C10.0456 6.40152 9.70871 6.87309 9.20215 6.97875C8.69529 7.08427 8.19788 6.78614 8.04492 6.30297L8.01953 6.20433L7.94043 5.77562C7.78359 4.77824 7.81049 3.80009 8.01953 2.79613L8.04492 2.6975Z" fill="currentColor"/>
<path d="M12.0449 2.6975C12.1978 2.21417 12.6952 1.91614 13.2021 2.02172C13.7088 2.12741 14.0457 2.59887 13.9932 3.10277L13.9766 3.20433C13.8166 3.97282 13.7969 4.70871 13.917 5.46898L13.9766 5.79613L13.9932 5.89769C14.0456 6.40152 13.7087 6.87309 13.2021 6.97875C12.6953 7.08427 12.1979 6.78614 12.0449 6.30297L12.0195 6.20433L11.9404 5.77562C11.7836 4.77824 11.8105 3.80009 12.0195 2.79613L12.0449 2.6975Z" fill="currentColor"/>
</svg>
