<svg width="24" height="24" viewBox="0 0 24 24" fill="none" xmlns="http://www.w3.org/2000/svg">
<path d="M6 3C4.34315 3 3 4.34315 3 6C3 14.2843 9.71573 21 18 21C19.6569 21 21 19.6569 21 18V16.8541C21 15.339 20.144 13.954 18.7889 13.2764L17.4381 12.601C16.4614 12.1126 15.2817 12.3041 14.5095 13.0762C14.3416 13.2442 14.1435 13.2507 14.0274 13.192C12.5526 12.4454 11.5546 11.4474 10.808 9.97257C10.7493 9.85652 10.7558 9.65844 10.9238 9.49045C11.6959 8.71829 11.8874 7.53865 11.399 6.56192L10.7236 5.21115C10.046 3.85601 8.66099 3 7.1459 3H6Z" fill="currentColor" style="fill:currentColor;fill-opacity:1;"/>
</svg>
