<svg width="24" height="24" viewBox="0 0 24 24" fill="none" xmlns="http://www.w3.org/2000/svg">
<path d="M2 12C2 9.46366 2.94426 7.14786 4.50042 5.38496C6.61295 6.82498 8 9.25051 8 12C8 14.7495 6.61295 17.175 4.50042 18.615C2.94426 16.8521 2 14.5363 2 12Z" fill="currentColor" style="fill:currentColor;fill-opacity:1;"/>
<path d="M10 12C10 8.72836 8.42889 5.82368 6 3.99927C7.67132 2.74389 9.74879 2 12 2C14.2512 2 16.3287 2.74389 18 3.99927C15.5711 5.82368 14 8.72837 14 12C14 15.2716 15.5711 18.1763 18 20.0007C16.3287 21.2561 14.2512 22 12 22C9.74879 22 7.67132 21.2561 6 20.0007C8.42889 18.1763 10 15.2716 10 12Z" fill="currentColor" style="fill:currentColor;fill-opacity:1;"/>
<path d="M19.4996 5.38497C21.0557 7.14786 22 9.46366 22 12C22 14.5363 21.0557 16.8521 19.4996 18.615C17.387 17.175 16 14.7495 16 12C16 9.25051 17.387 6.82498 19.4996 5.38497Z" fill="currentColor" style="fill:currentColor;fill-opacity:1;"/>
</svg>
