<svg width="24" height="24" viewBox="0 0 24 24" fill="none" xmlns="http://www.w3.org/2000/svg">
<path fill-rule="evenodd" clip-rule="evenodd" d="M2.00391 4C2.00391 3.44772 2.45162 3 3.00391 3H11.0039C11.5562 3 12.0039 3.44772 12.0039 4V5.77778C12.0039 6.33006 11.5562 6.77778 11.0039 6.77778C10.4516 6.77778 10.0039 6.33006 10.0039 5.77778V5H8.00391V11H8.33724C8.88952 11 9.33724 11.4477 9.33724 12C9.33724 12.5523 8.88952 13 8.33724 13H5.67057C5.11829 13 4.67057 12.5523 4.67057 12C4.67057 11.4477 5.11829 11 5.67057 11H6.00391V5H4.00391V5.77778C4.00391 6.33006 3.55619 6.77778 3.00391 6.77778C2.45162 6.77778 2.00391 6.33006 2.00391 5.77778V4ZM14.0039 7C14.5562 7 15.0039 7.44772 15.0039 8V20C15.0039 20.5523 14.5562 21 14.0039 21C13.4516 21 13.0039 20.5523 13.0039 20V8C13.0039 7.44772 13.4516 7 14.0039 7ZM17.5039 10C18.0562 10 18.5039 10.4477 18.5039 11V17C18.5039 17.5523 18.0562 18 17.5039 18C16.9516 18 16.5039 17.5523 16.5039 17V11C16.5039 10.4477 16.9516 10 17.5039 10ZM21.0039 12C21.5562 12 22.0039 12.4477 22.0039 13V15C22.0039 15.5523 21.5562 16 21.0039 16C20.4516 16 20.0039 15.5523 20.0039 15V13C20.0039 12.4477 20.4516 12 21.0039 12ZM10.5039 14C11.0562 14 11.5039 14.4477 11.5039 15V17C11.5039 17.5523 11.0562 18 10.5039 18C9.95162 18 9.50391 17.5523 9.50391 17V15C9.50391 14.4477 9.95162 14 10.5039 14Z" fill="currentColor"/>
</svg>
