<svg width="24" height="24" viewBox="0 0 24 24" fill="none" xmlns="http://www.w3.org/2000/svg">
<path fill-rule="evenodd" clip-rule="evenodd" d="M9 6C9 5.44772 9.44772 5 10 5H21C21.5523 5 22 5.44772 22 6C22 6.55228 21.5523 7 21 7H10C9.44772 7 9 6.55228 9 6ZM2.58978 8.42799C2.94871 8.26654 3.36896 8.33064 3.66344 8.59174L6.66344 11.2518C6.87773 11.4418 7.00027 11.7145 7 12.0009C6.99973 12.2873 6.87668 12.5599 6.66203 12.7495L3.66203 15.3995C3.36732 15.6598 2.94739 15.7232 2.58892 15.5616C2.23046 15.3999 2 15.0432 2 14.65V9.33998C2 8.94641 2.23085 8.58944 2.58978 8.42799ZM9 12C9 11.4477 9.44772 11 10 11H21C21.5523 11 22 11.4477 22 12C22 12.5523 21.5523 13 21 13H10C9.44772 13 9 12.5523 9 12ZM9 18C9 17.4477 9.44772 17 10 17H21C21.5523 17 22 17.4477 22 18C22 18.5523 21.5523 19 21 19H10C9.44772 19 9 18.5523 9 18Z" fill="currentColor" style="fill:currentColor;fill-opacity:1;"/>
</svg>
