<svg width="24" height="24" viewBox="0 0 24 24" fill="none" xmlns="http://www.w3.org/2000/svg">
<path d="M7 11.25C7.41421 11.25 7.75 10.6904 7.75 10C7.75 9.30964 7.41421 8.75 7 8.75C6.58579 8.75 6.25 9.30964 6.25 10C6.25 10.6904 6.58579 11.25 7 11.25Z" fill="currentColor" style="fill:currentColor;fill-opacity:1;"/>
<path fill-rule="evenodd" clip-rule="evenodd" d="M3.98425 14.6899C4.5803 15.8819 5.58874 17 7 17H9C9 19.2091 10.7909 21 13 21H17C19.2091 21 21 19.2091 21 17V10C21 8.22156 20.6417 6.56205 20.0157 5.31015C19.4197 4.11805 18.4113 3 17 3H7C5.58874 3 4.5803 4.11805 3.98425 5.31015C3.3583 6.56205 3 8.22156 3 10C3 11.7784 3.3583 13.4379 3.98425 14.6899ZM5.77311 6.20457C5.31327 7.12424 5 8.46473 5 10C5 11.5353 5.31327 12.8758 5.77311 13.7954C6.26285 14.7749 6.7544 15 7 15C7.2456 15 7.73715 14.7749 8.22689 13.7954C8.68673 12.8758 9 11.5353 9 10C9 8.65664 8.76015 7.46241 8.39214 6.56873C8.33956 6.44107 8.28437 6.31953 8.22689 6.20457C7.73715 5.22509 7.2456 5 7 5C6.7544 5 6.26285 5.22509 5.77311 6.20457Z" fill="currentColor" style="fill:currentColor;fill-opacity:1;"/>
</svg>
