<svg width="24" height="24" viewBox="0 0 24 24" fill="none" xmlns="http://www.w3.org/2000/svg">
<path fill-rule="evenodd" clip-rule="evenodd" d="M9.5 3C10.0523 3 10.5 3.44772 10.5 4V12C10.5 12.5523 10.0523 13 9.5 13C8.94772 13 8.5 12.5523 8.5 12V4C8.5 3.44772 8.94772 3 9.5 3ZM4 7C4.55228 7 5 7.44772 5 8V16C5 16.5523 4.55228 17 4 17C3.44772 17 3 16.5523 3 16V8C3 7.44772 3.44772 7 4 7ZM20 7C20.5523 7 21 7.44772 21 8V16C21 16.5523 20.5523 17 20 17C19.4477 17 19 16.5523 19 16V8C19 7.44772 19.4477 7 20 7ZM14.5 11C15.0523 11 15.5 11.4477 15.5 12V20C15.5 20.5523 15.0523 21 14.5 21C13.9477 21 13.5 20.5523 13.5 20V12C13.5 11.4477 13.9477 11 14.5 11Z" fill="currentColor" style="fill:currentColor;fill-opacity:1;"/>
</svg>
