<svg width="24" height="24" viewBox="0 0 24 24" fill="none" xmlns="http://www.w3.org/2000/svg">
<path fill-rule="evenodd" clip-rule="evenodd" d="M22.6247 6.21917C23.056 6.56418 23.1259 7.19347 22.7809 7.62473L16.824 15.0708C15.359 16.902 12.6402 17.0859 10.9419 15.4685L8.5449 13.1857C7.72905 12.4086 6.4327 12.4586 5.67901 13.296L2.7433 16.5579C2.37384 16.9684 1.74155 17.0017 1.33104 16.6322C0.920534 16.2628 0.887255 15.6305 1.25671 15.22L4.19242 11.9581C5.69981 10.2832 8.2925 10.1834 9.92421 11.7374L12.3213 14.0203C13.1704 14.8289 14.5298 14.737 15.2623 13.8214L21.2191 6.37534C21.5641 5.94408 22.1934 5.87416 22.6247 6.21917Z" fill="currentColor" style="fill:currentColor;fill-opacity:1;"/>
</svg>
