<svg width="24" height="24" viewBox="0 0 24 24" fill="none" xmlns="http://www.w3.org/2000/svg">
<path fill-rule="evenodd" clip-rule="evenodd" d="M12 22C17.5228 22 22 17.5228 22 12C22 6.47715 17.5228 2 12 2C6.47715 2 2 6.47715 2 12C2 17.5228 6.47715 22 12 22ZM12 10C12 10.5523 12.4477 11 13 11H13.5858L12.2929 12.2929C12.1311 12.4547 11.8689 12.4547 11.7071 12.2929C10.7643 11.3501 9.2357 11.3501 8.29289 12.2929L7.04289 13.5429C6.65237 13.9334 6.65237 14.5666 7.04289 14.9571C7.43342 15.3476 8.06658 15.3476 8.45711 14.9571L9.70711 13.7071C9.86887 13.5453 10.1311 13.5453 10.2929 13.7071C11.2357 14.6499 12.7643 14.6499 13.7071 13.7071L15 12.4142V13C15 13.5523 15.4477 14 16 14C16.5523 14 17 13.5523 17 13V10C17 9.44772 16.5523 9 16 9H13C12.4477 9 12 9.44772 12 10Z" fill="currentColor" style="fill:currentColor;fill-opacity:1;"/>
</svg>
