<svg width="24" height="24" viewBox="0 0 24 24" fill="none" xmlns="http://www.w3.org/2000/svg">
<path fill-rule="evenodd" clip-rule="evenodd" d="M15 7C15 6.44772 15.4477 6 16 6H21C21.5523 6 22 6.44772 22 7V12C22 12.5523 21.5523 13 21 13C20.4477 13 20 12.5523 20 12V9.41421L15.7071 13.7071C14.212 15.2022 11.788 15.2022 10.2929 13.7071C9.57885 12.9931 8.42115 12.9931 7.70711 13.7071L3.70711 17.7071C3.31658 18.0976 2.68342 18.0976 2.29289 17.7071C1.90237 17.3166 1.90237 16.6834 2.29289 16.2929L6.29289 12.2929C7.78799 10.7978 10.212 10.7978 11.7071 12.2929C12.4212 13.0069 13.5788 13.0069 14.2929 12.2929L18.5858 8H16C15.4477 8 15 7.55228 15 7Z" fill="currentColor" style="fill:currentColor;fill-opacity:1;"/>
</svg>
