<svg width="24" height="24" viewBox="0 0 24 24" fill="none" xmlns="http://www.w3.org/2000/svg">
<path fill-rule="evenodd" clip-rule="evenodd" d="M3 4C3.55228 4 4 4.44772 4 5V16C4 17.1046 4.89543 18 6 18H21C21.5523 18 22 18.4477 22 19C22 19.5523 21.5523 20 21 20H6C3.79086 20 2 18.2091 2 16V5C2 4.44772 2.44772 4 3 4ZM15 8C14.4477 8 14 7.55228 14 7C14 6.44772 14.4477 6 15 6H19C19.5523 6 20 6.44772 20 7V11C20 11.5523 19.5523 12 19 12C18.4477 12 18 11.5523 18 11V9.41421L14.7071 12.7071C13.7643 13.6499 12.2357 13.6499 11.2929 12.7071C11.1311 12.5453 10.8689 12.5453 10.7071 12.7071L7.70711 15.7071C7.31658 16.0976 6.68342 16.0976 6.29289 15.7071C5.90237 15.3166 5.90237 14.6834 6.29289 14.2929L9.29289 11.2929C10.2357 10.3501 11.7643 10.3501 12.7071 11.2929C12.8689 11.4547 13.1311 11.4547 13.2929 11.2929L16.5858 8H15Z" fill="currentColor" style="fill:currentColor;fill-opacity:1;"/>
</svg>
