<svg width="24" height="24" viewBox="0 0 24 24" fill="none" xmlns="http://www.w3.org/2000/svg">
<path fill-rule="evenodd" clip-rule="evenodd" d="M19.9646 16.9997C19.9764 16.9999 19.9882 17 20 17C21.1046 17 22 16.1046 22 15V8C22 5.79086 20.2091 4 18 4H12C10.5194 4 9.22675 4.8044 8.53513 6H6.60555C5.26814 6 4.01921 6.6684 3.27735 7.7812L2.6718 8.68953C2.23375 9.3466 2 10.1186 2 10.9083V14.2857C2 15.5462 2.85922 16.606 4.02393 16.9114C4.22757 18.6505 5.70619 20 7.5 20C9.26324 20 10.7219 18.6961 10.9646 17H13.0354C13.2781 18.6961 14.7368 20 16.5 20C18.2633 20 19.7221 18.696 19.9646 16.9997ZM8 8L6.60555 8C5.93684 8 5.31238 8.3342 4.94145 8.8906L4.3359 9.79893C4.11688 10.1275 4 10.5135 4 10.9083V14.2857C4 14.5586 4.15308 14.7958 4.37807 14.9161C4.95611 13.779 6.13708 13 7.5 13C7.66976 13 7.8367 13.0121 8 13.0354V8ZM16.5 15C15.6716 15 15 15.6716 15 16.5C15 17.3284 15.6716 18 16.5 18C17.3284 18 18 17.3284 18 16.5C18 15.6716 17.3284 15 16.5 15ZM6 16.5C6 15.6716 6.67157 15 7.5 15C8.32843 15 9 15.6716 9 16.5C9 17.3284 8.32843 18 7.5 18C6.67157 18 6 17.3284 6 16.5Z" fill="currentColor" style="fill:currentColor;fill-opacity:1;"/>
</svg>
