<svg width="24" height="24" viewBox="0 0 24 24" fill="none" xmlns="http://www.w3.org/2000/svg">
<path d="M2.13671 12.855V8H1V12.916C1 14.7634 2.25481 15.9847 3.87869 15.9847C4.67587 15.9847 5.3697 15.6641 5.88639 15.1145V15.8473H7.00834V8H5.87163V12.855C5.87163 14.1069 5.05969 14.9466 4.01155 14.9466C2.94865 14.9313 2.13671 14.1221 2.13671 12.855ZM8.1303 15.8626H9.20796V15.145C9.70988 15.6794 10.4185 16 11.1861 16C12.81 16 14.0944 14.6718 14.0944 13.0076C14.0944 11.3435 12.81 10.0153 11.1861 10.0153C10.4185 10.0153 9.72465 10.3359 9.22272 10.8702V8H8.1303V15.8626ZM9.20796 13.0076C9.20796 11.8931 10.0642 11.0229 11.1123 11.0229C12.1605 11.0229 13.0167 11.8931 13.0167 13.0076C13.0167 14.1069 12.1605 14.9924 11.1123 14.9924C10.0494 14.9924 9.20796 14.1069 9.20796 13.0076ZM14.7439 12.9924C14.7439 14.7023 16.0282 15.9847 17.6816 15.9847C18.6855 15.9847 19.5122 15.5267 20.0732 14.7634L19.276 14.1527C18.8626 14.7176 18.3164 14.9924 17.6816 14.9924C16.7516 14.9924 15.9987 14.2901 15.8511 13.3588H20.3537V12.9924C20.3537 11.2824 19.1874 10.0153 17.5931 10.0153C15.9692 10.0153 14.7439 11.374 14.7439 12.9924ZM17.5635 11.0076C18.3755 11.0076 19.0546 11.5878 19.2465 12.4733H15.8659C16.0725 11.5878 16.7516 11.0076 17.5635 11.0076ZM24 11.145V10.0916H23.6162C23.0109 10.0916 22.568 10.3817 22.2875 10.8397V10.1374H21.2246V15.8626H22.3171V12.5954C22.3171 11.7099 22.8338 11.1298 23.5571 11.1298H24V11.145Z" fill="currentColor"/>
</svg>
