<svg width="24" height="24" viewBox="0 0 24 24" fill="none" xmlns="http://www.w3.org/2000/svg">
<path d="M15.5514 3.60589C16.2163 3.27344 16.9986 3.75693 16.9986 4.50031V6.73475L17.0055 6.74686L22.2005 3.92612C22.6676 3.67252 23.1554 4.22632 22.8449 4.65766L18.9986 10.0004C19.7005 11.2288 20.3416 12.2021 20.8474 13.4212C21.3947 14.7408 20.7891 16.1701 19.8613 17.2564L19.3976 17.7993C19.0621 18.1922 18.5868 18.4493 18.0837 18.4322C17.9493 18.4277 17.8188 18.3853 17.6942 18.3347C14.9537 17.2228 13.9465 16.477 11.6454 15.4418C11.9316 16.8107 11.9419 18.2594 11.978 19.6821C11.9944 20.3264 11.4174 20.8357 10.7827 20.7239L1.82509 19.1459C1.34709 19.0617 0.996061 18.6485 1.01647 18.1636C1.27591 11.9997 4.39632 2.97115 12.9834 4.88985L15.5514 3.60589Z" fill="currentColor" style="fill:currentColor;fill-opacity:1;"/>
</svg>
