<svg width="24" height="24" viewBox="0 0 24 24" fill="none" xmlns="http://www.w3.org/2000/svg">
<path fill-rule="evenodd" clip-rule="evenodd" d="M7.73863 3.10969C8.71852 1.22271 10.839 0.101853 13.0443 0.49055C15.2495 0.87941 16.8584 2.65779 17.1341 4.76594L20.808 5.41438L20.9076 5.43684C21.3951 5.57493 21.7084 6.06277 21.6185 6.57258C21.5285 7.08226 21.0672 7.43378 20.5619 7.3968L20.4603 7.38313L19.9476 7.29231L19.1908 18.2757C19.0459 20.3727 17.3016 22.0001 15.1996 22.0003H8.80016C6.69818 22.0002 4.95486 20.3727 4.80992 18.2757L4.10582 8.06868C4.06623 7.49088 4.52465 7.00032 5.10387 7.00032H18.2884L3.71813 4.43196C3.17445 4.33587 2.8117 3.81654 2.90758 3.27278C3.00362 2.72907 3.52201 2.36638 4.06578 2.46223L7.73863 3.10969ZM12.7074 10.2933C12.3413 9.92719 11.7623 9.90463 11.3695 10.2249L11.2933 10.2933L8.79332 12.7933C8.40285 13.1838 8.40281 13.8168 8.79332 14.2073C9.18386 14.5974 9.817 14.5977 10.2074 14.2073L11.0004 13.4144V17.0003C11.0006 17.5524 11.4482 18.0003 12.0004 18.0003C12.5523 18.0001 13.0001 17.5523 13.0004 17.0003V13.4144L13.7933 14.2073L13.8695 14.2757C14.2622 14.5956 14.8414 14.5733 15.2074 14.2073C15.5733 13.8414 15.5957 13.2622 15.2757 12.8695L15.2074 12.7933L12.7074 10.2933ZM12.6966 2.46028C11.6041 2.26787 10.5448 2.69409 9.87828 3.48664L14.9955 4.38899C14.64 3.41602 13.7895 2.65298 12.6966 2.46028Z" fill="currentColor"/>
</svg>
