<svg width="24" height="24" viewBox="0 0 24 24" fill="none" xmlns="http://www.w3.org/2000/svg">
<path d="M7.99931 13C8.80092 13 9.57112 13.1366 10.2884 13.3848L9.11259 17.5H6.99931C5.61873 17.5002 4.49931 18.6194 4.49931 20C4.49931 20.3558 4.5753 20.6936 4.70927 21H1.99931C1.44715 20.9998 0.994401 20.5506 1.04716 20.001C1.40653 16.2578 3.79537 13.0001 7.99931 13Z" fill="currentColor"/>
<path d="M20.5413 12C21.8926 12.0002 22.8798 13.2531 22.5921 14.5508L22.5599 14.6768L21.1683 19.5498C20.9229 20.4081 20.1381 20.9998 19.2454 21H6.99931C6.44715 20.9998 5.99931 20.5522 5.99931 20C5.99931 19.4478 6.44715 19.0002 6.99931 19H10.2444L11.7268 13.8135L11.7923 13.6162C12.1567 12.6506 13.0847 12.0001 14.1311 12H20.5413Z" fill="currentColor"/>
<path d="M8.49931 3.5C10.7084 3.5 12.4993 5.29086 12.4993 7.5C12.4993 9.70914 10.7084 11.5 8.49931 11.5C6.29029 11.4998 4.49931 9.70905 4.49931 7.5C4.49931 5.29095 6.29029 3.50015 8.49931 3.5Z" fill="currentColor"/>
<path d="M18.5003 2C18.7481 2.00035 18.9566 2.18641 18.9847 2.43262C19.1564 3.94882 20.0158 4.87694 21.555 5.01367C21.8069 5.03605 21.9996 5.24809 21.9993 5.50098C21.9988 5.75364 21.8057 5.96448 21.554 5.98633C20.0366 6.11768 19.117 7.03726 18.9856 8.55469C18.9636 8.80638 18.753 8.99964 18.5003 9C18.2475 9.00028 18.0365 8.8074 18.014 8.55566C17.8772 7.0166 16.9489 6.15621 15.4329 5.98438C15.1867 5.95648 14.9998 5.74874 14.9993 5.50098C14.9991 5.253 15.1856 5.04404 15.4319 5.01563C16.9697 4.83813 17.8376 3.96953 18.0149 2.43164C18.0435 2.18543 18.2524 1.99975 18.5003 2Z" fill="currentColor"/>
</svg>
