<svg width="24" height="24" viewBox="0 0 24 24" fill="none" xmlns="http://www.w3.org/2000/svg">
<path d="M3.5 14.3385C4.89849 13.2381 6.68001 12.8213 8.3623 13.069L8.69727 13.1276L8.79688 13.153C9.28096 13.3029 9.58272 13.7979 9.48047 14.3053C9.37807 14.8129 8.9078 15.1528 8.40332 15.1032L8.30273 15.0876L8.06934 15.0475C6.90026 14.8756 5.67861 15.1692 4.7373 15.9098C3.75422 16.6834 3.00004 18.0064 3 19.9997C3 20.552 2.55228 20.9997 2 20.9997C1.44772 20.9997 1 20.552 1 19.9997C1.00004 17.4568 1.98743 15.529 3.5 14.3385Z" fill="currentColor"/>
<path fill-rule="evenodd" clip-rule="evenodd" d="M20.542 11.9997C21.8932 11.9999 22.8804 13.2528 22.5928 14.5505L22.5605 14.6764L21.1689 19.5495C20.9236 20.4078 20.1388 20.9995 19.2461 20.9997H7C6.44772 20.9997 6 20.552 6 19.9997C6.00009 19.4475 6.44777 18.9997 7 18.9997H10.2451L11.7275 13.8132L11.793 13.6159C12.1575 12.6502 13.0854 11.9997 14.1318 11.9997H20.542Z" fill="currentColor"/>
<path fill-rule="evenodd" clip-rule="evenodd" d="M9.56152 1.10222C9.89671 1.12529 10.1912 1.33317 10.3252 1.64128V1.63933L10.3281 1.64616C10.3313 1.65306 10.3364 1.66482 10.3438 1.68034C10.3591 1.71278 10.3837 1.76241 10.415 1.82195C10.4789 1.94332 10.5678 2.09834 10.6729 2.24577C10.7821 2.39906 10.885 2.50979 10.9668 2.57292C10.9728 2.57751 10.9794 2.5801 10.9844 2.58366C10.9865 2.58282 10.989 2.58264 10.9912 2.58171C11.0481 2.55774 11.1158 2.52091 11.1875 2.47624C11.2574 2.43268 11.3198 2.38857 11.3643 2.35515C11.3861 2.33876 11.4031 2.32506 11.4131 2.31706C11.4172 2.31381 11.4203 2.31155 11.4219 2.31023C11.757 2.02925 12.2412 2.03206 12.5723 2.30534L12.6367 2.36296L12.9102 2.6364C13.9306 3.65682 14.0454 5.27288 13.1797 6.42741L12.9004 6.79851V6.99968C12.9004 9.70588 10.7062 11.9001 8 11.9001C5.37836 11.9 3.23758 9.8407 3.10645 7.25163L3.10059 6.99968C3.10055 6.17616 3.23341 5.13031 3.70996 4.25652C4.21818 3.32489 5.12259 2.59933 6.5 2.59929C6.53111 2.59754 6.9889 2.57599 7.78223 2.30534L8.16992 2.16277C8.17173 2.16168 8.20982 2.14246 8.28027 2.08073C8.35072 2.01896 8.42595 1.93865 8.49902 1.85027C8.57081 1.76342 8.63209 1.67994 8.6748 1.61784C8.69574 1.5874 8.71177 1.56292 8.72168 1.54753C8.72658 1.53991 8.72972 1.53369 8.73145 1.53093L8.73242 1.52898C8.90744 1.24303 9.22698 1.07933 9.56152 1.10222ZM8 7.99968C8 8.27582 7.77614 8.49968 7.5 8.49968H5.28809C5.81659 9.45335 6.8323 10.0992 8 10.0993C9.16778 10.0993 10.1841 9.45342 10.7129 8.49968H9V7.49968H8V7.99968ZM9.37598 3.50847C9.21654 3.63677 9.03358 3.75638 8.83008 3.83659L8.36523 4.00847C7.33313 4.36078 6.67145 4.40007 6.5 4.40007C5.87775 4.4001 5.53182 4.67476 5.29004 5.11784C5.15249 5.37001 5.05558 5.67403 4.99219 5.99968H11.2549C11.2636 5.98661 11.2708 5.97228 11.2803 5.95964L11.7393 5.34734C12.0006 4.99885 12.0265 4.53962 11.8311 4.17155C11.616 4.27659 11.344 4.38098 11.0527 4.39812H10.8682C10.4489 4.3733 10.107 4.1836 9.86719 3.9987C9.67588 3.85115 9.51297 3.67644 9.37598 3.50847Z" fill="currentColor"/>
<path d="M16.3271 4.25945C16.7358 3.88809 17.3688 3.9183 17.7402 4.32683L17.7412 4.32878L17.7432 4.32976C17.7432 4.32976 17.7455 4.3329 17.7471 4.33464C17.7504 4.33832 17.7547 4.34357 17.7598 4.34929C17.7702 4.36105 17.7847 4.37733 17.8018 4.39714C17.8358 4.43676 17.8826 4.49264 17.9375 4.5612C18.0464 4.69735 18.1922 4.89095 18.3398 5.1198C18.4027 5.21727 18.4735 5.33188 18.5439 5.45964C18.7378 5.3719 18.9209 5.30465 19.0879 5.25456C19.3334 5.18091 19.5435 5.14192 19.7002 5.12175C19.7939 5.10971 19.888 5.10164 19.9824 5.10027C19.9858 5.10022 19.9893 5.09931 19.9922 5.09929H19.999C20.5511 5.09929 20.9997 5.54726 21 6.09929C21 6.65157 20.5523 7.09831 20 7.09831L20.001 7.09929H20.0146C20.0064 7.09979 19.9863 7.10128 19.9561 7.10515C19.8941 7.11311 19.7913 7.13086 19.6621 7.1696C19.4055 7.24659 19.0424 7.40674 18.6689 7.74284C18.3754 8.00703 17.9535 8.07343 17.5928 7.91277C17.2323 7.75198 17 7.39439 17 6.99968C16.9999 6.85814 16.8946 6.56832 16.6602 6.20476C16.5581 6.04657 16.4535 5.90831 16.375 5.81023C16.3363 5.76187 16.3048 5.72385 16.2842 5.69987C16.2741 5.6881 16.2669 5.67921 16.2627 5.67448L16.2607 5.67155L16.2588 5.67058C15.8889 5.26187 15.9191 4.63044 16.3271 4.25945Z" fill="currentColor"/>
</svg>
