<svg width="24" height="24" viewBox="0 0 24 24" fill="none" xmlns="http://www.w3.org/2000/svg">
<path d="M21.9669 9.80502C19.7284 14.5873 14.3246 21.0974 10.9091 21.0974C7.54315 21.0974 7.0564 13.919 5.21849 9.14136C4.31374 6.79011 3.72982 7.33003 2.034 8.51711L1 7.18336C3.47316 5.00904 5.94815 2.48363 7.4689 2.34338C9.18122 2.17929 10.2354 3.34987 10.6296 5.85603C11.1502 9.14961 11.878 14.2618 13.1485 14.2618C14.1385 14.2618 16.5778 10.2065 16.7034 8.75636C16.9261 6.63336 15.1423 6.5692 13.594 7.23195C16.0443 -0.79253 26.2376 0.685132 21.9669 9.80502Z" fill="currentColor"/>
</svg>
