<svg width="24" height="24" viewBox="0 0 24 24" fill="none" xmlns="http://www.w3.org/2000/svg">
<path fill-rule="evenodd" clip-rule="evenodd" d="M3 8C3 5.79086 4.79086 4 7 4C9.20914 4 11 5.79086 11 8V13C11 15.2091 9.20914 17 7 17C4.79086 17 3 15.2091 3 13V8ZM13 6C13 5.44772 13.4477 5 14 5H16C18.0347 5 19.7146 6.51925 19.9672 8.48526L21.1984 7.94662C22.5197 7.36852 24 8.33664 24 9.77894V14.2209C24 15.6632 22.5197 16.6313 21.1984 16.0532L19.9672 15.5146C19.7147 17.4807 18.0348 19 16 19C15.4477 19 15 18.5523 15 18C15 17.4477 15.4477 17 16 17C17.1046 17 18 16.1046 18 15V14.0218C17.9997 14.0069 17.9997 13.992 18 13.977V10.0229C17.9997 10.0079 17.9997 9.99294 18 9.97802V9C18 7.89543 17.1046 7 16 7H14C13.4477 7 13 6.55228 13 6ZM1 12C1.55228 12 2 12.4477 2 13C2 15.7614 4.23858 18 7 18C9.76142 18 12 15.7614 12 13C12 12.4477 12.4477 12 13 12C13.5523 12 14 12.4477 14 13C14 16.866 10.866 20 7 20C3.13401 20 0 16.866 0 13C0 12.4477 0.447715 12 1 12Z" fill="currentColor" style="fill:currentColor;fill-opacity:1;"/>
</svg>
