<svg width="24" height="24" viewBox="0 0 24 24" fill="none" xmlns="http://www.w3.org/2000/svg">
<path d="M12 12C13.35 9.51506 13.35 5.48495 12 3M12 12C9.17306 12.0739 5.68337 14.088 4.20642 16.5M12 12C13.477 14.412 16.9671 16.4261 19.794 16.5M7.50371 13.4343C9.20613 16.2139 12.4045 18.6922 15.8159 20.1426M3.04441 11.153C6.03241 8.96273 9.75937 7.47157 13.0079 7.38725M15.4934 15.1784C17.049 12.3145 17.5994 8.30998 17.157 4.62945M18.364 5.63604C21.8787 9.15077 21.8787 14.8493 18.364 18.364C14.8492 21.8787 9.15074 21.8787 5.63604 18.364C2.12132 14.8492 2.12132 9.15074 5.63604 5.63604C9.15077 2.12132 14.8493 2.12132 18.364 5.63604Z" stroke="currentColor" stroke-width="2" stroke-linecap="round" stroke-linejoin="round"/>
</svg>
