<svg width="24" height="24" viewBox="0 0 24 24" fill="none" xmlns="http://www.w3.org/2000/svg">
<path d="M11.3862 2.01855C7.25575 2.26865 3.80194 5.026 2.52683 8.78857C5.56013 6.96924 8.99012 5.71326 12.1944 5.42216C12.0934 4.18074 11.8183 3.00218 11.3862 2.01855Z" fill="currentColor" style="fill:currentColor;fill-opacity:1;"/>
<path d="M2.01188 11.5083C2.00399 11.6712 2 11.8351 2 12C2 13.2635 2.23433 14.4723 2.6619 15.5852C3.61637 14.5086 4.8251 13.5593 6.11894 12.8124C7.7552 11.8677 9.60346 11.2028 11.3614 11.0375C11.825 10.0042 12.1132 8.7496 12.2055 7.43041C8.86747 7.773 5.14278 9.30105 2.01188 11.5083Z" fill="currentColor" style="fill:currentColor;fill-opacity:1;"/>
<path d="M3.66298 17.5241C5.45399 20.2217 8.51933 22 12 22C12.6977 22 13.3787 21.9286 14.0362 21.7926C10.915 20.101 8.07513 17.7597 6.20907 15.1198C5.18325 15.8286 4.29919 16.657 3.66298 17.5241Z" fill="currentColor" style="fill:currentColor;fill-opacity:1;"/>
<path d="M16.6505 20.8552C17.8574 20.22 18.9186 19.3454 19.7709 18.2944C18.3626 18.0058 16.9375 17.434 15.6447 16.6877C14.0084 15.7431 12.5082 14.4751 11.4863 13.0349C10.3603 13.1501 9.13079 13.5274 7.94312 14.1062C9.9199 16.8321 13.1488 19.2887 16.6505 20.8552Z" fill="currentColor" style="fill:currentColor;fill-opacity:1;"/>
<path d="M20.9533 16.459C21.6232 15.1165 22 13.6023 22 12C22 9.45057 21.046 7.12396 19.4754 5.35771C19.5643 8.90254 18.9537 12.5254 17.6018 15.4577C18.7274 15.9906 19.8855 16.3414 20.9533 16.459Z" fill="currentColor" style="fill:currentColor;fill-opacity:1;"/>
<path d="M17.3599 3.55626C16.2292 2.83705 14.9443 2.33869 13.5659 2.12192C14.0205 3.48623 14.2379 5.00683 14.2379 6.50003C14.2379 8.38955 13.8897 10.3229 13.1536 11.928C13.8169 12.8467 14.7598 13.7238 15.8566 14.4635C17.229 11.3905 17.7459 7.37167 17.3599 3.55626Z" fill="currentColor" style="fill:currentColor;fill-opacity:1;"/>
</svg>
