<svg width="24" height="24" viewBox="0 0 24 24" fill="none" xmlns="http://www.w3.org/2000/svg">
<path d="M13 5.13493C13 3.43926 11.0223 2.51294 9.71963 3.59848L5.91608 6.76811C5.73637 6.91787 5.50984 6.99989 5.2759 6.99989H4C2.34315 6.99989 1 8.34303 1 9.99989V13.9999C1 15.6567 2.34315 16.9999 4 16.9999H5.2759C5.50984 16.9999 5.73637 17.0819 5.91608 17.2317L9.71963 20.4013C11.0223 21.4868 13 20.5605 13 18.8648V5.13493Z" fill="currentColor" style="fill:currentColor;fill-opacity:1;"/>
<path d="M19.7782 4.22258C19.3876 3.83206 18.7545 3.83206 18.3639 4.22258C17.9734 4.61311 17.9734 5.24627 18.3639 5.63679C19.9937 7.26657 21 9.5152 21 12.0008C21 14.4863 19.9937 16.7349 18.3639 18.3647C17.9734 18.7552 17.9734 19.3884 18.3639 19.7789C18.7545 20.1695 19.3876 20.1695 19.7782 19.7789C21.7677 17.7894 23 15.038 23 12.0008C23 8.96347 21.7677 6.21209 19.7782 4.22258Z" fill="currentColor" style="fill:currentColor;fill-opacity:1;"/>
<path d="M16.5963 7.40422C16.2057 7.0137 15.5726 7.0137 15.1821 7.40422C14.7915 7.79475 14.7915 8.42791 15.1821 8.81843C15.9975 9.63387 16.5001 10.7575 16.5001 12.0004C16.5001 13.2433 15.9975 14.367 15.1821 15.1824C14.7915 15.5729 14.7915 16.2061 15.1821 16.5966C15.5726 16.9871 16.2057 16.9871 16.5963 16.5966C17.7714 15.4214 18.5001 13.7951 18.5001 12.0004C18.5001 10.2058 17.7714 8.5794 16.5963 7.40422Z" fill="currentColor" style="fill:currentColor;fill-opacity:1;"/>
</svg>
