<svg width="24" height="24" viewBox="0 0 24 24" fill="none" xmlns="http://www.w3.org/2000/svg">
<path fill-rule="evenodd" clip-rule="evenodd" d="M6 4C3.79086 4 2 5.79086 2 8V16C2 18.2091 3.79086 20 6 20H18C20.2091 20 22 18.2091 22 16V8C22 5.79086 20.2091 4 18 4H6ZM5 8C5 7.44772 5.44772 7 6 7H18C18.5523 7 19 7.44772 19 8V10H17.5858C16.6803 10 15.8119 10.3597 15.1716 11C14.5313 11.6403 13.6629 12 12.7574 12H11.2426C10.3371 12 9.46872 11.6403 8.82843 11C8.18814 10.3597 7.31972 10 6.41421 10H5V8Z" fill="currentColor" style="fill:currentColor;fill-opacity:1;"/>
</svg>
