<svg width="24" height="24" viewBox="0 0 24 24" fill="none" xmlns="http://www.w3.org/2000/svg">
<path fill-rule="evenodd" clip-rule="evenodd" d="M2 8C2 5.79086 3.79086 4 6 4H18C20.2091 4 22 5.79086 22 8V16C22 18.2091 20.2091 20 18 20H6C3.79086 20 2 18.2091 2 16V8ZM4.26756 7H19.7324C19.3866 6.4022 18.7403 6 18 6H6C5.25972 6 4.61337 6.4022 4.26756 7ZM20 9H4V10H9C9.55228 10 10 10.4477 10 11C10 11.5523 10.4477 12 11 12H13C13.5523 12 14 11.5523 14 11C14 10.4477 14.4477 10 15 10H20V9Z" fill="currentColor" style="fill:currentColor;fill-opacity:1;"/>
</svg>
