<svg width="24" height="24" viewBox="0 0 24 24" fill="none" xmlns="http://www.w3.org/2000/svg">
<path fill-rule="evenodd" clip-rule="evenodd" d="M14.6579 3C16.4934 3 18.0933 4.24919 18.5385 6.02986L21.9704 19.7575C22.1043 20.2933 21.7786 20.8362 21.2428 20.9701C20.707 21.1041 20.164 20.7783 20.0301 20.2425L19.4695 18H14.531L13.9704 20.2425C13.8364 20.7783 13.2935 21.1041 12.7577 20.9701C12.2219 20.8362 11.8961 20.2933 12.0301 19.7575L12.4695 18H4.53101L3.97038 20.2425C3.83643 20.7783 3.2935 21.1041 2.7577 20.9701C2.22191 20.8362 1.89615 20.2933 2.03009 19.7575L5.462 6.02986C5.85137 4.47237 7.12419 3.32148 8.66534 3.05745C8.77004 3.02025 8.88278 3 9.00024 3H14.6579ZM17.0002 8.1231L15.031 16H18.9695L17.0002 8.1231Z" fill="currentColor" style="fill:currentColor;fill-opacity:1;"/>
</svg>
