<svg width="24" height="24" viewBox="0 0 24 24" fill="none" xmlns="http://www.w3.org/2000/svg">
<path d="M10.5622 18.4012C7.58202 18.6943 5.00916 17.357 4.81542 15.4187C4.62173 13.4781 6.8817 11.6704 9.85935 11.3773C12.8396 11.0842 15.4124 12.4215 15.6037 14.3598C15.7999 16.3004 13.5399 18.1106 10.5622 18.4012ZM16.5201 11.961C16.2667 11.8846 16.0929 11.8354 16.2245 11.5054C16.5126 10.7887 16.5424 10.1705 16.2295 9.72725C15.6459 8.89972 14.0465 8.94407 12.2137 9.70505C12.2137 9.70505 11.6375 9.95382 11.7866 9.50312C12.0672 8.60422 12.025 7.85304 11.5879 7.41713C10.5945 6.42958 7.94957 7.45406 5.68218 9.70262C3.98596 11.3847 3 13.1702 3 14.7144C3 17.6648 6.81711 19.4602 10.5498 19.4602C15.4448 19.4602 18.7006 16.6403 18.7006 14.4016C18.7031 13.0471 17.5532 12.2787 16.5201 11.961Z" fill="currentColor"/>
<path d="M19.7726 6.55953C18.5905 5.25915 16.847 4.76416 15.2377 5.10401C14.8652 5.18285 14.6293 5.54734 14.7088 5.91427C14.7882 6.28369 15.1533 6.51767 15.5258 6.43883C16.6707 6.19748 17.91 6.54968 18.7494 7.47322C19.5888 8.39676 19.8173 9.65528 19.4572 10.7586C19.3405 11.1182 19.5391 11.5024 19.9017 11.6181C20.2643 11.7339 20.6517 11.5369 20.7685 11.1797V11.1772C21.2751 9.62815 20.9547 7.85742 19.7726 6.55953Z" fill="currentColor"/>
<path d="M17.9568 8.18617C17.3807 7.55325 16.5313 7.31185 15.749 7.47934C15.4286 7.54584 15.225 7.8611 15.2921 8.1788C15.3616 8.49646 15.677 8.69844 15.9949 8.62945C16.3774 8.54822 16.7945 8.66643 17.0752 8.97428C17.3558 9.28457 17.4328 9.7057 17.3111 10.0751C17.2118 10.383 17.3807 10.7154 17.6936 10.8164C18.0065 10.9149 18.3393 10.7475 18.4411 10.4372C18.687 9.68106 18.533 8.81909 17.9568 8.18617Z" fill="currentColor"/>
<path d="M10.7274 14.8883C10.6231 15.0657 10.3922 15.1494 10.2134 15.0755C10.0345 15.0041 9.97988 14.8046 10.0817 14.6322C10.186 14.4598 10.4071 14.3761 10.5834 14.4451C10.7622 14.5091 10.8268 14.7086 10.7274 14.8883ZM9.77626 16.0951C9.48816 16.5507 8.8698 16.7502 8.40538 16.5409C7.94844 16.334 7.81182 15.8045 8.09992 15.3587C8.3855 14.9154 8.98153 14.7184 9.44349 14.9105C9.91037 15.11 10.0594 15.6346 9.77626 16.0951ZM10.8591 12.8688C9.44098 12.5019 7.83917 13.2038 7.22322 14.4426C6.59493 15.706 7.2034 17.1098 8.63385 17.5679C10.119 18.0432 11.8673 17.3142 12.4758 15.9523C13.0768 14.6174 12.3268 13.2457 10.8591 12.8688Z" fill="currentColor"/>
</svg>
