<svg width="24" height="24" viewBox="0 0 24 24" fill="none" xmlns="http://www.w3.org/2000/svg">
<path d="M12.9997 3C12.9997 2.44772 12.552 2 11.9997 2C11.4474 2 10.9997 2.44772 10.9997 3V4H3C2.44772 4 2 4.44772 2 5C2 5.55228 2.44772 6 3 6L2.99971 18C2.44742 18 2 18.4477 2 19C2 19.5523 2.44772 20 3 20H21C21.5523 20 22 19.5523 22 19C22 18.4477 21.5523 18 21 18H20.9997V6H21C21.5523 6 22 5.55228 22 5C22 4.44772 21.5523 4 21 4H12.9997V3Z" fill="currentColor" style="fill:currentColor;fill-opacity:1;"/>
</svg>
