<svg width="24" height="24" viewBox="0 0 24 24" fill="none" xmlns="http://www.w3.org/2000/svg">
<path d="M2.38475 7.28445C7.99539 2.90518 16.0047 2.90518 21.6153 7.28445C22.0507 7.62427 22.1282 8.25268 21.7883 8.68804C21.4485 9.12341 20.8201 9.20087 20.3848 8.86105C15.4974 5.04632 8.5027 5.04632 3.61534 8.86105C3.17997 9.20087 2.55156 9.12341 2.21174 8.68804C1.87193 8.25268 1.94939 7.62427 2.38475 7.28445Z" fill="currentColor" style="fill:currentColor;fill-opacity:1;"/>
<path d="M16.635 14.103C13.9346 11.9969 10.0665 11.9969 7.366 14.103C6.93049 14.4426 6.30211 14.3649 5.96247 13.9294C5.62283 13.4939 5.70054 12.8655 6.13605 12.5259C9.55956 9.85595 14.4415 9.85595 17.865 12.5259C18.3005 12.8655 18.3782 13.4939 18.0386 13.9294C17.6989 14.3649 17.0705 14.4426 16.635 14.103Z" fill="currentColor" style="fill:currentColor;fill-opacity:1;"/>
<path d="M10.75 18.75C10.75 19.4404 11.3096 20 12 20C12.6904 20 13.25 19.4404 13.25 18.75C13.25 18.0596 12.6904 17.5 12 17.5C11.3096 17.5 10.75 18.0596 10.75 18.75Z" fill="currentColor" style="fill:currentColor;fill-opacity:1;"/>
</svg>
