<svg width="24" height="24" viewBox="0 0 24 24" fill="none" xmlns="http://www.w3.org/2000/svg">
<path fill-rule="evenodd" clip-rule="evenodd" d="M8.98862 4.97119C8.98862 3.30686 10.3508 1.97119 12.0002 1.97119C13.6495 1.97119 15.0117 3.30686 15.0117 4.97119L15.0117 9.21549C15.0253 9.23833 15.0386 9.26133 15.0516 9.28449L18.7271 11.4065C20.1684 12.2387 20.644 14.0862 19.8194 15.5146C18.9947 16.943 17.1569 17.4548 15.7155 16.6227L14.3387 15.8278L15.1454 20H19.0002C19.5525 20 20.0002 20.4477 20.0002 21C20.0002 21.5523 19.5525 22 19.0002 22H5.00018C4.4479 22 4.00018 21.5523 4.00018 21C4.00018 20.4477 4.4479 20 5.00018 20H8.855L9.66171 15.8274L8.28485 16.6223C6.84349 17.4545 5.00567 16.9426 4.18099 15.5142C3.35632 14.0859 3.83194 12.2383 5.27329 11.4062L8.94902 9.28397C8.96197 9.261 8.97517 9.23819 8.98862 9.21554L8.98862 4.97119ZM13.0117 4.97119L13.0117 7.6484C12.6915 7.55188 12.3519 7.5 12.0002 7.5C11.6485 7.5 11.3089 7.55188 10.9886 7.6484L10.9886 4.97119C10.9886 4.42638 11.4404 3.97119 12.0002 3.97119C12.56 3.97119 13.0117 4.42638 13.0117 4.97119ZM15.4084 11.7999C15.2489 12.4821 14.8898 13.0876 14.396 13.5515L16.7155 14.8906C17.1873 15.163 17.8074 14.9994 18.0873 14.5146C18.3672 14.0298 18.1989 13.4109 17.7271 13.1385L15.4084 11.7999ZM9.6041 13.5512C9.11039 13.0874 8.75136 12.4818 8.59192 11.7995L6.27329 13.1382C5.80148 13.4106 5.63315 14.0294 5.91304 14.5142C6.19294 14.999 6.81303 15.1627 7.28485 14.8903L9.6041 13.5512ZM12.0002 9.5C11.1718 9.5 10.5002 10.1716 10.5002 11C10.5002 11.8284 11.1718 12.5 12.0002 12.5C12.8286 12.5 13.5002 11.8284 13.5002 11C13.5002 10.1716 12.8286 9.5 12.0002 9.5Z" fill="currentColor" style="fill:currentColor;fill-opacity:1;"/>
</svg>
