<svg width="24" height="24" viewBox="0 0 24 24" fill="none" xmlns="http://www.w3.org/2000/svg">
<path fill-rule="evenodd" clip-rule="evenodd" d="M7 2C7.55228 2 8 2.44772 8 3V4H16V3C16 2.44772 16.4477 2 17 2C17.5523 2 18 2.44772 18 3V4C20.2091 4 22 5.79086 22 8V10C22 12.2091 20.2091 14 18 14V20C18.5523 20 19 20.4477 19 21C19 21.5523 18.5523 22 18 22H16C15.4477 22 15 21.5523 15 21C15 20.4477 15.4477 20 16 20V14H8V20C8.55228 20 9 20.4477 9 21C9 21.5523 8.55228 22 8 22H6C5.44772 22 5 21.5523 5 21C5 20.4477 5.44772 20 6 20L6 14C3.79086 14 2 12.2091 2 10V8C2 5.79086 3.79086 4 6 4V3C6 2.44772 6.44772 2 7 2ZM7.65949 6L4.45538 12H6.71439L9.9185 6H7.65949ZM9.26846 12H11.5275L14.7316 6H12.4726L9.26846 12ZM14.0815 12H16.3405L19.5446 6H17.2856L14.0815 12Z" fill="currentColor" style="fill:currentColor;fill-opacity:1;"/>
</svg>
