<svg width="25" height="24" viewBox="0 0 25 24" fill="none" xmlns="http://www.w3.org/2000/svg">
<path d="M3.75 20L21.75 20" stroke="currentColor" style="stroke:currentColor;stroke-opacity:1;" stroke-width="2" stroke-linecap="round" stroke-linejoin="round"/>
<path d="M13.2085 15.75C13.321 15.6695 13.4195 15.571 13.5 15.4585C13.5805 15.571 13.679 15.6695 13.7915 15.75C13.679 15.8305 13.5805 15.929 13.5 16.0415C13.4195 15.929 13.321 15.8305 13.2085 15.75Z" stroke="currentColor" style="stroke:currentColor;stroke-opacity:1;" stroke-width="2"/>
<path d="M10.4585 11.75C10.571 11.6695 10.6695 11.571 10.75 11.4585C10.8305 11.571 10.929 11.6695 11.0415 11.75C10.929 11.8305 10.8305 11.929 10.75 12.0415C10.6695 11.929 10.571 11.8305 10.4585 11.75Z" stroke="currentColor" style="stroke:currentColor;stroke-opacity:1;" stroke-width="2"/>
<path d="M5.75 19.5001L11.5088 4.2805C12.057 2.8316 13.9733 2.52921 14.9411 3.7389L18.75 8.50007H14.95L19.75 19.5001" stroke="currentColor" style="stroke:currentColor;stroke-opacity:1;" stroke-width="2" stroke-linecap="square" stroke-linejoin="round"/>
</svg>
