<svg width="24" height="24" viewBox="0 0 24 24" fill="none" xmlns="http://www.w3.org/2000/svg">
<path fill-rule="evenodd" clip-rule="evenodd" d="M7.65185 2.39821C7.33573 1.97876 6.74898 1.87535 6.30851 2.16146C5.14505 2.91721 4.2985 3.87374 4.08347 5.0844C3.99544 5.58001 4.0215 6.07168 4.14012 6.55546C3.90785 6.47621 3.66601 6.40802 3.41633 6.34989C2.90358 6.23053 2.38609 6.52916 2.23288 7.03284C1.83 8.35734 1.80151 9.63221 2.42042 10.6964C2.57322 10.9592 2.7569 11.1943 2.9673 11.4041C2.71855 11.4513 2.46676 11.5139 2.21303 11.59C1.70605 11.7419 1.4053 12.2626 1.52697 12.7777C1.84535 14.1256 2.46251 15.2412 3.5308 15.8535C3.90105 16.0657 4.29671 16.201 4.7112 16.2704C4.52946 16.4129 4.35067 16.5708 4.17563 16.7446C3.79037 17.127 3.78061 17.747 4.15364 18.1414C5.0122 19.0492 5.98241 19.6728 7.07176 19.7882C7.92119 19.8783 8.71999 19.6471 9.45403 19.1907C9.36525 19.4664 9.12204 19.8042 8.51732 20.1043C8.02263 20.3499 7.82066 20.95 8.06622 21.4447C8.31177 21.9394 8.91186 22.1413 9.40656 21.8958C10.6284 21.2893 11.3531 20.3421 11.4805 19.2377C11.7188 17.1719 9.85922 15.4348 7.90378 15.2546C7.92689 15.1242 7.92433 14.9872 7.89207 14.8506C7.64777 13.8163 7.22755 12.9188 6.56258 12.2805C6.62043 12.1971 6.66641 12.1035 6.69744 12.0015C7.05499 10.826 7.11765 9.68963 6.69459 8.7049C7.76357 7.96894 8.53341 7.05043 8.73702 5.90405C8.95219 4.69263 8.48575 3.50472 7.65185 2.39821Z" fill="currentColor" style="fill:currentColor;fill-opacity:1;"/>
<path fill-rule="evenodd" clip-rule="evenodd" d="M17.6919 2.16146C17.2514 1.87535 16.6647 1.97876 16.3485 2.39821C15.5146 3.50472 15.0482 4.69262 15.2634 5.90405C15.467 7.05043 16.2368 7.96895 17.3058 8.7049C16.8827 9.68963 16.9454 10.826 17.3029 12.0015C17.334 12.1035 17.38 12.1971 17.4378 12.2805C16.7728 12.9188 16.3526 13.8163 16.1083 14.8506C16.076 14.9872 16.0735 15.1242 16.0966 15.2546C14.1412 15.4348 12.2816 17.1719 12.5199 19.2377C12.6473 20.3421 13.3719 21.2893 14.5938 21.8958C15.0885 22.1413 15.6886 21.9394 15.9342 21.4447C16.1797 20.95 15.9778 20.3499 15.4831 20.1043C14.8783 19.8042 14.6351 19.4664 14.5463 19.1907C15.2804 19.6471 16.0792 19.8783 16.9286 19.7882C18.018 19.6728 18.9882 19.0492 19.8467 18.1414C20.2198 17.747 20.21 17.127 19.8248 16.7446C19.6497 16.5708 19.4709 16.4129 19.2892 16.2704C19.7037 16.201 20.0993 16.0657 20.4696 15.8535C21.5379 15.2412 22.155 14.1256 22.4734 12.7777C22.5951 12.2626 22.2943 11.7419 21.7874 11.59C21.5336 11.5139 21.2818 11.4513 21.0331 11.4041C21.2435 11.1943 21.4272 10.9592 21.58 10.6964C22.1989 9.63221 22.1704 8.35734 21.7675 7.03284C21.6143 6.52916 21.0968 6.23053 20.5841 6.34989C20.3344 6.40802 20.0925 6.47621 19.8603 6.55546C19.9789 6.07168 20.0049 5.58001 19.9169 5.0844C19.7019 3.87374 18.8553 2.91721 17.6919 2.16146Z" fill="currentColor" style="fill:currentColor;fill-opacity:1;"/>
</svg>
