<svg width="24" height="24" viewBox="0 0 24 24" fill="none" xmlns="http://www.w3.org/2000/svg">
<path fill-rule="evenodd" clip-rule="evenodd" d="M10.9345 5.64445C10.5502 4.65323 10.7581 3.48531 11.5581 2.68529C12.639 1.60441 14.3914 1.60442 15.4723 2.68529L21.4576 8.67058C22.5385 9.75146 22.5385 11.5039 21.4576 12.5848C20.6544 13.388 19.4803 13.5943 18.4866 13.2038L15.9315 18.5956C15.3504 19.8219 14.1871 20.67 12.8419 20.8481L3.46788 22.0893L9.48231 16.0749C9.64754 16.119 9.82119 16.1426 10.0004 16.1426C11.1049 16.1426 12.0004 15.2472 12.0004 14.1426C12.0004 13.038 11.1049 12.1426 10.0004 12.1426C8.89578 12.1426 8.00035 13.038 8.00035 14.1426C8.00035 14.3218 8.02391 14.4954 8.0681 14.6606L2.05078 20.678L3.22975 11.2726C3.40166 9.90114 4.2694 8.71564 5.52471 8.13721L10.9345 5.64445ZM20.0434 11.1706C19.7435 11.4704 19.2574 11.4704 18.9576 11.1706L12.9723 5.18529C12.6725 4.88546 12.6725 4.39934 12.9723 4.09951C13.2721 3.79968 13.7583 3.79968 14.0581 4.09951L20.0434 10.0848C20.3432 10.3846 20.3432 10.8707 20.0434 11.1706Z" fill="currentColor" style="fill:currentColor;fill-opacity:1;"/>
</svg>
