<svg width="24" height="24" viewBox="0 0 24 24" fill="none" xmlns="http://www.w3.org/2000/svg">
<path d="M5 18.9986L10.19 13.8086M18 12L19.3787 10.6213C20.5503 9.44975 20.5503 7.55026 19.3787 6.37868L17.6213 4.62132C16.4497 3.44975 14.5503 3.44975 13.3787 4.62132L12 6M18 12L12 6M18 12L16.5712 15.9292C16.2161 16.9057 15.3809 17.629 14.3637 17.8409L4 20L6.1591 9.63632C6.37103 8.61906 7.09427 7.78391 8.07081 7.4288L12 6M12.7795 11.2191C13.4961 11.9357 13.4961 13.0976 12.7795 13.8142C12.0629 14.5308 10.901 14.5308 10.1844 13.8142C9.46782 13.0976 9.46782 11.9357 10.1844 11.2191C10.901 10.5025 12.0629 10.5025 12.7795 11.2191Z" stroke="currentColor" stroke-width="2" stroke-linecap="round" stroke-linejoin="round"/>
</svg>
