<svg width="24" height="24" viewBox="0 0 24 24" fill="none" xmlns="http://www.w3.org/2000/svg">
<path d="M20.2071 3.79285C18.9881 2.57392 17.0119 2.57393 15.7929 3.79287L12.1716 7.41421C11.4214 8.16436 11 9.18178 11 10.2426V12C11 12.2653 11.1054 12.5196 11.2929 12.7071C11.4804 12.8947 11.7348 13 12 13L13.7573 13C14.8182 13 15.8356 12.5786 16.5858 11.8284L20.2071 8.20705C21.4261 6.98809 21.4261 5.01179 20.2071 3.79285Z" fill="currentColor" style="fill:currentColor;fill-opacity:1;"/>
<path d="M6 11C4.34315 11 3 12.3432 3 14C3 15.6569 4.34315 17 6 17H16C16.5523 17 17 17.4478 17 18C17 18.5523 16.5523 19 16 19H12C11.4477 19 11 19.4478 11 20C11 20.5523 11.4477 21 12 21H16C17.6569 21 19 19.6569 19 18C19 16.3432 17.6569 15 16 15H6C5.44772 15 5 14.5523 5 14C5 13.4478 5.44772 13 6 13H8C8.55228 13 9 12.5523 9 12C9 11.4478 8.55228 11 8 11H6Z" fill="currentColor" style="fill:currentColor;fill-opacity:1;"/>
</svg>
