<svg width="24" height="24" viewBox="0 0 24 24" fill="none" xmlns="http://www.w3.org/2000/svg">
<g clip-path="url(#clip0_11449_32835)">
<path d="M11.9999 2.2C12.6074 2.2 13.0999 1.70751 13.0999 1.1C13.0999 0.492487 12.6074 0 11.9999 0C11.3924 0 10.8999 0.492487 10.8999 1.1C10.8999 1.70751 11.3924 2.2 11.9999 2.2Z" fill="currentColor" style="fill:currentColor;fill-opacity:1;"/>
<path d="M3.51479 3.51479C3.94437 3.08521 4.64085 3.08521 5.07043 3.51479C5.5 3.94436 5.5 4.64084 5.07043 5.07042C4.64085 5.5 3.94437 5.5 3.51479 5.07042C3.08522 4.64084 3.08522 3.94436 3.51479 3.51479Z" fill="currentColor" style="fill:currentColor;fill-opacity:1;"/>
<path d="M2.2 12C2.2 12.6075 1.70751 13.1 1.1 13.1C0.492487 13.1 0 12.6075 0 12C0 11.3925 0.492487 10.9 1.1 10.9C1.70751 10.9 2.2 11.3925 2.2 12Z" fill="currentColor" style="fill:currentColor;fill-opacity:1;"/>
<path d="M24 12C24 12.6075 23.5075 13.1 22.9 13.1C22.2925 13.1 21.8 12.6075 21.8 12C21.8 11.3925 22.2925 10.9 22.9 10.9C23.5075 10.9 24 11.3925 24 12Z" fill="currentColor" style="fill:currentColor;fill-opacity:1;"/>
<path d="M20.4853 18.9297C20.0558 18.5002 19.3593 18.5002 18.9297 18.9297C18.5001 19.3593 18.5001 20.0558 18.9297 20.4854C19.3593 20.9149 20.0558 20.9149 20.4853 20.4854C20.9149 20.0558 20.9149 19.3593 20.4853 18.9297Z" fill="currentColor" style="fill:currentColor;fill-opacity:1;"/>
<path d="M18.9297 3.5148C18.5002 3.94438 18.5002 4.64086 18.9297 5.07044C19.3593 5.50001 20.0558 5.50001 20.4854 5.07044C20.9149 4.64086 20.9149 3.94438 20.4854 3.5148C20.0558 3.08522 19.3593 3.08522 18.9297 3.5148Z" fill="currentColor" style="fill:currentColor;fill-opacity:1;"/>
<path d="M3.51479 20.4853C3.08521 20.0558 3.08521 19.3593 3.51479 18.9297C3.94436 18.5001 4.64084 18.5001 5.07042 18.9297C5.5 19.3593 5.5 20.0558 5.07042 20.4853C4.64084 20.9149 3.94436 20.9149 3.51479 20.4853Z" fill="currentColor" style="fill:currentColor;fill-opacity:1;"/>
<path d="M12 4C7.58172 4 4 7.58172 4 12C4 13.8534 4.63025 15.5596 5.68813 16.9159C5.7192 16.8728 5.75412 16.8317 5.79289 16.7929L11.2929 11.2929C11.6834 10.9024 12.3166 10.9024 12.7071 11.2929C13.0976 11.6834 13.0976 12.3166 12.7071 12.7071L7.20711 18.2071C7.16834 18.2459 7.12717 18.2808 7.08409 18.3119C8.44044 19.3697 10.1466 20 12 20C16.4183 20 20 16.4183 20 12C20 7.58172 16.4183 4 12 4Z" fill="currentColor" style="fill:currentColor;fill-opacity:1;"/>
</g>
<defs>
<clipPath id="clip0_11449_32835">
<rect width="24" height="24" fill="white" style="fill:white;fill-opacity:1;"/>
</clipPath>
</defs>
</svg>
