<svg xmlns="http://www.w3.org/2000/svg" viewBox="0 0 24 24" fill="none">
<path fill-rule="evenodd" clip-rule="evenodd" d="M12.6572 2C14.4927 2 16.0929 3.24961 16.5381 5.03027L16.7803 6H20C20.5523 6 21 6.44772 21 7C21 7.55228 20.5523 8 20 8V11.75C20 12.6736 19.6137 13.5061 18.9951 14.0977L18.6963 18.2852C18.5467 20.3783 16.8046 22 14.7061 22H9.29297C7.19459 21.9999 5.45331 20.3782 5.30371 18.2852L5.08008 15.165C4.41837 14.5701 4 13.7099 4 12.75V8C3.44772 8 3 7.55228 3 7C3 6.44772 3.44772 6 4 6H7.21973L7.46191 5.03027C7.90708 3.24961 9.5073 2 11.3428 2H12.6572ZM13 13.75C13 14.4404 13.5596 15 14.25 15C14.9404 15 15.5 14.4404 15.5 13.75V11.75C15.5 12.4404 16.0596 13 16.75 13C17.4404 13 18 12.4404 18 11.75V8H13V13.75ZM6 12.75C6 13.4404 6.55964 14 7.25 14C7.94036 14 8.5 13.4404 8.5 12.75V8H6V12.75ZM11.3428 4C10.4252 4 9.62504 4.62449 9.40234 5.51465L9.28125 6H14.7188L14.5977 5.51465C14.375 4.62449 13.5748 4 12.6572 4H11.3428Z" fill="currentColor"/>
</svg>
