<svg xmlns="http://www.w3.org/2000/svg" viewBox="0 0 24 24" fill="none">
<path d="M4 7H20" stroke="currentColor" stroke-width="2" stroke-linecap="round" stroke-linejoin="round"/><path d="M8 7L8.4319 5.27239C8.76578 3.93689 9.96573 3 11.3423 3H12.6577C14.0343 3 15.2342 3.93689 15.5681 5.27239L16 7" stroke="currentColor" stroke-width="2" stroke-linecap="round" stroke-linejoin="round"/><path d="M5 7V13.25C5 14.2165 5.7835 15 6.75 15C7.7165 15 8.5 14.2165 8.5 13.25V11.5" stroke="currentColor" stroke-width="2" stroke-linecap="round"/><path d="M15.5 12V12.25C15.5 13.2165 16.2835 14 17.25 14C18.2165 14 19 13.2165 19 12.25V7.5" stroke="currentColor" stroke-width="2" stroke-linecap="round"/><path d="M15.5 12V14.25C15.5 15.2165 14.7165 16 13.75 16C12.7835 16 12 15.2165 12 14.25V10" stroke="currentColor" stroke-width="2" stroke-linecap="round"/><path d="M17.9999 14L17.6989 18.2137C17.5867 19.7837 16.2804 21 14.7065 21H9.29322C7.7193 21 6.41298 19.7837 6.30084 18.2137L6.07129 15" stroke="currentColor" stroke-width="2" stroke-linejoin="round"/>
</svg>
