<svg xmlns="http://www.w3.org/2000/svg" viewBox="0 0 24 24" fill="none">
<path fill-rule="evenodd" clip-rule="evenodd" d="M7.00026 4C7.55255 4 8.00026 4.44772 8.00026 5V6H11.0003C11.5525 6 12.0003 6.44772 12.0003 7C12.0003 7.55228 11.5525 8 11.0003 8H10.3727C10.0603 9.91166 9.44399 11.5244 8.43746 12.8188C9.18839 13.3437 10.1113 13.7471 11.2428 14.0299C11.7786 14.1639 12.1044 14.7068 11.9704 15.2426C11.8365 15.7784 11.2936 16.1042 10.7578 15.9702C9.29694 15.605 8.04102 15.0424 7.0002 14.245C5.9594 15.0424 4.70353 15.6049 3.24277 15.9701C2.70698 16.1041 2.16404 15.7783 2.03009 15.2425C1.89615 14.7067 2.22191 14.1638 2.7577 14.0299C3.88916 13.747 4.81207 13.3436 5.56298 12.8188C4.55648 11.5244 3.94023 9.91163 3.62781 8H3.00026C2.44798 8 2.00026 7.55228 2.00026 7C2.00026 6.44772 2.44798 6 3.00026 6H6.00026V5C6.00026 4.44772 6.44798 4 7.00026 4ZM5.65822 8C5.92421 9.41424 6.37395 10.5272 7.00023 11.4013C7.62654 10.5272 8.07629 9.41425 8.34229 8H5.65822ZM14.157 12.3008C14.8441 10.6689 17.1564 10.6689 17.8435 12.3008L20.9219 19.6119C21.1362 20.1209 20.8973 20.7073 20.3883 20.9216C19.8793 21.1359 19.2929 20.897 19.0786 20.388L18.4942 19H13.5063L12.9219 20.388C12.7076 20.897 12.1212 21.1359 11.6122 20.9216C11.1032 20.7073 10.8643 20.1209 11.0786 19.6119L14.157 12.3008ZM14.3484 17H17.6521L16.0003 13.0769L14.3484 17Z" fill="currentColor"/><path d="M18.5655 4.86018L17.9756 3.32667C17.8999 3.12986 17.7109 3 17.5 3C17.2891 3 17.1001 3.12986 17.0244 3.32667L16.4345 4.86018C16.333 5.12427 16.1243 5.33297 15.8602 5.43455L14.3267 6.02436C14.1299 6.10005 14 6.28914 14 6.5C14 6.71086 14.1299 6.89995 14.3267 6.97564L15.8602 7.56545C16.1243 7.66703 16.333 7.87573 16.4345 8.13982L17.0244 9.67333C17.1001 9.87014 17.2891 10 17.5 10C17.7109 10 17.8999 9.87014 17.9756 9.67333L18.5655 8.13982C18.667 7.87573 18.8757 7.66703 19.1398 7.56545L20.6733 6.97564C20.8701 6.89995 21 6.71086 21 6.5C21 6.28914 20.8701 6.10005 20.6733 6.02436L19.1398 5.43455C18.8757 5.33297 18.667 5.12427 18.5655 4.86018Z" fill="currentColor"/>
</svg>
