<svg xmlns="http://www.w3.org/2000/svg" viewBox="0 0 24 24" fill="none">
<path fill-rule="evenodd" clip-rule="evenodd" d="M12 2C17.5228 2 22 6.47715 22 12C22 17.5228 17.5228 22 12 22C6.47715 22 2 17.5228 2 12C2 6.47715 6.47715 2 12 2ZM12 6.84863C11.6988 6.84863 11.4284 7.03428 11.3203 7.31543L10.4092 9.68359C10.3076 9.94769 10.0991 10.1562 9.83496 10.2578L7.4668 11.1689C7.18564 11.2771 7 11.5474 7 11.8486C7 12.1499 7.18564 12.4202 7.4668 12.5283L9.83496 13.4395C10.0991 13.541 10.3076 13.7496 10.4092 14.0137L11.3203 16.3818C11.4284 16.663 11.6988 16.8486 12 16.8486C12.3012 16.8486 12.5716 16.663 12.6797 16.3818L13.5908 14.0137C13.6924 13.7496 13.9009 13.541 14.165 13.4395L16.5332 12.5283C16.8144 12.4202 17 12.1499 17 11.8486C17 11.5474 16.8144 11.2771 16.5332 11.1689L14.165 10.2578C13.9009 10.1562 13.6924 9.94769 13.5908 9.68359L12.6797 7.31543C12.5716 7.03428 12.3012 6.84863 12 6.84863Z" fill="currentColor"/>
</svg>
