<svg width="24" height="24" viewBox="0 0 24 24" fill="none" xmlns="http://www.w3.org/2000/svg">
<path d="M7 3C4.79086 3 3 4.79086 3 7V11H7.38197C8.13951 11 8.83204 11.428 9.17082 12.1056L10 13.7639L13.1056 7.55279C13.275 7.214 13.6212 7 14 7C14.3788 7 14.725 7.214 14.8944 7.55279L16.618 11H21V7C21 4.79086 19.2091 3 17 3H7Z" fill="currentColor" style="fill:currentColor;fill-opacity:1;"/>
<path d="M3 17C3 19.2091 4.79086 21 7 21H17C19.2091 21 21 19.2091 21 17V13H16.618C15.8605 13 15.168 12.572 14.8292 11.8944L14 10.2361L10.8944 16.4472C10.725 16.786 10.3788 17 10 17C9.62123 17 9.27496 16.786 9.10557 16.4472L7.38197 13H3V17Z" fill="currentColor" style="fill:currentColor;fill-opacity:1;"/>
</svg>
