<svg xmlns="http://www.w3.org/2000/svg" viewBox="0 0 24 24" fill="none">
<path fill-rule="evenodd" clip-rule="evenodd" d="M12 3C13.933 3 15.5 4.567 15.5 6.5C15.5 8.08536 14.4455 9.42311 13 9.85352V16C13 17.6569 14.3431 19 16 19C17.6569 19 19 17.6569 19 16V15.4141L18.707 15.707C18.3165 16.0976 17.6835 16.0976 17.293 15.707C16.9024 15.3165 16.9024 14.6835 17.293 14.293L19.293 12.293C19.579 12.007 20.0091 11.9214 20.3828 12.0762C20.7564 12.231 21 12.5956 21 13V16C21 18.7614 18.7614 21 16 21C14.364 21 12.9122 20.2137 12 18.999C11.0878 20.2137 9.63602 21 8 21C5.23858 21 3 18.7614 3 16V13C3 12.5956 3.24359 12.231 3.61719 12.0762C3.99086 11.9214 4.42103 12.007 4.70703 12.293L6.70703 14.293C7.09756 14.6835 7.09756 15.3165 6.70703 15.707C6.31651 16.0976 5.68349 16.0976 5.29297 15.707L5 15.4141V16C5 17.6569 6.34315 19 8 19C9.65685 19 11 17.6569 11 16V9.85352C9.55447 9.42311 8.5 8.08536 8.5 6.5C8.5 4.567 10.067 3 12 3ZM12 5C11.1716 5 10.5 5.67157 10.5 6.5C10.5 7.32843 11.1716 8 12 8C12.8284 8 13.5 7.32843 13.5 6.5C13.5 5.67157 12.8284 5 12 5Z" fill="currentColor"/>
</svg>
