<svg width="24" height="24" viewBox="0 0 24 24" fill="none" xmlns="http://www.w3.org/2000/svg">
<path fill-rule="evenodd" clip-rule="evenodd" d="M8.77769 19.9735C8.25927 20.562 7.56348 21 6.66691 21C5.86526 21 5.20911 20.7047 4.71341 20.2023C4.24999 19.7327 3.97256 19.1292 3.7849 18.5662C3.59513 17.9969 3.46812 17.3757 3.35996 16.8141C3.34209 16.7213 3.32476 16.6304 3.30776 16.5411C3.21733 16.0664 3.13641 15.6416 3.03401 15.2577C2.89171 14.724 3.20895 14.1761 3.74258 14.0338C4.27622 13.8915 4.82418 14.2087 4.96648 14.7423C5.08933 15.203 5.18609 15.7121 5.27583 16.1842C5.29203 16.2695 5.30801 16.3535 5.32387 16.4359C5.43237 16.9993 5.5387 17.5031 5.68226 17.9338C5.82793 18.3708 5.98383 18.6423 6.13708 18.7977C6.25806 18.9203 6.4019 19 6.66691 19C6.83702 19 7.02456 18.938 7.27697 18.6515C7.55124 18.3401 7.82991 17.8384 8.12536 17.1198C8.41651 16.4116 8.69274 15.5731 8.99636 14.6308C9.02633 14.5378 9.05655 14.4438 9.08703 14.349C9.36124 13.4964 9.65712 12.5764 9.9947 11.6557C10.741 9.62033 11.7307 7.46433 13.2899 5.81338C14.8845 4.12495 17.0429 3 20.0002 3C20.5525 3 21.0002 3.44772 21.0002 4C21.0002 4.55228 20.5525 5 20.0002 5C17.6243 5 15.9826 5.87505 14.7439 7.18662C13.4698 8.53567 12.5928 10.3797 11.8725 12.3443C11.5496 13.2248 11.2661 14.106 10.9904 14.9634C10.9602 15.0573 10.93 15.1509 10.9 15.2442C10.5994 16.1769 10.3007 17.0884 9.97514 17.8802C9.65392 18.6616 9.27426 19.4099 8.77769 19.9735Z" fill="currentColor" style="fill:currentColor;fill-opacity:1;"/>
</svg>
