<svg width="24" height="24" viewBox="0 0 24 24" fill="none" xmlns="http://www.w3.org/2000/svg">
<path fill-rule="evenodd" clip-rule="evenodd" d="M5 20C5 20.5523 4.55228 21 4 21C3.44772 21 3 20.5523 3 20H4C3 20 3 20.0002 3 20L3.00001 19.9869L3.0001 19.9511L3.00075 19.8141C3.0015 19.6947 3.00299 19.5204 3.00595 19.2991C3.01188 18.8566 3.02371 18.2256 3.04736 17.4688C3.0946 15.9571 3.18924 13.9347 3.37936 11.9067C3.56831 9.89118 3.85599 7.81851 4.30296 6.22926C4.52439 5.44194 4.80378 4.70253 5.17369 4.13885C5.53189 3.59301 6.1232 3 6.99997 3C7.57595 3 8.03259 3.26248 8.36316 3.58482C8.67784 3.89168 8.91169 4.28168 9.09396 4.65512C9.41305 5.30888 9.67857 6.14141 9.9214 6.90284C9.95279 7.00126 9.9838 7.09849 10.0145 7.194C10.3009 8.08505 10.5681 8.85542 10.8872 9.40238C11.2173 9.9684 11.4253 10 11.5 10C11.8212 10 12.1457 9.87125 12.5989 9.54792C12.8271 9.38512 13.0597 9.1941 13.3331 8.96845L13.3546 8.95069C13.6139 8.73664 13.9059 8.49556 14.2211 8.26443C14.8768 7.78359 15.6764 7.31178 16.6969 7.08479C17.7233 6.8565 18.8982 6.8921 20.2873 7.30884C20.8163 7.46754 21.1165 8.02502 20.9578 8.55401C20.7991 9.08301 20.2416 9.38319 19.7127 9.22449C18.6018 8.89123 17.7767 8.8935 17.1312 9.03708C16.4798 9.18197 15.9356 9.48725 15.4038 9.87724C15.1354 10.0741 14.8814 10.2837 14.6105 10.5074L14.605 10.5119C14.3416 10.7293 14.0552 10.9657 13.7604 11.176C13.1667 11.5996 12.4287 12 11.5 12C10.3246 12 9.59505 11.1566 9.15961 10.4101C8.71305 9.64458 8.38652 8.66495 8.11044 7.806C8.07908 7.70846 8.04836 7.61242 8.01814 7.51796C7.7647 6.72577 7.54705 6.04545 7.29662 5.53238C7.17369 5.28052 7.06997 5.12854 6.99372 5.04465C6.95756 5.08173 6.90792 5.14148 6.84579 5.23615C6.6415 5.54747 6.4287 6.05806 6.22826 6.77074C5.83149 8.18149 5.55668 10.1088 5.37063 12.0933C5.18576 14.0653 5.0929 16.0429 5.04639 17.5312C5.02316 18.2744 5.01156 18.8934 5.00577 19.3259C5.00287 19.5421 5.00143 19.7116 5.00071 19.8266L5.00009 19.9571L5.00001 19.9899L5 20ZM7.06439 4.98795C7.06443 4.98836 7.06129 4.99027 7.05489 4.99245C7.06116 4.98864 7.06436 4.98755 7.06439 4.98795Z" fill="currentColor" style="fill:currentColor;fill-opacity:1;"/>
</svg>
