<svg xmlns="http://www.w3.org/2000/svg" viewBox="0 0 24 24" fill="none">
<path fill-rule="evenodd" clip-rule="evenodd" d="M18.4994 4C20.4324 4 21.9994 5.567 21.9994 7.5C21.9994 9.433 20.4324 11 18.4994 11C17.6641 10.9999 16.898 10.7061 16.2962 10.2178C14.8959 12.0309 14.0736 14.1131 13.6 15.8311C13.3399 16.7742 13.188 17.5927 13.1019 18.1719C13.0589 18.4609 13.0326 18.6894 13.017 18.8428C13.0091 18.9195 13.0044 18.9774 13.0013 19.0146C12.9998 19.0332 12.999 19.0467 12.9984 19.0547C12.9981 19.0586 12.9975 19.0612 12.9974 19.0625C12.9918 19.1543 12.973 19.2429 12.9437 19.3271C12.9398 19.3384 12.9353 19.3493 12.931 19.3604C12.9248 19.3765 12.9185 19.3925 12.9115 19.4082C12.9049 19.4229 12.8972 19.4369 12.89 19.4512C12.8831 19.4647 12.876 19.478 12.8685 19.4912C12.8624 19.502 12.8565 19.5129 12.85 19.5234C12.8389 19.5413 12.8279 19.559 12.8158 19.5762C12.8088 19.5861 12.8016 19.5958 12.7943 19.6055C12.7853 19.6173 12.7765 19.6292 12.767 19.6406C12.757 19.6525 12.7461 19.6634 12.7357 19.6748C12.7246 19.6869 12.7141 19.6994 12.7025 19.7109C12.6948 19.7186 12.686 19.7251 12.6781 19.7324C12.6607 19.7486 12.643 19.7644 12.6244 19.7793C12.5897 19.8071 12.5532 19.8324 12.515 19.8555C12.4915 19.8697 12.4675 19.8832 12.4427 19.8955C12.3705 19.9313 12.2936 19.958 12.2132 19.9756C12.1984 19.9788 12.1835 19.9818 12.1683 19.9844C12.1499 19.9875 12.1314 19.991 12.1127 19.9932C12.1088 19.9936 12.1048 19.9947 12.1009 19.9951C12.0873 19.9965 12.0735 19.9953 12.0599 19.9961C12.0473 19.9968 12.0346 19.9978 12.0218 19.998C12.0025 19.9985 11.9833 19.9987 11.9642 19.998C11.9553 19.9977 11.9459 19.9986 11.9369 19.998C11.9313 19.9977 11.9258 19.9965 11.9203 19.9961C11.8986 19.9944 11.8772 19.9914 11.8558 19.9883C11.8453 19.9868 11.8349 19.9852 11.8246 19.9834C11.8015 19.9793 11.7788 19.9744 11.7562 19.9688C11.7458 19.9661 11.7353 19.9639 11.725 19.9609C11.7058 19.9554 11.687 19.949 11.6683 19.9424C11.6565 19.9382 11.6447 19.9343 11.6332 19.9297C11.6133 19.9218 11.5938 19.9134 11.5746 19.9043C11.5637 19.8992 11.5529 19.8941 11.5423 19.8887C11.5281 19.8813 11.5142 19.8733 11.5003 19.8652C11.4841 19.8558 11.4681 19.8462 11.4525 19.8359C11.4443 19.8305 11.4362 19.825 11.4281 19.8193C11.4116 19.8078 11.395 19.7966 11.3793 19.7842C11.3642 19.7723 11.3496 19.7598 11.3353 19.7471C11.326 19.7388 11.3169 19.7303 11.308 19.7217C11.2712 19.6864 11.2376 19.648 11.2064 19.6074C11.1982 19.5967 11.1898 19.5862 11.182 19.5752C11.1671 19.554 11.1533 19.5321 11.14 19.5098C11.1371 19.5049 11.134 19.5001 11.1312 19.4951C11.1226 19.4801 11.1146 19.4647 11.1068 19.4492C11.0998 19.4353 11.0927 19.4215 11.0863 19.4072C11.0772 19.3869 11.0696 19.3658 11.0619 19.3447C11.0587 19.3362 11.055 19.3279 11.0521 19.3193C11.0451 19.2985 11.0392 19.2773 11.0336 19.2559C11.0304 19.2441 11.0265 19.2326 11.0238 19.2207C11.0196 19.2021 11.0172 19.1831 11.014 19.1641C11.0118 19.1507 11.0089 19.1375 11.0072 19.124C11.0063 19.1166 11.005 19.1091 11.0043 19.1016V19.0957C11.0038 19.0912 11.0023 19.0844 11.0013 19.0752C10.9993 19.0561 10.9969 19.0267 10.9925 18.9883C10.9839 18.9113 10.9707 18.7967 10.9525 18.6504C10.9161 18.3576 10.86 17.9373 10.7826 17.4326C10.6273 16.4203 10.3868 15.0802 10.0462 13.748C9.70207 12.4019 9.27111 11.1262 8.75523 10.209C8.20027 9.22245 7.75279 9 7.49937 9C7.24588 9.00021 6.79825 9.22278 6.24351 10.209C5.72766 11.1262 5.29666 12.402 4.9525 13.748C4.61192 15.0802 4.37147 16.4203 4.21617 17.4326C4.13874 17.9373 4.08261 18.3576 4.04625 18.6504C4.02808 18.7967 4.01487 18.9113 4.00621 18.9883C4.00188 19.0267 3.99947 19.0561 3.99742 19.0752C3.99643 19.0844 3.99496 19.0912 3.99449 19.0957V19.1016C3.93829 19.6509 3.44713 20.0512 2.89781 19.9951C2.34866 19.9388 1.94822 19.4476 2.00426 18.8984L2.99937 19L2.00426 18.8975L2.00523 18.8955C2.00541 18.8938 2.00492 18.8907 2.00523 18.8877C2.00586 18.8817 2.00699 18.8732 2.00816 18.8623C2.01057 18.8398 2.01417 18.8067 2.0189 18.7646C2.02836 18.6806 2.04271 18.5586 2.06187 18.4043C2.10021 18.0956 2.15887 17.6562 2.23961 17.1299C2.4007 16.0798 2.65255 14.6695 3.015 13.252C3.37389 11.8483 3.8572 10.3737 4.50133 9.22852C5.10644 8.15283 6.06558 7.00019 7.49937 7C8.9333 7 9.89225 8.15278 10.4974 9.22852C11.1416 10.3737 11.6248 11.8483 11.9837 13.252C12.0344 13.4502 12.0819 13.6487 12.1283 13.8457C12.7386 12.1207 13.6824 10.1826 15.1371 8.47168C15.048 8.16309 14.9994 7.83725 14.9994 7.5C14.9994 5.56712 16.5665 4.00019 18.4994 4Z" fill="currentColor"/>
</svg>
