<svg xmlns="http://www.w3.org/2000/svg" viewBox="0 0 24 24" fill="none">
<path d="M21 7.37722C21 9.08391 19.8384 10.5716 18.1826 10.9854C17.4876 11.1592 17 11.7835 17 12.5C17 13.2165 17.4876 13.8408 18.1826 14.0146C19.8384 14.4284 21 15.9161 21 17.6228V18C21 19.1046 20.1046 20 19 20H6C4.89543 20 4 19.1046 4 18V17.4537C4 15.8464 5.09397 14.4454 6.65332 14.0557C7.44458 13.8578 8 13.1467 8 12.3311C7.99985 11.6487 7.60922 11.0297 7 10.7334V4H19C20.1046 4 21 4.89543 21 6V7.37722Z" fill="currentColor"/><path d="M5 9.87305L3.17441 9.09084C1.85531 8.52565 1 7.22867 1 5.79359C1 4.80302 1.80302 4 2.79359 4H5V9.87305Z" fill="currentColor"/>
</svg>
