<svg width="24" height="24" viewBox="0 0 24 24" fill="none" xmlns="http://www.w3.org/2000/svg">
  <path
    d="M4.843 9.352C3.153 12.286 4.228 16.739 6.097 19.439C7.031 20.789 7.976 22 9.27 22L9.344 21.999C9.952 21.974 10.391 21.787 10.816 21.606C11.293 21.403 11.786 21.193 12.56 21.193C13.296 21.193 13.766 21.396 14.22 21.593C14.668 21.786 15.13 21.987 15.81 21.974C17.268 21.947 18.163 20.639 18.953 19.486C19.5441 18.6165 20.0078 17.6668 20.33 16.666L20.336 16.648C20.3495 16.6074 20.3466 16.5631 20.3279 16.5247C20.3092 16.4862 20.2762 16.4565 20.236 16.442C19.98 16.337 17.728 15.338 17.704 12.615C17.682 10.403 19.394 9.231 19.737 9.019L19.753 9.009C19.7713 8.99709 19.7871 8.98164 19.7993 8.96355C19.8116 8.94547 19.8201 8.92511 19.8244 8.90369C19.8287 8.88226 19.8286 8.86019 19.8243 8.83878C19.8199 8.81737 19.8113 8.79705 19.799 8.779C18.619 7.05 16.808 6.789 16.079 6.759C15.971 6.74797 15.8625 6.7423 15.754 6.742C14.898 6.742 14.078 7.066 13.419 7.325C12.964 7.505 12.571 7.66 12.3 7.66C11.996 7.66 11.601 7.503 11.143 7.321C10.532 7.079 9.838 6.803 9.104 6.803H9.052C7.346 6.829 5.732 7.805 4.843 9.352Z"
    fill="currentColor" />
  <path
    d="M16.08 2.00001C15.047 2.04201 13.807 2.67801 13.066 3.54701C12.436 4.27701 11.821 5.49301 11.983 6.71901C11.993 6.79601 12.055 6.85501 12.133 6.86101C12.203 6.86601 12.273 6.86901 12.344 6.86901C13.355 6.86901 14.445 6.31001 15.19 5.40901C15.974 4.45901 16.37 3.23901 16.25 2.14601C16.2452 2.10474 16.2251 2.06678 16.1936 2.03972C16.1621 2.01266 16.1215 1.99847 16.08 2.00001Z"
    fill="currentColor" />
</svg>
