<svg width="24" height="24" viewBox="0 0 24 24" fill="none" xmlns="http://www.w3.org/2000/svg">
<path d="M9.49845 1.61535C9.00989 1.3578 8.40505 1.54507 8.14751 2.03363C7.88996 2.52219 8.07723 3.12702 8.56579 3.38457C9.3655 3.80614 9.90584 4.29837 10.2776 4.87384C10.4001 5.06353 10.5084 5.26861 10.6026 5.49161C9.70158 5.27998 8.86144 5.22481 8.0848 5.32029C6.80048 5.47819 5.75034 6.04169 4.95026 6.87598C3.38685 8.50625 2.86455 11.0592 3.02893 13.4556C3.19452 15.8697 4.07135 18.3934 5.63497 20.0749C6.42662 20.9262 7.414 21.5804 8.58518 21.8571C9.64772 22.1081 10.797 22.0331 11.9988 21.5951C13.2008 22.0331 14.3504 22.1081 15.4131 21.8571C16.5845 21.5804 17.5721 20.9263 18.3639 20.075C19.928 18.3935 20.805 15.8698 20.9707 13.4556C21.1351 11.0592 20.6127 8.50618 19.0489 6.87591C18.2487 6.04163 17.1984 5.47818 15.9139 5.3203C14.9588 5.2029 13.9076 5.31325 12.7652 5.6622C12.5883 4.98587 12.3266 4.35987 11.9575 3.78858C11.3711 2.88083 10.5519 2.17069 9.49845 1.61535Z" fill="currentColor" style="fill:currentColor;fill-opacity:1;"/>
</svg>
