<svg width="24" height="24" viewBox="0 0 24 24" fill="none" xmlns="http://www.w3.org/2000/svg">
<path d="M19.8465 17.5558L12.0006 13.1424L4.15382 17.5561C4.41238 17.818 4.70922 18.0462 5.03896 18.2317L10.039 21.0442C11.2566 21.7291 12.7434 21.7291 13.961 21.0442L18.961 18.2317C19.2909 18.0462 19.5878 17.8178 19.8465 17.5558Z" fill="currentColor" style="fill:currentColor;fill-opacity:1;"/>
<path d="M20.8513 15.8263L13.0006 11.4102V2.56908C13.332 2.6547 13.655 2.78357 13.961 2.9557L18.961 5.7682C20.2206 6.47667 21 7.80941 21 9.2545V14.7454C21 15.116 20.9487 15.4792 20.8513 15.8263Z" fill="currentColor" style="fill:currentColor;fill-opacity:1;"/>
<path d="M11.0006 2.56879C10.6687 2.6544 10.3453 2.78337 10.039 2.9557L5.03896 5.7682C3.77945 6.47667 3 7.80941 3 9.2545V14.7454C3 15.1161 3.05129 15.4794 3.14883 15.8267L11.0006 11.4102V2.56879Z" fill="currentColor" style="fill:currentColor;fill-opacity:1;"/>
</svg>
