<svg width="24" height="24" viewBox="0 0 24 24" fill="none" xmlns="http://www.w3.org/2000/svg">
<path d="M15.4884 8.27915L14.9923 9.14739H14.9923L15.4884 8.27915ZM15.4884 15.721L15.9846 16.5892L15.4884 15.721ZM10.5116 16.8638L10.0154 17.7321H10.0154L10.5116 16.8638ZM13.4884 16.8638L12.9923 15.9956L13.4884 16.8638ZM8.51158 15.721L9.00772 14.8527H9.00772L8.51158 15.721ZM8.51158 8.27915L9.00772 9.14739L8.51158 8.27915ZM10.5116 7.13629L10.0154 6.26805L10.5116 7.13629ZM13.4884 7.13629L13.9846 6.26805L13.9846 6.26805L13.4884 7.13629ZM4 3C3.44772 3 3 3.44772 3 4C3 4.55228 3.44772 5 4 5V3ZM4.01 5C4.56228 5 5.01 4.55228 5.01 4C5.01 3.44772 4.56228 3 4.01 3V5ZM20 3C19.4477 3 19 3.44772 19 4C19 4.55228 19.4477 5 20 5V3ZM20.01 5C20.5623 5 21.01 4.55228 21.01 4C21.01 3.44772 20.5623 3 20.01 3V5ZM4 19C3.44772 19 3 19.4477 3 20C3 20.5523 3.44772 21 4 21V19ZM4.01 21C4.56228 21 5.01 20.5523 5.01 20C5.01 19.4477 4.56228 19 4.01 19V21ZM20 19C19.4477 19 19 19.4477 19 20C19 20.5523 19.4477 21 20 21V19ZM20.01 21C20.5623 21 21.01 20.5523 21.01 20C21.01 19.4477 20.5623 19 20.01 19V21ZM10.0154 6.26805L8.01544 7.4109L9.00772 9.14739L11.0077 8.00453L10.0154 6.26805ZM6 10.8839V13.1162H8V10.8839H6ZM8.01544 16.5892L10.0154 17.7321L11.0077 15.9956L9.00772 14.8527L8.01544 16.5892ZM13.9846 17.7321L15.9846 16.5892L14.9923 14.8527L12.9923 15.9956L13.9846 17.7321ZM18 13.1162V10.8839H16V13.1162H18ZM15.9846 7.4109L13.9846 6.26805L12.9923 8.00453L14.9923 9.14739L15.9846 7.4109ZM18 10.8839C18 9.44845 17.2309 8.12308 15.9846 7.4109L14.9923 9.14739C15.6154 9.50348 16 10.1662 16 10.8839H18ZM15.9846 16.5892C17.2309 15.877 18 14.5517 18 13.1162H16C16 13.8339 15.6154 14.4966 14.9923 14.8527L15.9846 16.5892ZM10.0154 17.7321C11.2452 18.4348 12.7548 18.4348 13.9846 17.7321L12.9923 15.9956C12.3774 16.3469 11.6226 16.3469 11.0077 15.9956L10.0154 17.7321ZM6 13.1162C6 14.5517 6.76914 15.877 8.01544 16.5892L9.00772 14.8527C8.38457 14.4966 8 13.8339 8 13.1162H6ZM8.01544 7.4109C6.76914 8.12308 6 9.44845 6 10.8839H8C8 10.1662 8.38457 9.50348 9.00772 9.14739L8.01544 7.4109ZM11.0077 8.00453C11.6226 7.65318 12.3774 7.65318 12.9923 8.00453L13.9846 6.26805C12.7548 5.56534 11.2452 5.56534 10.0154 6.26805L11.0077 8.00453ZM16.5039 8.2747L11.5039 11.1318L12.4961 12.8683L17.4961 10.0112L16.5039 8.2747ZM12.4961 11.1318L7.49614 8.2747L6.50386 10.0112L11.5039 12.8683L12.4961 11.1318ZM11 12.0001V17.7144H13V12.0001H11ZM3.25 4C3.25 3.58579 3.58579 3.25 4 3.25V5.25C4.69036 5.25 5.25 4.69036 5.25 4H3.25ZM4 3.25C4.41421 3.25 4.75 3.58579 4.75 4H2.75C2.75 4.69036 3.30964 5.25 4 5.25V3.25ZM4.75 4C4.75 4.41421 4.41421 4.75 4 4.75V2.75C3.30964 2.75 2.75 3.30964 2.75 4H4.75ZM4 4.75C3.58579 4.75 3.25 4.41421 3.25 4H5.25C5.25 3.30964 4.69036 2.75 4 2.75V4.75ZM4 5H4.01V3H4V5ZM19.25 4C19.25 3.58579 19.5858 3.25 20 3.25V5.25C20.6904 5.25 21.25 4.69036 21.25 4H19.25ZM20 3.25C20.4142 3.25 20.75 3.58579 20.75 4H18.75C18.75 4.69036 19.3096 5.25 20 5.25V3.25ZM20.75 4C20.75 4.41421 20.4142 4.75 20 4.75V2.75C19.3096 2.75 18.75 3.30964 18.75 4H20.75ZM20 4.75C19.5858 4.75 19.25 4.41421 19.25 4H21.25C21.25 3.30964 20.6904 2.75 20 2.75V4.75ZM20 5H20.01V3H20V5ZM3.25 20C3.25 19.5858 3.58579 19.25 4 19.25V21.25C4.69036 21.25 5.25 20.6904 5.25 20H3.25ZM4 19.25C4.41421 19.25 4.75 19.5858 4.75 20H2.75C2.75 20.6904 3.30964 21.25 4 21.25V19.25ZM4.75 20C4.75 20.4142 4.41421 20.75 4 20.75V18.75C3.30964 18.75 2.75 19.3096 2.75 20H4.75ZM4 20.75C3.58579 20.75 3.25 20.4142 3.25 20H5.25C5.25 19.3096 4.69036 18.75 4 18.75V20.75ZM4 21H4.01V19H4V21ZM19.25 20C19.25 19.5858 19.5858 19.25 20 19.25V21.25C20.6904 21.25 21.25 20.6904 21.25 20H19.25ZM20 19.25C20.4142 19.25 20.75 19.5858 20.75 20H18.75C18.75 20.6904 19.3096 21.25 20 21.25V19.25ZM20.75 20C20.75 20.4142 20.4142 20.75 20 20.75V18.75C19.3096 18.75 18.75 19.3096 18.75 20H20.75ZM20 20.75C19.5858 20.75 19.25 20.4142 19.25 20H21.25C21.25 19.3096 20.6904 18.75 20 18.75V20.75ZM20 21H20.01V19H20V21Z" fill="currentColor"/>
</svg>
