<svg width="24" height="24" viewBox="0 0 24 24" fill="none" xmlns="http://www.w3.org/2000/svg">
<path d="M7 19C5.89543 19 5 18.1046 5 17V16C5 15.4477 4.55228 15 4 15C3.44772 15 3 15.4477 3 16V17C3 19.2091 4.79086 21 7 21H8C8.55228 21 9 20.5523 9 20C9 19.4477 8.55228 19 8 19H7Z" fill="currentColor" style="fill:currentColor;fill-opacity:1;"/>
<path d="M3 8C3 8.55229 3.44772 9 4 9C4.55228 9 5 8.55229 5 8V7C5 5.89543 5.89543 5 7 5H8C8.55228 5 9 4.55229 9 4C9 3.44772 8.55228 3 8 3H7C4.79086 3 3 4.79086 3 7V8Z" fill="currentColor" style="fill:currentColor;fill-opacity:1;"/>
<path d="M16 19C15.4477 19 15 19.4477 15 20C15 20.5523 15.4477 21 16 21H17C19.2091 21 21 19.2091 21 17V16C21 15.4477 20.5523 15 20 15C19.4477 15 19 15.4477 19 16V17C19 18.1046 18.1046 19 17 19H16Z" fill="currentColor" style="fill:currentColor;fill-opacity:1;"/>
<path d="M16 3C15.4477 3 15 3.44772 15 4C15 4.55229 15.4477 5 16 5H17C18.1046 5 19 5.89543 19 7V8C19 8.55229 19.4477 9 20 9C20.5523 9 21 8.55229 21 8V7C21 4.79086 19.2091 3 17 3H16Z" fill="currentColor" style="fill:currentColor;fill-opacity:1;"/>
<path d="M12 10.8482L15.4473 8.87838C15.3062 8.75802 15.1528 8.64983 14.9884 8.55588L13.4884 7.69874C12.5661 7.17171 11.4339 7.17171 10.5116 7.69874L9.01158 8.55588C8.84716 8.64983 8.69381 8.75802 8.55273 8.87838L12 10.8482Z" fill="currentColor" style="fill:currentColor;fill-opacity:1;"/>
<path d="M13 12.5803L16.449 10.6095C16.4826 10.7894 16.5 10.9737 16.5 11.1606V12.8393C16.5 13.9159 15.9231 14.9099 14.9884 15.444L13.4884 16.3012C13.331 16.3911 13.1675 16.4657 13 16.525V12.5803Z" fill="currentColor" style="fill:currentColor;fill-opacity:1;"/>
<path d="M11 12.5803V16.525C10.8325 16.4657 10.669 16.3911 10.5116 16.3012L9.01158 15.444C8.07686 14.9099 7.5 13.9159 7.5 12.8393V11.1606C7.5 10.9737 7.51738 10.7894 7.55099 10.6095L11 12.5803Z" fill="currentColor" style="fill:currentColor;fill-opacity:1;"/>
</svg>
