<svg xmlns="http://www.w3.org/2000/svg" viewBox="0 0 24 24" fill="none">
<path fill-rule="evenodd" clip-rule="evenodd" d="M21 15.2412C21 16.0462 21.0003 16.7108 20.9561 17.252C20.9101 17.814 20.8117 18.3311 20.5645 18.8164C20.181 19.5689 19.5689 20.181 18.8164 20.5645C18.3311 20.8117 17.814 20.9101 17.252 20.9561C16.7108 21.0003 16.0462 21 15.2412 21H8.75879C7.95381 21 7.28925 21.0003 6.74805 20.9561C6.18599 20.9101 5.6689 20.8117 5.18359 20.5645C4.43109 20.181 3.81902 19.5689 3.43555 18.8164C3.18827 18.3311 3.08987 17.814 3.04395 17.252C2.99973 16.7108 2.99999 16.0462 3 15.2412V9H21V15.2412ZM14.6367 12.3633C14.2852 12.0118 13.7148 12.0118 13.3633 12.3633L12 13.7266L10.6367 12.3633C10.2852 12.0118 9.71475 12.0118 9.36328 12.3633C9.01181 12.7148 9.01181 13.2852 9.36328 13.6367L10.7266 15L9.36328 16.3633C9.01181 16.7148 9.01181 17.2852 9.36328 17.6367C9.71475 17.9882 10.2852 17.9882 10.6367 17.6367L12 16.2734L13.3633 17.6367C13.7148 17.9882 14.2852 17.9882 14.6367 17.6367C14.9882 17.2852 14.9882 16.7148 14.6367 16.3633L13.2734 15L14.6367 13.6367C14.9882 13.2852 14.9882 12.7148 14.6367 12.3633Z" fill="currentColor"/><path d="M21 3C21.5523 3 22 3.44772 22 4V6C22 6.55228 21.5523 7 21 7H3C2.44772 7 2 6.55228 2 6V4C2 3.44772 2.44772 3 3 3H21Z" fill="currentColor"/>
</svg>
