<svg width="24" height="24" viewBox="0 0 24 24" fill="none" xmlns="http://www.w3.org/2000/svg">
<path fill-rule="evenodd" clip-rule="evenodd" d="M12 3C12.5523 3 13 3.44772 13 4V16.3358L15.5429 13.7929C15.9334 13.4024 16.5666 13.4024 16.9571 13.7929C17.3476 14.1834 17.3476 14.8166 16.9571 15.2071L13.7677 18.3965C13.4842 18.68 13.1496 18.8811 12.7935 19H19C19.5523 19 20 19.4477 20 20C20 20.5523 19.5523 21 19 21H5C4.44772 21 4 20.5523 4 20C4 19.4477 4.44772 19 5 19H11.2065C10.8504 18.8811 10.5157 18.68 10.2322 18.3964L7.04289 15.2071C6.65237 14.8166 6.65237 14.1834 7.04289 13.7929C7.43342 13.4024 8.06659 13.4024 8.45711 13.7929L11 16.3358V4C11 3.44772 11.4477 3 12 3Z" fill="currentColor" style="fill:currentColor;fill-opacity:1;"/>
</svg>
