<svg width="24" height="24" viewBox="0 0 24 24" fill="none" xmlns="http://www.w3.org/2000/svg">
<path fill-rule="evenodd" clip-rule="evenodd" d="M7 3C7.55228 3 8 3.44772 8 4V18.0858L10.2929 15.7929C10.6834 15.4024 11.3166 15.4024 11.7071 15.7929C12.0976 16.1834 12.0976 16.8166 11.7071 17.2071L8.76777 20.1464C7.79145 21.1228 6.20854 21.1228 5.23223 20.1464L2.29289 17.2071C1.90237 16.8166 1.90237 16.1834 2.29289 15.7929C2.68342 15.4024 3.31658 15.4024 3.70711 15.7929L6 18.0858V4C6 3.44772 6.44772 3 7 3ZM15.2322 3.85355C16.2085 2.87724 17.7915 2.87725 18.7678 3.85355L21.7071 6.79289C22.0976 7.18342 22.0976 7.81658 21.7071 8.20711C21.3166 8.59763 20.6834 8.59763 20.2929 8.20711L18 5.91421V20C18 20.5523 17.5523 21 17 21C16.4477 21 16 20.5523 16 20V5.91421L13.7071 8.20711C13.3166 8.59763 12.6834 8.59763 12.2929 8.20711C11.9024 7.81658 11.9024 7.18342 12.2929 6.79289L15.2322 3.85355Z" fill="currentColor" style="fill:currentColor;fill-opacity:1;"/>
</svg>
