<svg xmlns="http://www.w3.org/2000/svg" viewBox="0 0 24 24" fill="none">
<path fill-rule="evenodd" clip-rule="evenodd" d="M17 3C19.2091 3 21 4.79086 21 7V17C21 19.2091 19.2091 21 17 21H7C4.79086 21 3 19.2091 3 17V7C3 4.79086 4.79086 3 7 3H17ZM12 7C11.4477 7 11 7.44772 11 8V13.5859L9.70703 12.293C9.31651 11.9024 8.68349 11.9024 8.29297 12.293C7.90244 12.6835 7.90244 13.3165 8.29297 13.707L11.293 16.707C11.6835 17.0976 12.3165 17.0976 12.707 16.707L15.707 13.707C16.0976 13.3165 16.0976 12.6835 15.707 12.293C15.3165 11.9024 14.6835 11.9024 14.293 12.293L13 13.5859V8C13 7.44772 12.5523 7 12 7Z" fill="currentColor"/>
</svg>
