<svg xmlns="http://www.w3.org/2000/svg" viewBox="0 0 24 24" fill="none">
<path d="M19 19C19.5523 19 20 19.4477 20 20C20 20.5522 19.5523 21 19 21H5C4.44774 21 4.00004 20.5522 4 20C4 19.4477 4.44772 19 5 19H19ZM11.293 3.04297C11.6835 2.65244 12.3165 2.65244 12.707 3.04297L16.957 7.29297C17.3475 7.6835 17.3475 8.31652 16.957 8.70703C16.5665 9.09751 15.9335 9.09751 15.543 8.70703L13 6.16406V16C13 16.5522 12.5523 17 12 17C11.4477 17 11 16.5522 11 16V6.16406L8.45703 8.70703C8.06652 9.09751 7.43348 9.09751 7.04297 8.70703C6.65246 8.31652 6.65248 7.6835 7.04297 7.29297L11.293 3.04297Z" fill="currentColor"/>
</svg>
