<svg xmlns="http://www.w3.org/2000/svg" viewBox="0 0 24 24" fill="none">
<path d="M11.3691 12.9746C11.7619 12.6543 12.3409 12.6769 12.707 13.043L15.207 15.543C15.5976 15.9335 15.5976 16.5665 15.207 16.957C14.8165 17.3476 14.1835 17.3476 13.793 16.957L13 16.1641V20C13 20.5523 12.5523 21 12 21C11.4477 21 11 20.5523 11 20V16.1641L10.207 16.957C9.81651 17.3476 9.18349 17.3476 8.79297 16.957C8.40244 16.5665 8.40244 15.9335 8.79297 15.543L11.293 13.043L11.3691 12.9746Z" fill="currentColor"/><path d="M7 4C7.55228 4 8 4.44772 8 5C8 5.55228 7.55228 6 7 6H6C4.89543 6 4 6.89543 4 8V16C4 17.1046 4.89543 18 6 18H7C7.55228 18 8 18.4477 8 19C8 19.5523 7.55228 20 7 20H6C3.79086 20 2 18.2091 2 16V8C2 5.79086 3.79086 4 6 4H7Z" fill="currentColor"/><path d="M18 4C20.2091 4 22 5.79086 22 8V16C22 18.2091 20.2091 20 18 20H17C16.4477 20 16 19.5523 16 19C16 18.4477 16.4477 18 17 18H18C19.1046 18 20 17.1046 20 16V8C20 6.89543 19.1046 6 18 6H17C16.4477 6 16 5.55228 16 5C16 4.44772 16.4477 4 17 4H18Z" fill="currentColor"/><path d="M12 3C12.5523 3 13 3.44772 13 4V7.83594L13.793 7.04297C14.1835 6.65244 14.8165 6.65244 15.207 7.04297C15.5976 7.43349 15.5976 8.06651 15.207 8.45703L12.707 10.957C12.3165 11.3476 11.6835 11.3476 11.293 10.957L8.79297 8.45703C8.40244 8.06651 8.40244 7.43349 8.79297 7.04297C9.18349 6.65244 9.81651 6.65244 10.207 7.04297L11 7.83594V4C11 3.44772 11.4477 3 12 3Z" fill="currentColor"/>
</svg>
