<svg xmlns="http://www.w3.org/2000/svg" viewBox="0 0 24 24" fill="none">
<path d="M12.4999 3C16.642 3.00004 19.9999 6.35789 19.9999 10.5V11C19.9999 14.4695 17.4764 17.3477 14.165 17.9033C13.6204 17.9944 13.105 17.6266 13.0136 17.082C12.9225 16.5375 13.2904 16.022 13.8349 15.9307C16.1986 15.5339 17.9999 13.4763 17.9999 11V10.5C17.9999 7.46246 15.5375 5.00004 12.4999 5C9.46236 5 6.99992 7.46243 6.99992 10.5V17.5859L8.29289 16.293C8.68342 15.9025 9.31644 15.9025 9.70696 16.293C10.0974 16.6835 10.0974 17.3165 9.70696 17.707L6.70696 20.707C6.66043 20.7536 6.60857 20.7944 6.55364 20.8311C6.51451 20.8572 6.47421 20.8804 6.43254 20.9004C6.38705 20.9223 6.33994 20.9412 6.29094 20.9561C6.2742 20.9611 6.25709 20.9646 6.24016 20.9688C6.22456 20.9726 6.20916 20.9774 6.19328 20.9805C6.18619 20.9819 6.17892 20.9822 6.1718 20.9834C6.11586 20.9931 6.05864 21 5.99992 21C5.94328 21 5.88798 20.9934 5.83391 20.9844C5.82351 20.9826 5.81301 20.9816 5.80266 20.9795C5.79116 20.9772 5.77984 20.9744 5.76848 20.9717C5.74791 20.9668 5.72724 20.9623 5.70696 20.9561C5.6583 20.9412 5.61152 20.9222 5.56633 20.9004C5.52654 20.8812 5.48761 20.8597 5.45012 20.835C5.39346 20.7976 5.34071 20.7548 5.29289 20.707L2.29289 17.707C1.90237 17.3165 1.90237 16.6835 2.29289 16.293C2.68342 15.9025 3.31644 15.9025 3.70696 16.293L4.99992 17.5859V10.5C4.99992 6.35786 8.35779 3 12.4999 3Z" fill="currentColor"/>
</svg>
