<svg xmlns="http://www.w3.org/2000/svg" viewBox="0 0 24 24" fill="none">
<path d="M12 7C12.5523 7 13 7.44772 13 8V17.5859L15.543 15.043C15.9335 14.6524 16.5665 14.6524 16.957 15.043C17.3476 15.4335 17.3476 16.0665 16.957 16.457L12.707 20.707C12.3165 21.0976 11.6835 21.0976 11.293 20.707L7.04297 16.457C6.65244 16.0665 6.65244 15.4335 7.04297 15.043C7.43349 14.6524 8.06651 14.6524 8.45703 15.043L11 17.5859V8C11 7.44772 11.4477 7 12 7Z" fill="currentColor"/><path d="M19 3C19.5523 3 20 3.44772 20 4C20 4.55228 19.5523 5 19 5H5C4.44772 5 4 4.55228 4 4C4 3.44772 4.44772 3 5 3H19Z" fill="currentColor"/>
</svg>
