<svg xmlns="http://www.w3.org/2000/svg" viewBox="0 0 24 24" fill="none">
<path d="M12 13.9998C12.5523 13.9998 13 14.4475 13 14.9998V18.5857L13.793 17.7927C14.1835 17.4022 14.8165 17.4022 15.207 17.7927C15.5974 18.1833 15.5975 18.8163 15.207 19.2068L12.707 21.7068C12.3165 22.0972 11.6835 22.0972 11.293 21.7068L8.79297 19.2068C8.40248 18.8163 8.40256 18.1833 8.79297 17.7927C9.18349 17.4022 9.81651 17.4022 10.207 17.7927L11 18.5857V14.9998C11 14.4475 11.4477 13.9998 12 13.9998Z" fill="currentColor"/><path d="M7 7.99977C7.55228 7.99977 8 8.44748 8 8.99977C7.99987 9.55194 7.55221 9.99977 7 9.99977H6C4.89543 9.99977 4 10.8952 4 11.9998C4.00013 13.1042 4.89551 13.9998 6 13.9998H7C7.55228 13.9998 8 14.4475 8 14.9998C7.99987 15.5519 7.55221 15.9998 7 15.9998H6C3.79094 15.9998 2.00013 14.2088 2 11.9998C2 9.79063 3.79086 7.99977 6 7.99977H7Z" fill="currentColor"/><path d="M18 7.99977C20.2091 7.99977 22 9.79063 22 11.9998C21.9999 14.2088 20.2091 15.9998 18 15.9998H17C16.4478 15.9998 16.0001 15.5519 16 14.9998C16 14.4475 16.4477 13.9998 17 13.9998H18C19.1045 13.9998 19.9999 13.1042 20 11.9998C20 10.8952 19.1046 9.99977 18 9.99977H17C16.4478 9.99977 16.0001 9.55194 16 8.99977C16 8.44748 16.4477 7.99977 17 7.99977H18Z" fill="currentColor"/><path d="M11.3691 2.22437C11.7619 1.90402 12.3409 1.92662 12.707 2.29273L15.207 4.79273C15.5974 5.18327 15.5975 5.81631 15.207 6.2068C14.8165 6.59716 14.1835 6.59716 13.793 6.2068L13 5.41383V8.99977C12.9999 9.55194 12.5522 9.99977 12 9.99977C11.4478 9.99977 11.0001 9.55194 11 8.99977V5.41383L10.207 6.2068C9.81654 6.59716 9.18346 6.59716 8.79297 6.2068C8.40248 5.81631 8.40256 5.18327 8.79297 4.79273L11.293 2.29273L11.3691 2.22437Z" fill="currentColor"/>
</svg>
