<svg width="24" height="24" viewBox="0 0 24 24" fill="none" xmlns="http://www.w3.org/2000/svg">
<path d="M16.7929 2.29289C17.1834 1.90237 17.8166 1.90237 18.2071 2.29289L20.5 4.58579C21.281 5.36683 21.281 6.63316 20.5 7.41421L18.2071 9.70711C17.8166 10.0976 17.1834 10.0976 16.7929 9.70711C16.4024 9.31658 16.4024 8.68342 16.7929 8.29289L18.0858 7H7C5.89543 7 5 7.89543 5 9V11C5 11.5523 4.55228 12 4 12C3.44772 12 3 11.5523 3 11V9C3 6.79086 4.79086 5 7 5H18.0858L16.7929 3.70711C16.4024 3.31658 16.4024 2.68342 16.7929 2.29289Z" fill="currentColor" style="fill:currentColor;fill-opacity:1;"/>
<path d="M21 13C21 12.4477 20.5523 12 20 12C19.4477 12 19 12.4477 19 13V15C19 16.1046 18.1046 17 17 17H5.91406L7.20696 15.7071C7.59748 15.3166 7.59748 14.6834 7.20696 14.2929C6.81643 13.9024 6.18327 13.9024 5.79274 14.2929L3.49985 16.5858C2.7188 17.3668 2.7188 18.6332 3.49985 19.4142L5.79274 21.7071C6.18327 22.0976 6.81643 22.0976 7.20696 21.7071C7.59748 21.3166 7.59748 20.6834 7.20696 20.2929L5.91406 19H17C19.2091 19 21 17.2091 21 15V13Z" fill="currentColor" style="fill:currentColor;fill-opacity:1;"/>
</svg>
