<svg width="24" height="24" viewBox="0 0 24 24" fill="none" xmlns="http://www.w3.org/2000/svg">
<path fill-rule="evenodd" clip-rule="evenodd" d="M4 3C4 2.44772 4.44772 2 5 2H19C19.5523 2 20 2.44772 20 3C20 3.55228 19.5523 4 19 4H5C4.44772 4 4 3.55228 4 3ZM10.2323 6.85355C11.2086 5.87724 12.7915 5.87725 13.7678 6.85356L16.9571 10.0429C17.3476 10.4334 17.3476 11.0666 16.9571 11.4571C16.5666 11.8476 15.9334 11.8476 15.5429 11.4571L13 8.91422V21C13 21.5523 12.5523 22 12 22C11.4477 22 11 21.5523 11 21V8.91421L8.45711 11.4571C8.06658 11.8476 7.43342 11.8476 7.04289 11.4571C6.65237 11.0666 6.65237 10.4334 7.04289 10.0429L10.2323 6.85355Z" fill="currentColor" style="fill:currentColor;fill-opacity:1;"/>
</svg>
