<svg xmlns="http://www.w3.org/2000/svg" viewBox="0 0 24 24" fill="none">
<path d="M9 3C9.55228 3 10 3.44772 10 4C10 4.55228 9.55228 5 9 5H6.41406L12.4141 11H20C20.5523 11 21 11.4477 21 12C21 12.5523 20.5523 13 20 13H12.4141L6.41406 19H9C9.55228 19 10 19.4477 10 20C10 20.5523 9.55228 21 9 21H4C3.44772 21 3 20.5523 3 20V15C3 14.4477 3.44772 14 4 14C4.55228 14 5 14.4477 5 15V17.5859L10.5859 12L5 6.41406V9C5 9.55228 4.55228 10 4 10C3.44772 10 3 9.55228 3 9V4C3 3.44772 3.44772 3 4 3H9Z" fill="currentColor"/>
</svg>
