<svg width="24" height="24" viewBox="0 0 24 24" fill="none" xmlns="http://www.w3.org/2000/svg">
<path d="M7.20688 5.70711C7.5974 5.31658 7.5974 4.68342 7.20688 4.29289C6.81636 3.90237 6.18319 3.90237 5.79267 4.29289L2.85333 7.23223C1.87701 8.20855 1.87702 9.79146 2.85333 10.7678L5.79267 13.7071C6.18319 14.0976 6.81636 14.0976 7.20688 13.7071C7.5974 13.3166 7.5974 12.6834 7.20688 12.2929L4.91399 10H16.5C18.433 10 20 11.567 20 13.5C20 15.433 18.433 17 16.5 17H12C11.4477 17 11 17.4477 11 18C11 18.5523 11.4477 19 12 19H16.5C19.5376 19 22 16.5376 22 13.5C22 10.4624 19.5376 8 16.5 8H4.91399L7.20688 5.70711Z" fill="currentColor" style="fill:currentColor;fill-opacity:1;"/>
</svg>
