<svg xmlns="http://www.w3.org/2000/svg" viewBox="0 0 24 24" fill="none">
<path fill-rule="evenodd" clip-rule="evenodd" d="M17 3C19.2091 3 21 4.79086 21 7V17C21 19.2091 19.2091 21 17 21H7C4.79086 21 3 19.2091 3 17V7C3 4.79086 4.79086 3 7 3H17ZM13.707 8.29297C13.3165 7.90244 12.6835 7.90244 12.293 8.29297C11.9024 8.68349 11.9024 9.31651 12.293 9.70703L13.5859 11H8C7.44772 11 7 11.4477 7 12C7 12.5523 7.44772 13 8 13H13.5859L12.293 14.293C11.9024 14.6835 11.9024 15.3165 12.293 15.707C12.6835 16.0976 13.3165 16.0976 13.707 15.707L16.707 12.707C17.0976 12.3165 17.0976 11.6835 16.707 11.293L13.707 8.29297Z" fill="currentColor"/>
</svg>
