<svg xmlns="http://www.w3.org/2000/svg" viewBox="0 0 24 24" fill="none">
<path d="M12 3C12.5523 3 13 3.44772 13 4V11.5859L19 17.5859V15C19 14.4477 19.4477 14 20 14C20.5523 14 21 14.4477 21 15V20C21 20.5523 20.5523 21 20 21H15C14.4477 21 14 20.5523 14 20C14 19.4477 14.4477 19 15 19H17.5859L12 13.4141L6.41406 19H9C9.55228 19 10 19.4477 10 20C10 20.5523 9.55228 21 9 21H4C3.44772 21 3 20.5523 3 20V15C3 14.4477 3.44772 14 4 14C4.55228 14 5 14.4477 5 15V17.5859L11 11.5859V4C11 3.44772 11.4477 3 12 3Z" fill="currentColor"/>
</svg>
