<svg xmlns="http://www.w3.org/2000/svg" viewBox="0 0 24 24" fill="none">
<path d="M4 11C4.55228 11 5 11.4477 5 12C5 15.866 8.13401 19 12 19C13.9107 19 15.673 18.2336 16.9531 17H15.0117C14.4594 17 14.0117 16.5523 14.0117 16C14.0117 15.4477 14.4594 15 15.0117 15H19.0117C19.564 15 20.0117 15.4477 20.0117 16V20C20.0117 20.5523 19.564 21 19.0117 21C18.4594 21 18.0117 20.5523 18.0117 20V18.7451C16.4015 20.1501 14.2809 21 12 21C7.02944 21 3 16.9706 3 12C3 11.4477 3.44772 11 4 11Z" fill="currentColor"/><path d="M18 4C18.2409 4 18.4574 4.1482 18.5439 4.37305L19.2402 6.18555C19.3418 6.44944 19.5506 6.65819 19.8145 6.75977L21.627 7.45605C21.8518 7.5426 22 7.75906 22 8C22 8.24094 21.8518 8.4574 21.627 8.54395L19.8145 9.24023C19.5506 9.34181 19.3418 9.55056 19.2402 9.81445L18.5439 11.627C18.4574 11.8518 18.2409 12 18 12C17.7591 12 17.5426 11.8518 17.4561 11.627L16.7598 9.81445C16.6582 9.55056 16.4494 9.34181 16.1855 9.24023L14.373 8.54395C14.1482 8.4574 14 8.24094 14 8C14 7.75906 14.1482 7.5426 14.373 7.45605L16.1855 6.75977C16.4494 6.65819 16.6582 6.44944 16.7598 6.18555L17.4561 4.37305C17.5426 4.1482 17.7591 4 18 4Z" fill="currentColor"/><path d="M12 3C12.5523 3 13 3.44772 13 4C13 4.55228 12.5523 5 12 5C10.0891 5 8.32687 5.76633 7.04688 7H9C9.55228 7 10 7.44772 10 8C10 8.55228 9.55228 9 9 9H5C4.44772 9 4 8.55228 4 8V4C4 3.44772 4.44772 3 5 3C5.55228 3 6 3.44772 6 4V5.24414C7.60878 3.84548 9.72476 3 12 3Z" fill="currentColor"/>
</svg>
