<svg xmlns="http://www.w3.org/2000/svg" viewBox="0 0 24 24" fill="none">
<path d="M12.0007 15C14.0581 15.0001 15.8735 16.0366 16.9528 17.6113C17.3057 18.1262 17.4662 18.6986 17.4206 19.2734C17.3758 19.8386 17.1377 20.3382 16.8083 20.7373C16.1612 21.521 15.1023 21.9999 14.0007 22H10.0007C8.89906 22 7.84024 21.5209 7.19308 20.7373C6.86361 20.3382 6.6256 19.8386 6.58077 19.2734C6.53518 18.6985 6.69562 18.1263 7.04855 17.6113C8.12792 16.0366 9.94324 15 12.0007 15Z" fill="currentColor"/><path d="M4.99777 13.3867C5.476 13.1109 6.08791 13.2748 6.36398 13.7529C6.63991 14.2311 6.47581 14.843 5.99777 15.1191L5.15402 15.6064C4.67578 15.8826 4.06399 15.7184 3.78781 15.2402C3.51166 14.7619 3.67572 14.1502 4.15402 13.874L4.99777 13.3867Z" fill="currentColor"/><path d="M17.6345 13.7529C17.9106 13.2748 18.5225 13.1107 19.0007 13.3867L19.8444 13.874C20.3225 14.1502 20.4867 14.762 20.2107 15.2402C19.9346 15.7184 19.3227 15.8824 18.8444 15.6064L18.0007 15.1191C17.5224 14.843 17.3584 14.2312 17.6345 13.7529Z" fill="currentColor"/><path d="M12.0007 7C13.9336 7.00015 15.5007 8.5671 15.5007 10.5C15.5007 12.4329 13.9336 13.9998 12.0007 14C10.0677 14 8.5007 12.433 8.5007 10.5C8.5007 8.567 10.0677 7 12.0007 7Z" fill="currentColor"/><path d="M2.63644 8.84961C2.73236 8.30574 3.25076 7.94219 3.79464 8.03809L4.78195 8.21191C5.32567 8.30794 5.68933 8.82731 5.59347 9.37109C5.49748 9.91471 4.97892 10.2773 4.43527 10.1816L3.44699 10.0078C2.90324 9.91184 2.54065 9.39338 2.63644 8.84961Z" fill="currentColor"/><path d="M20.2038 8.03809C20.7476 7.94235 21.2661 8.30581 21.362 8.84961C21.4578 9.39325 21.095 9.91168 20.5515 10.0078L19.5632 10.1816C19.0194 10.2775 18.501 9.91479 18.405 9.37109C18.3091 8.8272 18.6726 8.30782 19.2165 8.21191L20.2038 8.03809Z" fill="currentColor"/><path d="M5.90109 3.23438C6.32416 2.87953 6.95531 2.9344 7.31027 3.35742L7.94503 4.11426C8.29983 4.53728 8.24485 5.16846 7.82199 5.52344C7.39896 5.87835 6.76782 5.82235 6.41281 5.39941L5.77804 4.64258C5.42308 4.21955 5.47814 3.5894 5.90109 3.23438Z" fill="currentColor"/><path d="M16.6882 3.35742C17.0432 2.93447 17.6743 2.87941 18.0974 3.23438C18.5201 3.58939 18.5752 4.21962 18.2204 4.64258L17.5857 5.39941C17.2307 5.8224 16.5996 5.8782 16.1765 5.52344C15.7534 5.16844 15.6984 4.53733 16.0534 4.11426L16.6882 3.35742Z" fill="currentColor"/><path d="M12.0007 1C12.5529 1.00015 13.0007 1.44781 13.0007 2V3C13.0007 3.55219 12.5529 3.99985 12.0007 4C11.4484 3.99998 11.0007 3.55227 11.0007 3V2C11.0007 1.44773 11.4484 1.00002 12.0007 1Z" fill="currentColor"/>
</svg>
