<svg xmlns="http://www.w3.org/2000/svg" viewBox="0 0 24 24" fill="none">
<path d="M19 14C19.2409 14 19.4574 14.1482 19.5439 14.373L20.2402 16.1855C20.3418 16.4494 20.5506 16.6582 20.8145 16.7598L22.627 17.4561C22.8518 17.5426 23 17.7591 23 18C23 18.2409 22.8518 18.4574 22.627 18.5439L20.8145 19.2402C20.5506 19.3418 20.3418 19.5506 20.2402 19.8145L19.5439 21.627C19.4574 21.8518 19.2409 22 19 22C18.7591 22 18.5426 21.8518 18.4561 21.627L17.7598 19.8145C17.6582 19.5506 17.4494 19.3418 17.1855 19.2402L15.373 18.5439C15.1482 18.4574 15 18.2409 15 18C15 17.7591 15.1482 17.5426 15.373 17.4561L17.1855 16.7598C17.4494 16.6582 17.6582 16.4494 17.7598 16.1855L18.4561 14.373C18.5426 14.1482 18.7591 14 19 14Z" fill="currentColor"/><path d="M4 12C4.55228 12 5 12.4477 5 13V16C5 17.1046 5.89543 18 7 18H12C12.5523 18 13 18.4477 13 19C13 19.5523 12.5523 20 12 20H7C4.79086 20 3 18.2091 3 16V13C3 12.4477 3.44772 12 4 12Z" fill="currentColor"/><path d="M17 4C19.2091 4 21 5.79086 21 8V11C21 11.5523 20.5523 12 20 12C19.4477 12 19 11.5523 19 11V8C19 6.89543 18.1046 6 17 6H12C11.4477 6 11 5.55228 11 5C11 4.44772 11.4477 4 12 4H17Z" fill="currentColor"/><path d="M5 2C5.24094 2 5.4574 2.1482 5.54395 2.37305L6.24023 4.18555C6.34181 4.44944 6.55056 4.65819 6.81445 4.75977L8.62695 5.45605C8.8518 5.5426 9 5.75906 9 6C9 6.24094 8.8518 6.4574 8.62695 6.54395L6.81445 7.24023C6.55056 7.34181 6.34181 7.55056 6.24023 7.81445L5.54395 9.62695C5.4574 9.8518 5.24094 10 5 10C4.75906 10 4.5426 9.8518 4.45605 9.62695L3.75977 7.81445C3.65819 7.55056 3.44944 7.34181 3.18555 7.24023L1.37305 6.54395C1.1482 6.4574 1 6.24094 1 6C1 5.75906 1.1482 5.5426 1.37305 5.45605L3.18555 4.75977C3.44944 4.65819 3.65819 4.44944 3.75977 4.18555L4.45605 2.37305C4.5426 2.1482 4.75906 2 5 2Z" fill="currentColor"/>
</svg>
