<svg xmlns="http://www.w3.org/2000/svg" viewBox="0 0 24 24" fill="none">
<path d="M22 17C22 19.2091 20.2091 21 18 21H6C3.79086 21 2 19.2091 2 17V12.3467L11 13.8467V14C11 14.5523 11.4477 15 12 15C12.5523 15 13 14.5523 13 14V13.8018L22 11.8018V17Z" fill="currentColor"/><path fill-rule="evenodd" clip-rule="evenodd" d="M13.0039 2C15.213 2.00001 17.0039 3.79086 17.0039 6H18C20.1265 6 21.864 7.65942 21.9912 9.75391L12.9688 11.7588C12.8607 11.3233 12.469 11 12 11C11.5084 11 11.1005 11.3548 11.0166 11.8223L2 10.3193V10C2 7.79086 3.79086 6 6 6H7.00391C7.00391 3.79086 8.79477 2 11.0039 2H13.0039ZM11.0039 4C9.89934 4 9.00391 4.89543 9.00391 6H15.0039C15.0039 4.89544 14.1085 4.00001 13.0039 4H11.0039Z" fill="currentColor"/>
</svg>
