<svg xmlns="http://www.w3.org/2000/svg" viewBox="0 0 24 24" fill="none">
<path fill-rule="evenodd" clip-rule="evenodd" d="M12 2C14.2092 2 16 3.79086 16 6V7.14648C17.4824 7.55923 18.636 8.80677 18.8799 10.3916L19.3389 13.376C18.9436 13.1361 18.4835 13 18 13C16.9983 13.0001 16.0931 13.5785 15.668 14.4727L15.5899 14.6553L15.0518 16.0518L13.6553 16.5898C12.6582 16.9735 12 17.9316 12 19C12 20.0684 12.6582 21.0265 13.6553 21.4102L15.0518 21.9473L15.0723 22H7.99709C5.54554 22 3.67119 19.8146 4.04396 17.3916L5.12013 10.3916C5.36399 8.80682 6.5177 7.5593 8.00002 7.14648V6C8.00002 3.79092 9.79096 2.00009 12 2ZM12 4C10.8955 4.00009 10 4.89549 10 6V7H14V6C14 4.89543 13.1046 4 12 4Z" fill="currentColor"/><path d="M14.374 18.4561L14.8633 18.2666L16.1856 17.7598L14.374 18.4561Z" fill="currentColor"/><path d="M17.6035 15.1562L17.544 15.2197C17.58 15.1744 17.6226 15.135 17.6699 15.1025C17.6465 15.1187 17.6244 15.1368 17.6035 15.1562Z" fill="currentColor"/><path d="M19.2406 17.1852L18.5438 15.3733C18.4573 15.1484 18.2412 15 18.0002 15C17.7592 15 17.5431 15.1484 17.4566 15.3733L16.7597 17.1852C16.6582 17.4493 16.4497 17.6582 16.1856 17.7598L14.374 18.4561C14.1491 18.5426 14.0002 18.759 14.0002 19C14.0002 19.241 14.1491 19.4574 14.374 19.5439L16.1856 20.2402C16.4497 20.3418 16.6582 20.5507 16.7597 20.8148L17.4566 22.6267C17.5431 22.8516 17.7592 23 18.0002 23C18.2412 23 18.4573 22.8516 18.5438 22.6267L19.2406 20.8148C19.3422 20.5507 19.5509 20.342 19.815 20.2405L21.6268 19.5436C21.8518 19.4571 22.0002 19.241 22.0002 19C22.0002 18.759 21.8518 18.5429 21.6268 18.4564L19.815 17.7595C19.5509 17.658 19.3422 17.4493 19.2406 17.1852Z" fill="currentColor"/>
</svg>
