<svg xmlns="http://www.w3.org/2000/svg" viewBox="0 0 24 24" fill="none">
<path fill-rule="evenodd" clip-rule="evenodd" d="M18 4C20.2091 4 22 5.79086 22 8V16C22 18.2091 20.2091 20 18 20H6C3.79086 20 2 18.2091 2 16V8C2 5.79086 3.79086 4 6 4H18ZM8.79395 8.42676C8.47754 7.97417 7.85401 7.86433 7.40137 8.18066C6.43539 8.85579 5.86241 9.64996 5.88672 10.6162C5.90745 11.4384 6.3911 12.1445 6.64258 12.5381C6.97802 13.0631 7.08179 13.2763 7.08594 13.4336C7.08628 13.447 7.12136 13.6938 6.4248 14.1807C5.97212 14.497 5.86135 15.1206 6.17773 15.5732C6.49418 16.0257 7.11773 16.1357 7.57031 15.8193C8.53614 15.1442 9.10926 14.35 9.08496 13.3838C9.06422 12.5615 8.57956 11.8554 8.32812 11.4619C7.99269 10.9369 7.8899 10.7237 7.88574 10.5664C7.8854 10.553 7.85023 10.3062 8.54688 9.81934C8.99941 9.50292 9.11029 8.87938 8.79395 8.42676ZM13.3086 8.42676C12.9923 7.97428 12.3686 7.86461 11.916 8.18066C10.95 8.85579 10.3771 9.64996 10.4014 10.6162C10.4221 11.4384 10.9057 12.1445 11.1572 12.5381C11.4926 13.0629 11.5964 13.2764 11.6006 13.4336C11.6009 13.4472 11.6354 13.6941 10.9395 14.1807C10.4868 14.497 10.376 15.1206 10.6924 15.5732C11.0089 16.0255 11.6325 16.1356 12.085 15.8193C13.0506 15.1443 13.6239 14.3498 13.5996 13.3838C13.5789 12.5616 13.0942 11.8555 12.8428 11.4619C12.5073 10.9369 12.4046 10.7237 12.4004 10.5664C12.4001 10.553 12.3649 10.3062 13.0615 9.81934C13.5137 9.5029 13.6247 8.87925 13.3086 8.42676ZM17.8086 8.42676C17.4923 7.97428 16.8686 7.86461 16.416 8.18066C15.45 8.85579 14.8771 9.64996 14.9014 10.6162C14.9221 11.4384 15.4057 12.1445 15.6572 12.5381C15.9926 13.0629 16.0964 13.2764 16.1006 13.4336C16.1009 13.4472 16.1354 13.6941 15.4395 14.1807C14.9868 14.497 14.876 15.1206 15.1924 15.5732C15.5089 16.0255 16.1325 16.1356 16.585 15.8193C17.5506 15.1443 18.1239 14.3498 18.0996 13.3838C18.0789 12.5616 17.5942 11.8555 17.3428 11.4619C17.0073 10.9369 16.9046 10.7237 16.9004 10.5664C16.9001 10.553 16.8649 10.3062 17.5615 9.81934C18.0137 9.5029 18.1247 8.87925 17.8086 8.42676Z" fill="currentColor"/>
</svg>
