<svg xmlns="http://www.w3.org/2000/svg" viewBox="0 0 24 24" fill="none">
<path d="M4.32066 3.36588C5.68134 3.09486 6.9512 4.1357 6.95152 5.5231V7.96841C7.18795 12.0933 8.94712 14.1518 11.1947 14.859C13.5608 15.6033 16.7991 14.9651 20.1195 12.9313L20.2308 12.8698C20.7597 12.6036 21.4129 12.6571 21.889 13.0446L21.9886 13.1335L22.0912 13.2428C22.32 13.5134 22.4699 13.8819 22.4398 14.2946C22.2897 16.3504 20.697 18.4592 18.4828 19.8219C16.2227 21.2127 13.1638 21.9328 9.83335 21.0866C6.40734 20.2158 3.89417 17.8828 2.59507 15.2663C1.36247 12.7834 1.15719 9.8751 2.55113 7.70279V5.5231C2.55137 4.47424 3.29206 3.57115 4.32066 3.36588Z" fill="currentColor"/><path d="M18.2113 8.45084C18.5909 8.14285 19.1196 8.04756 19.5941 8.23892L19.6957 8.28482L19.8597 8.3815C20.2261 8.63432 20.463 9.06281 20.4437 9.54459C20.4313 9.85415 20.3955 10.3986 20.2992 11.0378L19.6761 11.4391C16.4882 13.4884 13.6099 13.9969 11.7445 13.4577C10.865 13.2033 10.1437 12.7064 9.59312 11.902C9.25649 11.41 8.95581 10.7584 8.74351 9.90982C11.6336 11.7594 15.3645 11.1416 18.1322 8.52017L18.2113 8.45084Z" fill="currentColor"/>
</svg>
