<svg width="24" height="24" viewBox="0 0 24 24" fill="none" xmlns="http://www.w3.org/2000/svg">
<path fill-rule="evenodd" clip-rule="evenodd" d="M17.5518 3C18.8827 3.00011 20.0285 4.0259 20.085 5.4043C20.1284 6.46425 20.1492 7.96463 19.9912 9.13379C19.8737 10.0032 19.6081 11.0586 19.3828 11.8672C19.3112 12.1244 19.2387 12.3603 19.1777 12.5645C19.8053 12.9872 20.3061 13.5547 20.6445 14.2393C21.6219 16.2168 21.0573 18.7729 18.9365 20.5361C18.5468 20.86 18.0712 20.9999 17.624 21C16.7526 21 16.0901 20.4998 15.7305 19.8848C15.3791 19.2836 15.2749 18.5187 15.499 17.8076C15.5099 17.773 15.5177 17.7381 15.5273 17.7041C12.3454 20.0174 8.20722 21.6369 4.1123 19.5166C3.38176 19.1383 3.00017 18.3863 3 17.6475C3 16.4594 3.92844 15.5701 4.99609 15.4307C6.92773 15.1783 8.53888 14.4495 9.90625 13.2539C9.58407 13.2597 9.26236 13.2842 8.93848 13.332C8.13368 13.451 7.23322 13.1531 6.71973 12.3828C6.1478 11.5248 6.22575 10.2287 7.24219 9.56152C8.74704 8.57379 10.8929 7.83951 12.6709 8.15039C12.9803 8.2045 13.2853 8.29219 13.5752 8.41895L15.1729 4.58594C15.5731 3.62563 16.5114 3 17.5518 3ZM16.417 13.7344C16.7764 14.2251 17.0713 14.7145 17.2803 15.2168C17.7091 16.2474 17.7617 17.2845 17.4072 18.4092C17.3573 18.5676 17.3827 18.7489 17.457 18.876C17.5232 18.989 17.5837 19 17.624 19C17.642 19 17.6546 18.9972 17.6611 18.9951C19.1758 17.7338 19.3592 16.152 18.8516 15.125C18.4998 14.4136 17.7097 13.7741 16.417 13.7344ZM17.5518 5C17.3187 5 17.1082 5.14034 17.0186 5.35547L15.1387 9.86523C15.4277 10.4117 15.5763 11.0501 15.5938 11.7705C16.2028 11.7081 16.7778 11.73 17.3105 11.8242C17.3552 11.6721 17.4069 11.5066 17.4561 11.3301C17.6768 10.5376 17.9106 9.59247 18.0088 8.86621C18.1416 7.88354 18.1298 6.53328 18.0869 5.48633C18.0763 5.22797 17.8589 5.00011 17.5518 5ZM12.3262 10.1201C11.2406 9.93046 9.62725 10.3955 8.36328 11.2178C8.36362 11.2209 8.36336 11.2245 8.36426 11.2285C8.36718 11.2415 8.37298 11.2572 8.38379 11.2734C8.40761 11.3092 8.49229 11.376 8.64551 11.3535C10.3741 11.0981 12.0108 11.365 13.5918 11.7412C13.5702 11.2666 13.4633 10.9468 13.3369 10.7363C13.1467 10.4196 12.8292 10.2081 12.3262 10.1201Z" fill="currentColor"/>
</svg>
