<svg width="24" height="24" viewBox="0 0 24 24" fill="none" xmlns="http://www.w3.org/2000/svg">
<path fill-rule="evenodd" clip-rule="evenodd" d="M1.5 8.5C1.5 6.29086 3.29086 4.5 5.5 4.5H18.5C20.7091 4.5 22.5 6.29086 22.5 8.5V15.5C22.5 17.7091 20.7091 19.5 18.5 19.5H5.5C3.29086 19.5 1.5 17.7091 1.5 15.5V8.5ZM5.5 17.5H6C6 16.1193 4.88071 15 3.5 15V15.5C3.5 16.6046 4.39543 17.5 5.5 17.5ZM20.5 15.5V15C19.1193 15 18 16.1193 18 17.5H18.5C19.6046 17.5 20.5 16.6046 20.5 15.5ZM20.5 9C19.1193 9 18 7.88071 18 6.5H18.5C19.6046 6.5 20.5 7.39543 20.5 8.5V9ZM5.5 6.5H6C6 7.88071 4.88071 9 3.5 9V8.5C3.5 7.39543 4.39543 6.5 5.5 6.5ZM12 9.5C10.6193 9.5 9.5 10.6193 9.5 12C9.5 13.3807 10.6193 14.5 12 14.5C13.3807 14.5 14.5 13.3807 14.5 12C14.5 10.6193 13.3807 9.5 12 9.5Z" fill="currentColor" style="fill:currentColor;fill-opacity:1;"/>
</svg>
