<svg xmlns="http://www.w3.org/2000/svg" viewBox="0 0 24 24" fill="none">
<path fill-rule="evenodd" clip-rule="evenodd" d="M21 19C21.5523 19 22 19.4478 22 20C22 20.5523 21.5523 21 21 21H3C2.44772 21 2 20.5523 2 20C2.00001 19.4478 2.44772 19 3 19V11H21V19ZM9.5 13.5C8.94772 13.5 8.50001 13.9478 8.5 14.5V19H10.5V14.5C10.5 13.9478 10.0523 13.5 9.5 13.5ZM14.5 13.5C13.9477 13.5 13.5 13.9478 13.5 14.5V19H15.5V14.5C15.5 13.9478 15.0523 13.5 14.5 13.5Z" fill="currentColor"/><path fill-rule="evenodd" clip-rule="evenodd" d="M10.375 2.62796C11.4093 2.16829 12.5907 2.16829 13.625 2.62796L20.8662 5.84671C21.5556 6.15315 22 6.83644 22 7.59085C22 8.64522 21.1452 9.50003 20.0908 9.50003H3.90918C2.85481 9.50003 2 8.64522 2 7.59085C2.00001 6.83644 2.44443 6.15315 3.13379 5.84671L10.375 2.62796ZM12 5.50003C11.4477 5.50003 11 5.94774 11 6.50003C11 7.05229 11.4477 7.50003 12 7.50003C12.5523 7.50003 13 7.05229 13 6.50003C13 5.94774 12.5523 5.50003 12 5.50003Z" fill="currentColor"/>
</svg>
