<svg width="24" height="24" viewBox="0 0 24 24" fill="none" xmlns="http://www.w3.org/2000/svg">
<path fill-rule="evenodd" clip-rule="evenodd" d="M22 7.76396C22 8.91917 21.124 9.86978 20 9.98771V16.5457C20.717 16.9876 21.2785 17.6732 21.5578 18.5112C21.966 19.7356 21.0546 21 19.764 21H4.236C2.94538 21 2.03404 19.7356 2.44217 18.5112C2.72153 17.6732 3.28305 16.9876 4 16.5457V9.98771C2.87602 9.86978 2 8.91917 2 7.76396C2 6.917 2.47852 6.14273 3.23607 5.76396L10.2111 2.27642C11.3373 1.71336 12.6627 1.71336 13.7889 2.27642L20.7639 5.76396C21.5215 6.14273 22 6.917 22 7.76396ZM16 10H18V16H16V10ZM8 16H6V10H8V16ZM10 16V10H14V16H10Z" fill="currentColor" style="fill:currentColor;fill-opacity:1;"/>
</svg>
