<svg width="24" height="24" viewBox="0 0 24 24" fill="none" xmlns="http://www.w3.org/2000/svg">
<path d="M21 12H12M21 12C21 7.02944 16.9706 3 12 3C7.02944 3 3 7.02944 3 12M21 12C21 16.9706 16.9706 21 12 21C7.02944 21 3 16.9706 3 12M3 12H12M12 12V3.5M12 12V20.5M5.70832 6C7.13344 7.59227 8 9.69494 8 12C8 14.3051 7.13344 16.4077 5.70832 18M18.2917 6C16.8666 7.59227 16 9.69494 16 12C16 14.3051 16.8666 16.4077 18.2917 18" stroke="currentColor" stroke-width="2" stroke-linecap="round" stroke-linejoin="round"/>
</svg>
