<svg xmlns="http://www.w3.org/2000/svg" viewBox="0 0 24 24" fill="none">
<path fill-rule="evenodd" clip-rule="evenodd" d="M9.79102 2.59022C10.2597 2.52327 10.7364 2.52336 11.2051 2.59022L13.8584 2.97011C13.9986 2.99013 14.1406 2.99936 14.2822 2.9994H16.0117C16.9624 2.9995 17.8505 3.47506 18.3779 4.26601L18.4795 4.41933C18.8591 4.9888 18.9814 5.69189 18.8154 6.35585C18.6838 6.88205 18.3876 7.32268 17.998 7.64198V7.9994C20.2071 7.9994 21.9978 9.79045 21.998 11.9994C21.998 14.2085 20.2071 15.9994 17.998 15.9994V16.9994C17.998 19.2085 16.2072 20.9994 13.998 20.9994H7.99805C5.78891 20.9994 3.99805 19.2085 3.99805 16.9994V7.75136C3.91922 7.66523 3.84513 7.57277 3.7793 7.47401L3.58008 7.17519C3.1605 6.54573 3.02557 5.76748 3.20898 5.03358C3.50792 3.83843 4.5825 2.99962 5.81445 2.9994H6.79004C6.88134 2.99939 6.97309 2.99373 7.06348 2.98085L9.79102 2.59022ZM17.998 13.9994C19.1026 13.9994 19.998 13.1039 19.998 11.9994C19.9978 10.895 19.1025 9.9994 17.998 9.9994V13.9994ZM10.9229 4.57069C10.6416 4.53056 10.3555 4.53052 10.0742 4.57069L7.34668 4.96034C7.16259 4.98662 6.976 4.99939 6.79004 4.9994H5.81445C5.50015 4.99962 5.22569 5.21399 5.14941 5.51893C5.10267 5.70617 5.13714 5.90521 5.24414 6.06581L5.44336 6.36464C5.49937 6.44865 5.59438 6.49914 5.69531 6.4994C6.96695 6.4994 7.99781 7.53056 7.99805 8.80214V9.05507C7.9981 9.57631 8.42125 9.99889 8.94238 9.9994H8.99805C9.5503 9.9994 9.99799 9.55164 9.99805 8.9994V8.94276C9.99805 7.30802 11.4666 6.06401 13.0791 6.33241L13.6416 6.42616C13.8229 6.45634 14.0092 6.44217 14.1836 6.38417L14.7412 6.19862C15.2096 6.0425 15.7134 6.02233 16.1924 6.14198L16.3545 6.183C16.5844 6.24039 16.8174 6.10033 16.875 5.8705C16.9043 5.75325 16.8824 5.62927 16.8154 5.5287L16.7139 5.37538C16.5573 5.14083 16.2937 4.9995 16.0117 4.9994H14.2822C14.0459 4.99936 13.8091 4.98301 13.5752 4.9496L10.9229 4.57069Z" fill="currentColor"/>
</svg>
