<svg width="24" height="24" viewBox="0 0 24 24" fill="none" xmlns="http://www.w3.org/2000/svg">
<path d="M4.45287 14.6035L5.44409 14.7357L4.45287 14.6035ZM19.5471 14.6035L18.5559 14.7357L19.5471 14.6035ZM18.793 8.94738L19.7842 8.81522L18.793 8.94738ZM5.20702 8.94738L4.21579 8.81522L5.20702 8.94738ZM0.764583 7.03711C0.6468 7.57669 0.988733 8.10959 1.52831 8.22737C2.06789 8.34515 2.60079 8.00322 2.71857 7.46364L0.764583 7.03711ZM4.72401 3.39147C5.07937 2.96869 5.02471 2.33789 4.60193 1.98254C4.17915 1.62718 3.54835 1.68184 3.19299 2.10462L4.72401 3.39147ZM20.8071 2.10462C20.4517 1.68184 19.8209 1.62718 19.3981 1.98254C18.9753 2.33789 18.9207 2.96869 19.276 3.39147L20.8071 2.10462ZM21.2815 7.46364C21.3993 8.00322 21.9322 8.34515 22.4717 8.22737C23.0113 8.10959 23.3532 7.57669 23.2355 7.03711L21.2815 7.46364ZM17.8018 9.07955L18.5559 14.7357L20.5384 14.4714L19.7842 8.81522L17.8018 9.07955ZM16.5735 17H7.42655V19H16.5735V17ZM5.44409 14.7357L6.19825 9.07954L4.21579 8.81522L3.46164 14.4714L5.44409 14.7357ZM7.42655 17C6.21697 17 5.28423 15.9347 5.44409 14.7357L3.46164 14.4714C3.14191 16.8693 5.00739 19 7.42655 19V17ZM18.5559 14.7357C18.7158 15.9347 17.783 17 16.5735 17V19C18.9926 19 20.8581 16.8693 20.5384 14.4714L18.5559 14.7357ZM12 4.00002C14.9336 4.00002 17.414 6.17169 17.8018 9.07955L19.7842 8.81522C19.264 4.91375 15.936 2.00002 12 2.00002V4.00002ZM12 2.00002C8.06401 2.00002 4.73599 4.91375 4.21579 8.81522L6.19825 9.07954C6.58596 6.17169 9.06641 4.00002 12 4.00002V2.00002ZM15.0656 17.6438C14.5106 19.0996 13.297 20 12 20V22C14.2812 22 16.1429 20.4322 16.9344 18.3563L15.0656 17.6438ZM12 20C10.703 20 9.48945 19.0996 8.93439 17.6438L7.06561 18.3563C7.85709 20.4322 9.71878 22 12 22V20ZM2.71857 7.46364C3.05168 5.93761 3.75213 4.54777 4.72401 3.39147L3.19299 2.10462C2.01784 3.50275 1.16862 5.18618 0.764583 7.03711L2.71857 7.46364ZM19.276 3.39147C20.2479 4.54777 20.9484 5.93761 21.2815 7.46364L23.2355 7.03711C22.8314 5.18618 21.9822 3.50275 20.8071 2.10462L19.276 3.39147Z" fill="currentColor"/>
</svg>
