<svg width="24" height="24" viewBox="0 0 24 24" fill="none" xmlns="http://www.w3.org/2000/svg">
<path fill-rule="evenodd" clip-rule="evenodd" d="M12 2.00004C8.06404 2.00004 4.73602 4.91377 4.21582 8.81524L3.46167 14.4714C3.14518 16.8451 4.9699 18.9569 7.35333 18.9994C8.2574 20.7476 9.96115 22 12 22C14.0389 22 15.7427 20.7476 16.6467 18.9994C19.0302 18.9569 20.8549 16.8451 20.5384 14.4714L19.7842 8.81524C19.264 4.91377 15.936 2.00004 12 2.00004ZM14.2218 19H9.77827C10.3872 19.6373 11.1768 20 12 20C12.8233 20 13.6129 19.6373 14.2218 19Z" fill="currentColor" style="fill:currentColor;fill-opacity:1;"/>
<path fill-rule="evenodd" clip-rule="evenodd" d="M4.60195 1.98256C5.02473 2.33791 5.07939 2.96871 4.72404 3.39149C3.75215 4.54779 3.05171 5.93763 2.7186 7.46366C2.60082 8.00324 2.06792 8.34517 1.52834 8.22739C0.98876 8.10961 0.646827 7.57671 0.76461 7.03713C1.16865 5.1862 2.01787 3.50277 3.19302 2.10465C3.54837 1.68187 4.17917 1.62721 4.60195 1.98256ZM19.3981 1.98256C19.8209 1.62721 20.4517 1.68187 20.8071 2.10465C21.9822 3.50278 22.8315 5.1862 23.2355 7.03713C23.3533 7.57671 23.0113 8.10961 22.4718 8.22739C21.9322 8.34517 21.3993 8.00324 21.2815 7.46366C20.9484 5.93763 20.2479 4.54779 19.2761 3.39149C18.9207 2.96871 18.9754 2.33791 19.3981 1.98256Z" fill="currentColor" style="fill:currentColor;fill-opacity:1;"/>
</svg>
