<svg width="24" height="24" viewBox="0 0 24 24" fill="none" xmlns="http://www.w3.org/2000/svg">
<path d="M12.0003 2.17163L12.7074 1.46452C12.5199 1.27699 12.2655 1.17163 12.0003 1.17163C11.7351 1.17163 11.4807 1.27699 11.2932 1.46452L12.0003 2.17163ZM13.4145 3.58584L12.7074 4.29295L13.4145 3.58584ZM10.5861 3.58584L9.87898 2.87874V2.87874L10.5861 3.58584ZM13 7.00006C13 6.44777 12.5523 6.00006 12 6.00006C11.4477 6.00006 11 6.44777 11 7.00006H13ZM11 10.0001C11 10.5523 11.4477 11.0001 12 11.0001C12.5523 11.0001 13 10.5523 13 10.0001H11ZM8.38583 15.4457L8.75722 16.3742L8.38583 15.4457ZM10.6142 15.4457L10.9856 14.5173H10.9856L10.6142 15.4457ZM10.8858 15.5544L10.5144 16.4829H10.5144L10.8858 15.5544ZM13.1142 15.5544L12.7428 14.6259L12.7428 14.6259L13.1142 15.5544ZM13.3858 15.4457L13.7572 16.3742H13.7572L13.3858 15.4457ZM15.6142 15.4457L15.2428 16.3742V16.3742L15.6142 15.4457ZM16.0715 15.6287L16.4429 14.7002V14.7002L16.0715 15.6287ZM6.07152 15.6287L6.44291 14.7002H6.44291L6.07152 15.6287ZM17.9285 15.6287L17.5571 14.7002L17.9285 15.6287ZM18 15.0001V18.0001H20V15.0001H18ZM16 20.0001H8V22.0001H16V20.0001ZM6 18.0001V15.0001H4V18.0001H6ZM8 20.0001C6.89543 20.0001 6 19.1046 6 18.0001H4C4 20.2092 5.79086 22.0001 8 22.0001V20.0001ZM18 18.0001C18 19.1046 17.1046 20.0001 16 20.0001V22.0001C18.2091 22.0001 20 20.2092 20 18.0001H18ZM11.2932 4.29295L12.7074 2.87874L11.2932 1.46452L9.87898 2.87874L11.2932 4.29295ZM11.2932 2.87874L12.7074 4.29295L14.1216 2.87874L12.7074 1.46452L11.2932 2.87874ZM12.7074 5.70717C12.3169 6.09769 11.6837 6.09769 11.2932 5.70717L9.87898 7.12138C11.0506 8.29295 12.95 8.29295 14.1216 7.12138L12.7074 5.70717ZM12.7074 4.29295C13.0979 4.68348 13.0979 5.31664 12.7074 5.70717L14.1216 7.12138C15.2932 5.94981 15.2932 4.05031 14.1216 2.87874L12.7074 4.29295ZM9.87898 2.87874C8.70741 4.05031 8.70741 5.94981 9.87898 7.12138L11.2932 5.70717C10.9027 5.31664 10.9027 4.68348 11.2932 4.29295L9.87898 2.87874ZM11 7.00006V10.0001H13V7.00006H11ZM8.29987 16.5571L8.75722 16.3742L8.01444 14.5173L7.55709 14.7002L8.29987 16.5571ZM10.2428 16.3742L10.5144 16.4829L11.2572 14.6259L10.9856 14.5173L10.2428 16.3742ZM13.4856 16.4829L13.7572 16.3742L13.0144 14.5173L12.7428 14.6259L13.4856 16.4829ZM20.5 13.3075V12.9815H18.5V13.3075H20.5ZM16.5185 9.00006H7.48146V11.0001H16.5185V9.00006ZM3.5 12.9815V13.3075H5.5V12.9815H3.5ZM15.2428 16.3742L15.7001 16.5571L16.4429 14.7002L15.9856 14.5172L15.2428 16.3742ZM3.5 13.3075C3.5 14.7386 4.37133 16.0256 5.70013 16.5571L6.44291 14.7002C5.87343 14.4724 5.5 13.9208 5.5 13.3075H3.5ZM7.48146 9.00006C5.28256 9.00006 3.5 10.7826 3.5 12.9815H5.5C5.5 11.8872 6.38713 11.0001 7.48146 11.0001V9.00006ZM20.5 12.9815C20.5 10.7826 18.7174 9.00006 16.5185 9.00006V11.0001C17.6129 11.0001 18.5 11.8872 18.5 12.9815H20.5ZM18.5 13.3075C18.5 13.9208 18.1266 14.4724 17.5571 14.7002L18.2999 16.5571C19.6287 16.0256 20.5 14.7386 20.5 13.3075H18.5ZM15.7001 16.5571C16.5346 16.8909 17.4654 16.8909 18.2999 16.5571L17.5571 14.7002C17.1995 14.8432 16.8005 14.8432 16.4429 14.7002L15.7001 16.5571ZM13.7572 16.3742C14.234 16.1835 14.766 16.1835 15.2428 16.3742L15.9856 14.5173C15.0319 14.1358 13.9681 14.1358 13.0144 14.5173L13.7572 16.3742ZM10.5144 16.4829C11.4681 16.8643 12.5319 16.8643 13.4856 16.4829L12.7428 14.6259C12.266 14.8166 11.734 14.8166 11.2572 14.6259L10.5144 16.4829ZM8.75722 16.3742C9.23404 16.1835 9.76596 16.1835 10.2428 16.3742L10.9856 14.5173C10.0319 14.1358 8.96808 14.1358 8.01444 14.5173L8.75722 16.3742ZM7.55709 14.7002C7.19947 14.8432 6.80053 14.8432 6.44291 14.7002L5.70013 16.5571C6.53457 16.8909 7.46543 16.8909 8.29987 16.5571L7.55709 14.7002Z" fill="currentColor"/>
</svg>
