<svg xmlns="http://www.w3.org/2000/svg" viewBox="0 0 24 24" fill="none">
<path d="M7 11C9.20914 11 11 9.20914 11 7C11 4.79086 9.20914 3 7 3C4.79086 3 3 4.79086 3 7C3 9.20914 4.79086 11 7 11Z" fill="currentColor"/><path d="M17.3691 17.7754C17.7619 18.0957 18.3409 18.0731 18.707 17.707L22.207 14.207C22.5976 13.8165 22.5976 13.1835 22.207 12.793C21.8165 12.4024 21.1835 12.4024 20.793 12.793L19 14.5859V7C19 6.44772 18.5523 6 18 6C17.4477 6 17 6.44772 17 7V14.5859L15.207 12.793C14.8165 12.4024 14.1835 12.4024 13.793 12.793C13.4024 13.1835 13.4024 13.8165 13.793 14.207L17.293 17.707L17.3691 17.7754Z" fill="currentColor"/><path d="M7 21C9.20914 21 11 19.2091 11 17C11 14.7909 9.20914 13 7 13C4.79086 13 3 14.7909 3 17C3 19.2091 4.79086 21 7 21Z" fill="currentColor"/>
</svg>
