<svg xmlns="http://www.w3.org/2000/svg" viewBox="0 0 24 24" fill="none">
<path d="M7 13C9.20914 13 11 14.7909 11 17C11 19.2091 9.20914 21 7 21C4.79086 21 3 19.2091 3 17C3 14.7909 4.79086 13 7 13Z" fill="currentColor"/><path d="M17.3691 6.22461C17.7619 5.90426 18.3409 5.92685 18.707 6.29297L22.207 9.79297C22.5976 10.1835 22.5976 10.8165 22.207 11.207C21.8165 11.5976 21.1835 11.5976 20.793 11.207L19 9.41406V17C19 17.5523 18.5523 18 18 18C17.4477 18 17 17.5523 17 17V9.41406L15.207 11.207C14.8165 11.5976 14.1835 11.5976 13.793 11.207C13.4024 10.8165 13.4024 10.1835 13.793 9.79297L17.293 6.29297L17.3691 6.22461Z" fill="currentColor"/><path d="M7 3C9.20914 3 11 4.79086 11 7C11 9.20914 9.20914 11 7 11C4.79086 11 3 9.20914 3 7C3 4.79086 4.79086 3 7 3Z" fill="currentColor"/>
</svg>
