<svg xmlns="http://www.w3.org/2000/svg" viewBox="0 0 24 24" fill="none">
<path fill-rule="evenodd" clip-rule="evenodd" d="M10 7C10.5523 7 11 7.44772 11 8V13H16C16.5523 13 17 13.4477 17 14V17C17 19.2091 15.2091 21 13 21H7C4.79086 21 3 19.2091 3 17V11C3 8.79086 4.79086 7 7 7H10ZM11 19H13C14.1046 19 15 18.1046 15 17V15H11V19ZM7 9C5.89543 9 5 9.89543 5 11V13H9V9H7Z" fill="currentColor"/><path fill-rule="evenodd" clip-rule="evenodd" d="M17 3C19.2091 3 21 4.79086 21 7V10C21 10.5523 20.5523 11 20 11H14C13.4477 11 13 10.5523 13 10V4C13 3.44772 13.4477 3 14 3H17Z" fill="currentColor"/>
</svg>
