<svg width="24" height="24" viewBox="0 0 24 24" fill="none" xmlns="http://www.w3.org/2000/svg">
<path fill-rule="evenodd" clip-rule="evenodd" d="M2 7.5C2 4.46243 4.46243 2 7.5 2C9.36016 2 11.0046 2.92345 12 4.33692C12.9954 2.92345 14.6398 2 16.5 2C19.5376 2 22 4.46243 22 7.5C22 9.36016 21.0766 11.0046 19.6631 12C21.0766 12.9954 22 14.6398 22 16.5C22 19.5376 19.5376 22 16.5 22C14.6398 22 12.9954 21.0766 12 19.6631C11.0046 21.0766 9.36016 22 7.5 22C4.46243 22 2 19.5376 2 16.5C2 14.6398 2.92345 12.9954 4.33692 12C2.92345 11.0046 2 9.36016 2 7.5ZM7.5 11C5.567 11 4 9.433 4 7.5C4 5.567 5.567 4 7.5 4C9.433 4 11 5.567 11 7.5V8.12602C10.633 8.22048 10.2863 8.36573 9.96803 8.55382L8.70711 7.29289C8.31658 6.90237 7.68342 6.90237 7.29289 7.29289C6.90237 7.68342 6.90237 8.31658 7.29289 8.70711L8.55382 9.96803C8.36573 10.2863 8.22048 10.633 8.12602 11H7.5ZM8.12602 13H7.5C5.567 13 4 14.567 4 16.5C4 18.433 5.567 20 7.5 20C9.433 20 11 18.433 11 16.5V15.874C10.633 15.7795 10.2863 15.6343 9.96803 15.4462L8.70711 16.7071C8.31658 17.0976 7.68342 17.0976 7.29289 16.7071C6.90237 16.3166 6.90237 15.6834 7.29289 15.2929L8.55382 14.032C8.36573 13.7137 8.22048 13.367 8.12602 13ZM13 15.874V16.5C13 18.433 14.567 20 16.5 20C18.433 20 20 18.433 20 16.5C20 14.567 18.433 13 16.5 13H15.874C15.7795 13.367 15.6343 13.7137 15.4462 14.032L16.7071 15.2929C17.0976 15.6834 17.0976 16.3166 16.7071 16.7071C16.3166 17.0976 15.6834 17.0976 15.2929 16.7071L14.032 15.4462C13.7137 15.6343 13.367 15.7795 13 15.874ZM15.874 11H16.5C18.433 11 20 9.433 20 7.5C20 5.567 18.433 4 16.5 4C14.567 4 13 5.567 13 7.5V8.12602C13.367 8.22048 13.7137 8.36573 14.032 8.55382L15.2929 7.29289C15.6834 6.90237 16.3166 6.90237 16.7071 7.29289C17.0976 7.68342 17.0976 8.31658 16.7071 8.70711L15.4462 9.96803C15.6343 10.2863 15.7795 10.633 15.874 11Z" fill="currentColor" style="fill:currentColor;fill-opacity:1;"/>
</svg>
