<svg width="24" height="24" viewBox="0 0 24 24" fill="none" xmlns="http://www.w3.org/2000/svg">
<path fill-rule="evenodd" clip-rule="evenodd" d="M9.81927 4.13393C9.81927 2.34225 11.8918 1.34615 13.2908 2.4654L17.5678 5.88699C18.6371 6.74238 18.6371 8.36864 17.5678 9.22403L14.0979 12L17.5678 14.7759C18.6371 15.6313 18.6371 17.2575 17.5678 18.1129L13.2908 21.5345C11.8918 22.6538 9.81927 21.6577 9.81927 19.866V15.4229L6.06893 18.4231C5.58975 18.8065 4.89054 18.7288 4.50719 18.2496C4.12385 17.7704 4.20154 17.0712 4.68072 16.6879L9.81927 12.577V11.4229L4.68072 7.31203C4.20154 6.92869 4.12385 6.22947 4.50719 5.75029C4.89054 5.27111 5.58975 5.19342 6.06893 5.57677L9.81927 8.57704V4.13393ZM12.3193 10.577L12.0415 10.3548V4.31176L16.0962 7.55551L12.3193 10.577ZM12.3193 13.4229L12.0415 13.6451V19.6881L16.0962 16.4444L12.3193 13.4229Z" fill="currentColor" style="fill:currentColor;fill-opacity:1;"/>
</svg>
