<svg width="26" height="26" viewBox="0 0 26 26" fill="none" xmlns="http://www.w3.org/2000/svg">
<path d="M0.99998 16.333C0.822202 16.333 0.666646 16.2663 0.533313 16.133C0.39998 15.9997 0.333313 15.8441 0.333313 15.6663C0.333313 15.4886 0.39998 15.333 0.533313 15.1997C0.666646 15.0663 0.822202 14.9997 0.99998 14.9997C1.17776 14.9997 1.33331 15.0663 1.46665 15.1997C1.59998 15.333 1.66665 15.4886 1.66665 15.6663C1.66665 15.8441 1.59998 15.9997 1.46665 16.133C1.33331 16.2663 1.17776 16.333 0.99998 16.333ZM0.99998 10.9997C0.822202 10.9997 0.666646 10.933 0.533313 10.7997C0.39998 10.6663 0.333313 10.5108 0.333313 10.333C0.333313 10.1552 0.39998 9.99967 0.533313 9.86634C0.666646 9.73301 0.822202 9.66634 0.99998 9.66634C1.17776 9.66634 1.33331 9.73301 1.46665 9.86634C1.59998 9.99967 1.66665 10.1552 1.66665 10.333C1.66665 10.5108 1.59998 10.6663 1.46665 10.7997C1.33331 10.933 1.17776 10.9997 0.99998 10.9997ZM4.99998 22.333C4.6222 22.333 4.30576 22.205 4.05065 21.949C3.79554 21.693 3.66754 21.3766 3.66665 20.9997C3.66665 20.6219 3.79465 20.3055 4.05065 20.0503C4.30665 19.7952 4.62309 19.6672 4.99998 19.6663C5.37776 19.6663 5.69465 19.7943 5.95065 20.0503C6.20665 20.3063 6.3342 20.6228 6.33331 20.9997C6.33331 21.3775 6.20531 21.6943 5.94931 21.9503C5.69331 22.2063 5.37687 22.3339 4.99998 22.333ZM4.99998 16.9997C4.6222 16.9997 4.30576 16.8717 4.05065 16.6157C3.79554 16.3597 3.66754 16.0432 3.66665 15.6663C3.66665 15.2886 3.79465 14.9721 4.05065 14.717C4.30665 14.4619 4.62309 14.3339 4.99998 14.333C5.37776 14.333 5.69465 14.461 5.95065 14.717C6.20665 14.973 6.3342 15.2895 6.33331 15.6663C6.33331 16.0441 6.20531 16.361 5.94931 16.617C5.69331 16.873 5.37687 17.0006 4.99998 16.9997ZM4.99998 11.6663C4.6222 11.6663 4.30576 11.5383 4.05065 11.2823C3.79554 11.0263 3.66754 10.7099 3.66665 10.333C3.66665 9.95523 3.79465 9.63879 4.05065 9.38367C4.30665 9.12856 4.62309 9.00056 4.99998 8.99967C5.37776 8.99967 5.69465 9.12768 5.95065 9.38367C6.20665 9.63968 6.3342 9.95612 6.33331 10.333C6.33331 10.7108 6.20531 11.0277 5.94931 11.2837C5.69331 11.5397 5.37687 11.6672 4.99998 11.6663ZM4.99998 6.33301C4.6222 6.33301 4.30576 6.20501 4.05065 5.94901C3.79554 5.69301 3.66754 5.37656 3.66665 4.99967C3.66665 4.6219 3.79465 4.30545 4.05065 4.05034C4.30665 3.79523 4.62309 3.66723 4.99998 3.66634C5.37776 3.66634 5.69465 3.79434 5.95065 4.05034C6.20665 4.30634 6.3342 4.62279 6.33331 4.99967C6.33331 5.37745 6.20531 5.69434 5.94931 5.95034C5.69331 6.20634 5.37687 6.3339 4.99998 6.33301ZM10.3333 17.6663C9.77776 17.6663 9.30576 17.4721 8.91731 17.0837C8.52887 16.6952 8.3342 16.2228 8.33331 15.6663C8.33331 15.1108 8.52798 14.6388 8.91731 14.2503C9.30665 13.8619 9.77865 13.6672 10.3333 13.6663C10.8889 13.6663 11.3613 13.861 11.7506 14.2503C12.14 14.6397 12.3342 15.1117 12.3333 15.6663C12.3333 16.2219 12.1391 16.6943 11.7506 17.0837C11.3622 17.473 10.8898 17.6672 10.3333 17.6663ZM10.3333 12.333C9.77776 12.333 9.30576 12.1388 8.91731 11.7503C8.52887 11.3619 8.3342 10.8895 8.33331 10.333C8.33331 9.77745 8.52798 9.30545 8.91731 8.91701C9.30665 8.52856 9.77865 8.3339 10.3333 8.33301C10.8889 8.33301 11.3613 8.52767 11.7506 8.91701C12.14 9.30634 12.3342 9.77834 12.3333 10.333C12.3333 10.8886 12.1391 11.361 11.7506 11.7503C11.3622 12.1397 10.8898 12.3339 10.3333 12.333ZM10.3333 22.333C9.95554 22.333 9.63909 22.205 9.38398 21.949C9.12887 21.693 9.00087 21.3766 8.99998 20.9997C8.99998 20.6219 9.12798 20.3055 9.38398 20.0503C9.63998 19.7952 9.95642 19.6672 10.3333 19.6663C10.7111 19.6663 11.028 19.7943 11.284 20.0503C11.54 20.3063 11.6675 20.6228 11.6666 20.9997C11.6666 21.3775 11.5386 21.6943 11.2826 21.9503C11.0266 22.2063 10.7102 22.3339 10.3333 22.333ZM10.3333 6.33301C9.95554 6.33301 9.63909 6.20501 9.38398 5.94901C9.12887 5.69301 9.00087 5.37656 8.99998 4.99967C8.99998 4.6219 9.12798 4.30545 9.38398 4.05034C9.63998 3.79523 9.95642 3.66723 10.3333 3.66634C10.7111 3.66634 11.028 3.79434 11.284 4.05034C11.54 4.30634 11.6675 4.62279 11.6666 4.99967C11.6666 5.37745 11.5386 5.69434 11.2826 5.95034C11.0266 6.20634 10.7102 6.3339 10.3333 6.33301ZM10.3333 25.6663C10.1555 25.6663 9.99998 25.5997 9.86665 25.4663C9.73331 25.333 9.66665 25.1775 9.66665 24.9997C9.66665 24.8219 9.73331 24.6663 9.86665 24.533C9.99998 24.3997 10.1555 24.333 10.3333 24.333C10.5111 24.333 10.6666 24.3997 10.8 24.533C10.9333 24.6663 11 24.8219 11 24.9997C11 25.1775 10.9333 25.333 10.8 25.4663C10.6666 25.5997 10.5111 25.6663 10.3333 25.6663ZM10.3333 1.66634C10.1555 1.66634 9.99998 1.59967 9.86665 1.46634C9.73331 1.33301 9.66665 1.17745 9.66665 0.999674C9.66665 0.821897 9.73331 0.666341 9.86665 0.533008C9.99998 0.399675 10.1555 0.333008 10.3333 0.333008C10.5111 0.333008 10.6666 0.399675 10.8 0.533008C10.9333 0.666341 11 0.821897 11 0.999674C11 1.17745 10.9333 1.33301 10.8 1.46634C10.6666 1.59967 10.5111 1.66634 10.3333 1.66634ZM15.6666 17.6663C15.1111 17.6663 14.6391 17.4721 14.2506 17.0837C13.8622 16.6952 13.6675 16.2228 13.6666 15.6663C13.6666 15.1108 13.8613 14.6388 14.2506 14.2503C14.64 13.8619 15.112 13.6672 15.6666 13.6663C16.2222 13.6663 16.6946 13.861 17.084 14.2503C17.4733 14.6397 17.6675 15.1117 17.6666 15.6663C17.6666 16.2219 17.4724 16.6943 17.084 17.0837C16.6955 17.473 16.2231 17.6672 15.6666 17.6663ZM15.6666 12.333C15.1111 12.333 14.6391 12.1388 14.2506 11.7503C13.8622 11.3619 13.6675 10.8895 13.6666 10.333C13.6666 9.77745 13.8613 9.30545 14.2506 8.91701C14.64 8.52856 15.112 8.3339 15.6666 8.33301C16.2222 8.33301 16.6946 8.52767 17.084 8.91701C17.4733 9.30634 17.6675 9.77834 17.6666 10.333C17.6666 10.8886 17.4724 11.361 17.084 11.7503C16.6955 12.1397 16.2231 12.3339 15.6666 12.333ZM15.6666 22.333C15.2889 22.333 14.9724 22.205 14.7173 21.949C14.4622 21.693 14.3342 21.3766 14.3333 20.9997C14.3333 20.6219 14.4613 20.3055 14.7173 20.0503C14.9733 19.7952 15.2898 19.6672 15.6666 19.6663C16.0444 19.6663 16.3613 19.7943 16.6173 20.0503C16.8733 20.3063 17.0009 20.6228 17 20.9997C17 21.3775 16.872 21.6943 16.616 21.9503C16.36 22.2063 16.0435 22.3339 15.6666 22.333ZM15.6666 6.33301C15.2889 6.33301 14.9724 6.20501 14.7173 5.94901C14.4622 5.69301 14.3342 5.37656 14.3333 4.99967C14.3333 4.6219 14.4613 4.30545 14.7173 4.05034C14.9733 3.79523 15.2898 3.66723 15.6666 3.66634C16.0444 3.66634 16.3613 3.79434 16.6173 4.05034C16.8733 4.30634 17.0009 4.62279 17 4.99967C17 5.37745 16.872 5.69434 16.616 5.95034C16.36 6.20634 16.0435 6.3339 15.6666 6.33301ZM15.6666 25.6663C15.4889 25.6663 15.3333 25.5997 15.2 25.4663C15.0666 25.333 15 25.1775 15 24.9997C15 24.8219 15.0666 24.6663 15.2 24.533C15.3333 24.3997 15.4889 24.333 15.6666 24.333C15.8444 24.333 16 24.3997 16.1333 24.533C16.2666 24.6663 16.3333 24.8219 16.3333 24.9997C16.3333 25.1775 16.2666 25.333 16.1333 25.4663C16 25.5997 15.8444 25.6663 15.6666 25.6663ZM15.6666 1.66634C15.4889 1.66634 15.3333 1.59967 15.2 1.46634C15.0666 1.33301 15 1.17745 15 0.999674C15 0.821897 15.0666 0.666341 15.2 0.533008C15.3333 0.399675 15.4889 0.333008 15.6666 0.333008C15.8444 0.333008 16 0.399675 16.1333 0.533008C16.2666 0.666341 16.3333 0.821897 16.3333 0.999674C16.3333 1.17745 16.2666 1.33301 16.1333 1.46634C16 1.59967 15.8444 1.66634 15.6666 1.66634ZM21 22.333C20.6222 22.333 20.3058 22.205 20.0506 21.949C19.7955 21.693 19.6675 21.3766 19.6666 20.9997C19.6666 20.6219 19.7946 20.3055 20.0506 20.0503C20.3066 19.7952 20.6231 19.6672 21 19.6663C21.3778 19.6663 21.6946 19.7943 21.9506 20.0503C22.2066 20.3063 22.3342 20.6228 22.3333 20.9997C22.3333 21.3775 22.2053 21.6943 21.9493 21.9503C21.6933 22.2063 21.3769 22.3339 21 22.333ZM21 16.9997C20.6222 16.9997 20.3058 16.8717 20.0506 16.6157C19.7955 16.3597 19.6675 16.0432 19.6666 15.6663C19.6666 15.2886 19.7946 14.9721 20.0506 14.717C20.3066 14.4619 20.6231 14.3339 21 14.333C21.3778 14.333 21.6946 14.461 21.9506 14.717C22.2066 14.973 22.3342 15.2895 22.3333 15.6663C22.3333 16.0441 22.2053 16.361 21.9493 16.617C21.6933 16.873 21.3769 17.0006 21 16.9997ZM21 11.6663C20.6222 11.6663 20.3058 11.5383 20.0506 11.2823C19.7955 11.0263 19.6675 10.7099 19.6666 10.333C19.6666 9.95523 19.7946 9.63879 20.0506 9.38367C20.3066 9.12856 20.6231 9.00056 21 8.99967C21.3778 8.99967 21.6946 9.12768 21.9506 9.38367C22.2066 9.63968 22.3342 9.95612 22.3333 10.333C22.3333 10.7108 22.2053 11.0277 21.9493 11.2837C21.6933 11.5397 21.3769 11.6672 21 11.6663ZM21 6.33301C20.6222 6.33301 20.3058 6.20501 20.0506 5.94901C19.7955 5.69301 19.6675 5.37656 19.6666 4.99967C19.6666 4.6219 19.7946 4.30545 20.0506 4.05034C20.3066 3.79523 20.6231 3.66723 21 3.66634C21.3778 3.66634 21.6946 3.79434 21.9506 4.05034C22.2066 4.30634 22.3342 4.62279 22.3333 4.99967C22.3333 5.37745 22.2053 5.69434 21.9493 5.95034C21.6933 6.20634 21.3769 6.3339 21 6.33301ZM25 16.333C24.8222 16.333 24.6666 16.2663 24.5333 16.133C24.4 15.9997 24.3333 15.8441 24.3333 15.6663C24.3333 15.4886 24.4 15.333 24.5333 15.1997C24.6666 15.0663 24.8222 14.9997 25 14.9997C25.1778 14.9997 25.3333 15.0663 25.4666 15.1997C25.6 15.333 25.6666 15.4886 25.6666 15.6663C25.6666 15.8441 25.6 15.9997 25.4666 16.133C25.3333 16.2663 25.1778 16.333 25 16.333ZM25 10.9997C24.8222 10.9997 24.6666 10.933 24.5333 10.7997C24.4 10.6663 24.3333 10.5108 24.3333 10.333C24.3333 10.1552 24.4 9.99967 24.5333 9.86634C24.6666 9.73301 24.8222 9.66634 25 9.66634C25.1778 9.66634 25.3333 9.73301 25.4666 9.86634C25.6 9.99967 25.6666 10.1552 25.6666 10.333C25.6666 10.5108 25.6 10.6663 25.4666 10.7997C25.3333 10.933 25.1778 10.9997 25 10.9997Z" fill="currentColor"/>
</svg>
