<svg xmlns="http://www.w3.org/2000/svg" viewBox="0 0 24 24" fill="none">
<path d="M11.0739 2.09681C12.3954 1.26801 13.9968 2.28762 13.9968 3.76673V16.0001H20.1462C22.0364 16.0005 22.8712 18.3807 21.3952 19.5616L19.4431 21.1232C18.7339 21.6905 17.8523 22.0001 16.9441 22.0001H7.04953C6.14134 22.0001 5.25972 21.6905 4.55051 21.1232L2.59836 19.5616C1.12214 18.3807 1.95696 16.0003 3.84739 16.0001H11.9968V13.5714C9.66578 13.5431 7.3307 13.6191 5.13059 13.8263C3.77552 13.9538 2.47086 12.6214 3.13059 11.1437L3.31418 10.7492C5.26402 6.70552 8.93449 3.65083 10.947 2.18274L11.0739 2.09681Z" fill="currentColor"/><path d="M15.9968 5.59583C17.6057 7.00321 19.0519 8.89933 19.9714 11.2531C20.5326 12.6907 19.2949 13.9736 17.9616 13.8615C17.3168 13.8071 16.6605 13.759 15.9968 13.7189V5.59583Z" fill="currentColor"/>
</svg>
