<svg width="24" height="24" viewBox="0 0 24 24" fill="none" xmlns="http://www.w3.org/2000/svg">
<path d="M18 2C18 1.44772 17.5523 1 17 1C16.4477 1 16 1.44772 16 2V3C16 3.55228 16.4477 4 17 4C17.5523 4 18 3.55228 18 3V2Z" fill="currentColor" style="fill:currentColor;fill-opacity:1;"/>
<path d="M21.7071 2.29289C21.3166 1.90237 20.6834 1.90237 20.2929 2.29289L19.2929 3.29289C18.9024 3.68342 18.9024 4.31658 19.2929 4.70711C19.6834 5.09763 20.3166 5.09763 20.7071 4.70711L21.7071 3.70711C22.0976 3.31658 22.0976 2.68342 21.7071 2.29289Z" fill="currentColor" style="fill:currentColor;fill-opacity:1;"/>
<path d="M10 6C5.58172 6 2 9.58172 2 14C2 18.4183 5.58172 22 10 22C14.4183 22 18 18.4183 18 14C18 12.1513 17.3729 10.449 16.3199 9.09436L17.7071 7.70711C18.0976 7.31658 18.0976 6.68342 17.7071 6.29289C17.3166 5.90237 16.6834 5.90237 16.2929 6.29289L14.9056 7.68014C13.551 6.62708 11.8487 6 10 6Z" fill="currentColor" style="fill:currentColor;fill-opacity:1;"/>
<path d="M21 8H22C22.5523 8 23 7.55228 23 7C23 6.44772 22.5523 6 22 6H21C20.4477 6 20 6.44772 20 7C20 7.55228 20.4477 8 21 8Z" fill="currentColor" style="fill:currentColor;fill-opacity:1;"/>
</svg>
