<svg width="25" height="24" viewBox="0 0 25 24" fill="none" xmlns="http://www.w3.org/2000/svg">
<path d="M11.75 2.61268L11.4067 2.49825C10.2748 2.12095 9.03356 2.26863 8.02179 2.90099L6.33454 3.95552C5.34882 4.5716 4.75 5.65202 4.75 6.81443C4.75 7.24607 4.54677 7.65253 4.20146 7.91152L4.15 7.95011C3.26868 8.6111 2.75 9.64846 2.75 10.7501V12.2501C2.75 13.3518 3.26868 14.3891 4.15 15.0501C4.52771 15.3334 4.75 15.778 4.75 16.2501V16.8374C4.75 18.2165 5.46048 19.4984 6.63 20.2294L8.02179 21.0992C9.03356 21.7316 10.2748 21.8793 11.4067 21.502L11.75 21.3875V18.2426C11.75 17.7122 11.5393 17.2035 11.1642 16.8284L10.268 15.9323C10.1028 15.9764 9.92916 16 9.75 16C8.64543 16 7.75 15.1046 7.75 14C7.75 12.8954 8.64543 12 9.75 12C10.8546 12 11.75 12.8954 11.75 14C11.75 14.1792 11.7264 14.3528 11.6823 14.518L12.5784 15.4142C13.3286 16.1644 13.75 17.1818 13.75 18.2426V21.3875L14.0933 21.502C15.2252 21.8793 16.4664 21.7316 17.4782 21.0992L18.87 20.2294C20.0395 19.4984 20.75 18.2165 20.75 16.8374V16.2501C20.75 15.778 20.9723 15.3334 21.35 15.0501C22.2313 14.3891 22.75 13.3518 22.75 12.2501V10.7501C22.75 9.64846 22.2313 8.6111 21.35 7.95011L21.2985 7.91152C20.9532 7.65253 20.75 7.24607 20.75 6.81443C20.75 5.65202 20.1512 4.5716 19.1655 3.95552L17.4782 2.90099C16.4664 2.26863 15.2252 2.12095 14.0933 2.49825L13.75 2.61268V5.75736C13.75 6.28779 13.9607 6.7965 14.3358 7.17157L15.232 8.06774C15.3972 8.02356 15.5708 8 15.75 8C16.8546 8 17.75 8.89543 17.75 10C17.75 11.1046 16.8546 12 15.75 12C14.6454 12 13.75 11.1046 13.75 10C13.75 9.82084 13.7736 9.64718 13.8177 9.48196L12.9216 8.58579C12.1714 7.83564 11.75 6.81823 11.75 5.75736V2.61268Z" fill="currentColor" style="fill:currentColor;fill-opacity:1;"/>
</svg>
