<svg width="24" height="24" viewBox="0 0 24 24" fill="none" xmlns="http://www.w3.org/2000/svg">
<path d="M15 10C13.3431 10 12 8.65685 12 7M9 14C10.6569 14 12 15.3431 12 17M12 20.2422C12.7151 20.7209 13.5749 21 14.5 21C16.5553 21 18.2888 19.6221 18.8271 17.7396C20.102 17.2168 21 15.9633 21 14.5C21 13.5207 20.5978 12.6353 19.9495 12C20.5978 11.3647 21 10.4793 21 9.5C21 7.69511 19.6338 6.20931 17.8792 6.0203C17.4422 4.28478 15.8711 3 14 3C13.2714 3 12.5883 3.19479 12 3.53513M12 20.2422C11.285 20.7209 10.4251 21 9.5 21C7.44468 21 5.71119 19.6221 5.17291 17.7396C3.89797 17.2168 3 15.9633 3 14.5C3 13.5207 3.40223 12.6353 4.05051 12C3.40223 11.3647 3 10.4793 3 9.5C3 7.69511 4.36618 6.20931 6.12085 6.0203C6.55779 4.28478 8.12886 3 10 3C10.7286 3 11.4117 3.19479 12 3.53513M12 20.2422L12 3.53513" stroke="currentColor" stroke-width="2" stroke-linecap="round" stroke-linejoin="round"/>
</svg>
