<svg width="24" height="24" viewBox="0 0 24 24" fill="none" xmlns="http://www.w3.org/2000/svg">
<path d="M12 1C12.5523 1 13 1.44772 13 2V3C13 3.55228 12.5523 4 12 4C11.4477 4 11 3.55228 11 3V2C11 1.44772 11.4477 1 12 1Z" fill="currentColor" style="fill:currentColor;fill-opacity:1;"/>
<path d="M4.22185 4.22183C4.61237 3.8313 5.24554 3.8313 5.63606 4.22183L6.34317 4.92893C6.73369 5.31946 6.73369 5.95262 6.34317 6.34315C5.95264 6.73367 5.31948 6.73367 4.92896 6.34315L4.22185 5.63604C3.83132 5.24551 3.83132 4.61235 4.22185 4.22183Z" fill="currentColor" style="fill:currentColor;fill-opacity:1;"/>
<path d="M19.7782 5.63606C20.1687 5.24554 20.1687 4.61237 19.7782 4.22185C19.3877 3.83132 18.7545 3.83132 18.364 4.22185L17.6569 4.92896C17.2664 5.31948 17.2664 5.95264 17.6569 6.34317C18.0474 6.73369 18.6806 6.73369 19.0711 6.34317L19.7782 5.63606Z" fill="currentColor" style="fill:currentColor;fill-opacity:1;"/>
<path d="M1 12C1 11.4477 1.44772 11 2 11H3C3.55228 11 4 11.4477 4 12C4 12.5523 3.55228 13 3 13H2C1.44772 13 1 12.5523 1 12Z" fill="currentColor" style="fill:currentColor;fill-opacity:1;"/>
<path d="M21 11C20.4477 11 20 11.4477 20 12C20 12.5523 20.4477 13 21 13H22C22.5523 13 23 12.5523 23 12C23 11.4477 22.5523 11 22 11H21Z" fill="currentColor" style="fill:currentColor;fill-opacity:1;"/>
<path d="M17.6569 17.6569C18.0474 17.2663 18.6806 17.2663 19.0711 17.6569L19.7782 18.364C20.1687 18.7545 20.1687 19.3876 19.7782 19.7782C19.3877 20.1687 18.7545 20.1687 18.364 19.7782L17.6569 19.0711C17.2664 18.6805 17.2664 18.0474 17.6569 17.6569Z" fill="currentColor" style="fill:currentColor;fill-opacity:1;"/>
<path d="M6.34319 19.0711C6.73372 18.6806 6.73372 18.0474 6.34319 17.6569C5.95267 17.2664 5.3195 17.2664 4.92898 17.6569L4.22187 18.364C3.83135 18.7545 3.83135 19.3877 4.22187 19.7782C4.6124 20.1687 5.24556 20.1687 5.63609 19.7782L6.34319 19.0711Z" fill="currentColor" style="fill:currentColor;fill-opacity:1;"/>
<path d="M12 20C12.5523 20 13 20.4477 13 21V22C13 22.5523 12.5523 23 12 23C11.4477 23 11 22.5523 11 22V21C11 20.4477 11.4477 20 12 20Z" fill="currentColor" style="fill:currentColor;fill-opacity:1;"/>
<path d="M6 12C6 8.68629 8.68629 6 12 6C15.3137 6 18 8.68629 18 12C18 15.3137 15.3137 18 12 18C8.68629 18 6 15.3137 6 12Z" fill="currentColor" style="fill:currentColor;fill-opacity:1;"/>
</svg>
