<svg width="24" height="24" viewBox="0 0 24 24" fill="none" xmlns="http://www.w3.org/2000/svg">
<path fill-rule="evenodd" clip-rule="evenodd" d="M8.55279 1.10579C9.04676 0.858803 9.64744 1.05903 9.89443 1.55301L10.8944 3.55301C11.1414 4.04698 10.9412 4.64766 10.4472 4.89465C9.95324 5.14164 9.35256 4.94141 9.10557 4.44743L8.10557 2.44743C7.85858 1.95345 8.05881 1.35278 8.55279 1.10579ZM15.4472 1.10579C15.9412 1.35278 16.1414 1.95345 15.8944 2.44743L14.8944 4.44743C14.6474 4.94141 14.0468 5.14164 13.5528 4.89465C13.0588 4.64766 12.8586 4.04698 13.1056 3.55301L14.1056 1.55301C14.3526 1.05903 14.9532 0.858803 15.4472 1.10579ZM5 8.00022C3.89543 8.00022 3 8.89565 3 10.0002V14.0002C3 15.1048 3.89543 16.0002 5 16.0002H8C8.55228 16.0002 9 16.4479 9 17.0002C9 17.5525 8.55228 18.0002 8 18.0002H5C2.79086 18.0002 1 16.2094 1 14.0002V10.0002C1 7.79108 2.79086 6.00022 5 6.00022H8C8.55228 6.00022 9 6.44793 9 7.00022C9 7.5525 8.55228 8.00022 8 8.00022H5ZM15 7.00022C15 6.44793 15.4477 6.00022 16 6.00022H19C21.2091 6.00022 23 7.79108 23 10.0002V14.0002C23 16.2094 21.2091 18.0002 19 18.0002H16C15.4477 18.0002 15 17.5525 15 17.0002C15 16.4479 15.4477 16.0002 16 16.0002H19C20.1046 16.0002 21 15.1048 21 14.0002V10.0002C21 8.89565 20.1046 8.00022 19 8.00022H16C15.4477 8.00022 15 7.5525 15 7.00022ZM10.4472 19.1058C10.9412 19.3528 11.1414 19.9535 10.8944 20.4474L9.89443 22.4474C9.64744 22.9414 9.04676 23.1416 8.55279 22.8946C8.05881 22.6477 7.85858 22.047 8.10557 21.553L9.10557 19.553C9.35256 19.059 9.95324 18.8588 10.4472 19.1058ZM13.5528 19.1058C14.0468 18.8588 14.6474 19.059 14.8944 19.553L15.8944 21.553C16.1414 22.047 15.9412 22.6477 15.4472 22.8946C14.9532 23.1416 14.3526 22.9414 14.1056 22.4474L13.1056 20.4474C12.8586 19.9535 13.0588 19.3528 13.5528 19.1058Z" fill="currentColor" style="fill:currentColor;fill-opacity:1;"/>
</svg>
