<svg xmlns="http://www.w3.org/2000/svg" viewBox="0 0 24 24" fill="none">
<path fill-rule="evenodd" clip-rule="evenodd" d="M18 4C20.2091 4 22 5.79086 22 8V16C22 18.2091 20.2091 20 18 20H6C3.79086 20 2 18.2091 2 16V8C2 5.79086 3.79086 4 6 4H18ZM6 7C5.44772 7 5 7.44772 5 8C5 8.55228 5.44772 9 6 9H11C11.5523 9 12 8.55228 12 8C12 7.44772 11.5523 7 11 7H6ZM14 7C13.4477 7 13 7.44772 13 8C13 8.55228 13.4477 9 14 9H14.5C15.0523 9 15.5 8.55228 15.5 8C15.5 7.44772 15.0523 7 14.5 7H14ZM17.5 7C16.9477 7 16.5 7.44772 16.5 8C16.5 8.55228 16.9477 9 17.5 9H18C18.5523 9 19 8.55228 19 8C19 7.44772 18.5523 7 18 7H17.5Z" fill="currentColor"/>
</svg>
