<svg width="24" height="24" viewBox="0 0 24 24" fill="none" xmlns="http://www.w3.org/2000/svg">
<path fill-rule="evenodd" clip-rule="evenodd" d="M20.7926 8.37874C21.9642 9.5503 21.9642 11.4498 20.7927 12.6214L15.457 17.9572C14.376 19.0381 12.6234 19.0377 11.5429 17.9563C11.2435 17.6565 10.7576 17.6564 10.458 17.956L7.70741 20.7068C6.48862 21.9257 4.51257 21.9259 3.29352 20.7073C2.07422 19.4885 2.07401 17.5119 3.29305 16.2928L6.04393 13.5417C6.34346 13.2422 6.34333 12.7565 6.04363 12.4571C4.96221 11.3767 4.96174 9.62418 6.04258 8.54328L7.77523 6.81056C7.78091 6.80459 7.78667 6.79868 7.79252 6.79284L11.3783 3.20705C12.5115 2.07389 14.3256 2.03673 15.5034 3.0956C15.5433 3.13149 15.5825 3.16864 15.6209 3.20705C15.6209 3.207 15.621 3.20709 15.6209 3.20705L18.2067 5.79283C18.3943 5.98037 18.4997 6.23482 18.4997 6.50004V7.49994L19.4996 7.49994C19.7254 7.49994 19.9433 7.57628 20.1188 7.71465C20.1494 7.73884 20.1788 7.76493 20.2067 7.79284C20.2067 7.7928 20.2068 7.79287 20.2067 7.79284L20.7926 8.37874ZM15.0856 15.5001L8.49986 8.91438L7.45683 9.95746C7.15729 10.257 7.15742 10.7427 7.45712 11.0421C8.53853 12.1224 8.53901 13.875 7.45819 14.9559L4.70731 17.7069C4.26937 18.1449 4.26945 18.855 4.70748 19.2928C5.14541 19.7306 5.8553 19.7305 6.29315 19.2927L9.04377 16.5419C10.1247 15.4609 11.8774 15.4613 12.9578 16.5427C13.2573 16.8425 13.7431 16.8426 14.0427 16.543L15.0856 15.5001Z" fill="currentColor" style="fill:currentColor;fill-opacity:1;"/>
</svg>
