<svg width="24" height="24" viewBox="0 0 24 24" fill="none" xmlns="http://www.w3.org/2000/svg">
<path fill-rule="evenodd" clip-rule="evenodd" d="M17.0019 3L7.00195 3.00002C4.79281 3.00002 3.00195 4.79088 3.00195 7.00002V15.0358C3.00195 17.2449 4.79281 19.0358 7.00195 19.0358H8.65157L11.3553 21.3021C11.7252 21.6123 12.2639 21.6138 12.6357 21.3058L15.3757 19.0358L17.002 19.0358C19.2111 19.0357 21.002 17.2449 21.002 15.0358V7C21.002 4.79086 19.2111 3 17.0019 3ZM7.99976 9C7.99976 8.44772 8.44747 8 8.99976 8H14.9998C15.552 8 15.9998 8.44772 15.9998 9C15.9998 9.55228 15.552 10 14.9998 10H8.99976C8.44747 10 7.99976 9.55228 7.99976 9ZM8.99976 12C8.44747 12 7.99976 12.4477 7.99976 13C7.99976 13.5523 8.44747 14 8.99976 14H14.9998C15.552 14 15.9998 13.5523 15.9998 13C15.9998 12.4477 15.552 12 14.9998 12H8.99976Z" fill="currentColor" style="fill:currentColor;fill-opacity:1;"/>
</svg>
