<svg width="24" height="24" viewBox="0 0 24 24" fill="none" xmlns="http://www.w3.org/2000/svg">
<path fill-rule="evenodd" clip-rule="evenodd" d="M6.00195 3.00002L18.0019 3C20.2111 3 22.002 4.79086 22.002 7V15.0358C22.002 17.2449 20.2111 19.0357 18.002 19.0358L15.3757 19.0358L12.6357 21.3058C12.2639 21.6138 11.7252 21.6123 11.3553 21.3021L8.65157 19.0358H6.00195C3.79281 19.0358 2.00195 17.2449 2.00195 15.0358V7.00002C2.00195 4.79088 3.79281 3.00002 6.00195 3.00002ZM6.24976 11C6.24976 11.6904 6.8094 12.25 7.49976 12.25C8.19011 12.25 8.74976 11.6904 8.74976 11C8.74976 10.3096 8.19011 9.75 7.49976 9.75C6.8094 9.75 6.24976 10.3096 6.24976 11ZM10.7498 11C10.7498 11.6904 11.3094 12.25 11.9998 12.25C12.6901 12.25 13.2498 11.6904 13.2498 11C13.2498 10.3096 12.6901 9.75 11.9998 9.75C11.3094 9.75 10.7498 10.3096 10.7498 11ZM16.4998 12.25C15.8094 12.25 15.2498 11.6904 15.2498 11C15.2498 10.3096 15.8094 9.75 16.4998 9.75C17.1901 9.75 17.7498 10.3096 17.7498 11C17.7498 11.6904 17.1901 12.25 16.4998 12.25Z" fill="currentColor" style="fill:currentColor;fill-opacity:1;"/>
</svg>
