<svg width="24" height="24" viewBox="0 0 24 24" fill="none" xmlns="http://www.w3.org/2000/svg">
<path fill-rule="evenodd" clip-rule="evenodd" d="M7.91667 5.68609C7.94791 5.75056 7.97843 5.81587 8.00825 5.88189C5.05927 7.26234 3.00047 10.1274 3.00047 13.5C3.00047 18.2542 7.09168 22 12.0005 22C16.9093 22 21.0005 18.2542 21.0005 13.5C21.0005 10.1268 18.9409 7.26129 15.9911 5.88114C16.0208 5.81537 16.0512 5.75032 16.0823 5.68609C16.6561 4.5021 17.2711 4 17.9228 4C18.3079 4 18.559 4.18838 18.7575 4.46211C18.8591 4.60212 18.9321 4.74822 18.9796 4.86188C19.0027 4.91731 19.0182 4.96129 19.027 4.98788C19.0314 5.00107 19.034 5.00997 19.035 5.01315C19.1792 5.54226 19.7234 5.85704 20.2547 5.71691C20.7888 5.57607 21.1075 5.02898 20.9666 4.49496L20.9662 4.49324L20.9657 4.49136L20.9645 4.48708L20.9616 4.47655L20.9534 4.44781C20.9468 4.42536 20.9379 4.39634 20.9264 4.36168C20.9037 4.29257 20.8705 4.19984 20.8251 4.0912C20.7356 3.87675 20.5923 3.58535 20.3765 3.28787C19.9404 2.68661 19.1531 2 17.9228 2C16.0361 2 14.9203 3.49789 14.2825 4.81387C14.216 4.95105 14.1525 5.09068 14.0918 5.23187C13.419 5.08015 12.7185 5 12.0005 5C11.2818 5 10.5807 5.08029 9.90732 5.23227C9.84657 5.09094 9.783 4.95118 9.71645 4.81387C9.0787 3.49789 7.96289 2 6.07619 2C4.84592 2 4.05854 2.68661 3.62246 3.28787C3.4067 3.58535 3.2634 3.87675 3.17385 4.0912C3.12848 4.19984 3.09532 4.29257 3.07254 4.36168C3.06111 4.39634 3.05219 4.42536 3.04558 4.44781L3.03734 4.47655L3.03444 4.48708L3.03329 4.49136L3.03279 4.49324L3.03233 4.49496C2.89149 5.02898 3.21023 5.57607 3.74425 5.71691C4.27555 5.85704 4.81978 5.54226 4.96402 5.01315C4.96495 5.00997 4.96763 5.00107 4.97198 4.98788C4.98074 4.96129 4.99625 4.91731 5.0194 4.86188C5.06686 4.74822 5.13991 4.60212 5.24146 4.46211C5.43999 4.18838 5.69108 4 6.07619 4C6.72792 4 7.34287 4.5021 7.91667 5.68609ZM10.5 13.75C10.5 14.7165 9.82843 15.5 9 15.5C8.17157 15.5 7.5 14.7165 7.5 13.75C7.5 12.7835 8.17157 12 9 12C9.82843 12 10.5 12.7835 10.5 13.75ZM13.5 17C13.5 17.5523 12.8284 18 12 18C11.1716 18 10.5 17.5523 10.5 17C10.5 16.4477 11.1716 16 12 16C12.8284 16 13.5 16.4477 13.5 17ZM15 15.5C15.8284 15.5 16.5 14.7165 16.5 13.75C16.5 12.7835 15.8284 12 15 12C14.1716 12 13.5 12.7835 13.5 13.75C13.5 14.7165 14.1716 15.5 15 15.5Z" fill="currentColor" style="fill:currentColor;fill-opacity:1;"/>
</svg>
