<svg xmlns="http://www.w3.org/2000/svg" viewBox="0 0 24 24" fill="none">
<path d="M2 15.0616C2 15.6419 2 15.932 2.03667 16.201C2.18035 17.2549 2.73787 18.2081 3.58597 18.85C3.80239 19.0138 4.05527 19.1561 4.56104 19.4406L10 22.5V19.5L2 15.0616ZM12 19.5V22.537L19.5466 17.2265C20.2833 16.708 20.6517 16.4488 20.9415 16.1344C21.4246 15.6101 21.7589 14.9661 21.9096 14.2693C22 13.8513 22 13.4009 22 12.5L12 19.5ZM2 12.6676L10 17.0158V14L2 9.5404V12.6676ZM12 14V17L22 10V7L12 14ZM3 7.5L11 12L21 5.5L16.377 2.89955C15.1498 2.20923 14.5361 1.86408 13.8883 1.74234C13.3154 1.63467 12.7258 1.65353 12.1609 1.79762C11.5223 1.96053 10.932 2.34422 9.75139 3.1116L3 7.5Z" fill="currentColor"/>
</svg>
