<svg width="24" height="24" viewBox="0 0 24 24" fill="none" xmlns="http://www.w3.org/2000/svg">
<path d="M12 3C10.5447 3 8.34865 3.40458 6.48268 4.58792C4.77743 5.66934 3.34846 7.40977 3.0551 10.0013C2.99298 10.5501 3.44771 11 3.99999 11H20C20.5523 11 21.007 10.5501 20.9449 10.0013C20.6515 7.40977 19.2226 5.66934 17.5173 4.58792C15.6513 3.40458 13.4553 3 12 3Z" fill="currentColor" style="fill:currentColor;fill-opacity:1;"/>
<path d="M2 14C2 13.4477 2.44772 13 3 13H21C21.5523 13 22 13.4477 22 14C22 14.5523 21.5523 15 21 15H3C2.44772 15 2 14.5523 2 14Z" fill="currentColor" style="fill:currentColor;fill-opacity:1;"/>
<path d="M3.13326 18.0238C2.98933 17.4772 3.47657 17 4.04179 17H19.9582C20.5235 17 21.0107 17.4772 20.8668 18.0238L20.8637 18.0353C20.4939 19.4156 19.4157 20.4938 18.0353 20.8637C17.5236 21.0008 16.933 21.0005 16.1376 21H7.86244C7.06705 21.0005 6.47639 21.0008 5.96474 20.8637C4.58437 20.4938 3.50618 19.4156 3.13632 18.0353L3.13326 18.0238Z" fill="currentColor" style="fill:currentColor;fill-opacity:1;"/>
</svg>
