<svg xmlns="http://www.w3.org/2000/svg" viewBox="0 0 24 24" fill="none">
<path d="M15.8252 9.05176C16.1395 8.94686 16.4857 9.00401 16.749 9.20508C17.7938 10.0034 18.538 10.8986 18.9453 11.959C19.0191 12.1511 19.0799 12.3455 19.1299 12.542C19.2967 12.3524 19.531 12.2325 19.7852 12.208C20.0765 12.1799 20.3657 12.281 20.5762 12.4844C21.4696 13.3477 21.8197 14.4351 21.9453 15.4443C22.3569 18.7273 20.3871 21.0249 17.9932 21.751C15.6157 22.4717 12.7343 21.6537 11.4512 18.7842L11.4502 18.7832C10.6742 17.0423 10.9372 15.3037 11.958 13.7979C12.3007 13.2927 12.7137 12.8533 13.0996 12.4775C14.1499 11.457 14.8501 10.9016 15.1797 9.72949L15.2197 9.61328C15.3303 9.3494 15.5501 9.14368 15.8252 9.05176Z" fill="currentColor"/><path d="M11 2C14.0942 2 16.8231 3.56232 18.4414 5.93652C18.7524 6.39282 18.6349 7.01508 18.1787 7.32617C17.7224 7.63716 17.1002 7.51966 16.7891 7.06348C15.5274 5.21231 13.4051 4 11 4C7.13401 4 4 7.13401 4 11C4 14.1005 6.01674 16.7324 8.8125 17.6514C9.33707 17.8239 9.62263 18.3894 9.4502 18.9141C9.2777 19.4387 8.71213 19.7242 8.1875 19.5518C4.5955 18.371 2 14.9898 2 11C2 6.02944 6.02944 2 11 2Z" fill="currentColor"/><path d="M10 6.42285C10.6188 6.0656 11.3812 6.06564 12 6.42285L13.2324 7.13379C13.7107 7.40991 13.8747 8.02174 13.5986 8.5C13.3225 8.97823 12.7107 9.14221 12.2324 8.86621L11 8.1543L8.53613 9.57715V12.4229L9.33496 12.8838C9.81325 13.1599 9.97731 13.7717 9.70117 14.25C9.42503 14.7283 8.81325 14.8924 8.33496 14.6162L7.53613 14.1543C6.91749 13.797 6.5362 13.1372 6.53613 12.4229V9.57715C6.5362 8.86276 6.91749 8.20296 7.53613 7.8457L10 6.42285Z" fill="currentColor"/>
</svg>
