<svg xmlns="http://www.w3.org/2000/svg" viewBox="0 0 24 24" fill="none">
<path d="M19.8811 13.2032C20.5541 13.8534 20.8445 14.6929 20.9534 15.5692C21.6444 21.08 14.4567 23.0565 12.3639 18.3759C11.744 16.9852 11.9367 15.6115 12.7855 14.3593C13.0732 13.9353 13.4306 13.5509 13.7964 13.1948C14.771 12.2478 15.7232 11.4896 16.142 10C18.0214 11.4359 18.5659 13.0195 18.1917 15.1706H18.3622C18.7441 14.7448 19.6392 13.5492 19.8811 13.2032Z" stroke="currentColor" stroke-width="2" stroke-linecap="round" stroke-linejoin="round"/><path d="M17.6153 6.5C16.1753 4.38723 13.7497 3 11 3C6.58172 3 3 6.58172 3 11C3 14.5452 5.30607 17.5518 8.5 18.6016" stroke="currentColor" stroke-width="2" stroke-linecap="round" stroke-linejoin="round"/><path d="M12.7323 8L11.5002 7.28868C11.1908 7.11004 10.8096 7.11004 10.5002 7.28868L8.03613 8.71132C7.72673 8.88996 7.53613 9.22008 7.53613 9.57735V12.4226C7.53613 12.7799 7.72673 13.11 8.03613 13.2887L8.83517 13.75" stroke="currentColor" stroke-width="2" stroke-linecap="round" stroke-linejoin="round"/>
</svg>
