<svg xmlns="http://www.w3.org/2000/svg" viewBox="0 0 24 24" fill="none">
<path d="M11 22V20C11 19.4477 11.4477 19 12 19C12.5523 19 13 19.4477 13 20V22C13 22.5523 12.5523 23 12 23C11.4477 23 11 22.5523 11 22ZM6.79297 15.793C7.18349 15.4024 7.81651 15.4024 8.20703 15.793C8.59756 16.1835 8.59756 16.8165 8.20703 17.207L5.70703 19.707C5.31651 20.0976 4.68349 20.0976 4.29297 19.707C3.90244 19.3165 3.90244 18.6835 4.29297 18.293L6.79297 15.793ZM15.793 15.793C16.1835 15.4024 16.8165 15.4024 17.207 15.793L19.707 18.293C20.0976 18.6835 20.0976 19.3165 19.707 19.707C19.3165 20.0976 18.6835 20.0976 18.293 19.707L15.793 17.207C15.4024 16.8165 15.4024 16.1835 15.793 15.793ZM4 11C4.55228 11 5 11.4477 5 12C5 12.5523 4.55228 13 4 13H2C1.44772 13 1 12.5523 1 12C1 11.4477 1.44772 11 2 11H4ZM22 11C22.5523 11 23 11.4477 23 12C23 12.5523 22.5523 13 22 13H20C19.4477 13 19 12.5523 19 12C19 11.4477 19.4477 11 20 11H22ZM4.29297 4.29297C4.68349 3.90244 5.31651 3.90244 5.70703 4.29297L8.20703 6.79297C8.59756 7.18349 8.59756 7.81651 8.20703 8.20703C7.81651 8.59756 7.18349 8.59756 6.79297 8.20703L4.29297 5.70703C3.90244 5.31651 3.90244 4.68349 4.29297 4.29297ZM18.293 4.29297C18.6835 3.90244 19.3165 3.90244 19.707 4.29297C20.0976 4.68349 20.0976 5.31651 19.707 5.70703L17.207 8.20703C16.8165 8.59756 16.1835 8.59756 15.793 8.20703C15.4024 7.81651 15.4024 7.18349 15.793 6.79297L18.293 4.29297ZM11 4V2C11 1.44772 11.4477 1 12 1C12.5523 1 13 1.44772 13 2V4C13 4.55228 12.5523 5 12 5C11.4477 5 11 4.55228 11 4Z" fill="currentColor"/>
</svg>
