<svg width="24" height="24" viewBox="0 0 24 24" fill="none" xmlns="http://www.w3.org/2000/svg">
<path fill-rule="evenodd" clip-rule="evenodd" d="M16 2C16.5523 2 17 2.44772 17 3V4C19.2091 4 21 5.79086 21 8V17C21 19.2091 19.2091 21 17 21H7C4.79086 21 3 19.2091 3 17V8C3 5.79086 4.79086 4 7 4V3C7 2.44772 7.44772 2 8 2C8.55228 2 9 2.44772 9 3V4H15V3C15 2.44772 15.4477 2 16 2ZM9.04094 9.54289C9.43146 9.15237 10.0646 9.15237 10.4552 9.54289L11.9999 11.0876L13.5446 9.54289C13.9351 9.15237 14.5682 9.15237 14.9588 9.54289C15.3493 9.93342 15.3493 10.5666 14.9588 10.9571L13.4141 12.5018L14.9568 14.0446C15.3473 14.4351 15.3473 15.0682 14.9568 15.4588C14.5663 15.8493 13.9331 15.8493 13.5426 15.4588L11.9999 13.916L10.4571 15.4588C10.0666 15.8493 9.43342 15.8493 9.04289 15.4588C8.65237 15.0682 8.65237 14.4351 9.04289 14.0446L10.5856 12.5018L9.04094 10.9571C8.65042 10.5666 8.65042 9.93342 9.04094 9.54289Z" fill="currentColor" style="fill:currentColor;fill-opacity:1;"/>
</svg>
