<svg width="24" height="24" viewBox="0 0 24 24" fill="none" xmlns="http://www.w3.org/2000/svg">
<path d="M11 20H7C5.34315 20 4 18.6569 4 17V9M4 9V8C4 6.34315 5.34315 5 7 5H17C18.6569 5 20 6.34315 20 8V9M4 9H20M20 9V10M8 5V3M16 5V3M15 21H15.7574C16.553 21 17.3161 20.6839 17.8787 20.1213L21 17C21.5523 16.4477 21.5523 15.5523 21 15C20.4477 14.4477 19.5523 14.4477 19 15L15.8787 18.1213C15.3161 18.6839 15 19.447 15 20.2426V21Z" stroke="currentColor" stroke-width="2" stroke-linecap="round" stroke-linejoin="round"/>
</svg>
