<svg width="24" height="24" viewBox="0 0 24 24" fill="none" xmlns="http://www.w3.org/2000/svg">
<path d="M8 2C8.55228 2 9 2.44772 9 3V4H15V3C15 2.44772 15.4477 2 16 2C16.5523 2 17 2.44772 17 3V4C19.2091 4 21 5.79086 21 8V9C21 9.55229 20.5523 10 20 10H5V17C5 18.1046 5.89543 19 7 19H10C10.5523 19 11 19.4477 11 20C11 20.5523 10.5523 21 10 21H7C4.79086 21 3 19.2091 3 17V8C3 5.79086 4.79086 4 7 4V3C7 2.44772 7.44772 2 8 2Z" fill="currentColor" style="fill:currentColor;fill-opacity:1;"/>
<path d="M17 14.375C16.6673 14.375 16.346 14.4366 16.049 14.549L16.6464 15.1464C16.9614 15.4614 16.7383 16 16.2929 16H14C13.4477 16 13 15.5523 13 15V12.7071C13 12.2617 13.5386 12.0386 13.8536 12.3536L14.56 13.06C15.2735 12.6256 16.1127 12.375 17 12.375C19.1132 12.375 20.893 13.7914 21.4467 15.7247C21.5987 16.2556 21.2916 16.8093 20.7606 16.9614C20.2297 17.1134 19.676 16.8063 19.524 16.2753C19.2095 15.1772 18.1971 14.375 17 14.375Z" fill="currentColor" style="fill:currentColor;fill-opacity:1;"/>
<path d="M14.476 17.7247C14.324 17.1937 13.7703 16.8866 13.2394 17.0386C12.7084 17.1907 12.4013 17.7444 12.5533 18.2753C13.107 20.2086 14.8868 21.625 17 21.625C17.8875 21.625 18.7268 21.3742 19.44 20.94L20.1464 21.6464C20.4614 21.9614 21 21.7383 21 21.2929V19C21 18.4477 20.5523 18 20 18H17.7071C17.2617 18 17.0386 18.5386 17.3536 18.8536L17.951 19.451C17.6539 19.5634 17.3327 19.625 17 19.625C15.8029 19.625 14.7905 18.8228 14.476 17.7247Z" fill="currentColor" style="fill:currentColor;fill-opacity:1;"/>
</svg>
