<svg width="24" height="24" viewBox="0 0 24 24" fill="none" xmlns="http://www.w3.org/2000/svg">
<path d="M10 20H7C5.34315 20 4 18.6569 4 17V9M4 9V8C4 6.34315 5.34315 5 7 5H17C18.6569 5 20 6.34315 20 8C20 8.55228 20 9 20 9M4 9H20M8 5V3M16 5V3M20 9V10M19.1213 19.1213C17.9497 20.2929 16.0503 20.2929 14.8787 19.1213C13.7071 17.9498 13.7071 16.0503 14.8787 14.8787C16.0503 13.7071 17.9497 13.7071 19.1213 14.8787C20.2929 16.0503 20.2929 17.9498 19.1213 19.1213ZM19.1213 19.1213L21 21" stroke="currentColor" stroke-width="2" stroke-linecap="round" stroke-linejoin="round"/>
</svg>
