<svg width="24" height="24" viewBox="0 0 24 24" fill="none" xmlns="http://www.w3.org/2000/svg">
<path fill-rule="evenodd" clip-rule="evenodd" d="M11.9996 4C11.3719 4.83566 11 5.87439 11 7V10C11 12.7614 13.2386 15 16 15H19C20.1256 15 21.1643 14.6281 22 14.0004V17C22 19.2091 20.2091 21 18 21H6C3.79086 21 2 19.2091 2 17V8C2 5.79086 3.79086 4 6 4H11.9996ZM5 17C5 16.4477 5.44772 16 6 16H8C8.55228 16 9 16.4477 9 17C9 17.5523 8.55228 18 8 18H6C5.44772 18 5 17.5523 5 17Z" fill="currentColor" style="fill:currentColor;fill-opacity:1;"/>
<path fill-rule="evenodd" clip-rule="evenodd" d="M13 7C13 5.34315 14.3431 4 16 4H19C20.6569 4 22 5.34315 22 7V10C22 11.6569 20.6569 13 19 13H16C14.3431 13 13 11.6569 13 10V7ZM16.25 8.5C16.25 9.19036 16.8096 9.75 17.5 9.75C18.1904 9.75 18.75 9.19036 18.75 8.5C18.75 7.80964 18.1904 7.25 17.5 7.25C16.8096 7.25 16.25 7.80964 16.25 8.5Z" fill="currentColor" style="fill:currentColor;fill-opacity:1;"/>
</svg>
