<svg width="24" height="24" viewBox="0 0 24 24" fill="none" xmlns="http://www.w3.org/2000/svg">
<path fill-rule="evenodd" clip-rule="evenodd" d="M7.99978 5C8.91089 3.78702 10.3631 3 12 3C13.6369 3 15.0891 3.78702 16.0002 5H18C20.2091 5 22 6.79086 22 9V17C22 19.2091 20.2091 21 18 21H6C3.79086 21 2 19.2091 2 17V9C2 6.79086 3.79086 5 6 5H7.99978ZM12 9C10.067 9 8.5 10.567 8.5 12.5C8.5 14.433 10.067 16 12 16C13.933 16 15.5 14.433 15.5 12.5C15.5 10.567 13.933 9 12 9Z" fill="currentColor" style="fill:currentColor;fill-opacity:1;"/>
</svg>
