<svg xmlns="http://www.w3.org/2000/svg" viewBox="0 0 24 24" fill="none">
<path fill-rule="evenodd" clip-rule="evenodd" d="M12.8945 3C13.5909 3.00001 14.2623 3.18288 14.8516 3.51367L14.6553 3.58984C13.658 3.97346 13 4.93152 13 6C13 7.06848 13.658 8.02654 14.6553 8.41016L16.0518 8.94727L16.5898 10.3447C16.9735 11.342 17.9315 12 19 12C20.0685 12 21.0265 11.342 21.4102 10.3447L21.9023 9.06348C21.9653 9.34275 22 9.63335 22 9.93164V17C22 19.2091 20.2091 21 18 21H6C3.79086 21 2 19.2091 2 17V9.93164C2 7.76047 3.76047 6 5.93164 6C6.57721 5.99987 7.17998 5.67681 7.53809 5.13965L7.77734 4.78125C8.51919 3.66848 9.76809 3.00003 11.1055 3H12.8945ZM12 10C10.067 10 8.5 11.567 8.5 13.5C8.5 15.433 10.067 17 12 17C13.933 17 15.5 15.433 15.5 13.5C15.5 11.567 13.933 10 12 10Z" fill="currentColor"/><path d="M16.4072 5.05762L15.373 5.45605C15.345 5.46686 15.3185 5.48049 15.293 5.49512L15.292 5.49414C15.3176 5.47943 15.3449 5.4669 15.373 5.45605L15.8633 5.2666L16.4072 5.05762Z" fill="currentColor"/><path d="M20.2405 4.18518L19.5436 2.37334C19.4571 2.14842 19.241 2 19 2C18.759 2 18.5429 2.14842 18.4564 2.37334L17.7595 4.18518C17.658 4.44927 17.4493 4.65797 17.1852 4.75955L15.373 5.45605C15.1481 5.54256 15 5.75901 15 6C15 6.24099 15.1484 6.45708 15.3733 6.54359L17.1852 7.24045C17.4493 7.34203 17.658 7.55073 17.7595 7.81482L18.4564 9.62666C18.5429 9.85158 18.759 10 19 10C19.241 10 19.4571 9.85158 19.5436 9.62666L20.2405 7.81482C20.342 7.55073 20.5507 7.34203 20.8148 7.24045L22.6267 6.54359C22.8516 6.45708 23 6.24099 23 6C23 5.75901 22.8516 5.54292 22.6267 5.45641L20.8148 4.75955C20.5507 4.65797 20.342 4.44927 20.2405 4.18518Z" fill="currentColor"/>
</svg>
