<svg xmlns="http://www.w3.org/2000/svg" viewBox="0 0 24 24" fill="none">
<path fill-rule="evenodd" clip-rule="evenodd" d="M17 3C19.2091 3 21 4.79086 21 7V17C21 19.2091 19.2091 21 17 21H7C4.79086 21 3 19.2091 3 17V7C3 4.79086 4.79086 3 7 3H17ZM12 17C11.4477 17 11 17.4477 11 18V19C11 19.5523 11.4477 20 12 20C12.5523 20 13 19.5523 13 19V18C13 17.4477 12.5523 17 12 17ZM12 9C11.4477 9 11 9.44772 11 10V11H10C9.44772 11 9 11.4477 9 12C9 12.5523 9.44772 13 10 13H11V14C11 14.5523 11.4477 15 12 15C12.5523 15 13 14.5523 13 14V13H14C14.5523 13 15 12.5523 15 12C15 11.4477 14.5523 11 14 11H13V10C13 9.44772 12.5523 9 12 9ZM5 11C4.44772 11 4 11.4477 4 12C4 12.5523 4.44772 13 5 13H6C6.55228 13 7 12.5523 7 12C7 11.4477 6.55228 11 6 11H5ZM18 11C17.4477 11 17 11.4477 17 12C17 12.5523 17.4477 13 18 13H19C19.5523 13 20 12.5523 20 12C20 11.4477 19.5523 11 19 11H18ZM12 4C11.4477 4 11 4.44772 11 5V6C11 6.55228 11.4477 7 12 7C12.5523 7 13 6.55228 13 6V5C13 4.44772 12.5523 4 12 4Z" fill="currentColor"/>
</svg>
