<svg width="24" height="24" viewBox="0 0 24 24" fill="none" xmlns="http://www.w3.org/2000/svg">
<path fill-rule="evenodd" clip-rule="evenodd" d="M7 5C5.89543 5 5 5.89543 5 7V8C5 8.55228 4.55228 9 4 9C3.44772 9 3 8.55228 3 8V7C3 4.79086 4.79086 3 7 3H8C8.55228 3 9 3.44772 9 4C9 4.55228 8.55228 5 8 5H7ZM15 4C15 3.44772 15.4477 3 16 3H17C19.2091 3 21 4.79086 21 7V8C21 8.55228 20.5523 9 20 9C19.4477 9 19 8.55228 19 8V7C19 5.89543 18.1046 5 17 5H16C15.4477 5 15 4.55228 15 4ZM4 15C4.55228 15 5 15.4477 5 16V17C5 18.1046 5.89543 19 7 19H8C8.55228 19 9 19.4477 9 20C9 20.5523 8.55228 21 8 21H7C4.79086 21 3 19.2091 3 17V16C3 15.4477 3.44772 15 4 15ZM20 15C20.5523 15 21 15.4477 21 16V17C21 19.2091 19.2091 21 17 21H16C15.4477 21 15 20.5523 15 20C15 19.4477 15.4477 19 16 19H17C18.1046 19 19 18.1046 19 17V16C19 15.4477 19.4477 15 20 15Z" fill="currentColor" style="fill:currentColor;fill-opacity:1;"/>
<path fill-rule="evenodd" clip-rule="evenodd" d="M9.70711 7.87868C10.2697 7.31607 11.0328 7 11.8284 7H12.1716C12.9672 7 13.7303 7.31607 14.2929 7.87868L14.4152 8.00096C15.8492 8.03912 17 9.2136 17 10.6569V13C17 14.6569 15.6569 16 14 16H10C8.34315 16 7 14.6569 7 13V10.6569C7 9.2136 8.15079 8.03912 9.58483 8.00096L9.70711 7.87868ZM10.5 11.85C10.5 11.0216 11.1716 10.35 12 10.35C12.8284 10.35 13.5 11.0216 13.5 11.85C13.5 12.6784 12.8284 13.35 12 13.35C11.1716 13.35 10.5 12.6784 10.5 11.85Z" fill="currentColor" style="fill:currentColor;fill-opacity:1;"/>
</svg>
