<svg width="24" height="24" viewBox="0 0 24 24" fill="none" xmlns="http://www.w3.org/2000/svg">
<path fill-rule="evenodd" clip-rule="evenodd" d="M6.54058 4L11.4992 4C12.7582 4 13.9438 4.59278 14.6992 5.6L16.3184 7.75895C16.4727 7.96468 16.7003 8.10306 16.954 8.14534L19.6568 8.5958C21.5855 8.91726 22.9992 10.586 22.9992 12.5414V15C22.9992 16.6014 21.7445 17.9097 20.1646 17.9955C19.6038 19.1804 18.3972 20 16.9993 20C15.6031 20 14.3978 19.1825 13.8361 18H10.1625C9.60072 19.1825 8.39547 20 6.99927 20C5.58369 20 4.3644 19.1596 3.81307 17.9506C2.23884 17.6619 1.12696 16.1506 1.40094 14.5068L2.595 7.34241C2.91646 5.41366 4.58522 4 6.54058 4ZM5.49927 16.5C5.49927 15.6716 6.17084 15 6.99927 15C7.82769 15 8.49927 15.6716 8.49927 16.5C8.49927 17.3284 7.82769 18 6.99927 18C6.17084 18 5.49927 17.3284 5.49927 16.5ZM16.9993 15C16.1708 15 15.4993 15.6716 15.4993 16.5C15.4993 17.3284 16.1708 18 16.9993 18C17.8277 18 18.4993 17.3284 18.4993 16.5C18.4993 15.6716 17.8277 15 16.9993 15ZM11.9161 9.99984H13.9927C14.2 9.99984 14.3172 10.2375 14.1911 10.4019L11.2424 14.2481C11.0862 14.4519 10.7611 14.3159 10.7964 14.0616L11.0827 11.9998H9.00607C8.79884 11.9998 8.68159 11.7622 8.80767 11.5977L11.7564 7.75158C11.9126 7.5478 12.2378 7.68374 12.2024 7.93808L11.9161 9.99984Z" fill="currentColor"/>
</svg>
