<svg width="24" height="24" viewBox="0 0 24 24" fill="none" xmlns="http://www.w3.org/2000/svg">
<path fill-rule="evenodd" clip-rule="evenodd" d="M11.0001 4.00006C11.5524 4.0001 12 4.4478 12 5.00003V16.0001H14V7.00008C14 6.44779 14.4477 6.00008 15 6.00008H16.417C18.0486 6.00008 19.578 6.79626 20.5137 8.13289L22.0957 10.3936C22.684 11.234 23 12.235 23 13.2608V15.0001C23 16.6015 21.7453 17.9098 20.1653 17.9956C19.6045 19.1805 18.398 20.0001 17 20.0001C15.6038 20.0001 14.3985 19.1826 13.8368 18.0001H10.1632C9.60145 19.1826 8.3962 20.0001 7 20.0001C5.60204 20.0001 4.39551 19.1805 3.8347 17.9956C2.25472 17.9098 1 16.6015 1 15.0001V8.00008C1 5.79094 2.79086 4.00008 5 4.00008C5.68916 4.00008 6.37832 4.00006 7.06747 4.00004C8.37836 4 9.68925 3.99996 11.0001 4.00006ZM8.5 16.5001C8.5 15.6717 7.82843 15.0001 7 15.0001C6.17157 15.0001 5.5 15.6717 5.5 16.5001C5.5 17.3285 6.17157 18.0001 7 18.0001C7.82843 18.0001 8.5 17.3285 8.5 16.5001ZM18.5 16.5001C18.5 15.6717 17.8284 15.0001 17 15.0001C16.1716 15.0001 15.5 15.6717 15.5 16.5001C15.5 17.3285 16.1716 18.0001 17 18.0001C17.8284 18.0001 18.5 17.3285 18.5 16.5001ZM6.87965 9.10367H8.77179C8.96061 9.10367 9.06745 9.31668 8.95257 9.46409L6.26584 12.9115C6.12349 13.0941 5.82726 12.9723 5.85944 12.7443L6.12034 10.8963H4.22821C4.03939 10.8963 3.93255 10.6833 4.04743 10.5359L6.73417 7.08851C6.87652 6.90586 7.17275 7.02771 7.14057 7.25567L6.87965 9.10367Z" fill="currentColor"/>
</svg>
