<svg width="24" height="24" viewBox="0 0 24 24" fill="none" xmlns="http://www.w3.org/2000/svg">
<path fill-rule="evenodd" clip-rule="evenodd" d="M1 15V8C1 5.79086 2.79086 4 5 4H14.4482C16.0976 4.00018 17.5778 5.01266 18.1758 6.5498L18.8672 8.32812L18.9092 8.42188C19.0188 8.63571 19.2025 8.80444 19.4277 8.89453L21.1143 9.56836C22.2532 10.0239 23 11.1278 23 12.3545V15C23 16.6014 21.7453 17.9097 20.1653 17.9955C19.6045 19.1804 18.398 20 17 20C15.6038 20 14.3985 19.1825 13.8368 18H10.1632C9.60145 19.1825 8.3962 20 7 20C5.60204 20 4.39551 19.1804 3.8347 17.9955C2.25472 17.9097 1 16.6014 1 15ZM8.5 16.5C8.5 15.6716 7.82843 15 7 15C6.17157 15 5.5 15.6716 5.5 16.5C5.5 17.3284 6.17157 18 7 18C7.82843 18 8.5 17.3284 8.5 16.5ZM18.5 16.5C18.5 15.6716 17.8284 15 17 15C16.1716 15 15.5 15.6716 15.5 16.5C15.5 17.3284 16.1716 18 17 18C17.8284 18 18.5 17.3284 18.5 16.5Z" fill="currentColor"/>
</svg>
