<svg width="24" height="24" viewBox="0 0 24 24" fill="none" xmlns="http://www.w3.org/2000/svg">
<path fill-rule="evenodd" clip-rule="evenodd" d="M11.4992 4L6.54058 4C4.58522 4 2.91646 5.41366 2.595 7.34241L1.40094 14.5068C1.12696 16.1506 2.23884 17.6619 3.81307 17.9506C4.3644 19.1596 5.58369 20 6.99927 20C8.39547 20 9.60072 19.1825 10.1625 18H13.8361C14.3978 19.1825 15.6031 20 16.9993 20C18.3972 20 19.6038 19.1804 20.1646 17.9955C21.7445 17.9097 22.9992 16.6014 22.9992 15V12.5414C22.9992 10.586 21.5855 8.91726 19.6568 8.5958L16.954 8.14534C16.7003 8.10306 16.4727 7.96468 16.3184 7.75895L14.6992 5.6C13.9438 4.59278 12.7582 4 11.4992 4ZM6.99927 15C6.17084 15 5.49927 15.6716 5.49927 16.5C5.49927 17.3284 6.17084 18 6.99927 18C7.82769 18 8.49927 17.3284 8.49927 16.5C8.49927 15.6716 7.82769 15 6.99927 15ZM15.4993 16.5C15.4993 15.6716 16.1708 15 16.9993 15C17.8277 15 18.4993 15.6716 18.4993 16.5C18.4993 17.3284 17.8277 18 16.9993 18C16.1708 18 15.4993 17.3284 15.4993 16.5Z" fill="currentColor"/>
</svg>
