<svg width="24" height="24" viewBox="0 0 24 24" fill="none" xmlns="http://www.w3.org/2000/svg">
<path fill-rule="evenodd" clip-rule="evenodd" d="M5.41421 5.17157C6.16436 4.42143 7.18177 4 8.24264 4H12.5C13.759 4 14.9446 4.59278 15.7 5.6L17.1123 7.48305C17.4075 7.8767 17.8375 8.1477 18.3201 8.24421L19.7845 8.53709C21.6542 8.91103 23 10.5527 23 12.4594V15C23 16.6014 21.7453 17.9097 20.1653 17.9955C19.6045 19.1804 18.398 20 17 20C15.6038 20 14.3985 19.1825 13.8368 18H10.1632C9.60145 19.1825 8.3962 20 7 20C5.5768 20 4.352 19.1505 3.80495 17.931C2.20492 17.6086 1 16.195 1 14.5V11.2426C1 10.1818 1.42143 9.16436 2.17157 8.41421L5.41421 5.17157ZM7 15C6.17157 15 5.5 15.6716 5.5 16.5C5.5 17.3284 6.17157 18 7 18C7.82843 18 8.5 17.3284 8.5 16.5C8.5 15.6716 7.82843 15 7 15ZM17 15C16.1716 15 15.5 15.6716 15.5 16.5C15.5 17.3284 16.1716 18 17 18C17.8284 18 18.5 17.3284 18.5 16.5C18.5 15.6716 17.8284 15 17 15Z" fill="currentColor"/>
</svg>
