<svg xmlns="http://www.w3.org/2000/svg" viewBox="0 0 24 24" fill="none">
<path fill-rule="evenodd" clip-rule="evenodd" d="M14 2C14.5523 2 15 2.44772 15 3V4H15.3945C16.7319 4.00003 17.9808 4.66848 18.7227 5.78125L20.8682 9H22C22.5523 9 23 9.44772 23 10C23 10.5523 22.5523 11 22 11H21.8955C21.9646 11.2962 22 11.6009 22 11.9082V18C22 19.1046 21.1046 20 20 20H19C17.8954 20 17 19.1046 17 18H7C7 19.1046 6.10457 20 5 20H4C2.89543 20 2 19.1046 2 18V11.9082C2.00001 11.6009 2.03542 11.2962 2.10449 11H2C1.44772 11 1 10.5523 1 10C1 9.44772 1.44772 9 2 9H3.13184L5.27734 5.78125C6.01919 4.66848 7.26809 4.00003 8.60547 4H9V3C9 2.44772 9.44771 2 10 2H14ZM6 12C5.44772 12 5 12.4477 5 13C5 13.5523 5.44772 14 6 14H7C7.55228 14 8 13.5523 8 13C8 12.4477 7.55228 12 7 12H6ZM17 12C16.4477 12 16 12.4477 16 13C16 13.5523 16.4477 14 17 14H18C18.5523 14 19 13.5523 19 13C19 12.4477 18.5523 12 18 12H17Z" fill="currentColor"/>
</svg>
