<svg width="24" height="24" viewBox="0 0 24 24" fill="none" xmlns="http://www.w3.org/2000/svg">
<path fill-rule="evenodd" clip-rule="evenodd" d="M12 5.00003C12 4.4478 11.5524 4.0001 11.0001 4.00006C9.00009 3.99991 7.00004 4.00008 5 4.00008C2.79086 4.00008 1 5.79094 1 8.00008V15.0001C1 16.6015 2.25472 17.9098 3.8347 17.9956C4.39551 19.1805 5.60204 20.0001 7 20.0001C8.3962 20.0001 9.60145 19.1826 10.1632 18.0001H13.8368C14.3985 19.1826 15.6038 20.0001 17 20.0001C18.398 20.0001 19.6045 19.1805 20.1653 17.9956C21.7453 17.9098 23 16.6015 23 15.0001V13.2608C23 12.235 22.684 11.234 22.0957 10.3936L20.5137 8.13289C19.578 6.79626 18.0486 6.00008 16.417 6.00008H15C14.4477 6.00008 14 6.44779 14 7.00008V16.0001H12V5.00003ZM7 15.0001C7.82843 15.0001 8.5 15.6717 8.5 16.5001C8.5 17.3285 7.82843 18.0001 7 18.0001C6.17157 18.0001 5.5 17.3285 5.5 16.5001C5.5 15.6717 6.17157 15.0001 7 15.0001ZM17 15.0001C17.8284 15.0001 18.5 15.6717 18.5 16.5001C18.5 17.3285 17.8284 18.0001 17 18.0001C16.1716 18.0001 15.5 17.3285 15.5 16.5001C15.5 15.6717 16.1716 15.0001 17 15.0001Z" fill="currentColor"/>
</svg>
