<svg width="24" height="24" viewBox="0 0 24 24" fill="none" xmlns="http://www.w3.org/2000/svg">
<path fill-rule="evenodd" clip-rule="evenodd" d="M8.24264 4C7.18177 4 6.16436 4.42143 5.41421 5.17157L2.17157 8.41421C1.42143 9.16436 1 10.1818 1 11.2426V14.5C1 16.195 2.20492 17.6086 3.80495 17.931C4.352 19.1505 5.5768 20 7 20C8.3962 20 9.60145 19.1825 10.1632 18H13.8368C14.3985 19.1825 15.6038 20 17 20C18.398 20 19.6045 19.1804 20.1653 17.9955C21.7453 17.9097 23 16.6014 23 15V12.4594C23 10.5527 21.6542 8.91103 19.7845 8.53709L18.3201 8.24421C17.8375 8.1477 17.4075 7.8767 17.1123 7.48305L15.7 5.6C14.9446 4.59278 13.759 4 12.5 4H8.24264ZM5.5 16.5C5.5 15.6716 6.17157 15 7 15C7.82843 15 8.5 15.6716 8.5 16.5C8.5 17.3284 7.82843 18 7 18C6.17157 18 5.5 17.3284 5.5 16.5ZM15.5 16.5C15.5 15.6716 16.1716 15 17 15C17.8284 15 18.5 15.6716 18.5 16.5C18.5 17.3284 17.8284 18 17 18C16.1716 18 15.5 17.3284 15.5 16.5ZM11.9167 10H13.9933C14.2006 10 14.3178 10.2376 14.1917 10.4021L11.243 14.2483C11.0868 14.452 10.7617 14.3161 10.797 14.0618L11.0833 12H9.00669C8.79945 12 8.6822 11.7624 8.80828 11.5979L11.757 7.75174C11.9132 7.54796 12.2384 7.68391 12.203 7.93824L11.9167 10Z" fill="currentColor"/>
</svg>
