<svg xmlns="http://www.w3.org/2000/svg" viewBox="0 0 24 24" fill="none">
<path d="M12 7.5C12.5523 7.5 13 7.94772 13 8.5C13 9.05229 12.5523 9.5 12 9.5C11.4477 9.5 11 9.05229 11 8.5C11 7.94772 11.4477 7.5 12 7.5Z" fill="currentColor"/><path fill-rule="evenodd" clip-rule="evenodd" d="M14.2002 2C15.0237 2 15.7016 1.99898 16.252 2.04395C16.814 2.08988 17.3311 2.18827 17.8164 2.43555C18.5689 2.81902 19.181 3.43109 19.5645 4.1836C19.8117 4.6689 19.9101 5.18599 19.9561 5.74805C20.001 6.29843 20 6.97632 20 7.79981V16.2002C20 17.0237 20.001 17.7016 19.9561 18.252C19.9101 18.814 19.8117 19.3311 19.5645 19.8164C19.181 20.5689 18.5689 21.181 17.8164 21.5645C17.3311 21.8117 16.814 21.9101 16.252 21.9561C15.7016 22.001 15.0237 22 14.2002 22H9.79981C8.97632 22 8.29843 22.001 7.74805 21.9561C7.18599 21.9101 6.6689 21.8117 6.1836 21.5645C5.43109 21.181 4.81902 20.5689 4.43555 19.8164C4.18827 19.3311 4.08988 18.814 4.04395 18.252C3.99898 17.7016 4 17.0237 4 16.2002V7.79981C4 6.97632 3.99898 6.29843 4.04395 5.74805C4.08988 5.18599 4.18827 4.6689 4.43555 4.1836C4.81902 3.43109 5.43109 2.81902 6.1836 2.43555C6.6689 2.18827 7.18599 2.08988 7.74805 2.04395C8.29843 1.99898 8.97632 2 9.79981 2H14.2002ZM9 16C8.44772 16 8 16.4477 8 17C8 17.5523 8.44772 18 9 18H15C15.5523 18 16 17.5523 16 17C16 16.4477 15.5523 16 15 16H9ZM9 13C8.44772 13 8 13.4477 8 14C8 14.5523 8.44772 15 9 15H15C15.5523 15 16 14.5523 16 14C16 13.4477 15.5523 13 15 13H9ZM12 5.5C10.3431 5.5 9 6.84315 9 8.5C9 10.1569 10.3431 11.5 12 11.5C13.6569 11.5 15 10.1569 15 8.5C15 6.84315 13.6569 5.5 12 5.5Z" fill="currentColor"/>
</svg>
