<svg width="24" height="24" viewBox="0 0 24 24" fill="none" xmlns="http://www.w3.org/2000/svg">
<path fill-rule="evenodd" clip-rule="evenodd" d="M15.4444 9C14.5556 8.22222 13.3889 7.83333 12.2222 7.83333C11.2222 7.83333 10.2778 8.16667 10.2778 9.05556C10.2778 9.88889 11.1667 10.2222 12.2222 10.6111C12.3333 10.6667 12.4444 10.6667 12.5556 10.7222C14.6667 11.4444 16.4444 12.3333 16.4444 14.3889C16.4444 16.6667 14.6667 18.1667 11.8333 18.3889L11.5556 19.6111C11.5 19.8333 11.3333 20 11.0556 20H9.27778C9.11111 20 9 19.9444 8.88889 19.8333C8.77778 19.7222 8.77778 19.5556 8.77778 19.4444L9.05555 18.1667C8 17.8889 7 17.3333 6.16667 16.5556C6.05556 16.4444 6 16.3333 6 16.2222C6 16.1111 6.05556 15.9444 6.16667 15.8889L7.16667 14.8889C7.33333 14.7222 7.66667 14.7222 7.83333 14.8889C8.72222 15.7778 10 16.2222 11.2222 16.2222C12.5 16.2222 13.3889 15.6667 13.3889 14.7778C13.3889 14 12.6667 13.7222 11.2778 13.2222C11.1111 13.1667 11 13.1111 10.8333 13.0556C9.05556 12.4444 7.38889 11.5 7.38889 9.44444C7.38889 7 9.38889 5.83333 11.8333 5.72222L12.1111 4.5C12.1111 4.11111 12.3333 4 12.5556 4H14.3333C14.5 4 14.6111 4.05556 14.7222 4.16667C14.8333 4.27778 14.8333 4.44444 14.8333 4.55556L14.5556 5.94444C15.4444 6.22222 16.3333 6.72222 17.0556 7.33333C17.1667 7.44444 17.2222 7.55556 17.2222 7.66667C17.2222 7.77778 17.1667 7.94444 17.0556 8L16.1111 8.94444C15.9444 9.16667 15.6111 9.16667 15.4444 9Z" fill="currentColor"/>
</svg>
