<svg xmlns="http://www.w3.org/2000/svg" viewBox="0 0 24 24" fill="none">
<path fill-rule="evenodd" clip-rule="evenodd" d="M12 2C17.5228 2 22 6.47715 22 12C22 17.5228 17.5228 22 12 22C6.47715 22 2 17.5228 2 12C2 6.47715 6.47715 2 12 2ZM17.4893 13.0684C16.9749 12.8675 16.3943 13.1215 16.1934 13.6357C15.737 14.8044 14.8044 15.737 13.6357 16.1934C13.1215 16.3943 12.8675 16.9749 13.0684 17.4893C13.2693 18.0034 13.849 18.2573 14.3633 18.0566C16.0525 17.397 17.397 16.0525 18.0566 14.3633C18.2573 13.849 18.0034 13.2693 17.4893 13.0684ZM12 10C10.8954 10 10 10.8954 10 12C10 13.1046 10.8954 14 12 14C13.1046 14 14 13.1046 14 12C14 10.8954 13.1046 10 12 10ZM10.9316 6.51074C10.7306 5.9965 10.1501 5.74248 9.63574 5.94336C7.94701 6.60298 6.60298 7.94701 5.94336 9.63574C5.74248 10.1501 5.9965 10.7306 6.51074 10.9316C7.02518 11.1326 7.60572 10.8777 7.80664 10.3633C8.26301 9.1951 9.1951 8.26301 10.3633 7.80664C10.8777 7.60572 11.1326 7.02518 10.9316 6.51074Z" fill="currentColor"/>
</svg>
