<svg width="24" height="24" viewBox="0 0 24 24" fill="none" xmlns="http://www.w3.org/2000/svg">
<path d="M5.98969 18.0104L7.3956 16.6045M5.98969 18.0104L4.53108 15.729C3.77239 14.5424 3.94139 12.9877 4.93733 11.9917L5.46366 11.4654C5.91542 11.0136 6.66915 11.0956 7.01329 11.6338L7.80184 12.8672C8.56054 14.0539 8.39154 15.6086 7.3956 16.6045M5.98969 18.0104L8.27119 19.469C9.45786 20.2277 11.0126 20.0587 12.0085 19.0628L12.5348 18.5364C12.9866 18.0847 12.9047 17.3309 12.3664 16.9868L11.133 16.1982C9.94633 15.4396 8.39154 15.6086 7.3956 16.6045M9.17169 14.8285L10.5776 13.4226M9.17169 14.8285L7.71309 12.5471C6.9544 11.3605 7.12339 9.80578 8.11934 8.80983L8.64567 8.2835C9.09742 7.83175 9.85116 7.91368 10.1953 8.45195L10.9839 9.68533C11.7425 10.872 11.5735 12.4267 10.5776 13.4226M9.17169 14.8285L11.4531 16.2871C12.6397 17.0458 14.1944 16.8768 15.1904 15.8809L15.7167 15.3545C16.1685 14.9028 16.0865 14.1491 15.5483 13.8049L14.3149 13.0164C13.1282 12.2577 11.5735 12.4267 10.5776 13.4226M12.3537 11.6467L13.7596 10.2407M12.3537 11.6467L10.8951 9.36525C10.1364 8.17858 10.3054 6.62389 11.3013 5.62795L11.8277 5.10162C12.2794 4.64986 13.0332 4.73179 13.3773 5.27006L14.1659 6.50344C14.9245 7.69011 14.7556 9.2448 13.7596 10.2407M12.3537 11.6467L14.6351 13.1052C15.8218 13.8639 17.3764 13.6949 18.3724 12.699L18.8987 12.1727C19.3505 11.7209 19.2685 10.9672 18.7303 10.623L17.4969 9.83448C16.3102 9.07579 14.7556 9.2448 13.7596 10.2407M6.34324 17.6569L4.22192 19.7782M15.1821 8.81814C14.756 5.47301 16.4332 3.79583 19.7783 4.22194C20.2044 7.56707 18.5273 9.24425 15.1821 8.81814Z" stroke="currentColor" stroke-width="2" stroke-linecap="round" stroke-linejoin="round"/>
</svg>
