<svg width="24" height="24" viewBox="0 0 24 24" fill="none" xmlns="http://www.w3.org/2000/svg">
<path fill-rule="evenodd" clip-rule="evenodd" d="M11.6715 3.91425C13.2336 2.35215 15.7663 2.35215 17.3284 3.91425L20.0858 6.67161C21.6479 8.23371 21.6479 10.7664 20.0858 12.3285L18.7071 13.7071C18.3166 14.0977 17.6834 14.0977 17.2929 13.7071C16.9023 13.3166 16.9023 12.6835 17.2929 12.2929L18.6715 10.9142C19.4526 10.1332 19.4526 8.86687 18.6715 8.08582L15.9142 5.32846C15.1331 4.54741 13.8668 4.54741 13.0858 5.32846L11.7071 6.70714C11.3166 7.09767 10.6834 7.09767 10.2929 6.70714C9.90234 6.31662 9.90234 5.68345 10.2929 5.29293L11.6715 3.91425ZM15.7071 8.29293C16.0976 8.68345 16.0976 9.31662 15.7071 9.70714L9.70708 15.7071C9.31656 16.0977 8.68339 16.0977 8.29287 15.7071C7.90234 15.3166 7.90234 14.6835 8.29287 14.2929L14.2929 8.29293C14.6834 7.9024 15.3166 7.9024 15.7071 8.29293ZM6.70708 10.2929C7.09761 10.6835 7.09761 11.3166 6.70708 11.7071L5.3284 13.0858C4.54735 13.8669 4.54735 15.1332 5.3284 15.9142L8.08576 18.6716C8.86681 19.4527 10.1331 19.4527 10.9142 18.6716L12.2929 17.2929C12.6834 16.9024 13.3166 16.9024 13.7071 17.2929C14.0976 17.6835 14.0976 18.3166 13.7071 18.7071L12.3284 20.0858C10.7663 21.6479 8.23365 21.6479 6.67155 20.0858L3.91419 17.3285C2.35209 15.7664 2.35209 13.2337 3.91419 11.6716L5.29287 10.2929C5.68339 9.9024 6.31656 9.9024 6.70708 10.2929Z" fill="currentColor" style="fill:currentColor;fill-opacity:1;"/>
</svg>
