<svg xmlns="http://www.w3.org/2000/svg" viewBox="0 0 24 24" fill="none">
<path fill-rule="evenodd" clip-rule="evenodd" d="M17 3C19.2091 3 21 4.79086 21 7V17C21 19.2091 19.2091 21 17 21H7C4.79086 21 3 19.2091 3 17V7C3 4.79086 4.79086 3 7 3H17ZM9.5 15C8.94772 15 8.5 15.4477 8.5 16C8.5 16.5523 8.94772 17 9.5 17H14.5C15.0523 17 15.5 16.5523 15.5 16C15.5 15.4477 15.0523 15 14.5 15H9.5ZM12 6.5C11.4477 6.5 11 6.94772 11 7.5V9H9.5C8.94772 9 8.5 9.44772 8.5 10C8.5 10.5523 8.94772 11 9.5 11H11V12.5C11 13.0523 11.4477 13.5 12 13.5C12.5523 13.5 13 13.0523 13 12.5V11H14.5C15.0523 11 15.5 10.5523 15.5 10C15.5 9.44772 15.0523 9 14.5 9H13V7.5C13 6.94772 12.5523 6.5 12 6.5Z" fill="currentColor"/>
</svg>
