<svg xmlns="http://www.w3.org/2000/svg" viewBox="0 0 24 24" fill="none">
<path d="M4 3C4.55228 3 5 3.44772 5 4V17C5 18.1046 5.89543 19 7 19H20C20.5523 19 21 19.4477 21 20C21 20.5523 20.5523 21 20 21H7C4.79086 21 3 19.2091 3 17L3 4C3 3.44772 3.44772 3 4 3Z" fill="currentColor"/><path d="M8 11C8.55228 11 9 11.4477 9 12V17C9 17.5523 8.55228 18 8 18C7.44772 18 7 17.5523 7 17V12C7 11.4477 7.44772 11 8 11Z" fill="currentColor"/><path d="M11 7C11.5523 7 12 7.44772 12 8V17C12 17.5523 11.5523 18 11 18C10.4477 18 10 17.5523 10 17V8C10 7.44772 10.4477 7 11 7Z" fill="currentColor"/><path d="M16 9C16.5523 9 17 9.44772 17 10V17C17 17.5523 16.5523 18 16 18C15.4477 18 15 17.5523 15 17V10C15 9.44772 15.4477 9 16 9Z" fill="currentColor"/><path d="M19 5C19.5523 5 20 5.44772 20 6V17C20 17.5523 19.5523 18 19 18C18.4477 18 18 17.5523 18 17V6C18 5.44772 18.4477 5 19 5Z" fill="currentColor"/>
</svg>
