<svg width="24" height="24" viewBox="0 0 24 24" fill="none" xmlns="http://www.w3.org/2000/svg">
<path d="M18.3398 3.00098C17.2353 3.00098 16.3398 3.89641 16.3398 5.00098V19H14.3399V10.501C14.3399 9.39641 13.4445 8.50098 12.3399 8.50098H11.6699C10.5654 8.50098 9.66992 9.39641 9.66992 10.501V19H7.67V16.001C7.67 14.8964 6.77457 14.001 5.67 14.001H5C3.89543 14.001 3 14.8964 3 16.001V19H2C1.44772 19 1 19.4477 1 20C1 20.5523 1.44772 21 2 21H4.9369C4.95785 21.0006 4.97889 21.001 5 21.001H5.67C5.69111 21.001 5.71215 21.0006 5.7331 21H11.6068C11.6278 21.0006 11.6488 21.001 11.6699 21.001H12.3399C12.361 21.001 12.3821 21.0006 12.403 21H18.2767C18.2977 21.0006 18.3187 21.001 18.3398 21.001H19.0098C19.031 21.001 19.052 21.0006 19.0729 21H22C22.5523 21 23 20.5523 23 20C23 19.4477 22.5523 19 22 19H21.0098V5.00098C21.0098 3.89641 20.1144 3.00098 19.0098 3.00098H18.3398Z" fill="currentColor" style="fill:currentColor;fill-opacity:1;"/>
</svg>
