<svg xmlns="http://www.w3.org/2000/svg" viewBox="0 0 24 24" fill="none">
<path d="M4 3C4.55228 3 5 3.44772 5 4V16C5 17.1046 5.89543 18 7 18H20C20.5523 18 21 18.4477 21 19C21 19.5523 20.5523 20 20 20H7C4.79086 20 3 18.2091 3 16V4C3 3.44772 3.44772 3 4 3Z" fill="currentColor"/><path d="M10 15C10.5523 15 11 15.4477 11 16C11 16.5523 10.5523 17 10 17H7C6.44772 17 6 16.5523 6 16C6 15.4477 6.44772 15 7 15H10Z" fill="currentColor"/><path d="M18 12C18.5523 12 19 12.4477 19 13C19 13.5523 18.5523 14 18 14H7C6.44772 14 6 13.5523 6 13C6 12.4477 6.44772 12 7 12H18Z" fill="currentColor"/><path d="M12 7C12.5523 7 13 7.44772 13 8C13 8.55228 12.5523 9 12 9H7C6.44772 9 6 8.55228 6 8C6 7.44772 6.44772 7 7 7H12Z" fill="currentColor"/><path d="M15 4C15.5523 4 16 4.44772 16 5C16 5.55228 15.5523 6 15 6H7C6.44772 6 6 5.55228 6 5C6 4.44772 6.44772 4 7 4H15Z" fill="currentColor"/>
</svg>
