<svg xmlns="http://www.w3.org/2000/svg" viewBox="0 0 24 24" fill="none">
<path d="M21 18C21.5523 18 22 18.4477 22 19C22 19.5523 21.5523 20 21 20H3C2.44772 20 2 19.5523 2 19C2 18.4477 2.44772 18 3 18H21Z" fill="currentColor"/><path d="M4 11C4.55228 11 5 11.4477 5 12V14C5 14.5523 4.55228 15 4 15C3.44772 15 3 14.5523 3 14V12C3 11.4477 3.44772 11 4 11Z" fill="currentColor"/><path d="M20 4C20.5523 4 21 4.44772 21 5V14C21 14.5523 20.5523 15 20 15C19.4477 15 19 14.5523 19 14V5C19 4.44772 19.4477 4 20 4Z" fill="currentColor"/><path d="M8 6C8.55228 6 9 6.44772 9 7V12C9 12.5523 8.55228 13 8 13C7.44772 13 7 12.5523 7 12V7C7 6.44772 7.44772 6 8 6Z" fill="currentColor"/><path d="M12 9C12.5523 9 13 9.44772 13 10V12C13 12.5523 12.5523 13 12 13C11.4477 13 11 12.5523 11 12V10C11 9.44772 11.4477 9 12 9Z" fill="currentColor"/><path d="M16 5C16.5523 5 17 5.44772 17 6V9C17 9.55228 16.5523 10 16 10C15.4477 10 15 9.55228 15 9V6C15 5.44772 15.4477 5 16 5Z" fill="currentColor"/>
</svg>
