<svg xmlns="http://www.w3.org/2000/svg" viewBox="0 0 24 24" fill="none">
<path d="M4 3C4.55228 3 5 3.44772 5 4V17C5 18.1046 5.89543 19 7 19H20C20.5523 19 21 19.4477 21 20C21 20.5523 20.5523 21 20 21H7C4.79086 21 3 19.2091 3 17V4C3 3.44772 3.44772 3 4 3Z" fill="currentColor"/><path d="M20 11C20.5523 11 21 11.4477 21 12V16C21 16.5523 20.5523 17 20 17C19.4477 17 19 16.5523 19 16V12C19 11.4477 19.4477 11 20 11Z" fill="currentColor"/><path d="M12 9C12.5523 9 13 9.44772 13 10V14C13 14.5523 12.5523 15 12 15C11.4477 15 11 14.5523 11 14V10C11 9.44772 11.4477 9 12 9Z" fill="currentColor"/><path d="M16 8C16.5523 8 17 8.44772 17 9V13C17 13.5523 16.5523 14 16 14C15.4477 14 15 13.5523 15 13V9C15 8.44772 15.4477 8 16 8Z" fill="currentColor"/><path d="M8 5C8.55228 5 9 5.44772 9 6V10C9 10.5523 8.55228 11 8 11C7.44772 11 7 10.5523 7 10V6C7 5.44772 7.44772 5 8 5Z" fill="currentColor"/>
</svg>
