<svg xmlns="http://www.w3.org/2000/svg" viewBox="0 0 24 24" fill="none">
<path d="M15.5 10C18.998 10 22 12.5987 22 16C22 16.7805 21.8384 17.5271 21.5449 18.2109C21.1781 19.0655 21.0489 19.6235 21.2109 20.0586C21.245 20.1501 21.2804 20.2423 21.3174 20.335C21.4441 20.6527 21.4003 21.0136 21.2002 21.291C21 21.5683 20.6715 21.7242 20.3301 21.7041C19.9444 21.6812 19.5663 21.642 19.1953 21.585C18.6345 21.4988 18.0223 21.5653 17.3906 21.7422C16.7907 21.9101 16.1557 22 15.5 22C12.002 22 9 19.4013 9 16C9 12.5987 12.002 10 15.5 10Z" fill="currentColor"/><path d="M10 2C13.9356 2 17.3012 4.69619 17.9033 8.33105C17.1299 8.11459 16.3208 8 15.5 8C11.0811 8 7 11.3191 7 16C7 16.1622 7.00598 16.3226 7.01562 16.4814C6.51937 16.3574 6.02825 16.3277 5.57129 16.4102C5.00704 16.5119 4.43062 16.5803 3.83789 16.6162C3.49755 16.6367 3.17047 16.4817 2.96973 16.2061C2.76895 15.9303 2.72259 15.5716 2.84668 15.2539C2.94736 14.9961 3.04014 14.7411 3.12402 14.4873C3.27218 14.0391 3.14831 13.4617 2.77148 12.7188C2.27724 11.7443 2 10.652 2 9.5C2 5.28937 5.6528 2 10 2Z" fill="currentColor"/>
</svg>
