<svg xmlns="http://www.w3.org/2000/svg" viewBox="0 0 24 24" fill="none">
<path d="M12 2.5C17.4682 2.5 22 6.70021 22 12C22 17.2998 17.4682 21.5 12 21.5C10.7043 21.5 9.46336 21.2653 8.32324 20.8369C7.74375 20.6192 7.14409 20.5558 6.59375 20.668C5.77266 20.8354 4.93193 20.9444 4.06152 20.998C3.72192 21.019 3.39462 20.8661 3.19336 20.5918C2.99212 20.3174 2.94447 19.9592 3.06641 19.6416C3.25009 19.1633 3.41574 18.6898 3.55566 18.2168C3.69314 17.7516 3.56856 17.1658 3.19238 16.5029C2.43256 15.1639 2 13.6295 2 12C2 6.70021 6.53177 2.5 12 2.5Z" fill="currentColor"/>
</svg>
