<svg xmlns="http://www.w3.org/2000/svg" viewBox="0 0 24 24" fill="none">
<path d="M13.3418 19.8877C13.8864 19.7958 14.4023 20.1634 14.4941 20.708C14.5859 21.2525 14.2193 21.7684 13.6748 21.8604C13.1296 21.9523 12.5699 22 12 22C11.4301 22 10.8704 21.9523 10.3252 21.8604C9.78073 21.7684 9.41409 21.2525 9.50586 20.708C9.59775 20.1634 10.1136 19.7958 10.6582 19.8877C11.0939 19.9612 11.542 20 12 20C12.458 20 12.9061 19.9612 13.3418 19.8877Z" fill="currentColor"/><path d="M4.08008 16.3936C4.53023 16.0736 5.15464 16.1788 5.47461 16.6289C5.9959 17.3623 6.63773 18.0041 7.37109 18.5254C7.82125 18.8454 7.92642 19.4698 7.60645 19.9199C7.28647 20.37 6.66206 20.4752 6.21191 20.1553C5.29646 19.5045 4.49551 18.7035 3.84473 17.7881C3.52476 17.3379 3.62995 16.7135 4.08008 16.3936Z" fill="currentColor"/><path d="M18.5254 16.6289C18.8454 16.1788 19.4698 16.0736 19.9199 16.3936C20.37 16.7135 20.4752 17.3379 20.1553 17.7881C19.5045 18.7035 18.7035 19.5045 17.7881 20.1553C17.3379 20.4752 16.7135 20.37 16.3936 19.9199C16.0736 19.4698 16.1788 18.8454 16.6289 18.5254C17.3623 18.0041 18.0041 17.3623 18.5254 16.6289Z" fill="currentColor"/><path d="M14.1709 8.44141C14.4794 7.98355 15.1006 7.8626 15.5586 8.1709C16.0165 8.47937 16.1374 9.10055 15.8291 9.55859L11.4541 16.0586C11.2873 16.3062 11.0188 16.4662 10.7217 16.4951C10.4243 16.5239 10.1293 16.4183 9.91797 16.207L7.29297 13.582C6.90244 13.1915 6.90244 12.5585 7.29297 12.168C7.68349 11.7774 8.31651 11.7774 8.70703 12.168L10.4727 13.9336L14.1709 8.44141Z" fill="currentColor"/><path d="M2.13965 10.3252C2.23158 9.78073 2.74751 9.41409 3.29199 9.50586C3.83658 9.59775 4.20419 10.1136 4.1123 10.6582C4.0388 11.0939 4 11.542 4 12C4 12.458 4.0388 12.9061 4.1123 13.3418C4.20419 13.8864 3.83658 14.4023 3.29199 14.4941C2.74751 14.5859 2.23158 14.2193 2.13965 13.6748C2.04766 13.1296 2 12.5699 2 12C2 11.4301 2.04766 10.8704 2.13965 10.3252Z" fill="currentColor"/><path d="M20.708 9.50586C21.2525 9.41409 21.7684 9.78073 21.8604 10.3252C21.9523 10.8704 22 11.4301 22 12C22 12.5699 21.9523 13.1296 21.8604 13.6748C21.7684 14.2193 21.2525 14.5859 20.708 14.4941C20.1634 14.4023 19.7958 13.8864 19.8877 13.3418C19.9612 12.9061 20 12.458 20 12C20 11.542 19.9612 11.0939 19.8877 10.6582C19.7958 10.1136 20.1634 9.59775 20.708 9.50586Z" fill="currentColor"/><path d="M6.21191 3.84473C6.66206 3.52476 7.28647 3.62995 7.60645 4.08008C7.92642 4.53023 7.82125 5.15464 7.37109 5.47461C6.63773 5.9959 5.9959 6.63773 5.47461 7.37109C5.15464 7.82125 4.53023 7.92642 4.08008 7.60645C3.62995 7.28647 3.52476 6.66206 3.84473 6.21191C4.49551 5.29646 5.29646 4.49551 6.21191 3.84473Z" fill="currentColor"/><path d="M16.3936 4.08008C16.7135 3.62995 17.3379 3.52476 17.7881 3.84473C18.7035 4.49551 19.5045 5.29646 20.1553 6.21191C20.4752 6.66206 20.37 7.28647 19.9199 7.60645C19.4698 7.92642 18.8454 7.82125 18.5254 7.37109C18.0041 6.63773 17.3623 5.9959 16.6289 5.47461C16.1788 5.15464 16.0736 4.53023 16.3936 4.08008Z" fill="currentColor"/><path d="M12 2C12.5699 2 13.1296 2.04766 13.6748 2.13965C14.2193 2.23158 14.5859 2.74751 14.4941 3.29199C14.4023 3.83658 13.8864 4.20419 13.3418 4.1123C12.9061 4.0388 12.458 4 12 4C11.542 4 11.0939 4.0388 10.6582 4.1123C10.1136 4.20419 9.59775 3.83658 9.50586 3.29199C9.41409 2.74751 9.78072 2.23158 10.3252 2.13965C10.8704 2.04766 11.4301 2 12 2Z" fill="currentColor"/>
</svg>
