<svg xmlns="http://www.w3.org/2000/svg" viewBox="0 0 24 24" fill="none">
<path d="M22 17.0003C21.9999 19.2094 20.2091 21.0003 18 21.0003H6C3.9603 21.0003 2.27842 19.4733 2.03223 17.5003H15.25C15.6642 17.5003 15.9999 17.1645 16 16.7503C16 16.3361 15.6642 16.0003 15.25 16.0003H2V12.5003H22V17.0003Z" fill="currentColor"/><path d="M12.71 2.80891C13.754 2.34083 15.0009 2.31797 16.0703 2.96027C19.0363 4.74191 20.8724 7.22252 21.9551 10.7034C21.9853 10.8006 21.999 10.9009 21.999 11.0003H2C2.0003 10.6866 2.14866 10.3834 2.41211 10.1917L6.23438 7.41047C6.91232 8.65538 8.2327 9.50031 9.75 9.50031C11.959 9.50031 13.7498 7.7093 13.75 5.50031C13.75 4.46419 13.3563 3.51941 12.71 2.80891Z" fill="currentColor"/><path d="M9.75 3.00031C11.1307 3.00031 12.25 4.1196 12.25 5.50031C12.2499 6.88095 11.1307 8.00031 9.75 8.00031C8.36934 8.00031 7.25009 6.88095 7.25 5.50031C7.25 4.1196 8.36929 3.00031 9.75 3.00031Z" fill="currentColor"/>
</svg>
