<svg width="24" height="24" viewBox="0 0 24 24" fill="none" xmlns="http://www.w3.org/2000/svg">
<path fill-rule="evenodd" clip-rule="evenodd" d="M12 4C7.58172 4 4 7.58172 4 12C4 16.4183 7.58172 20 12 20C12.5523 20 13 20.4477 13 21C13 21.5523 12.5523 22 12 22C6.47715 22 2 17.5228 2 12C2 6.47715 6.47715 2 12 2C17.5228 2 22 6.47715 22 12C22 15.0376 19.5376 17.5 16.5 17.5C13.4624 17.5 11 15.0376 11 12C11 11.4477 11.4477 11 12 11C12.5523 11 13 11.4477 13 12C13 13.933 14.567 15.5 16.5 15.5C18.433 15.5 20 13.933 20 12C20 7.58172 16.4183 4 12 4Z" fill="currentColor" style="fill:currentColor;fill-opacity:1;"/>
</svg>
