<svg xmlns="http://www.w3.org/2000/svg" viewBox="0 0 24 24" fill="none">
<path fill-rule="evenodd" clip-rule="evenodd" d="M13 2C14.4804 2 15.7722 2.80464 16.4639 4H17C19.2091 4 21 5.79086 21 8V15.0713L20.9473 15.0518L20.4102 13.6553L20.332 13.4727C19.9068 12.5784 19.0019 12 18 12C16.9981 12 16.0932 12.5784 15.668 13.4727L15.5898 13.6553L15.0518 15.0518L13.6553 15.5898C12.658 15.9735 12 16.9315 12 18C12 19.0685 12.658 20.0265 13.6553 20.4102L15.0518 20.9473L15.457 22H7C4.79086 22 3 20.2091 3 18V8C3 5.79086 4.79086 4 7 4H7.53613C8.22781 2.80464 9.51962 2 11 2H13ZM11 4C9.89543 4 9 4.89543 9 6H15C15 4.89543 14.1046 4 13 4H11Z" fill="currentColor"/><path d="M18 14C18.2409 14 18.4574 14.1482 18.5439 14.373L19.2402 16.1855C19.3418 16.4494 19.5506 16.6582 19.8145 16.7598L21.627 17.4561C21.8518 17.5426 22 17.7591 22 18C22 18.2409 21.8518 18.4574 21.627 18.5439L19.8145 19.2402C19.5506 19.3418 19.3418 19.5506 19.2402 19.8145L18.5439 21.627C18.4574 21.8518 18.2409 22 18 22C17.7591 22 17.5426 21.8518 17.4561 21.627L16.7598 19.8145C16.6582 19.5506 16.4494 19.3418 16.1855 19.2402L14.373 18.5439C14.1482 18.4574 14 18.2409 14 18C14 17.8194 14.0832 17.6525 14.2197 17.5439L14.293 17.4951L14.292 17.4941C14.3176 17.4794 14.3449 17.4669 14.373 17.4561L14.8633 17.2666L16.1855 16.7598L16.2812 16.7168C16.4996 16.6053 16.6708 16.4166 16.7598 16.1855L17.4561 14.373C17.5426 14.1482 17.7591 14 18 14Z" fill="currentColor"/>
</svg>
