<svg width="24" height="24" viewBox="0 0 24 24" fill="none" xmlns="http://www.w3.org/2000/svg">
<path d="M12 10V11.9996L13.5 13.5M10.0873 7.38183C12.6382 6.3252 15.5615 7.53683 16.6182 10.0876C17.6748 12.6383 16.4632 15.5615 13.9123 16.6182C11.3615 17.6748 8.43816 16.4632 7.3815 13.9124C6.32566 11.3625 7.53649 8.43846 10.0873 7.38183ZM7 20H17C18.6569 20 20 18.6569 20 17V7C20 5.34315 18.6569 4 17 4H7C5.34315 4 4 5.34315 4 7V17C4 18.6569 5.34315 20 7 20Z" stroke="currentColor" stroke-width="2" stroke-linecap="round" stroke-linejoin="round"/>
</svg>
