<svg width="24" height="24" viewBox="0 0 24 24" fill="none" xmlns="http://www.w3.org/2000/svg">
<path d="M6 4C3.79086 4 2 5.79086 2 8V10.2308C2 12.0489 3.28721 13.5663 5 13.9214V19C5 19.328 5.16083 19.6351 5.43041 19.8219C5.99988 20.2166 6.60622 19.8532 7.11526 19.5669C7.54334 19.3261 8.11266 18.9526 8.68394 18.417C9.83819 17.3349 11 15.5853 11 13V7.99901C11 5.78945 9.20871 4 7 4H6Z" fill="currentColor" style="fill:currentColor;fill-opacity:1;"/>
<path d="M17 4C14.7909 4 13 5.79086 13 8V10.2308C13 12.0489 14.2872 13.5663 16 13.9214V19C16 19.328 16.1608 19.6351 16.4304 19.8219C16.9999 20.2166 17.6062 19.8532 18.1153 19.5669C18.5433 19.3261 19.1127 18.9526 19.6839 18.417C20.8382 17.3349 22 15.5853 22 13V7.99901C22 5.78945 20.2087 4 18 4H17Z" fill="currentColor" style="fill:currentColor;fill-opacity:1;"/>
</svg>
