<svg xmlns="http://www.w3.org/2000/svg" viewBox="0 0 24 24" fill="none">
<path d="M12 2.75C15.6231 2.75 18.6245 5.40774 19.1631 8.87988C21.5028 9.40912 23.25 11.5003 23.25 14C23.25 16.8995 20.8995 19.25 18 19.25C17.3096 19.25 16.75 18.6904 16.75 18C16.75 17.3096 17.3096 16.75 18 16.75C19.5188 16.75 20.75 15.5188 20.75 14C20.75 12.4812 19.5188 11.25 18 11.25C17.3096 11.25 16.75 10.6904 16.75 10C16.75 7.37665 14.6234 5.25 12 5.25C9.92049 5.25 8.15027 6.58713 7.50781 8.45215C7.35397 8.89878 6.96127 9.22091 6.49316 9.28418C4.6625 9.53097 3.25 11.1015 3.25 13C3.25 15.0711 4.92893 16.75 7 16.75H10.9824L10.1162 15.8838C9.62806 15.3956 9.62806 14.6044 10.1162 14.1162C10.6044 13.6281 11.3956 13.6281 11.8838 14.1162L14.8838 17.1162C15.3719 17.6044 15.3719 18.3956 14.8838 18.8838L11.8838 21.8838C11.3956 22.3719 10.6044 22.3719 10.1162 21.8838C9.62806 21.3956 9.62806 20.6044 10.1162 20.1162L10.9824 19.25H7C3.54822 19.25 0.75 16.4518 0.75 13C0.75 10.0933 2.7334 7.6522 5.4209 6.95215C6.57168 4.47219 9.08311 2.75 12 2.75Z" fill="currentColor"/>
</svg>
