<svg xmlns="http://www.w3.org/2000/svg" viewBox="0 0 24 24" fill="none">
<path fill-rule="evenodd" clip-rule="evenodd" d="M12 4C15.5571 4 18.4918 6.65353 18.9385 10.0889C21.2512 10.5281 23 12.5594 23 15C23 17.7614 20.7614 20 18 20H7C3.68629 20 1 17.3137 1 14C1 11.1688 2.96013 8.79692 5.59766 8.16504C6.68528 5.7124 9.14173 4 12 4ZM15 11.7285C14.574 11.7285 14.2285 12.074 14.2285 12.5C14.2285 13.7306 13.2306 14.7283 12 14.7285V14.332C11.9998 13.997 11.6124 13.8106 11.3506 14.0195L9.89062 15.1875C9.69046 15.3476 9.69046 15.6524 9.89062 15.8125L11.3506 16.9805C11.6124 17.1894 11.9998 17.003 12 16.668V16.2715C14.0827 16.2712 15.7715 14.5827 15.7715 12.5C15.7715 12.0741 15.4258 11.7288 15 11.7285ZM12.6494 8.01953C12.3876 7.81064 12.0002 7.99696 12 8.33203V8.72852C9.9171 8.72852 8.22852 10.4171 8.22852 12.5C8.22852 12.926 8.57395 13.2715 9 13.2715C9.42582 13.2712 9.77148 12.9259 9.77148 12.5C9.77148 11.3462 10.6478 10.3974 11.7715 10.2832L12 10.2715V10.668C12.0002 11.003 12.3876 11.1894 12.6494 10.9805L14.1094 9.8125C14.3095 9.65237 14.3095 9.34763 14.1094 9.1875L12.6494 8.01953Z" fill="currentColor"/>
</svg>
