<svg xmlns="http://www.w3.org/2000/svg" viewBox="0 0 24 24" fill="none">
<path fill-rule="evenodd" clip-rule="evenodd" d="M12 2C14.6164 2 16.7874 3.9013 17.21 6.39746C18.8939 6.81147 20.1434 8.33097 20.1436 10.1426C20.1436 12.2728 18.4163 13.9999 16.2861 14H13V15.1455C14.1288 15.4815 15.0185 16.3712 15.3545 17.5H21C21.5523 17.5 22 17.9477 22 18.5C22 19.0523 21.5523 19.5 21 19.5H15.3545C14.9242 20.9457 13.5855 22 12 22C10.4145 22 9.07583 20.9457 8.64551 19.5H3C2.44772 19.5 2 19.0523 2 18.5C2 17.9477 2.44772 17.5 3 17.5H8.64551C8.9815 16.3712 9.87124 15.4815 11 15.1455V14H8.42871C5.90409 13.9999 3.8575 11.9533 3.85742 9.42871C3.85742 7.32039 5.28387 5.54639 7.22461 5.01758C8.07303 3.23431 9.8914 2.00011 12 2ZM12 17C11.1716 17 10.5 17.6716 10.5 18.5C10.5 19.3284 11.1716 20 12 20C12.8284 20 13.5 19.3284 13.5 18.5C13.5 17.6716 12.8284 17 12 17Z" fill="currentColor"/>
</svg>
