<svg xmlns="http://www.w3.org/2000/svg" viewBox="0 0 24 24" fill="none">
<path d="M10 3.5C11.6322 3.5 13.113 4.15348 14.1934 5.20996C14.2619 5.27696 14.3834 5.32338 14.5176 5.30371C14.757 5.26845 15.0018 5.25 15.25 5.25C18.0114 5.25 20.25 7.48858 20.25 10.25C20.25 10.4118 20.3493 10.5832 20.4883 10.6631C21.9869 11.5242 23 13.1429 23 15C23 17.7614 20.7614 20 18 20H7C3.68629 20 1 17.3137 1 14C1 11.8124 2.17103 9.89874 3.91602 8.85156C3.9944 8.80452 4.05028 8.72091 4.06348 8.63086C4.48514 5.7291 6.98091 3.5 10 3.5Z" fill="currentColor"/>
</svg>
