<svg xmlns="http://www.w3.org/2000/svg" viewBox="0 0 24 24" fill="none">
<path d="M13.2405 16.1852L12.5436 14.3733C12.4571 14.1484 12.241 14 12 14C11.759 14 11.5429 14.1484 11.4564 14.3733L10.7595 16.1852C10.658 16.4493 10.4493 16.658 10.1852 16.7595L8.37334 17.4564C8.14842 17.5429 8 17.759 8 18C8 18.241 8.14842 18.4571 8.37334 18.5436L10.1852 19.2405C10.4493 19.342 10.658 19.5507 10.7595 19.8148L11.4564 21.6267C11.5429 21.8516 11.759 22 12 22C12.241 22 12.4571 21.8516 12.5436 21.6267L13.2405 19.8148C13.342 19.5507 13.5507 19.342 13.8148 19.2405L15.6267 18.5436C15.8516 18.4571 16 18.241 16 18C16 17.759 15.8516 17.5429 15.6267 17.4564L13.8148 16.7595C13.5507 16.658 13.342 16.4493 13.2405 16.1852Z" fill="currentColor"/><path d="M9 4C11.9981 4 14.6088 5.64932 15.9785 8.08691C16.3108 8.02987 16.6524 8 17 8C20.3137 8 23 10.6863 23 14C23 17.2964 20.3416 19.9702 17.0518 19.998C17.6406 19.5163 18 18.7887 18 18C18 16.9315 17.342 15.9735 16.3447 15.5898L14.9473 15.0518L14.4102 13.6553L14.332 13.4727C13.9068 12.5784 13.0019 12 12 12C10.9981 12 10.0932 12.5784 9.66797 13.4727L9.58984 13.6553L9.05176 15.0518L7.65527 15.5898C6.65804 15.9735 6 16.9315 6 18C6 18.6056 6.21244 19.1748 6.57715 19.625C3.3435 18.5984 1 15.5735 1 12C1 7.58172 4.58172 4 9 4Z" fill="currentColor"/><path d="M8.37334 17.4564C8.34528 17.4672 8.31851 17.4805 8.29297 17.4951L8.29199 17.4941C8.31762 17.4794 8.34516 17.4673 8.37334 17.4564L8.86328 17.2666L10.1852 16.7595L8.37334 17.4564Z" fill="currentColor"/><path d="M15.1357 17.2666L15.6267 17.4564L13.8148 16.7595L15.1357 17.2666Z" fill="currentColor"/>
</svg>
