<svg xmlns="http://www.w3.org/2000/svg" viewBox="0 0 24 24" fill="none">
<path fill-rule="evenodd" clip-rule="evenodd" d="M5 3C5.55228 3 6 3.44772 6 4V6.5C6 7.60457 6.89543 8.5 8 8.5H13.1455C13.5758 7.05434 14.9145 6 16.5 6C18.433 6 20 7.567 20 9.5C20 11.433 18.433 13 16.5 13C14.9145 13 13.5758 11.9457 13.1455 10.5H8C7.27107 10.5 6.58854 10.3035 6 9.96289V14.5C6 15.6046 6.89543 16.5 8 16.5H13.1455C13.5758 15.0543 14.9145 14 16.5 14C18.433 14 20 15.567 20 17.5C20 19.433 18.433 21 16.5 21C14.9145 21 13.5758 19.9457 13.1455 18.5H8C5.79086 18.5 4 16.7091 4 14.5V4C4 3.44772 4.44772 3 5 3Z" fill="currentColor"/>
</svg>
