<svg width="24" height="24" viewBox="0 0 24 24" fill="none" xmlns="http://www.w3.org/2000/svg">
<path d="M6 14C6 9.38152 9.47883 5.57556 13.959 5.05956C12.6916 3.78734 10.9377 3 9 3C5.13401 3 2 6.13401 2 10C2 12.9266 3.79594 15.4336 6.34582 16.4793C6.1206 15.6917 6 14.8599 6 14Z" fill="currentColor" style="fill:currentColor;fill-opacity:1;"/>
<path fill-rule="evenodd" clip-rule="evenodd" d="M15 21C18.866 21 22 17.866 22 14C22 10.134 18.866 7 15 7C11.134 7 8 10.134 8 14C8 17.866 11.134 21 15 21ZM16 12C16 11.4477 15.5523 11 15 11C14.4477 11 14 11.4477 14 12V13H13C12.4477 13 12 13.4477 12 14C12 14.5523 12.4477 15 13 15H14V16C14 16.5523 14.4477 17 15 17C15.5523 17 16 16.5523 16 16V15H17C17.5523 15 18 14.5523 18 14C18 13.4477 17.5523 13 17 13H16V12Z" fill="currentColor" style="fill:currentColor;fill-opacity:1;"/>
</svg>
