<svg width="24" height="24" viewBox="0 0 24 24" fill="none" xmlns="http://www.w3.org/2000/svg">
<path fill-rule="evenodd" clip-rule="evenodd" d="M12 2C17.5228 2 22 6.47715 22 12C22 17.5228 17.5228 22 12 22C6.47715 22 2 17.5228 2 12C2 6.47715 6.47715 2 12 2ZM14.5 7.34961C14.0029 7.34961 13.5996 7.75294 13.5996 8.25V12.7764L10.249 7.75098C10.029 7.421 9.61883 7.27377 9.23926 7.38867C8.90725 7.4892 8.6673 7.76945 8.6123 8.10352L8.59961 8.25V11.0996H8C7.50294 11.0996 7.09961 11.5029 7.09961 12C7.09961 12.4971 7.50294 12.9004 8 12.9004H8.59961V15.75C8.59961 16.2471 9.00294 16.6504 9.5 16.6504C9.99706 16.6504 10.4004 16.2471 10.4004 15.75V11.2227L13.751 16.249C13.971 16.579 14.3812 16.7262 14.7607 16.6113C15.1403 16.4964 15.4004 16.1466 15.4004 15.75V12.9004H16L16.0918 12.8955C16.5457 12.8495 16.9004 12.4661 16.9004 12C16.9004 11.5339 16.5457 11.1505 16.0918 11.1045L16 11.0996H15.4004V8.25C15.4004 7.75294 14.9971 7.34961 14.5 7.34961Z" fill="currentColor"/>
</svg>
