<svg xmlns="http://www.w3.org/2000/svg" viewBox="0 0 24 24" fill="none">
<path d="M2.10513 13.0535C2.3521 12.5595 2.95298 12.3593 3.44693 12.6062L7.99967 14.8826C8.48348 15.1245 8.87592 15.5169 9.11783 16.0007L11.3942 20.5535C11.6411 21.0474 11.4409 21.6483 10.9469 21.8953C10.453 22.142 9.85209 21.9418 9.60513 21.448L7.32877 16.8953C7.28039 16.7985 7.2019 16.72 7.10513 16.6716L2.5524 14.3953C2.05864 14.1483 1.85842 13.5473 2.10513 13.0535Z" fill="currentColor"/><path d="M17.8376 3.00073C19.7918 2.34943 21.651 4.20854 20.9997 6.16284L17.0934 17.8816C16.3888 19.9941 13.482 20.2006 12.486 18.2087L10.3288 13.8953C10.2804 13.7985 10.2019 13.72 10.1051 13.6716L5.79166 11.5144C3.79985 10.5183 4.00634 7.61157 6.11881 6.90698L17.8376 3.00073Z" fill="currentColor"/>
</svg>
