<svg xmlns="http://www.w3.org/2000/svg" viewBox="0 0 24 24" fill="none">
<path d="M21.8948 13.0535C21.6478 12.5595 21.0469 12.3593 20.553 12.6062L16.0002 14.8826C15.5164 15.1245 15.124 15.5169 14.8821 16.0007L12.6057 20.5535C12.3588 21.0474 12.559 21.6483 13.053 21.8953C13.5469 22.142 14.1478 21.9418 14.3948 21.448L16.6711 16.8953C16.7195 16.7985 16.798 16.72 16.8948 16.6716L21.4475 14.3953C21.9413 14.1483 22.1415 13.5473 21.8948 13.0535Z" fill="currentColor"/><path d="M6.16236 3.00073C4.20807 2.34943 2.34894 4.20854 3.00025 6.16284L6.9065 17.8816C7.61107 19.9941 10.5179 20.2006 11.5139 18.2087L13.6711 13.8953C13.7195 13.7985 13.798 13.72 13.8948 13.6716L18.2083 11.5144C20.2001 10.5183 19.9936 7.61157 17.8811 6.90698L6.16236 3.00073Z" fill="currentColor"/>
</svg>
