<svg width="24" height="24" viewBox="0 0 24 24" fill="none" xmlns="http://www.w3.org/2000/svg">
<path d="M6 6C6 4.34315 7.34315 3 9 3H18C19.6569 3 21 4.34315 21 6V8C21 9.65685 19.6569 11 18 11H9C7.34315 11 6 9.65685 6 8H5V10C5 11.1046 5.89543 12 7 12H13C13.5523 12 14 12.4477 14 13V15.1707C15.1652 15.5825 16 16.6938 16 18V21C16 21.5523 15.5523 22 15 22C14.4477 22 14 21.5523 14 21V18C14 17.4477 13.5523 17 13 17C12.4477 17 12 17.4477 12 18V21C12 21.5523 11.5523 22 11 22C10.4477 22 10 21.5523 10 21V18C10 16.6938 10.8348 15.5825 12 15.1707V14H7C4.79086 14 3 12.2091 3 10V8C3 6.89543 3.89543 6 5 6H6Z" fill="currentColor" style="fill:currentColor;fill-opacity:1;"/>
</svg>
