<svg xmlns="http://www.w3.org/2000/svg" viewBox="0 0 24 24" fill="none">
<path d="M4 3C4.55228 3 5 3.44772 5 4V9.375L6.7959 8.02832C7.72996 7.32777 8.92369 7.07007 10.0635 7.32324L12.1768 7.79297C12.6252 7.89261 13.095 7.83433 13.5059 7.62891L18.5527 5.10547C19.0467 4.85848 19.6475 5.05876 19.8945 5.55273C20.1415 6.04671 19.9412 6.64754 19.4473 6.89453L14.3994 9.41797C13.5778 9.82868 12.6398 9.94438 11.7432 9.74512L9.62988 9.27539C9.05998 9.14879 8.46313 9.27765 7.99609 9.62793L5.09961 11.7998C5.06753 11.8239 5.03385 11.8446 5 11.8643V17C5 18.1046 5.89543 19 7 19H20C20.5523 19 21 19.4477 21 20C21 20.5523 20.5523 21 20 21H7C4.79086 21 3 19.2091 3 17V4C3 3.44772 3.44772 3 4 3Z" fill="currentColor"/><path d="M8 12C8.55228 12 9 12.4477 9 13V17C9 17.5523 8.55228 18 8 18C7.44772 18 7 17.5523 7 17V13C7 12.4477 7.44772 12 8 12Z" fill="currentColor"/><path d="M13 13C13.5523 13 14 13.4477 14 14V17C14 17.5523 13.5523 18 13 18C12.4477 18 12 17.5523 12 17V14C12 13.4477 12.4477 13 13 13Z" fill="currentColor"/><path d="M18 11C18.5523 11 19 11.4477 19 12V17C19 17.5523 18.5523 18 18 18C17.4477 18 17 17.5523 17 17V12C17 11.4477 17.4477 11 18 11Z" fill="currentColor"/>
</svg>
