<svg width="24" height="24" viewBox="0 0 24 24" fill="none" xmlns="http://www.w3.org/2000/svg">
<path d="M13.4141 2.24985C12.633 1.4688 11.3667 1.4688 10.5856 2.24985L8.49985 4.33564C7.7188 5.11669 7.7188 6.38302 8.49985 7.16406L10.5856 9.24985C11.3667 10.0309 12.633 10.0309 13.4141 9.24985L15.4999 7.16406C16.2809 6.38301 16.2809 5.11668 15.4998 4.33564L13.4141 2.24985Z" fill="currentColor" style="fill:currentColor;fill-opacity:1;"/>
<path d="M7.16406 8.49985C6.38301 7.7188 5.11668 7.7188 4.33564 8.49985L2.24985 10.5856C1.4688 11.3667 1.4688 12.633 2.24985 13.4141L4.33564 15.4999C5.11669 16.2809 6.38302 16.2809 7.16406 15.4998L9.24985 13.4141C10.0309 12.633 10.0309 11.3667 9.24985 10.5856L7.16406 8.49985Z" fill="currentColor" style="fill:currentColor;fill-opacity:1;"/>
<path d="M19.6641 8.49985C18.883 7.7188 17.6167 7.7188 16.8356 8.49985L14.7498 10.5856C13.9688 11.3667 13.9688 12.633 14.7498 13.4141L16.8356 15.4999C17.6167 16.2809 18.883 16.2809 19.6641 15.4998L21.7499 13.4141C22.5309 12.633 22.5309 11.3667 21.7498 10.5856L19.6641 8.49985Z" fill="currentColor" style="fill:currentColor;fill-opacity:1;"/>
<path d="M13.4141 14.7498C12.633 13.9688 11.3667 13.9688 10.5856 14.7498L8.49985 16.8356C7.7188 17.6167 7.7188 18.883 8.49985 19.6641L10.5856 21.7499C11.3667 22.5309 12.633 22.5309 13.4141 21.7498L15.4999 19.6641C16.2809 18.883 16.2809 17.6167 15.4998 16.8356L13.4141 14.7498Z" fill="currentColor" style="fill:currentColor;fill-opacity:1;"/>
</svg>
