<svg xmlns="http://www.w3.org/2000/svg" viewBox="0 0 24 24" fill="none">
<path d="M17 4H7C5.34315 4 4 5.34315 4 7V17C4 18.6569 5.34315 20 7 20H17C18.6569 20 20 18.6569 20 17V7C20 5.34315 18.6569 4 17 4Z" stroke="currentColor" stroke-width="2"/><path d="M10.3833 16.15L7.97434 8.92302C7.7789 8.33671 8.3367 7.7789 8.92302 7.97434L16.15 10.3833C16.854 10.618 16.8261 11.6232 16.1102 11.8184L13.1516 12.6253C12.8954 12.6952 12.6952 12.8954 12.6253 13.1516L11.8184 16.1102C11.6232 16.8261 10.618 16.854 10.3833 16.15Z" fill="currentColor"/>
</svg>
