<svg xmlns="http://www.w3.org/2000/svg" viewBox="0 0 24 24" fill="none">
<path fill-rule="evenodd" clip-rule="evenodd" d="M17 3C19.2091 3 21 4.79086 21 7V17C21 19.2091 19.2091 21 17 21H7C4.79086 21 3 19.2091 3 17V7C3 4.79086 4.79086 3 7 3H17ZM8.92285 7.97461C8.33659 7.77925 7.77925 8.33659 7.97461 8.92285L10.3838 16.1504C10.6187 16.8539 11.623 16.826 11.8184 16.1104L12.625 13.1514C12.6949 12.8952 12.8952 12.6949 13.1514 12.625L16.1104 11.8184C16.826 11.623 16.8538 10.6187 16.1504 10.3838L8.92285 7.97461Z" fill="currentColor"/>
</svg>
