<svg width="24" height="24" viewBox="0 0 24 24" fill="none" xmlns="http://www.w3.org/2000/svg">
<path fill-rule="evenodd" clip-rule="evenodd" d="M8.79289 3.29289C9.18342 2.90237 9.81658 2.90237 10.2071 3.29289L12 5.08579L13.7929 3.29289C14.1834 2.90237 14.8166 2.90237 15.2071 3.29289C15.5976 3.68342 15.5976 4.31658 15.2071 4.70711L12.7071 7.20711C12.3166 7.59763 11.6834 7.59763 11.2929 7.20711L8.79289 4.70711C8.40237 4.31658 8.40237 3.68342 8.79289 3.29289ZM3 10C3 9.44772 3.44772 9 4 9H20C20.5523 9 21 9.44772 21 10C21 10.5523 20.5523 11 20 11H4C3.44772 11 3 10.5523 3 10ZM3 14C3 13.4477 3.44772 13 4 13H20C20.5523 13 21 13.4477 21 14C21 14.5523 20.5523 15 20 15H4C3.44772 15 3 14.5523 3 14ZM12 18.9142L10.2071 20.7071C9.81658 21.0976 9.18342 21.0976 8.79289 20.7071C8.40237 20.3166 8.40237 19.6834 8.79289 19.2929L11.2929 16.7929C11.6834 16.4024 12.3166 16.4024 12.7071 16.7929L15.2071 19.2929C15.5976 19.6834 15.5976 20.3166 15.2071 20.7071C14.8166 21.0976 14.1834 21.0976 13.7929 20.7071L12 18.9142Z" fill="currentColor" style="fill:currentColor;fill-opacity:1;"/>
</svg>
