<svg xmlns="http://www.w3.org/2000/svg" viewBox="0 0 24 24" fill="none">
<path d="M16 20V17.4419C16 16.5305 16.4143 15.6686 17.1259 15.0993L20.3412 12.5271C20.7494 12.2005 20.9546 11.6823 20.8807 11.1648C20.7158 10.0107 19.3094 9.45562 18.3335 10.0933C16.6267 11.2086 14.1798 12.5 12 12.5C9.82021 12.5 7.37328 11.2086 5.66654 10.0933C4.69064 9.45562 3.28419 10.0107 3.11932 11.1648C3.04538 11.6823 3.25057 12.2005 3.65884 12.5271L6.87408 15.0993C7.58573 15.6686 8 16.5305 8 17.4419V20" stroke="currentColor" stroke-width="2" stroke-linecap="round"/><circle cx="12" cy="6.5" r="2.5" stroke="currentColor" stroke-width="2" stroke-linecap="round"/><path d="M19.5 9.5L20.5 2.75" stroke="currentColor" stroke-width="1.5" stroke-linecap="round"/>
</svg>
