<svg xmlns="http://www.w3.org/2000/svg" viewBox="0 0 24 24" fill="none">
<path d="M20.6104 2.0072C21.0198 2.06807 21.3026 2.45027 21.2422 2.85974L20.3701 8.73962C21.2388 8.86849 21.9998 9.57706 22 10.5931C22 11.1535 21.745 11.6834 21.3076 12.0336L17.751 14.8793C17.2768 15.2586 17.0003 15.8335 17 16.4408V19.9994C17 20.5517 16.5523 20.9994 16 20.9994H8C7.44772 20.9994 7 20.5517 7 19.9994V16.4408C6.99974 15.8335 6.72323 15.2586 6.24902 14.8793L2.69238 12.0336C2.25497 11.6834 2 11.1535 2 10.5931C2.00032 9.10056 3.64139 8.26789 4.85547 8.96911C5.72631 9.47233 6.93716 10.113 8.23535 10.6254C9.54824 11.1435 10.875 11.4994 12 11.4994C13.125 11.4994 14.4518 11.1435 15.7646 10.6254C16.8955 10.179 17.9587 9.63274 18.79 9.16736L19.7578 2.63904C19.8189 2.22972 20.2009 1.94657 20.6104 2.0072Z" fill="currentColor"/><path d="M12 2.99939C13.9329 2.99939 15.4998 4.56656 15.5 6.49939C15.5 8.43238 13.933 9.99939 12 9.99939C10.067 9.99939 8.5 8.43238 8.5 6.49939C8.50021 4.56656 10.0671 2.99939 12 2.99939Z" fill="currentColor"/>
</svg>
