<svg xmlns="http://www.w3.org/2000/svg" viewBox="0 0 24 24" fill="none">
<path d="M17 3C19.2091 3 21 4.79086 21 7C21 8.86384 19.7252 10.43 18 10.874V14C18 16.2091 16.2091 18 14 18H10.874C10.43 19.7252 8.86384 21 7 21C4.79086 21 3 19.2091 3 17C3 14.7909 4.79086 13 7 13C8.86384 13 10.43 14.2748 10.874 16H14C15.1046 16 16 15.1046 16 14V10.874C14.2748 10.43 13 8.86384 13 7C13 4.79086 14.7909 3 17 3Z" fill="currentColor"/><path d="M7 3C9.20914 3 11 4.79086 11 7C11 9.20914 9.20914 11 7 11C4.79086 11 3 9.20914 3 7C3 4.79086 4.79086 3 7 3Z" fill="currentColor"/>
</svg>
