<svg xmlns="http://www.w3.org/2000/svg" viewBox="0 0 24 24" fill="none">
<path fill-rule="evenodd" clip-rule="evenodd" d="M17 3C19.2091 3 21 4.79086 21 7V15.0713L20.9473 15.0518L20.4102 13.6553L20.332 13.4727C19.9068 12.5784 19.0019 12 18 12C16.9981 12 16.0932 12.5784 15.668 13.4727L15.5898 13.6553L15.0518 15.0518L13.6553 15.5898C12.658 15.9735 12 16.9315 12 18C12 19.0685 12.658 20.0265 13.6553 20.4102L15.0518 20.9473L15.0723 21H7C4.79086 21 3 19.2091 3 17V7C3 4.79086 4.79086 3 7 3H17ZM7.70703 6.29297C7.31651 5.90244 6.68349 5.90244 6.29297 6.29297C5.90244 6.68349 5.90244 7.31651 6.29297 7.70703L7.33594 8.75L6.29297 9.79297C5.90244 10.1835 5.90244 10.8165 6.29297 11.207C6.68349 11.5976 7.31651 11.5976 7.70703 11.207L9.45703 9.45703C9.84756 9.06651 9.84756 8.43349 9.45703 8.04297L7.70703 6.29297ZM11.5 9.5C10.9477 9.5 10.5 9.94772 10.5 10.5C10.5 11.0523 10.9477 11.5 11.5 11.5H13C13.5523 11.5 14 11.0523 14 10.5C14 9.94772 13.5523 9.5 13 9.5H11.5Z" fill="currentColor"/><path d="M14.373 17.4561C14.345 17.4669 14.3185 17.4805 14.293 17.4951L14.292 17.4941C14.3176 17.4794 14.3449 17.4669 14.373 17.4561L14.8633 17.2666L16.1855 16.7598L14.373 17.4561Z" fill="currentColor"/><path d="M19.2405 16.1852L18.5436 14.3733C18.4571 14.1484 18.241 14 18 14C17.759 14 17.5429 14.1484 17.4564 14.3733L16.7595 16.1852C16.658 16.4493 16.4496 16.6582 16.1855 16.7598L14.373 17.4561C14.1481 17.5426 14 17.759 14 18C14 18.241 14.1484 18.4571 14.3733 18.5436L16.1852 19.2405C16.4493 19.342 16.658 19.5507 16.7595 19.8148L17.4564 21.6267C17.5429 21.8516 17.759 22 18 22C18.241 22 18.4571 21.8516 18.5436 21.6267L19.2405 19.8148C19.342 19.5507 19.5507 19.342 19.8148 19.2405L21.6267 18.5436C21.8516 18.4571 22 18.241 22 18C22 17.759 21.8516 17.5429 21.6267 17.4564L19.8148 16.7595C19.5507 16.658 19.342 16.4493 19.2405 16.1852Z" fill="currentColor"/>
</svg>
