<svg xmlns="http://www.w3.org/2000/svg" viewBox="0 0 24 24" fill="none">
<path fill-rule="evenodd" clip-rule="evenodd" d="M3 7C3 4.79086 4.79086 3 7 3H17C19.2091 3 21 4.79086 21 7V17C21 19.2091 19.2091 21 17 21H7C4.79086 21 3 19.2091 3 17V7ZM9.70711 7.29289C9.31658 6.90237 8.68342 6.90237 8.29289 7.29289L6.29289 9.29289C5.90237 9.68342 5.90237 10.3166 6.29289 10.7071C6.68342 11.0976 7.31658 11.0976 7.70711 10.7071L9 9.41421L10.2929 10.7071C10.6834 11.0976 11.3166 11.0976 11.7071 10.7071C12.0976 10.3166 12.0976 9.68342 11.7071 9.29289L9.70711 7.29289Z" fill="currentColor"/>
</svg>
