<svg width="24" height="24" viewBox="0 0 24 24" fill="none" xmlns="http://www.w3.org/2000/svg">
<path fill-rule="evenodd" clip-rule="evenodd" d="M13.9095 4.90876C13.9095 5.65276 13.4835 6.29701 12.8632 6.61276C13.8412 9.23251 14.8657 10.5203 15.7665 10.6208C16.779 10.7348 17.706 10.2683 18.6135 9.11775C18.7133 8.9879 18.8458 8.88694 18.9975 8.82526C18.7552 8.45827 18.6471 8.01888 18.6914 7.58137C18.7356 7.14386 18.9296 6.73505 19.2406 6.42407C19.5515 6.11308 19.9602 5.91899 20.3977 5.8746C20.8352 5.83022 21.2747 5.93825 21.6417 6.18046C22.0087 6.42266 22.2809 6.78417 22.4121 7.20387C22.5434 7.62357 22.5257 8.07573 22.3621 8.48389C22.1984 8.89206 21.8989 9.23121 21.514 9.444C21.1292 9.65679 20.6827 9.73018 20.25 9.65176C20.2515 9.73576 20.2425 9.82426 20.22 9.91651L18.7342 15.9023C18.588 16.4996 18.2458 17.0308 17.7624 17.411C17.279 17.7912 16.6822 17.9986 16.0672 18H7.93275C7.31775 17.9986 6.72095 17.7912 6.23756 17.411C5.75417 17.0308 5.41204 16.4996 5.26575 15.9023L3.78075 9.91651C3.75894 9.83 3.74885 9.74095 3.75075 9.65176C3.31805 9.73018 2.87154 9.65679 2.4867 9.444C2.10187 9.23121 1.80231 8.89206 1.63867 8.48389C1.47503 8.07573 1.45734 7.62357 1.5886 7.20387C1.71986 6.78417 1.99201 6.42266 2.35905 6.18046C2.72609 5.93825 3.1655 5.83022 3.603 5.8746C4.04051 5.91899 4.44927 6.11308 4.76018 6.42407C5.0711 6.73505 5.26509 7.14386 5.30938 7.58137C5.35367 8.01888 5.24553 8.45827 5.00325 8.82526C5.148 8.88226 5.28525 8.98276 5.3985 9.13276C6.2625 10.2765 7.17975 10.7393 8.2335 10.6208C9.17775 10.5158 10.197 9.23176 11.1375 6.61276C10.8348 6.45927 10.5785 6.22785 10.395 5.94235C10.2115 5.65684 10.1075 5.32758 10.0936 4.98848C10.0797 4.64939 10.1565 4.31272 10.316 4.01317C10.4755 3.71361 10.712 3.46201 11.0012 3.28428C11.2903 3.10655 11.6216 3.00912 11.9609 3.00203C12.3002 2.99494 12.6352 3.07845 12.9315 3.24395C13.2278 3.40945 13.4746 3.65095 13.6465 3.94358C13.8184 4.23621 13.9092 4.56937 13.9095 4.90876ZM5.25 20.4375C5.25 19.92 5.67 19.5 6.1875 19.5H17.8125C18.0611 19.5 18.2996 19.5988 18.4754 19.7746C18.6512 19.9504 18.75 20.1889 18.75 20.4375C18.75 20.6861 18.6512 20.9246 18.4754 21.1004C18.2996 21.2762 18.0611 21.375 17.8125 21.375H6.1875C5.67 21.375 5.25 20.955 5.25 20.4375Z" fill="currentColor"/>
</svg>
