<svg width="24" height="24" viewBox="0 0 24 24" fill="none" xmlns="http://www.w3.org/2000/svg">
<path fill-rule="evenodd" clip-rule="evenodd" d="M5.49613 12.8862C5.80749 12.7046 6.19251 12.7046 6.50387 12.8862L9.50387 14.6362C9.81109 14.8154 10 15.1443 10 15.5V19C10 19.3557 9.81109 19.6846 9.50387 19.8638L6.50387 21.6138C6.19251 21.7954 5.80749 21.7954 5.49613 21.6138L2.49613 19.8638C2.18891 19.6846 2 19.3557 2 19V15.5C2 15.1443 2.18891 14.8154 2.49613 14.6362L5.49613 12.8862ZM4 16.0744V18.4256L6 19.5923L8 18.4256V16.0744L6 14.9077L4 16.0744Z" fill="currentColor" style="fill:currentColor;fill-opacity:1;"/>
<path fill-rule="evenodd" clip-rule="evenodd" d="M17 8C19.2091 8 21 9.79086 21 12V17C21 19.2091 19.2091 21 17 21H12V15.5C12 14.433 11.4333 13.4463 10.5116 12.9087L7.51161 11.1587C6.57753 10.6138 5.42247 10.6138 4.48839 11.1587L3 12.0269V6.5C3 4.567 4.567 3 6.5 3H14C15.6569 3 17 4.34315 17 6V8ZM6.5 5C5.67157 5 5 5.67157 5 6.5C5 7.32843 5.67157 8 6.5 8H15V6C15 5.44772 14.5523 5 14 5H6.5ZM15.5 16C16.3284 16 17 15.3284 17 14.5C17 13.6716 16.3284 13 15.5 13C14.6716 13 14 13.6716 14 14.5C14 15.3284 14.6716 16 15.5 16Z" fill="currentColor" style="fill:currentColor;fill-opacity:1;"/>
</svg>
