<svg xmlns="http://www.w3.org/2000/svg" viewBox="0 0 24 24" fill="none">
<path d="M9.0002 3C9.55248 3 10.0002 3.44772 10.0002 4V8.51953L14.6125 6.57812C15.1214 6.36411 15.7078 6.6035 15.9221 7.1123C16.1361 7.62122 15.8968 8.20761 15.3879 8.42188L10.0002 10.6895V12.5195L14.6125 10.5781C15.1214 10.3641 15.7078 10.6035 15.9221 11.1123C16.1361 11.6212 15.8968 12.2076 15.3879 12.4219L10.0002 14.6895V19H13.0002C15.2093 19 17.0002 17.2091 17.0002 15C17.0002 14.4478 17.448 14.0001 18.0002 14C18.5525 14 19.0002 14.4477 19.0002 15C19.0002 18.3137 16.3139 21 13.0002 21H10.0002C8.89575 20.9999 8.0002 20.1045 8.0002 19V15.5322L5.88789 16.4219C5.37903 16.6357 4.79255 16.3965 4.57832 15.8877C4.36439 15.3789 4.60381 14.7925 5.1125 14.5781L8.0002 13.3613V11.5322L5.88789 12.4219C5.37903 12.6357 4.79255 12.3965 4.57832 11.8877C4.36439 11.3789 4.60381 10.7925 5.1125 10.5781L8.0002 9.36133V4C8.0002 3.4478 8.44804 3.00014 9.0002 3Z" fill="currentColor"/>
</svg>
