<svg width="24" height="24" viewBox="0 0 24 24" fill="none" xmlns="http://www.w3.org/2000/svg">
<path fill-rule="evenodd" clip-rule="evenodd" d="M8.9089 4.00009C8.90016 3.99997 8.89139 3.99997 8.88261 4.00009H6C3.79086 4.00009 2 5.79095 2 8.00009V16.0001C2 18.2092 3.79086 20.0001 6 20.0001H8C8.54519 20.0001 8.98991 19.5634 8.99983 19.0183C8.99995 19.0122 9.00005 19.0062 9.00014 19.0001H14.9999C15 19.0062 15.0001 19.0122 15.0002 19.0183C15.0101 19.5634 15.4548 20.0001 16 20.0001H18C20.2091 20.0001 22 18.2092 22 16.0001V8.00009C22 5.79095 20.2091 4.00009 18 4.00009H15.1174C15.1086 3.99997 15.0998 3.99997 15.0911 4.00009H8.9089ZM16.0239 6.00009C15.9129 7.90884 16.1888 9.28648 16.8386 10.3166C17.4317 11.2569 18.4147 12.0298 20 12.6295V8.00009C20 6.89552 19.1046 6.00009 18 6.00009H16.0239ZM20 14.9928V16.0001C20 17.1047 19.1046 18.0001 18 18.0001H17.0794C17.2288 17.1936 17.5788 16.4906 18.0664 15.9713C18.556 15.45 19.2052 15.0889 20 14.9928ZM6.92056 18.0001C6.77118 17.1936 6.42121 16.4906 5.93359 15.9713C5.444 15.45 4.79484 15.0889 4 14.9928V16.0001C4 17.1047 4.89543 18.0001 6 18.0001H6.92056ZM4 12.6295V8.00009C4 6.89552 4.89543 6.00009 6 6.00009H7.97611C8.0871 7.90884 7.81117 9.28648 7.16142 10.3166C6.5683 11.2569 5.58534 12.0298 4 12.6295Z" fill="currentColor" style="fill:currentColor;fill-opacity:1;"/>
</svg>
