<svg width="24" height="24" viewBox="0 0 24 24" fill="none" xmlns="http://www.w3.org/2000/svg">
<path d="M2 12C2 6.47715 6.47715 2 12 2C17.5228 2 22 6.47715 22 12C22 13.0452 21.8396 14.053 21.5422 15H12.618L9.89443 9.55279C9.64744 9.05881 9.04676 8.85858 8.55279 9.10557C8.05881 9.35256 7.85858 9.95324 8.10557 10.4472L10.382 15H2.4578C2.16035 14.053 2 13.0452 2 12Z" fill="currentColor" style="fill:currentColor;fill-opacity:1;"/>
<path d="M3.33782 17C5.06687 19.989 8.29859 22 12 22C15.7014 22 18.9331 19.989 20.6622 17H3.33782Z" fill="currentColor" style="fill:currentColor;fill-opacity:1;"/>
</svg>
