<svg xmlns="http://www.w3.org/2000/svg" viewBox="0 0 24 24" fill="none">
<path fill-rule="evenodd" clip-rule="evenodd" d="M20.4404 3.2487C20.6815 3.03738 21.0126 2.95272 21.33 3.028C21.6924 3.11411 21.9769 3.39436 22.0683 3.75554C22.7023 6.26425 22.6041 8.17011 21.9902 9.72136C21.3825 11.2565 20.3181 12.3151 19.3007 13.2009C17.2286 15.0049 15.4299 16.1369 15.3954 19.1618C16.9928 19.1555 18.6604 18.8406 20.538 17.8639C21.0278 17.6091 21.6316 17.7992 21.8866 18.2887C22.1412 18.7785 21.9513 19.3824 21.4618 19.6374C17.5563 21.6691 14.3509 21.2449 11.4902 20.7682C8.62744 20.2912 6.24631 19.8093 3.43059 21.153C2.93228 21.3907 2.33553 21.1795 2.09758 20.6813C1.85974 20.1829 2.07092 19.5862 2.56926 19.3483C4.71918 18.3223 6.69416 18.1791 8.54289 18.3278C8.39362 17.2743 7.98771 16.5382 7.46379 15.9284C6.7283 15.0725 5.82231 14.4985 4.72942 13.6198C3.69256 12.7861 2.61552 11.7546 2.00481 10.154C1.39538 8.55622 1.30055 6.52787 1.92571 3.77898C2.0093 3.41142 2.29247 3.1224 2.65813 3.03093C3.02393 2.93955 3.41045 3.06122 3.65715 3.34636C5.05457 4.96142 6.37846 5.39079 7.79387 5.71941C9.03631 6.00784 10.5351 6.23203 11.9999 7.23796C13.4649 6.23165 14.9645 6.00792 16.207 5.71941C17.622 5.39081 18.9453 4.96139 20.3427 3.34636L20.4404 3.2487Z" fill="currentColor"/>
</svg>
