<svg width="24" height="24" viewBox="0 0 24 24" fill="none" xmlns="http://www.w3.org/2000/svg">
<path fill-rule="evenodd" clip-rule="evenodd" d="M12 5C12 4.44772 12.4477 4 13 4C14.6168 4 16.0708 4.98437 16.6713 6.48556L17.7235 9.11613C18.1373 9.03986 18.564 9 19 9C19.5523 9 20 9.44772 20 10C20 10.5523 19.5523 11 19 11C17.0188 11 15.3047 12.1522 14.495 13.8276C13.977 14.8996 12.8958 16 11.3905 16H10C10 18.2091 8.20914 20 6 20C3.79086 20 2 18.2091 2 16C2 15.9138 2.01092 15.8301 2.03144 15.7502C1.41634 15.4091 1 14.7532 1 14V12C1 9.79086 2.79086 8 5 8H7C9.20914 8 11 9.79086 11 12V14H11.3905C11.839 14 12.3622 13.6445 12.6943 12.9574C13.3599 11.5802 14.4642 10.4533 15.8266 9.75908L14.8143 7.22834C14.5176 6.48647 13.799 6 13 6C12.4477 6 12 5.55228 12 5ZM8 16H4C4 17.1046 4.89543 18 6 18C7.10457 18 8 17.1046 8 16ZM19 14C17.8954 14 17 14.8954 17 16C17 17.1046 17.8954 18 19 18C20.1046 18 21 17.1046 21 16C21 14.8954 20.1046 14 19 14ZM15 16C15 13.7909 16.7909 12 19 12C21.2091 12 23 13.7909 23 16C23 18.2091 21.2091 20 19 20C16.7909 20 15 18.2091 15 16Z" fill="currentColor"/>
</svg>
