<svg width="24" height="24" viewBox="0 0 24 24" fill="none" xmlns="http://www.w3.org/2000/svg">
<path fill-rule="evenodd" clip-rule="evenodd" d="M4 9C4 7.89543 4.89543 7 6 7H10V17C10 18.1046 10.8954 19 12 19H20C21.1046 19 22 18.1046 22 17V9C22 6.79086 20.2091 5 18 5H6C3.79086 5 2 6.79086 2 9V18C2 18.5523 2.44772 19 3 19C3.55228 19 4 18.5523 4 18V9ZM16 10C16 9.44772 15.5523 9 15 9C14.4477 9 14 9.44772 14 10V11C14 11.5523 14.4477 12 15 12C15.5523 12 16 11.5523 16 11V10Z" fill="currentColor" style="fill:currentColor;fill-opacity:1;"/>
</svg>
