<svg xmlns="http://www.w3.org/2000/svg" viewBox="0 0 24 24" fill="none">
<path d="M15.2791 3C17.5805 3.00009 19.9099 4.30187 20.7068 6.64258C20.8445 7.04688 20.9652 7.46333 21.0584 7.8916C21.4585 9.73131 19.8594 10.9999 18.3426 11H18.0018V15.25C18.0018 15.6642 17.6659 15.9999 17.2518 16C16.8375 16 16.5018 15.6642 16.5018 15.25V11H13.0018V19H16.0018C16.554 19.0001 17.0018 19.4478 17.0018 20C17.0018 20.5522 16.554 20.9999 16.0018 21H8.00176C7.44948 21 7.00176 20.5523 7.00176 20C7.00176 19.4477 7.44948 19 8.00176 19H11.0018V11H5.66094C4.14408 10.9999 2.54508 9.73134 2.94512 7.8916C3.03823 7.4635 3.15917 7.04771 3.29668 6.64355C4.09334 4.30249 6.42294 3 8.72442 3H15.2791Z" fill="currentColor"/>
</svg>
