<svg xmlns="http://www.w3.org/2000/svg" viewBox="0 0 24 24" fill="none">
<path d="M16 12C16 10.8954 16.8954 10 18 10L20 10C21.1046 10 22 10.8954 22 12V18C22 19.1046 21.1046 20 20 20H18C16.8954 20 16 19.1046 16 18V12Z" stroke="currentColor" stroke-width="1.9" stroke-linecap="round" stroke-linejoin="round"/><path d="M12.5 19.5H5C3.34315 19.5 2 18.1569 2 16.5L2 16H12.5" stroke="currentColor" stroke-width="2" stroke-linecap="round" stroke-linejoin="round"/><path d="M20 6.5V6C20 4.89543 19.1046 4 18 4H6C4.89543 4 4 4.89543 4 6V15.75" stroke="currentColor" stroke-width="2" stroke-linecap="round" stroke-linejoin="round"/>
</svg>
