<svg width="24" height="24" viewBox="0 0 24 24" fill="none" xmlns="http://www.w3.org/2000/svg">
<path d="M17 17.5C16.4477 17.5 16 17.9477 16 18.5C16 19.0523 16.4477 19.5 17 19.5H18C18.5523 19.5 19 19.0523 19 18.5C19 17.9477 18.5523 17.5 18 17.5H17Z" fill="currentColor" style="fill:currentColor;fill-opacity:1;"/>
<path fill-rule="evenodd" clip-rule="evenodd" d="M7 3C4.79086 3 3 4.79086 3 7V15H2C1.44772 15 1 15.4477 1 16V17C1 19.2091 2.79086 21 5 21H13.3542C14.0593 21.6224 14.9856 22 16 22H19C21.2091 22 23 20.2091 23 18V12C23 10.5194 22.1956 9.22675 21 8.53513V7C21 4.79086 19.2091 3 17 3H7ZM19 10H16C14.8954 10 14 10.8954 14 12V18C14 19.1046 14.8954 20 16 20H19C20.1046 20 21 19.1046 21 18V12C21 10.8954 20.1046 10 19 10ZM12 17H3C3 18.1046 3.89543 19 5 19H12.126C12.0438 18.6804 12 18.3453 12 18V17Z" fill="currentColor" style="fill:currentColor;fill-opacity:1;"/>
</svg>
