<svg xmlns="http://www.w3.org/2000/svg" viewBox="0 0 24 24" fill="none">
<path d="M20 9C21.6569 9 23 10.3431 23 12V18C23 19.6569 21.6569 21 20 21H18C16.3431 21 15 19.6569 15 18V12C15 10.3431 16.3431 9 18 9H20Z" fill="currentColor"/><path d="M13 18C13 18.9111 13.2452 19.7644 13.6709 20.5H4.5C2.567 20.5 1 18.933 1 17C1 16.4477 1.44772 16 2 16H13V18Z" fill="currentColor"/><path d="M18 3C19.6569 3 21 4.34315 21 6V7.09961C20.6769 7.03403 20.3424 7 20 7H18C15.2386 7 13 9.23858 13 12V14H3V6C3 4.34315 4.34315 3 6 3H18Z" fill="currentColor"/>
</svg>
