<svg width="24" height="24" viewBox="0 0 24 24" fill="none" xmlns="http://www.w3.org/2000/svg">
<path d="M13.0007 3C13.0007 2.44772 12.553 2 12.0007 2C11.4484 2 11.0007 2.44772 11.0007 3V4C11.0007 4.55228 11.4484 5 12.0007 5C12.553 5 13.0007 4.55228 13.0007 4V3Z" fill="currentColor"/>
<path d="M4.34383 3.92888C3.9533 3.53836 3.32014 3.53836 2.92961 3.92888C2.53909 4.3194 2.53909 4.95257 2.92961 5.34309L3.63672 6.0502C4.02724 6.44072 4.66041 6.44072 5.05093 6.0502C5.44146 5.65968 5.44146 5.02651 5.05093 4.63599L4.34383 3.92888Z" fill="currentColor"/>
<path d="M21.0719 5.34309C21.4624 4.95257 21.4624 4.3194 21.0719 3.92888C20.6813 3.53836 20.0482 3.53836 19.6576 3.92888L18.9505 4.63599C18.56 5.02651 18.56 5.65968 18.9505 6.0502C19.3411 6.44072 19.9742 6.44072 20.3647 6.0502L21.0719 5.34309Z" fill="currentColor"/>
<path d="M8.82934 7C8.03369 7 7.27062 7.31607 6.70801 7.87868L3.72807 10.8586C3.39506 11.1916 3.15684 11.5832 3.01318 12H20.9886C20.845 11.5832 20.6068 11.1916 20.2737 10.8586L17.2938 7.87868C16.7312 7.31607 15.9681 7 15.1725 7H8.82934Z" fill="currentColor"/>
<path d="M3.75816 15.1309C3.42056 14.8027 3.17689 14.4146 3.02736 14H20.9745C20.8249 14.4146 20.5813 14.8027 20.2437 15.1309L14.0921 21.1116C12.9278 22.2436 11.074 22.2436 9.90967 21.1116L3.75816 15.1309Z" fill="currentColor"/>
</svg>
