<svg xmlns="http://www.w3.org/2000/svg" viewBox="0 0 24 24" fill="none">
<path fill-rule="evenodd" clip-rule="evenodd" d="M17 3C19.2091 3 21 4.79086 21 7V17C21 19.2091 19.2091 21 17 21H7C4.79086 21 3 19.2091 3 17V7C3 4.79086 4.79086 3 7 3H17ZM15.707 8.29297C15.3165 7.90244 14.6835 7.90244 14.293 8.29297L8.29297 14.293C7.90244 14.6835 7.90244 15.3165 8.29297 15.707C8.68349 16.0976 9.31651 16.0976 9.70703 15.707L15.707 9.70703C16.0976 9.31651 16.0976 8.68349 15.707 8.29297Z" fill="currentColor"/>
</svg>
