<svg width="24" height="24" viewBox="0 0 24 24" fill="none" xmlns="http://www.w3.org/2000/svg">
  <path
    d="M19.6516 5.41692C19.6454 5.40509 19.6351 5.39589 19.6227 5.39098C18.1965 4.73605 16.6913 4.26888 15.1449 4.00115C15.1309 3.99854 15.1164 4.00041 15.1035 4.0065C15.0906 4.01259 15.0799 4.02258 15.0731 4.03507C14.8675 4.40722 14.6819 4.78935 14.5153 5.18046C12.8487 4.92751 11.1534 4.92751 9.48679 5.18046C9.3191 4.78853 9.12991 4.40615 8.92008 4.03507C8.91291 4.02261 8.90206 4.01266 8.88903 4.00659C8.87599 4.00052 8.8614 3.99862 8.84724 4.00115C7.30077 4.26754 5.7962 4.73448 4.36945 5.38998C4.35712 5.39498 4.34665 5.4037 4.33952 5.41493C1.48802 9.67521 0.707798 13.8297 1.09092 17.9324C1.09201 17.9425 1.09513 17.9524 1.1001 17.9613C1.10507 17.9702 1.11179 17.978 1.11986 17.9843C2.78062 19.2139 4.63821 20.1525 6.61334 20.7599C6.62716 20.7641 6.64192 20.764 6.65565 20.7595C6.66938 20.755 6.68142 20.7465 6.69016 20.735C7.11419 20.1573 7.49034 19.5467 7.8136 18.9072C7.818 18.8984 7.82051 18.8888 7.82097 18.879C7.82142 18.8692 7.81981 18.8595 7.81623 18.8503C7.81265 18.8412 7.8072 18.8329 7.80021 18.826C7.79322 18.8192 7.78487 18.8138 7.77569 18.8104C7.18296 18.5834 6.60913 18.3098 6.0596 17.9923C6.04476 17.9833 6.03373 17.9692 6.02858 17.9527C6.02343 17.9361 6.02453 17.9183 6.03166 17.9025C6.03631 17.8919 6.04351 17.8826 6.05261 17.8755C6.16835 17.7897 6.28409 17.6999 6.39384 17.6091C6.40354 17.601 6.41532 17.5958 6.42783 17.594C6.44035 17.5923 6.45311 17.5941 6.46468 17.5992C10.0655 19.2424 13.9626 19.2424 17.5205 17.5992C17.5322 17.5936 17.5453 17.5915 17.5582 17.5931C17.5711 17.5947 17.5832 17.5999 17.5933 17.6081C17.7031 17.6979 17.8188 17.7897 17.9345 17.8755C17.9438 17.8824 17.9511 17.8915 17.956 17.9019C17.9609 17.9124 17.9631 17.9239 17.9625 17.9354C17.962 17.9469 17.9586 17.9582 17.9527 17.9681C17.9468 17.978 17.9385 17.9863 17.9285 17.9923C17.3798 18.3125 16.8061 18.5859 16.2115 18.8104C16.2024 18.8139 16.1941 18.8193 16.1872 18.8263C16.1804 18.8332 16.175 18.8415 16.1715 18.8506C16.168 18.8597 16.1665 18.8695 16.167 18.8792C16.1676 18.8889 16.1701 18.8985 16.1745 18.9072C16.5038 19.5427 16.8789 20.1533 17.297 20.733C17.3054 20.745 17.3173 20.754 17.3311 20.7588C17.3448 20.7637 17.3598 20.7641 17.3738 20.7599C19.3525 20.1545 21.2134 19.2158 22.8763 17.9843C22.8844 17.9785 22.8911 17.9711 22.8961 17.9625C22.9011 17.9539 22.9042 17.9443 22.9052 17.9344C23.3642 13.1902 22.136 9.0696 19.6516 5.41692ZM8.35038 15.4341C7.26685 15.4341 6.37388 14.4394 6.37388 13.2181C6.37388 11.9959 7.24989 11.0012 8.35038 11.0012C9.46085 11.0012 10.3458 12.0049 10.3279 13.2181C10.3279 14.4394 9.45187 15.4341 8.35038 15.4341ZM15.6607 15.4341C14.5772 15.4341 13.6832 14.4394 13.6832 13.2181C13.6832 11.9959 14.5592 11.0012 15.6607 11.0012C16.7712 11.0012 17.6562 12.0049 17.6382 13.2181C17.6382 14.4394 16.7702 15.4341 15.6607 15.4341Z"
    fill="currentColor" />
</svg>
