<svg xmlns="http://www.w3.org/2000/svg" viewBox="0 0 24 24" fill="none">
<path d="M5 17C5.18074 17 5.34234 17.1116 5.40723 17.2803L5.93066 18.6387C6.00684 18.8367 6.16326 18.9932 6.36133 19.0693L7.71973 19.5928C7.88842 19.6577 8 19.8193 8 20C8 20.1807 7.88842 20.3423 7.71973 20.4072L6.36133 20.9307C6.16326 21.0068 6.00684 21.1633 5.93066 21.3613L5.40723 22.7197C5.34234 22.8884 5.18074 23 5 23C4.81926 23 4.65766 22.8884 4.59277 22.7197L4.06934 21.3613C3.99316 21.1633 3.83674 21.0068 3.63867 20.9307L2.28027 20.4072C2.11158 20.3423 2 20.1807 2 20C2 19.8193 2.11158 19.6577 2.28027 19.5928L3.63867 19.0693C3.83674 18.9932 3.99316 18.8367 4.06934 18.6387L4.59277 17.2803C4.65766 17.1116 4.81926 17 5 17Z" fill="currentColor"/><path fill-rule="evenodd" clip-rule="evenodd" d="M12 1C12.5523 1 13 1.44772 13 2V3.24902C13.369 3.4404 13.6815 3.72293 13.9355 4.02734C14.3988 4.58247 14.7712 5.32638 15.0645 6.15723C15.3552 6.98111 15.5861 7.94415 15.7461 9H20.126C20.565 9 20.953 9.28643 21.082 9.70605C21.3538 10.5906 21.5 11.5293 21.5 12.5C21.5 17.7467 17.2467 22 12 22C11.1724 22 10.523 21.5222 10.0645 20.9727C9.60124 20.4175 9.22879 19.6736 8.93555 18.8428C8.6448 18.0189 8.41389 17.0559 8.25391 16H3.87402C3.43497 16 3.04704 15.7136 2.91797 15.2939C2.64618 14.4094 2.5 13.4707 2.5 12.5C2.5 7.59103 6.22332 3.55144 11 3.05176V2C11 1.44772 11.4477 1 12 1ZM15.7461 16C15.5861 17.0559 15.3552 18.0189 15.0645 18.8428C14.9913 19.05 14.9123 19.2514 14.8291 19.4463C16.4655 18.7788 17.8137 17.5511 18.6338 16H15.7461ZM10.0508 11C10.019 11.4841 10 11.9853 10 12.5C10 13.0147 10.019 13.5159 10.0508 14H13.9492C13.981 13.5159 14 13.0147 14 12.5C14 11.9853 13.981 11.4841 13.9492 11H10.0508ZM9.16992 5.55273C7.53371 6.22025 6.18618 7.44908 5.36621 9H8.25391C8.41389 7.94415 8.6448 6.98111 8.93555 6.15723C9.00875 5.94981 9.08667 5.74773 9.16992 5.55273Z" fill="currentColor"/><path d="M19.5 1C19.7109 1 19.8999 1.13034 19.9756 1.32715L20.585 2.91211C20.6738 3.14319 20.8568 3.32616 21.0879 3.41504L22.6729 4.02441C22.8697 4.10011 23 4.28914 23 4.5C23 4.71086 22.8697 4.89989 22.6729 4.97559L21.0879 5.58496C20.8568 5.67384 20.6738 5.85681 20.585 6.08789L19.9756 7.67285C19.8999 7.86966 19.7109 8 19.5 8C19.2891 8 19.1001 7.86966 19.0244 7.67285L18.415 6.08789C18.3262 5.85681 18.1432 5.67384 17.9121 5.58496L16.3271 4.97559C16.1303 4.89989 16 4.71086 16 4.5C16 4.28914 16.1303 4.10011 16.3271 4.02441L17.9121 3.41504C18.1432 3.32616 18.3262 3.14319 18.415 2.91211L19.0244 1.32715C19.1001 1.13034 19.2891 1 19.5 1Z" fill="currentColor"/>
</svg>
