<svg xmlns="http://www.w3.org/2000/svg" viewBox="0 0 24 24" fill="none">
<path d="M12 3C12.5523 3 13 3.44772 13 4V20C13 20.5523 12.5523 21 12 21C11.4477 21 11 20.5523 11 20V4C11 3.44772 11.4477 3 12 3Z" fill="currentColor"/><path d="M15.2002 16.4004C15.5315 15.9586 16.1578 15.869 16.5996 16.2002L20.5996 19.2002C21.0414 19.5315 21.131 20.1578 20.7998 20.5996C20.4685 21.0414 19.8422 21.131 19.4004 20.7998L15.4004 17.7998C14.9586 17.4685 14.869 16.8422 15.2002 16.4004Z" fill="currentColor"/><path d="M8 15C8.55228 15 9 15.4477 9 16C9 16.5523 8.55228 17 8 17H3C2.44772 17 2 16.5523 2 16C2 15.4477 2.44772 15 3 15H8Z" fill="currentColor"/><path d="M8 11C8.55228 11 9 11.4477 9 12C9 12.5523 8.55228 13 8 13H3C2.44772 13 2 12.5523 2 12C2 11.4477 2.44772 11 3 11H8Z" fill="currentColor"/><path d="M21 11C21.5523 11 22 11.4477 22 12C22 12.5523 21.5523 13 21 13H16C15.4477 13 15 12.5523 15 12C15 11.4477 15.4477 11 16 11H21Z" fill="currentColor"/><path d="M8 7C8.55228 7 9 7.44772 9 8C9 8.55228 8.55228 9 8 9H3C2.44772 9 2 8.55228 2 8C2 7.44772 2.44772 7 3 7H8Z" fill="currentColor"/><path d="M19.4004 3.2002C19.8422 2.86896 20.4685 2.95861 20.7998 3.40039C21.131 3.84221 21.0414 4.46847 20.5996 4.7998L16.5996 7.7998C16.1578 8.13104 15.5315 8.04139 15.2002 7.59961C14.869 7.15779 14.9586 6.53153 15.4004 6.2002L19.4004 3.2002Z" fill="currentColor"/>
</svg>
