<svg xmlns="http://www.w3.org/2000/svg" viewBox="0 0 24 24" fill="none">
<path d="M3 12.5293C4.80073 11.3549 6.22283 11.1152 7.44434 11.2617C8.54038 11.3933 9.55169 11.8412 10.6455 12.4121C10.0355 13.5771 9.44896 14.8713 9.27539 16.3184C9.10115 17.7718 9.34514 19.3088 10.2168 21H7C4.79086 21 3 19.2091 3 17V12.5293Z" fill="currentColor"/><path d="M12.4121 13.3535C13.5772 13.9636 14.8711 14.551 16.3184 14.7246C17.7718 14.8989 19.3088 14.6549 21 13.7832V17C21 19.2091 19.2091 21 17 21H12.5293C11.3549 19.1993 11.1152 17.7772 11.2617 16.5557C11.3933 15.4594 11.841 14.4476 12.4121 13.3535Z" fill="currentColor"/><path d="M17 3C19.2091 3 21 4.79086 21 7V11.4697C19.1991 12.6443 17.7773 12.8848 16.5557 12.7383C15.4592 12.6067 14.4478 12.1581 13.3535 11.5869C13.9634 10.422 14.5511 9.12858 14.7246 7.68164C14.8988 6.22819 14.6548 4.69121 13.7832 3H17Z" fill="currentColor"/><path d="M11.4707 3C12.6451 4.80073 12.8848 6.22283 12.7383 7.44434C12.6067 8.54052 12.1579 9.55153 11.5869 10.6455C10.4222 10.0357 9.12842 9.44892 7.68164 9.27539C6.2283 9.10117 4.69106 9.34434 3 10.2158V7C3 4.79086 4.79086 3 7 3H11.4707Z" fill="currentColor"/>
</svg>
