<svg width="24" height="24" viewBox="0 0 24 24" fill="none" xmlns="http://www.w3.org/2000/svg">
<path fill-rule="evenodd" clip-rule="evenodd" d="M7.17086 7.00686C6.96278 8.14075 5.96943 9 4.77539 9C4.28601 9 3.83034 8.85566 3.44863 8.60724C3.1268 8.39779 2.63628 8.46114 2.51446 8.82529C2.18077 9.82275 2 10.8903 2 12C2 17.5228 6.47715 22 12 22C17.5228 22 22 17.5228 22 12C22 6.47715 17.5228 2 12 2C11.3358 2 10.6867 2.06476 10.0587 2.18831C9.67924 2.26296 9.55538 2.74641 9.72991 3.09147C9.90267 3.43303 10 3.81922 10 4.22815C10 5.62093 8.87093 6.75 7.47815 6.75C7.32874 6.75 7.19782 6.8599 7.17086 7.00686ZM15 12C15 13.6569 13.6569 15 12 15C10.3431 15 9 13.6569 9 12C9 10.3431 10.3431 9 12 9C13.6569 9 15 10.3431 15 12ZM7.20711 13.7071C7.59763 13.3166 7.59763 12.6834 7.20711 12.2929C6.81658 11.9024 6.18342 11.9024 5.79289 12.2929L5.29289 12.7929C4.90237 13.1834 4.90237 13.8166 5.29289 14.2071C5.68342 14.5976 6.31658 14.5976 6.70711 14.2071L7.20711 13.7071ZM13.2929 5.29289C13.6834 4.90237 14.3166 4.90237 14.7071 5.29289L15.2071 5.79289C15.5976 6.18342 15.5976 6.81658 15.2071 7.20711C14.8166 7.59763 14.1834 7.59763 13.7929 7.20711L13.2929 6.70711C12.9024 6.31658 12.9024 5.68342 13.2929 5.29289ZM18.4571 10.2929C18.0666 9.90237 17.4334 9.90237 17.0429 10.2929C16.6524 10.6834 16.6524 11.3166 17.0429 11.7071L17.5429 12.2071C17.9334 12.5976 18.5666 12.5976 18.9571 12.2071C19.3476 11.8166 19.3476 11.1834 18.9571 10.7929L18.4571 10.2929ZM16.2071 16.2929C16.5976 16.6834 16.5976 17.3166 16.2071 17.7071L15.7071 18.2071C15.3166 18.5976 14.6834 18.5976 14.2929 18.2071C13.9024 17.8166 13.9024 17.1834 14.2929 16.7929L14.7929 16.2929C15.1834 15.9024 15.8166 15.9024 16.2071 16.2929ZM8.29289 17.7071C7.90237 17.3166 7.90237 16.6834 8.29289 16.2929C8.68342 15.9024 9.31658 15.9024 9.70711 16.2929L10.2071 16.7929C10.5976 17.1834 10.5976 17.8166 10.2071 18.2071C9.81658 18.5976 9.18342 18.5976 8.79289 18.2071L8.29289 17.7071Z" fill="currentColor" style="fill:currentColor;fill-opacity:1;"/>
</svg>
