<svg xmlns="http://www.w3.org/2000/svg" viewBox="0 0 24 24" fill="none">
<path d="M13.1524 7.47008C13.4452 7.00203 14.0621 6.86006 14.5303 7.1527C14.9983 7.44553 15.1403 8.06245 14.8477 8.53063L9.84769 16.5306C9.68618 16.7888 9.41585 16.959 9.11331 16.9935C8.81057 17.028 8.50848 16.9228 8.293 16.7074L5.293 13.7074C4.90249 13.3169 4.90251 12.6839 5.293 12.2933C5.68353 11.9028 6.31654 11.9028 6.70706 12.2933L8.81741 14.4037L13.1524 7.47008Z" fill="currentColor"/><path d="M17.1524 7.47008C17.4452 7.00203 18.0621 6.86006 18.5303 7.1527C18.9983 7.44553 19.1403 8.06245 18.8477 8.53063L13.8477 16.5306C13.5549 16.9986 12.9379 17.1405 12.4698 16.848C12.0017 16.5552 11.8598 15.9383 12.1524 15.4701L17.1524 7.47008Z" fill="currentColor"/>
</svg>
