<svg width="24" height="24" viewBox="0 0 24 24" fill="none" xmlns="http://www.w3.org/2000/svg">
<path fill-rule="evenodd" clip-rule="evenodd" d="M11 7C11 9.20914 9.20914 11 7 11H4C3.44772 11 3 10.5523 3 10C3 9.44772 3.44772 9 4 9H7C8.10457 9 9 8.10457 9 7V4C9 3.44772 9.44772 3 10 3C10.5523 3 11 3.44772 11 4V7Z" fill="currentColor"/>
<path fill-rule="evenodd" clip-rule="evenodd" d="M21 10C21 10.5523 20.5523 11 20 11H17C14.7909 11 13 9.20914 13 7V4C13 3.44772 13.4477 3 14 3C14.5523 3 15 3.44772 15 4V7C15 8.10457 15.8954 9 17 9H20C20.5523 9 21 9.44772 21 10Z" fill="currentColor"/>
<path fill-rule="evenodd" clip-rule="evenodd" d="M14 21C13.4477 21 13 20.5523 13 20V17C13 14.7909 14.7909 13 17 13H20C20.5523 13 21 13.4477 21 14C21 14.5523 20.5523 15 20 15H17C15.8954 15 15 15.8954 15 17V20C15 20.5523 14.5523 21 14 21Z" fill="currentColor"/>
<path fill-rule="evenodd" clip-rule="evenodd" d="M10 21C9.44772 21 9 20.5523 9 20V17C9 15.8954 8.10457 15 7 15H4C3.44772 15 3 14.5523 3 14C3 13.4477 3.44772 13 4 13H7C9.20914 13 11 14.7909 11 17V20C11 20.5523 10.5523 21 10 21Z" fill="currentColor"/>
</svg>
