<svg xmlns="http://www.w3.org/2000/svg" viewBox="0 0 24 24" fill="none">
<path d="M18 14C20.2091 14 22 15.7909 22 18C22 20.2091 20.2091 22 18 22C15.7909 22 14 20.2091 14 18C14 15.7909 15.7909 14 18 14Z" fill="currentColor"/><path d="M6 2C8.20914 2 10 3.79086 10 6C10 7.86384 8.72523 9.42998 7 9.87402V20.5C7 21.0523 6.55228 21.5 6 21.5C5.44772 21.5 5 21.0523 5 20.5V9.87402C3.27477 9.42998 2 7.86384 2 6C2 3.79086 3.79086 2 6 2Z" fill="currentColor"/><path d="M18 9C18.8284 9 19.5 9.67157 19.5 10.5C19.5 11.3284 18.8284 12 18 12C17.1716 12 16.5 11.3284 16.5 10.5C16.5 9.67157 17.1716 9 18 9Z" fill="currentColor"/><path d="M18 3.5C18.8284 3.5 19.5 4.17157 19.5 5C19.5 5.82843 18.8284 6.5 18 6.5C17.1716 6.5 16.5 5.82843 16.5 5C16.5 4.17157 17.1716 3.5 18 3.5Z" fill="currentColor"/>
</svg>
