<svg xmlns="http://www.w3.org/2000/svg" viewBox="0 0 24 24" fill="none">
<path d="M14.2293 3.04879C15.2622 2.87196 16.1643 3.178 16.8748 3.93063C17.5007 4.59373 17.5976 5.4157 17.4315 6.17184C17.2751 6.88322 16.8788 7.60123 16.4168 8.27243C15.4891 9.62037 14.0425 11.1291 12.7215 12.5263C11.3532 13.9736 10.1278 15.2937 9.46468 16.372C9.12786 16.9198 9.02509 17.2692 9.02229 17.455C9.02124 17.526 9.03457 17.5506 9.03987 17.5595C9.04711 17.5717 9.08174 17.6239 9.20589 17.6953L9.32112 17.748C9.6142 17.8506 10.0784 17.7917 10.8826 17.2588C11.7635 16.675 12.716 15.7389 13.7254 14.7304C14.6842 13.7725 15.7258 12.715 16.6746 12.0888C17.149 11.7758 17.7159 11.4898 18.326 11.4472C19.0162 11.3991 19.6415 11.6704 20.1073 12.2343C20.7847 13.0544 20.5806 14.0268 20.3221 14.6836C20.0572 15.3565 19.5929 16.0693 19.2069 16.6689C18.7876 17.3201 18.4417 17.8654 18.2537 18.3379C18.1629 18.5661 18.1339 18.721 18.1317 18.8173C18.1299 18.8963 18.1454 18.9176 18.1532 18.9287C18.1989 18.9939 18.2174 18.9934 18.242 18.997C18.3066 19.0066 18.4548 19 18.7049 18.9052C19.2109 18.7134 19.8147 18.2835 20.3309 17.8193C20.7414 17.4501 21.3737 17.4832 21.743 17.8935C22.1122 18.3041 22.0791 18.9363 21.6688 19.3056C21.0819 19.8334 20.26 20.4544 19.4129 20.7754C18.9865 20.9369 18.4758 21.0527 17.9491 20.9746C17.3825 20.8906 16.8771 20.5928 16.5155 20.0771C15.9205 19.2283 16.1272 18.2726 16.3953 17.5986C16.6697 16.9089 17.137 16.1899 17.5252 15.5869C17.9466 14.9323 18.2847 14.4008 18.4617 13.9511C18.547 13.7345 18.5667 13.6023 18.5662 13.5351C18.5661 13.52 18.5641 13.5107 18.5633 13.5058C18.4939 13.4222 18.4852 13.4408 18.4657 13.4423C18.3656 13.4493 18.1453 13.5143 17.7762 13.7578C17.0376 14.2452 16.1635 15.1224 15.1395 16.1455C14.1661 17.118 13.0673 18.2099 11.9871 18.9257C11.0101 19.5732 9.72205 20.1252 8.46175 19.5586L8.20979 19.4297C7.84747 19.2215 7.53582 18.9429 7.32015 18.5791C7.10258 18.212 7.01656 17.815 7.02229 17.4257C7.03324 16.6906 7.36951 15.9617 7.76155 15.3242C8.55643 14.0316 9.94787 12.549 11.2684 11.1523C12.6363 9.7055 13.9507 8.32807 14.7694 7.13864C15.1805 6.5413 15.4047 6.07756 15.4783 5.74313C15.5419 5.45415 15.4794 5.36586 15.4207 5.30368C15.1684 5.03637 14.9377 4.95685 14.5662 5.02047C14.0963 5.1011 13.4105 5.42144 12.4158 6.13961C10.4394 7.56678 7.69661 10.2169 3.70101 14.1504C3.3074 14.5374 2.67426 14.5321 2.28694 14.1386C1.89972 13.745 1.90517 13.112 2.29866 12.7246C6.24702 8.8376 9.11516 6.0564 11.245 4.51852C12.3031 3.75448 13.2948 3.20889 14.2293 3.04879Z" fill="currentColor"/>
</svg>
