<svg width="24" height="24" viewBox="0 0 24 24" fill="none" xmlns="http://www.w3.org/2000/svg">
  <path
    d="M12 1C5.92433 1 1 5.92525 1 12C1 18.0748 5.92433 23 12 23C18.0757 23 23 18.0748 23 12C23 5.92525 18.0757 1 12 1ZM21.0613 11.4876C18.7008 11.1008 16.5302 11.0797 14.5502 11.4207C14.3271 10.9023 14.0927 10.3888 13.8471 9.88067C15.9646 8.964 17.665 7.71917 18.9328 6.13883C20.2061 7.64222 20.9535 9.52038 21.0613 11.4876ZM17.5394 4.81242C16.4348 6.23692 14.9104 7.3635 12.9689 8.18575C12.0205 6.4517 10.9522 4.78603 9.77158 3.20092C10.4996 3.01297 11.2481 2.91629 12 2.91308C14.0854 2.91308 16.004 3.62717 17.5394 4.81242ZM7.89975 3.90217C9.09796 5.46607 10.1815 7.11457 11.142 8.83475C8.9145 9.49017 6.25525 9.82658 3.18167 9.84767C3.49404 8.57555 4.07726 7.38583 4.89152 6.35975C5.70577 5.33366 6.73187 4.49539 7.89975 3.90217ZM2.91308 12L2.925 11.7653C6.45325 11.7608 9.49658 11.3547 12.0458 10.5535C12.2594 10.9889 12.4638 11.4262 12.66 11.8662C9.56167 12.8351 7.00875 14.8197 5.01775 17.8062C3.65657 16.1777 2.91154 14.1224 2.91308 12ZM6.423 19.1592C8.22792 16.3285 10.5315 14.486 13.3878 13.6344C14.2363 15.8464 14.8637 18.1371 15.2606 20.4728C12.1907 21.6562 8.887 21.0832 6.423 19.1592ZM17.0435 19.5533C16.6419 17.3987 16.053 15.2833 15.2835 13.2311C17.0032 12.9882 18.8952 13.0514 20.9659 13.4107C20.7709 14.6497 20.3218 15.835 19.6468 16.8921C18.9718 17.9491 18.0855 18.8552 17.0435 19.5533Z"
    fill="currentColor" />
</svg>
