<svg width="24" height="24" viewBox="0 0 24 24" fill="none" xmlns="http://www.w3.org/2000/svg">
<path fill-rule="evenodd" clip-rule="evenodd" d="M11.1838 2.29509C11.3329 2.18079 11.6178 2 12 2C12.3822 2 12.6671 2.18079 12.8162 2.29509C12.9831 2.42293 13.1225 2.57781 13.2347 2.722C13.4615 3.0137 13.671 3.38464 13.8479 3.7737C14.1973 4.54234 14.5 5.56192 14.5 6.5C14.5 7.88071 13.3807 9 12 9C10.6193 9 9.5 7.88071 9.5 6.5C9.5 5.56192 9.80275 4.54234 10.1521 3.7737C10.329 3.38464 10.5385 3.0137 10.7653 2.722C10.8775 2.57781 11.0169 2.42293 11.1838 2.29509ZM11.9729 4.6013C11.6973 5.20766 11.5 5.93808 11.5 6.5C11.5 6.77614 11.7239 7 12 7C12.2761 7 12.5 6.77614 12.5 6.5C12.5 5.93808 12.3027 5.20766 12.0271 4.6013C12.0181 4.58138 12.009 4.5618 12 4.54256C11.991 4.5618 11.9819 4.58138 11.9729 4.6013Z" fill="currentColor" style="fill:currentColor;fill-opacity:1;"/>
<path d="M4 21C4 20.4477 4.44772 20 5 20H6.1802L7.69787 12.4117C7.76794 12.0613 7.89736 11.7355 8.0744 11.4438L10.7194 14.75L6.51937 20H9.08062L12 16.3508L14.9194 20H17.4806L13.2806 14.75L15.9256 11.4438C16.1026 11.7355 16.2321 12.0613 16.3021 12.4117L17.8198 20H19C19.5523 20 20 20.4477 20 21C20 21.5523 19.5523 22 19 22H5C4.44772 22 4 21.5523 4 21Z" fill="currentColor" style="fill:currentColor;fill-opacity:1;"/>
<path d="M13.3604 10C13.7155 10 14.0584 10.0623 14.3775 10.1773L12 13.1492L9.62247 10.1773C9.94158 10.0623 10.2845 10 10.6396 10H13.3604Z" fill="currentColor" style="fill:currentColor;fill-opacity:1;"/>
</svg>
