<svg width="24" height="24" viewBox="0 0 24 24" fill="none" xmlns="http://www.w3.org/2000/svg">
<path fill-rule="evenodd" clip-rule="evenodd" d="M5 9.5C5 5.35786 8.35786 2 12.5 2C16.6421 2 20 5.35786 20 9.5V9.60581C20 11.404 19.2857 13.1285 18.0142 14.4001L15.6251 16.7891C15.0931 17.3211 14.6503 17.9354 14.3138 18.6084L13.9193 19.3974C13.1218 20.9924 11.4915 22 9.7082 22C7.10793 22 5 19.8921 5 17.2918V9.5ZM12.5 6C10.567 6 9 7.567 9 9.5C9 10.0821 9.0739 10.585 9.15803 11.03C9.19429 11.2218 9.22823 11.3848 9.25974 11.5361C9.30775 11.7667 9.35015 11.9703 9.38657 12.2076C9.48801 12.8688 9.49703 13.5648 9.07152 14.6286C8.86641 15.1414 9.11583 15.7234 9.62861 15.9285C10.1414 16.1336 10.7234 15.8842 10.9285 15.3714C11.503 13.9352 11.512 12.8726 11.3634 11.9043C11.3207 11.6259 11.2579 11.3212 11.2015 11.0476C11.1725 10.9071 11.1452 10.7747 11.1232 10.6585C11.0511 10.277 11 9.90916 11 9.5C11 8.67157 11.6716 8 12.5 8C13.3284 8 14 8.67157 14 9.5C14 10.0523 14.4477 10.5 15 10.5C15.5523 10.5 16 10.0523 16 9.5C16 7.567 14.433 6 12.5 6Z" fill="currentColor"/>
</svg>
