<svg width="24" height="24" viewBox="0 0 24 24" fill="none" xmlns="http://www.w3.org/2000/svg">
<path d="M11 4.99998C11.5523 4.99998 12 4.55227 12 3.99998C12 3.4477 11.5523 2.99998 11 2.99998V4.99998ZM21 13C21 12.4477 20.5523 12 20 12C19.4477 12 19 12.4477 19 13H21ZM5.63803 19.673L6.09202 18.782H6.09202L5.63803 19.673ZM4.32698 18.362L3.43597 18.8159H3.43597L4.32698 18.362ZM18.362 19.673L17.908 18.782H17.908L18.362 19.673ZM19.673 18.362L18.782 17.908V17.908L19.673 18.362ZM4.32698 5.63801L5.21799 6.092L4.32698 5.63801ZM5.63803 4.32696L6.09202 5.21797L5.63803 4.32696ZM13 7.99998L12.2929 7.29288C12.1054 7.48041 12 7.73477 12 7.99998H13ZM13 11H12C12 11.5523 12.4477 12 13 12V11ZM16 11V12C16.2652 12 16.5196 11.8946 16.7071 11.7071L16 11ZM17.5 3.49998L18.2071 4.20709V4.20709L17.5 3.49998ZM20.5 6.49998L19.7929 5.79287L20.5 6.49998ZM20.5 3.49998L19.7929 4.20709V4.20709L20.5 3.49998ZM15.2 19H8.8V21H15.2V19ZM5 15.2V8.79998H3V15.2H5ZM8.8 4.99998H11V2.99998H8.8V4.99998ZM19 13V15.2H21V13H19ZM8.8 19C7.94342 19 7.36113 18.9992 6.91104 18.9624C6.47262 18.9266 6.24842 18.8617 6.09202 18.782L5.18404 20.564C5.66937 20.8113 6.18608 20.9099 6.74817 20.9558C7.2986 21.0008 7.97642 21 8.8 21V19ZM3 15.2C3 16.0236 2.99922 16.7014 3.04419 17.2518C3.09012 17.8139 3.18868 18.3306 3.43597 18.8159L5.21799 17.908C5.1383 17.7516 5.07337 17.5274 5.03755 17.0889C5.00078 16.6389 5 16.0566 5 15.2H3ZM6.09202 18.782C5.7157 18.5903 5.40973 18.2843 5.21799 17.908L3.43597 18.8159C3.81947 19.5686 4.43139 20.1805 5.18404 20.564L6.09202 18.782ZM15.2 21C16.0236 21 16.7014 21.0008 17.2518 20.9558C17.8139 20.9099 18.3306 20.8113 18.816 20.564L17.908 18.782C17.7516 18.8617 17.5274 18.9266 17.089 18.9624C16.6389 18.9992 16.0566 19 15.2 19V21ZM19 15.2C19 16.0566 18.9992 16.6389 18.9624 17.0889C18.9266 17.5274 18.8617 17.7516 18.782 17.908L20.564 18.8159C20.8113 18.3306 20.9099 17.8139 20.9558 17.2518C21.0008 16.7014 21 16.0236 21 15.2H19ZM18.816 20.564C19.5686 20.1805 20.1805 19.5686 20.564 18.8159L18.782 17.908C18.5903 18.2843 18.2843 18.5903 17.908 18.782L18.816 20.564ZM5 8.79998C5 7.9434 5.00078 7.36111 5.03755 6.91102C5.07337 6.4726 5.1383 6.2484 5.21799 6.092L3.43597 5.18402C3.18868 5.66936 3.09012 6.18606 3.04419 6.74816C2.99922 7.29858 3 7.9764 3 8.79998H5ZM8.8 2.99998C7.97642 2.99998 7.2986 2.9992 6.74817 3.04418C6.18608 3.0901 5.66937 3.18867 5.18404 3.43596L6.09202 5.21797C6.24842 5.13828 6.47262 5.07335 6.91104 5.03753C7.36113 5.00076 7.94342 4.99998 8.8 4.99998V2.99998ZM5.21799 6.092C5.40973 5.71568 5.71569 5.40972 6.09202 5.21797L5.18404 3.43596C4.43139 3.81945 3.81947 4.43137 3.43597 5.18402L5.21799 6.092ZM12 7.99998V11H14V7.99998H12ZM13 12H16V9.99998H13V12ZM13.7071 8.70709L18.2071 4.20709L16.7929 2.79288L12.2929 7.29288L13.7071 8.70709ZM19.7929 5.79287L15.2929 10.2929L16.7071 11.7071L21.2071 7.20709L19.7929 5.79287ZM19.7929 4.20709C20.2308 4.64499 20.2308 5.35497 19.7929 5.79287L21.2071 7.20709C22.4261 5.98814 22.4261 4.01183 21.2071 2.79288L19.7929 4.20709ZM18.2071 4.20709C18.645 3.76919 19.355 3.76919 19.7929 4.20709L21.2071 2.79288C19.9882 1.57392 18.0118 1.57392 16.7929 2.79288L18.2071 4.20709Z" fill="currentColor"/>
</svg>
