<svg width="24" height="24" viewBox="0 0 24 24" fill="none" xmlns="http://www.w3.org/2000/svg">
<path fill-rule="evenodd" clip-rule="evenodd" d="M8.7587 3L11 3C11.5523 3 12 3.44772 12 4C12 4.55228 11.5523 5 11 5H8.8C7.94342 5 7.36113 5.00078 6.91104 5.03755C6.47262 5.07337 6.24842 5.1383 6.09202 5.21799C5.7157 5.40973 5.40973 5.71569 5.21799 6.09202C5.1383 6.24842 5.07337 6.47262 5.03755 6.91104C5.00078 7.36113 5 7.94342 5 8.8V15.2C5 16.0566 5.00078 16.6389 5.03755 17.089C5.07337 17.5274 5.1383 17.7516 5.21799 17.908C5.40973 18.2843 5.7157 18.5903 6.09202 18.782C6.24842 18.8617 6.47262 18.9266 6.91104 18.9624C7.36113 18.9992 7.94342 19 8.8 19H15.2C16.0566 19 16.6389 18.9992 17.089 18.9624C17.5274 18.9266 17.7516 18.8617 17.908 18.782C18.2843 18.5903 18.5903 18.2843 18.782 17.908C18.8617 17.7516 18.9266 17.5274 18.9624 17.089C18.9992 16.6389 19 16.0566 19 15.2V13C19 12.4477 19.4477 12 20 12C20.5523 12 21 12.4477 21 13V15.2413C21 16.0463 21 16.7106 20.9558 17.2518C20.9099 17.8139 20.8113 18.3306 20.564 18.816C20.1805 19.5686 19.5686 20.1805 18.816 20.564C18.3306 20.8113 17.8139 20.9099 17.2518 20.9558C16.7106 21 16.0463 21 15.2413 21H8.75868C7.95372 21 7.28936 21 6.74817 20.9558C6.18608 20.9099 5.66937 20.8113 5.18404 20.564C4.43139 20.1805 3.81947 19.5686 3.43597 18.816C3.18868 18.3306 3.09012 17.8139 3.04419 17.2518C2.99998 16.7106 2.99999 16.0463 3 15.2413V8.7587C2.99999 7.95373 2.99998 7.28937 3.04419 6.74817C3.09012 6.18608 3.18868 5.66937 3.43597 5.18404C3.81947 4.43139 4.43139 3.81947 5.18404 3.43597C5.66937 3.18868 6.18608 3.09012 6.74817 3.04419C7.28937 2.99998 7.95373 2.99999 8.7587 3Z" fill="currentColor" style="fill:currentColor;fill-opacity:1;"/>
<path d="M20.9571 3.04312C19.7382 1.82417 17.7618 1.82417 16.5429 3.04312L8.58579 11.0002C8.21071 11.3753 8 11.884 8 12.4144V15.0002C8 15.5525 8.44772 16.0002 9 16.0002H11.5858C12.1162 16.0002 12.6249 15.7895 13 15.4144L20.9571 7.45733C22.1761 6.23838 22.1761 4.26207 20.9571 3.04312Z" fill="currentColor" style="fill:currentColor;fill-opacity:1;"/>
</svg>
