<svg xmlns="http://www.w3.org/2000/svg" viewBox="0 0 24 24" fill="none">
<path d="M21 14.0006C21.5523 14.0006 22 14.4484 22 15.0006C21.9998 15.5528 21.5522 16.0006 21 16.0006H20.9268C20.53 16.9823 20.5337 18.0145 20.9268 19.0006H21C21.5523 19.0006 22 19.4484 22 20.0006C21.9998 20.5528 21.5522 21.0006 21 21.0006H5.5C3.56712 21.0006 2.00018 19.4335 2 17.5006C2 15.5676 3.567 14.0006 5.5 14.0006H21Z" fill="currentColor"/><path d="M12.501 2.05142C12.9145 1.77589 13.4734 1.88792 13.749 2.30142C14.0072 2.68916 13.9253 3.20483 13.5732 3.49478L13.4248 3.60415C13.2629 3.73579 13.1377 3.92157 13.0469 4.14126C20.3488 2.50727 18.4842 15.8469 11.999 12.8542C5.45422 15.8747 3.61701 2.25318 11.1621 4.19204C11.204 3.97455 11.269 3.73902 11.3633 3.50161C11.5587 3.00952 11.9058 2.44826 12.501 2.05142Z" fill="currentColor"/>
</svg>
