<svg xmlns="http://www.w3.org/2000/svg" viewBox="0 0 24 24" fill="none">
<path d="M3.22168 17.5791C4.05613 14.0983 7.20175 11.8916 10.7432 12.9092C11.595 13.1539 12.4901 13.1841 13.2998 12.9658C15.0391 12.4969 16.7232 12.6925 18.0908 13.5352C19.4573 14.3771 20.4042 15.8011 20.7959 17.5928C21.1658 19.285 19.7095 20.5007 18.2939 20.501H18.1992C17.4594 20.5009 16.7578 20.1719 16.2842 19.6035L16.2441 19.5557C16.1137 19.3996 15.8904 19.3598 15.7139 19.4609C14.9593 19.8936 14.0305 19.8872 13.2812 19.4453L12.751 19.1328C12.2877 18.8595 11.7123 18.8595 11.249 19.1328L10.7188 19.4453C9.96954 19.8872 9.04075 19.8936 8.28613 19.4609C8.10964 19.3598 7.88627 19.3996 7.75586 19.5557L7.71582 19.6035C7.24218 20.1719 6.54063 20.5009 5.80078 20.501H5.70215C4.29916 20.5008 2.81171 19.2895 3.22168 17.5791Z" fill="currentColor"/><path fill-rule="evenodd" clip-rule="evenodd" d="M17 3C19.2091 3 21 4.79086 21 7C21 9.20914 19.2091 11 17 11C15.0175 11 13.3724 9.5576 13.0557 7.66504C12.375 7.40906 11.624 7.40884 10.9434 7.66504C10.6265 9.55752 8.98247 11 7 11C4.79086 11 3 9.20914 3 7C3 4.79086 4.79086 3 7 3C8.7278 3 10.1994 4.0956 10.7588 5.62988C11.5727 5.42131 12.4263 5.42147 13.2402 5.62988C13.7995 4.09544 15.2721 3 17 3ZM7 5C5.89543 5 5 5.89543 5 7C5 8.10457 5.89543 9 7 9C8.10457 9 9 8.10457 9 7C9 5.89543 8.10457 5 7 5ZM17 5C15.8954 5 15 5.89543 15 7C15 8.10457 15.8954 9 17 9C18.1046 9 19 8.10457 19 7C19 5.89543 18.1046 5 17 5Z" fill="currentColor"/>
</svg>
