<svg xmlns="http://www.w3.org/2000/svg" viewBox="0 0 24 24" fill="none">
<path d="M21 12C21 13.1046 20.1046 14 19 14C17.8954 14 17 13.1046 17 12C17 10.8954 17.8954 10 19 10C20.1046 10 21 10.8954 21 12Z" stroke="currentColor" stroke-width="2"/><path d="M7 12C7 13.1046 6.10457 14 5 14C3.89543 14 3 13.1046 3 12C3 10.8954 3.89543 10 5 10C6.10457 10 7 10.8954 7 12Z" stroke="currentColor" stroke-width="2"/><path d="M14.5003 16.3308C15.4569 15.7785 16.6801 16.1062 17.2324 17.0628C17.7847 18.0194 17.4569 19.2426 16.5003 19.7949C15.5437 20.3472 14.3206 20.0194 13.7683 19.0628C13.216 18.1062 13.5437 16.8831 14.5003 16.3308Z" stroke="currentColor" stroke-width="2"/><path d="M7.50033 4.20578C8.45692 3.6535 9.6801 3.98125 10.2324 4.93783C10.7847 5.89442 10.4569 7.1176 9.50033 7.66988C8.54375 8.22217 7.32057 7.89442 6.76828 6.93783C6.216 5.98125 6.54375 4.75807 7.50033 4.20578Z" stroke="currentColor" stroke-width="2"/><path d="M7.50033 19.7949C6.54375 19.2426 6.216 18.0194 6.76828 17.0628C7.32057 16.1062 8.54375 15.7785 9.50033 16.3308C10.4569 16.8831 10.7847 18.1062 10.2324 19.0628C9.6801 20.0194 8.45692 20.3472 7.50033 19.7949Z" stroke="currentColor" stroke-width="2"/><path d="M14.5003 7.66988C13.5437 7.1176 13.216 5.89442 13.7683 4.93783C14.3206 3.98125 15.5437 3.6535 16.5003 4.20578C17.4569 4.75807 17.7847 5.98125 17.2324 6.93783C16.6801 7.89442 15.4569 8.22217 14.5003 7.66988Z" stroke="currentColor" stroke-width="2"/>
</svg>
