<svg width="24" height="24" viewBox="0 0 24 24" fill="none" xmlns="http://www.w3.org/2000/svg">
<path d="M2.33467 6.40397C2.16038 6.82496 2.08325 7.27015 2.0442 7.74818C1.99998 8.28936 1.99999 8.95371 2 9.75866V14.2413C1.99999 15.0462 1.99998 15.7106 2.0442 16.2518C2.09012 16.8139 2.18868 17.3306 2.43598 17.816C2.81947 18.5686 3.43139 19.1805 4.18404 19.564C4.66938 19.8113 5.18608 19.9099 5.74818 19.9558C6.28936 20 6.95371 20 7.75866 20H13.8027C13.2922 19.1175 13 18.0929 13 17C13 13.6863 15.6863 11 19 11C20.0929 11 21.1175 11.2922 22 11.8027V9.75868C22 8.95372 22 8.28937 21.9558 7.74818C21.9167 7.27015 21.8396 6.82496 21.6653 6.40397L14.0478 10.9437C12.7861 11.6956 11.2139 11.6956 9.95224 10.9437L2.33467 6.40397Z" fill="currentColor" style="fill:currentColor;fill-opacity:1;"/>
<path d="M20.4221 4.81667C20.2328 4.67263 20.0301 4.54506 19.816 4.43598C19.3306 4.18868 18.8139 4.09012 18.2518 4.0442C17.7106 3.99998 17.0463 3.99999 16.2413 4H7.7587C6.95375 3.99999 6.28936 3.99998 5.74818 4.0442C5.18608 4.09012 4.66938 4.18868 4.18404 4.43598C3.96994 4.54506 3.76723 4.67263 3.57793 4.81667L10.9761 9.22569C11.6069 9.60164 12.3931 9.60164 13.0239 9.22569L20.4221 4.81667Z" fill="currentColor" style="fill:currentColor;fill-opacity:1;"/>
<path fill-rule="evenodd" clip-rule="evenodd" d="M20.0001 13.75C20.0001 13.1977 19.5523 12.75 19.0001 12.75C18.4478 12.75 18.0001 13.1977 18.0001 13.75V14.1708C17.6488 14.295 17.3278 14.4827 17.0507 14.7198L16.6855 14.509C16.2072 14.2328 15.5956 14.3967 15.3195 14.875C15.0433 15.3533 15.2072 15.9649 15.6855 16.241L16.0502 16.4516C16.0173 16.6297 16.0001 16.813 16.0001 17C16.0001 17.187 16.0173 17.3703 16.0502 17.5484L15.6855 17.759C15.2072 18.0351 15.0433 18.6467 15.3194 19.125C15.5956 19.6033 16.2072 19.7672 16.6855 19.491L17.0507 19.2802C17.3278 19.5173 17.6488 19.705 18 19.8292L18 20.25C18 20.8023 18.4477 21.25 19 21.25C19.5523 21.25 20 20.8023 20 20.25L20 19.8292C20.3513 19.705 20.6723 19.5173 20.9494 19.2802L21.3146 19.491C21.7929 19.7672 22.4045 19.6033 22.6807 19.125C22.9568 18.6467 22.7929 18.0351 22.3146 17.759L21.9499 17.5484C21.9828 17.3703 22.0001 17.187 22.0001 17C22.0001 16.813 21.9828 16.6297 21.9499 16.4516L22.3146 16.241C22.7929 15.9649 22.9568 15.3533 22.6807 14.875C22.4045 14.3967 21.7929 14.2328 21.3146 14.509L20.9495 14.7198C20.6724 14.4827 20.3513 14.295 20.0001 14.1708V13.75ZM18.1333 16.5007C18.3077 16.1992 18.6312 16 19.0001 16C19.3689 16 19.6924 16.1992 19.8668 16.5006C19.9514 16.6467 20.0001 16.8162 20.0001 17C20.0001 17.1838 19.9514 17.3533 19.8668 17.4994C19.6924 17.8008 19.3689 18 19.0001 18C18.6312 18 18.3077 17.8008 18.1333 17.4994C18.0488 17.3533 18.0001 17.1838 18.0001 17C18.0001 16.8162 18.0487 16.6467 18.1333 16.5007Z" fill="currentColor" style="fill:currentColor;fill-opacity:1;"/>
</svg>
