<svg width="24" height="24" viewBox="0 0 24 24" fill="none" xmlns="http://www.w3.org/2000/svg">
<path d="M2.0442 7.74818C2.08325 7.27015 2.16038 6.82496 2.33467 6.40397L9.95224 10.9437C11.2139 11.6956 12.7861 11.6956 14.0478 10.9437L21.6653 6.40397C21.8396 6.82496 21.9167 7.27015 21.9558 7.74818C22 8.28937 22 8.95372 22 9.75868V14C22 12.3431 20.6569 11 19 11C17.3431 11 16 12.3431 16 14C14.3431 14 13 15.3431 13 17C13 18.6555 14.3409 19.9977 15.9958 20H7.75866C6.95371 20 6.28936 20 5.74818 19.9558C5.18608 19.9099 4.66938 19.8113 4.18404 19.564C3.43139 19.1805 2.81947 18.5686 2.43598 17.816C2.18868 17.3306 2.09012 16.8139 2.0442 16.2518C1.99998 15.7106 1.99999 15.0463 2 14.2413V9.75869C1.99999 8.95374 1.99998 8.28936 2.0442 7.74818Z" fill="currentColor" style="fill:currentColor;fill-opacity:1;"/>
<path d="M19.816 4.43598C20.0301 4.54506 20.2328 4.67263 20.4221 4.81667L13.0239 9.22569C12.3931 9.60164 11.6069 9.60164 10.9761 9.22569L3.57793 4.81667C3.76723 4.67263 3.96994 4.54506 4.18404 4.43598C4.66938 4.18868 5.18608 4.09012 5.74818 4.0442C6.28936 3.99998 6.95372 3.99999 7.75867 4H16.2413C17.0463 3.99999 17.7106 3.99998 18.2518 4.0442C18.8139 4.09012 19.3306 4.18868 19.816 4.43598Z" fill="currentColor" style="fill:currentColor;fill-opacity:1;"/>
<path d="M19 13C19.5523 13 20 13.4477 20 14V16H22C22.5523 16 23 16.4477 23 17C23 17.5523 22.5523 18 22 18H20V20C20 20.5523 19.5523 21 19 21C18.4477 21 18 20.5523 18 20V18H16C15.4477 18 15 17.5523 15 17C15 16.4477 15.4477 16 16 16H18V14C18 13.4477 18.4477 13 19 13Z" fill="currentColor" style="fill:currentColor;fill-opacity:1;"/>
</svg>
