<svg xmlns="http://www.w3.org/2000/svg" viewBox="0 0 24 24" fill="none">
<path d="M21.5977 6.25488C21.8196 6.71972 21.9123 7.21306 21.9561 7.74805C22.0003 8.28924 22 8.95383 22 9.75879V14.2412C22 14.5361 21.9973 14.8123 21.9951 15.0703L21.9473 15.0518L21.4102 13.6553L21.332 13.4727C20.9068 12.5784 20.0019 12 19 12C17.9981 12 17.0932 12.5784 16.668 13.4727L16.5898 13.6553L16.0518 15.0518L14.6553 15.5898C13.658 15.9735 13 16.9315 13 18C13 18.7894 13.3594 19.5183 13.9492 20H7.75879C6.95384 20 6.28923 20.0003 5.74805 19.9561C5.18599 19.9101 4.6689 19.8117 4.18359 19.5645C3.43109 19.181 2.81902 18.5689 2.43555 17.8164C2.18827 17.3311 2.08988 16.814 2.04395 16.252C1.99973 15.7108 1.99999 15.0462 2 14.2412V9.75879C1.99999 8.95383 1.99973 8.28924 2.04395 7.74805C2.08765 7.2132 2.17955 6.71961 2.40137 6.25488L9.64746 11.5254C11.05 12.5454 12.95 12.5454 14.3525 11.5254L21.5977 6.25488Z" fill="currentColor"/><path d="M15.373 17.4561C15.345 17.4669 15.3185 17.4805 15.293 17.4951L15.292 17.4941C15.3176 17.4794 15.3449 17.4669 15.373 17.4561L15.8633 17.2666L17.1855 16.7598L15.373 17.4561Z" fill="currentColor"/><path d="M16.2412 4C17.0462 3.99999 17.7108 3.99973 18.252 4.04395C18.814 4.08987 19.3311 4.18827 19.8164 4.43555C19.9846 4.52125 20.1447 4.62 20.2979 4.72754L13.1768 9.9082C12.4755 10.4182 11.5245 10.4182 10.8232 9.9082L3.70117 4.72754C3.85452 4.61982 4.01517 4.52137 4.18359 4.43555C4.6689 4.18827 5.18599 4.08987 5.74805 4.04395C6.28924 3.99973 6.95383 3.99999 7.75879 4H16.2412Z" fill="currentColor"/><path d="M20.2404 16.1852L19.5436 14.3733C19.4571 14.1484 19.241 14 19 14C18.759 14 18.5429 14.1484 18.4564 14.3733L17.7595 16.1852C17.658 16.4493 17.4496 16.6582 17.1855 16.7598L15.373 17.4561C15.1481 17.5426 15 17.759 15 18C15 18.241 15.1484 18.4571 15.3733 18.5436L17.1852 19.2405C17.4493 19.342 17.658 19.5507 17.7595 19.8148L18.4564 21.6267C18.5429 21.8516 18.759 22 19 22C19.241 22 19.4571 21.8516 19.5436 21.6267L20.2404 19.8148C20.342 19.5507 20.5507 19.342 20.8148 19.2405L22.6266 18.5436C22.8516 18.4571 23 18.241 23 18C23 17.759 22.8516 17.5429 22.6266 17.4564L20.8148 16.7595C20.5507 16.658 20.342 16.4493 20.2404 16.1852Z" fill="currentColor"/>
</svg>
