<svg xmlns="http://www.w3.org/2000/svg" viewBox="0 0 24 24" fill="none">
<circle cx="12" cy="12" r="9" stroke="currentColor" stroke-width="2" stroke-linecap="round" stroke-linejoin="round"/><path d="M10.75 9.9C10.75 11.0046 10.0784 11.75 9.25 11.75C8.42157 11.75 7.75 11.0046 7.75 9.9C7.75 8.79543 8.42157 8 9.25 8C10.0784 8 10.75 8.79543 10.75 9.9Z" fill="currentColor"/><path d="M8 14H16" stroke="currentColor" stroke-width="2" stroke-linecap="round" stroke-linejoin="round"/><path d="M10 15V16C10 17.1046 10.8954 18 12 18C13.1046 18 14 17.1046 14 16V15" stroke="currentColor" stroke-width="2" stroke-linecap="round" stroke-linejoin="round"/><path d="M16.5 10.2461C16.5 11.5 15.6605 10.6886 14.625 10.6886C13.5895 10.6886 12.75 11.5 12.75 10.2461C12.75 9.52169 13.5895 9 14.625 9C15.6605 9 16.5 9.52169 16.5 10.2461Z" fill="currentColor"/>
</svg>
