<svg xmlns="http://www.w3.org/2000/svg" viewBox="0 0 24 24" fill="none">
<path fill-rule="evenodd" clip-rule="evenodd" d="M12 2C17.5228 2 22 6.47715 22 12C22 17.5228 17.5228 22 12 22C6.47715 22 2 17.5228 2 12C2 6.47715 6.47715 2 12 2ZM16.127 14.1006C15.9547 14.0309 15.7601 14.0325 15.583 14.1025C15.4059 14.1726 15.2624 14.3063 15.1689 14.4688C15.1444 14.5028 15.1185 14.5336 15.0918 14.5625C14.8651 14.8082 14.4664 14.9827 13.9375 15.1211C13.413 15.2579 12.8058 15.3122 12.1855 15.335C12.1167 15.3375 12.0469 15.3401 11.9775 15.3418C11.7389 15.3478 11.5122 15.4481 11.3477 15.6211C11.1833 15.794 11.0947 16.0252 11.1006 16.2637C11.1066 16.5023 11.2069 16.729 11.3799 16.8936C11.5528 17.058 11.7839 17.1466 12.0225 17.1406C12.098 17.1387 12.1748 17.1365 12.251 17.1338C12.9393 17.1067 13.6481 17.0545 14.3945 16.8623C15.115 16.6737 16.0145 16.2501 16.4463 15.3311C16.4915 15.2332 16.529 15.1334 16.5596 15.0312C16.6054 14.8494 16.5953 14.653 16.5166 14.4795C16.438 14.3062 16.2992 14.1702 16.127 14.1006ZM9.25 7.5C8.42157 7.5 7.75 8.29582 7.75 9.40039C7.75016 10.5047 8.42167 11.25 9.25 11.25C10.0783 11.25 10.7498 10.5047 10.75 9.40039C10.75 8.29582 10.0784 7.5 9.25 7.5ZM14.75 7.5C13.9216 7.5 13.25 8.29582 13.25 9.40039C13.2502 10.5047 13.9217 11.25 14.75 11.25C15.5783 11.25 16.2498 10.5047 16.25 9.40039C16.25 8.29582 15.5784 7.5 14.75 7.5Z" fill="currentColor"/>
</svg>
