<svg xmlns="http://www.w3.org/2000/svg" viewBox="0 0 24 24" fill="none">
<path fill-rule="evenodd" clip-rule="evenodd" d="M12 2C17.5228 2 22 6.47715 22 12C22 17.5228 17.5228 22 12 22C6.47715 22 2 17.5228 2 12C2 6.47715 6.47715 2 12 2ZM12.002 13.8496C10.5958 13.8447 9.19093 14.4144 8.20703 15.3896C8.09709 15.4975 7.99348 15.6091 7.89355 15.7256C7.77012 15.8727 7.69924 16.0608 7.7041 16.2549C7.70896 16.449 7.78784 16.6327 7.9248 16.7666C8.06176 16.9003 8.24733 16.9752 8.44141 16.9756C8.63533 16.9759 8.82172 16.901 8.96582 16.7744C9.0522 16.7003 9.14015 16.6304 9.23047 16.5635C10.0414 15.9616 11.021 15.6505 12.0029 15.6504C12.985 15.6491 13.9641 15.9587 14.7725 16.5615C14.8625 16.6286 14.9501 16.6982 15.0361 16.7725C15.18 16.8996 15.3664 16.9754 15.5605 16.9756C15.7546 16.9757 15.9409 16.9019 16.0781 16.7686C16.2153 16.6351 16.2944 16.4508 16.2998 16.2568C16.3052 16.0629 16.2351 15.8749 16.1123 15.7275C16.0126 15.6106 15.9087 15.4989 15.7988 15.3906C14.8159 14.4115 13.4079 13.8425 12.002 13.8496ZM7.2373 7.70508C7.05829 7.66093 6.86203 7.69308 6.69434 7.78516C6.52658 7.87773 6.40099 8.02359 6.34277 8.19824C6.28481 8.37277 6.29734 8.56473 6.37598 8.73926C6.45491 8.91335 6.59313 9.05687 6.7627 9.12891C6.81131 9.1495 6.86057 9.16984 6.90918 9.19043C7.30753 9.35915 7.70607 9.52758 8.10449 9.69629C8.03774 9.8707 8.00006 10.0632 8 10.2695C8 11.1532 8.67157 11.75 9.5 11.75C10.3284 11.75 11 11.1532 11 10.2695C11 10.0984 10.9735 9.93688 10.9268 9.78711C10.9337 9.7692 10.9421 9.75175 10.9482 9.7334C11.0387 9.46192 11.0256 9.16936 10.9072 8.93262C10.7888 8.69518 10.5746 8.53252 10.3164 8.46875C10.2651 8.45605 10.2134 8.44239 10.1621 8.42969C9.23863 8.2009 8.31508 7.97195 7.3916 7.74316C7.34033 7.73046 7.28857 7.71778 7.2373 7.70508ZM16.7627 7.70508C16.7114 7.71778 16.6597 7.73046 16.6084 7.74316C15.6849 7.97195 14.7614 8.2009 13.8379 8.42969C13.7866 8.44239 13.7349 8.45605 13.6836 8.46875C13.4254 8.53252 13.2112 8.69518 13.0928 8.93262C12.9744 9.16936 12.9613 9.46192 13.0518 9.7334C13.0579 9.75164 13.0653 9.76931 13.0723 9.78711C13.0256 9.9368 13 10.0985 13 10.2695C13 11.1532 13.6716 11.75 14.5 11.75C15.3284 11.75 16 11.1532 16 10.2695C15.9999 10.063 15.9614 9.87079 15.8945 9.69629C16.2932 9.52746 16.6922 9.35927 17.0908 9.19043C17.1394 9.16984 17.1887 9.1495 17.2373 9.12891C17.4069 9.05687 17.5451 8.91335 17.624 8.73926C17.7027 8.56473 17.7152 8.37277 17.6572 8.19824C17.599 8.02359 17.4734 7.87773 17.3057 7.78516C17.138 7.69308 16.9417 7.66093 16.7627 7.70508Z" fill="currentColor"/>
</svg>
