<svg xmlns="http://www.w3.org/2000/svg" viewBox="0 0 24 24" fill="none">
<path d="M13 16C13 16.5523 12.5523 17 12 17C11.4477 17 11 16.5523 11 16V15H13V16Z" fill="currentColor"/><path fill-rule="evenodd" clip-rule="evenodd" d="M12 2C17.5228 2 22 6.47715 22 12C22 17.5228 17.5228 22 12 22C6.47715 22 2 17.5228 2 12C2 6.47715 6.47715 2 12 2ZM8 13C7.44772 13 7 13.4477 7 14C7 14.5523 7.44772 15 8 15H9V16C9 17.6569 10.3431 19 12 19C13.6569 19 15 17.6569 15 16V15H16C16.5523 15 17 14.5523 17 14C17 13.4477 16.5523 13 16 13H8ZM9.25 8C8.42157 8 7.75 8.79582 7.75 9.90039C7.75016 11.0047 8.42167 11.75 9.25 11.75C10.0783 11.75 10.7498 11.0047 10.75 9.90039C10.75 8.79582 10.0784 8 9.25 8ZM14.75 8C13.9216 8 13.25 8.79582 13.25 9.90039C13.2502 11.0047 13.9217 11.75 14.75 11.75C15.5783 11.75 16.2498 11.0047 16.25 9.90039C16.25 8.79582 15.5784 8 14.75 8Z" fill="currentColor"/>
</svg>
