<svg width="24" height="24" viewBox="0 0 24 24" fill="none" xmlns="http://www.w3.org/2000/svg">
<path fill-rule="evenodd" clip-rule="evenodd" d="M22 12C22 17.5228 17.5228 22 12 22C6.47715 22 2 17.5228 2 12C2 6.47715 6.47715 2 12 2C17.5228 2 22 6.47715 22 12ZM8.46306 14.4645C10.4157 12.5118 13.5815 12.5118 15.5341 14.4645C15.9247 14.855 15.9247 15.4882 15.5341 15.8787C15.1436 16.2692 14.5104 16.2692 14.1199 15.8787C12.9483 14.7071 11.0488 14.7071 9.87727 15.8787C9.48675 16.2692 8.85358 16.2692 8.46306 15.8787C8.07253 15.4882 8.07253 14.855 8.46306 14.4645ZM9.25 8.25C8.55964 8.25 8 8.80964 8 9.5C8 10.1904 8.55964 10.75 9.25 10.75C9.94036 10.75 10.5 10.1904 10.5 9.5C10.5 8.80964 9.94036 8.25 9.25 8.25ZM13.5 9.5C13.5 8.80964 14.0596 8.25 14.75 8.25C15.4404 8.25 16 8.80964 16 9.5C16 10.1904 15.4404 10.75 14.75 10.75C14.0596 10.75 13.5 10.1904 13.5 9.5Z" fill="currentColor" style="fill:currentColor;fill-opacity:1;"/>
</svg>
