<svg width="24" height="24" viewBox="0 0 24 24" fill="none" xmlns="http://www.w3.org/2000/svg">
<path fill-rule="evenodd" clip-rule="evenodd" d="M2 12C2 6.47715 6.47715 2 12 2C17.5228 2 22 6.47715 22 12C22 17.5228 17.5228 22 12 22C6.47715 22 2 17.5228 2 12ZM10 7C10.5523 7 11 7.44772 11 8V11C11 11.5523 10.5523 12 10 12C9.44772 12 9 11.5523 9 11V8C9 7.44772 9.44772 7 10 7ZM14 7C14.5523 7 15 7.44772 15 8V11C15 11.5523 14.5523 12 14 12C13.4477 12 13 11.5523 13 11V8C13 7.44772 13.4477 7 14 7ZM8.10557 14.8028C8.35256 14.3088 8.95324 14.1086 9.44721 14.3556C11.1657 15.2148 12.8343 15.2148 14.5528 14.3556C15.0468 14.1086 15.6474 14.3088 15.8944 14.8028C16.1414 15.2968 15.9412 15.8974 15.4472 16.1444C13.1657 17.2852 10.8343 17.2852 8.55279 16.1444C8.05881 15.8974 7.85858 15.2968 8.10557 14.8028Z" fill="currentColor" style="fill:currentColor;fill-opacity:1;"/>
</svg>
