<svg width="24" height="24" viewBox="0 0 24 24" fill="none" xmlns="http://www.w3.org/2000/svg">
<path d="M9.4 8H8.4V10H9.4V8ZM9.6 10C10.1523 10 10.6 9.55228 10.6 9C10.6 8.44772 10.1523 8 9.6 8V10ZM14.4 8H13.4V10H14.4V8ZM14.6 10C15.1523 10 15.6 9.55228 15.6 9C15.6 8.44772 15.1523 8 14.6 8V10ZM7.57412 12.8193C7.47434 12.2761 6.95311 11.9167 6.40991 12.0165C5.86672 12.1162 5.50725 12.6375 5.60703 13.1807L7.57412 12.8193ZM18.3927 13.1807C18.4925 12.6375 18.1331 12.1162 17.5899 12.0165C17.0467 11.9167 16.5254 12.2761 16.4257 12.8193L18.3927 13.1807ZM9 9C9 8.72386 9.22386 8.5 9.5 8.5V10.5C10.3284 10.5 11 9.82843 11 9H9ZM9.5 8.5C9.77614 8.5 10 8.72386 10 9H8C8 9.82843 8.67157 10.5 9.5 10.5V8.5ZM10 9C10 9.27614 9.77614 9.5 9.5 9.5V7.5C8.67157 7.5 8 8.17157 8 9H10ZM9.5 9.5C9.22386 9.5 9 9.27614 9 9H11C11 8.17157 10.3284 7.5 9.5 7.5V9.5ZM14 9C14 8.72386 14.2239 8.5 14.5 8.5V10.5C15.3284 10.5 16 9.82843 16 9H14ZM14.5 8.5C14.7761 8.5 15 8.72386 15 9H13C13 9.82843 13.6716 10.5 14.5 10.5V8.5ZM15 9C15 9.27614 14.7761 9.5 14.5 9.5V7.5C13.6716 7.5 13 8.17157 13 9H15ZM14.5 9.5C14.2239 9.5 14 9.27614 14 9H16C16 8.17157 15.3284 7.5 14.5 7.5V9.5ZM20 12C20 16.4183 16.4183 20 12 20V22C17.5228 22 22 17.5228 22 12H20ZM12 20C7.58172 20 4 16.4183 4 12H2C2 17.5228 6.47715 22 12 22V20ZM4 12C4 7.58172 7.58172 4 12 4V2C6.47715 2 2 6.47715 2 12H4ZM12 4C16.4183 4 20 7.58172 20 12H22C22 6.47715 17.5228 2 12 2V4ZM11.9999 16.5C9.79509 16.5 7.95876 14.9134 7.57412 12.8193L5.60703 13.1807C6.1629 16.2069 8.81255 18.5 11.9999 18.5V16.5ZM16.4257 12.8193C16.041 14.9134 14.2047 16.5 11.9999 16.5V18.5C15.1872 18.5 17.8369 16.2069 18.3927 13.1807L16.4257 12.8193ZM9.4 10H9.6V8H9.4V10ZM14.4 10H14.6V8H14.4V10Z" fill="currentColor"/>
</svg>
