<svg width="24" height="24" viewBox="0 0 24 24" fill="none" xmlns="http://www.w3.org/2000/svg">
<path fill-rule="evenodd" clip-rule="evenodd" d="M2 12C2 6.47715 6.47715 2 12 2C17.5228 2 22 6.47715 22 12C22 17.5228 17.5228 22 12 22C6.47715 22 2 17.5228 2 12ZM6.57428 9.76285C6.9731 9.39726 7.58827 9.4162 7.96402 9.79986L7.96918 9.80417C7.98463 9.81682 8.0193 9.84303 8.0726 9.8721C8.17556 9.92826 8.35606 10 8.625 10C8.89394 10 9.07444 9.92826 9.1774 9.8721C9.2307 9.84303 9.26537 9.81682 9.28082 9.80417L9.28598 9.79986C9.66173 9.4162 10.2769 9.39726 10.6757 9.76285C11.0828 10.136 11.1103 10.7686 10.7372 11.1757L10 10.5C10.7372 11.1757 10.7375 11.1754 10.7372 11.1757L10.7358 11.1772L10.7344 11.1787L10.7315 11.1819L10.725 11.1887L10.7096 11.2047C10.6983 11.2163 10.6847 11.2298 10.669 11.2448C10.6375 11.2749 10.597 11.3114 10.5473 11.3521C10.4482 11.4332 10.311 11.532 10.1351 11.6279C9.77972 11.8217 9.27272 12 8.625 12C7.97728 12 7.47028 11.8217 7.1149 11.6279C6.93904 11.532 6.80182 11.4332 6.7027 11.3521C6.65303 11.3114 6.61249 11.2749 6.58101 11.2448C6.56525 11.2298 6.55171 11.2163 6.54036 11.2047L6.52498 11.1887L6.51851 11.1819L6.51558 11.1787L6.51419 11.1772C6.51385 11.1768 6.51285 11.1757 7.25 10.5L6.51285 11.1757C6.13965 10.7686 6.16716 10.136 6.57428 9.76285ZM14.714 9.79986C14.3383 9.4162 13.7231 9.39726 13.3243 9.76285C12.9172 10.136 12.8897 10.7686 13.2628 11.1757L14 10.5C13.2628 11.1757 13.2625 11.1754 13.2628 11.1757L13.2642 11.1772L13.2656 11.1787L13.2685 11.1819L13.275 11.1887L13.2904 11.2047C13.3017 11.2163 13.3153 11.2298 13.331 11.2448C13.3625 11.2749 13.403 11.3114 13.4527 11.3521C13.5518 11.4332 13.689 11.532 13.8649 11.6279C14.2203 11.8217 14.7273 12 15.375 12C16.0227 12 16.5297 11.8217 16.8851 11.6279C17.061 11.532 17.1982 11.4332 17.2973 11.3521C17.347 11.3114 17.3875 11.2749 17.419 11.2448C17.4347 11.2298 17.4483 11.2163 17.4596 11.2047L17.475 11.1887L17.4815 11.1819L17.4844 11.1787L17.4858 11.1772C17.4861 11.1768 17.4872 11.1757 16.75 10.5L17.4872 11.1757C17.8603 10.7686 17.8328 10.136 17.4257 9.76285C17.0269 9.39726 16.4117 9.4162 16.036 9.79986L16.0308 9.80417C16.0154 9.81682 15.9807 9.84303 15.9274 9.8721C15.8244 9.92826 15.6439 10 15.375 10C15.1061 10 14.9256 9.92826 14.8226 9.8721C14.7693 9.84303 14.7346 9.81682 14.7192 9.80417L14.714 9.79986ZM10.4334 14.5988C9.93568 14.3594 9.33816 14.5689 9.0988 15.0666C8.85944 15.5643 9.06888 16.1618 9.5666 16.4012C10.3665 16.7859 11.1679 17 12 17C12.8321 17 13.6335 16.7859 14.4334 16.4012C14.9311 16.1618 15.1406 15.5643 14.9012 15.0666C14.6618 14.5689 14.0643 14.3594 13.5666 14.5988C12.9803 14.8808 12.4747 15 12 15C11.5253 15 11.0197 14.8808 10.4334 14.5988Z" fill="currentColor" style="fill:currentColor;fill-opacity:1;"/>
</svg>
