<svg width="24" height="24" viewBox="0 0 24 24" fill="none" xmlns="http://www.w3.org/2000/svg">
<path fill-rule="evenodd" clip-rule="evenodd" d="M12 22C17.5228 22 22 17.5228 22 12C22 6.47715 17.5228 2 12 2C6.47715 2 2 6.47715 2 12C2 17.5228 6.47715 22 12 22ZM17.88 13.1989C17.9899 12.6577 17.6402 12.1299 17.0989 12.02C16.5577 11.9101 16.0298 12.2598 15.92 12.8011C15.6022 14.3666 14.3666 15.6022 12.8011 15.92C12.2598 16.0298 11.9101 16.5577 12.02 17.0989C12.1299 17.6402 12.6577 17.9899 13.1989 17.88C15.5516 17.4024 17.4024 15.5516 17.88 13.1989ZM10 9.5C10 10.3284 9.32843 11 8.5 11C7.67157 11 7 10.3284 7 9.5C7 8.67157 7.67157 8 8.5 8C9.32843 8 10 8.67157 10 9.5ZM13.5 11C14.3284 11 15 10.3284 15 9.5C15 8.67157 14.3284 8 13.5 8C12.6716 8 12 8.67157 12 9.5C12 10.3284 12.6716 11 13.5 11Z" fill="currentColor" style="fill:currentColor;fill-opacity:1;"/>
</svg>
