<svg xmlns="http://www.w3.org/2000/svg" viewBox="0 0 24 24" fill="none">
<path fill-rule="evenodd" clip-rule="evenodd" d="M12 2C17.5228 2 22 6.47715 22 12C22 17.5228 17.5228 22 12 22C6.47715 22 2 17.5228 2 12C2 6.47715 6.47715 2 12 2ZM9 14.3496C8.50294 14.3496 8.09961 14.7529 8.09961 15.25C8.09961 15.7471 8.50294 16.1504 9 16.1504H15C15.4971 16.1504 15.9004 15.7471 15.9004 15.25C15.9004 14.7529 15.4971 14.3496 15 14.3496H9ZM9.25 7.5C8.42157 7.5 7.75 8.29582 7.75 9.40039C7.75016 10.5047 8.42167 11.25 9.25 11.25C10.0783 11.25 10.7498 10.5047 10.75 9.40039C10.75 8.29582 10.0784 7.5 9.25 7.5ZM14.75 7.5C13.9216 7.5 13.25 8.29582 13.25 9.40039C13.2502 10.5047 13.9217 11.25 14.75 11.25C15.5783 11.25 16.2498 10.5047 16.25 9.40039C16.25 8.29582 15.5784 7.5 14.75 7.5Z" fill="currentColor"/>
</svg>
