<svg width="24" height="24" viewBox="0 0 24 24" fill="none" xmlns="http://www.w3.org/2000/svg">
<path fill-rule="evenodd" clip-rule="evenodd" d="M12 2C6.47715 2 2 6.47715 2 12C2 17.5228 6.47715 22 12 22C17.5228 22 22 17.5228 22 12C22 6.47715 17.5228 2 12 2ZM8.09184 13C8.49994 15.2029 10.2294 17 12.5 17C13.8068 17 14.9584 16.3842 15.7591 15.4503C16.1186 15.0311 16.0702 14.3998 15.6509 14.0403C15.2317 13.6808 14.6003 13.7292 14.2409 14.1485C13.7711 14.6964 13.1519 15 12.5 15C11.493 15 10.4981 14.2242 10.1397 13H11C11.5523 13 12 12.5523 12 12C12 11.4477 11.5523 11 11 11H10.1397C10.4981 9.77582 11.493 9 12.5 9C13.1519 9 13.7711 9.30363 14.2409 9.8515C14.6003 10.2708 15.2317 10.3192 15.6509 9.95973C16.0702 9.60024 16.1186 8.96893 15.7591 8.54966C14.9584 7.61576 13.8068 7 12.5 7C10.2294 7 8.49994 8.79705 8.09184 11H8C7.44772 11 7 11.4477 7 12C7 12.5523 7.44772 13 8 13H8.09184Z" fill="currentColor" style="fill:currentColor;fill-opacity:1;"/>
</svg>
