<svg width="24" height="24" viewBox="0 0 24 24" fill="none" xmlns="http://www.w3.org/2000/svg">
<path fill-rule="evenodd" clip-rule="evenodd" d="M11 13.9171C8.16229 13.441 6 10.973 6 8.00003V4.80286C6 3.59111 7.22384 2.76253 8.34892 3.21256L9.16411 3.53864C9.26685 3.57973 9.38374 3.56241 9.47014 3.49329L10.1259 2.96867C11.2216 2.09215 12.7784 2.09215 13.8741 2.96867L14.5299 3.49329C14.6163 3.56241 14.7332 3.57973 14.8359 3.53864L15.6511 3.21256C16.7762 2.76253 18 3.59111 18 4.80286V8.00003C18 10.973 15.8377 13.441 13 13.9171V15.6072C14.0923 14.6089 15.5465 14 17.1429 14C17.1699 14 17.1969 14.0002 17.2238 14.0005C18.2013 14.0132 18.9868 14.7987 18.9995 15.7762C18.9998 15.8031 19 15.8301 19 15.8571C19 19.202 16.3266 21.9225 13 21.9984V22H11V21.9984C7.67338 21.9225 5 19.202 5 15.8571C5 15.8301 5.00017 15.8031 5.00052 15.7762C5.01319 14.7987 5.79866 14.0132 6.77617 14.0005C6.80313 14.0002 6.83012 14 6.85714 14C8.45353 14 9.90769 14.6089 11 15.6072V13.9171ZM16.9975 16.0025C16.9226 18.175 15.175 19.9226 13.0025 19.9975C13.0774 17.825 14.825 16.0774 16.9975 16.0025ZM7.0025 16.0025C7.07742 18.175 8.82503 19.9226 10.9975 19.9975C10.9226 17.825 9.17498 16.0774 7.0025 16.0025Z" fill="currentColor" style="fill:currentColor;fill-opacity:1;"/>
</svg>
