<svg width="24" height="24" viewBox="0 0 24 24" fill="none" xmlns="http://www.w3.org/2000/svg">
<path d="M10.6069 4.09497C10.0597 4.16981 9.67678 4.67407 9.75162 5.22126C9.82646 5.76845 10.3307 6.15137 10.8779 6.07652L10.6069 4.09497ZM21.2263 10.655L20.3835 11.1933V11.1933L21.2263 10.655ZM19.518 14.02C19.1737 14.4519 19.2448 15.081 19.6766 15.4253C20.1085 15.7695 20.7377 15.6985 21.0819 15.2666L19.518 14.02ZM21.2265 13.3446L22.0693 13.8828L21.2265 13.3446ZM3.70701 2.29289C3.31649 1.90237 2.68332 1.90237 2.2928 2.29289C1.90227 2.68342 1.90227 3.31658 2.2928 3.70711L3.70701 2.29289ZM20.2928 21.7071C20.6833 22.0976 21.3165 22.0976 21.707 21.7071C22.0975 21.3166 22.0975 20.6834 21.707 20.2929L20.2928 21.7071ZM2.77344 10.6553L3.61624 11.1935L2.77344 10.6553ZM7.18927 7.48108C7.65196 7.17953 7.78259 6.55998 7.48103 6.09729C7.17947 5.6346 6.55993 5.50398 6.09724 5.80554L7.18927 7.48108ZM2.77405 13.3457L3.61681 12.8074H3.61681L2.77405 13.3457ZM17.9026 18.1944C18.3653 17.8928 18.4959 17.2733 18.1943 16.8106C17.8928 16.3479 17.2732 16.2173 16.8105 16.5188L17.9026 18.1944ZM10.8779 6.07652C14.2407 5.61657 17.8528 7.23074 20.3835 11.1933L22.0691 10.1168C19.1913 5.61079 14.8682 3.51213 10.6069 4.09497L10.8779 6.07652ZM21.0819 15.2666C21.4269 14.8338 21.7566 14.3724 22.0693 13.8828L20.3837 12.8063C20.1074 13.2389 19.8182 13.6433 19.518 14.02L21.0819 15.2666ZM20.3835 11.1933C20.6978 11.6854 20.6978 12.3144 20.3837 12.8063L22.0693 13.8828C22.8028 12.7342 22.8024 11.2651 22.0691 10.1168L20.3835 11.1933ZM11.9999 14C10.8953 14 9.9999 13.1046 9.9999 12H7.9999C7.9999 14.2091 9.79076 16 11.9999 16V14ZM2.2928 3.70711L9.17148 10.5858L10.5857 9.17157L3.70701 2.29289L2.2928 3.70711ZM9.9999 12C9.9999 11.4474 10.2227 10.9488 10.5857 10.5858L9.17148 9.17157C8.44871 9.89434 7.9999 10.8957 7.9999 12H9.9999ZM9.17148 10.5858L13.4141 14.8284L14.8283 13.4142L10.5857 9.17157L9.17148 10.5858ZM13.4141 14.8284L20.2928 21.7071L21.707 20.2929L14.8283 13.4142L13.4141 14.8284ZM13.4141 13.4142C13.0511 13.7772 12.5525 14 11.9999 14V16C13.1042 16 14.1056 15.5512 14.8283 14.8284L13.4141 13.4142ZM2.2928 3.70711L20.2928 21.7071L21.707 20.2929L3.70701 2.29289L2.2928 3.70711ZM3.61624 11.1935C4.65724 9.56341 5.88243 8.33282 7.18927 7.48108L6.09724 5.80554C4.52936 6.8274 3.10927 8.27144 1.93064 10.117L3.61624 11.1935ZM1.93129 13.884C3.89989 16.9661 6.54345 18.9272 9.40471 19.6678C12.2705 20.4096 15.2775 19.9052 17.9026 18.1944L16.8105 16.5188C14.6366 17.9357 12.2052 18.3268 9.90589 17.7316C7.60206 17.1353 5.35387 15.527 3.61681 12.8074L1.93129 13.884ZM1.93064 10.117C1.19697 11.2658 1.19801 12.736 1.93129 13.884L3.61681 12.8074C3.30234 12.3151 3.30227 11.6851 3.61624 11.1935L1.93064 10.117Z" fill="currentColor"/>
</svg>
