<svg xmlns="http://www.w3.org/2000/svg" viewBox="0 0 24 24" fill="none">
<path d="M11.0008 9L6.42503 13.5758C6.08093 13.9199 5.90888 14.0919 5.76841 14.2862C5.6437 14.4588 5.53771 14.6441 5.45222 14.8391C5.35594 15.0587 5.29488 15.2942 5.17275 15.7652L4.91472 16.7605C4.84012 17.0483 4.68994 17.3108 4.47974 17.521L4.30078 17.7C3.7485 18.2523 3.7485 19.1477 4.30078 19.7C4.85307 20.2523 5.7485 20.2523 6.30078 19.7L6.47974 19.521C6.68994 19.3108 6.95252 19.1607 7.24027 19.0861L8.23553 18.828C8.70658 18.7059 8.94211 18.6448 9.16172 18.5486C9.35669 18.4631 9.54201 18.3571 9.71455 18.2324C9.90888 18.0919 10.0809 17.9199 10.425 17.5758L15.0008 13" stroke="currentColor" stroke-width="2" stroke-linecap="round" stroke-linejoin="round"/><path d="M15.4393 12.4394L11.5607 8.56089C10.9749 7.97511 10.9749 7.02536 11.5607 6.43958C11.842 6.15828 12.2235 6.00024 12.6213 6.00024H12.8548C12.8897 6.00024 12.9071 6.00024 12.924 6.00005C13.6169 5.99223 14.2857 5.74482 14.8168 5.29982C14.8298 5.28895 14.843 5.27761 14.8695 5.25493L15.621 4.61073C16.6812 3.70185 18.2625 3.76254 19.25 4.75004C20.2375 5.7375 20.2982 7.31874 19.3894 8.37903L18.7453 9.13053C18.7226 9.15702 18.7112 9.17026 18.7003 9.18326C18.2554 9.71436 18.008 10.3831 18.0002 11.0759C18 11.0928 18 11.1103 18 11.1452V11.3787C18 11.7765 17.842 12.158 17.5607 12.4393C16.9749 13.0251 16.0251 13.0251 15.4393 12.4394Z" stroke="currentColor" stroke-width="2" stroke-linecap="round" stroke-linejoin="round"/>
</svg>
