<svg xmlns="http://www.w3.org/2000/svg" viewBox="0 0 24 24" fill="none">
<path d="M11.1819 4C13.5118 4.00006 15.3488 5.98356 15.1702 8.30664L14.7854 13.3066C14.7689 13.5219 14.7337 13.7317 14.6848 13.9355C13.657 14.4604 12.8866 15.4165 12.6116 16.5654C12.2552 16.7471 11.8681 16.8752 11.4612 16.9434C11.1902 14.9978 9.52142 13.5 7.50124 13.5C5.79453 13.5 4.33841 14.5693 3.76394 16.0742C2.80599 15.2761 2.22856 14.0427 2.3323 12.6934L2.38601 12H5.00124C5.55353 12 6.00124 11.5523 6.00124 11C6.00124 10.4477 5.55353 10 5.00124 10H2.53933L2.69363 8H7.00124C7.55353 8 8.00124 7.55228 8.00124 7C8.00124 6.44772 7.55353 6 7.00124 6H3.24148C3.93586 4.79923 5.23284 4.00004 6.70535 4H11.1819Z" fill="currentColor"/><path d="M18.6809 6C19.684 6.00002 20.6206 6.50138 21.177 7.33594L22.1702 8.82617C22.5695 9.4252 22.7409 10.1479 22.6516 10.8623L22.4319 12.6201C22.2469 14.1005 21.4262 15.3618 20.2649 16.1455C19.7098 14.6032 18.2348 13.5 16.5012 13.5C16.4017 13.5 16.3031 13.5046 16.2053 13.5117L16.8313 6H18.6809Z" fill="currentColor"/><path d="M5 17.5C5 18.8807 6.11929 20 7.5 20C8.88071 20 10 18.8807 10 17.5C10 16.1193 8.88071 15 7.5 15C6.11929 15 5 16.1193 5 17.5Z" fill="currentColor"/><path d="M14 17.5C14 18.8807 15.1193 20 16.5 20C17.8807 20 19 18.8807 19 17.5C19 16.1193 17.8807 15 16.5 15C15.1193 15 14 16.1193 14 17.5Z" fill="currentColor"/>
</svg>
