<svg xmlns="http://www.w3.org/2000/svg" viewBox="0 0 24 24" fill="none">
<path d="M20 3C20.3497 3 20.6742 3.18244 20.8555 3.48145C21.0367 3.78049 21.0485 4.15293 20.8867 4.46289C20.2393 5.7026 19.555 7.09978 18.584 8.14844C17.8626 8.92746 16.9811 9.51932 15.8545 9.80664C16.438 11.3647 16.1015 12.974 15.1865 14.2539C14.0186 15.8874 11.921 17 9.59668 17C8.14784 17 7.11346 17.1349 6.3916 17.5527C5.75552 17.921 5.2098 18.6047 4.99023 20.1416C4.91596 20.661 4.45212 21.0343 3.92871 20.9971C3.40546 20.9597 3 20.5246 3 20V16C3 8.8203 8.8203 3 16 3H20Z" fill="currentColor"/>
</svg>
