<svg xmlns="http://www.w3.org/2000/svg" viewBox="0 0 24 24" fill="none">
<path d="M15.293 15.293C15.6835 14.9024 16.3165 14.9024 16.707 15.293C17.0976 15.6835 17.0976 16.3165 16.707 16.707L15.4141 18H20C20.5523 18 21 18.4477 21 19C21 19.5523 20.5523 20 20 20H15.4141L16.707 21.293C17.0976 21.6835 17.0976 22.3165 16.707 22.707C16.3165 23.0976 15.6835 23.0976 15.293 22.707L12.293 19.707C11.9024 19.3165 11.9024 18.6835 12.293 18.293L15.293 15.293Z" fill="currentColor"/><path d="M12 7C12 8.65685 13.3431 10 15 10H20V16H19C19 15.2323 18.7069 14.4647 18.1211 13.8789C16.9495 12.7073 15.0505 12.7073 13.8789 13.8789L10.8789 16.8789C9.70733 18.0505 9.70733 19.9495 10.8789 21.1211L11.7578 22H8C5.79086 22 4 20.2091 4 18V6C4 3.79086 5.79086 2 8 2H12V7Z" fill="currentColor"/><path d="M19.4141 8H15C14.4477 8 14 7.55228 14 7V2.58594L19.4141 8Z" fill="currentColor"/>
</svg>
