<svg xmlns="http://www.w3.org/2000/svg" viewBox="0 0 24 24" fill="none">
<path d="M16.293 15.293C16.6835 14.9024 17.3165 14.9024 17.707 15.293L20.707 18.293C21.0976 18.6835 21.0976 19.3165 20.707 19.707L17.707 22.707C17.3165 23.0976 16.6835 23.0976 16.293 22.707C15.9024 22.3165 15.9024 21.6835 16.293 21.293L17.5859 20H13C12.4477 20 12 19.5523 12 19C12 18.4477 12.4477 18 13 18H17.5859L16.293 16.707C15.9024 16.3165 15.9024 15.6835 16.293 15.293Z" fill="currentColor"/><path d="M12 7C12 8.65685 13.3431 10 15 10H20V14.7578L19.1211 13.8789C17.9495 12.7073 16.0505 12.7073 14.8789 13.8789C14.2931 14.4647 14 15.2323 14 16H13C11.3431 16 10 17.3431 10 19C10 20.6569 11.3431 22 13 22H8C5.79086 22 4 20.2091 4 18V6C4 3.79086 5.79086 2 8 2H12V7Z" fill="currentColor"/><path d="M19.4141 8H15C14.4477 8 14 7.55228 14 7V2.58594L19.4141 8Z" fill="currentColor"/>
</svg>
