<svg xmlns="http://www.w3.org/2000/svg" viewBox="0 0 24 24" fill="none">
<path d="M6.29289 15.293C6.68342 14.9025 7.31644 14.9025 7.70696 15.293C8.09743 15.6835 8.09743 16.3165 7.70696 16.707L6.41399 18H10.9999C11.5522 18 11.9999 18.4477 11.9999 19C11.9999 19.5523 11.5522 20 10.9999 20H6.41399L7.70696 21.293C8.09743 21.6835 8.09743 22.3165 7.70696 22.707C7.31644 23.0975 6.68342 23.0975 6.29289 22.707L3.29289 19.707C2.90237 19.3165 2.90237 18.6835 3.29289 18.293L6.29289 15.293Z" fill="currentColor"/><path d="M11.9999 7C11.9999 8.65685 13.3431 10 14.9999 10H19.9999V18C19.9999 20.2091 18.209 22 15.9999 22H10.9999C12.6567 22 13.9999 20.6568 13.9999 19C13.9999 17.3432 12.6567 16 10.9999 16H9.99992C9.99992 15.2324 9.70678 14.4647 9.12102 13.8789C7.94946 12.7073 6.05041 12.7074 4.87883 13.8789L3.99992 14.7578V6C3.99992 3.79086 5.79079 2 7.99992 2H11.9999V7Z" fill="currentColor"/><path d="M19.414 8H14.9999C14.4476 8 13.9999 7.55228 13.9999 7V2.58594L19.414 8Z" fill="currentColor"/>
</svg>
