<svg width="24" height="24" viewBox="0 0 24 24" fill="none" xmlns="http://www.w3.org/2000/svg">
<path d="M8 2H12V7C12 8.65685 13.3431 10 15 10H20V18C20 20.2091 18.2091 22 16 22H8.74264L9.12132 21.6213C9.68393 21.0587 10 20.2957 10 19.5V13.5588C10 11.0736 7.98528 9.05884 5.5 9.05884C4.97405 9.05884 4.46917 9.14907 4 9.3149V6C4 3.79086 5.79086 2 8 2Z" fill="currentColor" style="fill:currentColor;fill-opacity:1;"/>
<path d="M14 2.58579L19.4142 8H15C14.4477 8 14 7.55228 14 7V2.58579Z" fill="currentColor" style="fill:currentColor;fill-opacity:1;"/>
<path fill-rule="evenodd" clip-rule="evenodd" d="M5.5 13.0588C5.22386 13.0588 5 13.2827 5 13.5588V19.0858L5.5 19.5858L6 19.0858L6 13.5588C6 13.2827 5.77614 13.0588 5.5 13.0588ZM3 13.5588C3 12.1781 4.11929 11.0588 5.5 11.0588C6.88071 11.0588 8 12.1781 8 13.5588V19.5C8 19.7652 7.89464 20.0196 7.70711 20.2071L6.20711 21.7071C6.01957 21.8946 5.76522 22 5.5 22C5.23478 22 4.98043 21.8946 4.79289 21.7071L3.29289 20.2071C3.10536 20.0196 3 19.7652 3 19.5L3 13.5588Z" fill="currentColor" style="fill:currentColor;fill-opacity:1;"/>
</svg>
