<svg width="24" height="24" viewBox="0 0 24 24" fill="none" xmlns="http://www.w3.org/2000/svg">
<path d="M13.5858 3.58579L14.2929 2.87868L14.2929 2.87868L13.5858 3.58579ZM18.4142 8.41421L17.7071 9.12132V9.12132L18.4142 8.41421ZM4 10.5C4 11.0523 4.44772 11.5 5 11.5C5.55228 11.5 6 11.0523 6 10.5H4ZM15 20C14.4477 20 14 20.4477 14 21C14 21.5523 14.4477 22 15 22V20ZM14 3.5V2.5H12V3.5H14ZM18.5 10H19.5V8H18.5V10ZM9 16V15L8.99779 15L9 16ZM8.9888 16L8.14657 16.5391C8.33081 16.827 8.64927 17.0008 8.99101 17L8.9888 16ZM8 4H12.1716V2H8V4ZM18 9.82843V18H20V9.82843H18ZM12.8787 4.29289L17.7071 9.12132L19.1213 7.70711L14.2929 2.87868L12.8787 4.29289ZM6 10.5V6H4V10.5H6ZM16 20H15V22H16V20ZM20 9.82843C20 9.03278 19.6839 8.26972 19.1213 7.70711L17.7071 9.12132C17.8946 9.30886 18 9.56321 18 9.82843H20ZM12.1716 4C12.4368 4 12.6911 4.10536 12.8787 4.29289L14.2929 2.87868C13.7303 2.31607 12.9672 2 12.1716 2V4ZM18 18C18 19.1046 17.1046 20 16 20V22C18.2091 22 20 20.2091 20 18H18ZM8 2C5.79086 2 4 3.79086 4 6H6C6 4.89543 6.89543 4 8 4V2ZM12 3.5V7H14V3.5H12ZM15 10H18.5V8H15V10ZM12 7C12 8.65685 13.3431 10 15 10V8C14.4477 8 14 7.55228 14 7H12ZM6.25 20C5.00736 20 4 18.9926 4 17.75H2C2 20.0972 3.90279 22 6.25 22V20ZM9 20H6.25V22H9V20ZM10.5 18.5C10.5 19.3284 9.82843 20 9 20V22C10.933 22 12.5 20.433 12.5 18.5H10.5ZM9 17C9.82843 17 10.5 17.6716 10.5 18.5H12.5C12.5 16.567 10.933 15 9 15V17ZM8.99101 17L9.00221 17L8.99779 15L8.98658 15L8.99101 17ZM6.25 15.5C7.04608 15.5 7.74527 15.9122 8.14657 16.5391L9.83102 15.4609C9.07792 14.2844 7.75683 13.5 6.25 13.5V15.5ZM4 17.75C4 16.5074 5.00736 15.5 6.25 15.5V13.5C3.90279 13.5 2 15.4028 2 17.75H4Z" fill="currentColor"/>
</svg>
