<svg width="24" height="24" viewBox="0 0 24 24" fill="none" xmlns="http://www.w3.org/2000/svg">
<path fill-rule="evenodd" clip-rule="evenodd" d="M8 2H12V7C12 8.65685 13.3431 10 15 10H20V18C20 20.2091 18.2091 22 16 22H8C5.79086 22 4 20.2091 4 18V6C4 3.79086 5.79086 2 8 2ZM9.5 16.5C9.5 15.9477 9.05228 15.5 8.5 15.5C7.94772 15.5 7.5 15.9477 7.5 16.5V18C7.5 18.5523 7.94772 19 8.5 19C9.05228 19 9.5 18.5523 9.5 18V16.5ZM12 12.5C12.5523 12.5 13 12.9477 13 13.5V18C13 18.5523 12.5523 19 12 19C11.4477 19 11 18.5523 11 18V13.5C11 12.9477 11.4477 12.5 12 12.5ZM16.5 15.5C16.5 14.9477 16.0523 14.5 15.5 14.5C14.9477 14.5 14.5 14.9477 14.5 15.5V18C14.5 18.5523 14.9477 19 15.5 19C16.0523 19 16.5 18.5523 16.5 18V15.5Z" fill="currentColor" style="fill:currentColor;fill-opacity:1;"/>
<path d="M14 2.58579L19.4142 8H15C14.4477 8 14 7.55228 14 7V2.58579Z" fill="currentColor" style="fill:currentColor;fill-opacity:1;"/>
</svg>
