<svg width="24" height="24" viewBox="0 0 24 24" fill="none" xmlns="http://www.w3.org/2000/svg">
<path d="M13 3H8C5.79086 3 4 4.79086 4 7V12H20V10H16C14.3431 10 13 8.65685 13 7V3Z" fill="currentColor" style="fill:currentColor;fill-opacity:1;"/>
<path d="M19.8834 8C19.7442 7.51572 19.484 7.06977 19.1213 6.70711L16.2929 3.87868C15.9302 3.51602 15.4843 3.2558 15 3.11664V7C15 7.55228 15.4477 8 16 8H19.8834Z" fill="currentColor" style="fill:currentColor;fill-opacity:1;"/>
<path fill-rule="evenodd" clip-rule="evenodd" d="M3 15C3 14.4477 3.44772 14 4 14H5.75C7.13071 14 8.25 15.1193 8.25 16.5C8.25 17.8807 7.13071 19 5.75 19H5V20C5 20.5523 4.55228 21 4 21C3.44772 21 3 20.5523 3 20V15ZM5 17H5.75C6.02614 17 6.25 16.7761 6.25 16.5C6.25 16.2239 6.02614 16 5.75 16H5V17Z" fill="currentColor" style="fill:currentColor;fill-opacity:1;"/>
<path fill-rule="evenodd" clip-rule="evenodd" d="M9 15C9 14.4477 9.44772 14 10 14H11.25C11.916 14 12.822 14.149 13.5931 14.6728C14.4211 15.2352 15 16.1709 15 17.5C15 18.8291 14.4211 19.7648 13.5931 20.3272C12.822 20.851 11.916 21 11.25 21H10C9.44772 21 9 20.5523 9 20V15ZM11 16V19H11.25C11.6673 19 12.1364 18.899 12.4694 18.6728C12.7456 18.4852 13 18.1709 13 17.5C13 16.8291 12.7456 16.5148 12.4694 16.3272C12.1364 16.101 11.6673 16 11.25 16H11Z" fill="currentColor" style="fill:currentColor;fill-opacity:1;"/>
<path fill-rule="evenodd" clip-rule="evenodd" d="M16 15C16 14.4477 16.4477 14 17 14H20C20.5523 14 21 14.4477 21 15C21 15.5523 20.5523 16 20 16H18V17H19C19.5523 17 20 17.4477 20 18C20 18.5523 19.5523 19 19 19H18V20C18 20.5523 17.5523 21 17 21C16.4477 21 16 20.5523 16 20V15Z" fill="currentColor" style="fill:currentColor;fill-opacity:1;"/>
</svg>
