<svg xmlns="http://www.w3.org/2000/svg" viewBox="0 0 24 24" fill="none">
<path d="M12 7C12 8.65685 13.3431 10 15 10H20V18C20 20.2091 18.2091 22 16 22H8.54297L8.94727 20.9473L10.3447 20.4102C11.342 20.0265 12 19.0685 12 18C12 16.9315 11.342 15.9735 10.3447 15.5898L8.94727 15.0518L8.41016 13.6553L8.33203 13.4727C7.90685 12.5784 7.00185 12 6 12C5.21035 12 4.48179 12.3601 4 12.9502V6C4 3.79086 5.79086 2 8 2H12V7Z" fill="currentColor"/><path d="M9.13574 17.2666L9.62695 17.4561L7.81445 16.7598L9.13574 17.2666Z" fill="currentColor"/><path d="M19.4141 8H15C14.4477 8 14 7.55228 14 7V2.58594L19.4141 8Z" fill="currentColor"/><path d="M7.24045 16.1852L6.54359 14.3733C6.45708 14.1484 6.24099 14 6 14C5.75901 14 5.54292 14.1484 5.45641 14.3733L4.75955 16.1852C4.65797 16.4493 4.44927 16.658 4.18518 16.7595L2.37334 17.4564C2.14842 17.5429 2 17.759 2 18C2 18.241 2.14842 18.4571 2.37334 18.5436L4.18518 19.2405C4.44927 19.342 4.65797 19.5507 4.75955 19.8148L5.45641 21.6267C5.54292 21.8516 5.75901 22 6 22C6.24099 22 6.45708 21.8516 6.54359 21.6267L7.24045 19.8148C7.34203 19.5507 7.55073 19.342 7.81482 19.2405L9.62666 18.5436C9.85158 18.4571 10 18.241 10 18C10 17.759 9.85188 17.5426 9.62695 17.4561L7.81445 16.7598C7.55036 16.6582 7.34203 16.4493 7.24045 16.1852Z" fill="currentColor"/>
</svg>
