<svg width="24" height="24" viewBox="0 0 24 24" fill="none" xmlns="http://www.w3.org/2000/svg">
<path d="M6.82843 3C4.71405 3 3 4.71405 3 6.82843C3 7.84379 3.40335 8.81756 4.12132 9.53553L8.41421 13.8284C8.78929 14.2035 9 14.7122 9 15.2426V20.057C9 21.4534 10.3947 22.42 11.7022 21.9297L13.7022 21.1797C14.4829 20.8869 15 20.1407 15 19.307V15.2426C15 14.7122 15.2107 14.2035 15.5858 13.8284L19.8787 9.53553C20.5966 8.81756 21 7.84379 21 6.82843C21 4.71405 19.286 3 17.1716 3H6.82843Z" fill="currentColor" style="fill:currentColor;fill-opacity:1;"/>
</svg>
