<svg width="24" height="24" viewBox="0 0 24 24" fill="none" xmlns="http://www.w3.org/2000/svg">
<path fill-rule="evenodd" clip-rule="evenodd" d="M5 4C5.69036 4 6.25 4.55964 6.25 5.25V7.75C6.25 8.44036 5.69036 9 5 9C4.30964 9 3.75 8.44036 3.75 7.75V5.25C3.75 4.55964 4.30964 4 5 4ZM19 4C19.6904 4 20.25 4.55964 20.25 5.25V7.75C20.25 8.44036 19.6904 9 19 9C18.3096 9 17.75 8.44036 17.75 7.75V5.25C17.75 4.55964 18.3096 4 19 4ZM13 5C13.6904 5 14.25 5.55964 14.25 6.25V12.25C14.25 14.0449 12.7949 15.5 11 15.5C10.3096 15.5 9.75 14.9404 9.75 14.25C9.75 13.5596 10.3096 13 11 13C11.4142 13 11.75 12.6642 11.75 12.25V6.25C11.75 5.55964 12.3096 5 13 5ZM5.03668 16.4534C5.47661 15.9214 6.26454 15.8468 6.79657 16.2867C8.6605 17.828 10.3804 18.5 12 18.5C13.6196 18.5 15.3395 17.828 17.2034 16.2867C17.7355 15.8468 18.5234 15.9214 18.9633 16.4534C19.4032 16.9855 19.3286 17.7734 18.7966 18.2133C16.6294 20.0054 14.3649 21 12 21C9.63512 21 7.37064 20.0054 5.20343 18.2133C4.67141 17.7734 4.59675 16.9855 5.03668 16.4534Z" fill="currentColor" style="fill:currentColor;fill-opacity:1;"/>
</svg>
