<svg width="24" height="24" viewBox="0 0 24 24" fill="none" xmlns="http://www.w3.org/2000/svg">
<path fill-rule="evenodd" clip-rule="evenodd" d="M7 3H11.9172C11.0127 6.2598 10.4498 9.53248 10.2517 12.942C10.2357 13.2168 10.3337 13.4861 10.5227 13.6863C10.7116 13.8865 10.9747 14 11.25 14H13.25C13.8023 14 14.25 13.5523 14.25 13C14.25 12.4477 13.8023 12 13.25 12H12.3224C12.5736 8.93399 13.1364 5.9698 13.9959 3H17C19.2091 3 21 4.79086 21 7V17C21 19.2091 19.2091 21 17 21H7C4.79086 21 3 19.2091 3 17V7C3 4.79086 4.79086 3 7 3ZM9 9C9 8.44772 8.55228 8 8 8C7.44772 8 7 8.44772 7 9V10C7 10.5523 7.44772 11 8 11C8.55228 11 9 10.5523 9 10V9ZM17 9C17 8.44772 16.5523 8 16 8C15.4477 8 15 8.44772 15 9V10C15 10.5523 15.4477 11 16 11C16.5523 11 17 10.5523 17 10V9ZM8.5547 14.6679C8.09517 14.3616 7.4743 14.4858 7.16795 14.9453C6.8616 15.4048 6.98577 16.0257 7.4453 16.3321C9.01915 17.3813 10.4664 18 12 18C13.5336 18 14.9809 17.3813 16.5547 16.3321C17.0142 16.0257 17.1384 15.4048 16.8321 14.9453C16.5257 14.4858 15.9048 14.3616 15.4453 14.6679C14.0191 15.6187 12.9664 16 12 16C11.0336 16 9.98085 15.6187 8.5547 14.6679Z" fill="currentColor" style="fill:currentColor;fill-opacity:1;"/>
</svg>
