<svg xmlns="http://www.w3.org/2000/svg" viewBox="0 0 24 24" fill="none">
<path fill-rule="evenodd" clip-rule="evenodd" d="M9.25186 1.5C10.7706 1.50005 12.0019 2.73125 12.0019 4.25V5H13.6855C13.9514 4.42239 14.4851 3.98706 15.1444 3.86719L18.6444 3.23047C19.8719 3.00755 21.0019 3.95058 21.0019 5.19824V6.80176C21.0019 8.04942 19.8719 8.99245 18.6444 8.76953L15.1444 8.13281C14.4851 8.01294 13.9514 7.57761 13.6855 7H12.0019V8.12598C13.7271 8.57005 15.0019 10.1362 15.0019 12V18C15.0019 20.2091 13.211 21.9999 11.0019 22C8.79272 22 7.00186 20.2091 7.00186 18V12C7.00186 10.1362 8.27662 8.57002 10.0019 8.12598V7C7.95823 7.01118 6.20765 8.37646 5.65518 10.2793C5.50098 10.8093 4.9461 11.1138 4.41592 10.96C3.88587 10.8058 3.58132 10.2509 3.73526 9.7207C4.23569 7.99767 5.41686 6.58076 6.95694 5.7627C6.67017 5.32854 6.50186 4.80925 6.50186 4.25C6.50186 2.73122 7.73307 1.5 9.25186 1.5ZM9.25186 3.5C8.83764 3.5 8.50186 3.83579 8.50186 4.25C8.50186 4.66421 8.83764 5 9.25186 5H10.0019V4.25C10.0019 3.83582 9.66603 3.50005 9.25186 3.5Z" fill="currentColor"/>
</svg>
