<svg width="24" height="24" viewBox="0 0 24 24" fill="none" xmlns="http://www.w3.org/2000/svg">
<path d="M12 21.0004C16.1421 21.0004 19.5 17.5004 19.5 13.0004C19.5 7.99775 15.0793 4.44452 13.264 3.19636C12.8382 2.90352 12.2732 3.02931 11.9768 3.45273L9.66151 6.76027C9.31641 7.25326 8.60985 7.31513 8.18433 6.88961C7.80639 6.51167 7.18966 6.50932 6.85063 6.92254C5.28354 8.83257 4.5 11.2122 4.5 13.0004C4.5 17.5004 7.85786 21.0004 12 21.0004ZM12 21.0004C13.6569 21.0004 15 19.4673 15 17.576C15 15.4929 13.3369 13.9752 12.4872 13.3358C12.1953 13.1161 11.8047 13.1161 11.5128 13.3358C10.6631 13.9752 9 15.4929 9 17.576C9 19.4673 10.3431 21.0004 12 21.0004Z" stroke="currentColor" stroke-width="2" stroke-linejoin="round"/>
</svg>
