<svg xmlns="http://www.w3.org/2000/svg" viewBox="0 0 24 24" fill="none">
<path d="M3.41677 12.0234C3.18585 9.8264 4.7797 7.85815 6.97674 7.62724L8.96579 7.41818C11.1628 7.18726 13.1311 8.78112 13.362 10.9782L13.9925 16.9772C14.2234 19.1743 12.6296 21.1425 10.4325 21.3734L8.4435 21.5825C6.24646 21.8134 4.27821 20.2196 4.0473 18.0225L3.41677 12.0234Z" fill="currentColor"/><path d="M10.7633 5.86303C11.0495 3.72565 12.9847 2.19098 15.1432 2.41772L17.1324 2.6267C19.3295 2.85762 20.9229 4.82615 20.692 7.02319L20.0621 13.0222C19.8311 15.2191 17.8626 16.8127 15.6656 16.5818L15.6598 16.5808L15.0524 10.8005C14.7949 8.35102 13.0222 6.42657 10.7633 5.86303Z" fill="currentColor"/>
</svg>
