<svg width="24" height="24" viewBox="0 0 24 24" fill="none" xmlns="http://www.w3.org/2000/svg">
<path d="M8 4V7C8 7.55228 8.44772 8 9 8H15C15.5523 8 16 7.55228 16 7V4M20 8.24264V17C20 18.6569 18.6569 20 17 20H7C5.34315 20 4 18.6569 4 17V7C4 5.34315 5.34315 4 7 4H15.7574C16.553 4 17.3161 4.31607 17.8787 4.87868L19.1213 6.12132C19.6839 6.68393 20 7.44699 20 8.24264ZM8 14V19C8 19.5523 8.44772 20 9 20H15C15.5523 20 16 19.5523 16 19V14C16 13.4477 15.5523 13 15 13H9C8.44772 13 8 13.4477 8 14Z" stroke="currentColor" stroke-width="2" stroke-linecap="round" stroke-linejoin="round"/>
</svg>
