<svg xmlns="http://www.w3.org/2000/svg" viewBox="0 0 24 24" fill="none">
<path d="M11.9997 1.78613C14.1818 1.78624 16.071 3.03232 16.9988 4.84668C17.0507 4.94809 17.1558 5.02392 17.2683 5.04199C19.2805 5.36373 21.0491 6.77626 21.7234 8.85156C22.3975 10.9268 21.7969 13.1088 20.3581 14.5518C20.2777 14.6326 20.2379 14.7555 20.2556 14.8682C20.5715 16.8813 19.7747 18.9996 18.0095 20.2822C16.2441 21.5648 13.9828 21.6676 12.1657 20.7451C12.0643 20.6938 11.9352 20.6939 11.8337 20.7451C10.0167 21.6677 7.75537 21.5648 5.98996 20.2822C4.22459 18.9996 3.42797 16.8814 3.74387 14.8682C3.76152 14.7556 3.72164 14.6326 3.64133 14.5518C2.20246 13.1088 1.60192 10.9269 2.27609 8.85156C2.95045 6.77621 4.71888 5.36365 6.73117 5.04199C6.84362 5.02384 6.94879 4.94806 7.0007 4.84668C7.92848 3.03231 9.81757 1.78613 11.9997 1.78613Z" fill="currentColor"/>
</svg>
