<svg width="24" height="24" viewBox="0 0 24 24" fill="none" xmlns="http://www.w3.org/2000/svg">
<path d="M5 7C5 5.89543 5.89543 5 7 5H8C8.55228 5 9 4.55228 9 4C9 3.44772 8.55228 3 8 3H7C4.79086 3 3 4.79086 3 7V8C3 8.55228 3.44772 9 4 9C4.55228 9 5 8.55228 5 8V7Z" fill="currentColor" style="fill:currentColor;fill-opacity:1;"/>
<path d="M16 3C15.4477 3 15 3.44772 15 4C15 4.55228 15.4477 5 16 5H17C18.1046 5 19 5.89543 19 7V8C19 8.55228 19.4477 9 20 9C20.5523 9 21 8.55228 21 8V7C21 4.79086 19.2091 3 17 3H16Z" fill="currentColor" style="fill:currentColor;fill-opacity:1;"/>
<path d="M5 16C5 15.4477 4.55228 15 4 15C3.44772 15 3 15.4477 3 16V17C3 19.2091 4.79086 21 7 21H8C8.55228 21 9 20.5523 9 20C9 19.4477 8.55228 19 8 19H7C5.89543 19 5 18.1046 5 17V16Z" fill="currentColor" style="fill:currentColor;fill-opacity:1;"/>
<path d="M21 16C21 15.4477 20.5523 15 20 15C19.4477 15 19 15.4477 19 16V17C19 18.1046 18.1046 19 17 19H16C15.4477 19 15 19.4477 15 20C15 20.5523 15.4477 21 16 21H17C19.2091 21 21 19.2091 21 17V16Z" fill="currentColor" style="fill:currentColor;fill-opacity:1;"/>
<path d="M12.8 8.60006C13.1314 8.15823 13.0418 7.53143 12.6 7.20006C12.1582 6.86869 11.5314 6.95823 11.2 7.40006L8.20001 11.4001C7.97274 11.7031 7.93619 12.1085 8.10558 12.4473C8.27497 12.7861 8.62123 13.0001 9.00001 13.0001H13L11.2 15.4001C10.8686 15.8419 10.9582 16.4687 11.4 16.8001C11.8418 17.1314 12.4686 17.0419 12.8 16.6001L15.8 12.6001C16.0273 12.297 16.0638 11.8916 15.8944 11.5528C15.725 11.2141 15.3788 11.0001 15 11.0001H11L12.8 8.60006Z" fill="currentColor" style="fill:currentColor;fill-opacity:1;"/>
</svg>
