<svg width="24" height="24" viewBox="0 0 24 24" fill="none" xmlns="http://www.w3.org/2000/svg">
<path d="M7 5C5.89543 5 5 5.89543 5 7V8C5 8.55228 4.55228 9 4 9C3.44772 9 3 8.55228 3 8V7C3 4.79086 4.79086 3 7 3H8C8.55228 3 9 3.44772 9 4C9 4.55228 8.55228 5 8 5H7Z" fill="currentColor" style="fill:currentColor;fill-opacity:1;"/>
<path d="M15 4C15 3.44772 15.4477 3 16 3H17C19.2091 3 21 4.79086 21 7V8C21 8.55228 20.5523 9 20 9C19.4477 9 19 8.55228 19 8V7C19 5.89543 18.1046 5 17 5H16C15.4477 5 15 4.55228 15 4Z" fill="currentColor" style="fill:currentColor;fill-opacity:1;"/>
<path d="M4 15C4.55228 15 5 15.4477 5 16V17C5 18.1046 5.89543 19 7 19H8C8.55228 19 9 19.4477 9 20C9 20.5523 8.55228 21 8 21H7C4.79086 21 3 19.2091 3 17V16C3 15.4477 3.44772 15 4 15Z" fill="currentColor" style="fill:currentColor;fill-opacity:1;"/>
<path d="M20 15C20.5523 15 21 15.4477 21 16V17C21 19.2091 19.2091 21 17 21H16C15.4477 21 15 20.5523 15 20C15 19.4477 15.4477 19 16 19H17C18.1046 19 19 18.1046 19 17V16C19 15.4477 19.4477 15 20 15Z" fill="currentColor" style="fill:currentColor;fill-opacity:1;"/>
<path d="M13 14.6152C14.5856 14.1776 15.75 12.7248 15.75 11V8.75C15.75 8.49789 15.6233 8.26265 15.4129 8.12387C15.2024 7.98509 14.9363 7.96133 14.7046 8.06064L13.4213 8.61062L12.5303 7.71967C12.2374 7.42678 11.7626 7.42678 11.4697 7.71967L10.5787 8.61062L9.29544 8.06064C9.06372 7.96133 8.7976 7.98509 8.58713 8.12387C8.37666 8.26265 8.25 8.49789 8.25 8.75V11C8.25 12.7248 9.41441 14.1776 11 14.6152V16C11 16.5523 11.4477 17 12 17C12.5523 17 13 16.5523 13 16V14.6152Z" fill="currentColor" style="fill:currentColor;fill-opacity:1;"/>
</svg>
