<svg width="24" height="24" viewBox="0 0 24 24" fill="none" xmlns="http://www.w3.org/2000/svg">
<path d="M5 7C5 5.89543 5.89543 5 7 5H8C8.55228 5 9 4.55228 9 4C9 3.44772 8.55228 3 8 3H7C4.79086 3 3 4.79086 3 7V8C3 8.55228 3.44772 9 4 9C4.55228 9 5 8.55228 5 8V7Z" fill="currentColor" style="fill:currentColor;fill-opacity:1;"/>
<path d="M16 3C15.4477 3 15 3.44772 15 4C15 4.55228 15.4477 5 16 5H17C18.1046 5 19 5.89543 19 7V8C19 8.55228 19.4477 9 20 9C20.5523 9 21 8.55228 21 8V7C21 4.79086 19.2091 3 17 3H16Z" fill="currentColor" style="fill:currentColor;fill-opacity:1;"/>
<path d="M5 16C5 15.4477 4.55228 15 4 15C3.44772 15 3 15.4477 3 16V17C3 19.2091 4.79086 21 7 21H8C8.55228 21 9 20.5523 9 20C9 19.4477 8.55228 19 8 19H7C5.89543 19 5 18.1046 5 17V16Z" fill="currentColor" style="fill:currentColor;fill-opacity:1;"/>
<path d="M21 16C21 15.4477 20.5523 15 20 15C19.4477 15 19 15.4477 19 16V17C19 18.1046 18.1046 19 17 19H16C15.4477 19 15 19.4477 15 20C15 20.5523 15.4477 21 16 21H17C19.2091 21 21 19.2091 21 17V16Z" fill="currentColor" style="fill:currentColor;fill-opacity:1;"/>
<path d="M12.4081 9.06623C12.3598 9.16299 12.2813 9.24145 12.1845 9.28983L10.8947 9.93475C10.5262 10.119 10.5262 10.6449 10.8947 10.8292L12.1845 11.4741C12.2813 11.5225 12.3598 11.6009 12.4081 11.6977L13.0531 12.9875C13.2373 13.3561 13.7632 13.3561 13.9475 12.9875L14.5924 11.6977C14.6408 11.6009 14.7192 11.5225 14.816 11.4741L16.1058 10.8292C16.4744 10.6449 16.4744 10.119 16.1058 9.93475L14.816 9.28983C14.7192 9.24145 14.6408 9.16299 14.5924 9.06623L13.9475 7.77639C13.7632 7.40787 13.2373 7.40787 13.0531 7.77639L12.4081 9.06623Z" fill="currentColor" style="fill:currentColor;fill-opacity:1;"/>
<path d="M8.71166 13.4592C8.68263 13.5172 8.63556 13.5643 8.5775 13.5934L7.53693 14.1136C7.31581 14.2242 7.31582 14.5397 7.53693 14.6503L8.5775 15.1706C8.63556 15.1996 8.68263 15.2467 8.71166 15.3047L9.23195 16.3453C9.3425 16.5664 9.65804 16.5664 9.7686 16.3453L10.2889 15.3047C10.3179 15.2467 10.365 15.1996 10.423 15.1706L11.4636 14.6503C11.6847 14.5397 11.6847 14.2242 11.4636 14.1136L10.423 13.5934C10.365 13.5643 10.3179 13.5172 10.2889 13.4592L9.7686 12.4186C9.65804 12.1975 9.3425 12.1975 9.23194 12.4186L8.71166 13.4592Z" fill="currentColor" style="fill:currentColor;fill-opacity:1;"/>
</svg>
