<svg width="24" height="24" viewBox="0 0 24 24" fill="none" xmlns="http://www.w3.org/2000/svg">
<path d="M14 21V20C14 18.8954 14.8954 18 16 18C17.1046 18 18 17.1046 18 16V14.0662C18 13.7149 18.1843 13.3894 18.4855 13.2087L19.6007 12.5396C20.0903 12.2458 20.2342 11.6026 19.9072 11.1346C18.9899 9.82186 18.1817 8.73341 17.5555 7.13279C16.4738 4.36784 13.8499 3 11 3C7.13401 3 4 6.13401 4 10C4 11.6287 4.55625 13.1275 5.48913 14.3168C7.1347 16.4146 7 18.4758 7 21" stroke="currentColor" style="stroke:currentColor;stroke-opacity:1;" stroke-width="2" stroke-linecap="round" stroke-linejoin="round"/>
<path d="M11 2.5C11 1.94772 10.5523 1.5 10 1.5C9.44772 1.5 9 1.94772 9 2.5H11ZM9 7C9 7.55228 9.44772 8 10 8C10.5523 8 11 7.55228 11 7H9ZM9 2.5V7H11V2.5H9ZM8 7.5V12H10V7.5H8ZM10 7.5V12H12V7.5H10ZM11.5 9V10.5H13.5V9H11.5ZM8.5 10.5V9H6.5V10.5H8.5ZM10 12C9.17157 12 8.5 11.3284 8.5 10.5H6.5C6.5 12.433 8.067 14 10 14V12ZM11.5 10.5C11.5 11.3284 10.8284 12 10 12V14C11.933 14 13.5 12.433 13.5 10.5H11.5ZM10 7.5C10.8284 7.5 11.5 8.17157 11.5 9H13.5C13.5 7.067 11.933 5.5 10 5.5V7.5ZM10 5.5C8.067 5.5 6.5 7.067 6.5 9H8.5C8.5 8.17157 9.17157 7.5 10 7.5V5.5Z" fill="currentColor" style="fill:currentColor;fill-opacity:1;"/>
</svg>
