<svg width="24" height="24" viewBox="0 0 24 24" fill="none" xmlns="http://www.w3.org/2000/svg">
<path d="M5 7C5 5.89543 5.89543 5 7 5H8C8.55228 5 9 4.55228 9 4C9 3.44772 8.55228 3 8 3H7C4.79086 3 3 4.79086 3 7V8C3 8.55228 3.44772 9 4 9C4.55228 9 5 8.55228 5 8V7Z" fill="currentColor" style="fill:currentColor;fill-opacity:1;"/>
<path d="M16 3C15.4477 3 15 3.44772 15 4C15 4.55228 15.4477 5 16 5H17C18.1046 5 19 5.89543 19 7V8C19 8.55228 19.4477 9 20 9C20.5523 9 21 8.55228 21 8V7C21 4.79086 19.2091 3 17 3H16Z" fill="currentColor" style="fill:currentColor;fill-opacity:1;"/>
<path d="M5 16C5 15.4477 4.55228 15 4 15C3.44772 15 3 15.4477 3 16V17C3 19.2091 4.79086 21 7 21H8C8.55228 21 9 20.5523 9 20C9 19.4477 8.55228 19 8 19H7C5.89543 19 5 18.1046 5 17V16Z" fill="currentColor" style="fill:currentColor;fill-opacity:1;"/>
<path d="M21 16C21 15.4477 20.5523 15 20 15C19.4477 15 19 15.4477 19 16V17C19 18.1046 18.1046 19 17 19H16C15.4477 19 15 19.4477 15 20C15 20.5523 15.4477 21 16 21H17C19.2091 21 21 19.2091 21 17V16Z" fill="currentColor" style="fill:currentColor;fill-opacity:1;"/>
<path fill-rule="evenodd" clip-rule="evenodd" d="M12.9104 8.8362C12.7481 8.4792 12.3921 8.25 12 8.25C11.6079 8.25 11.2519 8.4792 11.0896 8.8362L8.58963 14.3362C8.3611 14.839 8.58342 15.4318 9.0862 15.6604C9.58898 15.8889 10.1818 15.6666 10.4104 15.1638L10.8257 14.25H13.1743L13.5896 15.1638C13.8182 15.6666 14.411 15.8889 14.9138 15.6604C15.4166 15.4318 15.6389 14.839 15.4104 14.3362L12.9104 8.8362ZM12.2652 12.25H11.7348L12 11.6666L12.2652 12.25Z" fill="currentColor" style="fill:currentColor;fill-opacity:1;"/>
</svg>
