<svg width="24" height="24" viewBox="0 0 24 24" fill="none" xmlns="http://www.w3.org/2000/svg">
<path fill-rule="evenodd" clip-rule="evenodd" d="M2 7C2 4.79086 3.79086 3 6 3H8.92963C9.93269 3 10.8694 3.5013 11.4258 4.3359L12.2383 5.5547C12.4238 5.8329 12.736 6 13.0704 6H18C20.2091 6 22 7.79086 22 10V16C22 18.2091 20.2091 20 18 20H10V14C10 12.3431 8.65685 11 7 11H2V7Z" fill="currentColor" style="fill:currentColor;fill-opacity:1;"/>
<path fill-rule="evenodd" clip-rule="evenodd" d="M1 15C1 13.8954 1.89543 13 3 13H6C7.10457 13 8 13.8954 8 15V20C8 20.3603 7.80621 20.6927 7.4927 20.8702C7.17919 21.0477 6.79444 21.0429 6.4855 20.8575L4.5 19.6662L2.5145 20.8575C2.20556 21.0429 1.82081 21.0477 1.5073 20.8702C1.19379 20.6927 1 20.3603 1 20V15ZM6 15H3V18.2338L3.9855 17.6425C4.30219 17.4525 4.69781 17.4525 5.0145 17.6425L6 18.2338V15Z" fill="currentColor" style="fill:currentColor;fill-opacity:1;"/>
</svg>
