<svg xmlns="http://www.w3.org/2000/svg" viewBox="0 0 24 24" fill="none">
<path d="M8.92969 3C9.93273 3.00002 10.8694 3.50136 11.4258 4.33594L12.2383 5.55469C12.4237 5.83287 12.736 5.99998 13.0703 6H18C20.2091 6 22 7.79086 22 10V16C22 18.2091 20.2091 20 18 20H7.92676L7.94727 19.9473L9.34473 19.4102C10.342 19.0265 11 18.0685 11 17C11 15.9315 10.342 14.9735 9.34473 14.5898L7.94727 14.0518L7.41016 12.6553L7.33203 12.4727C6.90685 11.5784 6.00185 11 5 11C3.99815 11 3.09315 11.5784 2.66797 12.4727L2.58984 12.6553L2.05176 14.0518L2 14.0713V7C2 4.79086 3.79086 3 6 3H8.92969Z" fill="currentColor"/><path d="M8.13574 16.2666L8.62695 16.4561L6.81445 15.7598L8.13574 16.2666Z" fill="currentColor"/><path d="M6.24045 15.1852L5.54359 13.3733C5.45708 13.1484 5.24099 13 5 13C4.75901 13 4.54292 13.1484 4.45641 13.3733L3.75955 15.1852C3.65797 15.4493 3.44927 15.658 3.18518 15.7595L1.37334 16.4564C1.14842 16.5429 1 16.759 1 17C1 17.241 1.14842 17.4571 1.37334 17.5436L3.18518 18.2405C3.44927 18.342 3.65797 18.5507 3.75955 18.8148L4.45641 20.6267C4.54292 20.8516 4.75901 21 5 21C5.24099 21 5.45708 20.8516 5.54359 20.6267L6.24045 18.8148C6.34203 18.5507 6.55073 18.342 6.81482 18.2405L8.62666 17.5436C8.85158 17.4571 9 17.241 9 17C9 16.759 8.85188 16.5426 8.62695 16.4561L6.81445 15.7598C6.55036 15.6582 6.34203 15.4493 6.24045 15.1852Z" fill="currentColor"/>
</svg>
