<svg width="24" height="24" viewBox="0 0 24 24" fill="none" xmlns="http://www.w3.org/2000/svg">
<path d="M3.00001 9V7C3.00001 5.34315 4.34315 4 6.00001 4H8.92964C9.59834 4 10.2228 4.3342 10.5937 4.8906L11.4063 6.1094C11.7772 6.6658 12.4017 7 13.0704 7H18C19.6569 7 21 8.34315 21 10V16C21 17.6569 19.6569 19 18 19H13M8.82843 18.8284C10.3905 17.2663 10.3905 14.7337 8.82843 13.1716C7.26633 11.6095 4.73367 11.6095 3.17157 13.1716M8.82843 18.8284C7.26633 20.3905 4.73367 20.3905 3.17157 18.8284C1.60948 17.2663 1.60948 14.7337 3.17157 13.1716M8.82843 18.8284L3.17157 13.1716" stroke="currentColor" stroke-width="2" stroke-linecap="round" stroke-linejoin="round"/>
</svg>
