<svg width="24" height="24" viewBox="0 0 24 24" fill="none" xmlns="http://www.w3.org/2000/svg">
<path d="M18 16H19C20.6569 16 22 14.6569 22 13V9C22 7.34315 20.6569 6 19 6H14.8284C14.298 6 13.7893 5.78929 13.4142 5.41421L12.5858 4.58579C12.2107 4.21071 11.702 4 11.1716 4H9C7.34315 4 6 5.34315 6 7M2 17V11C2 9.34315 3.34315 8 5 8H7.17157C7.70201 8 8.21071 8.21071 8.58579 8.58579L9.41421 9.41421C9.78929 9.78929 10.298 10 10.8284 10H15C16.6569 10 18 11.3431 18 13V17C18 18.6569 16.6569 20 15 20H5C3.34315 20 2 18.6569 2 17Z" stroke="currentColor" stroke-width="2" stroke-linecap="round" stroke-linejoin="round"/>
</svg>
