<svg xmlns="http://www.w3.org/2000/svg" viewBox="0 0 24 24" fill="none">
<path d="M20.6625 11C22.7369 11.0001 24.1852 13.0552 23.4877 15.0088L22.4164 18.0088C21.99 19.2026 20.8589 19.9999 19.5912 20H4.40957C3.14202 19.9997 2.01071 19.2025 1.58437 18.0088L0.513081 15.0088C-0.184295 13.0554 1.26413 11.0004 3.33828 11H20.6625Z" fill="currentColor"/><path d="M8.7582 3C9.81879 3.00012 10.8363 3.42198 11.5863 4.17188L11.8285 4.41406C12.2034 4.78892 12.7125 4.99975 13.2426 5H19.0004C20.6572 5 22.0004 6.34315 22.0004 8V9H2.00039V7C2.00039 4.79102 3.79146 3.00026 6.00039 3H8.7582Z" fill="currentColor"/>
</svg>
