<svg xmlns="http://www.w3.org/2000/svg" viewBox="0 0 24 24" fill="none">
<path d="M3 8.5V7C3 5.34315 4.34315 4 6 4H8.75736C9.55301 4 10.3161 4.31607 10.8787 4.87868L11.1213 5.12132C11.6839 5.68393 12.447 6 13.2426 6H18.5C19.8807 6 21 7.11929 21 8.5" stroke="currentColor" stroke-width="2" stroke-linecap="round" stroke-linejoin="round"/><path d="M1.45453 14.6727C0.989352 13.3702 1.95495 12 3.33801 12H20.662C22.0451 12 23.0106 13.3702 22.5455 14.6727L21.474 17.6727C21.1898 18.4687 20.4358 19 19.5906 19H4.40944C3.56421 19 2.81024 18.4687 2.52595 17.6727L1.45453 14.6727Z" stroke="currentColor" stroke-width="2" stroke-linecap="round" stroke-linejoin="round"/>
</svg>
