<svg width="24" height="24" viewBox="0 0 24 24" fill="none" xmlns="http://www.w3.org/2000/svg">
<path d="M17 2.75C15.713 2.75 14.6302 3.4576 13.9043 4.41751C13.1773 5.37891 12.75 6.65607 12.75 8C12.75 10.2729 14.0328 12.3402 16 12.8695V20C16 20.5523 16.4477 21 17 21C17.5523 21 18 20.5523 18 20V12.8695C19.9672 12.3402 21.25 10.2729 21.25 8C21.25 6.65607 20.8227 5.37891 20.0957 4.41751C19.3698 3.4576 18.287 2.75 17 2.75Z" fill="currentColor" style="fill:currentColor;fill-opacity:1;"/>
<path d="M5 4C5 3.44772 4.55228 3 4 3C3.44772 3 3 3.44772 3 4V9C3 10.8638 4.27477 12.4299 6 12.874V20C6 20.5523 6.44772 21 7 21C7.55228 21 8 20.5523 8 20V12.874C9.72523 12.4299 11 10.8638 11 9V4C11 3.44772 10.5523 3 10 3C9.44772 3 9 3.44772 9 4V9C9 10.1046 8.10457 11 7 11C5.89543 11 5 10.1046 5 9V4Z" fill="currentColor" style="fill:currentColor;fill-opacity:1;"/>
<path d="M8 4C8 3.44772 7.55228 3 7 3C6.44772 3 6 3.44772 6 4V9C6 9.55228 6.44772 10 7 10C7.55228 10 8 9.55228 8 9V4Z" fill="currentColor" style="fill:currentColor;fill-opacity:1;"/>
</svg>
