<svg xmlns="http://www.w3.org/2000/svg" viewBox="0 0 24 24" fill="none">
<path d="M18 2C20.2091 2 22 3.79086 22 6C22 7.90046 20.6743 9.48998 18.8975 9.89746C18.49 11.6743 16.9005 13 15 13H13V14.126C14.7252 14.57 16 16.1362 16 18C16 20.2091 14.2091 22 12 22C9.79086 22 8 20.2091 8 18C8 16.1362 9.27477 14.57 11 14.126V13H9C7.09946 13 5.50896 11.6744 5.10156 9.89746C3.32517 9.48964 2 7.90013 2 6C2 3.79086 3.79086 2 6 2C8.20914 2 10 3.79086 10 6C10 7.79885 8.8125 9.32013 7.17871 9.82324C7.49269 10.5168 8.18918 11 9 11H15C15.8107 11 16.5063 10.5166 16.8203 9.82324C15.187 9.31985 14 7.79853 14 6C14 3.79086 15.7909 2 18 2Z" fill="currentColor"/>
</svg>
