<svg xmlns="http://www.w3.org/2000/svg" viewBox="0 0 24 24" fill="none">
<path d="M9.17112 3.16355C10.733 1.60191 13.2653 1.60221 14.8274 3.16355L14.9319 3.26805C15.2878 3.62399 15.7713 3.82444 16.2746 3.82469C18.4279 3.82469 20.1738 5.57087 20.1741 7.7241C20.1742 8.2274 20.3749 8.71087 20.7307 9.06687L20.8352 9.17137C22.397 10.7334 22.397 13.2656 20.8352 14.8276L20.7453 14.9175C20.3825 15.2804 20.1742 15.787 20.1741 16.3081C20.1739 18.4576 18.4337 20.2474 16.261 20.2475C15.7617 20.2477 15.2814 20.4428 14.9241 20.7915L14.7932 20.9194C13.2393 22.4361 10.7592 22.4361 9.2053 20.9194L9.06956 20.7876C8.7124 20.4392 8.22245 20.2351 7.71604 20.2261C5.58171 20.1878 3.82444 18.4481 3.82444 16.2905C3.82431 15.7773 3.61998 15.2843 3.25706 14.9214L3.16331 14.8276C1.60196 13.2655 1.60166 10.7333 3.16331 9.17137L3.2678 9.06687C3.62385 8.71083 3.82432 8.22761 3.82444 7.7241C3.82469 5.57102 5.57078 3.82493 7.72386 3.82469C8.22737 3.82456 8.71058 3.62409 9.06663 3.26805L9.17112 3.16355Z" fill="currentColor"/>
</svg>
