<svg xmlns="http://www.w3.org/2000/svg" viewBox="0 0 24 24" fill="none">
<path d="M12 1.5C12.8365 1.5 13.4534 2.03669 13.8594 2.5791C14.2791 3.13989 14.6185 3.88904 14.8896 4.72852C14.8998 4.75979 14.9255 4.79363 14.9756 4.81445C15.0257 4.83522 15.0683 4.83036 15.0977 4.81543C15.8833 4.41347 16.6531 4.12219 17.3467 4.02246C17.9756 3.93205 18.732 3.97721 19.3115 4.4707L19.4248 4.5752L19.5293 4.68848C20.0229 5.2681 20.0672 6.0246 19.9766 6.65332C19.8766 7.34661 19.5856 8.11604 19.1836 8.90137C19.1687 8.93063 19.1638 8.97326 19.1846 9.02344C19.2054 9.07353 19.2392 9.09926 19.2705 9.10938C20.1103 9.38067 20.86 9.7198 21.4209 10.1396C21.9634 10.5458 22.5 11.1635 22.5 12C22.5 12.8366 21.9634 13.4534 21.4209 13.8594C20.8599 14.2791 20.1103 14.6185 19.2705 14.8896C19.2392 14.8997 19.2054 14.9255 19.1846 14.9756C19.1638 15.0258 19.1696 15.0684 19.1846 15.0977C19.5866 15.8832 19.8767 16.6532 19.9766 17.3467C20.0732 18.0174 20.0164 18.8331 19.4248 19.4248C18.8331 20.0165 18.0174 20.0732 17.3467 19.9766C16.6532 19.8767 15.8832 19.5866 15.0977 19.1846C15.0684 19.1696 15.0258 19.1638 14.9756 19.1846C14.9255 19.2054 14.8997 19.2392 14.8896 19.2705C14.6185 20.1103 14.2791 20.8599 13.8594 21.4209C13.4534 21.9634 12.8366 22.5 12 22.5C11.1635 22.5 10.5458 21.9634 10.1396 21.4209C9.7198 20.86 9.38067 20.1103 9.10938 19.2705C9.09926 19.2392 9.07353 19.2054 9.02344 19.1846C8.97327 19.1638 8.93063 19.1687 8.90137 19.1836C8.11603 19.5856 7.34661 19.8766 6.65332 19.9766C5.98277 20.0732 5.16685 20.0164 4.5752 19.4248C3.98368 18.8333 3.92604 18.0174 4.02246 17.3467C4.12219 16.6531 4.41346 15.8833 4.81543 15.0977C4.83036 15.0683 4.83522 15.0257 4.81445 14.9756C4.79363 14.9255 4.75979 14.8998 4.72852 14.8896C3.88904 14.6185 3.13989 14.2791 2.5791 13.8594C2.03669 13.4534 1.5 12.8365 1.5 12L1.50586 11.8457C1.56673 11.0875 2.06979 10.5214 2.57812 10.1406C3.13894 9.72064 3.88878 9.38075 4.72852 9.10938C4.75984 9.09925 4.79362 9.07357 4.81445 9.02344C4.83524 8.97324 4.83037 8.93067 4.81543 8.90137C4.41365 8.11609 4.12326 7.34658 4.02344 6.65332C3.92697 5.98274 3.9837 5.16669 4.5752 4.5752L4.68848 4.4707C5.26795 3.97725 6.02457 3.93299 6.65332 4.02344C7.34658 4.12325 8.11609 4.41365 8.90137 4.81543C8.93067 4.83037 8.97324 4.83524 9.02344 4.81445C9.07357 4.79362 9.09925 4.75984 9.10938 4.72852C9.38075 3.88878 9.72064 3.13894 10.1406 2.57812C10.5468 2.03588 11.1639 1.5 12 1.5Z" fill="currentColor"/>
</svg>
