<svg xmlns="http://www.w3.org/2000/svg" viewBox="0 0 24 24" fill="none">
<path d="M10.4684 2.05222C11.4482 1.64652 12.5491 1.64647 13.5289 2.05222L17.9508 3.88328C18.9307 4.2893 19.7099 5.06835 20.1158 6.04832L21.9469 10.4702C22.3525 11.45 22.3526 12.551 21.9469 13.5307L20.1158 17.9526C19.7098 18.9326 18.9308 19.7117 17.9508 20.1177L13.5289 21.9487C12.5491 22.3544 11.4482 22.3543 10.4684 21.9487L6.04648 20.1177C5.06651 19.7117 4.28747 18.9325 3.88145 17.9526L2.05039 13.5307C1.64464 12.5509 1.64469 11.45 2.05039 10.4702L3.88145 6.04832C4.28742 5.0682 5.06637 4.28925 6.04648 3.88328L10.4684 2.05222Z" fill="currentColor"/>
</svg>
