<svg xmlns="http://www.w3.org/2000/svg" viewBox="0 0 24 24" fill="none">
<path d="M14.4854 2C15.5462 2.00002 16.5633 2.42175 17.3135 3.17188L20.8281 6.68652C21.5783 7.43665 22 8.45381 22 9.51465V14.4854C22 15.5462 21.5783 16.5633 20.8281 17.3135L17.3135 20.8281C16.5633 21.5783 15.5462 22 14.4854 22H9.51465C8.45381 22 7.43665 21.5783 6.68652 20.8281L3.17188 17.3135C2.42175 16.5633 2.00002 15.5462 2 14.4854V9.51465C2.00002 8.45381 2.42175 7.43665 3.17188 6.68652L6.68652 3.17188C7.43665 2.42175 8.45381 2.00002 9.51465 2H14.4854Z" fill="currentColor"/>
</svg>
