<svg width="25" height="24" viewBox="0 0 25 24" fill="none" xmlns="http://www.w3.org/2000/svg">
<path fill-rule="evenodd" clip-rule="evenodd" d="M21.75 11.0357C21.75 13.6353 20.6561 15.9788 18.9059 17.627C19.4236 18.0851 19.75 18.7544 19.75 19.5C19.75 20.8807 18.6307 22 17.25 22H8.25C6.86929 22 5.75 20.8807 5.75 19.5C5.75 18.7544 6.07638 18.0851 6.59405 17.627C4.84395 15.9788 3.75 13.6353 3.75 11.0357C3.75 6.04963 7.77524 2 12.75 2C17.7248 2 21.75 6.04963 21.75 11.0357ZM16.7628 19C16.7507 19.0002 16.7387 19.0002 16.7266 19H8.77339C8.76133 19.0002 8.74925 19.0002 8.73717 19H8.25C7.97386 19 7.75 19.2239 7.75 19.5C7.75 19.7761 7.97386 20 8.25 20H17.25C17.5261 20 17.75 19.7761 17.75 19.5C17.75 19.2239 17.5261 19 17.25 19H16.7628ZM13.583 6.09703C13.6269 5.96758 13.8731 5.96758 13.9171 6.09703C14.0435 6.46956 14.2449 6.93046 14.5322 7.21777C14.8195 7.50507 15.2804 7.70649 15.653 7.83292C15.7824 7.87685 15.7824 8.12309 15.653 8.16702C15.2804 8.29345 14.8195 8.49487 14.5322 8.78217C14.2449 9.06948 14.0435 9.53038 13.9171 9.90291C13.8731 10.0324 13.6269 10.0324 13.583 9.90291C13.4566 9.53038 13.2551 9.06948 12.9678 8.78217C12.6805 8.49487 12.2196 8.29345 11.8471 8.16702C11.7176 8.12309 11.7176 7.87685 11.8471 7.83292C12.2196 7.70649 12.6805 7.50507 12.9678 7.21777C13.2551 6.93046 13.4566 6.46956 13.583 6.09703ZM16.0621 9.35922C16.1115 9.21359 16.3885 9.21359 16.4379 9.35922C16.5802 9.77831 16.8068 10.2968 17.13 10.62C17.4532 10.9432 17.9717 11.1698 18.3908 11.3121C18.5364 11.3615 18.5364 11.6385 18.3908 11.6879C17.9717 11.8302 17.4532 12.0568 17.13 12.38C16.8068 12.7032 16.5802 13.2217 16.4379 13.6408C16.3885 13.7864 16.1115 13.7864 16.0621 13.6408C15.9198 13.2217 15.6932 12.7032 15.37 12.38C15.0468 12.0568 14.5283 11.8302 14.1092 11.6879C13.9636 11.6385 13.9636 11.3615 14.1092 11.3121C14.5283 11.1698 15.0468 10.9432 15.37 10.62C15.6932 10.2968 15.9198 9.77831 16.0621 9.35922Z" fill="currentColor" style="fill:currentColor;fill-opacity:1;"/>
</svg>
