<svg width="24" height="24" viewBox="0 0 24 24" fill="none" xmlns="http://www.w3.org/2000/svg">
<path fill-rule="evenodd" clip-rule="evenodd" d="M4 6C4 3.79086 5.79086 2 8 2H16C18.2091 2 20 3.79086 20 6V10H4V6ZM16 6C16 5.44772 15.5523 5 15 5C14.4477 5 14 5.44772 14 6V7C14 7.55228 14.4477 8 15 8C15.5523 8 16 7.55228 16 7V6Z" fill="currentColor" style="fill:currentColor;fill-opacity:1;"/>
<path fill-rule="evenodd" clip-rule="evenodd" d="M4 12V18C4 20.2091 5.79086 22 8 22H16C18.2091 22 20 20.2091 20 18V12H4ZM15 14C15.5523 14 16 14.4477 16 15V16C16 16.5523 15.5523 17 15 17C14.4477 17 14 16.5523 14 16V15C14 14.4477 14.4477 14 15 14Z" fill="currentColor" style="fill:currentColor;fill-opacity:1;"/>
</svg>
