<svg width="24" height="24" viewBox="0 0 24 24" fill="none" xmlns="http://www.w3.org/2000/svg">
<path d="M12.5717 3C14.4252 3 16.1833 4.31115 16.3451 6.32129L16.3754 6.75977C16.4497 8.03065 16.4056 9.36353 16.1917 10.6527C15.5443 10.5608 14.8736 10.5091 14.1883 10.5011C14.3973 9.34417 14.4503 8.10379 14.3793 6.88281L14.352 6.48145C14.2865 5.66893 13.55 5 12.5717 5H12.1664C12.3918 6.81492 12.3746 8.76056 12.0196 10.6241C11.2698 10.7197 10.5496 10.8689 9.87225 11.0666C10.3698 9.1382 10.4257 7.00028 10.1479 5H7.85197C7.54537 7.20723 7.64623 9.57793 8.29505 11.6504C8.05123 11.7623 7.81639 11.8815 7.59143 12.0078C7.22741 12.2122 6.87183 12.4462 6.53906 12.7095C5.6732 10.2627 5.52331 7.50485 5.83439 5H5.4506C4.52307 5.00019 3.81652 5.59828 3.6879 6.3418L3.67032 6.49316C3.49432 9.17881 3.98884 11.8026 5.30427 14.0015C4.81007 14.7138 4.49975 15.548 4.49975 16.5C4.49975 16.6705 4.5097 16.8371 4.52887 17H2.99943C2.44737 16.9997 1.99943 16.5521 1.99943 16C1.99943 15.4479 2.44737 15.0003 2.99943 15H3.56974C2.02048 12.3951 1.47913 9.35402 1.67521 6.3623L1.69181 6.17285C1.91939 4.2456 3.64623 3.0002 5.4506 3H12.5717Z" fill="currentColor"/>
<path d="M19.375 14.4999C19.375 13.8481 18.9173 13.1427 17.9277 12.5654L17.8803 12.538C16.7229 12.1911 15.3949 12 14 12C12.6051 12 11.2771 12.1911 10.1197 12.538L10.0723 12.5654C9.08269 13.1427 8.625 13.8481 8.625 14.4999C8.625 15.1518 9.08269 15.8572 10.0723 16.4345C11.0466 17.0029 12.4339 17.3749 14 17.3749C15.5661 17.3749 16.9534 17.0029 17.9277 16.4345C18.9173 15.8572 19.375 15.1518 19.375 14.4999Z" fill="currentColor"/>
<path d="M6 16.5C6 15.4085 6.61072 14.5235 7.45177 13.8557C7.40161 14.0629 7.375 14.2779 7.375 14.4999C7.375 15.781 8.26056 16.8252 9.44238 17.5146C10.6396 18.213 12.2524 18.6249 14 18.6249C15.7476 18.6249 17.3604 18.213 18.5576 17.5146C19.7394 16.8252 20.625 15.781 20.625 14.4999C20.625 14.2779 20.5984 14.0629 20.5482 13.8557C21.3893 14.5235 22 15.4085 22 16.5C22 18.0493 20.7695 19.1826 19.3965 19.8691C17.9636 20.5855 16.0544 21 14 21C11.9456 21 10.0364 20.5855 8.60352 19.8691C7.23046 19.1826 6 18.0493 6 16.5Z" fill="currentColor"/>
</svg>
