<svg width="24" height="24" viewBox="0 0 24 24" fill="none" xmlns="http://www.w3.org/2000/svg">
<path fill-rule="evenodd" clip-rule="evenodd" d="M10.9465 8.00456C7.6887 7.90786 4.76328 9.20528 3.90941 11.5436C3.62525 12.3218 2.76407 12.7223 1.9859 12.4381C1.20773 12.154 0.807253 11.2928 1.09141 10.5146C2.61253 6.34897 7.28712 4.89462 11.0355 5.00588C12.9732 5.06339 14.9175 5.52869 16.4302 6.43471C17.955 7.34801 19.2004 8.83021 19.2004 10.8604C19.2004 12.1403 18.5748 13.1339 17.762 13.8117C16.9778 14.4657 15.9924 14.8597 15.0579 15.0695C14.1147 15.2812 13.1117 15.3307 12.2151 15.2054C11.3851 15.0893 10.3505 14.7806 9.68049 13.9981C9.06111 13.2748 9.1318 12.3909 9.46459 11.7884C9.49992 11.7244 9.53814 11.663 9.57891 11.604C8.95958 11.7457 8.46714 11.9778 8.16021 12.2338C7.87843 12.4688 7.80041 12.6723 7.80041 12.8811C7.80041 13.5644 8.19925 14.2629 9.2436 14.886C10.2926 15.5119 11.8007 15.921 13.4292 15.9896C15.054 16.058 16.6496 15.781 17.8671 15.1877C19.0644 14.6042 19.802 13.7735 20.0352 12.7094C20.2125 11.9002 21.0122 11.3879 21.8214 11.5652C22.6307 11.7425 23.1429 12.5423 22.9657 13.3515C22.4863 15.5395 20.9677 17.014 19.1814 17.8845C17.4153 18.7452 15.2999 19.071 13.3029 18.9869C11.3095 18.9029 9.2848 18.404 7.70644 17.4623C6.12344 16.5178 4.80041 14.989 4.80041 12.8811C4.80041 11.6012 5.42605 10.6076 6.23886 9.92977C7.02305 9.27581 8.00844 8.88184 8.94294 8.67208C9.88619 8.46035 10.8892 8.41085 11.7857 8.53623C12.6157 8.6523 13.6503 8.96104 14.3203 9.74353C14.9397 10.4669 14.869 11.3507 14.5362 11.9532C14.5009 12.0172 14.4627 12.0786 14.422 12.1375C15.0413 11.9958 15.5337 11.7637 15.8406 11.5078C16.1224 11.2728 16.2004 11.0692 16.2004 10.8604C16.2004 10.2233 15.8427 9.57983 14.8886 9.00837C13.9224 8.42963 12.512 8.05102 10.9465 8.00456Z" fill="currentColor" style="fill:currentColor;fill-opacity:1;"/>
</svg>
