<svg xmlns="http://www.w3.org/2000/svg" viewBox="0 0 24 24" fill="none">
<path fill-rule="evenodd" clip-rule="evenodd" d="M13.1357 4C14.2573 4 15.1524 3.99935 15.8828 4.05273C16.6256 4.10705 17.2663 4.22102 17.8769 4.48145C18.8717 4.90586 19.7338 5.59096 20.371 6.46484C20.7621 7.0012 21.0163 7.59993 21.2363 8.31152C21.4525 9.01121 21.653 9.88366 21.9052 10.9766L22.9384 15.4521C23.3579 17.2697 22.379 19.1198 20.6406 19.7959C18.8688 20.4848 16.8613 19.7408 15.9667 18.0635L15.6943 17.5527C15.5128 17.2127 15.1589 17 14.7734 17H9.22651C8.84105 17 8.48708 17.2127 8.30561 17.5527L8.03315 18.0635C7.13856 19.7408 5.13107 20.4848 3.35932 19.7959C1.62094 19.1198 0.642051 17.2696 1.06147 15.4521L2.09467 10.9766C2.34689 9.88363 2.54735 9.01122 2.76362 8.31152C2.98359 7.5999 3.23779 7.00122 3.62885 6.46484C4.26604 5.59092 5.12822 4.90589 6.12299 4.48145C6.73357 4.22099 7.37427 4.10706 8.11713 4.05273C8.84753 3.99934 9.74258 4 10.8642 4H13.1357ZM8.49995 7.85059C8.03059 7.85069 7.65034 8.23082 7.65034 8.7002V9.65039H6.70014C6.23077 9.65039 5.85064 10.0306 5.85053 10.5C5.85053 10.9694 6.2307 11.3506 6.70014 11.3506H7.65034V12.2998C7.65034 12.7692 8.03059 13.1503 8.49995 13.1504C8.96939 13.1504 9.35053 12.7692 9.35053 12.2998V11.3506H10.2998C10.7692 11.3506 11.1503 10.9694 11.1503 10.5C11.1502 10.0306 10.7691 9.65039 10.2998 9.65039H9.35053V8.7002C9.35053 8.23075 8.96939 7.85059 8.49995 7.85059ZM16.9999 10.7002C16.3372 10.7002 15.7998 11.2376 15.7998 11.9004C15.7998 12.5631 16.3372 13.1006 16.9999 13.1006C17.6626 13.1006 18.2001 12.5631 18.2001 11.9004C18.2001 11.2377 17.6627 10.7002 16.9999 10.7002ZM14.9999 7.90039C14.3373 7.90039 13.8 8.43705 13.7998 9.09961C13.7998 9.76235 14.3372 10.2998 14.9999 10.2998C15.6627 10.2998 16.2001 9.76233 16.2001 9.09961C16.1999 8.43707 15.6625 7.90042 14.9999 7.90039Z" fill="currentColor"/>
</svg>
