<svg width="24" height="24" viewBox="0 0 24 24" fill="none" xmlns="http://www.w3.org/2000/svg">
<path fill-rule="evenodd" clip-rule="evenodd" d="M9.9142 3.60274C11.1946 2.82025 12.8053 2.82024 14.0858 3.60274L20.0858 7.26941C21.2748 7.99603 22 9.28907 22 10.6825V16C22 18.2092 20.2091 20 18 20H6C3.79086 20 2 18.2092 2 16V10.6825C2 9.28907 2.72518 7.99603 3.9142 7.26941L9.9142 3.60274ZM8 18H16V16H8V18ZM8 14H16C16 12.8955 15.1046 12 14 12H10C8.89543 12 8 12.8955 8 14Z" fill="currentColor" style="fill:currentColor;fill-opacity:1;"/>
</svg>
