<svg xmlns="http://www.w3.org/2000/svg" viewBox="0 0 24 24" fill="none">
<path d="M11.3984 1.5499C12.6468 1.09902 13.7986 1.9824 14.0957 3.02256C14.6815 5.07327 16.307 6.55177 18.1211 8.36143C19.8529 10.089 21.7274 12.1108 21.9482 15.0938C21.95 15.1171 21.9512 15.1409 21.9512 15.1642C21.9511 16.6348 21.6133 18.529 20.4404 19.9366C19.4503 21.1248 17.9712 21.8402 15.9492 21.7911C16.1658 21.3504 16.3015 20.8659 16.3828 20.3897C16.5715 19.2844 16.5179 17.9875 16.3516 16.7228C16.0189 14.1935 15.1975 11.5243 14.5879 10.2022C14.368 9.72611 13.8034 9.51777 13.3271 9.7374C12.851 9.95706 12.6431 10.5209 12.8623 10.9972C13.3844 12.1292 14.1576 14.6122 14.4678 16.9708C14.6228 18.15 14.6527 19.2323 14.5098 20.0694C14.3622 20.9336 14.0731 21.3184 13.7969 21.463C13.2418 21.7535 12.5136 21.9276 11.7822 21.92C11.0484 21.9123 10.3915 21.7232 9.92676 21.3829C9.74983 21.2512 9.51592 20.902 9.3457 20.1974C9.18278 19.5226 9.11333 18.6672 9.13281 17.7394C9.17227 15.8639 9.56634 13.9074 10.0596 12.838C10.2791 12.3617 10.0719 11.797 9.5957 11.5772C9.11952 11.3578 8.55483 11.5661 8.33496 12.0421C7.69648 13.4264 7.27622 15.6643 7.2334 17.6993C7.21183 18.7265 7.28507 19.7576 7.49902 20.6437C7.59637 21.0466 7.73381 21.4569 7.92578 21.8341C6.71345 21.9149 5.52379 21.6323 4.52539 20.9913C3.02145 20.0257 2.05083 18.3146 2.05078 16.0968C2.05078 14.5017 2.36933 13.2165 2.90918 12.1417C3.44666 11.0717 4.17952 10.2588 4.93848 9.57822C5.66574 8.92612 6.5139 8.31893 7.16602 7.79697C7.85825 7.24289 8.42774 6.71463 8.84082 6.09092C9.08491 5.72191 9.25456 5.00572 9.27539 4.27646V3.80869C9.3042 3.02679 9.73596 2.15106 10.6455 1.82236L11.3984 1.5499Z" fill="currentColor"/>
</svg>
