<svg xmlns="http://www.w3.org/2000/svg" viewBox="0 0 24 24" fill="none">
<path fill-rule="evenodd" clip-rule="evenodd" d="M12.0015 2C16.4729 2.00025 19.9453 5.66301 20.0318 10.0635C20.0912 13.0887 20.3276 16.0264 21.0015 18.957C21.343 20.4424 19.9566 21.8753 18.4077 21.3838L16.4966 20.7773C16.0569 20.6377 15.5817 20.6541 15.1529 20.8242L12.7398 21.7832C12.2659 21.9714 11.7371 21.9713 11.2632 21.7832L8.85012 20.8242C8.42134 20.654 7.9461 20.6378 7.50637 20.7773L5.59524 21.3838C4.04617 21.8757 2.65991 20.4425 3.00149 18.957C3.67532 16.0265 3.91178 13.0887 3.97121 10.0635C4.05766 5.66286 7.52982 2 12.0015 2ZM9.70071 7.5C8.98284 7.50018 8.4009 8.39554 8.4009 9.5C8.4009 10.6045 8.98284 11.4998 9.70071 11.5C10.4187 11.5 11.0005 10.6046 11.0005 9.5C11.0005 8.39543 10.4187 7.5 9.70071 7.5ZM14.3013 7.5C13.5833 7.5 13.0015 8.39543 13.0015 9.5C13.0015 10.6046 13.5833 11.5 14.3013 11.5C15.0191 11.4998 15.6011 10.6044 15.6011 9.5C15.6011 8.39557 15.0191 7.50022 14.3013 7.5Z" fill="currentColor"/>
</svg>
