<svg xmlns="http://www.w3.org/2000/svg" viewBox="0 0 24 24" fill="none">
<path d="M10.9984 9.5C10.9984 10.6046 10.4164 11.5 9.69844 11.5C8.98047 11.5 8.39844 10.6046 8.39844 9.5C8.39844 8.39543 8.98047 7.5 9.69844 7.5C10.4164 7.5 10.9984 8.39543 10.9984 9.5Z" fill="currentColor"/><ellipse cx="14.3" cy="9.5" rx="1.3" ry="2" fill="currentColor"/><path d="M7.20371 19.8241L5.29313 20.431C4.5298 20.6735 3.79713 19.962 3.97661 19.1814C4.67168 16.1587 4.91166 13.1458 4.97182 10.0828C5.04826 6.19129 8.10953 3 12.0018 3C15.8941 3 18.9554 6.19129 19.0318 10.0828C19.092 13.1458 19.3319 16.1587 20.027 19.1814C20.2065 19.962 19.4738 20.6735 18.7105 20.431L16.7999 19.8241C16.1401 19.6145 15.428 19.6396 14.7846 19.8951L12.3708 20.8535C12.1338 20.9476 11.8698 20.9476 11.6328 20.8535L9.21903 19.8951C8.57557 19.6396 7.86354 19.6145 7.20371 19.8241Z" stroke="currentColor" stroke-width="2" stroke-linejoin="round"/>
</svg>
