<svg width="24" height="24" viewBox="0 0 24 24" fill="none" xmlns="http://www.w3.org/2000/svg">
<path fill-rule="evenodd" clip-rule="evenodd" d="M6 4C3.79086 4 2 5.79086 2 8V16C2 18.2091 3.79086 20 6 20H18C20.2091 20 22 18.2091 22 16V8C22 5.79086 20.2091 4 18 4H6ZM5.99934 12.287C5.99934 13.8269 6.91879 14.75 8.47871 14.75C9.9129 14.75 10.8323 13.9432 10.8323 12.6904V12.5236C10.8323 11.9457 10.5652 11.6897 9.94826 11.6897H9.14276C8.72626 11.6897 8.51015 11.872 8.51015 12.225C8.51015 12.5818 8.73019 12.7757 9.14276 12.7757H9.28814V12.8378C9.28814 13.1985 8.98952 13.4468 8.55337 13.4468C7.95612 13.4468 7.64963 13.0472 7.64963 12.2793V11.7595C7.64963 10.9838 7.95612 10.6037 8.60052 10.6037C8.92522 10.6037 9.13816 10.7558 9.34593 10.9043C9.43485 10.9679 9.52282 11.0308 9.6182 11.0807C9.73608 11.1467 9.86967 11.1894 10.0268 11.1894C10.4119 11.1894 10.683 10.9256 10.683 10.5532C10.683 10.2003 10.4237 9.87447 10.019 9.63787C9.61034 9.39739 9.06024 9.25 8.47085 9.25C6.95415 9.25 5.99934 10.2003 5.99934 11.6703V12.287ZM12.3569 14.6724C12.8834 14.6724 13.1703 14.3621 13.1703 13.7997V10.1731C13.1703 9.6146 12.8756 9.30042 12.3451 9.30042C11.8147 9.30042 11.52 9.61072 11.52 10.1731V13.7997C11.52 14.3583 11.8225 14.6724 12.3569 14.6724ZM15.7243 13.7997C15.7243 14.366 15.4414 14.6724 14.9227 14.6724C14.3844 14.6724 14.074 14.3544 14.074 13.7997V10.1654C14.074 9.65339 14.3883 9.33921 14.8952 9.33921H17.3903C17.74 9.33921 17.9993 9.61072 17.9993 9.9792C17.9993 10.3477 17.74 10.6075 17.3903 10.6075H15.7243V11.5811H17.1938C17.5593 11.5811 17.8029 11.8293 17.8029 12.1939C17.8029 12.5547 17.5553 12.8068 17.1938 12.8068H15.7243V13.7997Z" fill="currentColor" style="fill:currentColor;fill-opacity:1;"/>
</svg>
