<svg xmlns="http://www.w3.org/2000/svg" viewBox="0 0 24 24" fill="none">
<path d="M16.6592 2.52047C18.0374 1.95413 19.6311 1.86819 21.3144 2.26168C21.5183 2.30934 21.6714 2.47876 21.6973 2.68649C21.723 2.89418 21.6165 3.09616 21.4307 3.19235C21.4307 3.19235 21.428 3.1941 21.4258 3.19528C21.4213 3.19764 21.4141 3.20163 21.4043 3.207C21.384 3.21807 21.3523 3.23518 21.3115 3.25875C21.2296 3.30616 21.1093 3.37899 20.9629 3.47555C20.6693 3.66911 20.2724 3.95801 19.8633 4.33688C19.0384 5.10089 18.2029 6.19251 17.9961 7.57418C17.9472 7.90079 17.9927 8.06741 18.0371 8.14938C18.0767 8.22229 18.148 8.28832 18.2998 8.34176C18.4614 8.39863 18.6819 8.42904 18.9648 8.43649C19.2456 8.44387 19.548 8.42881 19.873 8.415C20.1878 8.40163 20.5264 8.38905 20.8379 8.40914C21.1435 8.42887 21.4778 8.48241 21.7637 8.63571C22.0754 8.80288 22.31 9.08021 22.3926 9.47653C22.4685 9.84129 22.406 10.262 22.25 10.7304C21.8081 12.0565 20.7434 12.8951 19.7344 13.3994C18.9575 13.7875 18.1682 13.9992 17.6143 14.0898C17.5661 14.5497 17.4983 15.1793 17.3555 15.749C17.2596 16.131 17.1219 16.5267 16.9111 16.8564C16.7449 17.1164 16.5181 17.3538 16.2168 17.5C15.979 18.2671 15.503 19.2839 14.8682 20.1484C14.1804 21.0849 13.1913 22.0007 12.0019 22.0009C10.8124 22.0008 9.82254 21.085 9.13476 20.1484C8.49992 19.2839 8.0239 18.2671 7.78613 17.5C7.48485 17.3538 7.25797 17.1163 7.09179 16.8564C6.88106 16.5267 6.74329 16.131 6.64745 15.749C6.50458 15.1794 6.43684 14.5497 6.38866 14.0898C5.83467 13.9992 5.04537 13.7875 4.26855 13.3994C3.25948 12.8951 2.19482 12.0565 1.75292 10.7304C1.59689 10.2621 1.53445 9.84127 1.61034 9.47653C1.69294 9.08027 1.92762 8.80289 2.23925 8.63571C2.52504 8.48243 2.85949 8.42888 3.16503 8.40914C3.47647 8.38906 3.81507 8.40162 4.12988 8.415C4.45495 8.42882 4.75734 8.44386 5.03808 8.43649C5.32101 8.42904 5.54154 8.39862 5.70312 8.34176C5.85496 8.28832 5.92619 8.2223 5.96581 8.14938C6.01022 8.06743 6.0557 7.90086 6.00683 7.57418C5.79998 6.19248 4.96455 5.10091 4.13964 4.33688C3.7305 3.95797 3.33358 3.66912 3.04003 3.47555C2.89359 3.37899 2.77333 3.30616 2.6914 3.25875C2.65096 3.23536 2.61989 3.21807 2.5996 3.207C2.58957 3.20152 2.58163 3.19766 2.57714 3.19528C2.57492 3.1941 2.57226 3.19235 2.57226 3.19235C2.38648 3.09613 2.27987 2.89414 2.30566 2.68649C2.33153 2.47871 2.48458 2.30934 2.68847 2.26168C4.37172 1.86825 5.96529 1.95454 7.34179 2.52145C8.72169 3.08983 9.85152 4.12808 10.6191 5.58004C10.989 6.27967 11.5213 6.56078 11.9893 6.56051C12.4578 6.56016 12.9942 6.27801 13.3701 5.57516C14.1453 4.12573 15.2777 3.08817 16.6592 2.52047Z" fill="currentColor"/>
</svg>
