<svg xmlns="http://www.w3.org/2000/svg" viewBox="0 0 24 24" fill="none">
<path d="M12 10.2502C13.8984 10.2502 15.8161 10.5676 18.8389 11.2326C18.9245 11.2515 19.0095 11.2506 19.0918 11.2404C19.1758 11.4963 19.2542 11.7497 19.3223 12.0002H22C22.5523 12.0002 23 12.4479 23 13.0002C23 15.4113 21.7612 16.8284 20.5303 17.5978C19.9321 17.9717 19.3416 18.1922 18.9053 18.3195C18.856 18.3339 18.8074 18.3444 18.7617 18.3566C18.3199 19.4029 17.4733 20.2572 16.4443 20.8625C15.2136 21.5864 13.6604 22.0002 12 22.0002C10.3396 22.0002 8.78643 21.5864 7.55566 20.8625C6.52654 20.2571 5.67912 19.4031 5.2373 18.3566C5.19192 18.3445 5.14369 18.3338 5.09473 18.3195C4.6584 18.1922 4.06791 17.9717 3.46973 17.5978C2.23876 16.8284 1.00002 15.4113 1 13.0002C1 12.4479 1.44772 12.0002 2 12.0002H4.68066C4.75072 11.747 4.82969 11.4941 4.91602 11.2414C4.99592 11.2504 5.07821 11.2509 5.16113 11.2326C8.18387 10.5676 10.1016 10.2502 12 10.2502Z" fill="currentColor"/><path d="M12.5703 1.58808L12.6924 1.60762L13.2217 1.71308C15.8267 2.2643 17.8107 3.14579 19.8994 4.26972C20.2688 4.46863 20.4746 4.87693 20.415 5.29219C20.3553 5.70761 20.0425 6.04138 19.6318 6.12812L17.0186 6.68086C17.015 6.68162 17.0146 6.68183 17.0146 6.68183C17.0113 6.68491 17.0001 6.69683 16.9912 6.7209C16.9711 6.77526 16.9806 6.8284 17.002 6.86152C17.5446 7.70124 18.0462 8.64987 18.4688 9.61836C15.8032 9.04804 13.9099 8.75019 12 8.75019C10.1013 8.75019 8.21906 9.0448 5.57812 9.60859C6.90032 6.78763 9.02518 4.12706 10.9219 2.17012L11.0098 2.08515C11.4317 1.7008 12.0013 1.51757 12.5703 1.58808Z" fill="currentColor"/>
</svg>
