<svg xmlns="http://www.w3.org/2000/svg" viewBox="0 0 24 24" fill="none">
<path d="M5 14V11C5 8.79086 3.20914 7 1 7V10C1 12.2091 2.79086 14 5 14Z" stroke="currentColor" stroke-width="2" stroke-linejoin="round"/><path d="M19 14V11C19 8.79086 20.7909 7 23 7V10C23 12.2091 21.2091 14 19 14Z" stroke="currentColor" stroke-width="2" stroke-linejoin="round"/><path d="M19 14V11C19 7.13401 15.866 4 12 4C8.13401 4 5 7.13401 5 11V14C5 17.3137 7.68629 20 11 20H13C16.3137 20 19 17.3137 19 14Z" stroke="currentColor" stroke-width="2" stroke-linejoin="round"/><path d="M14.6286 14.7793C12.7427 15.3236 11.2573 15.3236 9.37145 14.7793C8.99162 14.6696 8.63368 15.0062 8.81389 15.3581C10.1058 17.8806 13.8942 17.8806 15.1861 15.3581C15.3663 15.0062 15.0084 14.6696 14.6286 14.7793Z" fill="currentColor"/><ellipse cx="9.5" cy="11.25" rx="1.5" ry="1.25" fill="currentColor"/><ellipse cx="14.5" cy="11.25" rx="1.5" ry="1.25" fill="currentColor"/>
</svg>
