<svg xmlns="http://www.w3.org/2000/svg" viewBox="0 0 24 24" fill="none">
<path fill-rule="evenodd" clip-rule="evenodd" d="M12 3C16.1421 3 19.5 6.35786 19.5 10.5V14C19.5 17.866 16.366 21 12.5 21H11.5C7.63401 21 4.5 17.866 4.5 14V10.5C4.5 6.35786 7.85786 3 12 3ZM15.1865 15.3584C15.3667 15.0066 15.0086 14.6699 14.6289 14.7793C12.7431 15.3236 11.2569 15.3236 9.37109 14.7793C8.99139 14.6699 8.63332 15.0066 8.81348 15.3584C10.1054 17.8808 13.8946 17.8808 15.1865 15.3584ZM9.5 10C8.67157 10 8 10.5596 8 11.25C8 11.9404 8.67157 12.5 9.5 12.5C10.3284 12.5 11 11.9404 11 11.25C11 10.5596 10.3284 10 9.5 10ZM14.5 10C13.6716 10 13 10.5596 13 11.25C13 11.9404 13.6716 12.5 14.5 12.5C15.3284 12.5 16 11.9404 16 11.25C16 10.5596 15.3284 10 14.5 10Z" fill="currentColor"/><path d="M1 6C2.02721 6 2.98217 6.30962 3.77637 6.84082C3.27811 7.95893 3 9.19687 3 10.5V14C3 14.1993 3.00896 14.3969 3.02246 14.5928C1.24475 13.8263 9.60693e-08 12.0589 0 10V7C0 6.44772 0.447715 6 1 6Z" fill="currentColor"/><path d="M23 6C23.5523 6 24 6.44772 24 7V10C24 12.0592 22.7547 13.8265 20.9766 14.5928C20.9901 14.3969 21 14.1993 21 14V10.5C21 9.19672 20.721 7.95903 20.2227 6.84082C21.017 6.30934 21.9725 6 23 6Z" fill="currentColor"/>
</svg>
