<svg xmlns="http://www.w3.org/2000/svg" viewBox="0 0 24 24" fill="none">
<path d="M8.49786 12C9.34106 12.0001 10.094 12.529 10.3797 13.3223L11.4598 16.3223C11.9289 17.6255 10.963 18.9999 9.57794 19H3.42364C2.03844 19 1.07261 17.6256 1.54181 16.3223L2.62188 13.3223C2.90764 12.5289 3.66047 12 4.50372 12H8.49786Z" fill="currentColor"/><path d="M19.4979 12C20.3411 12.0001 21.094 12.529 21.3797 13.3223L22.4598 16.3223C22.9289 17.6255 21.963 18.9999 20.5779 19H14.4236C13.0384 19 12.0726 17.6256 12.5418 16.3223L13.6219 13.3223C13.9076 12.5289 14.6605 12 15.5037 12H19.4979Z" fill="currentColor"/><path d="M13.9979 4C14.8411 4.00008 15.594 4.52896 15.8797 5.32227L16.9598 8.32227C17.4289 9.62551 16.463 10.9999 15.0779 11H8.92364C7.53844 11 6.57261 9.62559 7.04181 8.32227L8.12188 5.32227C8.40764 4.52893 9.16047 4 10.0037 4H13.9979Z" fill="currentColor"/>
</svg>
