<svg xmlns="http://www.w3.org/2000/svg" viewBox="0 0 24 24" fill="none">
<path fill-rule="evenodd" clip-rule="evenodd" d="M18 3.89941C18.5523 3.89941 19 4.34811 19 4.90039C19.0003 6.23947 20.2039 7.58927 22.1631 7.91406C22.7078 8.00437 23.0764 8.51878 22.9863 9.06348C22.8958 9.60793 22.3815 9.97672 21.8369 9.88672C20.7909 9.71338 19.8054 9.29492 19 8.68848V15H22C22.5523 15 23 15.4477 23 16C23 16.5523 22.5523 17 22 17H19V19C19 19.5523 18.5523 20 18 20C17.4477 20 17 19.5523 17 19V17H7V19C7 19.5523 6.55228 20 6 20C5.44772 20 5 19.5523 5 19V17H2C1.44772 17 1 16.5523 1 16C1 15.4477 1.44772 15 2 15H5V8.68848C4.19459 9.29492 3.20913 9.71338 2.16309 9.88672C1.61855 9.97672 1.10415 9.60793 1.01367 9.06348C0.923603 8.51878 1.29222 8.00437 1.83691 7.91406C3.79615 7.58927 4.99971 6.23947 5 4.90039C5 4.34811 5.44772 3.89941 6 3.89941C6.55228 3.89941 7 4.34811 7 4.90039C7 4.92127 6.99833 4.94209 6.99805 4.96289C6.9985 4.97522 7 4.98756 7 5C7 7.04617 9.06012 9 12 9C14.9399 9 17 7.04617 17 5C17 4.98757 17.0005 4.97521 17.001 4.96289C17.0007 4.9421 17 4.92127 17 4.90039C17 4.34811 17.4477 3.89941 18 3.89941ZM17 9.20117C15.9313 10.1276 14.5243 10.7463 13 10.9365V15H17V9.20117ZM7 15H11V10.9365C9.47571 10.7463 8.06872 10.1276 7 9.20117V15Z" fill="currentColor"/><path fill-rule="evenodd" clip-rule="evenodd" d="M18 3.89941C18.5523 3.89941 19 4.34811 19 4.90039C19.0003 6.23947 20.2039 7.58927 22.1631 7.91406C22.7078 8.00437 23.0764 8.51878 22.9863 9.06348C22.8958 9.60793 22.3815 9.97672 21.8369 9.88672C20.7909 9.71338 19.8054 9.29492 19 8.68848V15H22C22.5523 15 23 15.4477 23 16C23 16.5523 22.5523 17 22 17H19V19C19 19.5523 18.5523 20 18 20C17.4477 20 17 19.5523 17 19V17H7V19C7 19.5523 6.55228 20 6 20C5.44772 20 5 19.5523 5 19V17H2C1.44772 17 1 16.5523 1 16C1 15.4477 1.44772 15 2 15H5V8.68848C4.19459 9.29492 3.20913 9.71338 2.16309 9.88672C1.61855 9.97672 1.10415 9.60793 1.01367 9.06348C0.923603 8.51878 1.29222 8.00437 1.83691 7.91406C3.79615 7.58927 4.99971 6.23947 5 4.90039C5 4.34811 5.44772 3.89941 6 3.89941C6.55228 3.89941 7 4.34811 7 4.90039C7 4.92127 6.99833 4.94209 6.99805 4.96289C6.9985 4.97522 7 4.98756 7 5C7 7.04617 9.06012 9 12 9C14.9399 9 17 7.04617 17 5C17 4.98757 17.0005 4.97521 17.001 4.96289C17.0007 4.9421 17 4.92127 17 4.90039C17 4.34811 17.4477 3.89941 18 3.89941ZM17 9.20117C15.9313 10.1276 14.5243 10.7463 13 10.9365V15H17V9.20117ZM7 15H11V10.9365C9.47571 10.7463 8.06872 10.1276 7 9.20117V15Z" fill="currentColor"/>
</svg>
