<svg xmlns="http://www.w3.org/2000/svg" viewBox="0 0 24 24" fill="none">
<path d="M7.58691 5.28271C9.37138 5.37688 10.9719 6.16775 12.1201 7.38525C12.8451 8.15387 13.5859 8.61365 14.3027 8.61377C14.8705 8.61377 15.4412 8.31492 16.249 7.84131C16.9637 7.42233 17.796 7.18217 18.6816 7.18213C21.3423 7.18213 23.4997 9.33862 23.5 11.9995C23.5 14.6605 21.3426 16.8179 18.6816 16.8179C17.796 16.8178 16.9637 16.5777 16.249 16.1587C15.4412 15.6851 14.8705 15.3862 14.3027 15.3862C13.5858 15.3864 12.8451 15.8469 12.1201 16.6157C10.9719 17.8332 9.37132 18.6231 7.58691 18.7173L7.22754 18.7271C3.62868 18.7271 0.689367 15.9014 0.508789 12.3472L0.5 12.0005C0.5 8.28512 3.51217 5.27295 7.22754 5.27295L7.58691 5.28271Z" fill="currentColor"/>
</svg>
