<svg width="24" height="24" viewBox="0 0 24 24" fill="none" xmlns="http://www.w3.org/2000/svg">
<path fill-rule="evenodd" clip-rule="evenodd" d="M16.0273 7.47273C14.9818 6.49091 13.6727 5.98182 12.2 5.98182C9.60002 5.98182 7.39093 7.73636 6.60002 10.1V10.1C6.40002 10.7 6.28183 11.3364 6.28183 12C6.28183 12.6637 6.40002 13.3 6.60002 13.9L6.58818 13.9091H6.60001C7.39092 16.2727 9.60001 18.0273 12.2 18.0273C13.5455 18.0273 14.6818 17.6636 15.5727 17.0636L15.5728 17.0637C16.6364 16.3546 17.3455 15.3 17.5818 14.0546H12.2V10.1818H21.6182C21.7364 10.8364 21.8 11.5182 21.8 12.2273C21.8 15.2727 20.7091 17.8364 18.8182 19.5818H18.8182C17.1636 21.1091 14.9 22 12.2 22C8.29092 22 4.91819 19.7545 3.27273 16.4909V16.4818C2.59092 15.1364 2.20001 13.6182 2.20001 12C2.20001 10.3818 2.59092 8.86365 3.27274 7.51819L3.27273 7.51819C4.91819 4.24546 8.29092 2 12.2 2C14.9 2 17.1546 2.99091 18.8909 4.60909L16.0273 7.47273Z" fill="currentColor"/>
</svg>
