<svg xmlns="http://www.w3.org/2000/svg" viewBox="0 0 24 24" fill="none">
<path fill-rule="evenodd" clip-rule="evenodd" d="M14.1025 0.00488281C14.6067 0.0562144 15 0.482323 15 1V2L14.9951 2.10254C14.9438 2.60667 14.5177 3 14 3H13V4.05664C16.832 4.48032 19.9366 7.30865 20.7744 11H21C21.5523 11 22 11.4477 22 12C22 12.5523 21.5523 13 21 13V19C21.5523 19 22 19.4477 22 20C22 20.5523 21.5523 21 21 21H3C2.44772 21 2 20.5523 2 20C2 19.4477 2.44772 19 3 19V13C2.44772 13 2 12.5523 2 12C2 11.4477 2.44772 11 3 11H3.22559C4.06345 7.30865 7.16804 4.48032 11 4.05664V1C11 0.447715 11.4477 0 12 0H14L14.1025 0.00488281ZM5 13V19H8.33008V13H5ZM10.3301 13V19H13.6699V13H10.3301ZM15.6699 13V19H19V13H15.6699Z" fill="currentColor"/>
</svg>
