<svg width="24" height="24" viewBox="0 0 24 24" fill="none" xmlns="http://www.w3.org/2000/svg">
<path d="M12.4138 3.08963C12.1509 2.97012 11.8491 2.97012 11.5862 3.08963L0.586197 8.08963C0.229203 8.2519 0 8.60786 0 9C0 9.39214 0.229203 9.7481 0.586197 9.91037L11.5862 14.9104C11.8491 15.0299 12.1509 15.0299 12.4138 14.9104L22 10.553V16C22 16.5523 22.4477 17 23 17C23.5523 17 24 16.5523 24 16V9C24 8.60786 23.7708 8.2519 23.4138 8.08963L12.4138 3.08963Z" fill="currentColor" style="fill:currentColor;fill-opacity:1;"/>
<path fill-rule="evenodd" clip-rule="evenodd" d="M4.5 12.801V14.9692C4.5 16.4098 5.27463 17.7391 6.52798 18.4493L10.0279 20.4326C11.2512 21.1257 12.7487 21.1257 13.972 20.4326L17.472 18.4493C18.7254 17.7391 19.5 16.4098 19.5 14.9692V12.801L12.9075 16.158C12.3373 16.4483 11.6627 16.4483 11.0925 16.158L4.5 12.801Z" fill="currentColor" style="fill:currentColor;fill-opacity:1;"/>
</svg>
