<svg xmlns="http://www.w3.org/2000/svg" viewBox="0 0 24 24" fill="none">
<path d="M11.9989 7.60119C13.3793 7.60132 14.4988 8.22753 14.4989 9.00061C14.4988 9.11039 14.4732 9.21646 14.4305 9.31897L17.4266 10.983C19.0136 11.8649 19.9988 13.5385 19.9989 15.3541V17.6354C20.2973 17.8084 20.4989 18.1308 20.4989 18.5006V21.0006C20.4987 21.5526 20.0508 22.0004 19.4989 22.0006H18.4989C17.9467 22.0006 17.4991 21.5527 17.4989 21.0006V18.5006C17.4989 18.1306 17.7002 17.8083 17.9989 17.6354V15.3541C17.9988 14.2649 17.4078 13.2612 16.4559 12.7321L12.2459 10.3932C12.1648 10.3976 12.0821 10.401 11.9989 10.401C10.6184 10.401 9.49922 9.77363 9.49886 9.00061C9.49895 8.22745 10.6182 7.60119 11.9989 7.60119Z" fill="currentColor"/><path d="M11.1297 15.8014C11.6818 16.0522 12.3159 16.0523 12.868 15.8014L16.5711 14.1168C16.8437 14.4636 16.9987 14.8975 16.9989 15.3531V17.1774C16.6888 17.5285 16.499 17.9914 16.4989 18.4996V19.4801C15.172 20.1136 13.4198 20.4995 11.4989 20.4996C7.35679 20.4996 3.99897 18.7087 3.99886 16.4996V12.5602L11.1297 15.8014Z" fill="currentColor"/><path d="M11.6541 3.06506C11.8778 2.99142 12.12 2.99125 12.3436 3.06506L12.4539 3.10803L23.2127 7.99865C24.0713 8.38964 24.071 9.60932 23.2127 10.0006L19.6815 11.6051C19.2017 11.0056 18.6053 10.4933 17.9119 10.108L15.4803 8.75744C15.3777 7.97931 14.7964 7.44041 14.2557 7.13733C13.6281 6.78573 12.8276 6.59931 11.9989 6.59924C11.1702 6.59924 10.3697 6.78588 9.74202 7.13733C9.18393 7.45009 8.58023 8.01367 8.50667 8.83264L8.49886 8.99963C8.49886 9.90993 9.14663 10.5283 9.74202 10.8619C10.3698 11.2136 11.17 11.4 11.9989 11.4L12.0008 11.399L15.661 13.4332L12.4539 14.8912C12.1649 15.0226 11.8329 15.0225 11.5438 14.8912L0.784989 10.0006C-0.0741681 9.60965 -0.0741578 8.3896 0.784989 7.99865L11.5438 3.10803L11.6541 3.06506Z" fill="currentColor"/>
</svg>
