<svg xmlns="http://www.w3.org/2000/svg" viewBox="0 0 24 24" fill="none">
<path d="M1.20028 8.90896L11.9586 4.01881C11.9849 4.00686 12.0151 4.00686 12.0414 4.01881L22.7997 8.90896C22.8779 8.94449 22.8779 9.05551 22.7997 9.09104L12.0414 13.9812C12.0151 13.9931 11.9849 13.9931 11.9586 13.9812L1.20028 9.09104C1.12212 9.05551 1.12212 8.94449 1.20028 8.90896Z" stroke="currentColor" stroke-width="2"/><path d="M5 11V15.5" stroke="currentColor" stroke-width="2"/><path d="M5 15.5C5 17.7091 8.13401 19.5 12 19.5C12.8808 19.5 13.7236 19.407 14.5 19.2374" stroke="currentColor" stroke-width="2" stroke-linecap="round"/><ellipse cx="12" cy="9.0001" rx="2.5" ry="1.4" fill="currentColor"/><path d="M19.5 18H18.5C18.2239 18 18 18.2239 18 18.5V21C18 21.2761 18.2239 21.5 18.5 21.5H19.5C19.7761 21.5 20 21.2761 20 21V18.5C20 18.2239 19.7761 18 19.5 18Z" fill="currentColor" stroke="currentColor" stroke-linejoin="round"/><path d="M12 9L16.4807 11.5604C18.0386 12.4506 19 14.1073 19 15.9016V20" stroke="currentColor" stroke-width="2"/>
</svg>
