<svg xmlns="http://www.w3.org/2000/svg" viewBox="0 0 24 24" fill="none">
<path fill-rule="evenodd" clip-rule="evenodd" d="M6.51465 4.97351C6.32208 4.58968 6.65749 4.1504 7.06836 4.27526C13.1549 6.12502 14.5 11.7202 14.5 17.9999H15.5C15.5001 13.8571 16.6508 10.8801 20.8467 8.97058C21.2567 8.78398 21.6623 9.2183 21.4951 9.63659C20.4271 12.3078 20.0352 15.2495 20 17.9999H23V19.9999H1V17.9999H4C3.96483 15.2494 3.57297 12.3079 2.50488 9.63659C2.33765 9.21835 2.74334 8.78324 3.15332 8.9696C7.3494 10.8791 8.49997 13.8569 8.5 17.9999H9.5C9.46264 13.695 8.6332 9.19617 6.51465 4.97351ZM17.9316 3.27526C18.3425 3.15045 18.6779 3.59067 18.4854 3.97448C17.2175 6.50171 16.4139 9.12858 15.9629 11.7528C15.6454 12.2655 15.3913 12.8045 15.1885 13.3661C14.9309 11.6684 14.4887 10.0597 13.7676 8.62683C13.4765 8.04844 13.141 7.50218 12.7588 6.99206C13.8921 5.30147 15.5469 4.00001 17.9316 3.27526Z" fill="currentColor"/>
</svg>
