<svg width="24" height="24" viewBox="0 0 24 24" fill="none" xmlns="http://www.w3.org/2000/svg">
<path d="M15.0005 3C16.9335 3 18.5005 4.567 18.5005 6.5C18.5005 8.433 16.9335 10 15.0005 10M18.0005 13.5088C20.0784 14.2448 21.7225 15.7225 22.5039 17.5667C23.0426 18.838 21.8812 20 20.5005 20M9.00046 10C7.06746 10 5.50046 8.433 5.50046 6.5C5.50046 4.567 7.06746 3 9.00046 3C10.9335 3 12.5005 4.567 12.5005 6.5C12.5005 8.433 10.9335 10 9.00046 10ZM1.70973 17.1143C2.9661 14.6879 5.75801 13 9.00046 13C12.2429 13 15.0348 14.6879 16.2912 17.1143C17.053 18.5856 15.6573 20 14.0005 20H4.00046C2.3436 20 0.947894 18.5856 1.70973 17.1143Z" stroke="currentColor" stroke-width="2" stroke-linecap="round" stroke-linejoin="round"/>
</svg>
