<svg xmlns="http://www.w3.org/2000/svg" viewBox="0 0 24 24" fill="none">
<path d="M8.68945 13.4414C8.97697 13.7637 9.27832 14.0869 9.5957 14.4043C9.91281 14.7214 10.2356 15.0223 10.5576 15.3096C10.0415 15.6703 9.54962 15.9693 9.09766 16.1953C8.50769 16.4903 8.03352 16.6406 7.69629 16.6807C7.46697 16.7078 7.36744 16.6778 7.33594 16.6641C7.32223 16.6326 7.29216 16.533 7.31934 16.3037C7.35941 15.9664 7.51062 15.4924 7.80566 14.9023C8.03169 14.4503 8.32869 13.9576 8.68945 13.4414Z" fill="currentColor"/><path d="M15.3096 13.4414C15.6705 13.9577 15.9682 14.4502 16.1943 14.9023C16.4894 15.4924 16.6406 15.9664 16.6807 16.3037C16.7078 16.533 16.6778 16.6326 16.6641 16.6641C16.6326 16.6778 16.533 16.7078 16.3037 16.6807C15.9665 16.6406 15.4923 16.4903 14.9023 16.1953C14.4502 15.9692 13.9577 15.6705 13.4414 15.3096C13.7636 15.0221 14.087 14.7216 14.4043 14.4043C14.7215 14.0871 15.0222 13.7635 15.3096 13.4414Z" fill="currentColor"/><path d="M12 9.81738C12.3751 10.1416 12.7544 10.4927 13.1309 10.8691C13.5072 11.2455 13.8575 11.625 14.1816 12C13.8575 12.375 13.5071 12.7546 13.1309 13.1309C12.7545 13.5072 12.375 13.8575 12 14.1816C11.625 13.8575 11.2455 13.5072 10.8691 13.1309C10.4927 12.7544 10.1416 12.3751 9.81738 12C10.1417 11.6248 10.4927 11.2456 10.8691 10.8691C11.2456 10.4927 11.6249 10.1416 12 9.81738Z" fill="currentColor"/><path d="M7.69531 7.31836C8.03263 7.35838 8.5074 7.50956 9.09766 7.80469C9.54959 8.03067 10.0416 8.32878 10.5576 8.68945C10.2355 8.97682 9.91291 9.2785 9.5957 9.5957C9.27811 9.9133 8.97616 10.2361 8.68848 10.5586C8.32773 10.0425 8.0307 9.54965 7.80469 9.09766C7.50956 8.5074 7.35838 8.03263 7.31836 7.69531C7.29119 7.46555 7.32132 7.36607 7.33496 7.33496C7.36608 7.32132 7.46548 7.29117 7.69531 7.31836Z" fill="currentColor"/><path d="M16.3047 7.31836C16.5345 7.29117 16.6339 7.32132 16.665 7.33496C16.6787 7.36607 16.7088 7.46555 16.6816 7.69531C16.6416 8.03263 16.4904 8.5074 16.1953 9.09766C15.9692 9.54978 15.6714 10.0423 15.3105 10.5586C15.023 10.2363 14.7217 9.91315 14.4043 9.5957C14.0869 9.27832 13.7637 8.97696 13.4414 8.68945C13.9577 8.32857 14.4502 8.03077 14.9023 7.80469C15.4926 7.50956 15.9674 7.35838 16.3047 7.31836Z" fill="currentColor"/><path fill-rule="evenodd" clip-rule="evenodd" d="M19.793 2.79297C20.1835 2.40244 20.8165 2.40244 21.207 2.79297C21.5976 3.18349 21.5976 3.81651 21.207 4.20703L19.3857 6.02734C20.7071 7.65927 21.5 9.73663 21.5 12C21.5 17.2467 17.2467 21.5 12 21.5C9.73663 21.5 7.65927 20.7071 6.02734 19.3857L4.20703 21.207C3.81651 21.5976 3.18349 21.5976 2.79297 21.207C2.40244 20.8165 2.40244 20.1835 2.79297 19.793L4.61328 17.9717C3.29246 16.3399 2.5 14.2629 2.5 12C2.5 6.75329 6.75329 2.5 12 2.5C14.2629 2.5 16.3399 3.29246 17.9717 4.61328L19.793 2.79297ZM17.8398 5.96777C17.3285 5.52899 16.6641 5.46358 16.0928 5.53125C15.4705 5.60503 14.7868 5.85077 14.0977 6.19531C13.4359 6.52623 12.7264 6.97203 12 7.51074C11.2736 6.97203 10.5641 6.52623 9.90234 6.19531C9.21324 5.85077 8.52951 5.60503 7.90723 5.53125C7.3359 5.46358 6.67149 5.52899 6.16016 5.96777L6.05957 6.05957C5.53699 6.58215 5.45906 7.29773 5.53125 7.90723C5.60502 8.52954 5.85075 9.2132 6.19531 9.90234C6.52614 10.5639 6.97223 11.2728 7.51074 11.999C6.97185 12.7256 6.52629 13.4357 6.19531 14.0977C5.85075 14.7868 5.60598 15.4704 5.53223 16.0928C5.46005 16.7022 5.53804 17.4169 6.06055 17.9395C6.58308 18.462 7.29777 18.5399 7.90723 18.4678C8.52954 18.394 9.2132 18.1492 9.90234 17.8047C10.5642 17.4737 11.2735 17.0271 12 16.4883C12.7265 17.0271 13.4358 17.4737 14.0977 17.8047C14.7868 18.1492 15.4705 18.394 16.0928 18.4678C16.7022 18.5399 17.4169 18.462 17.9395 17.9395C18.462 17.4169 18.5399 16.7022 18.4678 16.0928C18.394 15.4704 18.1493 14.7868 17.8047 14.0977C17.4736 13.4356 17.0273 12.7258 16.4883 11.999C17.0269 11.2727 17.4738 10.5641 17.8047 9.90234C18.1492 9.2132 18.395 8.52954 18.4688 7.90723C18.5409 7.29773 18.463 6.58215 17.9404 6.05957L17.8398 5.96777Z" fill="currentColor"/>
</svg>
