<svg width="24" height="24" viewBox="0 0 24 24" fill="none" xmlns="http://www.w3.org/2000/svg">
<path fill-rule="evenodd" clip-rule="evenodd" d="M3 4C3.55228 4 4 4.44772 4 5V11H12V5C12 4.44772 12.4477 4 13 4C13.5523 4 14 4.44772 14 5V19C14 19.5523 13.5523 20 13 20C12.4477 20 12 19.5523 12 19V13H4V19C4 19.5523 3.55228 20 3 20C2.44772 20 2 19.5523 2 19V5C2 4.44772 2.44772 4 3 4ZM20 12C19.6311 12 19.3076 12.1992 19.1332 12.5007C18.8566 12.9788 18.2449 13.1421 17.7668 12.8656C17.2888 12.5891 17.1254 11.9773 17.402 11.4993C17.9192 10.6052 18.8883 10 20 10C21.6569 10 23 11.3431 23 13C23 13.7684 22.7111 14.4692 22.2361 15C22.7111 15.5308 23 16.2316 23 17C23 18.6569 21.6569 20 20 20C18.8883 20 17.9192 19.3948 17.402 18.5007C17.1254 18.0227 17.2888 17.4109 17.7668 17.1344C18.2449 16.8579 18.8566 17.0212 19.1332 17.4993C19.3076 17.8008 19.6311 18 20 18C20.5523 18 21 17.5523 21 17C21 16.4477 20.5523 16 20 16C19.4477 16 19 15.5523 19 15C19 14.4477 19.4477 14 20 14C20.5523 14 21 13.5523 21 13C21 12.4477 20.5523 12 20 12Z" fill="currentColor" style="fill:currentColor;fill-opacity:1;"/>
</svg>
