<svg xmlns="http://www.w3.org/2000/svg" viewBox="0 0 24 24" fill="none">
<path d="M12.5001 15.0001L7.25007 20.2501C6.28361 21.2164 4.71655 21.2164 3.75007 20.2501C2.78391 19.2836 2.78375 17.7165 3.75007 16.7501L9.00007 11.5001L12.5001 15.0001Z" fill="currentColor"/><path d="M8.63971 2.11433C10.6057 1.80402 12.4549 1.91564 14.1485 2.53621C15.9605 3.20028 17.5229 4.42121 18.8282 6.18758C18.9313 6.32714 19.0233 6.45021 19.1221 6.62801C19.4977 7.30397 19.4973 8.03137 19.5167 8.42586C19.5395 8.8924 19.5796 9.07466 19.6895 9.22664C19.7512 9.31194 19.816 9.3795 19.9073 9.46883H20.5001L20.5987 9.47371C20.8277 9.49639 21.0429 9.59764 21.2071 9.76179C21.4225 9.97721 21.7139 10.2493 21.878 10.5802C22.1551 11.1396 22.1552 11.7971 21.878 12.3565C21.755 12.6046 21.5603 12.8201 21.3799 13.003L18.9141 15.4688C18.1331 16.2493 16.8669 16.2494 16.086 15.4688L15.9346 15.3175C15.6566 15.0394 15.5002 14.6618 15.5001 14.2686C15.5001 13.9851 15.2409 13.7728 14.963 13.8282L14.1964 13.9815C13.8668 14.0474 13.5256 13.943 13.2891 13.7042L10.2891 10.672C10.0604 10.4407 9.95844 10.1122 10.0157 9.79207C10.2578 8.44178 10.1599 7.58722 9.84675 6.94343C9.52924 6.29117 8.91247 5.69214 7.76764 5.01961C7.36304 4.78192 7.07846 4.36869 7.01374 3.89265L7.00007 3.68562L7.00593 3.55183C7.06397 2.88796 7.55133 2.31001 8.24518 2.18172L8.63971 2.11433Z" fill="currentColor"/>
</svg>
