<svg width="24" height="24" viewBox="0 0 24 24" fill="none" xmlns="http://www.w3.org/2000/svg">
<path d="M1.74985 12.6642C0.9688 11.8831 0.9688 10.6168 1.74985 9.83577L8.99983 2.58579C9.3749 2.21071 9.88361 2 10.414 2H14.0857C14.6161 2 15.1248 2.21071 15.4999 2.58579L16.4998 3.58575C17.2809 4.3668 17.2809 5.63313 16.4998 6.41418L7.41404 15.5C6.633 16.281 5.36666 16.281 4.58562 15.5L1.74985 12.6642Z" fill="currentColor" style="fill:currentColor;fill-opacity:1;"/>
<path fill-rule="evenodd" clip-rule="evenodd" d="M20.5001 20.5002C19.6214 21.3788 18.1968 21.3788 17.3181 20.5002L11.1591 14.3412L14.3411 11.1592L20.5001 17.3182C21.3788 18.1969 21.3788 19.6215 20.5001 20.5002Z" fill="currentColor" style="fill:currentColor;fill-opacity:1;"/>
</svg>
