<svg xmlns="http://www.w3.org/2000/svg" viewBox="0 0 24 24" fill="none">
<path d="M19 19C19 21.2091 17.2091 23 15 23H9C6.79086 23 5 21.2091 5 19V16.8193C6.53318 19.042 9.09557 20.5 12 20.5C14.9044 20.5 17.4668 19.042 19 16.8193V19Z" fill="currentColor"/><path fill-rule="evenodd" clip-rule="evenodd" d="M12 8.5C13.933 8.5 15.5 10.067 15.5 12C15.5 13.933 13.933 15.5 12 15.5C10.067 15.5 8.5 13.933 8.5 12C8.5 10.067 10.067 8.5 12 8.5ZM12 10.5C11.1716 10.5 10.5 11.1716 10.5 12C10.5 12.8284 11.1716 13.5 12 13.5C12.8284 13.5 13.5 12.8284 13.5 12C13.5 11.1716 12.8284 10.5 12 10.5Z" fill="currentColor"/><path fill-rule="evenodd" clip-rule="evenodd" d="M12 5C15.866 5 19 8.13401 19 12C19 15.866 15.866 19 12 19C8.13401 19 5 15.866 5 12C5 8.13401 8.13401 5 12 5ZM12 7C9.23858 7 7 9.23858 7 12C7 14.7614 9.23858 17 12 17C14.7614 17 17 14.7614 17 12C17 9.23858 14.7614 7 12 7Z" fill="currentColor"/><path d="M15 1C17.2091 1 19 2.79086 19 5V7.17969C17.4668 4.95737 14.9041 3.5 12 3.5C9.09586 3.5 6.53324 4.95737 5 7.17969V5C5 2.79086 6.79086 1 9 1H15Z" fill="currentColor"/>
</svg>
