<svg xmlns="http://www.w3.org/2000/svg" viewBox="0 0 24 24" fill="none">
<path d="M11 20C11.5523 20 12 20.4477 12 21V22C12 22.5523 11.5523 23 11 23C10.4478 22.9999 10 22.5523 10 22V21C10 20.4477 10.4478 20.0001 11 20Z" fill="currentColor"/><path d="M3.92871 17.6562C4.3191 17.2659 4.95223 17.2662 5.34277 17.6562C5.7333 18.0468 5.7333 18.6808 5.34277 19.0713L4.63574 19.7783C4.24521 20.1684 3.61208 20.1687 3.22168 19.7783C2.83116 19.3878 2.83116 18.7538 3.22168 18.3633L3.92871 17.6562Z" fill="currentColor"/><path d="M9.63574 9.08301C9.86607 8.58126 10.4591 8.36081 10.9609 8.59082C11.4628 8.8212 11.6834 9.41511 11.4531 9.91699C11.1626 10.5498 11.0001 11.2547 11 12C11 12.7624 11.1695 13.4829 11.4727 14.127C11.7079 14.6266 11.4938 15.2218 10.9941 15.457C10.4944 15.6922 9.89829 15.4782 9.66309 14.9785C9.2372 14.0737 9 13.0629 9 12C9.00006 10.9609 9.22753 9.97228 9.63574 9.08301Z" fill="currentColor"/><path fill-rule="evenodd" clip-rule="evenodd" d="M16 5C19.8659 5.00013 23 8.13409 23 12C23 15.8659 19.8659 18.9999 16 19C15.1203 19 14.2769 18.8358 13.499 18.5381C12.7226 18.835 11.8808 19 11 19C7.13401 19 4 15.866 4 12C4 8.13401 7.13401 5 11 5C11.8806 5 12.7227 5.16409 13.499 5.46094C14.2768 5.16325 15.1204 5.00004 16 5ZM11 7C8.23858 7 6 9.23858 6 12C6 14.7614 8.23858 17 11 17C13.7614 17 16 14.7614 16 12C16 9.23858 13.7614 7 11 7Z" fill="currentColor"/><path d="M2 11C2.55222 11 2.99992 11.4478 3 12C3 12.5522 2.55224 12.9999 2 13H1C0.447783 13 8.11046e-05 12.5522 0 12C7.76189e-05 11.4479 0.447813 11.0001 1 11H2Z" fill="currentColor"/><path d="M3.22168 4.22168C3.61214 3.8313 4.24523 3.83143 4.63574 4.22168L5.34277 4.92871C5.73323 5.31925 5.73326 5.95228 5.34277 6.34277C4.95221 6.73326 4.3192 6.73334 3.92871 6.34277L3.22168 5.63574C2.83141 5.24521 2.8313 4.61212 3.22168 4.22168Z" fill="currentColor"/><path d="M11 1C11.5523 1.00005 12 1.44776 12 2V3C11.9999 3.55225 11.5522 4 11 4C10.4477 3.99995 10 3.55224 10 3V2C10.0001 1.44778 10.4478 1.00005 11 1Z" fill="currentColor"/>
</svg>
