<svg xmlns="http://www.w3.org/2000/svg" viewBox="0 0 24 24" fill="none">
<path fill-rule="evenodd" clip-rule="evenodd" d="M12.0008 4.42542C13.6173 3.14239 15.4724 2.76083 17.1698 3.13929C19.0977 3.56921 20.7327 4.96098 21.5116 6.90296C23.1157 10.9029 21.017 16.5929 12.4891 21.3727C12.1854 21.5428 11.8152 21.5429 11.5116 21.3727C2.98363 16.5929 0.884962 10.9029 2.48911 6.90296C3.26795 4.961 4.90297 3.56924 6.83091 3.13929C8.52843 2.76079 10.3842 3.1421 12.0008 4.42542ZM11.9999 7.50061C11.5581 7.50068 11.2 7.85863 11.2 8.30042V8.5885C10.7483 8.66633 10.2855 8.84525 9.91782 9.17151C9.51798 9.52653 9.26557 10.0287 9.26548 10.6334C9.26552 11.4743 9.66353 12.0521 10.2108 12.4244C10.6911 12.7512 11.2981 12.9246 11.743 13.0563C12.2541 13.2075 12.6004 13.3166 12.8368 13.4733C13.0048 13.5848 13.075 13.6854 13.075 13.9098C13.075 14.0329 13.0318 14.1238 12.8983 14.2174C12.74 14.3282 12.4699 14.4204 12.1219 14.4371C11.7803 14.4535 11.4266 14.3937 11.1375 14.2692C10.8471 14.144 10.6712 13.9774 10.5877 13.8131C10.3876 13.4193 9.90642 13.2625 9.51255 13.4625C9.11885 13.6627 8.96193 14.1439 9.16196 14.5377C9.45943 15.1232 9.97398 15.5092 10.5047 15.7379C10.7272 15.8338 10.9618 15.9049 11.2 15.9547V16.5006C11.2002 16.9423 11.5582 17.3004 11.9999 17.3004C12.4416 17.3004 12.7995 16.9423 12.7997 16.5006V15.9567C13.16 15.8782 13.5122 15.7409 13.8163 15.528C14.3134 15.1796 14.6746 14.6283 14.6747 13.9098C14.6746 13.0719 14.2678 12.5028 13.7215 12.1403C13.2436 11.8233 12.6379 11.6526 12.1971 11.5221C11.6898 11.3719 11.3441 11.2613 11.1102 11.1022C10.9433 10.9886 10.8651 10.8785 10.8651 10.6334C10.8652 10.5067 10.9059 10.433 10.9793 10.3678C11.0715 10.286 11.2423 10.2005 11.4969 10.1608C12.028 10.0779 12.6307 10.236 12.9647 10.5367C13.293 10.8321 13.799 10.8053 14.0946 10.4772C14.3901 10.1489 14.3633 9.64291 14.035 9.34729C13.6823 9.02967 13.2514 8.81131 12.7997 8.68225V8.30042C12.7997 7.85859 12.4417 7.50061 11.9999 7.50061Z" fill="currentColor"/>
</svg>
