<svg xmlns="http://www.w3.org/2000/svg" viewBox="0 0 24 24" fill="none">
<path d="M12.5879 7C16.2692 7.0001 19.358 9.70427 19.8912 13.2936C19.9397 13.6203 20.1213 13.917 20.4074 14.0819L20.4983 14.1343C21.4275 14.6699 22.1059 15.6762 21.8931 16.7274C21.6831 17.7649 21.0604 18.5438 19.2139 18.6299L15.9277 18.8652C14.8554 18.9418 13.8133 19.2586 12.8799 19.792C11.4942 20.5837 9.92594 21 8.33008 21H5.74017C4.7791 21 4 20.2209 4 19.2598C4 18.8647 4.13448 18.4813 4.38133 18.1728L5.78125 16.4229C5.92284 16.2457 5.99991 16.0256 6 15.7988V13.8281C6.00003 13.545 6.04272 13.267 6.12012 13H9.82227C10.0668 13.9486 10.9253 14.6504 11.9502 14.6504C13.1651 14.6503 14.1503 13.6651 14.1504 12.4502C14.1504 11.4109 13.4289 10.5417 12.46 10.3115L12.2666 7.02344C12.3725 7.00884 12.4797 7 12.5879 7Z" fill="currentColor"/><path d="M11.9502 11.25C12.6128 11.2501 13.1504 11.7875 13.1504 12.4502C13.1503 13.1128 12.6128 13.6503 11.9502 13.6504C11.2875 13.6504 10.7501 13.1128 10.75 12.4502C10.75 11.7875 11.2875 11.25 11.9502 11.25Z" fill="currentColor"/><path d="M9.61426 3C10.4084 3.00004 11.0647 3.61929 11.1113 4.41211L11.458 10.3066C10.6244 10.4973 9.97155 11.1604 9.79688 12H6C4.89543 12 4 11.1046 4 10C4 9.7931 4.19028 9.63956 4.397 9.64823C4.43116 9.64966 4.46549 9.65039 4.5 9.65039H7.5C7.77614 9.65039 8 9.42653 8 9.15039C8 8.87425 7.77614 8.65039 7.5 8.65039H4.5C4.00511 8.65036 3.56716 8.40978 3.29395 8.04004C3.10866 7.73675 3 7.38142 3 7V6.75244C3 6.49229 3.23985 6.2998 3.5 6.2998H6.5C6.77614 6.2998 7 6.07595 7 5.7998C7 5.52366 6.77614 5.2998 6.5 5.2998H3.5C2.67157 5.2998 2 4.62823 2 3.7998C2 3.35808 2.35808 3 2.7998 3H9.61426Z" fill="currentColor"/>
</svg>
