<svg xmlns="http://www.w3.org/2000/svg" viewBox="0 0 24 24" fill="none">
<path d="M12 11L11.6327 5.85751C11.5579 4.8109 10.687 4 9.63776 4H3L3 5C3 6.10457 3.89543 7 5 7H7" stroke="currentColor" stroke-width="2" stroke-linecap="round" stroke-linejoin="round"/><path d="M8 10H5V11C5 12.1046 5.89543 13 7 13H10" stroke="currentColor" stroke-width="2" stroke-linecap="round" stroke-linejoin="round"/><path d="M7 7H4V8C4 9.10457 4.89543 10 6 10H8" stroke="currentColor" stroke-width="2" stroke-linecap="round" stroke-linejoin="round"/><circle cx="11.9969" cy="12.9002" r="1.7" stroke="currentColor" stroke-width="1.7" stroke-linecap="round" stroke-linejoin="round"/><path d="M7 13V15.2574C7 16.053 6.68393 16.8161 6.12132 17.3787L5.31066 18.1893C5.11175 18.3883 5 18.658 5 18.9393C5 19.5251 5.47487 20 6.06066 20H8.32988C9.75198 20 11.1495 19.6289 12.3842 18.9233C13.4478 18.3156 14.6344 17.9547 15.8563 17.8674L19.2014 17.6285C20.2148 17.5561 21 16.7128 21 15.6968C21 14.9633 20.5856 14.2928 19.9295 13.9648L19 13.5C18.7168 10.3851 16.1051 8 12.9773 8H12" stroke="currentColor" stroke-width="2" stroke-linecap="round" stroke-linejoin="round"/>
</svg>
