<svg width="24" height="24" viewBox="0 0 24 24" fill="none" xmlns="http://www.w3.org/2000/svg">
<path d="M20.2076 3.79375C18.9882 2.57428 17.011 2.57429 15.7915 3.79376L13.7854 5.7999C10.3895 3.79033 6.33541 3.44233 3.88873 5.88901C2.31808 7.45966 1.90595 9.73378 2.33048 11.9979C2.75608 14.2678 4.03118 16.6381 6.01005 18.6169C7.20752 19.8144 8.49446 20.6457 9.55254 21.1799C10.0821 21.4472 10.5625 21.6443 10.9562 21.7769C11.3068 21.895 11.6967 21.9999 11.9996 21.9999C12.5519 21.9999 12.9996 21.5522 12.9996 21C12.9996 20.4477 12.5519 19.9999 11.9996 19.9999C12.0179 19.9999 12.0158 19.9995 11.991 19.9941C11.9443 19.984 11.8169 19.9564 11.5946 19.8815C11.2978 19.7815 10.905 19.6222 10.4539 19.3945C9.5506 18.9385 8.4463 18.2247 7.42426 17.2027C5.69316 15.4716 4.63839 13.4542 4.29622 11.6293C3.95298 9.79872 4.33519 8.27098 5.30294 7.30322C6.72865 5.87752 9.46289 5.73491 12.3189 7.26643L11.1712 8.41415C10.4211 9.16429 9.99964 10.1817 9.99964 11.2426V12.9999C9.99964 13.5522 10.4474 13.9999 10.9996 13.9999H12.7721C13.8347 13.9999 14.8537 13.5771 15.6041 12.8248L16.9919 11.4336C18.0283 12.7604 18.718 14.0186 18.9981 15.0882C19.3215 16.3234 19.0807 17.1544 18.3749 17.7191C17.9278 18.0768 17.4104 18.1038 16.7273 17.8216C16.0153 17.5275 15.2921 16.9506 14.7117 16.39C14.3145 16.0063 13.6814 16.0173 13.2977 16.4146C12.914 16.8118 12.925 17.4449 13.3222 17.8286C13.9666 18.451 14.9054 19.2329 15.9638 19.6701C17.0511 20.1193 18.4127 20.2501 19.6243 19.2808C21.1329 18.074 21.3883 16.3207 20.9328 14.5815C20.545 13.1007 19.631 11.5277 18.4141 10.0078L20.2104 8.20707C21.4272 6.98716 21.426 5.01214 20.2076 3.79375Z" fill="currentColor" style="fill:currentColor;fill-opacity:1;"/>
</svg>
