<svg xmlns="http://www.w3.org/2000/svg" viewBox="0 0 24 24" fill="none">
<path d="M11.5074 1.79111C11.8302 1.70919 12.169 1.70921 12.4918 1.79111C12.866 1.88608 13.1864 2.11823 13.442 2.30283L13.5133 2.35361L22.0816 8.48838C22.5307 8.80987 22.6346 9.43482 22.3131 9.88389C21.9915 10.3328 21.3666 10.4358 20.9176 10.1144L19.9996 9.45713V15.2413C19.9996 16.0463 19.9999 16.7109 19.9556 17.252C19.9097 17.8141 19.8113 18.3312 19.564 18.8165C19.1805 19.569 18.5686 20.1811 17.816 20.5645C17.3307 20.8118 16.8136 20.9102 16.2515 20.9562C15.7104 21.0004 15.0457 21.0001 14.2408 21.0001H13.9996V16.0001C13.9996 14.8955 13.1042 14.0001 11.9996 14.0001C10.8952 14.0003 9.99959 14.8956 9.99959 16.0001V21.0001H9.75838C8.95349 21.0001 8.2888 21.0004 7.74764 20.9562C7.18583 20.9102 6.66929 20.8116 6.18416 20.5645C5.43166 20.1811 4.81962 19.569 4.43612 18.8165C4.18884 18.3312 4.09044 17.8141 4.04451 17.252C4.0003 16.7109 3.99958 16.0463 3.99959 15.2413V9.45713L3.08162 10.1144C2.63272 10.4356 2.00864 10.3325 1.68709 9.88389C1.36564 9.43487 1.46864 8.80991 1.91756 8.48838L10.4859 2.35361L10.5572 2.30283C10.8127 2.11826 11.1332 1.88617 11.5074 1.79111Z" fill="currentColor"/>
</svg>
