<svg width="24" height="24" viewBox="0 0 24 24" fill="none" xmlns="http://www.w3.org/2000/svg">
<path d="M5.00001 7.51142L11.0686 3.1668C11.4037 2.92691 11.5712 2.80697 11.754 2.76058C11.9155 2.71962 12.0846 2.71962 12.246 2.76058C12.4288 2.80697 12.5963 2.92691 12.9314 3.1668L19 7.51142M5.00001 7.51142V15.2C5.00001 16.8802 5.00001 17.7202 5.32699 18.362C5.61461 18.9265 6.07356 19.3854 6.63804 19.673C7.27978 20 8.11986 20 9.80001 20H14.2C15.8802 20 16.7203 20 17.362 19.673C17.9265 19.3854 18.3854 18.9265 18.673 18.362C19 17.7202 19 16.8802 19 15.2V7.51142M5.00001 7.51142L2.5 9.30122M19 7.51142L21.5 9.30122" stroke="currentColor" stroke-width="2" stroke-linecap="round" stroke-linejoin="round"/>
</svg>
