<svg width="24" height="24" viewBox="0 0 24 24" fill="none" xmlns="http://www.w3.org/2000/svg">
<path fill-rule="evenodd" clip-rule="evenodd" d="M10.039 1.95571C11.2566 1.27078 12.7434 1.27078 13.961 1.95571L18.961 4.76821C20.2206 5.47669 21 6.80942 21 8.25452V17C21 19.2091 19.2091 21 17 21H7C4.79086 21 3 19.2091 3 17V8.25452C3 6.80942 3.77945 5.47669 5.03896 4.76821L10.039 1.95571ZM8.5 12C8.5 10.067 10.067 8.5 12 8.5C13.933 8.5 15.5 10.067 15.5 12C15.5 13.933 13.933 15.5 12 15.5C10.067 15.5 8.5 13.933 8.5 12Z" fill="currentColor" style="fill:currentColor;fill-opacity:1;"/>
</svg>
