<svg width="24" height="24" viewBox="0 0 24 24" fill="none" xmlns="http://www.w3.org/2000/svg">
<path fill-rule="evenodd" clip-rule="evenodd" d="M14.313 3.74373C12.9273 2.76169 11.0727 2.76169 9.68704 3.74373L4.68704 7.28744C3.62886 8.03742 3 9.25391 3 10.5509V17.0001C3 19.2098 4.79287 21.0001 7.0014 21.0001H7.02468C7.27551 18.4734 9.4073 16.5 12 16.5C14.5927 16.5 16.7245 18.4734 16.9753 21.0001H16.9986C19.2071 21.0001 21 19.2098 21 17.0001V10.5509C21 9.25391 20.3711 8.03742 19.313 7.28744L14.313 3.74373ZM12 9.75C10.6193 9.75 9.5 10.8693 9.5 12.25C9.5 13.6307 10.6193 14.75 12 14.75C13.3807 14.75 14.5 13.6307 14.5 12.25C14.5 10.8693 13.3807 9.75 12 9.75Z" fill="currentColor" style="fill:currentColor;fill-opacity:1;"/>
</svg>
