<svg width="24" height="24" viewBox="0 0 24 24" fill="none" xmlns="http://www.w3.org/2000/svg">
<path d="M11.5081 2.04131C11.831 1.95937 12.1692 1.95937 12.4921 2.04131C12.8664 2.13631 13.1871 2.36797 13.4427 2.55261L13.5136 2.60369L22.0822 8.73811C22.5313 9.0596 22.6347 9.68427 22.3132 10.1333C21.9917 10.5824 21.3671 10.6858 20.918 10.3643L20.0001 9.70719V9.88077C20.0001 10.4331 19.5524 10.8808 19.0001 10.8808C18.4478 10.8808 18.0001 10.4331 18.0001 9.88077V8.27535L12.3494 4.22991C12.1709 4.10212 12.0773 4.03581 12.0067 3.99222L12.0001 3.98821L11.9935 3.99222C11.9229 4.03581 11.8293 4.10212 11.6508 4.22991L6.00009 8.27535V15.2001C6.00009 16.0566 6.00087 16.6389 6.03764 17.089C6.07346 17.5274 6.13839 17.7516 6.21808 17.908C6.40983 18.2844 6.71579 18.5903 7.09211 18.7821C7.24851 18.8618 7.47271 18.9267 7.91113 18.9625C8.36122 18.9993 8.94351 19.0001 9.80009 19.0001H12.0001C12.5524 19.0001 13.0001 19.4478 13.0001 20.0001C13.0001 20.5523 12.5524 21.0001 12.0001 21.0001H9.75882C8.95384 21.0001 8.28947 21.0001 7.74827 20.9559C7.18617 20.9099 6.66947 20.8114 6.18413 20.5641C5.43148 20.1806 4.81956 19.5687 4.43607 18.816C4.18878 18.3307 4.09021 17.814 4.04429 17.2519C4.00007 16.7107 4.00008 16.0463 4.00009 15.2414L4.00009 9.70718L3.08219 10.3643C2.63313 10.6858 2.00846 10.5824 1.68697 10.1333C1.36548 9.68427 1.4689 9.0596 1.91796 8.73811L10.4866 2.60369L10.5575 2.55261C10.8131 2.36797 11.1338 2.13631 11.5081 2.04131Z" fill="currentColor" style="fill:currentColor;fill-opacity:1;"/>
<path d="M19.0185 14.0218C19.0185 13.5324 18.4182 13.3132 18.1152 13.692L15.1162 17.441C14.8441 17.781 15.0807 18.2916 15.5103 18.2916H16.9817V20.4782C16.9817 20.9676 17.582 21.1868 17.885 20.808L20.884 17.059C21.156 16.719 20.9195 16.2084 20.4899 16.2084H19.0185V14.0218Z" fill="currentColor" style="fill:currentColor;fill-opacity:1;"/>
<path d="M9.00009 12C9.00009 10.3431 10.3432 9 12.0001 9C13.6569 9 15.0001 10.3431 15.0001 12C15.0001 13.6569 13.6569 15 12.0001 15C10.3432 15 9.00009 13.6569 9.00009 12Z" fill="currentColor" style="fill:currentColor;fill-opacity:1;"/>
</svg>
