<svg width="24" height="24" viewBox="0 0 24 24" fill="none" xmlns="http://www.w3.org/2000/svg">
<path d="M11 6.5V11H13V8.5C13 7.11929 14.1193 6 15.5 6C16.8807 6 18 7.11929 18 8.5V11H20C20.5523 11 21 11.4477 21 12C21 12.5523 20.5523 13 20 13H18V15.5C18 16.8807 16.8807 18 15.5 18C14.1193 18 13 16.8807 13 15.5V13H11V17.5C11 18.8807 9.88071 20 8.5 20C7.11929 20 6 18.8807 6 17.5V13H4C3.44772 13 3 12.5523 3 12C3 11.4477 3.44772 11 4 11H6V6.5C6 5.11929 7.11929 4 8.5 4C9.88071 4 11 5.11929 11 6.5Z" fill="currentColor" style="fill:currentColor;fill-opacity:1;"/>
</svg>
