<svg xmlns="http://www.w3.org/2000/svg" viewBox="0 0 24 24" fill="none">
<path fill-rule="evenodd" clip-rule="evenodd" d="M19 2C19.5523 2 20 2.44772 20 3C20 3.55228 19.5523 4 19 4V6C19 9.31371 16.3137 12 13 12L13.3086 12.0078C16.4789 12.1684 19 14.7898 19 18V20C19.5523 20 20 20.4477 20 21C20 21.5523 19.5523 22 19 22H5C4.44772 22 4 21.5523 4 21C4 20.4477 4.44772 20 5 20V18C5 14.7898 7.52111 12.1684 10.6914 12.0078L11 12C7.68629 12 5 9.31371 5 6V4C4.44772 4 4 3.55228 4 3C4 2.44772 4.44772 2 5 2H19ZM9.36719 16.8779C8.55089 17.1502 8.00019 17.9139 8 18.7744V19H16V18.7744C15.9998 17.9139 15.4491 17.1502 14.6328 16.8779L12 16L9.36719 16.8779Z" fill="currentColor"/>
</svg>
