<svg xmlns="http://www.w3.org/2000/svg" viewBox="0 0 24 24" fill="none">
<path fill-rule="evenodd" clip-rule="evenodd" d="M13.0039 2C15.213 2 17.0039 3.79086 17.0039 6H18C20.2091 6 22 7.79086 22 10V17C22 19.2091 20.2091 21 18 21H6C3.79086 21 2 19.2091 2 17V10C2 7.79086 3.79086 6 6 6H7.00391C7.00391 3.79086 8.79477 2 11.0039 2H13.0039ZM12 10.5C11.4477 10.5 11 10.9477 11 11.5V12.5H10C9.44772 12.5 9 12.9477 9 13.5C9 14.0523 9.44772 14.5 10 14.5H11V15.5C11 16.0523 11.4477 16.5 12 16.5C12.5523 16.5 13 16.0523 13 15.5V14.5H14C14.5523 14.5 15 14.0523 15 13.5C15 12.9477 14.5523 12.5 14 12.5H13V11.5C13 10.9477 12.5523 10.5 12 10.5ZM11.0039 4C9.89934 4 9.00391 4.89543 9.00391 6H15.0039C15.0039 4.89543 14.1085 4 13.0039 4H11.0039Z" fill="currentColor"/>
</svg>
