<svg xmlns="http://www.w3.org/2000/svg" viewBox="0 0 24 24" fill="none">
<path d="M13.5 19.2297C13.9783 18.9536 14.5901 19.1177 14.8662 19.596C15.1419 20.0741 14.978 20.6851 14.5 20.9612L14 21.2503C12.7625 21.9647 11.2376 21.9647 10 21.2503L9.5 20.9612C9.02203 20.6851 8.85813 20.0741 9.13379 19.596C9.40993 19.1177 10.0217 18.9536 10.5 19.2297L11 19.5178C11.6187 19.875 12.3813 19.875 13 19.5178L13.5 19.2297Z" fill="currentColor"/><path d="M4 13.2503C4.55228 13.2503 5 13.698 5 14.2503V14.8977L5.00488 15.0305C5.04882 15.6916 5.41813 16.2917 5.99609 16.6272L6.50195 16.9212C6.97951 17.1984 7.14244 17.8107 6.86523 18.2883C6.58795 18.7658 5.97562 18.9278 5.49805 18.6506L4.99219 18.3577C3.83612 17.6866 3.09661 16.4856 3.00879 15.1633L3 14.8977V14.2503C3 13.698 3.44772 13.2503 4 13.2503Z" fill="currentColor"/><path d="M20 13.2503C20.5523 13.2503 21 13.698 21 14.2503V14.8977C20.9999 16.3234 20.2408 17.642 19.0078 18.3577L18.502 18.6506C18.0244 18.9278 17.412 18.7658 17.1348 18.2883C16.8576 17.8107 17.0205 17.1984 17.498 16.9212L18.0039 16.6272C18.6203 16.2694 18.9999 15.6105 19 14.8977V14.2503C19 13.698 19.4477 13.2503 20 13.2503Z" fill="currentColor"/><path d="M12 7.50025C12.2711 7.50025 12.514 7.66714 12.6113 7.92017L13.1328 9.27564C13.4142 10.0073 13.993 10.586 14.7246 10.8674L16.0801 11.3889C16.333 11.4863 16.5 11.7292 16.5 12.0003C16.4999 12.2712 16.333 12.5143 16.0801 12.6116L14.7246 13.1331C13.9931 13.4144 13.4142 13.9924 13.1328 14.7239L12.6113 16.0803C12.5139 16.3332 12.271 16.5003 12 16.5003C11.729 16.5003 11.4861 16.3332 11.3887 16.0803L10.8672 14.7239C10.5858 13.9924 10.0069 13.4144 9.27539 13.1331L7.91992 12.6116C7.66699 12.5143 7.5001 12.2712 7.5 12.0003C7.5 11.7292 7.66701 11.4863 7.91992 11.3889L9.27539 10.8674C10.007 10.586 10.5858 10.0073 10.8672 9.27564L11.3887 7.92017C11.486 7.66714 11.7289 7.50025 12 7.50025Z" fill="currentColor"/><path d="M5.49805 5.34986C5.9757 5.07261 6.58798 5.23452 6.86523 5.71217C7.14232 6.18979 6.97953 6.80214 6.50195 7.07935L5.99609 7.3733C5.37966 7.73119 5 8.38999 5 9.10279V9.75025C4.99987 10.3024 4.55221 10.7503 4 10.7503C3.44779 10.7503 3.00013 10.3024 3 9.75025V9.10279C3 7.67709 3.75918 6.35858 4.99219 5.64283L5.49805 5.34986Z" fill="currentColor"/><path d="M17.1348 5.71217C17.412 5.23452 18.0243 5.07261 18.502 5.34986L19.0078 5.64283C20.2408 6.35858 21 7.67708 21 9.10279V9.75025C20.9999 10.3024 20.5522 10.7503 20 10.7503C19.4478 10.7503 19.0001 10.3024 19 9.75025V9.10279C19 8.38999 18.6203 7.73119 18.0039 7.3733L17.498 7.07935C17.0205 6.80214 16.8577 6.18979 17.1348 5.71217Z" fill="currentColor"/><path d="M10 2.75025C11.2376 2.03572 12.7624 2.03572 14 2.75025L14.5 3.03931C14.9779 3.31546 15.142 3.92641 14.8662 4.40455C14.59 4.88267 13.9782 5.04679 13.5 4.77076L13 4.48267C12.3812 4.12541 11.6188 4.12541 11 4.48267L10.5 4.77076C10.0218 5.04679 9.40996 4.88267 9.13379 4.40455C8.85801 3.9264 9.02204 3.31546 9.5 3.03931L10 2.75025Z" fill="currentColor"/>
</svg>
