<svg xmlns="http://www.w3.org/2000/svg" viewBox="0 0 24 24" fill="none">
<path d="M3.875 10.9893C4.40883 10.8489 4.95589 11.1675 5.09668 11.7012C5.23051 12.209 5.49563 12.7406 5.85742 13.3262C6.23282 13.9337 6.63109 14.4774 7.07227 15.1436C7.87731 16.3591 8.78124 17.9014 8.4873 19.665C8.48558 19.6754 8.48349 19.686 8.48145 19.6963L8.18164 21.1963C8.07323 21.7374 7.54602 22.0892 7.00488 21.9814C6.46357 21.8732 6.1119 21.346 6.21973 20.8047L6.51465 19.3301C6.6637 18.42 6.22349 17.485 5.4043 16.248C5.03264 15.6869 4.54621 15.0081 4.15625 14.377C3.75265 13.7237 3.37038 12.9977 3.16309 12.2109C3.02246 11.6769 3.34106 11.13 3.875 10.9893ZM11.5342 2.00977C13.4705 2.07451 14.9472 2.49916 16.0498 3.28125C17.165 4.07249 17.7884 5.15179 18.1602 6.30371C18.2986 6.73203 18.5999 7.07479 19.0869 7.40332C19.6007 7.74982 20.2006 8.00583 20.9004 8.33594C21.7734 8.74831 21.9981 9.83812 21.4482 10.5713L20.6084 11.6904C21.1195 13.3623 21.2645 14.6345 21.0518 15.626C20.7945 16.8235 20.0566 17.4639 19.2832 17.8477C18.925 18.0253 18.5481 18.1549 18.2373 18.2607C17.9045 18.3741 17.6418 18.4628 17.4062 18.5723C16.9849 18.7682 16.7729 18.9694 16.6729 19.3604L16.2158 21.2373C16.0849 21.7734 15.544 22.102 15.0078 21.9717C14.4713 21.841 14.142 21.3001 14.2725 20.7637L14.7324 18.876L14.7354 18.8643C15.0334 17.6995 15.8081 17.1089 16.5635 16.7578C16.9164 16.5938 17.2914 16.4698 17.5928 16.3672C17.916 16.2571 18.172 16.167 18.3945 16.0566C18.7827 15.864 19.0009 15.6519 19.0967 15.2061C19.2157 14.651 19.16 13.6412 18.5518 11.8164C18.4482 11.5053 18.5044 11.1628 18.7012 10.9004L19.4707 9.87305C18.9853 9.64572 18.4447 9.38317 17.9678 9.06152C17.2632 8.58614 16.5804 7.9191 16.2568 6.91699C15.9766 6.04885 15.5603 5.38697 14.8926 4.91309C14.2117 4.43011 13.1597 4.06444 11.4678 4.00781C10.916 3.98939 10.4829 3.52727 10.501 2.97559C10.5194 2.42361 10.9822 1.99133 11.5342 2.00977ZM6 2C6.24094 2 6.4574 2.1482 6.54395 2.37305L7.08105 3.77051C7.2842 4.29855 7.70145 4.71579 8.22949 4.91895L9.62695 5.45605C9.8518 5.5426 10 5.75906 10 6C10 6.24094 9.8518 6.4574 9.62695 6.54395L8.22949 7.08105C7.70145 7.2842 7.28421 7.70145 7.08105 8.22949L6.54395 9.62695C6.4574 9.8518 6.24094 10 6 10C5.75906 10 5.5426 9.8518 5.45605 9.62695L4.91895 8.22949C4.71579 7.70145 4.29855 7.28421 3.77051 7.08105L2.37305 6.54395C2.1482 6.4574 2 6.24094 2 6C2 5.75906 2.1482 5.5426 2.37305 5.45605L3.77051 4.91895C4.29855 4.71579 4.71579 4.29855 4.91895 3.77051L5.45605 2.37305C5.5426 2.1482 5.75906 2 6 2Z" fill="currentColor"/>
</svg>
