<svg width="24" height="24" viewBox="0 0 24 24" fill="none" xmlns="http://www.w3.org/2000/svg">
<path fill-rule="evenodd" clip-rule="evenodd" d="M3 7C3 4.79086 4.79086 3 7 3H17C19.2091 3 21 4.79086 21 7V17C21 19.2091 19.2091 21 17 21H7C4.79086 21 3 19.2091 3 17V7ZM5 15V17C5 18.1046 5.89543 19 7 19H17C18.1046 19 19 18.1046 19 17V15H5ZM19 13V7C19 5.89543 18.1046 5 17 5H7C5.89543 5 5 5.89543 5 7V9.58579L5.17157 9.41421C6.73367 7.85212 9.26633 7.85212 10.8284 9.41421L14.4142 13H19ZM13 8.5C13 7.11929 14.1193 6 15.5 6C16.8807 6 18 7.11929 18 8.5C18 9.88071 16.8807 11 15.5 11C14.1193 11 13 9.88071 13 8.5ZM6 17C6 16.4477 6.44772 16 7 16H12C12.5523 16 13 16.4477 13 17C13 17.5523 12.5523 18 12 18H7C6.44772 18 6 17.5523 6 17ZM14 17C14 16.4477 14.4477 16 15 16H17C17.5523 16 18 16.4477 18 17C18 17.5523 17.5523 18 17 18H15C14.4477 18 14 17.5523 14 17Z" fill="currentColor" style="fill:currentColor;fill-opacity:1;"/>
</svg>
