<svg width="25" height="24" viewBox="0 0 25 24" fill="none" xmlns="http://www.w3.org/2000/svg">
<path d="M14.3245 8.35093L14.8028 7.39443C14.987 7.0259 15.513 7.0259 15.6972 7.39443L16.1755 8.35093C16.2238 8.44769 16.3023 8.52615 16.3991 8.57454L17.3556 9.05279C17.7241 9.23705 17.7241 9.76295 17.3556 9.94721L16.3991 10.4255C16.3023 10.4738 16.2238 10.5523 16.1755 10.6491L15.6972 11.6056C15.513 11.9741 14.987 11.9741 14.8028 11.6056L14.3245 10.6491C14.2762 10.5523 14.1977 10.4738 14.1009 10.4255L13.1444 9.94721C12.7759 9.76295 12.7759 9.23705 13.1444 9.05279L14.1009 8.57454C14.1977 8.52615 14.2762 8.44769 14.3245 8.35093Z" fill="currentColor" style="fill:currentColor;fill-opacity:1;"/>
<path fill-rule="evenodd" clip-rule="evenodd" d="M3.75 7C3.75 4.79086 5.54086 3 7.75 3H17.75C19.9591 3 21.75 4.79086 21.75 7V17C21.75 19.2091 19.9591 21 17.75 21H7.75C5.54086 21 3.75 19.2091 3.75 17V7ZM7.75 5C6.64543 5 5.75 5.89543 5.75 7V13.5858L5.92157 13.4142C7.48367 11.8521 10.0163 11.8521 11.5784 13.4142L17.1642 19H17.75C18.8546 19 19.75 18.1046 19.75 17V7C19.75 5.89543 18.8546 5 17.75 5H7.75Z" fill="currentColor" style="fill:currentColor;fill-opacity:1;"/>
</svg>
