<svg xmlns="http://www.w3.org/2000/svg" viewBox="0 0 24 24" fill="none">
<path d="M19.2405 4.18518L18.5436 2.37334C18.4571 2.14842 18.241 2 18 2C17.759 2 17.5429 2.14842 17.4564 2.37334L16.7595 4.18518C16.658 4.44927 16.4493 4.65797 16.1852 4.75955L14.3733 5.45641C14.1484 5.54292 14 5.75901 14 6C14 6.24099 14.1484 6.45708 14.3733 6.54359L16.1852 7.24045C16.4493 7.34203 16.658 7.55073 16.7595 7.81482L17.4564 9.62666C17.5429 9.85158 17.759 10 18 10C18.241 10 18.4571 9.85158 18.5436 9.62666L19.2405 7.81482C19.342 7.55073 19.5507 7.34203 19.8148 7.24045L21.6267 6.54359C21.8516 6.45708 22 6.24099 22 6C22 5.75901 21.8516 5.54292 21.6267 5.45641L19.8148 4.75955C19.5507 4.65797 19.342 4.44927 19.2405 4.18518Z" fill="currentColor"/><path d="M12 4C12 4.55228 11.5523 5 11 5H7C5.89543 5 5 5.89543 5 7V13.5859L7.29297 11.293C7.68349 10.9024 8.31651 10.9024 8.70703 11.293L12 14.5859L13.293 13.293C13.6835 12.9024 14.3165 12.9024 14.707 13.293L18.9326 17.5176C18.9767 17.3525 19 17.179 19 17V13C19 12.4477 19.4477 12 20 12C20.5523 12 21 12.4477 21 13V17C21 19.2091 19.2091 21 17 21H7C4.79086 21 3 19.2091 3 17V7C3 4.79086 4.79086 3 7 3H11C11.5523 3 12 3.44772 12 4Z" fill="currentColor"/>
</svg>
