<svg width="24" height="24" viewBox="0 0 24 24" fill="none" xmlns="http://www.w3.org/2000/svg">
<path d="M16 4C15.4477 4 15 4.44772 15 5C15 5.55228 15.4477 6 16 6H18C19.1046 6 20 6.89543 20 8V16C20 17.1046 19.1046 18 18 18H6C4.89543 18 4 17.1046 4 16V9C4 8.44772 3.55228 8 3 8C2.44772 8 2 8.44772 2 9V16C2 18.2091 3.79086 20 6 20H18C20.2091 20 22 18.2091 22 16V8C22 5.79086 20.2091 4 18 4H16Z" fill="currentColor" style="fill:currentColor;fill-opacity:1;"/>
<path d="M3 4C2.44772 4 2 4.44772 2 5C2 5.55228 2.44772 6 3 6H7C9.20914 6 11 7.79086 11 10V12.5858L8.95711 10.5429C8.56658 10.1524 7.93342 10.1524 7.54289 10.5429C7.15237 10.9334 7.15237 11.5666 7.54289 11.9571L11.2929 15.7071C11.6834 16.0976 12.3166 16.0976 12.7071 15.7071L16.4571 11.9571C16.8476 11.5666 16.8476 10.9334 16.4571 10.5429C16.0666 10.1524 15.4334 10.1524 15.0429 10.5429L13 12.5858V10C13 6.68629 10.3137 4 7 4H3Z" fill="currentColor" style="fill:currentColor;fill-opacity:1;"/>
</svg>
