<svg width="24" height="24" viewBox="0 0 24 24" fill="none" xmlns="http://www.w3.org/2000/svg">
<path d="M17 4C13.6863 4 11 6.68629 11 10V12.5858L8.95711 10.5429C8.56658 10.1524 7.93342 10.1524 7.54289 10.5429C7.15237 10.9334 7.15237 11.5666 7.54289 11.9571L11.2929 15.7071C11.6834 16.0976 12.3166 16.0976 12.7071 15.7071L16.4571 11.9571C16.8476 11.5666 16.8476 10.9334 16.4571 10.5429C16.0666 10.1524 15.4334 10.1524 15.0429 10.5429L13 12.5858V10C13 7.79086 14.7909 6 17 6H21C21.5523 6 22 5.55228 22 5C22 4.44772 21.5523 4 21 4H17Z" fill="currentColor" style="fill:currentColor;fill-opacity:1;"/>
<path d="M4 8C4 6.89543 4.89543 6 6 6H8C8.55228 6 9 5.55228 9 5C9 4.44772 8.55228 4 8 4H6C3.79086 4 2 5.79086 2 8V16C2 18.2091 3.79086 20 6 20H18C20.2091 20 22 18.2091 22 16V9C22 8.44772 21.5523 8 21 8C20.4477 8 20 8.44772 20 9V16C20 17.1046 19.1046 18 18 18H6C4.89543 18 4 17.1046 4 16V8Z" fill="currentColor" style="fill:currentColor;fill-opacity:1;"/>
</svg>
