<svg xmlns="http://www.w3.org/2000/svg" viewBox="0 0 24 24" fill="none">
<path d="M11 9.5C12.1046 9.5 13 10.3954 13 11.5V18H14C14.5523 18 15 18.4477 15 19C15 19.5523 14.5523 20 14 20H10C9.44772 20 9 19.5523 9 19C9 18.4477 9.44772 18 10 18H11V11.5H10C9.44772 11.5 9 11.0523 9 10.5C9 9.94772 9.44772 9.5 10 9.5H11Z" fill="currentColor"/><path d="M12 4C12.8284 4 13.5 4.67157 13.5 5.5C13.5 6.32843 12.8284 7 12 7C11.1716 7 10.5 6.32843 10.5 5.5C10.5 4.67157 11.1716 4 12 4Z" fill="currentColor"/>
</svg>
