<svg width="24" height="24" viewBox="0 0 24 24" fill="none" xmlns="http://www.w3.org/2000/svg">
<path d="M4 12C4 7.58172 7.58172 4 12 4C16.4183 4 20 7.58172 20 12C20 12.9254 19.8433 13.812 19.5558 14.6361C19.3739 15.1576 19.6492 15.7278 20.1706 15.9097C20.6921 16.0916 21.2623 15.8163 21.4442 15.2949C21.8046 14.2619 22 13.1527 22 12C22 6.47715 17.5228 2 12 2C6.47715 2 2 6.47715 2 12C2 13.1527 2.19544 14.2619 2.5558 15.2949C2.73772 15.8163 3.30792 16.0916 3.82938 15.9097C4.35085 15.7278 4.62611 15.1576 4.4442 14.6361C4.1567 13.812 4 12.9254 4 12Z" fill="currentColor" style="fill:currentColor;fill-opacity:1;"/>
<path d="M13.745 10.5694C12.9813 9.20572 11.0187 9.20572 10.255 10.5694L6.08602 18.014C5.0682 19.8316 7.16025 21.8001 8.91254 20.6736L12 18.6888L15.0875 20.6736C16.8397 21.8001 18.9318 19.8316 17.914 18.014L13.745 10.5694Z" fill="currentColor" style="fill:currentColor;fill-opacity:1;"/>
</svg>
