<svg width="24" height="24" viewBox="0 0 24 24" fill="none" xmlns="http://www.w3.org/2000/svg">
<path fill-rule="evenodd" clip-rule="evenodd" d="M7.70696 7.29289C8.09748 7.68342 8.09748 8.31658 7.70696 8.70711L4.41406 12L7.70696 15.2929C8.09748 15.6834 8.09748 16.3166 7.70696 16.7071C7.31643 17.0976 6.68327 17.0976 6.29274 16.7071L2.99985 13.4142C2.2188 12.6332 2.2188 11.3668 2.99985 10.5858L6.29274 7.29289C6.68327 6.90237 7.31643 6.90237 7.70696 7.29289ZM16.2927 7.29289C16.6833 6.90237 17.3164 6.90237 17.707 7.29289L20.9998 10.5858C21.7809 11.3668 21.7809 12.6332 20.9998 13.4142L17.707 16.7071C17.3164 17.0976 16.6833 17.0976 16.2927 16.7071C15.9022 16.3166 15.9022 15.6834 16.2927 15.2929L19.5856 12L16.2927 8.70711C15.9022 8.31658 15.9022 7.68342 16.2927 7.29289Z" fill="currentColor" style="fill:currentColor;fill-opacity:1;"/>
</svg>
