<svg xmlns="http://www.w3.org/2000/svg" viewBox="0 0 24 24" fill="none">
<path d="M20 7.99992C21.1046 7.99992 22 8.89536 22 9.99992C22 11.1045 21.1046 11.9999 20 11.9999C19.8843 11.9999 19.7714 11.9875 19.6611 11.9687L16.875 15.3114C16.954 15.5264 17 15.7576 17 15.9999C17 17.1045 16.1046 17.9999 15 17.9999C13.8954 17.9999 13 17.1045 13 15.9999C13 15.8843 13.0114 15.7713 13.0303 15.6611L9.6875 12.8749C9.47279 12.9537 9.24201 12.9999 9 12.9999C8.93472 12.9999 8.87032 12.9953 8.80664 12.9892L5.81836 17.1718C5.93359 17.4244 6 17.7042 6 17.9999C6 19.1045 5.10457 19.9999 4 19.9999C2.89543 19.9999 2 19.1045 2 17.9999C2 16.8954 2.89543 15.9999 4 15.9999C4.06492 15.9999 4.12905 16.0036 4.19238 16.0097L7.18066 11.8261C7.06601 11.574 7 11.2949 7 10.9999C7 9.89536 7.89543 8.99992 9 8.99992C10.1046 8.99992 11 9.89536 11 10.9999C11 11.1153 10.9875 11.2278 10.9688 11.3378L14.3105 14.1239C14.5257 14.0449 14.7575 13.9999 15 13.9999C15.1149 13.9999 15.2273 14.0116 15.3369 14.0302L18.123 10.6874C18.0444 10.4729 18 10.2417 18 9.99992C18 8.89536 18.8954 7.99992 20 7.99992Z" fill="currentColor"/><path d="M4.5 6.99992C5.32843 6.99992 6 7.6715 6 8.49992C6 9.32835 5.32843 9.99992 4.5 9.99992C3.67157 9.99992 3 9.32835 3 8.49992C3 7.6715 3.67157 6.99992 4.5 6.99992Z" fill="currentColor"/><path d="M16.6464 6.14637C16.8417 6.34163 16.8417 6.65822 16.6464 6.85348L14.8536 8.64637C14.6583 8.84163 14.3417 8.84163 14.1464 8.64637L12.3536 6.85348C12.1583 6.65822 12.1583 6.34163 12.3536 6.14637L14.1464 4.35348C14.3417 4.15822 14.6583 4.15822 14.8536 4.35348L16.6464 6.14637Z" fill="currentColor"/>
</svg>
