<svg xmlns="http://www.w3.org/2000/svg" viewBox="0 0 24 24" fill="none">
<path fill-rule="evenodd" clip-rule="evenodd" d="M16.4999 2C19.5375 2.00004 21.9999 4.46246 21.9999 7.5C21.9999 10.5375 19.5375 13 16.4999 13C15.3422 13 14.2689 12.6411 13.3827 12.0303L10.1816 15.2314L11.4218 16.4717C12.4708 17.5211 12.4708 19.2221 11.4218 20.2715C10.3723 21.3209 8.67051 21.3209 7.62102 20.2715L6.38078 19.0312L4.20696 21.207C3.81644 21.5975 3.18342 21.5975 2.79289 21.207C2.40237 20.8165 2.40237 20.1835 2.79289 19.793L11.9687 10.6162C11.3582 9.73029 10.9999 8.65723 10.9999 7.5C10.9999 4.46243 13.4624 2 16.4999 2ZM16.4999 4C14.5669 4 12.9999 5.567 12.9999 7.5C12.9999 9.433 14.5669 11 16.4999 11C18.4329 11 19.9999 9.43297 19.9999 7.5C19.9999 5.56703 18.4329 4.00004 16.4999 4Z" fill="currentColor"/>
</svg>
