<svg xmlns="http://www.w3.org/2000/svg" viewBox="0 0 24 24" fill="none">
<path d="M8 11.7499C8.82843 11.7499 9.5 12.4215 9.5 13.2499C9.49996 14.0783 8.8284 14.7499 8 14.7499C7.1716 14.7499 6.50004 14.0783 6.5 13.2499C6.5 12.4215 7.17157 11.7499 8 11.7499Z" fill="currentColor"/><path d="M16 11.7499C16.8284 11.7499 17.5 12.4215 17.5 13.2499C17.5 14.0783 16.8284 14.7499 16 14.7499C15.1716 14.7499 14.5 14.0783 14.5 13.2499C14.5 12.4215 15.1716 11.7499 16 11.7499Z" fill="currentColor"/><path fill-rule="evenodd" clip-rule="evenodd" d="M14.793 1.79289C15.1835 1.40237 15.8165 1.40237 16.207 1.79289C16.5975 2.18342 16.5975 2.81644 16.207 3.20696L15.7354 3.67766C16.5107 4.54882 16.9851 5.69227 16.998 6.94719C19.4009 8.48002 20.9999 11.09 21 14.0907C21 17.0376 19.8035 19.745 17.3984 21.3163C16.1808 22.1117 14.8406 21.6481 14.0498 20.7568C13.3872 20.8843 12.7016 20.954 12 20.954C11.298 20.954 10.6122 20.8845 9.94922 20.7568C9.15838 21.6478 7.81898 22.1115 6.60156 21.3163C4.19654 19.745 3.00002 17.0376 3 14.0907C3.00005 11.0903 4.59846 8.48008 7.00098 6.94719C7.01392 5.6925 7.48856 4.54876 8.26367 3.67766L7.79297 3.20696C7.40246 2.81644 7.40248 2.18342 7.79297 1.79289C8.18349 1.40237 8.81651 1.40237 9.20703 1.79289L9.88281 2.46867C10.5257 2.16777 11.2433 1.99992 12 1.99992C12.7564 1.99992 13.4735 2.168 14.1162 2.46867L14.793 1.79289ZM11 7.56731C7.57164 8.02656 5.00008 10.8115 5 14.0907C5.00002 16.5063 5.96637 18.5129 7.69531 19.6425C7.8233 19.726 7.96387 19.74 8.12598 19.6777C8.30357 19.6092 8.49056 19.4484 8.60156 19.2118L11 14.0976V7.56731ZM13 14.0976L15.3984 19.2118C15.5094 19.4484 15.6964 19.6092 15.874 19.6777C16.0361 19.74 16.1767 19.726 16.3047 19.6425C18.0336 18.5129 19 16.5063 19 14.0907C18.9999 10.8115 16.4284 8.02656 13 7.56731V14.0976Z" fill="currentColor"/>
</svg>
