<svg width="24" height="24" viewBox="0 0 24 24" fill="none" xmlns="http://www.w3.org/2000/svg">
<path d="M7.86252 3.00005C7.06713 2.99962 6.47647 2.9993 5.96482 3.13639C4.58445 3.50626 3.50626 4.58445 3.13639 5.96482C2.9993 6.47647 2.99962 7.06713 3.00005 7.86252L3.0001 8.0001C3.0001 8.55238 3.44781 9.0001 4.0001 9.0001H10.0001C10.5524 9.0001 11.0001 8.55238 11.0001 8.0001V4.0001C11.0001 3.44781 10.5524 3.0001 10.0001 3.0001L7.86252 3.00005Z" fill="currentColor" style="fill:currentColor;fill-opacity:1;"/>
<path d="M20.1487 15.0285C20.056 15.007 19.9796 15.0026 19.9424 15.0011C19.9125 14.9999 19.882 15 19.8729 15L19.871 15H14C13.4477 15 13 15.4477 13 16V20C13 20.5523 13.4477 21 14 21L16.2488 21C16.9415 21.0004 17.4554 21.0006 17.9042 20.8965C19.3908 20.5515 20.5515 19.3908 20.8965 17.9042C21.0006 17.4554 21.0004 16.9415 21 16.2489L21 16.129L21 16.1271C21 16.118 21.0001 16.0875 20.9989 16.0576C20.9974 16.0204 20.993 15.944 20.9715 15.8514C20.8767 15.4426 20.5575 15.1233 20.1487 15.0285Z" fill="currentColor" style="fill:currentColor;fill-opacity:1;"/>
<path d="M4 11C3.44772 11 3 11.4477 3 12L3 15.2413C2.99999 16.0463 2.99998 16.7106 3.04419 17.2518C3.09012 17.8139 3.18868 18.3306 3.43597 18.816C3.81947 19.5686 4.43139 20.1805 5.18404 20.564C5.66937 20.8113 6.18608 20.9099 6.74817 20.9558C7.28938 21 7.95374 21 8.75873 21H10C10.5523 21 11 20.5523 11 20V12C11 11.4477 10.5523 11 10 11H4Z" fill="currentColor" style="fill:currentColor;fill-opacity:1;"/>
<path d="M18.816 3.43597C18.3306 3.18868 17.8139 3.09012 17.2518 3.04419C16.7106 2.99998 16.0463 2.99999 15.2413 3L14 3C13.4477 3 13 3.44772 13 4V12C13 12.5523 13.4477 13 14 13H20C20.5523 13 21 12.5523 21 12V8.7587C21 7.95374 21 7.28937 20.9558 6.74817C20.9099 6.18608 20.8113 5.66937 20.564 5.18404C20.1805 4.43139 19.5686 3.81947 18.816 3.43597Z" fill="currentColor" style="fill:currentColor;fill-opacity:1;"/>
</svg>
