<svg xmlns="http://www.w3.org/2000/svg" viewBox="0 0 24 24" fill="none">
<path d="M15.0996 21.5078C14.1235 21.8258 13.0822 22 12 22C10.1369 22 8.39376 21.4888 6.90039 20.6016L15.0996 15.8682V21.5078Z" fill="currentColor"/><path d="M21.7842 14.0693C21.1836 16.923 19.3664 19.3263 16.9004 20.7158V11.249L21.7842 14.0693Z" fill="currentColor"/><path d="M10.1992 16.6182L5.31641 19.4375C3.28069 17.6069 2 14.9532 2 12C2 11.9619 2.00153 11.9238 2.00195 11.8857L10.1992 16.6182Z" fill="currentColor"/><path d="M15.0996 10.209V13.79L12 15.5781L8.90039 13.7891V10.209L12 8.41992L15.0996 10.209Z" fill="currentColor"/><path d="M7.09961 12.749L2.21484 9.92969C2.81557 7.07622 4.63358 4.67253 7.09961 3.2832V12.749Z" fill="currentColor"/><path d="M18.6826 4.56152C20.7189 6.39212 22 9.04626 22 12C22 12.0375 21.9975 12.0749 21.9971 12.1123L13.7998 7.38086L18.6826 4.56152Z" fill="currentColor"/><path d="M12 2C13.8626 2 15.6055 2.5106 17.0986 3.39746L8.90039 8.13086V2.49121C9.8764 2.17327 10.9179 2 12 2Z" fill="currentColor"/>
</svg>
