<svg xmlns="http://www.w3.org/2000/svg" viewBox="0 0 24 24" fill="none">
<path d="M12 2C17.5228 2 22 6.47715 22 12C22 17.5228 17.5228 22 12 22C6.47715 22 2 17.5228 2 12C2 6.47715 6.47715 2 12 2ZM9.57422 7.77246C8.99414 7.77246 8.61914 8.08887 8.61914 8.63965C8.61914 9.19043 9 9.50684 9.57422 9.50684H12.6797V9.55371L8.95898 14.4697C8.74805 14.7451 8.66016 14.9736 8.66016 15.2666C8.66016 15.8525 9.08789 16.2275 9.73242 16.2275H14.4902C15.0586 16.2275 15.4453 15.9111 15.4453 15.3604C15.4453 14.8096 15.0703 14.4932 14.4902 14.4932H11.2031V14.4463L14.8887 9.54785C15.0527 9.3252 15.2051 9.1084 15.2051 8.77441C15.2051 8.15918 14.7891 7.77246 14.127 7.77246H9.57422Z" fill="currentColor"/>
</svg>
