<svg xmlns="http://www.w3.org/2000/svg" viewBox="0 0 24 24" fill="none">
<path d="M11.9766 9.33789L12.9668 12.5957H10.9688L11.9297 9.33789H11.9766Z" fill="currentColor"/><path fill-rule="evenodd" clip-rule="evenodd" d="M12 2C17.5228 2 22 6.47715 22 12C22 17.5228 17.5228 22 12 22C6.47715 22 2 17.5228 2 12C2 6.47715 6.47715 2 12 2ZM11.9648 7.41602C11.127 7.41602 10.6055 7.80859 10.2949 8.66992L8.20898 14.4004C8.11523 14.6582 8.05664 14.9219 8.05664 15.1035C8.05664 15.7422 8.47266 16.1289 9.15234 16.1289C9.72656 16.1289 10.0488 15.8359 10.2539 15.1211L10.541 14.2188H13.4355L13.7227 15.1562C13.9102 15.8477 14.2324 16.1289 14.8535 16.1289C15.4805 16.1289 15.9316 15.7012 15.9316 15.0977C15.9316 14.875 15.8906 14.6758 15.791 14.4004L13.6875 8.66992C13.3652 7.79102 12.8496 7.41602 11.9648 7.41602Z" fill="currentColor"/>
</svg>
