<svg xmlns="http://www.w3.org/2000/svg" viewBox="0 0 24 24" fill="none">
<path fill-rule="evenodd" clip-rule="evenodd" d="M17 3C19.2091 3 21 4.79086 21 7V17C21 19.2091 19.2091 21 17 21H7C4.79086 21 3 19.2091 3 17V7C3 4.79086 4.79086 3 7 3H17ZM9.57227 7.77246C8.99219 7.77246 8.61719 8.08887 8.61719 8.63965C8.61719 9.19043 8.99805 9.50684 9.57227 9.50684H12.6777V9.55371L8.95703 14.4697C8.74609 14.7451 8.6582 14.9736 8.6582 15.2666C8.6582 15.8525 9.08594 16.2275 9.73047 16.2275H14.4883C15.0566 16.2275 15.4434 15.9111 15.4434 15.3604C15.4434 14.8096 15.0684 14.4932 14.4883 14.4932H11.2012V14.4463L14.8867 9.54785C15.0508 9.3252 15.2031 9.1084 15.2031 8.77441C15.2031 8.15918 14.7871 7.77246 14.125 7.77246H9.57227Z" fill="currentColor"/>
</svg>
