<svg xmlns="http://www.w3.org/2000/svg" viewBox="0 0 24 24" fill="none">
<path d="M11.9766 9.56543L12.9668 12.8232H10.9688L11.9297 9.56543H11.9766Z" fill="currentColor"/><path fill-rule="evenodd" clip-rule="evenodd" d="M17 3C19.2091 3 21 4.79086 21 7V17C21 19.2091 19.2091 21 17 21H7C4.79086 21 3 19.2091 3 17V7C3 4.79086 4.79086 3 7 3H17ZM11.9648 7.64355C11.127 7.64355 10.6055 8.03613 10.2949 8.89746L8.20898 14.6279C8.11523 14.8857 8.05664 15.1494 8.05664 15.3311C8.05664 15.9697 8.47266 16.3564 9.15234 16.3564C9.72656 16.3564 10.0488 16.0635 10.2539 15.3486L10.541 14.4463H13.4355L13.7227 15.3838C13.9102 16.0752 14.2324 16.3564 14.8535 16.3564C15.4805 16.3564 15.9316 15.9287 15.9316 15.3252C15.9316 15.1025 15.8906 14.9033 15.791 14.6279L13.6875 8.89746C13.3652 8.01855 12.8496 7.64355 11.9648 7.64355Z" fill="currentColor"/>
</svg>
