<svg width="24" height="24" viewBox="0 0 24 24" fill="none" xmlns="http://www.w3.org/2000/svg">
<path d="M12 8V12M12 12V16M12 12H10M12 12H14M12 16V20M12 16H4M12 16H20M8 3C8 8.15877 16 8.15877 16 3C16 5.01555 15.9689 7.57229 17.2748 8.97068C18.4056 10.1816 20 11.3431 20 13V17C20 18.6569 18.6569 20 17 20H7C5.34315 20 4 18.6569 4 17V13C4 11.3431 5.59443 10.1816 6.72525 8.97068C8.03109 7.57229 8 5.01555 8 3Z" stroke="currentColor" stroke-width="2" stroke-linecap="round" stroke-linejoin="round"/>
</svg>
