<svg xmlns="http://www.w3.org/2000/svg" viewBox="0 0 24 24" fill="none">
<path d="M16 19C16 21.2091 14.2091 23 12 23C9.79086 23 8 21.2091 8 19H16ZM12 2C16.4183 2 20 5.58172 20 10C20 12.9112 18.4445 15.4581 16.124 16.8564C16.083 16.8811 16.0415 16.9057 16 16.9297V17H8V16.9297C7.95853 16.9057 7.91697 16.8811 7.87598 16.8564C5.55551 15.4581 4 12.9112 4 10C4 5.58172 7.58172 2 12 2ZM12 6C11.7591 6 11.5426 6.1482 11.4561 6.37305L10.7598 8.18555C10.6582 8.44944 10.4494 8.65819 10.1855 8.75977L8.37305 9.45605C8.1482 9.5426 8 9.75906 8 10C8 10.2409 8.1482 10.4574 8.37305 10.5439L10.1855 11.2402C10.4494 11.3418 10.6582 11.5506 10.7598 11.8145L11.4561 13.627C11.5426 13.8518 11.7591 14 12 14C12.2409 14 12.4574 13.8518 12.5439 13.627L13.2402 11.8145C13.3418 11.5506 13.5506 11.3418 13.8145 11.2402L15.627 10.5439C15.8518 10.4574 16 10.2409 16 10C16 9.75906 15.8518 9.5426 15.627 9.45605L13.8145 8.75977C13.5506 8.65819 13.3418 8.44944 13.2402 8.18555L12.5439 6.37305C12.4574 6.1482 12.2409 6 12 6Z" fill="currentColor"/>
</svg>
