<svg xmlns="http://www.w3.org/2000/svg" viewBox="0 0 24 24" fill="none">
<path d="M14.788 17.6164L12.5214 20.7902C11.2688 22.5436 8.51098 21.3486 8.93351 19.2355L9.78019 15.0002H6.94328C5.31669 15.0002 4.37028 13.1618 5.31535 11.8381L6.85441 9.68278L14.788 17.6164Z" fill="currentColor"/><path d="M4.29289 4.29313C4.68341 3.90261 5.31642 3.90261 5.70695 4.29313L19.7069 18.2931C20.0974 18.6837 20.0974 19.3167 19.7069 19.7072C19.3165 20.0977 18.6834 20.0976 18.2929 19.7072L4.29289 5.7072C3.90237 5.31668 3.90238 4.68366 4.29289 4.29313Z" fill="currentColor"/><path d="M11.4784 3.21013C12.7311 1.45715 15.4887 2.65192 15.0663 4.76481L14.2196 9.00016H17.0566C18.6827 9.00056 19.6292 10.8387 18.6845 12.1623L17.1444 14.3166L9.21086 6.38298L11.4784 3.21013Z" fill="currentColor"/>
</svg>
