<svg xmlns="http://www.w3.org/2000/svg" viewBox="0 0 24 24" fill="none">
<path fill-rule="evenodd" clip-rule="evenodd" d="M8.28591 11.116L6.94118 12.9998H10.1697L11.8718 14.702C11.8677 14.7324 11.8652 14.7632 11.8591 14.7938L10.8924 19.6278L13.3523 16.1824L14.7859 17.616L12.5193 20.7899C11.2667 22.5433 8.50879 21.3483 8.93142 19.2352L9.7781 14.9998H6.94118C5.31459 14.9998 4.36818 13.1614 5.31325 11.8377L6.85231 9.68245L8.28591 11.116ZM11.4763 3.20979C12.729 1.45676 15.4866 2.65156 15.0642 4.76448L14.2175 8.99983H17.0545C18.6808 9 19.6272 10.8383 18.6824 12.1619L17.1424 14.3162L15.7088 12.8826L17.0545 10.9998H13.8259L12.1228 9.2967C12.127 9.26665 12.1305 9.23609 12.1365 9.20588L13.1033 4.3719L10.6424 7.81623L9.20876 6.38264L11.4763 3.20979Z" fill="currentColor"/><path d="M5 5L19 19" stroke="currentColor" stroke-width="2" stroke-linecap="round"/>
</svg>
