<svg width="24" height="24" viewBox="0 0 24 24" fill="none" xmlns="http://www.w3.org/2000/svg">
<path fill-rule="evenodd" clip-rule="evenodd" d="M2 5C2 4.44772 2.44772 4 3 4H21C21.5523 4 22 4.44772 22 5C22 5.55228 21.5523 6 21 6H3C2.44772 6 2 5.55228 2 5ZM11.2929 7.29289C11.6834 6.90237 12.3166 6.90237 12.7071 7.29289L14.7071 9.29289C15.0976 9.68342 15.0976 10.3166 14.7071 10.7071C14.3166 11.0976 13.6834 11.0976 13.2929 10.7071L12 9.41421L10.7071 10.7071C10.3166 11.0976 9.68342 11.0976 9.29289 10.7071C8.90237 10.3166 8.90237 9.68342 9.29289 9.29289L11.2929 7.29289ZM9.29289 13.2929C9.68342 12.9024 10.3166 12.9024 10.7071 13.2929L12 14.5858L13.2929 13.2929C13.6834 12.9024 14.3166 12.9024 14.7071 13.2929C15.0976 13.6834 15.0976 14.3166 14.7071 14.7071L12.7071 16.7071C12.3166 17.0976 11.6834 17.0976 11.2929 16.7071L9.29289 14.7071C8.90237 14.3166 8.90237 13.6834 9.29289 13.2929ZM2 19C2 18.4477 2.44772 18 3 18H21C21.5523 18 22 18.4477 22 19C22 19.5523 21.5523 20 21 20H3C2.44772 20 2 19.5523 2 19Z" fill="currentColor" style="fill:currentColor;fill-opacity:1;"/>
</svg>
