<svg width="24" height="24" viewBox="0 0 24 24" fill="none" xmlns="http://www.w3.org/2000/svg">
  <path fill-rule="evenodd" clip-rule="evenodd"
    d="M23 12C23 18.0754 18.0754 23 12 23C5.92462 23 1 18.0754 1 12C1 5.92462 5.92462 1 12 1C18.0754 1 23 5.92462 23 12ZM5.81292 18.1871V8.56349H8.56236V18.1871H5.81292ZM15.0935 8.56349C13.1745 8.56349 12.8439 9.26297 12.6871 9.93764V8.56236H9.93764V18.1871H12.6871V12.6882C12.6871 11.7969 13.1711 11.3141 14.0635 11.3141C14.9322 11.3141 15.4376 11.7868 15.4376 12.6882V18.1882H18.1871V13.3764C18.1871 10.6258 17.8294 8.56349 15.0935 8.56349ZM8.56236 6.49887C8.56763 6.68272 8.53597 6.86575 8.46925 7.03714C8.40253 7.20853 8.30211 7.3648 8.17394 7.4967C8.04576 7.6286 7.89244 7.73345 7.72302 7.80505C7.55361 7.87665 7.37156 7.91354 7.18764 7.91354C7.00372 7.91354 6.82167 7.87665 6.65226 7.80505C6.48285 7.73345 6.32952 7.6286 6.20134 7.4967C6.07317 7.3648 5.97275 7.20853 5.90603 7.03714C5.83932 6.86575 5.80766 6.68272 5.81292 6.49887C5.82317 6.14109 5.9725 5.8014 6.2292 5.55196C6.48589 5.30252 6.82971 5.16298 7.18764 5.16298C7.54557 5.16298 7.8894 5.30252 8.14609 5.55196C8.40278 5.8014 8.55211 6.14109 8.56236 6.49887Z"
    fill="currentColor" />
</svg>
