<svg xmlns="http://www.w3.org/2000/svg" viewBox="0 0 24 24" fill="none">
<path d="M10 17C10.5523 17 11 17.4477 11 18C11 18.5523 10.5523 19 10 19H4C3.44772 19 3 18.5523 3 18C3 17.4477 3.44772 17 4 17H10Z" fill="currentColor"/><path d="M18 11C18.5523 11 19 11.4477 19 12V14H21C21.5523 14 22 14.4477 22 15C22 15.5523 21.5523 16 21 16H19V18C19 18.5523 18.5523 19 18 19C17.4477 19 17 18.5523 17 18V16H15C14.4477 16 14 15.5523 14 15C14 14.4477 14.4477 14 15 14H17V12C17 11.4477 17.4477 11 18 11Z" fill="currentColor"/><path d="M10 11C10.5523 11 11 11.4477 11 12C11 12.5523 10.5523 13 10 13H4C3.44772 13 3 12.5523 3 12C3 11.4477 3.44772 11 4 11H10Z" fill="currentColor"/><path d="M20 5C20.5523 5 21 5.44772 21 6C21 6.55228 20.5523 7 20 7H4C3.44772 7 3 6.55228 3 6C3 5.44772 3.44772 5 4 5H20Z" fill="currentColor"/>
</svg>
