<svg xmlns="http://www.w3.org/2000/svg" viewBox="0 0 24 24" fill="none">
<path d="M7.5 9.5C8.05228 9.5 8.5 9.94772 8.5 10.5V11H12C12.5523 11 13 11.4477 13 12C13 12.5523 12.5523 13 12 13H11.3633C11.0072 15.0323 10.2849 16.726 9.09082 18.0566C9.0736 18.0758 9.0545 18.0933 9.03711 18.1123C9.72054 18.4985 10.516 18.8031 11.4404 19.0283C11.977 19.159 12.3064 19.6998 12.1758 20.2363C12.0451 20.7728 11.5042 21.1021 10.9678 20.9717C9.60145 20.6388 8.42364 20.1431 7.43164 19.4697C6.38166 20.1528 5.14433 20.6445 3.72656 20.9736C3.18858 21.0985 2.65126 20.7636 2.52637 20.2256C2.40166 19.6878 2.73574 19.1504 3.27344 19.0254C4.28099 18.7915 5.13612 18.4747 5.86133 18.0781C5.19075 17.3046 4.65877 16.3905 4.26562 15.3242C4.07477 14.8061 4.3403 14.2311 4.8584 14.04C5.37651 13.8492 5.95156 14.1147 6.14258 14.6328C6.46383 15.504 6.89692 16.2452 7.46191 16.8682C7.50891 16.8192 7.55643 16.771 7.60156 16.7207C8.42587 15.8021 9.00273 14.5921 9.32715 13H3C2.44772 13 2 12.5523 2 12C2 11.4477 2.44772 11 3 11H6.5V10.5C6.5 9.94772 6.94772 9.5 7.5 9.5Z" fill="currentColor"/><path d="M17.5 3C18.0523 3 18.5 3.44772 18.5 4V16C18.5 16.5523 18.0523 17 17.5 17C16.9477 17 16.5 16.5523 16.5 16V4C16.5 3.44772 16.9477 3 17.5 3Z" fill="currentColor"/><path d="M21 8C21.5523 8 22 8.44772 22 9V11C22 11.5523 21.5523 12 21 12C20.4477 12 20 11.5523 20 11V9C20 8.44772 20.4477 8 21 8Z" fill="currentColor"/><path d="M14 6C14.5523 6 15 6.44772 15 7V9C15 9.55228 14.5523 10 14 10C13.4477 10 13 9.55228 13 9V7C13 6.44772 13.4477 6 14 6Z" fill="currentColor"/><path d="M10.5 4C11.0523 4 11.5 4.44772 11.5 5V7.5C11.5 8.05228 11.0523 8.5 10.5 8.5C9.94772 8.5 9.5 8.05228 9.5 7.5V5C9.5 4.44772 9.94772 4 10.5 4Z" fill="currentColor"/>
</svg>
