<svg width="24" height="24" viewBox="0 0 24 24" fill="none" xmlns="http://www.w3.org/2000/svg">
<path fill-rule="evenodd" clip-rule="evenodd" d="M9.17157 7.75725C9.5621 8.14777 9.5621 8.78094 9.17157 9.17146C8.44662 9.89641 8 10.895 8 11.9999C8 13.1047 8.44662 14.1034 9.17157 14.8283C9.5621 15.2188 9.5621 15.852 9.17157 16.2425C8.78105 16.6331 8.14788 16.6331 7.75736 16.2425C6.67267 15.1578 6 13.6565 6 11.9999C6 10.3433 6.67267 8.84194 7.75736 7.75725C8.14788 7.36672 8.78105 7.36672 9.17157 7.75725ZM14.8284 7.75725C15.219 7.36672 15.8521 7.36672 16.2426 7.75725C17.3273 8.84194 18 10.3433 18 11.9999C18 13.6565 17.3273 15.1578 16.2426 16.2425C15.8521 16.6331 15.219 16.6331 14.8284 16.2425C14.4379 15.852 14.4379 15.2188 14.8284 14.8283C15.5534 14.1034 16 13.1047 16 11.9999C16 10.895 15.5534 9.89641 14.8284 9.17146C14.4379 8.78094 14.4379 8.14777 14.8284 7.75725ZM10 11.9999C10 10.8953 10.8954 9.99988 12 9.99988C13.1046 9.99988 14 10.8953 14 11.9999C14 13.1045 13.1046 13.9999 12 13.9999C10.8954 13.9999 10 13.1045 10 11.9999Z" fill="currentColor" style="fill:currentColor;fill-opacity:1;"/>
</svg>
