<svg width="24" height="24" viewBox="0 0 24 24" fill="none" xmlns="http://www.w3.org/2000/svg">
<path fill-rule="evenodd" clip-rule="evenodd" d="M18.1279 2.78041C20.0138 2.24158 21.7573 3.98514 21.2185 5.87102L18.4181 15.6724C18.0384 17.0012 16.9997 18.0399 15.6709 18.4196L5.86955 21.22C3.98368 21.7588 2.24012 20.0152 2.77894 18.1293L5.57932 8.328C5.95899 6.99917 6.9977 5.96046 8.32654 5.58079L18.1279 2.78041ZM9.49872 12C9.49872 10.6193 10.618 9.5 11.9987 9.5C13.3794 9.5 14.4987 10.6193 14.4987 12C14.4987 13.3807 13.3794 14.5 11.9987 14.5C10.618 14.5 9.49872 13.3807 9.49872 12Z" fill="currentColor" style="fill:currentColor;fill-opacity:1;"/>
</svg>
