<svg xmlns="http://www.w3.org/2000/svg" viewBox="0 0 24 24" fill="none">
<path d="M7 3C7.55228 3 8 3.44772 8 4V6H11C11.5523 6 12 6.44772 12 7C12 7.55228 11.5523 8 11 8H8V15C8 15.5523 7.55228 16 7 16H5.5C4.67157 16 4 16.6716 4 17.5C4 18.3284 4.67157 19 5.5 19H17C18.1046 19 19 18.1046 19 17V15C19 14.4477 19.4477 14 20 14C20.5523 14 21 14.4477 21 15V17C21 19.2091 19.2091 21 17 21H5.5C3.567 21 2 19.433 2 17.5V6.5C2 4.567 3.567 3 5.5 3H7Z" fill="currentColor"/><path d="M18 4C18.2409 4 18.4574 4.1482 18.5439 4.37305L19.2402 6.18555C19.3418 6.44944 19.5506 6.65819 19.8145 6.75977L21.627 7.45605C21.8518 7.5426 22 7.75906 22 8C22 8.24094 21.8518 8.4574 21.627 8.54395L19.8145 9.24023C19.5506 9.34181 19.3418 9.55056 19.2402 9.81445L18.5439 11.627C18.4574 11.8518 18.2409 12 18 12C17.7591 12 17.5426 11.8518 17.4561 11.627L16.7598 9.81445C16.6582 9.55056 16.4494 9.34181 16.1855 9.24023L14.373 8.54395C14.1482 8.4574 14 8.24094 14 8C14 7.75906 14.1482 7.5426 14.373 7.45605L16.1855 6.75977C16.4494 6.65819 16.6582 6.44944 16.7598 6.18555L17.4561 4.37305C17.5426 4.1482 17.7591 4 18 4Z" fill="currentColor"/>
</svg>
