<svg xmlns="http://www.w3.org/2000/svg" viewBox="0 0 24 24" fill="none">
<path fill-rule="evenodd" clip-rule="evenodd" d="M12 1.5C14.7614 1.5 17 3.73858 17 6.5V8.25C17 8.25228 16.999 8.25456 16.999 8.25684C18.8277 9.72297 20 11.9738 20 14.5C20 18.9183 16.4183 22.5 12 22.5C7.58172 22.5 4 18.9183 4 14.5C4 11.9741 5.17169 9.72298 7 8.25684V6.5C7 3.73858 9.23858 1.5 12 1.5ZM12 12C11.4477 12 11 12.4477 11 13V16C11 16.5523 11.4477 17 12 17C12.5523 17 13 16.5523 13 16V13C13 12.4477 12.5523 12 12 12ZM12 3.5C10.3431 3.5 9 4.84315 9 6.5V7.08301C9.92657 6.70786 10.9389 6.5 12 6.5C13.0611 6.5 14.0734 6.70786 15 7.08301V6.5C15 4.84315 13.6569 3.5 12 3.5Z" fill="currentColor"/>
</svg>
