<svg width="24" height="24" viewBox="0 0 24 24" fill="none" xmlns="http://www.w3.org/2000/svg">
  <path
    d="M10.6069 17.7907L11.4899 15.7789C12.2624 14.0009 13.676 12.5754 15.4521 11.7832L17.8817 10.7102C18.6541 10.3689 18.6541 9.25089 17.8817 8.90858L15.5285 7.86962C13.7066 7.05683 12.2678 5.57889 11.509 3.74084L10.6129 1.59687C10.5426 1.42075 10.4207 1.26971 10.2631 1.1633C10.1055 1.05689 9.91942 1 9.72898 1C9.53854 1 9.35249 1.05689 9.19489 1.1633C9.0373 1.26971 8.91541 1.42075 8.84502 1.59687L7.951 3.74084C7.19219 5.57889 5.75334 7.05683 3.93144 7.86962L1.57924 8.90958C0.806901 9.24989 0.806901 10.3689 1.57924 10.7102L4.00787 11.7832C5.78379 12.5751 7.19736 14.0003 7.97011 15.7779L8.85307 17.7897C8.92568 17.9615 9.04762 18.1082 9.20361 18.2113C9.35961 18.3145 9.54272 18.3695 9.72999 18.3695C9.91726 18.3695 10.1004 18.3145 10.2564 18.2113C10.4124 18.1082 10.5343 17.9625 10.6069 17.7907ZM19.4435 22.6892L19.6919 22.1227C20.1275 21.1206 20.9243 20.3172 21.9254 19.8706L22.6897 19.5313C22.7823 19.4889 22.8608 19.421 22.9158 19.3356C22.9708 19.2501 23 19.1508 23 19.0494C23 18.9479 22.9708 18.8486 22.9158 18.7632C22.8608 18.6778 22.7823 18.6098 22.6897 18.5674L21.9687 18.2481C20.9416 17.7897 20.1306 16.9563 19.703 15.92L19.4475 15.3084C19.4098 15.2141 19.3445 15.1332 19.26 15.0762C19.1756 15.0193 19.0759 14.9888 18.9739 14.9888C18.8719 14.9888 18.7722 15.0193 18.6877 15.0762C18.6033 15.1332 18.538 15.2141 18.5002 15.3084L18.2448 15.919C17.8173 16.9557 17.0063 17.7894 15.9791 18.2481L15.257 18.5684C15.1647 18.611 15.0865 18.6789 15.0317 18.7642C14.977 18.8495 14.9479 18.9486 14.9479 19.0499C14.9479 19.1511 14.977 19.2503 15.0317 19.3356C15.0865 19.4209 15.1647 19.4888 15.257 19.5313L16.0213 19.8696C17.023 20.3162 17.8202 21.12 18.2558 22.1227L18.5042 22.6892C18.6853 23.1036 19.2625 23.1036 19.4435 22.6892Z"
    fill="currentColor" />
</svg>
