<svg xmlns="http://www.w3.org/2000/svg" viewBox="0 0 24 24" fill="none">
<path d="M21.5 7C22.3283 7 23.0149 7.67935 22.8369 8.48828C21.9964 12.305 18.0513 15.2829 14.3408 15.8857C15.3188 16.5625 16.044 17.5785 16.3457 18.7637C16.6872 20.1058 15.5116 21 14.5 21H7.5C6.48837 21 5.3128 20.1058 5.6543 18.7637L5.70996 18.5625C6.02023 17.5275 6.65669 16.6336 7.5 16H7.49121C5.56316 15.9998 4.00021 14.4368 4 12.5088V11C4 10.4477 3.55228 10 3 10C2.44772 10 2 10.4477 2 11C2 11.2455 2.04735 11.4155 2.11816 11.5605C2.36061 12.0567 2.15532 12.6559 1.65918 12.8984C1.16304 13.1409 0.563828 12.9355 0.321289 12.4395C0.112108 12.0114 0 11.5393 0 11C0 9.34315 1.34315 8 3 8C4.13288 8 5.11746 8.62885 5.62793 9.55566C6.17177 9.21168 6.81732 9.01328 7.50879 9.0166L15 9.05273C17.9173 9.01422 18.9727 8.47169 19.5244 7.79297C19.8827 7.35219 20.3588 7.00012 20.9268 7H21.5Z" fill="currentColor"/><path d="M11 3C11.5523 3 12 3.44772 12 4V4.10352C14.2249 4.53666 15.5 6.26807 15.5 8H6.5C6.5 6.2186 7.69061 4.43844 10 4.07031V4C10 3.44772 10.4477 3 11 3Z" fill="currentColor"/>
</svg>
