<svg width="24" height="24" viewBox="0 0 24 24" fill="none" xmlns="http://www.w3.org/2000/svg">
<path fill-rule="evenodd" clip-rule="evenodd" d="M18.9994 2.00244C20.6549 2.00244 21.9969 3.34447 21.9969 4.99994C21.9969 6.65541 20.6549 7.99744 18.9994 7.99744C17.344 7.99744 16.0019 6.65541 16.0019 4.99994C16.0019 3.34447 17.344 2.00244 18.9994 2.00244ZM20.0019 4.99994C20.0019 4.44628 19.5531 3.99744 18.9994 3.99744C18.4458 3.99744 17.9969 4.44628 17.9969 4.99994C17.9969 5.55361 18.4458 6.00244 18.9994 6.00244C19.5531 6.00244 20.0019 5.55361 20.0019 4.99994Z" fill="currentColor" style="fill:currentColor;fill-opacity:1;"/>
<path fill-rule="evenodd" clip-rule="evenodd" d="M8.76378 5.33976C9.83675 4.26679 11.5764 4.26679 12.6493 5.33976C13.7223 6.41272 13.7223 8.15234 12.6493 9.22531L8.93703 12.9376C8.66314 13.2115 8.5171 13.5648 8.4989 13.9234C8.47813 14.333 8.62418 14.7495 8.93703 15.0624C9.52379 15.6491 10.4751 15.6491 11.0619 15.0624L13.1832 12.9411C13.1856 12.9387 13.188 12.9363 13.1904 12.9339L14.7742 11.3502C15.8472 10.2772 17.5868 10.2772 18.6597 11.3502C19.7327 12.4231 19.7327 14.1628 18.6597 15.2357L14.9474 18.948C13.5813 20.3142 11.7887 20.9976 9.99945 20.9976C8.21018 20.9976 6.41762 20.3142 5.05147 18.948C3.68378 17.5803 3.00061 15.7873 3.00196 13.9948C3.00327 12.2057 3.68644 10.417 5.05146 9.05197L7.17278 6.9306C7.17636 6.92702 7.17995 6.92348 7.18358 6.91997L8.76378 5.33976ZM16.3634 14.7107L17.2491 13.825C17.5429 13.5312 17.5429 13.0547 17.2491 12.7608C16.9552 12.467 16.4787 12.467 16.1849 12.7608L15.2993 13.6465L16.3634 14.7107ZM10.3531 8.7002L9.28889 7.63601L10.1745 6.75044C10.4683 6.45657 10.9448 6.45657 11.2387 6.75044C11.5325 7.04431 11.5325 7.52076 11.2387 7.81463L10.3531 8.7002Z" fill="currentColor" style="fill:currentColor;fill-opacity:1;"/>
</svg>
