<svg xmlns="http://www.w3.org/2000/svg" viewBox="0 0 24 24" fill="none">
<path d="M17.5 4C19.9853 4 22 6.01472 22 8.5V18C22 19.1046 21.1046 20 20 20H15V21C15 21.5523 14.5523 22 14 22C13.4477 22 13 21.5523 13 21V8.5C13 6.75302 12.3098 5.16799 11.1885 4H17.5Z" fill="currentColor"/><path fill-rule="evenodd" clip-rule="evenodd" d="M6.5 4C8.98528 4 11 6.01472 11 8.5V18C11 19.1046 10.1046 20 9 20H4C2.89543 20 2 19.1046 2 18V8.5C2 6.01472 4.01472 4 6.5 4ZM5.25 9C4.69772 9 4.25 9.44772 4.25 10C4.25 10.5523 4.69772 11 5.25 11H7.75C8.30228 11 8.75 10.5523 8.75 10C8.75 9.44772 8.30228 9 7.75 9H5.25Z" fill="currentColor"/>
</svg>
