<svg width="24" height="24" viewBox="0 0 24 24" fill="none" xmlns="http://www.w3.org/2000/svg">
<path d="M22.0003 9.5C22.0003 13.6421 18.6424 17 14.5003 17C13.4671 17 12.4827 16.7911 11.5871 16.4132L7.0003 21C5.89573 22.1046 4.10487 22.1046 3.0003 21C1.89573 19.8954 1.89573 18.1046 3.0003 17L7.5871 12.4132C7.20921 11.5176 7.0003 10.5332 7.0003 9.5C7.0003 5.35786 10.3582 2 14.5003 2C15.3263 2 16.1212 2.13354 16.8644 2.3802C17.4979 2.59045 17.6153 3.385 17.1433 3.857L14.0003 7C13.1719 7.82843 13.1719 9.17157 14.0003 10C14.8287 10.8284 16.1719 10.8284 17.0003 10L20.1433 6.857C20.6153 6.385 21.4098 6.50238 21.6201 7.1359C21.8668 7.87914 22.0003 8.67398 22.0003 9.5Z" fill="currentColor" style="fill:currentColor;fill-opacity:1;"/>
</svg>
