<svg xmlns="http://www.w3.org/2000/svg" viewBox="0 0 24 24" fill="none">
<path d="M7 3C7.55228 3 8 3.44772 8 4V6H11C11.5523 6 12 6.44772 12 7C12 7.55228 11.5523 8 11 8H8V15C8 15.5523 7.55228 16 7 16H5.5C4.67157 16 4 16.6716 4 17.5C4 18.3284 4.67157 19 5.5 19H17C18.1046 19 19 18.1046 19 17V14C19 13.4477 19.4477 13 20 13C20.5523 13 21 13.4477 21 14V17C21 19.2091 19.2091 21 17 21H5.5C3.567 21 2 19.433 2 17.5V6.5C2 4.567 3.567 3 5.5 3H7Z" fill="currentColor"/><path d="M16.793 5.45996C17.8278 4.42513 19.5052 4.42519 20.54 5.45996C21.5749 6.49482 21.5749 8.17218 20.54 9.20703L17.04 12.707C16.8525 12.8945 16.5982 13 16.333 13H14C13.4477 13 13 12.5523 13 12V9.66699C13 9.40181 13.1055 9.14749 13.293 8.95996L16.793 5.45996Z" fill="currentColor"/>
</svg>
