<svg width="24" height="24" viewBox="0 0 24 24" fill="none" xmlns="http://www.w3.org/2000/svg">
<path fill-rule="evenodd" clip-rule="evenodd" d="M4 10C4 5.58172 7.58172 2 12 2C16.4183 2 20 5.58172 20 10C20 12.2654 19.0825 14.37 17.9546 16.1115C16.8219 17.8602 15.4278 19.319 14.358 20.313C13.0149 21.561 10.9851 21.561 9.64198 20.313C8.57221 19.3189 7.17806 17.8602 6.04542 16.1115C4.91746 14.37 4 12.2654 4 10ZM11.9978 12.5C13.3785 12.5 14.4978 11.3807 14.4978 10C14.4978 8.61929 13.3785 7.5 11.9978 7.5C10.6171 7.5 9.4978 8.61929 9.4978 10C9.4978 11.3807 10.6171 12.5 11.9978 12.5Z" fill="currentColor" style="fill:currentColor;fill-opacity:1;"/>
</svg>
