<svg xmlns="http://www.w3.org/2000/svg" viewBox="0 0 24 24" fill="none">
<path d="M12.7012 9.88449C13.6146 8.97116 14.9134 8.55498 16.1876 8.7673L16.7159 8.85519C17.5381 8.99223 18.2973 9.38304 18.8868 9.97238L20.7071 11.7927C20.8945 11.9802 21 12.2346 21.0001 12.4997C21.0001 12.7649 20.8945 13.0192 20.7071 13.2068L12.2071 21.7068C12.0195 21.8943 11.7653 21.9997 11.5001 21.9997C11.2349 21.9997 10.9805 21.8943 10.793 21.7068L8.97271 19.8864C8.38337 19.297 7.99256 18.5378 7.85552 17.7155L7.76763 17.1872C7.55538 15.9131 7.97145 14.6143 8.88482 13.7009L12.7012 9.88449Z" fill="currentColor"/><path d="M4.77642 3.95676C4.96211 2.29062 6.99308 1.57805 8.17877 2.7634L12.2071 6.79269C12.5976 7.18318 12.5975 7.81622 12.2071 8.20676L7.20709 13.2068C6.81656 13.5973 6.18355 13.5973 5.79302 13.2068L5.31255 12.7263C4.45347 11.8671 4.03092 10.6634 4.16509 9.45578L4.77642 3.95676Z" fill="currentColor"/>
</svg>
