<svg xmlns="http://www.w3.org/2000/svg" viewBox="0 0 24 24" fill="none">
<path d="M15.4936 16.6921L14.0537 19H20C20.5523 19 21 19.4477 21 20C21 20.5523 20.5523 21 20 21H5.5722C4.15161 21 3 19.8484 3 18.4278C3 17.9705 3.12189 17.5215 3.35313 17.1271L6.61962 11.5544L15.4936 16.6921Z" fill="currentColor"/><path d="M21.25 7.62345C21.7323 7.90179 21.8944 8.5205 21.6104 8.99952L19.1865 13.0883C18.3477 14.5031 16.5262 14.9788 15.1028 14.1547L9.0732 10.6639C7.62948 9.82811 7.14492 7.97505 7.99467 6.53949L10.3878 2.49659C10.6669 2.02504 11.2736 1.86596 11.7482 2.13986L21.25 7.62345Z" fill="currentColor"/>
</svg>
