<svg width="24" height="24" viewBox="0 0 24 24" fill="none" xmlns="http://www.w3.org/2000/svg">
<path fill-rule="evenodd" clip-rule="evenodd" d="M16.2518 3.09349C18.6721 2.81353 21 4.62322 21 7.18142V12.5C21 17.4705 16.9706 21.5 12 21.5C7.02944 21.5 3 17.4705 3 12.5V7.18142C3 4.62322 5.32789 2.81353 7.74822 3.09349C10.6007 3.42344 13.3993 3.42344 16.2518 3.09349ZM8.84129 13.4157C10.9471 14.278 13.0529 14.278 15.1587 13.4157C15.6032 13.2337 16.0608 13.6717 15.7912 14.0692C13.7634 17.0602 10.2366 17.0602 8.20878 14.0692C7.93924 13.6717 8.39678 13.2337 8.84129 13.4157ZM11 10.6058C11 11.1421 10.7135 11.0298 10.2732 10.8572C9.98547 10.7444 9.63203 10.6058 9.25 10.6058C8.86797 10.6058 8.51453 10.7444 8.22676 10.8572C7.78652 11.0298 7.5 11.1421 7.5 10.6058C7.5 9.71896 8.2835 9 9.25 9C10.2165 9 11 9.71896 11 10.6058ZM15.7732 10.8572C16.2135 11.0298 16.5 11.1421 16.5 10.6058C16.5 9.71896 15.7165 9 14.75 9C13.7835 9 13 9.71896 13 10.6058C13 11.1421 13.2865 11.0298 13.7268 10.8572C14.0145 10.7444 14.368 10.6058 14.75 10.6058C15.132 10.6058 15.4855 10.7444 15.7732 10.8572Z" fill="currentColor" style="fill:currentColor;fill-opacity:1;"/>
</svg>
