<svg xmlns="http://www.w3.org/2000/svg" viewBox="0 0 24 24" fill="none">
<path fill-rule="evenodd" clip-rule="evenodd" d="M11 3C9.89543 3 9 3.89543 9 5L9 7C9 8.10457 8.10457 9 7 9H5C3.89543 9 3 9.89543 3 11L3 13C3 14.1046 3.89543 15 5 15L7 15C8.10457 15 9 15.8954 9 17V19C9 20.1046 9.89543 21 11 21H13C14.1046 21 15 20.1046 15 19V17C15 15.8954 15.8954 15 17 15L19 15C20.1046 15 21 14.1046 21 13V11C21 9.89543 20.1046 9 19 9H17C15.8954 9 15 8.10457 15 7V5C15 3.89543 14.1046 3 13 3L11 3Z" stroke="currentColor" stroke-width="2" stroke-linecap="round" stroke-linejoin="round"/>
</svg>
