<svg xmlns="http://www.w3.org/2000/svg" viewBox="0 0 24 24" fill="none">
<path d="M6 11.0002C6.55228 11.0002 7 11.4479 7 12.0002V15.174C8.16468 15.5861 9 16.6943 9 18.0002C8.99996 19.657 7.65683 21.0002 6 21.0002C4.34317 21.0002 3.00004 19.657 3 18.0002C3 16.6943 3.83532 15.5861 5 15.174V12.0002C5 11.4479 5.44772 11.0002 6 11.0002Z" fill="currentColor"/><path d="M15 5.00017C17.2091 5.00017 19 6.79103 19 9.00017V15.174C20.1647 15.5861 21 16.6943 21 18.0002C21 19.657 19.6568 21.0002 18 21.0002C16.3432 21.0002 15 19.657 15 18.0002C15 16.6943 15.8353 15.5861 17 15.174V9.00017C17 7.8956 16.1046 7.00017 15 7.00017H12C11.4477 7.00017 11 6.55242 11 6.00017C11 5.44788 11.4477 5.00017 12 5.00017H15Z" fill="currentColor"/><path d="M7.04297 3.54314C7.43349 3.15261 8.06651 3.15261 8.45703 3.54314C8.84752 3.93366 8.84754 4.56669 8.45703 4.9572L7.41406 6.00017L8.45703 7.04314C8.84752 7.43366 8.84754 8.06669 8.45703 8.4572C8.06652 8.84767 7.43348 8.84767 7.04297 8.4572L6 7.41423L4.95703 8.4572C4.56652 8.84767 3.93348 8.84767 3.54297 8.4572C3.15246 8.06669 3.15248 7.43366 3.54297 7.04314L4.58594 6.00017L3.54297 4.9572C3.15246 4.56669 3.15248 3.93366 3.54297 3.54314C3.93349 3.15261 4.56651 3.15261 4.95703 3.54314L6 4.58611L7.04297 3.54314Z" fill="currentColor"/>
</svg>
