<svg xmlns="http://www.w3.org/2000/svg" viewBox="0 0 24 24" fill="none">
<path d="M5.99992 10.9999C6.55217 11 6.99992 11.4477 6.99992 11.9999V20.4999C6.99988 21.0521 6.55215 21.4999 5.99992 21.4999C5.44766 21.4999 4.99997 21.0522 4.99992 20.4999V11.9999C4.99992 11.4476 5.44764 10.9999 5.99992 10.9999Z" fill="currentColor"/><path d="M14.9999 4.99992C17.209 4.99997 18.9999 6.79081 18.9999 8.99992V14.1259C20.7251 14.57 21.9999 16.1361 21.9999 17.9999C21.9999 20.209 20.209 21.9999 17.9999 21.9999C15.7908 21.9999 14 20.209 13.9999 17.9999C13.9999 16.1361 15.2747 14.5699 16.9999 14.1259V8.99992C16.9999 7.89538 16.1045 6.99997 14.9999 6.99992H11.9999C11.4477 6.99992 11 6.55217 10.9999 5.99992C10.9999 5.44764 11.4476 4.99992 11.9999 4.99992H14.9999Z" fill="currentColor"/><path d="M7.79289 2.79289C8.18342 2.40237 8.81643 2.40237 9.20696 2.79289C9.5974 3.18342 9.59746 3.81646 9.20696 4.20696L7.41399 5.99992L9.20696 7.79289C9.5974 8.18342 9.59746 8.81646 9.20696 9.20696C8.81646 9.59746 8.18342 9.5974 7.79289 9.20696L5.99992 7.41399L4.20696 9.20696C3.81646 9.59746 3.18342 9.5974 2.79289 9.20696C2.40237 8.81643 2.40237 8.18342 2.79289 7.79289L4.58586 5.99992L2.79289 4.20696C2.40237 3.81643 2.40237 3.18342 2.79289 2.79289C3.18342 2.40237 3.81643 2.40237 4.20696 2.79289L5.99992 4.58586L7.79289 2.79289Z" fill="currentColor"/>
</svg>
