<svg xmlns="http://www.w3.org/2000/svg" viewBox="0 0 24 24" fill="none">
<path d="M18.1221 10.5605C18.3863 10.0757 18.9936 9.89702 19.4785 10.1611C21.1473 11.0702 22.4998 12.4605 22.5 14.25C22.4997 16.1442 20.9903 17.5912 19.165 18.5039C17.2798 19.4465 14.7448 20 12 20C9.25516 20 6.72022 19.4465 4.83496 18.5039C3.00971 17.5912 1.50026 16.1442 1.5 14.25C1.50021 12.4605 2.85268 11.0702 4.52148 10.1611C5.00641 9.89702 5.61369 10.0757 5.87793 10.5605C6.14175 11.0454 5.9632 11.6528 5.47852 11.917C4.04331 12.6987 3.50022 13.5635 3.5 14.25C3.50028 14.9788 4.11709 15.9086 5.72949 16.7148C7.28253 17.4913 9.49834 18 12 18C14.5017 18 16.7175 17.4913 18.2705 16.7148C19.8829 15.9086 20.4997 14.9788 20.5 14.25C20.4998 13.5635 19.9567 12.6987 18.5215 11.917C18.0368 11.6528 17.8583 11.0454 18.1221 10.5605Z" fill="currentColor"/><path d="M12 4C12.5523 4 13 4.44772 13 5V12.5859L14.293 11.293C14.6835 10.9024 15.3165 10.9024 15.707 11.293C16.0976 11.6835 16.0976 12.3165 15.707 12.707L12.707 15.707L12.6309 15.7754C12.2381 16.0957 11.6591 16.0731 11.293 15.707L8.29297 12.707C7.90244 12.3165 7.90244 11.6835 8.29297 11.293C8.68349 10.9024 9.31651 10.9024 9.70703 11.293L11 12.5859V5C11 4.44772 11.4477 4 12 4Z" fill="currentColor"/>
</svg>
