<svg xmlns="http://www.w3.org/2000/svg" viewBox="0 0 24 24" fill="none">
<path fill-rule="evenodd" clip-rule="evenodd" d="M8.73242 3C9.78839 3 10.7786 3.49497 11.4131 4.3291L11.6572 4.6709C12.2917 5.50503 13.2819 5.99998 14.3379 6H18C20.2091 6 22 7.79086 22 10V16C22 18.2091 20.2091 20 18 20H6C3.79086 20 2 18.2091 2 16V7C2 4.79086 3.79086 3 6 3H8.73242ZM13.1367 10.3633C12.7852 10.0118 12.2148 10.0118 11.8633 10.3633C11.512 10.7148 11.5119 11.2853 11.8633 11.6367L12.8262 12.5996H9C8.50294 12.5996 8.09961 13.0029 8.09961 13.5C8.09965 13.997 8.50297 14.4004 9 14.4004H12.8262L11.8633 15.3633C11.512 15.7148 11.5119 16.2853 11.8633 16.6367C12.2147 16.988 12.7853 16.988 13.1367 16.6367L15.6367 14.1367C15.9881 13.7853 15.988 13.2148 15.6367 12.8633L13.1367 10.3633Z" fill="currentColor"/>
</svg>
