<svg width="24" height="24" viewBox="0 0 24 24" fill="none" xmlns="http://www.w3.org/2000/svg">
<path fill-rule="evenodd" clip-rule="evenodd" d="M2 6C2 3.79086 3.79086 2 6 2H12C14.2091 2 16 3.79086 16 6V8H18C20.2091 8 22 9.79086 22 12V18C22 20.2091 20.2091 22 18 22H12C9.79086 22 8 20.2091 8 18V16H6C3.79086 16 2 14.2091 2 12V6ZM14 8V6C14 4.89543 13.1046 4 12 4H6C4.89543 4 4 4.89543 4 6V10.1414C5.31075 9.38418 6.94702 9.42949 8.2188 10.2773L8.34878 10.364C8.97411 8.97053 10.3737 8 12 8H14ZM5 6.25C5 5.55964 5.55964 5 6.25 5C6.94036 5 7.5 5.55964 7.5 6.25C7.5 6.94036 6.94036 7.5 6.25 7.5C5.55964 7.5 5 6.94036 5 6.25ZM13.5415 12.5113C13.874 12.3397 14.2746 12.3682 14.5795 12.585L16.8295 14.185C17.0933 14.3726 17.25 14.6763 17.25 15C17.25 15.3237 17.0933 15.6274 16.8295 15.815L14.5795 17.415C14.2746 17.6318 13.874 17.6603 13.5415 17.4887C13.2089 17.3171 13 16.9742 13 16.6V13.4C13 13.0258 13.2089 12.6829 13.5415 12.5113Z" fill="currentColor" style="fill:currentColor;fill-opacity:1;"/>
</svg>
