<svg width="24" height="24" viewBox="0 0 24 24" fill="none" xmlns="http://www.w3.org/2000/svg">
<path fill-rule="evenodd" clip-rule="evenodd" d="M3.5 6.5C3.5 4.29086 5.29086 2.5 7.5 2.5H16.5C18.7091 2.5 20.5 4.29086 20.5 6.5V17.5C20.5 19.7091 18.7091 21.5 16.5 21.5H7.5C5.29086 21.5 3.5 19.7091 3.5 17.5V17C2.94772 17 2.5 16.5523 2.5 16C2.5 15.4477 2.94772 15 3.5 15V13C2.94772 13 2.5 12.5523 2.5 12C2.5 11.4477 2.94772 11 3.5 11V9C2.94772 9 2.5 8.55228 2.5 8C2.5 7.44772 2.94772 7 3.5 7V6.5ZM9 8C9 7.44772 9.44772 7 10 7H14C14.5523 7 15 7.44772 15 8C15 8.55228 14.5523 9 14 9H10C9.44772 9 9 8.55228 9 8ZM9 12C9 11.4477 9.44772 11 10 11H12C12.5523 11 13 11.4477 13 12C13 12.5523 12.5523 13 12 13H10C9.44772 13 9 12.5523 9 12Z" fill="currentColor" style="fill:currentColor;fill-opacity:1;"/>
</svg>
