<svg xmlns="http://www.w3.org/2000/svg" viewBox="0 0 24 24" fill="none">
<path d="M12.2422 9.25488V13.1924H9.79883V13.1338C10.4844 11.8154 11.1816 10.7314 12.2012 9.25488H12.2422Z" fill="currentColor"/><path fill-rule="evenodd" clip-rule="evenodd" d="M12 2C17.5228 2 22 6.47715 22 12C22 17.5228 17.5228 22 12 22C6.47715 22 2 17.5228 2 12C2 6.47715 6.47715 2 12 2ZM12.4414 7.6377C11.5918 7.6377 11.0938 7.97754 10.4434 8.98535C9.66406 10.1631 8.99023 11.2295 8.42773 12.2432C8.12891 12.7705 8 13.1748 8 13.585C8 14.2998 8.52734 14.7861 9.30078 14.7861H12.1836V15.3369C12.1836 16.0225 12.6113 16.3623 13.2031 16.3623C13.7891 16.3623 14.2168 16.0225 14.2168 15.3369V14.7861H14.5449C15.1074 14.7861 15.4004 14.4404 15.4004 13.9541C15.4004 13.4678 15.1133 13.1162 14.5449 13.1162H14.2168V9.14941C14.2168 8.22949 13.5195 7.6377 12.4414 7.6377Z" fill="currentColor"/>
</svg>
