<svg xmlns="http://www.w3.org/2000/svg" viewBox="0 0 24 24" fill="none">
<path fill-rule="evenodd" clip-rule="evenodd" d="M12 2C17.5228 2 22 6.47715 22 12C22 17.5228 17.5228 22 12 22C6.47715 22 2 17.5228 2 12C2 6.47715 6.47715 2 12 2ZM10.4121 7.79492C9.69141 7.79492 9.26953 8.11719 9.21094 8.89062L8.98828 11.8613V11.8906C8.95312 12.459 9.27539 12.9512 9.98438 12.9512C10.4531 12.9512 10.6699 12.8457 10.998 12.5586C11.2676 12.3184 11.6367 12.1074 12.0996 12.1074C12.9082 12.1074 13.4766 12.6523 13.4766 13.4258C13.4766 14.2168 12.8848 14.8027 12.082 14.8027C11.4023 14.8027 10.9922 14.4805 10.6641 13.9883C10.4062 13.666 10.1484 13.5312 9.74414 13.5312C9.19922 13.5312 8.87695 13.8477 8.87695 14.375C8.87695 14.5801 8.92969 14.7793 9.02344 14.9668C9.45703 15.8281 10.6992 16.4609 12.0996 16.4609C14.1094 16.4609 15.5039 15.2363 15.5039 13.3789C15.5039 11.7734 14.3555 10.6484 12.7559 10.6484C11.8711 10.6484 11.1855 11.0176 10.8574 11.5742H10.8164L10.9805 9.44727H14.2148C14.7305 9.44727 15.0586 9.125 15.0586 8.62109C15.0586 8.11719 14.7246 7.79492 14.2148 7.79492H10.4121Z" fill="currentColor"/>
</svg>
