<svg xmlns="http://www.w3.org/2000/svg" viewBox="0 0 24 24" fill="none">
<path d="M11.9941 12.6182C12.8027 12.6182 13.3594 13.1045 13.3594 13.7783C13.3594 14.4639 12.8027 14.9619 11.9941 14.9619C11.1914 14.9619 10.6348 14.4639 10.6348 13.7783C10.6348 13.1045 11.1914 12.6182 11.9941 12.6182Z" fill="currentColor"/><path d="M11.9941 9.03223C12.6855 9.03223 13.1895 9.45996 13.1895 10.0869C13.1895 10.708 12.6914 11.1416 11.9941 11.1416C11.3027 11.1416 10.8105 10.708 10.8105 10.0869C10.8105 9.45996 11.3086 9.03223 11.9941 9.03223Z" fill="currentColor"/><path fill-rule="evenodd" clip-rule="evenodd" d="M12 2C17.5228 2 22 6.47715 22 12C22 17.5228 17.5228 22 12 22C6.47715 22 2 17.5228 2 12C2 6.47715 6.47715 2 12 2ZM11.9941 7.56152C10.0371 7.56152 8.68359 8.52832 8.68359 9.86426C8.68359 10.8018 9.4043 11.5225 10.4355 11.751V11.792C9.24609 11.9971 8.37891 12.7939 8.37891 13.9365C8.37891 15.4307 9.84961 16.4385 11.9941 16.4385C14.1328 16.4385 15.6152 15.4307 15.6152 13.9424C15.6152 12.7998 14.7539 11.9971 13.5645 11.792V11.751C14.5898 11.5225 15.3047 10.79 15.3047 9.87012C15.3047 8.52832 13.957 7.56152 11.9941 7.56152Z" fill="currentColor"/>
</svg>
