<svg xmlns="http://www.w3.org/2000/svg" viewBox="0 0 24 24" fill="none">
<path fill-rule="evenodd" clip-rule="evenodd" d="M17 3C19.2091 3 21 4.79086 21 7V17C21 19.2091 19.2091 21 17 21H7C4.79086 21 3 19.2091 3 17V7C3 4.79086 4.79086 3 7 3H17ZM11.9355 7.56152C10.2715 7.56152 9.27539 8.3584 8.94141 9.17871C8.86523 9.36035 8.83594 9.50684 8.83594 9.68848C8.83594 10.1807 9.13477 10.5322 9.7207 10.5322C10.1953 10.5322 10.4531 10.3623 10.6934 9.91113C10.9512 9.40723 11.3438 9.16113 11.9473 9.16113C12.6797 9.16113 13.1016 9.54199 13.1016 10.1396C13.1016 10.7549 12.5977 11.1592 11.7715 11.1592H11.5781C11.0684 11.1592 10.7988 11.458 10.7988 11.8857C10.7988 12.3252 11.0684 12.6182 11.5781 12.6182H11.7832C12.7207 12.6182 13.248 12.999 13.248 13.708C13.248 14.3174 12.7324 14.751 11.9941 14.751C11.1914 14.751 10.8105 14.4404 10.5 13.9131C10.2891 13.5732 10.0254 13.4268 9.61523 13.4268C9.0293 13.4268 8.67188 13.7666 8.67188 14.3057C8.67188 14.458 8.70703 14.6338 8.77734 14.7979C9.11719 15.6182 10.1484 16.4385 11.9473 16.4385C14.0684 16.4385 15.4336 15.4189 15.4336 13.8369C15.4336 12.6943 14.625 11.9736 13.3477 11.8447V11.8037C14.3145 11.6104 15.0996 10.9189 15.0996 9.83496C15.0996 8.39941 13.7754 7.56152 11.9355 7.56152Z" fill="currentColor"/>
</svg>
