<svg xmlns="http://www.w3.org/2000/svg" viewBox="0 0 24 24" fill="none">
<path fill-rule="evenodd" clip-rule="evenodd" d="M12 2C17.5228 2 22 6.47715 22 12C22 17.5228 17.5228 22 12 22C6.47715 22 2 17.5228 2 12C2 6.47715 6.47715 2 12 2ZM11.959 7.2168C10.418 7.2168 9.29297 7.96094 8.92383 8.93359C8.85938 9.08594 8.83594 9.23828 8.83594 9.40234C8.83594 9.92969 9.16992 10.252 9.72656 10.252C10.1602 10.252 10.4121 10.082 10.6816 9.66602C10.9922 9.10352 11.373 8.83398 11.9297 8.83398C12.6035 8.83398 13.0723 9.26758 13.0723 9.87695C13.0723 10.4277 12.8027 10.8145 11.8125 11.7168L9.39844 13.9082C8.97656 14.2715 8.80664 14.5586 8.80664 14.9629C8.80664 15.4961 9.12305 15.8828 9.81445 15.8828H14.502C15.0469 15.8828 15.3633 15.5488 15.3633 15.0566C15.3633 14.5527 15.0469 14.2305 14.502 14.2305H11.5781V14.1895L13.2598 12.6543C14.6016 11.4414 15.1523 10.8203 15.1523 9.73633C15.1523 8.24219 13.8867 7.2168 11.959 7.2168Z" fill="currentColor"/>
</svg>
