<svg xmlns="http://www.w3.org/2000/svg" viewBox="0 0 24 24" fill="none">
<path d="M12.1406 12.1582C12.9023 12.1582 13.4824 12.7031 13.4766 13.4766C13.4707 14.2148 12.8789 14.7891 12.123 14.7891C11.3613 14.7891 10.7695 14.209 10.7695 13.4473C10.7695 12.6914 11.3613 12.1582 12.1406 12.1582Z" fill="currentColor"/><path fill-rule="evenodd" clip-rule="evenodd" d="M17 3C19.2091 3 21 4.79086 21 7V17C21 19.2091 19.2091 21 17 21H7C4.79086 21 3 19.2091 3 17V7C3 4.79086 4.79086 3 7 3H17ZM12.1172 7.55859C9.85547 7.55859 8.44922 9.25781 8.44922 12.0352C8.44922 13.0547 8.64844 13.9336 9 14.5898C9.66797 15.8496 10.7637 16.4414 12.1523 16.4414C14.1152 16.4414 15.5508 15.1758 15.5508 13.3828C15.5508 11.8008 14.4668 10.6523 12.8203 10.6523C11.6777 10.6523 10.8691 11.209 10.5469 12H10.5059V11.9062C10.4941 10.3184 11.0098 9.21094 12.1172 9.21094C12.627 9.21094 12.9844 9.38086 13.3594 9.78516C13.6582 10.084 13.8984 10.2598 14.3203 10.2598C14.8828 10.2598 15.1934 9.89062 15.1934 9.43359C15.1934 9.27539 15.1582 9.12891 15.0879 8.9707C14.7305 8.19727 13.6875 7.55859 12.1172 7.55859Z" fill="currentColor"/>
</svg>
