<svg xmlns="http://www.w3.org/2000/svg" viewBox="0 0 24 24" fill="none">
<path fill-rule="evenodd" clip-rule="evenodd" d="M11 2C15.9706 2 20 6.47715 20 12C20 17.5228 15.9706 22 11 22C6.02944 22 2 17.5228 2 12C2 6.47715 6.02944 2 11 2ZM10.9424 7.56152C9.44473 7.56152 8.54766 8.3584 8.24707 9.17871C8.17853 9.36032 8.15234 9.50686 8.15234 9.68848C8.15234 10.1805 8.42116 10.5321 8.94824 10.5322C9.37539 10.5322 9.60801 10.3623 9.82422 9.91113C10.0562 9.4074 10.4092 9.16125 10.9521 9.16113C11.6113 9.16113 11.9912 9.54199 11.9912 10.1396C11.9912 10.7549 11.5375 11.1592 10.7939 11.1592H10.6201C10.1615 11.1593 9.91895 11.4581 9.91895 11.8857C9.91895 12.3251 10.1615 12.6181 10.6201 12.6182H10.8047C11.6484 12.6182 12.123 12.999 12.123 13.708C12.123 14.3173 11.6594 14.7508 10.9951 14.751C10.2727 14.751 9.92987 14.4403 9.65039 13.9131C9.46055 13.5732 9.22266 13.4268 8.85352 13.4268C8.32629 13.4268 8.00488 13.7667 8.00488 14.3057C8.00488 14.458 8.03633 14.6338 8.09961 14.7979C8.40544 15.6181 9.33344 16.4383 10.9521 16.4385C12.8611 16.4385 14.0898 15.4189 14.0898 13.8369C14.0898 12.6943 13.3625 11.9736 12.2129 11.8447V11.8037C13.083 11.6104 13.79 10.9189 13.79 9.83496C13.79 8.39953 12.598 7.56166 10.9424 7.56152Z" fill="currentColor"/>
</svg>
