<svg xmlns="http://www.w3.org/2000/svg" viewBox="0 0 24 24" fill="none">
<path d="M11.8828 9.20801C12.6387 9.20801 13.2305 9.79395 13.2305 10.5557C13.2305 11.3057 12.6445 11.8389 11.8652 11.8389C11.0977 11.8389 10.5234 11.2998 10.5234 10.5264C10.5234 9.78223 11.1211 9.20801 11.8828 9.20801Z" fill="currentColor"/><path fill-rule="evenodd" clip-rule="evenodd" d="M17 3C19.2091 3 21 4.79086 21 7V17C21 19.2091 19.2091 21 17 21H7C4.79086 21 3 19.2091 3 17V7C3 4.79086 4.79086 3 7 3H17ZM11.8535 7.56152C9.89062 7.56152 8.45508 8.82129 8.45508 10.6143C8.45508 12.2842 9.7207 13.3564 11.2617 13.3564C12.3926 13.3564 13.1777 12.7939 13.459 11.9912H13.4941V12.0791C13.5176 13.626 13.0547 14.792 11.8887 14.792C11.3496 14.792 11.0156 14.6045 10.6289 14.2119C10.3301 13.9248 10.0957 13.7373 9.66797 13.7373C9.10547 13.7373 8.80078 14.1064 8.80078 14.5635C8.80078 14.7158 8.83594 14.8623 8.90625 15.0205C9.26953 15.8408 10.3652 16.4385 11.7949 16.4385C14.1387 16.4385 15.5508 14.7568 15.5508 11.9619C15.5508 10.9424 15.3516 10.0635 15.0059 9.40723C14.3379 8.14746 13.2363 7.56152 11.8535 7.56152Z" fill="currentColor"/>
</svg>
