<svg xmlns="http://www.w3.org/2000/svg" viewBox="0 0 24 24" fill="none">
<path d="M12.0029 9.19629C12.8877 9.19629 13.3799 10.2041 13.3799 11.9912V12.0029C13.3799 13.79 12.8877 14.8037 12.0029 14.8037C11.1182 14.8037 10.626 13.79 10.626 12.0029V11.9912C10.626 10.2041 11.1182 9.19629 12.0029 9.19629Z" fill="currentColor"/><path fill-rule="evenodd" clip-rule="evenodd" d="M12 2C17.5228 2 22 6.47715 22 12C22 17.5228 17.5228 22 12 22C6.47715 22 2 17.5228 2 12C2 6.47715 6.47715 2 12 2ZM12.0029 7.54395C9.7998 7.54395 8.44629 9.24902 8.44629 11.9912V12.0029C8.44629 14.7451 9.7998 16.4561 12.0029 16.4561C14.2061 16.4561 15.5537 14.7451 15.5537 12.0029V11.9912C15.5537 9.24902 14.2061 7.54395 12.0029 7.54395Z" fill="currentColor"/>
</svg>
