<svg xmlns="http://www.w3.org/2000/svg" viewBox="0 0 24 24" fill="none">
<path fill-rule="evenodd" clip-rule="evenodd" d="M12 2C17.5228 2 22 6.47715 22 12C22 17.5228 17.5228 22 12 22C6.47715 22 2 17.5228 2 12C2 6.47715 6.47715 2 12 2ZM12.3008 7.6377C11.8789 7.6377 11.5156 7.68457 11.0645 7.98926L9.46484 9.0791C9.16016 9.29004 9.03711 9.53027 9.03711 9.84082C9.03711 10.2744 9.34766 10.585 9.76367 10.585C9.96875 10.585 10.0977 10.5381 10.291 10.4033L11.3457 9.6709H11.3867V15.3018C11.3867 15.9463 11.8203 16.3623 12.459 16.3623C13.0977 16.3623 13.5254 15.9463 13.5254 15.3018V8.83887C13.5254 8.10059 13.0742 7.6377 12.3008 7.6377Z" fill="currentColor"/>
</svg>
