<svg xmlns="http://www.w3.org/2000/svg" viewBox="0 0 24 24" fill="none">
<path fill-rule="evenodd" clip-rule="evenodd" d="M17 3C19.2091 3 21 4.79086 21 7V17C21 19.2091 19.2091 21 17 21H7C4.79086 21 3 19.2091 3 17V7C3 4.79086 4.79086 3 7 3H17ZM11.959 7.66699C10.418 7.66699 9.29297 8.41113 8.92383 9.38379C8.85938 9.53613 8.83594 9.68848 8.83594 9.85254C8.83594 10.3799 9.16992 10.7021 9.72656 10.7021C10.1602 10.7021 10.4121 10.5322 10.6816 10.1162C10.9922 9.55371 11.373 9.28418 11.9297 9.28418C12.6035 9.28418 13.0723 9.71777 13.0723 10.3271C13.0723 10.8779 12.8027 11.2646 11.8125 12.167L9.39844 14.3584C8.97656 14.7217 8.80664 15.0088 8.80664 15.4131C8.80664 15.9463 9.12305 16.333 9.81445 16.333H14.502C15.0469 16.333 15.3633 15.999 15.3633 15.5068C15.3633 15.0029 15.0469 14.6807 14.502 14.6807H11.5781V14.6396L13.2598 13.1045C14.6016 11.8916 15.1523 11.2705 15.1523 10.1865C15.1523 8.69238 13.8867 7.66699 11.959 7.66699Z" fill="currentColor"/>
</svg>
