<svg xmlns="http://www.w3.org/2000/svg" viewBox="0 0 24 24" fill="none">
<path d="M11.9941 12.6123C12.8086 12.6123 13.3652 13.1045 13.3652 13.7783V13.79C13.3652 14.4697 12.7969 14.9619 11.9941 14.9619C11.1914 14.9619 10.6289 14.4697 10.6289 13.79V13.7783C10.6289 13.1045 11.1797 12.6123 11.9941 12.6123Z" fill="currentColor"/><path d="M11.9941 9.03223C12.6914 9.03223 13.1895 9.4541 13.1895 10.0752V10.0869C13.1895 10.708 12.6973 11.1416 11.9941 11.1416C11.2969 11.1416 10.8047 10.708 10.8047 10.0869V10.0752C10.8047 9.4541 11.3027 9.03223 11.9941 9.03223Z" fill="currentColor"/><path fill-rule="evenodd" clip-rule="evenodd" d="M17 3C19.2091 3 21 4.79086 21 7V17C21 19.2091 19.2091 21 17 21H7C4.79086 21 3 19.2091 3 17V7C3 4.79086 4.79086 3 7 3H17ZM11.9941 7.56152C10.0312 7.56152 8.68359 8.52832 8.68359 9.86426V9.87598C8.68359 10.8076 9.4043 11.5283 10.4297 11.751V11.792C9.24609 11.9971 8.37305 12.7881 8.37305 13.9248V13.9365C8.37305 15.4248 9.83789 16.4385 11.9941 16.4385C14.1562 16.4385 15.6211 15.4248 15.6211 13.9365V13.9248C15.6211 12.7881 14.748 11.9971 13.5645 11.792V11.751C14.584 11.5225 15.3105 10.8076 15.3105 9.87598V9.86426C15.3105 8.52832 13.957 7.56152 11.9941 7.56152Z" fill="currentColor"/>
</svg>
