<svg xmlns="http://www.w3.org/2000/svg" viewBox="0 0 24 24" fill="none">
<path fill-rule="evenodd" clip-rule="evenodd" d="M17 3C19.2091 3 21 4.79086 21 7V17C21 19.2091 19.2091 21 17 21H7C4.79086 21 3 19.2091 3 17V7C3 4.79086 4.79086 3 7 3H17ZM9.59766 7.79492C9.09961 7.79492 8.74219 8.11719 8.74219 8.61523C8.74219 9.11328 9.09961 9.44727 9.59766 9.44727H12.9902V9.48828L10.084 14.8379C9.96094 15.0605 9.90234 15.2598 9.90234 15.5117C9.90234 15.998 10.2715 16.3848 10.8867 16.3848C11.3438 16.3848 11.6016 16.2207 11.8418 15.7578L14.748 10.1797C15.0234 9.6582 15.1406 9.31836 15.1406 8.9375C15.1406 8.22852 14.5957 7.79492 13.8809 7.79492H9.59766Z" fill="currentColor"/>
</svg>
