<svg width="24" height="24" viewBox="0 0 24 24" fill="none" xmlns="http://www.w3.org/2000/svg">
<path fill-rule="evenodd" clip-rule="evenodd" d="M12 4C8.41015 4 5.5 6.91015 5.5 10.5C5.5 13.4882 7.51725 16.0078 10.2661 16.7664C10.6997 16.8861 11 17.2806 11 17.7304V19C11 20.6569 9.65685 22 8 22H6C4.34315 22 3 20.6569 3 19C3 18.4477 3.44772 18 4 18C4.55228 18 5 18.4477 5 19C5 19.5523 5.44772 20 6 20H8C8.55228 20 9 19.5523 9 19V18.4551C5.78656 17.2426 3.5 14.1394 3.5 10.5C3.5 5.80558 7.30558 2 12 2C16.6944 2 20.5 5.80558 20.5 10.5C20.5 14.1394 18.2134 17.2426 15 18.4551V19C15 19.5523 15.4477 20 16 20H18C18.5523 20 19 19.5523 19 19C19 18.4477 19.4477 18 20 18C20.5523 18 21 18.4477 21 19C21 20.6569 19.6569 22 18 22H16C14.3431 22 13 20.6569 13 19V17.7304C13 17.2806 13.3003 16.8861 13.7339 16.7664C16.4828 16.0078 18.5 13.4882 18.5 10.5C18.5 6.91015 15.5899 4 12 4Z" fill="currentColor" style="fill:currentColor;fill-opacity:1;"/>
</svg>
