<svg width="24" height="24" viewBox="0 0 24 24" fill="none" xmlns="http://www.w3.org/2000/svg">
<path d="M17.0039 19H18.0039C19.6608 19 21.0039 17.6569 21.0039 16V13.7692C21.0039 12.2398 19.7641 11 18.2347 11C18.1072 11 18.0039 10.8967 18.0039 10.7692V5C18.0039 5 14.0039 6.5 14.0039 11V16.001C14.0039 17.6578 15.3471 19 17.0039 19Z" stroke="currentColor" stroke-width="2" stroke-linejoin="round"/>
<path d="M6.00391 19L7.00391 19C8.66076 19 10.0039 17.6569 10.0039 16V13.7692C10.0039 12.2398 8.76408 11 7.23468 11C7.10723 11 7.00391 10.8967 7.00391 10.7692V5C7.00391 5 3.00391 6.5 3.00391 11V16.001C3.00391 17.6578 4.34705 19 6.00391 19Z" stroke="currentColor" stroke-width="2" stroke-linejoin="round"/>
</svg>
