<svg width="24" height="24" viewBox="0 0 24 24" fill="none" xmlns="http://www.w3.org/2000/svg">
<path fill-rule="evenodd" clip-rule="evenodd" d="M3 5C3 4.44772 3.44772 4 4 4H6.25903C7.69446 4 9.01983 4.76914 9.73201 6.01544L16.0045 16.9923C16.3606 17.6154 17.0233 18 17.741 18H20C20.5523 18 21 18.4477 21 19C21 19.5523 20.5523 20 20 20H17.741C16.3055 20 14.9802 19.2309 14.268 17.9846L7.99552 7.00772C7.63943 6.38457 6.97675 6 6.25903 6H4C3.44772 6 3 5.55228 3 5ZM15 5C15 4.44772 15.4477 4 16 4H20C20.5523 4 21 4.44772 21 5C21 5.55228 20.5523 6 20 6H16C15.4477 6 15 5.55228 15 5Z" fill="currentColor" style="fill:currentColor;fill-opacity:1;"/>
</svg>
