<svg xmlns="http://www.w3.org/2000/svg" viewBox="0 0 24 24" fill="none">
<path fill-rule="evenodd" clip-rule="evenodd" d="M17 3C19.2091 3 21 4.79086 21 7V17C21 19.2091 19.2091 21 17 21H7C4.79086 21 3 19.2091 3 17V7C3 4.79086 4.79086 3 7 3H17ZM8 7C7.44772 7 7 7.44772 7 8C7 8.55228 7.44772 9 8 9H8.76367C9.14241 9 9.48879 9.21401 9.6582 9.55273L12.5527 15.3418C13.0609 16.3581 14.1 17 15.2363 17H16C16.5523 17 17 16.5523 17 16C17 15.4477 16.5523 15 16 15H15.2363C14.8576 15 14.5112 14.786 14.3418 14.4473L11.4473 8.6582C10.9391 7.64191 9.89995 7 8.76367 7H8ZM14.5 7C13.9477 7 13.5 7.44772 13.5 8C13.5 8.55228 13.9477 9 14.5 9H16C16.5523 9 17 8.55228 17 8C17 7.44772 16.5523 7 16 7H14.5Z" fill="currentColor"/>
</svg>
