<svg xmlns="http://www.w3.org/2000/svg" viewBox="0 0 24 24" fill="none">
<path fill-rule="evenodd" clip-rule="evenodd" d="M17.5 7C19.8258 7 21.8604 9.01507 21.9922 11.7207C21.9947 11.8135 22 11.9066 22 12C22 17.5228 17.5228 22 12 22C6.47715 22 2 17.5228 2 12C2 11.9066 2.00429 11.8135 2.00684 11.7207C2.13863 9.01505 4.1742 7 6.5 7C8.90516 7 11 9.15489 11 12V14C11 14.5523 11.4477 15 12 15C12.5523 15 13 14.5523 13 14V12C13 9.15489 15.0948 7 17.5 7ZM6.5 10.75C5.80964 10.75 5.25 11.3096 5.25 12C5.25 12.6904 5.80964 13.25 6.5 13.25C7.19036 13.25 7.75 12.6904 7.75 12C7.75 11.3096 7.19036 10.75 6.5 10.75ZM17.5 10.75C16.8096 10.75 16.25 11.3096 16.25 12C16.25 12.6904 16.8096 13.25 17.5 13.25C18.1904 13.25 18.75 12.6904 18.75 12C18.75 11.3096 18.1904 10.75 17.5 10.75Z" fill="currentColor"/><path d="M12 2C14.9513 2 17.6032 3.27917 19.4336 5.3125C18.826 5.10996 18.1774 5 17.5 5C15.1451 5 13.1375 6.32567 12 8.27441C10.8625 6.32567 8.8549 5 6.5 5C5.82232 5 5.1733 5.10977 4.56543 5.3125C6.39588 3.27889 9.0485 2 12 2Z" fill="currentColor"/>
</svg>
