<svg width="24" height="24" viewBox="0 0 24 24" fill="none" xmlns="http://www.w3.org/2000/svg">
<path d="M8 3H7C4.79086 3 3 4.79086 3 7V17C3 19.2091 4.79086 21 7 21H13.7134C13.1287 19.8705 13.31 18.4472 14.2574 17.4999C13.0858 16.3284 13.0858 14.4289 14.2574 13.2573C15.4289 12.0857 17.3284 12.0857 18.5 13.2573C19.1823 12.575 20.1115 12.29 21 12.4025V7C21 4.79086 19.2091 3 17 3H16V6.5C16 7.88071 14.8807 9 13.5 9H10.5C9.11929 9 8 7.88071 8 6.5V3Z" fill="currentColor" style="fill:currentColor;fill-opacity:1;"/>
<path d="M14 3H10V6.5C10 6.77614 10.2239 7 10.5 7H13.5C13.7761 7 14 6.77614 14 6.5V3Z" fill="currentColor" style="fill:currentColor;fill-opacity:1;"/>
<path d="M21.3284 16.0858C21.719 15.6952 21.719 15.0621 21.3284 14.6716C20.9379 14.281 20.3048 14.281 19.9142 14.6716L18.5 16.0858L17.0858 14.6716C16.6953 14.281 16.0621 14.281 15.6716 14.6716C15.2811 15.0621 15.2811 15.6952 15.6716 16.0858L17.0858 17.5L15.6716 18.9142C15.2811 19.3047 15.2811 19.9379 15.6716 20.3284C16.0621 20.7189 16.6953 20.7189 17.0858 20.3284L18.5 18.9142L19.9142 20.3284C20.3048 20.7189 20.9379 20.7189 21.3284 20.3284C21.719 19.9379 21.719 19.3047 21.3284 18.9142L19.9142 17.5L21.3284 16.0858Z" fill="currentColor" style="fill:currentColor;fill-opacity:1;"/>
</svg>
