<svg width="24" height="24" viewBox="0 0 24 24" fill="none" xmlns="http://www.w3.org/2000/svg">
<path d="M5 7C5 5.89543 5.89543 5 7 5H8V8C8 9.10457 8.89543 10 10 10H14C15.1046 10 16 9.10457 16 8V5H17C18.1046 5 19 5.89543 19 7V9C19 9.55228 19.4477 10 20 10C20.5523 10 21 9.55228 21 9V7C21 4.79086 19.2091 3 17 3H7C4.79086 3 3 4.79086 3 7V17C3 19.2091 4.79086 21 7 21H12C12.5523 21 13 20.5523 13 20C13 19.4477 12.5523 19 12 19H7C5.89543 19 5 18.1046 5 17V7Z" fill="currentColor" style="fill:currentColor;fill-opacity:1;"/>
<path d="M21.0706 13.4144C19.5085 11.8523 16.9759 11.8523 15.4138 13.4144C13.8517 14.9765 13.8517 17.5091 15.4138 19.0712L17.5351 21.1925C17.9256 21.5831 18.5588 21.5831 18.9493 21.1925L21.0706 19.0712C22.6327 17.5091 22.6327 14.9765 21.0706 13.4144Z" fill="currentColor" style="fill:currentColor;fill-opacity:1;"/>
</svg>
