<svg xmlns="http://www.w3.org/2000/svg" viewBox="0 0 24 24" fill="none">
<path d="M19.949 16.2618C20.1212 16.1037 20.3785 16.1036 20.5506 16.2618C21.1634 16.825 22.4996 18.2125 22.4998 19.5997C22.4998 20.9251 21.4924 22 20.2498 22.0001C19.0072 22.0001 17.9998 20.9252 17.9998 19.5997C18.0001 18.2125 19.3363 16.8249 19.949 16.2618Z" fill="currentColor"/><path d="M9.19026 3.29405C10.2984 1.87062 12.4039 1.74015 13.6795 3.01573L20.3768 9.71201C21.6516 10.9875 21.5213 13.0932 20.0985 14.2013L11.2049 21.1241C9.61294 22.3635 7.34675 22.223 5.91975 20.797L2.59553 17.4728C1.16871 16.0458 1.02779 13.7789 2.26741 12.1866L3.81819 10.1935L10.2127 13.2218C10.7116 13.458 11.3072 13.2459 11.5438 12.7472C11.7593 12.2922 11.6009 11.7567 11.1932 11.4864L2.57209 7.40342C2.07303 7.16702 1.86022 6.57145 2.09651 6.07237C2.33291 5.57329 2.92847 5.36045 3.42756 5.59678L6.32698 6.96983L9.19026 3.29405Z" fill="currentColor"/>
</svg>
