<svg xmlns="http://www.w3.org/2000/svg" viewBox="0 0 24 24" fill="none">
<path fill-rule="evenodd" clip-rule="evenodd" d="M12 2C15.7277 2 18.86 4.54954 19.748 8H20C20.5523 8 21 8.44772 21 9C21 9.55228 20.5523 10 20 10V18C20 20.2091 18.2091 22 16 22H8C5.79086 22 4 20.2091 4 18V10C3.44772 10 3 9.55228 3 9C3 8.44772 3.44772 8 4 8H4.25195C5.14003 4.54954 8.27231 2 12 2ZM12 4C9.38772 4 7.16657 5.66984 6.34277 8H8V13C8 13.5523 8.44772 14 9 14C9.55228 14 10 13.5523 10 13V8H11V11C11 11.5523 11.4477 12 12 12C12.5523 12 13 11.5523 13 11V8H17.6572C16.8334 5.66984 14.6123 4 12 4Z" fill="currentColor"/>
</svg>
