<svg xmlns="http://www.w3.org/2000/svg" viewBox="0 0 24 24" fill="none">
<path d="M19.874 12C19.43 13.7252 17.8638 15 16 15H14.5L14.8008 19.5068C14.9087 21.1267 13.6235 22.5 12 22.5C10.3765 22.5 9.09135 21.1267 9.19922 19.5068L9.5 15H8C6.13616 15 4.57002 13.7252 4.12598 12H19.874Z" fill="currentColor"/><path d="M8 2C8.31476 2 8.61095 2.14858 8.7998 2.40039L10 4L11.2002 2.40039C11.3891 2.14858 11.6852 2 12 2H18C19.1046 2 20 2.89543 20 4V10H4V4C4 2.89543 4.89543 2 6 2H8Z" fill="currentColor"/>
</svg>
