<svg xmlns="http://www.w3.org/2000/svg" viewBox="0 0 24 24" fill="none">
<path fill-rule="evenodd" clip-rule="evenodd" d="M23.9699 11.2075C23.8362 10.6717 23.2929 10.3453 22.757 10.479C16.3431 12.0797 9.92922 13.6806 3.51485 15.2798C3.25784 15.344 3.03613 15.5078 2.89962 15.7349C2.76321 15.9621 2.72221 16.2355 2.78634 16.4927L3.14962 17.9478C3.68412 20.0909 5.85499 21.3949 7.99825 20.8608L14.7902 19.1675C16.9337 18.6331 18.2386 16.4623 17.7043 14.3188L17.5822 13.8315L23.2414 12.4204C23.7772 12.2867 24.1035 11.7433 23.9699 11.2075Z" fill="currentColor"/><path d="M3.54708 8.78662C3.15274 8.48419 2.58789 8.55842 2.28536 8.95264C1.98333 9.34696 2.05731 9.91194 2.45138 10.2144L3.75509 11.2144C4.14936 11.5167 4.71521 11.4424 5.01778 11.0483C5.32011 10.654 5.24505 10.0891 4.85079 9.78662L3.54708 8.78662Z" fill="currentColor"/><path d="M8.99923 8.25049C8.44709 8.25066 7.99923 8.69831 7.99923 9.25049C7.99948 9.80245 8.44724 10.2503 8.99923 10.2505C9.55136 10.2505 9.99898 9.80256 9.99923 9.25049C9.99923 8.6982 9.55151 8.25049 8.99923 8.25049Z" fill="currentColor"/><path d="M13.4992 6.25049C12.9471 6.25066 12.4992 6.69831 12.4992 7.25049C12.4995 7.80245 12.9472 8.25031 13.4992 8.25049C14.0514 8.25049 14.499 7.80256 14.4992 7.25049C14.4992 6.6982 14.0515 6.25049 13.4992 6.25049Z" fill="currentColor"/><path d="M4.49923 5.00049C3.94709 5.00066 3.49923 5.44831 3.49923 6.00049C3.49948 6.55245 3.94724 7.00031 4.49923 7.00049C5.05136 7.00049 5.49898 6.55256 5.49923 6.00049C5.49923 5.4482 5.05151 5.00049 4.49923 5.00049Z" fill="currentColor"/><path d="M9.90157 2.6958C9.457 2.47357 8.91682 2.65359 8.69454 3.09814L7.94454 4.59814C7.72264 5.0426 7.90252 5.58294 8.34688 5.80517C8.7913 6.02738 9.33147 5.84705 9.55392 5.40283L10.3039 3.90283C10.5262 3.45825 10.3462 2.91809 9.90157 2.6958Z" fill="currentColor"/>
</svg>
