<svg width="24" height="24" viewBox="0 0 24 24" fill="none" xmlns="http://www.w3.org/2000/svg">
<path fill-rule="evenodd" clip-rule="evenodd" d="M14.4856 3.11824C15.2305 2.37298 16.2089 1.99999 17.1841 2C18.1593 2.00001 19.1377 2.37301 19.8825 3.11824C20.6274 3.86352 21.0001 4.84224 21 5.81755C20.9999 6.7927 20.6273 7.77122 19.8825 8.51637L9.92674 18.477C8.98633 19.4179 7.46143 19.4179 6.52102 18.477L7.2283 17.7701L6.52102 18.477C5.58089 17.5364 5.58088 16.0116 6.52102 15.071L11.4989 10.0907C11.8893 9.70009 12.5225 9.69993 12.9131 10.0904C13.3037 10.4808 13.3039 11.114 12.9135 11.5046L7.93558 16.4849C7.77603 16.6445 7.77603 16.9036 7.93558 17.0632C8.09486 17.2225 8.3529 17.2225 8.51218 17.0632L18.468 7.10251C18.8228 6.74753 19 6.28418 19 5.81742C19 5.35059 18.8228 4.88714 18.468 4.5321C18.1132 4.17712 17.6502 4.00001 17.1841 4C16.718 3.99999 16.255 4.17711 15.9002 4.5321L5.94443 14.4928C5.31463 15.1229 4.99996 15.9468 5 16.7742C5.00004 17.6014 5.3147 18.4253 5.94443 19.0553C6.57417 19.6854 7.39744 20 8.22391 20C9.05035 20 9.87361 19.6853 10.5033 19.0553L15.4812 14.075C15.8717 13.6844 16.5048 13.6842 16.8954 14.0746C17.2861 14.4651 17.2862 15.0982 16.8958 15.4888L11.9179 20.4692C10.8981 21.4895 9.55943 22 8.22392 22C6.88839 22 5.54967 21.4895 4.52986 20.4692C3.51015 19.449 3.00006 18.1099 3 16.7743C2.99994 15.4385 3.51004 14.0992 4.52987 13.0789L14.4856 3.11824Z" fill="currentColor" style="fill:currentColor;fill-opacity:1;"/>
</svg>
