<svg xmlns="http://www.w3.org/2000/svg" viewBox="0 0 24 24" fill="none">
<path d="M12 2C13.7817 2 15.3168 3.03539 16.0459 4.53418C18.2736 4.80367 20 6.69955 20 9C20 9.49359 19.9189 9.96859 19.7715 10.4131C20.5312 11.2178 21 12.3035 21 13.5C21 15.9853 18.9853 18 16.5 18H13V20H14C14.5523 20 15 20.4477 15 21C15 21.5523 14.5523 22 14 22H10C9.44772 22 9 21.5523 9 21C9 20.4477 9.44772 20 10 20H11V18H7.5C5.01472 18 3 15.9853 3 13.5C3 12.3043 3.46734 11.218 4.22656 10.4131C4.07938 9.96832 4 9.49296 4 9C4 6.70055 5.72482 4.80495 7.95117 4.53418C8.68038 3.03463 10.2183 2 12 2Z" fill="currentColor"/>
</svg>
