<svg xmlns="http://www.w3.org/2000/svg" viewBox="0 0 24 24" fill="none">
<path d="M21.999 16.0003C22.5513 16.0003 22.999 16.448 22.999 17.0003C22.9988 17.5524 22.5512 18.0003 21.999 18.0003H1.99902C1.44685 18.0003 0.999199 17.5524 0.999023 17.0003C0.999023 16.448 1.44674 16.0003 1.99902 16.0003H21.999Z" fill="currentColor"/><path d="M4.31934 7.55009C4.56791 7.11975 5.11842 6.97249 5.54883 7.22099C5.97916 7.46957 6.12642 8.02008 5.87793 8.45048L5.55762 9.00517H6.19922C6.6961 9.00538 7.09863 9.40863 7.09863 9.90556C7.09845 10.4023 6.69598 10.8057 6.19922 10.806H5.55762L5.87793 11.3606C6.12625 11.7911 5.97918 12.3416 5.54883 12.5901C5.11851 12.8385 4.56794 12.6911 4.31934 12.261L3.99805 11.7054L3.67871 12.261C3.43019 12.6912 2.87955 12.8383 2.44922 12.5901C2.01884 12.3416 1.87081 11.7911 2.11914 11.3606L2.43945 10.806H1.79883C1.30189 10.806 0.898622 10.4025 0.898438 9.90556C0.898438 9.4085 1.30177 9.00517 1.79883 9.00517H2.43945L2.11914 8.45048C1.87064 8.02007 2.01886 7.46956 2.44922 7.22099C2.87965 6.97265 3.43023 7.11971 3.67871 7.55009L3.99805 8.10478L4.31934 7.55009Z" fill="currentColor"/><path d="M12.3193 7.55009C12.5679 7.11975 13.1184 6.97249 13.5488 7.22099C13.9792 7.46957 14.1264 8.02008 13.8779 8.45048L13.5576 9.00517H14.1992C14.6961 9.00538 15.0986 9.40863 15.0986 9.90556C15.0984 10.4023 14.696 10.8057 14.1992 10.806H13.5576L13.8779 11.3606C14.1263 11.7911 13.9792 12.3416 13.5488 12.5901C13.1185 12.8385 12.5679 12.6911 12.3193 12.261L11.998 11.7054L11.6787 12.261C11.4302 12.6912 10.8795 12.8383 10.4492 12.5901C10.0188 12.3416 9.87081 11.7911 10.1191 11.3606L10.4395 10.806H9.79883C9.30189 10.806 8.89862 10.4025 8.89844 9.90556C8.89844 9.4085 9.30177 9.00517 9.79883 9.00517H10.4395L10.1191 8.45048C9.87064 8.02007 10.0189 7.46956 10.4492 7.22099C10.8796 6.97265 11.4302 7.11971 11.6787 7.55009L11.998 8.10478L12.3193 7.55009Z" fill="currentColor"/><path d="M20.3193 7.55009C20.5679 7.11975 21.1184 6.97249 21.5488 7.22099C21.9792 7.46957 22.1264 8.02008 21.8779 8.45048L21.5576 9.00517H22.1992C22.6961 9.00538 23.0986 9.40863 23.0986 9.90556C23.0984 10.4023 22.696 10.8057 22.1992 10.806H21.5576L21.8779 11.3606C22.1263 11.7911 21.9792 12.3416 21.5488 12.5901C21.1185 12.8385 20.5679 12.6911 20.3193 12.261L19.998 11.7054L19.6787 12.261C19.4302 12.6912 18.8795 12.8383 18.4492 12.5901C18.0188 12.3416 17.8708 11.7911 18.1191 11.3606L18.4395 10.806H17.7988C17.3019 10.806 16.8986 10.4025 16.8984 9.90556C16.8984 9.4085 17.3018 9.00517 17.7988 9.00517H18.4395L18.1191 8.45048C17.8706 8.02007 18.0189 7.46956 18.4492 7.22099C18.8796 6.97265 19.4302 7.11971 19.6787 7.55009L19.998 8.10478L20.3193 7.55009Z" fill="currentColor"/>
</svg>
