<svg width="24" height="24" viewBox="0 0 24 24" fill="none" xmlns="http://www.w3.org/2000/svg">
<path d="M9.05938 13.406C8.93174 14.0834 8.42486 17.241 8.27534 18.1336C8.2644 18.1971 8.23888 18.2218 8.16594 18.2218H5.44553C5.16838 18.2218 4.96782 17.989 5.00428 17.7314L7.14123 4.61037C7.19593 4.27167 7.50954 4.01412 7.87056 4.01412C13.4244 4.01412 13.8912 3.88358 15.3098 4.41633C17.5014 5.23838 17.702 7.22117 16.9143 9.36627C16.1303 11.5749 14.2705 12.5239 11.8053 12.5522C10.2227 12.5769 9.27088 12.3052 9.05938 13.406ZM18.0192 8.329C17.9536 8.28314 17.9281 8.2655 17.9098 8.37487C17.8369 8.77707 17.7239 9.16869 17.5889 9.56031C16.1339 13.5753 12.1007 13.226 10.1315 13.226C9.90905 13.226 9.76318 13.3425 9.73401 13.5577C8.90986 18.5111 8.74576 19.5449 8.74576 19.5449C8.7093 19.7954 8.8734 20 9.13231 20H11.4479C11.7616 20 12.0205 19.7777 12.0825 19.4743C12.108 19.2838 12.0423 19.6895 12.6076 16.2531C12.7753 15.477 13.1291 15.5581 13.6761 15.5581C16.2652 15.5581 18.2854 14.542 18.8871 11.596C19.1242 10.3683 19.0549 9.07696 18.0192 8.329Z" fill="currentColor"/>
</svg>
