<svg xmlns="http://www.w3.org/2000/svg" viewBox="0 0 24 24" fill="none">
<path d="M19.2499 12.6641L11.3701 20.546C10.7949 21.121 10.057 21.5069 9.25678 21.6524L4.67866 22.4845C4.35614 22.543 4.02486 22.4397 3.79292 22.2081C3.56106 21.9762 3.45813 21.645 3.51655 21.3224L4.34858 16.7442C4.4941 15.9439 4.8799 15.2062 5.45503 14.6309L13.3359 6.75009L19.2499 12.6641Z" fill="currentColor"/><path d="M15.5429 4.54305C17.1761 2.91025 19.8239 2.91001 21.457 4.54305C23.0897 6.17613 23.0897 8.82403 21.457 10.4571L20.664 11.2501L14.7499 5.33602L15.5429 4.54305Z" fill="currentColor"/><path d="M7.24045 4.18518L6.54359 2.37334C6.45708 2.14842 6.24099 2 6 2C5.75901 2 5.54292 2.14842 5.45641 2.37334L4.75955 4.18518C4.65797 4.44927 4.44927 4.65797 4.18518 4.75955L2.37334 5.45641C2.14842 5.54292 2 5.75901 2 6C2 6.24099 2.14842 6.45708 2.37334 6.54359L4.18518 7.24045C4.44927 7.34203 4.65797 7.55073 4.75955 7.81482L5.45641 9.62666C5.54292 9.85158 5.75901 10 6 10C6.24099 10 6.45708 9.85158 6.54359 9.62666L7.24045 7.81482C7.34203 7.55073 7.55073 7.34203 7.81482 7.24045L9.62666 6.54359C9.85158 6.45708 10 6.24099 10 6C10 5.75901 9.85158 5.54292 9.62666 5.45641L7.81482 4.75955C7.55073 4.65797 7.34203 4.44927 7.24045 4.18518Z" fill="currentColor"/>
</svg>
