<svg xmlns="http://www.w3.org/2000/svg" viewBox="0 0 24 24" fill="none">
<path fill-rule="evenodd" clip-rule="evenodd" d="M14.5424 3.54302C16.1754 1.91001 18.8233 1.91027 20.4565 3.54302C22.0894 5.1762 22.0896 7.82398 20.4565 9.45708L10.3696 19.5459C9.79433 20.1209 9.05651 20.5069 8.25628 20.6524L3.67816 21.4844C3.35561 21.5428 3.02428 21.4398 2.79242 21.2081C2.56067 20.9762 2.45764 20.6449 2.51605 20.3223L3.34808 15.7442C3.49358 14.944 3.87953 14.2061 4.45453 13.6309L14.5424 3.54302ZM17.9575 6.04302C17.567 5.65254 16.9339 5.65258 16.5434 6.04302L13.7934 8.79302C13.4029 9.18353 13.4029 9.81655 13.7934 10.2071C14.1839 10.5976 14.8169 10.5976 15.2075 10.2071L17.9575 7.45708C18.3479 7.06655 18.348 6.43352 17.9575 6.04302Z" fill="currentColor"/>
</svg>
