<svg width="24" height="24" viewBox="0 0 24 24" fill="none" xmlns="http://www.w3.org/2000/svg">
<path d="M19.2071 3.79312C17.9882 2.57417 16.0118 2.57417 14.7929 3.79312L3.17157 15.4144C2.42143 16.1646 2 17.182 2 18.2429V20.0002C2 20.5525 2.44772 21.0002 3 21.0002H4.75736C5.81823 21.0002 6.83564 20.5788 7.58579 19.8287L19.2071 8.20733C20.4261 6.98838 20.4261 5.01207 19.2071 3.79312Z" fill="currentColor" style="fill:currentColor;fill-opacity:1;"/>
<path d="M21.6709 18.7487C21.6219 18.8012 21.5529 18.8729 21.4662 18.9574C21.2939 19.1255 21.0459 19.3497 20.7409 19.5758C20.16 20.0063 19.2374 20.5445 18.166 20.5445C17.1605 20.5445 16.2884 20.0807 15.6631 19.7481L15.5973 19.7131C14.874 19.3292 14.4294 19.1152 13.9866 19.1152C12.9302 19.1152 12.2548 19.6726 11.7268 20.2313C11.3475 20.6328 10.7146 20.6507 10.3132 20.2714C9.91177 19.892 9.89385 19.2591 10.2732 18.8577C10.9266 18.1662 12.0974 17.1152 13.9866 17.1152C14.9734 17.1152 15.8365 17.5747 16.4551 17.9041L16.5349 17.9466C17.2522 18.3273 17.7074 18.5445 18.166 18.5445C18.5947 18.5445 19.089 18.3106 19.5501 17.9689C19.7661 17.8088 19.9454 17.647 20.07 17.5255C20.1568 17.4409 20.2035 17.3909 20.2444 17.3451C20.6008 16.9337 21.2418 16.8876 21.6537 17.2434C22.1297 17.6545 22.0719 18.3189 21.6709 18.7487Z" fill="currentColor" style="fill:currentColor;fill-opacity:1;"/>
</svg>
