<svg xmlns="http://www.w3.org/2000/svg" viewBox="0 0 24 24" fill="none">
<path fill-rule="evenodd" clip-rule="evenodd" d="M16 4C18.2091 4 20 5.79086 20 8V18C20 20.2091 18.2091 22 16 22H8C5.79086 22 4 20.2091 4 18V8C4 5.79086 5.79086 4 8 4V5.5C8 6.88071 9.11929 8 10.5 8H13.5C14.8807 8 16 6.88071 16 5.5V4ZM12 16.5C10.3003 16.5 8.82025 17.4423 8.05469 18.833C7.74541 19.395 8.22272 20 8.86426 20H15.1357C15.7773 20 16.2537 19.3951 15.9443 18.833C15.1787 17.4424 13.6996 16.5 12 16.5ZM12 9.75C10.6193 9.75 9.5 10.8693 9.5 12.25C9.5 13.6307 10.6193 14.75 12 14.75C13.3807 14.75 14.5 13.6307 14.5 12.25C14.5 10.8693 13.3807 9.75 12 9.75Z" fill="currentColor"/><path d="M13.25 2C13.6642 2 14 2.33579 14 2.75V5.25C14 5.66421 13.6642 6 13.25 6H10.75C10.3358 6 10 5.66421 10 5.25V2.75C10 2.33579 10.3358 2 10.75 2H13.25Z" fill="currentColor"/>
</svg>
