<svg xmlns="http://www.w3.org/2000/svg" viewBox="0 0 24 24" fill="none">
<path d="M21 8V10M17 3V15M13 6V12M9 4V6" stroke="currentColor" stroke-width="2" stroke-linecap="round" stroke-linejoin="round"/><path d="M9 12C9 13.1046 8.10457 14 7 14C5.89543 14 5 13.1046 5 12C5 10.8954 5.89543 10 7 10C8.10457 10 9 10.8954 9 12Z" fill="currentColor" stroke="currentColor" stroke-width="2" stroke-linecap="round" stroke-linejoin="round"/><path d="M5.79313 17H8.20687C9.55456 17 10.7293 17.9172 11.0562 19.2247C11.2816 20.1264 10.5996 21 9.67002 21H4.32998C3.40044 21 2.71839 20.1264 2.94384 19.2247C3.2707 17.9172 4.44544 17 5.79313 17Z" fill="currentColor" stroke="currentColor" stroke-width="2" stroke-linecap="round" stroke-linejoin="round"/>
</svg>
