<svg xmlns="http://www.w3.org/2000/svg" viewBox="0 0 24 24" fill="none">
<path d="M12 12C13.16 12 14.2391 12.2107 15.2129 12.5947L14.7637 13.7637L12.8818 14.4883C12.0497 14.8085 11.5 15.6083 11.5 16.5C11.5 17.3917 12.0497 18.1915 12.8818 18.5117L14.7637 19.2354L15.4424 21H7.79492C6.62356 20.9999 5.53166 20.479 4.8584 19.6416C4.16085 18.7738 3.92352 17.559 4.55273 16.3887C5.96268 13.7662 8.64226 12 12 12Z" fill="currentColor"/><path fill-rule="evenodd" clip-rule="evenodd" d="M17.5 12C17.7711 12 18.014 12.167 18.1113 12.4199L18.8955 14.458C19.0098 14.7551 19.2449 14.9902 19.542 15.1045L21.5801 15.8887C21.833 15.986 22 16.2289 22 16.5C22 16.7711 21.833 17.014 21.5801 17.1113L19.542 17.8955C19.2449 18.0098 19.0098 18.2449 18.8955 18.542L18.1113 20.5801C18.014 20.833 17.7711 21 17.5 21C17.2289 21 16.986 20.833 16.8887 20.5801L16.1045 18.542C15.9902 18.2449 15.7551 18.0098 15.458 17.8955L13.4199 17.1113C13.167 17.014 13 16.7711 13 16.5C13 16.2289 13.167 15.986 13.4199 15.8887L15.458 15.1045C15.7551 14.9902 15.9902 14.7551 16.1045 14.458L16.8887 12.4199C16.986 12.167 17.2289 12 17.5 12ZM15.9971 14.6689C15.9883 14.6823 15.977 14.6941 15.9678 14.707C15.9798 14.6902 15.9928 14.6738 16.0039 14.6562L15.9971 14.6689Z" fill="currentColor"/><path d="M4 7.5C4.18074 7.5 4.34234 7.61158 4.40723 7.78027L4.89062 9.03516C4.9922 9.29922 5.20078 9.5078 5.46484 9.60938L6.71973 10.0928C6.88842 10.1577 7 10.3193 7 10.5C7 10.6807 6.88842 10.8423 6.71973 10.9072L5.46484 11.3906C5.20078 11.4922 4.9922 11.7008 4.89062 11.9648L4.40723 13.2197C4.34234 13.3884 4.18074 13.5 4 13.5C3.81926 13.5 3.65766 13.3884 3.59277 13.2197L3.10938 11.9648C3.0078 11.7008 2.79922 11.4922 2.53516 11.3906L1.28027 10.9072C1.11158 10.8423 1 10.6807 1 10.5C1 10.3193 1.11158 10.1577 1.28027 10.0928L2.53516 9.60938C2.79922 9.5078 3.0078 9.29922 3.10938 9.03516L3.59277 7.78027C3.65766 7.61158 3.81926 7.5 4 7.5Z" fill="currentColor"/><path d="M12 2C14.4852 2.00007 16.5 4.01476 16.5 6.5C16.5 8.98524 14.4852 10.9999 12 11C9.51472 11 7.5 8.98528 7.5 6.5C7.5 4.01472 9.51472 2 12 2Z" fill="currentColor"/>
</svg>
