<svg width="24" height="24" viewBox="0 0 24 24" fill="none" xmlns="http://www.w3.org/2000/svg">
<path d="M14.5002 9.5C14.5002 10.163 14.2368 10.7989 13.768 11.2678C13.2991 11.7366 12.6632 12 12.0002 12C11.3371 12 10.7012 11.7366 10.2323 11.2678C9.76349 10.7989 9.50009 10.163 9.50009 9.5C9.50009 8.83696 9.76349 8.20107 10.2323 7.73223C10.7012 7.26339 11.3371 7 12.0002 7C12.6632 7 13.2991 7.26339 13.768 7.73223C14.2368 8.20107 14.5002 8.83696 14.5002 9.5ZM16.2565 17H7.7438C7.23503 17 6.85127 16.58 7.05628 16.1338C7.50879 15.1463 8.73632 13.6663 12.0314 13.6663C15.3415 13.6663 16.5278 15.1613 16.9503 16.1488C17.1403 16.5925 16.759 17 16.2565 17Z" fill="currentColor" style="fill:currentColor;fill-opacity:1;"/>
<path d="M19 7C19 5.89542 18.1046 5 17 5H7C5.89543 5 5 5.89543 5 7V17C5 18.1046 5.89542 19 7 19H17C18.1046 19 19 18.1046 19 17V7ZM21 17C21 19.2092 19.2092 21 17 21H7C4.79088 21 3 19.2092 3 17V7C3 4.79087 4.79087 3 7 3H17C19.2092 3 21 4.79088 21 7V17Z" fill="currentColor" style="fill:currentColor;fill-opacity:1;"/>
</svg>
