<svg xmlns="http://www.w3.org/2000/svg" viewBox="0 0 24 24" fill="none">
<path fill-rule="evenodd" clip-rule="evenodd" d="M19.1493 13C19.393 13 19.6058 13.1659 19.6649 13.4023L19.8504 14.1484C19.9232 14.4399 20.2237 14.6129 20.5125 14.5303L21.2528 14.3193C21.487 14.2526 21.7364 14.3535 21.8582 14.5645L22.5057 15.6855C22.6276 15.8967 22.5902 16.1636 22.4149 16.333L21.8621 16.8672C21.6464 17.0759 21.6465 17.422 21.8621 17.6309L22.4159 18.167C22.5911 18.3365 22.6286 18.6034 22.5067 18.8145L21.8592 19.9355C21.7373 20.1467 21.4872 20.2478 21.2528 20.1807L20.5125 19.9688C20.2236 19.886 19.9232 20.059 19.8504 20.3506L19.6649 21.0977C19.6058 21.3341 19.393 21.4999 19.1493 21.5H17.8534C17.6098 21.4998 17.3979 21.334 17.3387 21.0977L17.1512 20.3516C17.0783 20.0602 16.7788 19.8871 16.4901 19.9697L15.7508 20.1807C15.5165 20.2477 15.2663 20.1466 15.1444 19.9355L14.4969 18.8145C14.3751 18.6034 14.4127 18.3365 14.5877 18.167L15.1414 17.6309C15.357 17.4221 15.3571 17.0759 15.1414 16.8672L14.5887 16.333C14.4136 16.1635 14.376 15.8966 14.4979 15.6855L15.1453 14.5645C15.2672 14.3534 15.5175 14.2524 15.7518 14.3193L16.4901 14.5303C16.7786 14.6127 17.0781 14.4395 17.1512 14.1484L17.3387 13.4023C17.3979 13.1661 17.6098 13.0001 17.8534 13H19.1493ZM18.4998 15.75C17.6715 15.7501 16.9998 16.4216 16.9998 17.25C16.9998 18.0784 17.6715 18.7499 18.4998 18.75C19.3282 18.7499 19.9998 18.0784 19.9998 17.25C19.9998 16.4216 19.3282 15.7501 18.4998 15.75Z" fill="currentColor"/><path d="M11.9998 12C13.0317 12 13.9999 12.1664 14.8866 12.4736C13.3504 13.5059 12.3397 15.2601 12.3397 17.25C12.3397 18.6834 12.8657 19.9931 13.7332 21H7.79476C6.62346 20.9999 5.53147 20.4789 4.85824 19.6416C4.16075 18.7738 3.92343 17.559 4.55258 16.3887C5.9625 13.7662 8.64218 12.0001 11.9998 12Z" fill="currentColor"/><path d="M11.9998 2C14.4851 2.00007 16.4998 4.01476 16.4998 6.5C16.4998 8.98524 14.4851 10.9999 11.9998 11C9.51463 10.9999 7.49984 8.98523 7.49984 6.5C7.49984 4.01477 9.51463 2.00008 11.9998 2Z" fill="currentColor"/>
</svg>
