<svg xmlns="http://www.w3.org/2000/svg" viewBox="0 0 24 24" fill="none">
<path fill-rule="evenodd" clip-rule="evenodd" d="M16.5 2C18.7091 2 20.5 3.79086 20.5 6V18C20.5 20.2091 18.7091 22 16.5 22H7.5C5.29086 22 3.5 20.2091 3.5 18V6C3.5 3.79086 5.29086 2 7.5 2H16.5ZM12 16C10.2797 16 8.17818 17.1256 7.62402 19.0273C7.46958 19.5576 7.93307 20.0156 8.48535 20.0156H15.5156C16.0677 20.0154 16.5304 19.5574 16.376 19.0273C15.8218 17.1256 13.7203 16 12 16ZM12 9.5C10.6193 9.5 9.5 10.6193 9.5 12C9.5 13.3807 10.6193 14.5 12 14.5C13.3807 14.5 14.5 13.3807 14.5 12C14.5 10.6193 13.3807 9.5 12 9.5ZM10 4C9.44772 4 9 4.44772 9 5C9 5.55228 9.44772 6 10 6H14C14.5523 6 15 5.55228 15 5C15 4.44772 14.5523 4 14 4H10Z" fill="currentColor"/>
</svg>
