<svg xmlns="http://www.w3.org/2000/svg" viewBox="0 0 24 24" fill="none">
<path d="M15 3.25C15 3.80228 14.5523 4.25 14 4.25C13.4477 4.25 13 3.80228 13 3.25C13 2.69772 13.4477 2.25 14 2.25C14.5523 2.25 15 2.69772 15 3.25Z" fill="currentColor"/><circle cx="14" cy="6.5" r="1" fill="currentColor"/><circle cx="17" cy="5" r="0.75" fill="currentColor"/><circle cx="17" cy="8" r="0.75" fill="currentColor"/><circle cx="14" cy="9.75" r="1" fill="currentColor"/><circle cx="14" cy="13" r="1" fill="currentColor"/><circle cx="17" cy="13" r="0.75" fill="currentColor"/><circle cx="20" cy="16.5" r="0.75" fill="currentColor"/><circle cx="14" cy="16.5" r="1" fill="currentColor"/><circle cx="17" cy="16.5" r="1" fill="currentColor"/><circle cx="14" cy="20" r="1" fill="currentColor"/><circle cx="17" cy="20" r="1" fill="currentColor"/><circle cx="20" cy="20" r="0.75" fill="currentColor"/><path d="M7.5 6.5C7.5 8.81655 9.25044 10.7243 11.5008 10.9726C11.7753 11.0029 12 10.7761 12 10.5V2.5C12 2.22386 11.7753 1.99708 11.5008 2.02738C9.25044 2.27573 7.5 4.18345 7.5 6.5Z" fill="currentColor"/><path d="M12.001 20.5C12.001 20.7761 11.7771 21 11.501 21H7.48203C5.24202 21 3.32793 19.0947 4.14734 17.0099C5.26962 14.1546 7.67536 12.1689 11.5006 12.0102C11.7765 11.9988 12.001 12.2239 12.001 12.5V20.5Z" fill="currentColor"/>
</svg>
