<svg xmlns="http://www.w3.org/2000/svg" viewBox="0 0 24 24" fill="none">
<path fill-rule="evenodd" clip-rule="evenodd" d="M15.8296 4.60059C17.1317 4.36838 17.9392 5.47496 18.0552 6.36914C18.2913 8.18863 19.2773 9.41863 20.9263 9.94043C21.5242 10.1297 22.0005 10.6882 22.0005 11.3906V14.1094C22.0005 14.81 21.5256 15.3729 20.9205 15.5605C19.294 16.0643 18.1585 17.1775 17.7134 18.584C17.3494 19.7346 16.3215 20.9997 14.7574 21H14.2916C13.3892 20.9999 12.5878 20.4224 12.3023 19.5664C12.2891 19.527 12.2511 19.5001 12.2095 19.5H9.79058C9.74898 19.5001 9.71215 19.527 9.69879 19.5664C9.41307 20.4223 8.6109 20.9999 7.70855 21H6.89898C6.05859 21 5.19294 20.6474 4.63433 19.9092C2.77755 17.4543 1.76667 14.2492 2.09136 11.5654C2.25562 10.2086 2.77084 8.92421 3.76422 7.97656C4.76841 7.01885 6.16113 6.5001 7.88531 6.5H11.7994C12.0208 6.4999 12.2475 6.42298 12.4419 6.27344C13.4225 5.51882 14.4513 4.84666 15.8296 4.60059ZM15.2505 10C14.5603 10.0001 14.0007 10.5598 14.0005 11.25C14.0007 11.9402 14.5603 12.4999 15.2505 12.5C15.9407 12.4999 16.5004 11.9402 16.5005 11.25C16.5004 10.5598 15.9407 10.0001 15.2505 10Z" fill="currentColor"/><path d="M11.0005 2C12.4602 2.00009 13.7367 2.78242 14.4351 3.9502C13.4113 4.33077 12.5717 4.90696 11.8052 5.5H7.88531C7.59293 5.50001 7.30682 5.51416 7.02789 5.54102C7.25564 3.54813 8.94668 2 11.0005 2Z" fill="currentColor"/>
</svg>
