<svg xmlns="http://www.w3.org/2000/svg" viewBox="0 0 24 24" fill="none">
<path d="M9.75151 19.25C9.60221 19.6979 9.18306 20 8.71094 20H6.89918C6.32795 20 5.77648 19.7613 5.4319 19.3057C1.96785 14.7258 1.81704 7.5 7.88612 7.5H12.1503C12.3774 7.5 12.5975 7.42229 12.7757 7.28159C14.0907 6.24341 15.2117 5.5 17.0011 5.5C17.0011 8.04143 18.1388 9.53083 20.2528 10.2766C20.6856 10.4293 21.0011 10.8219 21.0011 11.2808V14.2192C21.0011 14.6781 20.6857 15.0707 20.2531 15.2238C18.7193 15.7666 17.7417 16.6903 17.2916 18.0296C16.9396 19.0766 16.1057 20 15.0011 20H13.7917C13.3196 20 12.9004 19.6979 12.7511 19.25C12.6018 18.8021 12.1827 18.5 11.7106 18.5H10.7921C10.32 18.5 9.90081 18.8021 9.75151 19.25Z" stroke="currentColor" stroke-width="2" stroke-linecap="round" stroke-linejoin="round"/><path d="M16.5 11.25C16.5 11.9404 15.9404 12.5 15.25 12.5C14.5596 12.5 14 11.9404 14 11.25C14 10.5596 14.5596 10 15.25 10C15.9404 10 16.5 10.5596 16.5 11.25Z" fill="currentColor"/><path d="M14 6C14 4.34315 12.6569 3 11 3C9.34315 3 8 4.34315 8 6C8 6.41374 8.08375 6.80792 8.23523 7.1665" stroke="currentColor" stroke-width="2" stroke-linecap="round" stroke-linejoin="round"/>
</svg>
