<svg width="24" height="24" viewBox="0 0 24 24" fill="none" xmlns="http://www.w3.org/2000/svg">
<path d="M5 3C3.34315 3 2 4.34315 2 6C2 6.23294 2.02674 6.4609 2.07774 6.68049C2.12947 6.90325 2.19305 7.12483 2.24889 7.31948L2.25574 7.34335C2.31586 7.55298 2.36744 7.73468 2.40768 7.91114C2.48911 8.2682 2.49907 8.50589 2.45508 8.68992C2.20563 9.73348 2 10.9145 2 12C2 13.0855 2.20563 14.2665 2.45508 15.3101C2.49907 15.4941 2.48911 15.7318 2.40768 16.0889C2.36744 16.2653 2.31586 16.447 2.25574 16.6566L2.24889 16.6805C2.19305 16.8752 2.12948 17.0967 2.07774 17.3195C2.02674 17.5391 2 17.7671 2 18C2 19.6569 3.34315 21 5 21C5.26653 21 5.52641 20.965 5.77462 20.8988C5.99849 20.8391 6.22083 20.767 6.41568 20.7038L6.44032 20.6958C6.65053 20.6277 6.83219 20.5694 7.00868 20.5232C7.366 20.4295 7.60076 20.4145 7.78183 20.4549C9.08905 20.7464 10.6156 21 12 21C13.3844 21 14.911 20.7464 16.2182 20.4549C16.3992 20.4145 16.634 20.4295 16.9913 20.5232C17.1678 20.5694 17.3495 20.6277 17.5597 20.6958L17.5843 20.7038C17.7792 20.767 18.0015 20.8391 18.2254 20.8988C18.4736 20.965 18.7335 21 19 21C20.6569 21 22 19.6569 22 18C22 17.7671 21.9733 17.5391 21.9223 17.3195C21.8705 17.0967 21.8069 16.8751 21.7511 16.6805L21.7443 16.6566C21.6841 16.447 21.6326 16.2653 21.5923 16.0889C21.5109 15.7318 21.5009 15.4941 21.5449 15.3101C21.7944 14.2665 22 13.0855 22 12C22 10.9145 21.7944 9.73348 21.5449 8.68992C21.5009 8.50589 21.5109 8.2682 21.5923 7.91114C21.6326 7.73468 21.6841 7.55298 21.7443 7.34335L21.7511 7.31952C21.8069 7.12486 21.8705 6.90327 21.9223 6.68049C21.9733 6.4609 22 6.23294 22 6C22 4.34315 20.6569 3 19 3C18.7316 3 18.4699 3.0355 18.2201 3.10263C17.9958 3.1629 17.7731 3.2356 17.578 3.29929L17.5535 3.30729C17.343 3.37596 17.1612 3.43471 16.9845 3.48137C16.6269 3.57584 16.3923 3.59093 16.2116 3.55058C14.8973 3.2572 13.3653 3 12 3C10.6347 3 9.10268 3.2572 7.78844 3.55058C7.60769 3.59093 7.37313 3.57584 7.01547 3.48137C6.83882 3.43471 6.65699 3.37596 6.44651 3.30729L6.422 3.29928C6.22688 3.2356 6.00416 3.1629 5.77989 3.10263C5.5301 3.0355 5.26842 3 5 3Z" fill="currentColor" style="fill:currentColor;fill-opacity:1;"/>
</svg>
