<svg width="24" height="24" viewBox="0 0 24 24" fill="none" xmlns="http://www.w3.org/2000/svg">
<path d="M8.4763 4.63656C8.93605 3.07342 10.3706 2 12 2C13.6294 2 15.064 3.07342 15.5237 4.63656L16.5129 8H7.48706L8.4763 4.63656Z" fill="currentColor" style="fill:currentColor;fill-opacity:1;"/>
<path d="M6.89882 10L6.01647 13H17.9835L17.1012 10H6.89882Z" fill="currentColor" style="fill:currentColor;fill-opacity:1;"/>
<path d="M18.5718 15H5.42823L4.25176 19H3C2.44772 19 2 19.4477 2 20C2 20.5523 2.44772 21 3 21H21C21.5523 21 22 20.5523 22 20C22 19.4477 21.5523 19 21 19H19.7482L18.5718 15Z" fill="currentColor" style="fill:currentColor;fill-opacity:1;"/>
</svg>
