<svg xmlns="http://www.w3.org/2000/svg" viewBox="0 0 24 24" fill="none">
<path d="M12.9996 2C15.2087 2 16.9996 3.79086 16.9996 6V8.75977C18.5454 9.99944 19.6256 11.8009 19.9195 13.8613C20.0971 15.1067 19.0589 16 17.9996 16H12.9996V20.1318C12.9996 20.2095 12.9816 20.286 12.9469 20.3555L12.2232 21.8027C12.1311 21.9869 11.8681 21.987 11.776 21.8027L11.0523 20.3555C11.0177 20.2861 10.9996 20.2094 10.9996 20.1318V16H5.99961C4.94044 15.9998 3.90216 15.1065 4.07969 13.8613L4.15097 13.4443C4.52304 11.5582 5.55916 9.91507 6.99961 8.75977V6C6.99961 3.791 8.79066 2.00022 10.9996 2H12.9996Z" fill="currentColor"/>
</svg>
