<svg width="24" height="24" viewBox="0 0 24 24" fill="none" xmlns="http://www.w3.org/2000/svg">
<path d="M11.19 2.41338C11.1192 2.51105 11.0655 2.62203 11.0336 2.74187C11.0094 2.83245 10.9984 2.92486 11 3.01644V9.9834C10.9998 9.99502 10.9998 10.0067 11 10.0183V16.9999C11 17.5522 11.4477 17.9999 12 17.9999C12.5523 17.9999 13 17.5522 13 16.9999V10.5743L18.5039 7.3637C18.8111 7.18449 19 6.85559 19 6.49992C19 6.14425 18.8111 5.81535 18.5039 5.63614L12.5175 2.1441C12.4436 2.09931 12.3634 2.06383 12.2786 2.03927C12.1515 2.00229 12.0203 1.99173 11.8926 2.00564C11.7546 2.02037 11.6251 2.06316 11.5097 2.12817C11.3866 2.19725 11.2768 2.29317 11.19 2.41338Z" fill="currentColor" style="fill:currentColor;fill-opacity:1;"/>
<path d="M8.18975 15.346C8.732 15.2412 9.08663 14.7167 8.98183 14.1744C8.87704 13.6322 8.3525 13.2776 7.81025 13.3824C6.25844 13.6823 4.88197 14.1547 3.86503 14.7798C2.89011 15.3791 2 16.282 2 17.5004C2 18.358 2.45088 19.066 3.03043 19.5989C3.60913 20.131 4.39133 20.5642 5.27359 20.9073C7.04448 21.5959 9.42296 22.0004 12 22.0004C14.577 22.0004 16.9555 21.5959 18.7264 20.9073C19.6087 20.5642 20.3909 20.131 20.9696 19.5989C21.5491 19.066 22 18.358 22 17.5004C22 16.282 21.1099 15.3791 20.135 14.7798C19.118 14.1547 17.7416 13.6823 16.1897 13.3824C15.6475 13.2776 15.123 13.6322 15.0182 14.1744C14.9134 14.7167 15.268 15.2412 15.8103 15.346C17.2219 15.6188 18.3454 16.0274 19.0876 16.4836C19.8718 16.9657 20 17.3445 20 17.5004C20 17.6093 19.9472 17.822 19.6159 18.1266C19.2838 18.432 18.7479 18.753 18.0015 19.0433C16.515 19.6213 14.3935 20.0004 12 20.0004C9.60648 20.0004 7.48496 19.6213 5.99849 19.0433C5.25207 18.753 4.71624 18.432 4.3841 18.1266C4.0528 17.822 4 17.6093 4 17.5004C4 17.3445 4.12817 16.9657 4.91239 16.4836C5.65459 16.0274 6.77813 15.6188 8.18975 15.346Z" fill="currentColor" style="fill:currentColor;fill-opacity:1;"/>
</svg>
