<svg xmlns="http://www.w3.org/2000/svg" viewBox="0 0 24 24" fill="none">
<path d="M17.5 3C19.433 3 21 4.567 21 6.5C21 8.433 19.433 10 17.5 10C15.9145 10 14.5758 8.94566 14.1455 7.5H9.94629C8.9239 7.50006 8.56055 8.85292 9.44531 9.36523L15.5566 12.9033C18.2113 14.4402 17.1211 18.5 14.0537 18.5H9.85449C9.42417 19.9457 8.08545 21 6.5 21C4.567 21 3 19.433 3 17.5C3 15.567 4.567 14 6.5 14C8.08545 14 9.42417 15.0543 9.85449 16.5H14.0537C15.0762 16.5 15.4395 15.1471 14.5547 14.6348L8.44336 11.0967C5.78882 9.55979 6.87895 5.50006 9.94629 5.5H14.1455C14.5758 4.05434 15.9145 3 17.5 3Z" fill="currentColor"/>
</svg>
