<svg xmlns="http://www.w3.org/2000/svg" viewBox="0 0 24 24" fill="none">
<path d="M19.2256 17.332C19.0528 19.4052 17.3196 21 15.2393 21H8.76074C6.68039 21 4.94718 19.4052 4.77441 17.332L4.41309 13H19.5869L19.2256 17.332Z" fill="currentColor"/><path d="M15 1C16.1046 1 17 1.89543 17 3C17 3.0427 16.9958 3.08491 16.9932 3.12695L19 4.46484V7H20C20.5523 7 21 7.44772 21 8V9C21 10.1046 20.1046 11 19 11H5C3.89543 11 3 10.1046 3 9V8C3 7.44772 3.44772 7 4 7H5V4.46484L7.00586 3.12695C7.00322 3.08493 7 3.04268 7 3C7 1.89543 7.89543 1 9 1C10.1046 1 11 1.89543 11 3C11 4.10457 10.1046 5 9 5C8.68184 5 8.38229 4.92319 8.11523 4.79102L7 5.53516V7H17V5.53516L15.8838 4.79102C15.6169 4.92295 15.3178 5 15 5C13.8954 5 13 4.10457 13 3C13 1.89543 13.8954 1 15 1Z" fill="currentColor"/>
</svg>
