<svg width="24" height="24" viewBox="0 0 24 24" fill="none" xmlns="http://www.w3.org/2000/svg">
<path d="M20.2846 7C20.2351 6.85186 20.1698 6.70828 20.0893 6.57173C19.8347 6.14014 19.4418 5.80293 18.9715 5.61243L18.9228 5.59271C18.642 5.47896 18.3869 5.31209 18.1721 5.10164C17.9572 4.8912 17.7868 4.64132 17.6707 4.3663L17.6504 4.3183C17.456 3.85777 17.1117 3.473 16.6712 3.22369C16.2306 2.97438 15.7183 2.87448 15.2138 2.93949L15.1576 2.94669C14.8559 2.98557 14.5494 2.96585 14.2555 2.88867C13.9616 2.81149 13.6861 2.67835 13.4447 2.49685L13.4061 2.46796C13.0026 2.1645 12.5081 2 11.9993 2C11.4905 2 10.996 2.1645 10.5925 2.46796L10.5487 2.50087C10.3082 2.68175 10.0336 2.81444 9.74067 2.89136C9.44775 2.96828 9.14223 2.98792 8.84156 2.94916L8.78357 2.94169C8.27905 2.87666 7.76672 2.97664 7.32617 3.22611C6.88562 3.47558 6.54153 3.86056 6.34733 4.32125L6.32788 4.3674C6.21181 4.64275 6.04135 4.89293 5.82629 5.10357C5.61123 5.31421 5.3558 5.48116 5.07467 5.59483L5.02754 5.61389C4.55718 5.80409 4.16411 6.1411 3.9094 6.57258C3.82895 6.70886 3.76373 6.85215 3.71423 7H20.2846Z" fill="currentColor" style="fill:currentColor;fill-opacity:1;"/>
<path d="M4.18758 9C3.88619 9 3.65331 9.26465 3.69164 9.56358L4.88514 18.8729C5.11435 20.6608 6.63623 22 8.43877 22L7.67407 9H4.18758Z" fill="currentColor" style="fill:currentColor;fill-opacity:1;"/>
<path d="M9.67752 9L10.4422 22H13.5564L14.3211 9H9.67752Z" fill="currentColor" style="fill:currentColor;fill-opacity:1;"/>
<path d="M16.3246 9L15.5599 22C17.3625 22 18.8844 20.6608 19.1136 18.8728L20.3071 9.56358C20.3454 9.26465 20.1125 9 19.8111 9H16.3246Z" fill="currentColor" style="fill:currentColor;fill-opacity:1;"/>
</svg>
