<svg width="24" height="24" viewBox="0 0 24 24" fill="none" xmlns="http://www.w3.org/2000/svg">
<path fill-rule="evenodd" clip-rule="evenodd" d="M9 1.67363C6.63505 2.7971 5 5.2076 5 8V12.7298L5.00001 12.7331V14C5.00001 16.2091 6.79087 18 9.00001 18L9 20C9 21.6569 10.3431 23 12 23C13.6569 23 15 21.6569 15 20L15 18C17.2091 18 19 16.2091 19 14L19 8C19 4.29244 16.1176 1.2581 12.4715 1.01563C12.3546 1.00785 12.237 1.00295 12.1186 1.00098C12.089 1.00049 12.0594 1.00018 12.0297 1.00006C12.0198 1.00002 12.0099 1 12 1C10.9264 1 9.90926 1.24169 9 1.67363ZM7.00154 13.0947L7.00001 13.0965V14C7.00001 15.1046 7.89544 16 9.00001 16H15C16.1046 16 17 15.1046 17 14V11.5083C16.5835 11.7745 16.1114 12.0338 15.6484 12.1919C15.6 12.2085 15.5517 12.2239 15.5036 12.2381C14.2294 12.6146 13.1754 12.3362 12.3313 12.0156C12.2107 11.9698 12.0944 11.9232 11.9823 11.8775L11.7817 11.7953C11.051 11.4954 10.5552 11.2919 10.0176 11.2997C9.94083 11.3008 9.86318 11.3062 9.78387 11.3163C9.36062 11.37 8.8527 11.5862 8.32254 11.9407C8.2872 11.9643 8.25176 11.9885 8.21623 12.0134C7.76271 12.3306 7.34147 12.7152 7.00154 13.0947ZM11 18V20C11 20.5523 11.4477 21 12 21C12.5523 21 13 20.5523 13 20V18H11Z" fill="currentColor" style="fill:currentColor;fill-opacity:1;"/>
</svg>
