<svg width="24" height="24" viewBox="0 0 24 24" fill="none" xmlns="http://www.w3.org/2000/svg">
<path d="M9 5C9 4.44772 9.44772 4 10 4H19C19.5523 4 20 3.55228 20 3C20 2.44772 19.5523 2 19 2H10C8.34315 2 7 3.34315 7 5C7 5.55228 7.44772 6 8 6C8.55228 6 9 5.55228 9 5Z" fill="currentColor" style="fill:currentColor;fill-opacity:1;"/>
<path fill-rule="evenodd" clip-rule="evenodd" d="M7.69426 7C6.22774 7 4.97617 8.06024 4.73508 9.5068L3.01361 19.8356C2.96529 20.1256 3.04698 20.4221 3.23699 20.6464C3.42699 20.8707 3.70606 21 4.00001 21H11.9904C11.9936 21 11.9968 21 12 21H20C20.5523 21 21 20.5523 21 20V11.4604C21 10.2468 19.634 9.53561 18.6398 10.2315L16 12.0794V11.4985C16 10.2633 14.5906 9.55749 13.6015 10.2974L11.6411 11.7639L11.2649 9.5068C11.0238 8.06024 9.77227 7 8.30575 7H7.69426ZM9.92544 13.6353L9.29215 9.8356C9.21178 9.35341 8.79459 9 8.30575 9H7.69426C7.20542 9 6.78823 9.35341 6.70787 9.8356L5.18047 19H10.8189L9.93556 13.7157C9.93108 13.6889 9.92771 13.6621 9.92544 13.6353Z" fill="currentColor" style="fill:currentColor;fill-opacity:1;"/>
</svg>
