<svg xmlns="http://www.w3.org/2000/svg" viewBox="0 0 24 24" fill="none">
<path d="M18.868 10C20.8517 10.0003 22.2886 11.8914 21.7577 13.8027L20.5731 18.0703C20.0922 19.8016 18.5154 20.9999 16.7186 21H7.27917C5.48235 21 3.9056 19.8016 3.42468 18.0703L2.24011 13.8027C1.7092 11.8913 3.14603 10.0003 5.12976 10H18.868Z" fill="currentColor"/><path d="M18.9989 6.5C19.5511 6.50007 19.9989 6.94776 19.9989 7.5C19.9989 8.05224 19.5511 8.49993 18.9989 8.5H4.9989C4.44661 8.5 3.9989 8.05228 3.9989 7.5C3.9989 6.94772 4.44661 6.5 4.9989 6.5H18.9989Z" fill="currentColor"/><path d="M16.9989 3C17.5511 3.00007 17.9989 3.44776 17.9989 4C17.9989 4.55224 17.5511 4.99993 16.9989 5H6.9989C6.44661 5 5.9989 4.55228 5.9989 4C5.9989 3.44772 6.44661 3 6.9989 3H16.9989Z" fill="currentColor"/>
</svg>
