<svg xmlns="http://www.w3.org/2000/svg" viewBox="0 0 24 24" fill="none">
<path d="M18.3204 12.5937L11.4347 19.4794C10.8058 20.1082 9.98501 20.5097 9.10262 20.6201L6.12411 20.9921C5.81791 21.0304 5.51126 20.9252 5.29305 20.707C5.07488 20.4888 4.96962 20.1821 5.0079 19.8759L5.37997 16.8974C5.49034 16.0151 5.89188 15.1942 6.52059 14.5654L13.4063 7.67964L18.3204 12.5937Z" fill="currentColor"/><path d="M15.5431 5.54292C16.9001 4.18621 19.1002 4.18605 20.4571 5.54292C21.814 6.89985 21.8138 9.09994 20.4571 10.457L19.5938 11.3203L14.6798 6.4062L15.5431 5.54292Z" fill="currentColor"/><path d="M7.24045 4.18518L6.54359 2.37334C6.45708 2.14842 6.24099 2 6 2C5.75901 2 5.54292 2.14842 5.45641 2.37334L4.75955 4.18518C4.65797 4.44927 4.44927 4.65797 4.18518 4.75955L2.37334 5.45641C2.14842 5.54292 2 5.75901 2 6C2 6.24099 2.14842 6.45708 2.37334 6.54359L4.18518 7.24045C4.44927 7.34203 4.65797 7.55073 4.75955 7.81482L5.45641 9.62666C5.54292 9.85158 5.75901 10 6 10C6.24099 10 6.45708 9.85158 6.54359 9.62666L7.24045 7.81482C7.34203 7.55073 7.55073 7.34203 7.81482 7.24045L9.62666 6.54359C9.85158 6.45708 10 6.24099 10 6C10 5.75901 9.85158 5.54292 9.62666 5.45641L7.81482 4.75955C7.55073 4.65797 7.34203 4.44927 7.24045 4.18518Z" fill="currentColor"/>
</svg>
