<svg xmlns="http://www.w3.org/2000/svg" viewBox="0 0 24 24" fill="none">
<path d="M17 5C19.2091 5 21 6.79086 21 9V17C21 19.2091 19.2091 21 17 21H9C6.79086 21 5 19.2091 5 17V16C5 15.4477 5.44772 15 6 15C6.55228 15 7 15.4477 7 16V17C7 18.1046 7.89543 19 9 19H17C18.1046 19 19 18.1046 19 17V9C19 7.89543 18.1046 7 17 7H15C14.4477 7 14 6.55228 14 6C14 5.44772 14.4477 5 15 5H17Z" fill="currentColor"/><path d="M11 10.4727C11.0001 9.8598 11.6957 9.50572 12.1914 9.86621L15.666 12.3936C16.0778 12.6931 16.0778 13.3069 15.666 13.6064L12.1914 16.1338C11.6957 16.4943 11.0001 16.1402 11 15.5273V10.4727Z" fill="currentColor"/><path d="M10 3C10.5523 3 11 3.44772 11 4V5C11 5.55228 10.5523 6 10 6C9.44771 6 9 5.55228 9 5H7V10C7.55228 10 8 10.4477 8 11C8 11.5523 7.55228 12 7 12H5C4.44772 12 4 11.5523 4 11C4 10.4477 4.44772 10 5 10V5H3C3 5.55228 2.55228 6 2 6C1.44772 6 1 5.55228 1 5V4C1 3.44772 1.44772 3 2 3H10Z" fill="currentColor"/>
</svg>
