<svg xmlns="http://www.w3.org/2000/svg" viewBox="0 0 24 24" fill="none">
<path d="M8.00009 4.50003C8.51435 -1.67119 21.1452 3.00004 19.5001 6.00003C18.6775 7.49988 16.7204 6.85313 15.0001 8.00003C14.6666 8.22234 14.3769 8.42476 14.1222 8.6094C13.5072 8.22382 12.7804 8.00012 12.0011 8.00003C10.9637 8.00003 10.0175 8.39434 9.30673 9.04202C8.7618 7.87306 7.89365 5.7777 8.00009 4.50003Z" fill="currentColor"/><path d="M7.50537 19.2149C1.90381 21.8551 -0.366231 8.58086 3.05441 8.50561C4.76463 8.46809 5.18305 10.4863 7.03646 11.4027C7.39572 11.5803 7.7159 11.7301 8.00316 11.8583C7.9767 12.5837 8.14638 13.325 8.53597 14C9.05467 14.8983 9.86924 15.5206 10.7855 15.8123C10.0456 16.8687 8.66509 18.6682 7.50537 19.2149Z" fill="currentColor"/><path d="M20.4958 12.2861C25.5831 15.817 15.2223 24.4201 13.4468 21.4953C12.5592 20.033 14.0978 18.6615 13.9647 16.5982C13.9389 16.1983 13.9085 15.8461 13.8759 15.5332C14.5173 15.1935 15.0745 14.6759 15.4642 14.001C15.9829 13.1026 16.1145 12.086 15.909 11.1466C17.1938 11.2592 19.4425 11.555 20.4958 12.2861Z" fill="currentColor"/><path d="M14.0004 12C14.0004 13.1046 13.105 14 12.0004 14C10.8959 14 10.0004 13.1046 10.0004 12C10.0004 10.8954 10.8959 10 12.0004 10C13.105 10 14.0004 10.8954 14.0004 12Z" fill="currentColor"/>
</svg>
