<svg xmlns="http://www.w3.org/2000/svg" viewBox="0 0 24 24" fill="none">
<path fill-rule="evenodd" clip-rule="evenodd" d="M13.5068 2.83105C13.8763 2.4206 14.5085 2.38739 14.9189 2.75684C15.3294 3.1263 15.3626 3.75845 14.9932 4.16895L14.2451 5H15C17.2091 5 19 6.79086 19 9V14.126C20.7252 14.57 22 16.1362 22 18C22 20.2091 20.2091 22 18 22C15.7909 22 14 20.2091 14 18C14 16.1362 15.2748 14.57 17 14.126V9C17 7.89543 16.1046 7 15 7H14.2451L14.9932 7.83105C15.3626 8.24155 15.3294 8.8737 14.9189 9.24316C14.5085 9.61261 13.8763 9.5794 13.5068 9.16895L11.2568 6.66895C10.9146 6.28864 10.9146 5.71136 11.2568 5.33105L13.5068 2.83105Z" fill="currentColor"/><path fill-rule="evenodd" clip-rule="evenodd" d="M6 2C8.20914 2 10 3.79086 10 6C10 7.86384 8.72523 9.42998 7 9.87402V20.5C7 21.0523 6.55228 21.5 6 21.5C5.44772 21.5 5 21.0523 5 20.5V9.87402C3.27477 9.42998 2 7.86384 2 6C2 3.79086 3.79086 2 6 2Z" fill="currentColor"/>
</svg>
