<svg xmlns="http://www.w3.org/2000/svg" viewBox="0 0 24 24" fill="none">
<path d="M18 10.5C18.5523 10.5 19 10.9477 19 11.5V14.126C20.7252 14.57 22 16.1362 22 18C22 20.2091 20.2091 22 18 22C15.7909 22 14 20.2091 14 18C14 16.1362 15.2748 14.57 17 14.126V11.5C17 10.9477 17.4477 10.5 18 10.5Z" fill="currentColor"/><path d="M6 2C8.20914 2 10 3.79086 10 6C10 7.86384 8.72523 9.42998 7 9.87402V20.5C7 21.0523 6.55228 21.5 6 21.5C5.44772 21.5 5 21.0523 5 20.5V9.87402C3.27477 9.42998 2 7.86384 2 6C2 3.79086 3.79086 2 6 2Z" fill="currentColor"/><path d="M19.793 2.79297C20.1835 2.40244 20.8165 2.40244 21.207 2.79297C21.5976 3.18349 21.5976 3.81651 21.207 4.20703L19.4141 6L21.207 7.79297C21.5976 8.18349 21.5976 8.81651 21.207 9.20703C20.8165 9.59756 20.1835 9.59756 19.793 9.20703L18 7.41406L16.207 9.20703C15.8165 9.59756 15.1835 9.59756 14.793 9.20703C14.4024 8.81651 14.4024 8.18349 14.793 7.79297L16.5859 6L14.793 4.20703C14.4024 3.81651 14.4024 3.18349 14.793 2.79297C15.1835 2.40244 15.8165 2.40244 16.207 2.79297L18 4.58594L19.793 2.79297Z" fill="currentColor"/>
</svg>
