<svg width="24" height="24" viewBox="0 0 24 24" fill="none" xmlns="http://www.w3.org/2000/svg">
<path d="M9.5 4V3.5C9.5 2.11929 10.6193 1 12 1C13.3807 1 14.5 2.11929 14.5 3.5V4H18.25C19.7688 4 21 5.23122 21 6.75V9C21 9.27614 20.7761 9.5 20.5 9.5C19.1193 9.5 18 10.6193 18 12C18 13.3807 19.1193 14.5 20.5 14.5C20.7761 14.5 21 14.7239 21 15V17.25C21 18.7688 19.7688 20 18.25 20H7C4.79086 20 3 18.2091 3 16V8C3 5.79086 4.79086 4 7 4H9.5Z" fill="currentColor" style="fill:currentColor;fill-opacity:1;"/>
</svg>
