<svg xmlns="http://www.w3.org/2000/svg" viewBox="0 0 24 24" fill="none">
<path d="M9.79289 12.793C10.1834 12.4025 10.8164 12.4025 11.207 12.793C11.5974 13.1835 11.5974 13.8165 11.207 14.207L5.70696 19.707C5.31644 20.0975 4.68342 20.0975 4.29289 19.707C3.90237 19.3165 3.90237 18.6835 4.29289 18.293L9.79289 12.793Z" fill="currentColor"/><path d="M11.2929 16.293C11.6834 15.9025 12.3164 15.9025 12.707 16.293C13.0974 16.6835 13.0974 17.3165 12.707 17.707L10.707 19.707C10.3164 20.0975 9.68342 20.0975 9.29289 19.707C8.90237 19.3165 8.90237 18.6835 9.29289 18.293L11.2929 16.293Z" fill="currentColor"/><path d="M6.29289 11.293C6.68342 10.9025 7.31644 10.9025 7.70696 11.293C8.09743 11.6835 8.09743 12.3165 7.70696 12.707L5.70696 14.707C5.31644 15.0975 4.68342 15.0975 4.29289 14.707C3.90237 14.3165 3.90237 13.6835 4.29289 13.293L6.29289 11.293Z" fill="currentColor"/><path d="M15.6308 2.10547C16.2375 2.15213 16.7746 2.51984 17.0361 3.06934L17.0878 3.19043L17.7861 5.00781C17.9994 5.56221 18.4377 6.00056 18.9921 6.21387L20.8095 6.91211C21.4663 7.16476 21.9003 7.79627 21.9003 8.5C21.9003 9.20373 21.4663 9.83524 20.8095 10.0879L18.9921 10.7861C18.4377 10.9994 17.9994 11.4378 17.7861 11.9922L17.0878 13.8096C16.8352 14.4664 16.2036 14.9004 15.4999 14.9004C14.7962 14.9004 14.1647 14.4664 13.912 13.8096L13.2138 11.9922C13.0005 11.4378 12.5621 10.9995 12.0077 10.7861L10.1904 10.0879C9.57452 9.85103 9.15537 9.28104 9.10539 8.63086L9.09953 8.5L9.10539 8.36914C9.15537 7.71896 9.57452 7.14897 10.1904 6.91211L12.0077 6.21387C12.5621 6.00055 13.0005 5.5622 13.2138 5.00781L13.912 3.19043L13.9638 3.06934C14.2439 2.48063 14.8402 2.09961 15.4999 2.09961L15.6308 2.10547Z" fill="currentColor"/>
</svg>
