<svg xmlns="http://www.w3.org/2000/svg" viewBox="0 0 24 24" fill="none">
<path fill-rule="evenodd" clip-rule="evenodd" d="M17 3C19.2091 3 21 4.79086 21 7V13C21 15.2091 19.2091 17 17 17H5V20C5 20.5523 4.55228 21 4 21C3.44772 21 3 20.5523 3 20V5C3 3.89543 3.89543 3 5 3H17ZM7 13V15H9V13H7ZM11 13V15H13V13H11ZM15 13V15H17V13H15ZM5 11V13H7V11H5ZM9 11V13H11V11H9ZM13 11V13H15V11H13ZM17 11V13H19V11H17ZM7 9V11H9V9H7ZM11 9V11H13V9H11ZM15 9V11H17V9H15ZM5 7V9H7V7H5ZM9 7V9H11V7H9ZM13 7V9H15V7H13ZM17 7V9H19V7H17ZM7 5V7H9V5H7ZM11 5V7H13V5H11ZM15 5V7H17V5H15Z" fill="currentColor"/>
</svg>
