<svg xmlns="http://www.w3.org/2000/svg" viewBox="0 0 24 24" fill="none">
<path fill-rule="evenodd" clip-rule="evenodd" d="M14.6484 1.56286C15.1653 1.36913 15.7424 1.63122 15.9365 2.14782C16.1304 2.66478 15.8684 3.24181 15.3516 3.4359L8.51465 5.99938H18C20.209 5.99938 21.9998 7.79045 22 9.99938V16.9994C21.9999 19.2084 20.2091 20.9994 18 20.9994H6C3.79094 20.9994 2.00013 19.2084 2 16.9994V9.07848C2.00019 7.41129 3.03463 5.91877 4.5957 5.33336L14.6484 1.56286ZM13.5 14.7494C12.853 14.7494 12.3211 15.2414 12.2568 15.8714L12.25 15.9994L12.2568 16.1273C12.3209 16.7576 12.8528 17.2494 13.5 17.2494C14.1904 17.2494 14.75 16.6897 14.75 15.9994C14.7498 15.3524 14.258 14.8203 13.6279 14.7562L13.5 14.7494ZM17.5 14.7494C16.853 14.7494 16.3211 15.2414 16.2568 15.8714L16.25 15.9994L16.2568 16.1273C16.3209 16.7576 16.8528 17.2494 17.5 17.2494C18.1904 17.2494 18.75 16.6897 18.75 15.9994C18.7498 15.3524 18.258 14.8203 17.6279 14.7562L17.5 14.7494ZM4.31738 7.99938C4.11529 8.31447 4.00009 8.68678 4 9.07848V10.9994H8V7.99938H4.31738ZM10 10.9994H20V9.99938C19.9998 8.89502 19.1044 7.99938 18 7.99938H10V10.9994Z" fill="currentColor"/>
</svg>
