<svg width="24" height="24" viewBox="0 0 24 24" fill="none" xmlns="http://www.w3.org/2000/svg">
<path d="M9.99951 12C9.99951 10.8954 10.8949 10 11.9995 10C13.1041 10 13.9995 10.8954 13.9995 12C13.9995 13.1046 13.1041 14 11.9995 14C10.8949 14 9.99951 13.1046 9.99951 12Z" fill="currentColor"/>
<path fill-rule="evenodd" clip-rule="evenodd" d="M9.17113 3.16424C10.7332 1.60215 13.2659 1.60215 14.828 3.16424L20.8353 9.17158C22.3974 10.7337 22.3974 13.2663 20.8353 14.8284L14.828 20.8358C13.2659 22.3979 10.7332 22.3979 9.17111 20.8358L3.16375 14.8284C1.60166 13.2663 1.60167 10.7337 3.16377 9.17158L9.17113 3.16424ZM11.9995 8C9.79037 8 7.99951 9.79086 7.99951 12C7.99951 14.2091 9.79037 16 11.9995 16C14.2087 16 15.9995 14.2091 15.9995 12C15.9995 9.79086 14.2087 8 11.9995 8Z" fill="currentColor"/>
</svg>
