<svg xmlns="http://www.w3.org/2000/svg" viewBox="0 0 24 24" fill="none">
<path d="M14 2.5C14.5523 2.5 15 2.94772 15 3.5C15 4.05228 14.5523 4.5 14 4.5H13.002V6.04688C14.1673 6.15987 15.2314 6.47048 16.1768 6.94727L16.1133 7.11328L14.7881 7.62402C14.012 7.92252 13.5 8.66848 13.5 9.5C13.5 10.3315 14.012 11.0775 14.7881 11.376L16.1133 11.8857L16.624 13.2119C16.9225 13.988 17.6685 14.5 18.5 14.5C19.3315 14.5 20.0775 13.988 20.376 13.2119L20.6182 12.5801C20.8696 13.5067 21 14.4887 21 15.5C21 16.0523 20.5523 16.5 20 16.5H13L13.001 18H20C20.5523 18 21 18.4477 21 19C21 19.5523 20.5523 20 20 20H4C3.44772 20 3 19.5523 3 19C3 18.4477 3.44772 18 4 18H11.001L11 16.5H4C3.44772 16.5 3 16.0523 3 15.5C3 12.9438 3.818 10.5705 5.37988 8.82324C6.75988 7.27953 8.68017 6.27109 11.002 6.04688V4.5H10C9.44772 4.5 9 4.05228 9 3.5C9 2.94772 9.44772 2.5 10 2.5H14Z" fill="currentColor"/><path d="M18.5 6C18.7109 6 18.8999 6.13034 18.9756 6.32715L19.5654 7.86035C19.667 8.12433 19.8757 8.33299 20.1396 8.43457L21.6729 9.02441C21.8697 9.10011 22 9.28914 22 9.5C22 9.71086 21.8697 9.89989 21.6729 9.97559L20.1396 10.5654C19.8757 10.667 19.667 10.8757 19.5654 11.1396L18.9756 12.6729C18.8999 12.8697 18.7109 13 18.5 13C18.2891 13 18.1001 12.8697 18.0244 12.6729L17.4346 11.1396C17.333 10.8757 17.1243 10.667 16.8604 10.5654L15.3271 9.97559C15.1303 9.89989 15 9.71086 15 9.5C15 9.28914 15.1303 9.10011 15.3271 9.02441L16.8604 8.43457C17.1243 8.33299 17.333 8.12433 17.4346 7.86035L18.0244 6.32715C18.1001 6.13034 18.2891 6 18.5 6Z" fill="currentColor"/>
</svg>
