<svg xmlns="http://www.w3.org/2000/svg" viewBox="0 0 24 24" fill="none">
<path d="M4 19L20 19" stroke="currentColor" stroke-width="2" stroke-linecap="round" stroke-linejoin="round"/><path d="M12 15.5L12.002 19" stroke="currentColor" stroke-width="2" stroke-linecap="round" stroke-linejoin="round"/><path d="M10 3.5L14 3.5" stroke="currentColor" stroke-width="2" stroke-linecap="round" stroke-linejoin="round"/><path d="M19.5655 7.86018L18.9756 6.32667C18.8999 6.12986 18.7109 6 18.5 6C18.2891 6 18.1001 6.12986 18.0244 6.32667L17.4345 7.86018C17.333 8.12427 17.1243 8.33297 16.8602 8.43455L15.3267 9.02436C15.1299 9.10005 15 9.28914 15 9.5C15 9.71086 15.1299 9.89995 15.3267 9.97564L16.8602 10.5655C17.1243 10.667 17.333 10.8757 17.4345 11.1398L18.0244 12.6733C18.1001 12.8701 18.2891 13 18.5 13C18.7109 13 18.8999 12.8701 18.9756 12.6733L19.5655 11.1398C19.667 10.8757 19.8757 10.667 20.1398 10.5655L21.6733 9.97564C21.8701 9.89995 22 9.71086 22 9.5C22 9.28914 21.8701 9.10005 21.6733 9.02436L20.1398 8.43455C19.8757 8.33297 19.667 8.12427 19.5655 7.86018Z" fill="currentColor"/><path d="M20 15.5H4C4 10.8056 7 7 12 7V3.5" stroke="currentColor" stroke-width="2" stroke-linecap="round" stroke-linejoin="round"/>
</svg>
