<svg xmlns="http://www.w3.org/2000/svg" viewBox="0 0 24 24" fill="none">
<path d="M14 2.5C14.5523 2.5 15 2.94772 15 3.5C15 4.05228 14.5523 4.5 14 4.5H13.002V6.04688C15.322 6.27183 17.2409 7.28039 18.6201 8.82324C20.182 10.5705 21 12.9438 21 15.5C21 16.0523 20.5523 16.5 20 16.5H13L13.001 18H20C20.5523 18 21 18.4477 21 19C21 19.5523 20.5523 20 20 20H4C3.44772 20 3 19.5523 3 19C3 18.4477 3.44772 18 4 18H11.001L11 16.5H4C3.44772 16.5 3 16.0523 3 15.5C3 12.9438 3.818 10.5705 5.37988 8.82324C6.75988 7.27953 8.68017 6.27109 11.002 6.04688V4.5H10C9.44772 4.5 9 4.05228 9 3.5C9 2.94772 9.44772 2.5 10 2.5H14Z" fill="currentColor"/>
</svg>
