<svg xmlns="http://www.w3.org/2000/svg" viewBox="0 0 24 24" fill="none">
<path d="M9.00488 18C9.55703 17.9997 10.0053 18.4469 10.0059 18.999C10.0063 19.5513 9.55814 19.9996 9.00586 20H8.99414C8.44186 19.9996 7.99372 19.5513 7.99414 18.999C7.99468 18.4469 8.44297 17.9997 8.99512 18H9.00488Z" fill="currentColor"/><path d="M14.5469 14.292C14.7581 13.7817 15.3432 13.5389 15.8535 13.75C16.3638 13.9612 16.6057 14.5463 16.3945 15.0566C16.393 15.0604 16.3922 15.0646 16.3906 15.0684C16.1787 15.5783 15.593 15.8202 15.083 15.6084C14.5731 15.3965 14.3311 14.8107 14.543 14.3008C14.5442 14.2979 14.5457 14.2949 14.5469 14.292Z" fill="currentColor"/><path d="M15.999 10.9941C16.5513 10.9937 16.9996 11.4419 17 11.9941V12.0059C16.9996 12.5581 16.5513 13.0063 15.999 13.0059C15.4469 13.0053 14.9997 12.557 15 12.0049V11.9951C14.9997 11.443 15.4469 10.9947 15.999 10.9941Z" fill="currentColor"/><path d="M15.083 8.3916C15.593 8.17978 16.1787 8.42171 16.3906 8.93164C16.3922 8.93543 16.393 8.93956 16.3945 8.94336C16.6057 9.45366 16.3638 10.0388 15.8535 10.25C15.3432 10.4611 14.7581 10.2183 14.5469 9.70801C14.5457 9.70512 14.5442 9.7021 14.543 9.69922C14.3311 9.18925 14.5731 8.60354 15.083 8.3916Z" fill="currentColor"/><path fill-rule="evenodd" clip-rule="evenodd" d="M15 4C19.4183 4 23 7.58172 23 12C23 16.4183 19.4183 20 15 20C13.9377 20 12.9245 19.791 11.9971 19.415C11.5014 19.585 10.9531 19.3442 10.75 18.8535C10.7364 18.8206 10.7247 18.7873 10.7148 18.7539C8.48249 17.3346 7 14.8413 7 12C7 9.15853 8.48224 6.66439 10.7148 5.24512C10.7247 5.21199 10.7365 5.17911 10.75 5.14648C10.953 4.65585 11.5015 4.41425 11.9971 4.58398C12.9244 4.20811 13.9378 4 15 4ZM15 6C14.7044 6 14.414 6.0222 14.1299 6.06348C14.3212 6.09915 14.5042 6.19094 14.6523 6.33887C14.6553 6.34179 14.6582 6.34472 14.6611 6.34766C15.0513 6.73848 15.051 7.3715 14.6602 7.76172C14.2694 8.15191 13.6363 8.15147 13.2461 7.76074C13.2439 7.75853 13.2415 7.75612 13.2393 7.75391C12.8485 7.36368 12.8481 6.73064 13.2383 6.33984C13.2828 6.29525 13.3307 6.2561 13.3809 6.22168C10.8538 6.92832 9 9.24738 9 12C9 14.7525 10.8539 17.0706 13.3809 17.7773C13.3309 17.743 13.2827 17.7046 13.2383 17.6602C12.8481 17.2694 12.8485 16.6363 13.2393 16.2461C13.2415 16.2439 13.2439 16.2415 13.2461 16.2393C13.6363 15.8485 14.2694 15.8481 14.6602 16.2383C15.051 16.6285 15.0513 17.2615 14.6611 17.6523C14.6582 17.6553 14.6553 17.6582 14.6523 17.6611C14.5042 17.809 14.3212 17.8999 14.1299 17.9355C14.414 17.9768 14.7044 18 15 18C18.3137 18 21 15.3137 21 12C21 8.68629 18.3137 6 15 6Z" fill="currentColor"/><path d="M5.3916 18.083C5.60354 17.5731 6.18925 17.3311 6.69922 17.543C6.7021 17.5442 6.70512 17.5457 6.70801 17.5469C7.21826 17.7581 7.46114 18.3432 7.25 18.8535C7.03882 19.3638 6.45366 19.6057 5.94336 19.3945C5.93956 19.393 5.93543 19.3922 5.93164 19.3906C5.42171 19.1787 5.17978 18.593 5.3916 18.083Z" fill="currentColor"/><path d="M3.33984 16.2383C3.73064 15.8481 4.36368 15.8485 4.75391 16.2393C4.75612 16.2415 4.75853 16.2439 4.76074 16.2461C5.15147 16.6363 5.15191 17.2694 4.76172 17.6602C4.3715 18.051 3.73848 18.0513 3.34766 17.6611C3.34472 17.6582 3.34179 17.6553 3.33887 17.6523C2.94865 17.2615 2.94904 16.6285 3.33984 16.2383Z" fill="currentColor"/><path d="M2.14648 13.75C2.65677 13.5389 3.24193 13.7817 3.45312 14.292C3.45432 14.2949 3.45583 14.2979 3.45703 14.3008C3.6689 14.8107 3.42695 15.3965 2.91699 15.6084C2.40704 15.8202 1.82131 15.5783 1.60938 15.0684C1.6078 15.0646 1.60704 15.0604 1.60547 15.0566C1.39432 14.5463 1.6362 13.9612 2.14648 13.75Z" fill="currentColor"/><path d="M2.00098 10.9941C2.55312 10.9947 3.00035 11.443 3 11.9951V12.0049C3.00035 12.557 2.55312 13.0053 2.00098 13.0059C1.44869 13.0063 1.00043 12.5581 1 12.0059V11.9941C1.00043 11.4419 1.44869 10.9937 2.00098 10.9941Z" fill="currentColor"/><path d="M1.60938 8.93164C1.82131 8.42171 2.40704 8.17978 2.91699 8.3916C3.42695 8.60354 3.6689 9.18925 3.45703 9.69922C3.45583 9.7021 3.45432 9.70512 3.45312 9.70801C3.24193 10.2183 2.65677 10.4611 2.14648 10.25C1.6362 10.0388 1.39432 9.45366 1.60547 8.94336C1.60704 8.93956 1.6078 8.93543 1.60938 8.93164Z" fill="currentColor"/><path d="M3.34766 6.33887C3.73848 5.94865 4.3715 5.94904 4.76172 6.33984C5.15191 6.73064 5.15147 7.36368 4.76074 7.75391C4.75853 7.75612 4.75612 7.75853 4.75391 7.76074C4.36368 8.15147 3.73064 8.15191 3.33984 7.76172C2.94904 7.3715 2.94865 6.73848 3.33887 6.34766C3.34179 6.34472 3.34472 6.34179 3.34766 6.33887Z" fill="currentColor"/><path d="M5.94336 4.60547C6.45366 4.39432 7.03882 4.6362 7.25 5.14648C7.46114 5.65677 7.21826 6.24193 6.70801 6.45312C6.70512 6.45432 6.7021 6.45583 6.69922 6.45703C6.18925 6.6689 5.60354 6.42695 5.3916 5.91699C5.17978 5.40704 5.42171 4.82131 5.93164 4.60938C5.93543 4.6078 5.93956 4.60704 5.94336 4.60547Z" fill="currentColor"/><path d="M9.00586 4C9.55814 4.00043 10.0063 4.44869 10.0059 5.00098C10.0053 5.55312 9.55703 6.00035 9.00488 6H8.99512C8.44297 6.00035 7.99468 5.55312 7.99414 5.00098C7.99372 4.44869 8.44186 4.00043 8.99414 4H9.00586Z" fill="currentColor"/>
</svg>
