<svg xmlns="http://www.w3.org/2000/svg" viewBox="0 0 24 24" fill="none">
<path fill-rule="evenodd" clip-rule="evenodd" d="M17.5 2C18.8807 2 20 3.11929 20 4.5V20C20 21.1046 19.1046 22 18 22H6.75C5.23122 22 4 20.7688 4 19.25V6C4 3.79086 5.79086 2 8 2H17.5ZM6.75 18.5C6.33579 18.5 6 18.8358 6 19.25C6 19.6642 6.33579 20 6.75 20H18V18.5H6.75ZM6.75 15C6.33579 15 6 15.3358 6 15.75C6 16.1642 6.33579 16.5 6.75 16.5H18V15H6.75ZM9 6C8.44772 6 8 6.44772 8 7C8 7.55228 8.44772 8 9 8H15C15.5523 8 16 7.55228 16 7C16 6.44772 15.5523 6 15 6H9Z" fill="currentColor"/>
</svg>
