<svg xmlns="http://www.w3.org/2000/svg" viewBox="0 0 24 24" fill="none">
<path d="M19.2913 13.7656C19.4208 13.2289 19.9606 12.8991 20.4974 13.0283C21.0341 13.1579 21.365 13.6976 21.2356 14.2344C20.2305 18.4023 16.4782 21.4998 12.0003 21.5C9.2289 21.5 6.73612 20.3119 5.00029 18.4209V19.5C5.00029 20.0522 4.55248 20.4999 4.00029 20.5C3.448 20.5 3.00029 20.0523 3.00029 19.5V16C3.00029 15.4477 3.448 15 4.00029 15H7.50029C8.05248 15.0001 8.50029 15.4478 8.50029 16C8.50029 16.5522 8.05248 16.9999 7.50029 17H6.41045C7.78459 18.5352 9.78009 19.5 12.0003 19.5C15.533 19.4998 18.4977 17.0561 19.2913 13.7656Z" fill="currentColor"/><path d="M12.0003 8.5C12.5525 8.50011 13.0003 8.94778 13.0003 9.5V11H14.5003C15.0525 11.0001 15.5003 11.4478 15.5003 12C15.5003 12.5522 15.0525 12.9999 14.5003 13H13.0003V14.5C13.0003 15.0522 12.5525 15.4999 12.0003 15.5C11.448 15.5 11.0003 15.0523 11.0003 14.5V13H9.50029C8.948 13 8.50029 12.5523 8.50029 12C8.50029 11.4477 8.948 11 9.50029 11H11.0003V9.5C11.0003 8.94772 11.448 8.5 12.0003 8.5Z" fill="currentColor"/><path d="M12.0003 2.5C14.7715 2.50014 17.2648 3.68725 19.0003 5.57812V4.5C19.0003 3.94772 19.448 3.5 20.0003 3.5C20.5525 3.50011 21.0003 3.94778 21.0003 4.5V8C21.0003 8.55222 20.5525 8.99989 20.0003 9H16.5003C15.948 9 15.5003 8.55228 15.5003 8C15.5003 7.44772 15.948 7 16.5003 7H17.5862C16.2122 5.46572 14.2196 4.50014 12.0003 4.5C8.46732 4.5 5.50191 6.94376 4.7083 10.2344C4.57882 10.7712 4.03906 11.101 3.50224 10.9717C2.96537 10.8422 2.63546 10.3025 2.76494 9.76562C3.77018 5.59757 7.52222 2.5 12.0003 2.5Z" fill="currentColor"/>
</svg>
