<svg width="24" height="24" viewBox="0 0 24 24" fill="none" xmlns="http://www.w3.org/2000/svg">
<path fill-rule="evenodd" clip-rule="evenodd" d="M2.25017 3.33839C2.61558 2.92427 3.24751 2.88477 3.66163 3.25017L20.6616 18.2502C21.0758 18.6156 21.1153 19.2475 20.7498 19.6616C20.3844 20.0758 19.7525 20.1153 19.3384 19.7498L11.8635 13.1544L10.9923 20.124C10.9238 20.6721 10.424 21.0608 9.87598 20.9923C9.32796 20.9238 8.93923 20.424 9.00773 19.876L10.0301 11.6971C10.0359 11.6503 10.045 11.6046 10.0569 11.5603L2.33839 4.74985C1.92427 4.38445 1.88477 3.75251 2.25017 3.33839ZM8.00001 4.00001C8.00001 3.44773 8.44773 3.00001 9.00001 3.00001H19C19.5523 3.00001 20 3.44773 20 4.00001C20 4.5523 19.5523 5.00001 19 5.00001H12.8828L12.6173 7.12405C12.5488 7.67207 12.049 8.06079 11.501 7.99229C10.953 7.92379 10.5642 7.424 10.6327 6.87598L10.8672 5.00001H9.00001C8.44773 5.00001 8.00001 4.5523 8.00001 4.00001Z" fill="currentColor" style="fill:currentColor;fill-opacity:1;"/>
</svg>
