<svg width="24" height="24" viewBox="0 0 24 24" fill="none" xmlns="http://www.w3.org/2000/svg">
<path d="M8.58579 3H7C4.79086 3 3 4.79086 3 7V8.58579L8.58579 3Z" fill="currentColor"/>
<path d="M3 11.4142V17C3 17.7418 3.20193 18.4365 3.55382 19.032L8.19005 14.3957C7.75291 13.702 7.5 12.8805 7.5 12C7.5 9.51472 9.51472 7.5 12 7.5C12.8805 7.5 13.702 7.75291 14.3957 8.19005L19.032 3.55382C18.4365 3.20193 17.7418 3 17 3H11.4142L3 11.4142Z" fill="currentColor"/>
<path d="M9.60426 15.81L4.96803 20.4462C5.56355 20.7981 6.25819 21 7 21H12.5858L21 12.5858V7C21 6.25819 20.7981 5.56355 20.4462 4.96803L15.81 9.60426C16.2471 10.298 16.5 11.1195 16.5 12C16.5 14.4853 14.4853 16.5 12 16.5C11.1195 16.5 10.298 16.2471 9.60426 15.81Z" fill="currentColor"/>
<path d="M17 21H15.4142L21 15.4142V17C21 19.2091 19.2091 21 17 21Z" fill="currentColor"/>
<path d="M9.5 12C9.5 10.6193 10.6193 9.5 12 9.5C13.3807 9.5 14.5 10.6193 14.5 12C14.5 13.3807 13.3807 14.5 12 14.5C10.6193 14.5 9.5 13.3807 9.5 12Z" fill="currentColor"/>
</svg>
