<svg xmlns="http://www.w3.org/2000/svg" viewBox="0 0 24 24" fill="none">
<path d="M12 2.5C17.2466 2.50016 21.5 6.7534 21.5 12C21.5 17.2466 17.2466 21.4998 12 21.5C7.52191 21.5 3.76987 18.4025 2.76465 14.2344C2.63517 13.6975 2.96508 13.1578 3.50195 13.0283C4.03883 12.8988 4.57851 13.2288 4.70801 13.7656C5.5016 17.0563 8.46701 19.5 12 19.5C16.142 19.4998 19.5 16.142 19.5 12C19.5 7.85796 16.142 4.50016 12 4.5C9.32981 4.5 6.98389 5.89541 5.6543 8H7.5C8.05228 8 8.5 8.44772 8.5 9C8.5 9.55228 8.05228 10 7.5 10H3.5C2.94772 10 2.5 9.55228 2.5 9V5C2.5 4.44772 2.94772 4 3.5 4C4.05228 4 4.5 4.44772 4.5 5V6.16797C6.2376 3.93677 8.95063 2.5 12 2.5Z" fill="currentColor"/><path d="M10 9.94043C10 9.33379 10.6826 8.97849 11.1797 9.32617L14.1221 11.3857C14.5486 11.6843 14.5486 12.3157 14.1221 12.6143L11.1797 14.6738C10.6826 15.0215 10 14.6662 10 14.0596V9.94043Z" fill="currentColor"/>
</svg>
