<svg width="24" height="24" viewBox="0 0 24 24" fill="none" xmlns="http://www.w3.org/2000/svg">
<path fill-rule="evenodd" clip-rule="evenodd" d="M3 7C3 4.79086 4.79086 3 7 3H17C19.2091 3 21 4.79086 21 7V17C21 19.2091 19.2091 21 17 21H7C4.79086 21 3 19.2091 3 17V7ZM12.6925 7.91495C12.4363 7.29898 11.5637 7.29898 11.3075 7.91495L10.655 9.4837C10.547 9.74337 10.3028 9.9208 10.0225 9.94328L8.32887 10.0791C7.66388 10.1324 7.39424 10.9622 7.90089 11.3962L9.19124 12.5016C9.40483 12.6845 9.49811 12.9716 9.43285 13.2452L9.03863 14.8978C8.88384 15.5468 9.58978 16.0597 10.1591 15.7119L11.6091 14.8263C11.8491 14.6797 12.1509 14.6797 12.3909 14.8263L13.8409 15.7119C14.4102 16.0597 15.1162 15.5468 14.9614 14.8978L14.5671 13.2452C14.5019 12.9716 14.5952 12.6845 14.8088 12.5016L16.0991 11.3962C16.6058 10.9622 16.3361 10.1324 15.6711 10.0791L13.9775 9.94328C13.6972 9.9208 13.453 9.74337 13.345 9.4837L12.6925 7.91495Z" fill="currentColor" style="fill:currentColor;fill-opacity:1;"/>
</svg>
