<svg xmlns="http://www.w3.org/2000/svg" viewBox="0 0 24 24" fill="none">
<path d="M10 16H8.5C6.29086 16 4.5 14.2091 4.5 12V7C4.5 5.34315 5.84315 4 7.5 4H16.5C18.1569 4 19.5 5.34315 19.5 7V12C19.5 14.2091 17.7091 16 15.5 16H14" stroke="currentColor" stroke-width="2" stroke-linejoin="round"/><circle cx="9.25" cy="8.25" r="1.5" fill="currentColor"/><circle cx="14.75" cy="8.25" r="1.5" fill="currentColor"/><path d="M12 4V2.5" stroke="currentColor" stroke-width="2" stroke-linecap="round" stroke-linejoin="round"/><path d="M4.5 7C3.94772 7 3.5 7.44772 3.5 8V9C3.5 9.55228 3.94772 10 4.5 10" stroke="currentColor" stroke-width="2" stroke-linecap="round" stroke-linejoin="round"/><path d="M19.5 7C20.0523 7 20.5 7.44772 20.5 8V9C20.5 9.55228 20.0523 10 19.5 10" stroke="currentColor" stroke-width="2" stroke-linecap="round" stroke-linejoin="round"/><path d="M9.25 12.5C11.1469 11.8333 12.8531 11.8333 14.75 12.5" stroke="currentColor" stroke-width="1.6" stroke-linecap="round" stroke-linejoin="round"/><path d="M4.95003 19.7851C4.65188 20.212 3.05646 19.912 2.54004 19.6656C2.02362 19.4191 1.84668 18.8733 2.14484 18.4464C2.44299 18.0195 3.10334 17.8733 3.61976 18.1197C4.13619 18.3662 5.24819 19.3583 4.95003 19.7851Z" fill="currentColor"/><path d="M19.05 19.7851C19.3481 20.212 20.9435 19.912 21.46 19.6656C21.9764 19.4191 22.1533 18.8733 21.8552 18.4464C21.557 18.0195 20.8967 17.8733 20.3802 18.1197C19.8638 18.3662 18.7518 19.3583 19.05 19.7851Z" fill="currentColor"/><path d="M13.5002 12.5L14.3445 17.9205C14.3677 18.1063 14.5115 18.2535 14.6957 18.2875C16.1045 18.5482 17.0395 19.0076 17.0395 19.5302C17.0395 20.3419 14.7834 21 12.0002 21C9.21711 21 6.96094 20.3419 6.96094 19.5302C6.96094 19.0077 7.89565 18.5482 9.30408 18.2875C9.48817 18.2535 9.63192 18.1063 9.65516 17.9206L10.5002 12.5" stroke="currentColor" stroke-width="1.9"/>
</svg>
