<svg xmlns="http://www.w3.org/2000/svg" viewBox="0 0 24 24" fill="none">
<path fill-rule="evenodd" clip-rule="evenodd" d="M12 2C12.5523 2 13 2.44772 13 3V4.00781C13.7364 4.01538 14.473 4.02846 15.21 4.05273C17.041 4.11304 18.2902 4.12992 19.3721 4.71289C20.2532 5.18775 21.0319 5.99238 21.4775 6.88867C21.7636 7.46419 21.8863 8.06905 21.9443 8.75488C21.9511 8.83465 21.9538 8.9169 21.959 9.00098C21.9726 9.00043 21.9863 9 22 9C22.5523 9 23 9.44772 23 10V13C23 13.5523 22.5523 14 22 14C21.9977 14 21.9954 13.999 21.9932 13.999C21.9871 14.4639 21.9754 14.8771 21.9443 15.2451C21.8863 15.931 21.7636 16.5358 21.4775 17.1113C21.0319 18.0077 20.2533 18.8122 19.3721 19.2871C18.2902 19.8702 17.0411 19.887 15.21 19.9473C13.0688 20.0178 10.9312 20.0178 8.79004 19.9473C6.95891 19.887 5.70983 19.8701 4.62793 19.2871C3.74675 18.8122 2.96808 18.0077 2.52246 17.1113C2.23641 16.5358 2.11369 15.931 2.05566 15.2451C2.02456 14.8771 2.01191 14.4639 2.00586 13.999L2 14C1.44772 14 1 13.5523 1 13V10C1 9.44772 1.44772 9 2 9C2.01341 9 2.02676 9.00045 2.04004 9.00098C2.04525 8.91688 2.04892 8.83467 2.05566 8.75488C2.11371 8.06905 2.23636 7.46419 2.52246 6.88867C2.96812 5.99238 3.74678 5.18775 4.62793 4.71289C5.70981 4.12991 6.95897 4.11304 8.79004 4.05273C9.52702 4.02846 10.2636 4.01538 11 4.00781V3C11 2.44772 11.4477 2 12 2ZM9.25 9.25C8.5597 9.25 8.00008 9.80971 8 10.5V12C8 12.6904 8.55964 13.25 9.25 13.25C9.94036 13.25 10.5 12.6904 10.5 12V10.5C10.4999 9.80971 9.9403 9.25 9.25 9.25ZM14.75 9.25C14.0597 9.25 13.5001 9.80971 13.5 10.5V12C13.5 12.6904 14.0596 13.25 14.75 13.25C15.4404 13.25 16 12.6904 16 12V10.5C15.9999 9.80971 15.4403 9.25 14.75 9.25Z" fill="currentColor"/>
</svg>
