<svg xmlns="http://www.w3.org/2000/svg" viewBox="0 0 24 24" fill="none">
<path fill-rule="evenodd" clip-rule="evenodd" d="M12 2C12.9665 2 13.75 2.7835 13.75 3.75C13.75 4.42795 13.3636 5.01407 12.7998 5.30469V6.00586C13.267 6.01135 13.7359 6.02007 14.21 6.03516C16.038 6.09334 17.2853 6.1091 18.3682 6.69141C19.2499 7.1657 20.0306 7.97181 20.4766 8.86816C20.6868 9.29094 20.8077 9.73028 20.8809 10.2061C21.5433 10.5319 22 11.2119 22 12V13C22 13.7418 21.5949 14.3871 20.9951 14.7324C20.991 15.3138 20.9814 15.8192 20.9443 16.2598C20.8863 16.9485 20.7633 17.5554 20.4766 18.1318C20.0306 19.0282 19.2499 19.8343 18.3682 20.3086C17.2853 20.8909 16.0379 20.9067 14.21 20.9648C12.7201 21.0123 11.2799 21.0123 9.79004 20.9648C7.96206 20.9067 6.71473 20.8909 5.63184 20.3086C4.75014 19.8343 3.96945 19.0282 3.52344 18.1318C3.23669 17.5554 3.11369 16.9485 3.05566 16.2598C3.01856 15.8192 3.00803 15.3138 3.00391 14.7324C2.40449 14.387 2 13.7415 2 13V12C2 11.2122 2.45616 10.5321 3.11816 10.2061C3.19128 9.73022 3.31313 9.29098 3.52344 8.86816C3.96943 7.97181 4.75013 7.1657 5.63184 6.69141C6.71474 6.1091 7.96203 6.09334 9.79004 6.03516C10.2641 6.02007 10.733 6.01135 11.2002 6.00586V5.30469C10.6364 5.01407 10.25 4.42795 10.25 3.75C10.25 2.7835 11.0335 2 12 2ZM9.5 10.25C8.80965 10.25 8.25 10.8096 8.25 11.5V13C8.25008 13.6903 8.8097 14.25 9.5 14.25C10.1903 14.25 10.7499 13.6903 10.75 13V11.5C10.75 10.8096 10.1904 10.25 9.5 10.25ZM14.5 10.25C13.8096 10.25 13.25 10.8096 13.25 11.5V13C13.2501 13.6903 13.8097 14.25 14.5 14.25C15.1903 14.25 15.7499 13.6903 15.75 13V11.5C15.75 10.8096 15.1904 10.25 14.5 10.25Z" fill="currentColor"/>
</svg>
