<svg xmlns="http://www.w3.org/2000/svg" viewBox="0 0 24 24" fill="none">
<path d="M13.6217 12.5C13.8737 12.5002 14.0865 12.6884 14.1178 12.9385L14.7916 18.333C14.8193 18.5542 14.9905 18.7299 15.2096 18.7705C16.887 19.0809 18.0006 19.6278 18.0006 20.25C18.0006 21.2165 15.3142 22 12.0006 22C8.68701 22 6.00061 21.2165 6.00061 20.25C6.00061 19.628 7.11313 19.081 8.78968 18.7705C9.00885 18.7299 9.18094 18.5542 9.20862 18.333L9.88343 12.9375C9.91493 12.6876 10.1276 12.5001 10.3795 12.5H13.6217Z" fill="currentColor"/><path d="M2.14514 18.4463C2.44327 18.0196 3.1034 17.8739 3.61975 18.1201C4.13609 18.3665 5.24846 19.3582 4.95081 19.7852C4.65254 20.2118 3.05748 19.9124 2.54065 19.666C2.02442 19.4195 1.84713 18.8731 2.14514 18.4463Z" fill="currentColor"/><path d="M20.3805 18.1201C20.8968 17.8737 21.5568 18.0197 21.8551 18.4463C22.1532 18.8731 21.9769 19.4195 21.4606 19.666C20.944 19.9124 19.3487 20.2119 19.0504 19.7852C18.7526 19.3583 19.864 18.3669 20.3805 18.1201Z" fill="currentColor"/><path fill-rule="evenodd" clip-rule="evenodd" d="M12.0006 1.5C12.5528 1.50017 13.0006 1.94782 13.0006 2.5V3H16.5006C18.4449 3.00015 20.0641 4.38778 20.4244 6.22656C21.0637 6.56035 21.5006 7.22894 21.5006 8V9C21.5006 9.73966 21.0976 10.3835 20.5006 10.7295V12C20.5006 14.5479 18.5943 16.649 16.1305 16.959L15.6764 13.3145L15.6715 13.2803C15.9519 13.2184 16.1904 13.0088 16.2721 12.7129C16.3895 12.2872 16.1391 11.8462 15.7135 11.7285C13.1602 11.0235 10.8411 11.0235 8.28772 11.7285C7.86203 11.8462 7.61167 12.2871 7.72913 12.7129C7.81078 13.0084 8.04873 13.2182 8.32874 13.2803L8.32483 13.3135L7.8678 16.959C5.40533 16.6478 3.50061 14.5469 3.50061 12V10.7305C2.90325 10.3845 2.50061 9.73996 2.50061 9V8C2.50061 7.22943 2.93627 6.56056 3.57483 6.22656C3.93509 4.38761 5.55616 3.00011 7.50061 3H11.0006V2.5C11.0006 1.94779 11.4484 1.50012 12.0006 1.5ZM9.25061 6.5C8.42229 6.50012 7.75061 7.17165 7.75061 8C7.75061 8.82835 8.42229 9.49988 9.25061 9.5C10.0789 9.49983 10.7506 8.82832 10.7506 8C10.7506 7.17168 10.0789 6.50017 9.25061 6.5ZM14.7506 6.5C13.9223 6.50012 13.2506 7.17165 13.2506 8C13.2506 8.82835 13.9223 9.49988 14.7506 9.5C15.5789 9.49983 16.2506 8.82832 16.2506 8C16.2506 7.17168 15.5789 6.50017 14.7506 6.5Z" fill="currentColor"/>
</svg>
