<svg xmlns="http://www.w3.org/2000/svg" viewBox="0 0 24 24" fill="none">
<path d="M4 13.2537C4 11.1879 4 10.155 4.4188 9.31324C4.77266 8.60204 5.40553 7.94871 6.10511 7.5724C6.93307 7.12703 7.89616 7.09638 9.82233 7.03506C11.291 6.98831 12.709 6.98831 14.1777 7.03506C16.1038 7.09638 17.0669 7.12703 17.8949 7.5724C18.5945 7.94871 19.2273 8.60204 19.5812 9.31324C20 10.155 20 11.1879 20 13.2537V13.7463C20 15.8121 20 16.845 19.5812 17.6868C19.2273 18.398 18.5945 19.0513 17.8949 19.4276C17.0669 19.873 16.1038 19.9036 14.1777 19.9649C12.709 20.0117 11.291 20.0117 9.82233 19.9649C7.89616 19.9036 6.93307 19.873 6.10511 19.4276C5.40553 19.0513 4.77266 18.398 4.4188 17.6868C4 16.845 4 15.8121 4 13.7463V13.2537Z" stroke="currentColor" stroke-width="2"/><path d="M9.75 13V11.5C9.75 11.3619 9.63807 11.25 9.5 11.25C9.36193 11.25 9.25 11.3619 9.25 11.5V13C9.25 13.1381 9.36193 13.25 9.5 13.25C9.63807 13.25 9.75 13.1381 9.75 13Z" stroke="currentColor" stroke-width="2"/><path d="M14.75 13V11.5C14.75 11.3619 14.6381 11.25 14.5 11.25C14.3619 11.25 14.25 11.3619 14.25 11.5V13C14.25 13.1381 14.3619 13.25 14.5 13.25C14.6381 13.25 14.75 13.1381 14.75 13Z" stroke="currentColor" stroke-width="2"/><path d="M4 11C3.44772 11 3 11.4477 3 12V13C3 13.5523 3.44772 14 4 14" stroke="currentColor" stroke-width="2" stroke-linejoin="round"/><path d="M20 11C20.5523 11 21 11.4477 21 12V13C21 13.5523 20.5523 14 20 14" stroke="currentColor" stroke-width="2" stroke-linejoin="round"/><path d="M12 7V3" stroke="currentColor" stroke-width="1.6"/><circle cx="12" cy="3.75" r="1.75" fill="currentColor"/>
</svg>
