<svg xmlns="http://www.w3.org/2000/svg" viewBox="0 0 24 24" fill="none">
<path fill-rule="evenodd" clip-rule="evenodd" d="M18.3313 2C18.7435 2 19.1231 2.22515 19.3205 2.58691L21.3791 6.36035C21.7359 7.01449 21.5582 7.83118 20.9621 8.27832L20.7424 8.44336C20.2879 8.78425 19.6793 8.83905 19.1711 8.58496L18.0002 8L17.0002 10L19.3635 18.0352C19.734 17.8375 20.1055 17.6256 20.4768 17.3975C20.9473 17.1086 21.5637 17.2562 21.8528 17.7266C22.1417 18.1971 21.9942 18.8135 21.5237 19.1025C18.4078 21.0167 15.2207 22 12.0002 22C8.77985 21.9999 5.59268 21.0167 2.47679 19.1025C2.00657 18.8135 1.85898 18.197 2.14769 17.7266C2.43668 17.2562 3.05316 17.1088 3.52367 17.3975C3.88705 17.6207 4.25091 17.8284 4.61351 18.0225L6.52367 10H6.00023C4.89591 10.0002 4.00023 10.8956 4.00023 12C4.00017 12.5522 3.55248 13 3.00023 13C2.44817 12.9998 2.0003 12.5521 2.00023 12C2.00023 9.79106 3.79134 8.00021 6.00023 8H12.0002L12.6311 6.1084C13.4491 3.65502 15.7451 2.0002 18.3313 2ZM12.0002 15C10.8133 15.0002 9.76708 15.7791 9.42601 16.916L8.62426 19.584C9.7548 19.8605 10.8799 20 12.0002 20C13.1202 20 14.2451 19.8603 15.3752 19.584L14.5754 16.916C14.2343 15.779 13.1873 15 12.0002 15Z" fill="currentColor"/>
</svg>
