<svg width="24" height="24" viewBox="0 0 24 24" fill="none" xmlns="http://www.w3.org/2000/svg">
<path d="M13 5C13 4.44772 13.4477 4 14 4H14.0406C15.9473 4 17.589 5.34584 17.9629 7.21554L19.1312 13.0568C20.7629 13.3539 22 14.7825 22 16.5C22 18.433 20.433 20 18.5 20C16.9145 20 15.5752 18.9457 15.1449 17.5H8.85506C8.42479 18.9457 7.08551 20 5.5 20C3.567 20 2 18.433 2 16.5C2 14.567 3.567 13 5.5 13C7.08551 13 8.42479 14.0543 8.85506 15.5H15.1449C15.4438 14.4957 16.1814 13.6803 17.1354 13.276L16.0017 7.60777C15.8148 6.67292 14.9939 6 14.0406 6H14C13.4477 6 13 5.55228 13 5Z" fill="currentColor" style="fill:currentColor;fill-opacity:1;"/>
</svg>
