<svg width="24" height="24" viewBox="0 0 24 24" fill="none" xmlns="http://www.w3.org/2000/svg">
<path d="M12 10.5C11.1716 10.5 10.5 11.1716 10.5 12C10.5 12.8284 11.1716 13.5 12 13.5C12.8284 13.5 13.5 12.8284 13.5 12C13.5 11.1716 12.8284 10.5 12 10.5Z" fill="currentColor" style="fill:currentColor;fill-opacity:1;"/>
<path fill-rule="evenodd" clip-rule="evenodd" d="M7 3C4.79086 3 3 4.79086 3 7C2.44772 7 2 7.44772 2 8C2 8.55228 2.44772 9 3 9V15C2.44772 15 2 15.4477 2 16C2 16.5523 2.44772 17 3 17C3 19.2091 4.79086 21 7 21H17C19.2091 21 21 19.2091 21 17V7C21 4.79086 19.2091 3 17 3H7ZM10.3349 8.92069C10.8301 8.65237 11.3972 8.5 12 8.5C12.6028 8.5 13.1699 8.65237 13.6651 8.92069L14.7929 7.79289C15.1834 7.40237 15.8166 7.40237 16.2071 7.79289C16.5976 8.18342 16.5976 8.81658 16.2071 9.20711L15.0793 10.3349C15.3476 10.8301 15.5 11.3972 15.5 12C15.5 12.6028 15.3476 13.1699 15.0793 13.6651L16.2071 14.7929C16.5976 15.1834 16.5976 15.8166 16.2071 16.2071C15.8166 16.5976 15.1834 16.5976 14.7929 16.2071L13.6651 15.0793C13.1699 15.3476 12.6028 15.5 12 15.5C11.3972 15.5 10.8301 15.3476 10.3349 15.0793L9.20711 16.2071C8.81658 16.5976 8.18342 16.5976 7.79289 16.2071C7.40237 15.8166 7.40237 15.1834 7.79289 14.7929L8.92069 13.6651C8.65237 13.1699 8.5 12.6028 8.5 12C8.5 11.3972 8.65237 10.8301 8.92069 10.3349L7.79289 9.20711C7.40237 8.81658 7.40237 8.18342 7.79289 7.79289C8.18342 7.40237 8.81658 7.40237 9.20711 7.79289L10.3349 8.92069Z" fill="currentColor" style="fill:currentColor;fill-opacity:1;"/>
</svg>
