<svg xmlns="http://www.w3.org/2000/svg" viewBox="0 0 24 24" fill="none">
<path d="M20 5C20.5523 5 21 5.44772 21 6C21 6.55228 20.5523 7 20 7C18.4264 7 17.2235 7.61297 16.1416 8.61035C15.5024 9.19961 14.9227 9.90739 14.3477 10.6904C16.0223 12.0316 17.7161 13 20 13C20.5523 13 21 13.4477 21 14C21 14.5523 20.5523 15 20 15C17.1339 15 15.0074 13.7676 13.1963 12.333C13.1441 12.4095 13.0917 12.4863 13.0391 12.5635C12.7421 12.9986 12.434 13.445 12.1133 13.8926C12.2529 13.9793 12.3916 14.0655 12.5293 14.1514C14.9642 15.6686 17.1403 17 20 17C20.5523 17 21 17.4477 21 18C21 18.5523 20.5523 19 20 19C16.4892 19 13.8503 17.3313 11.4707 15.8486C11.2728 15.7253 11.0758 15.6046 10.8809 15.4844C9.2292 17.413 7.12381 19 4 19C3.44772 19 3 18.5523 3 18C3 17.4477 3.44772 17 4 17C6.19937 17 7.74347 15.9855 9.11914 14.4541C7.5306 13.6008 5.91958 13 4 13C3.44772 13 3 12.5523 3 12C3 11.4477 3.44772 11 4 11C6.49616 11 8.55092 11.8448 10.3857 12.8652C10.7177 12.409 11.0503 11.931 11.3877 11.4365C11.4787 11.3032 11.5709 11.1693 11.6631 11.0342C11.5542 10.9382 11.4452 10.8438 11.3379 10.749C9.03961 8.71869 7.04343 7 4 7C3.44772 7 3 6.55228 3 6C3 5.44772 3.44772 5 4 5C7.90071 5 10.4326 7.2814 12.6621 9.25098C12.715 9.29772 12.7687 9.34326 12.8213 9.38965C13.4217 8.58114 14.0662 7.8025 14.7852 7.13965C16.1438 5.8871 17.8108 5 20 5Z" fill="currentColor"/>
</svg>
