<svg xmlns="http://www.w3.org/2000/svg" viewBox="0 0 24 24" fill="none">
<path d="M4 3C4.55228 3 5 3.44772 5 4V17C5 18.1046 5.89543 19 7 19H20C20.5523 19 21 19.4477 21 20C21 20.5523 20.5523 21 20 21H7C4.79086 21 3 19.2091 3 17V4C3 3.44772 3.44772 3 4 3Z" fill="currentColor"/><path d="M19 5C19.5523 5 20 5.44772 20 6C20 6.55228 19.5523 7 19 7C16.8246 7 15.3944 8.2187 13.6621 9.74902C13.5838 9.81821 13.5036 9.88668 13.4238 9.95703C13.5379 10.0905 13.6517 10.2218 13.7627 10.3525C13.9254 10.5442 14.0861 10.7315 14.2441 10.915C15.5119 9.85648 17.0312 9 19 9C19.5523 9 20 9.44772 20 10C20 10.5523 19.5523 11 19 11C17.6809 11 16.6351 11.5391 15.6094 12.3838C15.8276 12.591 16.0486 12.7842 16.2754 12.9609C17.1169 13.6168 17.9816 14 19 14C19.5523 14 20 14.4477 20 15C20 15.5523 19.5523 16 19 16C17.4146 16 16.1288 15.383 15.0459 14.5391C14.7355 14.2971 14.4388 14.0314 14.1514 13.7539C14.0091 13.8984 13.8642 14.0454 13.7178 14.1963C12.0768 15.8876 10.0927 18 7 18C6.44771 18 6 17.5523 6 17C6 16.4477 6.44771 16 7 16C9.11546 16 10.5273 14.6124 12.2822 12.8037C12.446 12.635 12.6128 12.4617 12.7842 12.2871C12.5979 12.0714 12.4155 11.8573 12.2373 11.6475C12.1178 11.5067 11.9987 11.3689 11.8818 11.2324C10.5789 12.2004 9.02905 13 7 13C6.44771 13 6 12.5523 6 12C6 11.4477 6.44771 11 7 11C8.38752 11 9.4705 10.5023 10.5234 9.74609C10.2617 9.4897 9.99778 9.25198 9.72461 9.03906C8.88311 8.3832 8.01839 8 7 8C6.44772 8 6 7.55228 6 7C6 6.44772 6.44772 6 7 6C8.58544 6 9.87124 6.61703 10.9541 7.46094C11.3488 7.7686 11.7237 8.1125 12.082 8.47363C12.1662 8.39972 12.2524 8.32652 12.3379 8.25098C14.0014 6.7814 15.9673 5 19 5Z" fill="currentColor"/>
</svg>
