<svg xmlns="http://www.w3.org/2000/svg" viewBox="0 0 24 24" fill="none">
<path d="M4 15C4.55228 15 5 15.4477 5 16V17C5 18.1046 5.89543 19 7 19H8C8.55228 19 9 19.4477 9 20C9 20.5523 8.55228 21 8 21H7C4.79086 21 3 19.2091 3 17V16C3 15.4477 3.44772 15 4 15Z" fill="currentColor"/><path d="M20 15C20.5523 15 21 15.4477 21 16V17C21 19.2091 19.2091 21 17 21H16C15.4477 21 15 20.5523 15 20C15 19.4477 15.4477 19 16 19H17C18.1046 19 19 18.1046 19 17V16C19 15.4477 19.4477 15 20 15Z" fill="currentColor"/><path d="M10.3301 7.09961C10.8271 7.09961 11.2305 7.50294 11.2305 8V16C11.2305 16.4971 10.8271 16.9004 10.3301 16.9004C9.83302 16.9004 9.42969 16.4971 9.42969 16V8C9.42969 7.50294 9.83302 7.09961 10.3301 7.09961Z" fill="currentColor"/><path d="M17 8.59961C17.4971 8.59961 17.9004 9.00294 17.9004 9.5V14.5C17.9004 14.9971 17.4971 15.4004 17 15.4004C16.5029 15.4004 16.0996 14.9971 16.0996 14.5V9.5C16.0996 9.00294 16.5029 8.59961 17 8.59961Z" fill="currentColor"/><path d="M7 10.0996C7.49706 10.0996 7.90039 10.5029 7.90039 11V13C7.90039 13.4971 7.49706 13.9004 7 13.9004C6.50294 13.9004 6.09961 13.4971 6.09961 13V11C6.09961 10.5029 6.50294 10.0996 7 10.0996Z" fill="currentColor"/><path d="M13.6699 10.0996C14.167 10.0996 14.5703 10.5029 14.5703 11V13C14.5703 13.4971 14.167 13.9004 13.6699 13.9004C13.1729 13.9004 12.7695 13.4971 12.7695 13V11C12.7695 10.5029 13.1729 10.0996 13.6699 10.0996Z" fill="currentColor"/><path d="M8 3C8.55228 3 9 3.44772 9 4C9 4.55228 8.55228 5 8 5H7C5.89543 5 5 5.89543 5 7V8C5 8.55228 4.55228 9 4 9C3.44772 9 3 8.55228 3 8V7C3 4.79086 4.79086 3 7 3H8Z" fill="currentColor"/><path d="M17 3C19.2091 3 21 4.79086 21 7V8C21 8.55228 20.5523 9 20 9C19.4477 9 19 8.55228 19 8V7C19 5.89543 18.1046 5 17 5H16C15.4477 5 15 4.55228 15 4C15 3.44772 15.4477 3 16 3H17Z" fill="currentColor"/>
</svg>
