<svg xmlns="http://www.w3.org/2000/svg" viewBox="0 0 24 24" fill="none">
<path d="M4 15C4.55228 15 5 15.4477 5 16V17C5 18.1046 5.89543 19 7 19H8C8.55228 19 9 19.4477 9 20C9 20.5523 8.55228 21 8 21H7C4.79086 21 3 19.2091 3 17V16C3 15.4477 3.44772 15 4 15Z" fill="currentColor"/><path d="M13 13C13.5523 13 14 13.4477 14 14C14 14.5523 13.5523 15 13 15H9C8.44772 15 8 14.5523 8 14C8 13.4477 8.44772 13 9 13H13Z" fill="currentColor"/><path d="M15 9C15.5523 9 16 9.44772 16 10C16 10.5523 15.5523 11 15 11H9C8.44772 11 8 10.5523 8 10C8 9.44772 8.44772 9 9 9H15Z" fill="currentColor"/><path d="M8 3C8.55228 3 9 3.44772 9 4C9 4.55228 8.55228 5 8 5H7C5.89543 5 5 5.89543 5 7V8C5 8.55228 4.55228 9 4 9C3.44772 9 3 8.55228 3 8V7C3 4.79086 4.79086 3 7 3H8Z" fill="currentColor"/><path d="M17 3C19.2091 3 21 4.79086 21 7V8C21 8.55228 20.5523 9 20 9C19.4477 9 19 8.55228 19 8V7C19 5.89543 18.1046 5 17 5H16C15.4477 5 15 4.55228 15 4C15 3.44772 15.4477 3 16 3H17Z" fill="currentColor"/><path d="M19.2405 16.1852L18.5436 14.3733C18.4571 14.1484 18.241 14 18 14C17.759 14 17.5429 14.1484 17.4564 14.3733L16.7595 16.1852C16.658 16.4493 16.4493 16.658 16.1852 16.7595L14.3733 17.4564C14.1484 17.5429 14 17.759 14 18C14 18.241 14.1484 18.4571 14.3733 18.5436L16.1852 19.2405C16.4493 19.342 16.658 19.5507 16.7595 19.8148L17.4564 21.6267C17.5429 21.8516 17.759 22 18 22C18.241 22 18.4571 21.8516 18.5436 21.6267L19.2405 19.8148C19.342 19.5507 19.5507 19.342 19.8148 19.2405L21.6267 18.5436C21.8516 18.4571 22 18.241 22 18C22 17.759 21.8516 17.5429 21.6267 17.4564L19.8148 16.7595C19.5507 16.658 19.342 16.4493 19.2405 16.1852Z" fill="currentColor"/>
</svg>
