<svg width="24" height="24" viewBox="0 0 24 24" fill="none" xmlns="http://www.w3.org/2000/svg">
<path fill-rule="evenodd" clip-rule="evenodd" d="M10 4C7.79086 4 6 5.79086 6 8C3.79086 8 2 9.79086 2 12V18C1.44772 18 1 18.4477 1 19C1 19.5523 1.44772 20 2 20H22C22.5523 20 23 19.5523 23 19C23 18.4477 22.5523 18 22 18V12C22 9.79086 20.2091 8 18 8C18 5.79086 16.2091 4 14 4H10ZM6 18H4V12C4 10.8954 4.89543 10 6 10V18ZM20 18H18V10C19.1046 10 20 10.8954 20 12V18ZM12 15C10.8954 15 10 15.8954 10 17V18H14V17C14 15.8954 13.1046 15 12 15Z" fill="currentColor" style="fill:currentColor;fill-opacity:1;"/>
</svg>
