<svg xmlns="http://www.w3.org/2000/svg" viewBox="0 0 24 24" fill="none">
<path d="M12 16C13.1046 16 14 16.8954 14 18C14 19.28 14.803 20.3691 15.9316 20.7998C15.9721 20.8153 15.9999 20.8541 16 20.8975C16 20.954 15.954 21 15.8975 21H5C3.34315 21 2 19.6569 2 18C2 16.8954 2.89543 16 4 16H12Z" fill="currentColor"/><path d="M17.5039 3C17.1892 3.41817 17 3.93631 17 4.5V19C17 19.5522 16.5254 20.0209 16.041 19.7559C15.4207 19.4163 15 18.7571 15 18C15 16.3431 13.6569 15 12 15H5V11.9512C5.29128 12.1412 5.6362 12.25 6 12.25C6.7582 12.25 7.43778 11.7829 7.70996 11.0752L8.24805 9.67871C8.32423 9.48064 8.48064 9.32423 8.67871 9.24805L10.0752 8.70996C10.7829 8.43778 11.25 7.7582 11.25 7C11.25 6.2418 10.7829 5.56222 10.0752 5.29004L8.67871 4.75195C8.48064 4.67577 8.32423 4.51936 8.24805 4.32129L7.74316 3.01172C7.82785 3.00454 7.91346 3 8 3H17.5039Z" fill="currentColor"/><path d="M6 3C6.24094 3 6.4574 3.1482 6.54395 3.37305L7.08105 4.77051C7.2842 5.29855 7.70145 5.71579 8.22949 5.91895L9.62695 6.45605C9.8518 6.5426 10 6.75906 10 7C10 7.24094 9.8518 7.4574 9.62695 7.54395L8.22949 8.08105C7.70145 8.2842 7.28421 8.70145 7.08105 9.22949L6.54395 10.627C6.4574 10.8518 6.24094 11 6 11C5.75906 11 5.5426 10.8518 5.45605 10.627L4.91895 9.22949C4.71579 8.70145 4.29855 8.28421 3.77051 8.08105L2.37305 7.54395C2.1482 7.4574 2 7.24094 2 7C2 6.75906 2.1482 6.5426 2.37305 6.45605L3.77051 5.91895C4.29855 5.71579 4.71579 5.29855 4.91895 4.77051L5.45605 3.37305C5.5426 3.1482 5.75906 3 6 3Z" fill="currentColor"/><path d="M19.5 3C20.3284 3 21 3.67157 21 4.5V7C21 8.10457 20.1046 9 19 9H18V4.5C18 3.67157 18.6716 3 19.5 3Z" fill="currentColor"/>
</svg>
