<svg width="24" height="24" viewBox="0 0 24 24" fill="none" xmlns="http://www.w3.org/2000/svg">
<path fill-rule="evenodd" clip-rule="evenodd" d="M8 2C5.79086 2 4 3.79086 4 6V18C4 20.2091 5.79086 22 8 22H16C18.2091 22 20 20.2091 20 18V11.9083C20 11.1186 19.7662 10.3466 19.3282 9.68953L18.3359 8.20107C18.1169 7.87254 18 7.48652 18 7.09167V6C18 3.79086 16.2091 2 14 2H8ZM9 6C9.55228 6 10 6.44772 10 7V9C10 9.55228 9.55228 10 9 10C8.44772 10 8 9.55228 8 9V7C8 6.44772 8.44772 6 9 6ZM14 7C14 6.44772 13.5523 6 13 6C12.4477 6 12 6.44772 12 7V9C12 9.55228 12.4477 10 13 10C13.5523 10 14 9.55228 14 9V7Z" fill="currentColor" style="fill:currentColor;fill-opacity:1;"/>
</svg>
