<svg xmlns="http://www.w3.org/2000/svg" viewBox="0 0 24 24" fill="none">
<path fill-rule="evenodd" clip-rule="evenodd" d="M16 2C18.2091 2 20 3.79086 20 6V12.9502C19.5182 12.3601 18.7897 12 18 12C16.9981 12 16.0932 12.5784 15.668 13.4727L15.5898 13.6553L15.0518 15.0518L13.6553 15.5898C12.658 15.9735 12 16.9315 12 18C12 19.0685 12.658 20.0265 13.6553 20.4102L15.0518 20.9473L15.457 22H8C5.79086 22 4 20.2091 4 18V6C4 3.79086 5.79086 2 8 2H16ZM8 9C7.44772 9 7 9.44772 7 10C7 10.5523 7.44772 11 8 11H11C11.5523 11 12 10.5523 12 10C12 9.44772 11.5523 9 11 9H8ZM8 5C7.44772 5 7 5.44772 7 6C7 6.55228 7.44772 7 8 7H14C14.5523 7 15 6.55228 15 6C15 5.44772 14.5523 5 14 5H8Z" fill="currentColor"/><path d="M14.373 17.4561C14.345 17.4669 14.3185 17.4805 14.293 17.4951L14.292 17.4941C14.3176 17.4794 14.3449 17.4669 14.373 17.4561L14.8633 17.2666L16.1855 16.7598L14.373 17.4561Z" fill="currentColor"/><path d="M19.2405 16.1852L18.5436 14.3733C18.4571 14.1484 18.241 14 18 14C17.759 14 17.5429 14.1484 17.4564 14.3733L16.7595 16.1852C16.658 16.4493 16.4496 16.6582 16.1855 16.7598L14.373 17.4561C14.1481 17.5426 14 17.759 14 18C14 18.241 14.1484 18.4571 14.3733 18.5436L16.1852 19.2405C16.4493 19.342 16.658 19.5507 16.7595 19.8148L17.4564 21.6267C17.5429 21.8516 17.759 22 18 22C18.241 22 18.4571 21.8516 18.5436 21.6267L19.2405 19.8148C19.342 19.5507 19.5507 19.342 19.8148 19.2405L21.6267 18.5436C21.8516 18.4571 22 18.241 22 18C22 17.759 21.8516 17.5429 21.6267 17.4564L19.8148 16.7595C19.5507 16.658 19.342 16.4493 19.2405 16.1852Z" fill="currentColor"/>
</svg>
