<svg xmlns="http://www.w3.org/2000/svg" viewBox="0 0 24 24" fill="none">
<path d="M8.71484 3.33203C9.24417 3.1745 9.80045 3.47557 9.95801 4.00488C10.1155 4.53421 9.81447 5.09049 9.28516 5.24805C6.80608 5.98586 5.00007 8.28353 5 11C5 14.3137 7.68629 17 11 17C13.7166 17 16.0142 15.194 16.752 12.7148C16.9095 12.1855 17.4658 11.8846 17.9951 12.042C18.5244 12.1995 18.8264 12.7559 18.6689 13.2852C18.3828 14.2467 17.9191 15.1314 17.3184 15.9043L20.707 19.293C21.0974 19.6835 21.0975 20.3166 20.707 20.707C20.3166 21.0974 19.6835 21.0973 19.293 20.707L15.9043 17.3184C14.5499 18.3712 12.8491 19 11 19C6.58172 19 3 15.4183 3 11C3.00007 7.37458 5.41106 4.3153 8.71484 3.33203Z" fill="currentColor"/><path d="M16 2C16.2409 2 16.4574 2.1482 16.5439 2.37305L17.2402 4.18555C17.3418 4.44944 17.5506 4.65819 17.8145 4.75977L19.627 5.45605C19.8518 5.5426 20 5.75906 20 6C20 6.24094 19.8518 6.4574 19.627 6.54395L17.8145 7.24023C17.5506 7.34181 17.3418 7.55056 17.2402 7.81445L16.5439 9.62695C16.4574 9.8518 16.2409 10 16 10C15.7591 10 15.5426 9.8518 15.4561 9.62695L14.7598 7.81445C14.6582 7.55056 14.4494 7.34181 14.1855 7.24023L12.373 6.54395C12.1482 6.4574 12 6.24094 12 6C12 5.75906 12.1482 5.5426 12.373 5.45605L14.1855 4.75977C14.4494 4.65819 14.6582 4.44944 14.7598 4.18555L15.4561 2.37305C15.5426 2.1482 15.7591 2 16 2Z" fill="currentColor"/>
</svg>
