<svg xmlns="http://www.w3.org/2000/svg" viewBox="0 0 24 24" fill="none">
<path d="M13.5625 19.8477C14.1042 19.7405 14.6301 20.093 14.7373 20.6348C14.8444 21.1765 14.4919 21.7024 13.9502 21.8096C13.3186 21.9345 12.6665 22 12 22C11.3335 22 10.6814 21.9345 10.0498 21.8096C9.50806 21.7024 9.15558 21.1765 9.2627 20.6348C9.36987 20.093 9.89576 19.7405 10.4375 19.8477C10.942 19.9475 11.4644 20 12 20C12.5356 20 13.058 19.9475 13.5625 19.8477ZM3.95996 16.1699C4.41888 15.8628 5.03945 15.9854 5.34668 16.4443C5.93103 17.3172 6.68282 18.069 7.55566 18.6533C8.01455 18.9606 8.13724 19.5811 7.83008 20.04C7.5229 20.4989 6.90226 20.6224 6.44336 20.3154C5.35328 19.5856 4.41436 18.6467 3.68457 17.5566C3.3776 17.0977 3.50114 16.4771 3.95996 16.1699ZM18.6533 16.4443C18.9606 15.9854 19.5811 15.8628 20.04 16.1699C20.4989 16.4771 20.6224 17.0977 20.3154 17.5566C19.5856 18.6467 18.6467 19.5856 17.5566 20.3154C17.0977 20.6224 16.4771 20.4989 16.1699 20.04C15.8628 19.5811 15.9854 18.9605 16.4443 18.6533C17.3172 18.069 18.069 17.3172 18.6533 16.4443ZM2 12C2 11.3335 2.06551 10.6814 2.19043 10.0498C2.2976 9.50806 2.82349 9.15558 3.36523 9.2627C3.90698 9.36987 4.25945 9.89576 4.15234 10.4375C4.05254 10.942 4 11.4644 4 12C4 12.5356 4.05254 13.058 4.15234 13.5625C4.25945 14.1042 3.90698 14.6301 3.36523 14.7373C2.82349 14.8444 2.2976 14.4919 2.19043 13.9502C2.06551 13.3186 2 12.6665 2 12ZM20 12C20 11.3139 19.8942 10.7349 19.7178 10.248C19.5296 9.72883 19.7982 9.155 20.3174 8.9668C20.8364 8.77886 21.4094 9.04745 21.5977 9.56641C21.8614 10.2939 22 11.1063 22 12C22 12.6665 21.9345 13.3186 21.8096 13.9502C21.7024 14.4919 21.1765 14.8444 20.6348 14.7373C20.093 14.6301 19.7405 14.1042 19.8477 13.5625C19.9475 13.058 20 12.5356 20 12ZM9.03613 7.52148C9.45067 7.15655 10.0823 7.19679 10.4473 7.61133C10.8121 8.02587 10.7719 8.65756 10.3574 9.02246C9.90425 9.42148 9.60023 9.86046 9.44824 10.3164C9.27348 10.8402 8.70744 11.1229 8.18359 10.9482C7.65984 10.7735 7.37714 10.2074 7.55176 9.68359C7.83676 8.82879 8.37296 8.10536 9.03613 7.52148ZM6.44336 3.68457C6.90226 3.3776 7.5229 3.50114 7.83008 3.95996C8.13724 4.41888 8.01455 5.03945 7.55566 5.34668C6.68282 5.93103 5.93103 6.68282 5.34668 7.55566C5.03945 8.01455 4.41888 8.13724 3.95996 7.83008C3.50114 7.5229 3.3776 6.90226 3.68457 6.44336C4.41436 5.35328 5.35328 4.41436 6.44336 3.68457ZM13.3994 5.61133C14.9592 5.37078 16.6396 5.482 18.1104 6.06641C18.6232 6.27044 18.8736 6.85122 18.6699 7.36426C18.466 7.87751 17.8843 8.12875 17.3711 7.9248C16.2908 7.49563 14.9807 7.391 13.7041 7.58789C13.1583 7.67207 12.6477 7.29772 12.5635 6.75195C12.4793 6.20612 12.8536 5.69551 13.3994 5.61133ZM12 2C12.5523 2 13 2.44772 13 3C13 3.55228 12.5523 4 12 4C11.4644 4 10.942 4.05254 10.4375 4.15234C9.89576 4.25945 9.36987 3.90698 9.2627 3.36523C9.15558 2.82349 9.50806 2.2976 10.0498 2.19043C10.6814 2.06551 11.3335 2 12 2Z" fill="currentColor"/>
</svg>
