<svg xmlns="http://www.w3.org/2000/svg" viewBox="0 0 24 24" fill="none">
<path d="M2 12C2 6.47715 6.47715 2 12 2C12.5523 2 13 2.44772 13 3C13 3.55228 12.5523 4 12 4C7.58172 4 4 7.58172 4 12C4 16.4183 7.58172 20 12 20C16.4183 20 20 16.4183 20 12C20 10.3962 19.4247 9.34036 18.6123 8.6543C17.7709 7.94393 16.582 7.55487 15.2695 7.49902C13.9603 7.44339 12.6117 7.72442 11.5264 8.25684C10.4289 8.79521 9.70991 9.53141 9.44824 10.3164C9.27348 10.8402 8.70744 11.1229 8.18359 10.9482C7.65984 10.7735 7.37714 10.2074 7.55176 9.68359C8.04014 8.21879 9.25874 7.14225 10.6455 6.46191C12.0444 5.77569 13.7274 5.4317 15.3555 5.50098C16.9802 5.57019 18.6355 6.05636 19.9033 7.12695C21.2 8.22214 22 9.85404 22 12C22 17.5228 17.5228 22 12 22C6.47715 22 2 17.5228 2 12Z" fill="currentColor"/>
</svg>
