<svg xmlns="http://www.w3.org/2000/svg" viewBox="0 0 24 24" fill="none">
<path fill-rule="evenodd" clip-rule="evenodd" d="M13 2C13.5523 2 14 2.44772 14 3V21C14 21.5523 13.5523 22 13 22C12.4477 22 12 21.5523 12 21V19H6C3.79086 19 2 17.2091 2 15V9C2 6.79086 3.79086 5 6 5H12V3C12 2.44772 12.4477 2 13 2ZM5 15C4.44772 15 4 15.4477 4 16C4 16.5523 4.44772 17 5 17H6C6.55228 17 7 16.5523 7 16C7 15.4477 6.55228 15 6 15H5ZM9.75 15C9.19772 15 8.75 15.4477 8.75 16C8.75 16.5523 9.19772 17 9.75 17H10.75C11.3023 17 11.75 16.5523 11.75 16C11.75 15.4477 11.3023 15 10.75 15H9.75ZM5 7C4.44772 7 4 7.44772 4 8C4 8.55228 4.44772 9 5 9H6C6.55228 9 7 8.55228 7 8C7 7.44772 6.55228 7 6 7H5ZM9.75 7C9.19772 7 8.75 7.44772 8.75 8C8.75 8.55228 9.19772 9 9.75 9H10.75C11.3023 9 11.75 8.55228 11.75 8C11.75 7.44772 11.3023 7 10.75 7H9.75Z" fill="currentColor"/><path d="M19 5C19.5523 5 20 5.44772 20 6V18C20 18.5523 19.5523 19 19 19C18.4477 19 18 18.5523 18 18V6C18 5.44772 18.4477 5 19 5Z" fill="currentColor"/><path d="M16 8C16.5523 8 17 8.44772 17 9V15C17 15.5523 16.5523 16 16 16C15.4477 16 15 15.5523 15 15V9C15 8.44772 15.4477 8 16 8Z" fill="currentColor"/><path d="M22 9.5C22.5523 9.5 23 9.94772 23 10.5V13.5C23 14.0523 22.5523 14.5 22 14.5C21.4477 14.5 21 14.0523 21 13.5V10.5C21 9.94772 21.4477 9.5 22 9.5Z" fill="currentColor"/>
</svg>
