<svg xmlns="http://www.w3.org/2000/svg" viewBox="0 0 24 24" fill="none">
<circle cx="12" cy="12" r="3" stroke="currentColor" stroke-width="2"/><path d="M7.50006 4.20546C6.55086 4.75347 6.15989 5.92366 6.58902 6.93219L6.7671 7.35071C6.14302 8.05262 5.65803 8.88094 5.35534 9.79244L4.9059 9.84723C3.81792 9.97986 3 10.9035 3 11.9996C3 13.0956 3.81792 14.0193 4.9059 14.1519L5.35498 14.2067C5.65762 15.1185 6.14269 15.9472 6.76694 16.6493L6.58904 17.0674C6.15991 18.0759 6.55088 19.2461 7.50008 19.7941C8.44927 20.3421 9.65817 20.0956 10.317 19.2197L10.5892 18.8579C11.0449 18.9511 11.5168 19.0001 12.0001 19.0001C12.4834 19.0001 12.9553 18.9511 13.4111 18.8578L13.6831 19.2195C14.342 20.0954 15.5509 20.3419 16.5001 19.7939C17.4493 19.2459 17.8402 18.0757 17.4111 17.0672L17.2333 16.6493C17.8575 15.9471 18.3426 15.1185 18.6452 14.2067L19.0941 14.1519C20.1821 14.0193 21 13.0956 21 11.9996C21 10.9035 20.1821 9.97986 19.0941 9.84723L18.6449 9.79247C18.5692 9.56459 18.4821 9.34191 18.3843 9.1251C18.0909 8.47468 17.7011 7.8771 17.233 7.35067L17.411 6.93233C17.8401 5.9238 17.4492 4.75362 16.5 4.2056C15.5508 3.65758 14.3419 3.90408 13.683 4.77998L13.4106 5.14221C12.9549 5.04899 12.4833 5.0001 12.0001 5.0001C11.5169 5.0001 11.0452 5.04905 10.5896 5.14226L10.317 4.77984C9.65815 3.90394 8.44925 3.65744 7.50006 4.20546Z" stroke="currentColor" stroke-width="2" stroke-linejoin="round"/>
</svg>
