<svg width="24" height="24" viewBox="0 0 24 24" fill="none" xmlns="http://www.w3.org/2000/svg">
<path d="M15.5355 15.5316C17.4882 13.5723 17.4882 10.3976 15.5355 8.4383C13.6227 6.52057 10.3744 6.52057 8.46454 8.4383C6.51182 10.3976 6.51182 13.5723 8.46454 15.5316C10.4158 17.4895 13.5827 17.4895 15.5355 15.5316ZM15.5355 15.5316L14.8569 14.8571L12.7142 12.7143M20 8.8V15.2C20 16.8802 20 17.7202 19.673 18.362C19.3854 18.9265 18.9265 19.3854 18.362 19.673C17.7202 20 16.8802 20 15.2 20H8.8C7.11984 20 6.27976 20 5.63803 19.673C5.07354 19.3854 4.6146 18.9265 4.32698 18.362C4 17.7202 4 16.8802 4 15.2V8.8C4 7.11984 4 6.27976 4.32698 5.63803C4.6146 5.07354 5.07354 4.6146 5.63803 4.32698C6.27976 4 7.11984 4 8.8 4H15.2C16.8802 4 17.7202 4 18.362 4.32698C18.9265 4.6146 19.3854 5.07354 19.673 5.63803C20 6.27976 20 7.11984 20 8.8Z" stroke="currentColor" stroke-width="2" stroke-linecap="round" stroke-linejoin="round"/>
</svg>
