<svg width="24" height="24" viewBox="0 0 24 24" fill="none" xmlns="http://www.w3.org/2000/svg">
<path d="M17 3C15.1355 3 13.5698 4.27442 13.1259 6H4C3.44772 6 3 6.44772 3 7C3 7.55228 3.44772 8 4 8H13.1259C13.5698 9.72558 15.1355 11 17 11C19.2098 11 21 9.20978 21 7C21 4.79022 19.2098 3 17 3Z" fill="currentColor" style="fill:currentColor;fill-opacity:1;"/>
<path d="M9 13C7.13554 13 5.56976 14.2744 5.12592 16H4C3.44772 16 3 16.4477 3 17C3 17.5523 3.44772 18 4 18H5.12592C5.56976 19.7256 7.13554 21 9 21C10.8645 21 12.4302 19.7256 12.8741 18H20C20.5523 18 21 17.5523 21 17C21 16.4477 20.5523 16 20 16H12.8741C12.4302 14.2744 10.8645 13 9 13Z" fill="currentColor" style="fill:currentColor;fill-opacity:1;"/>
</svg>
