<svg xmlns="http://www.w3.org/2000/svg" viewBox="0 0 24 24" fill="none">
<path fill-rule="evenodd" clip-rule="evenodd" d="M12.9795 4.06151C13.9598 2.87898 15.657 2.56372 17 3.33886C18.3421 4.11373 18.916 5.73906 18.3838 7.1787C18.7415 7.65172 19.0489 8.16647 19.2959 8.71386C19.3203 8.76803 19.342 8.82407 19.3652 8.8789C20.879 9.13685 21.9997 10.4488 22 11.999C22 13.5494 20.8791 14.86 19.3652 15.1182C19.1072 15.7268 18.7766 16.2964 18.3838 16.8164C18.9182 18.2568 18.343 19.8836 17 20.6592C15.6569 21.4346 13.9608 21.1193 12.9805 19.9365C12.6587 19.9759 12.3317 20 12 20C11.6683 20 11.3413 19.9759 11.0195 19.9365C10.0392 21.1193 8.34309 21.4355 7 20.6601C5.65718 19.8847 5.08224 18.2576 5.61621 16.8174C5.22312 16.2971 4.89191 15.7272 4.63379 15.1182C3.12039 14.8597 2 13.5491 2 11.999C2.00034 10.4491 3.12047 9.13724 4.63379 8.8789C4.89196 8.27028 5.22325 7.70052 5.61621 7.18065C5.08287 5.74056 5.65732 4.11406 7 3.33886C8.34281 2.56376 10.0392 2.87929 11.0195 4.06151C11.3412 4.02213 11.6683 3.99999 12 3.99999C12.3313 3.99999 12.6581 4.02223 12.9795 4.06151ZM12 8.99999C10.3433 9.00005 9.00019 10.3433 9 12C9.00012 13.6567 10.3433 14.9999 12 15C13.6568 15 14.9999 13.6567 15 12C14.9998 10.3433 13.6567 8.99999 12 8.99999Z" fill="currentColor"/>
</svg>
