<svg xmlns="http://www.w3.org/2000/svg" viewBox="0 0 24 24" fill="none">
<path d="M3.0918 17.8516C3.75013 17.5759 4.4476 17.4169 5.19727 17.5449C5.4381 17.5861 5.75702 17.7628 6.19727 18.208C6.63336 18.6491 7.06863 19.2256 7.58984 19.9043C7.85458 20.249 8.14304 20.6242 8.45996 21H7C5.08316 21 3.48216 19.6515 3.0918 17.8516Z" fill="currentColor"/><path d="M5.89355 12.082C6.52752 11.9118 6.88966 12.0262 7.21777 12.252C7.63982 12.5425 8.01858 13.0238 8.60449 13.7578C9.15263 14.4445 9.83183 15.2762 10.7734 15.9844C11.5203 16.546 12.3319 16.9033 13.0645 17.1953C13.8337 17.502 14.4668 17.722 15.0654 18.0381C15.6334 18.338 16.0956 18.6901 16.4541 19.1963C16.7497 19.6138 17.0046 20.182 17.165 20.9951C17.1103 20.9973 17.0553 21 17 21H11.2979C10.5707 20.4538 9.90156 19.6304 9.17676 18.6865C8.68967 18.0522 8.16547 17.3544 7.62012 16.8027C7.07906 16.2555 6.39297 15.72 5.5332 15.5732C4.59329 15.4129 3.73819 15.5329 3 15.7588V13.7393C4.32379 12.7338 5.2411 12.2572 5.89355 12.082Z" fill="currentColor"/><path d="M10.918 3C10.8389 4.90907 11.2311 6.32003 12.0518 7.38574C12.9949 8.61036 14.3787 9.20143 15.6035 9.66992C16.9035 10.1672 18.0634 10.5436 19.0645 11.2646C19.8534 11.833 20.5487 12.6294 21 13.9297V17C21 18.4442 20.2342 19.7089 19.0869 20.4121C18.8769 19.4605 18.5404 18.6829 18.0859 18.041C17.4945 17.2057 16.7534 16.6669 15.999 16.2686C15.2755 15.8866 14.4662 15.6012 13.8057 15.3379C13.1083 15.0599 12.5013 14.782 11.9756 14.3867C11.2553 13.845 10.7126 13.1921 10.168 12.5098C9.6612 11.8749 9.07624 11.1022 8.35156 10.6035C7.53281 10.0401 6.56518 9.83084 5.375 10.1504C4.66649 10.3406 3.88619 10.7166 3 11.29V7C3 4.79086 4.79086 3 7 3H10.918Z" fill="currentColor"/><path d="M17 3C19.2091 3 21 4.79086 21 7V10.2754C20.7558 10.044 20.4998 9.83349 20.2334 9.6416C18.9637 8.72705 17.4748 8.24446 16.3174 7.80176C15.0849 7.33032 14.2013 6.89948 13.6357 6.16504C13.1771 5.56926 12.8367 4.64055 12.9189 3H17Z" fill="currentColor"/>
</svg>
