<svg width="24" height="24" viewBox="0 0 24 24" fill="none" xmlns="http://www.w3.org/2000/svg">
<path fill-rule="evenodd" clip-rule="evenodd" d="M2 8C2 5.79086 3.79086 4 6 4H18C20.2091 4 22 5.79086 22 8V16C22 18.2091 20.2091 20 18 20H6C3.79086 20 2 18.2091 2 16V8ZM11.2929 7.79289C11.6834 7.40237 12.3166 7.40237 12.7071 7.79289L15.7071 10.7929C16.0976 11.1834 16.0976 11.8166 15.7071 12.2071C15.3166 12.5976 14.6834 12.5976 14.2929 12.2071L13 10.9142V15.5C13 16.0523 12.5523 16.5 12 16.5C11.4477 16.5 11 16.0523 11 15.5V10.9142L9.70711 12.2071C9.31658 12.5976 8.68342 12.5976 8.29289 12.2071C7.90237 11.8166 7.90237 11.1834 8.29289 10.7929L11.2929 7.79289Z" fill="currentColor" style="fill:currentColor;fill-opacity:1;"/>
</svg>
