<svg xmlns="http://www.w3.org/2000/svg" viewBox="0 0 24 24" fill="none">
<path fill-rule="evenodd" clip-rule="evenodd" d="M10.3965 2.10991C11.4186 1.66275 12.5814 1.66275 13.6035 2.10991L18.6035 4.29741C20.0592 4.93439 20.9998 6.37253 21 7.96147V12.9996C21 17.9701 16.9706 21.9996 12 21.9996C7.02944 21.9996 3 17.9701 3 12.9996V7.96147C3.00016 6.37253 3.94081 4.93439 5.39648 4.29741L10.3965 2.10991ZM12 14.3999C11.2822 14.4001 10.7003 14.9819 10.7002 15.6998C10.7002 16.4177 11.2821 16.9994 12 16.9996C12.718 16.9996 13.2998 16.4177 13.2998 15.6998C13.2997 14.9818 12.7179 14.3999 12 14.3999ZM12 7.34916C11.6749 7.34916 11.3647 7.47076 11.1494 7.68608C10.9335 7.90164 10.8294 8.19471 10.8496 8.49956C10.8538 8.56275 10.8581 8.62679 10.8623 8.68998C10.9373 9.82971 11.0129 10.9702 11.0879 12.1099C11.092 12.1729 11.0955 12.2364 11.0996 12.2994C11.1145 12.5228 11.2232 12.737 11.3916 12.8951C11.5606 13.0531 11.7762 13.1421 12 13.1421C12.2238 13.1421 12.4394 13.0531 12.6084 12.8951C12.7768 12.737 12.8855 12.5228 12.9004 12.2994C12.9045 12.2364 12.908 12.1729 12.9121 12.1099C12.9871 10.9702 13.0627 9.82971 13.1377 8.68998C13.1419 8.62679 13.1462 8.56275 13.1504 8.49956C13.1706 8.19471 13.0665 7.90164 12.8506 7.68608C12.6353 7.47076 12.3251 7.34916 12 7.34916Z" fill="currentColor"/>
</svg>
