<svg xmlns="http://www.w3.org/2000/svg" viewBox="0 0 24 24" fill="none">
<path fill-rule="evenodd" clip-rule="evenodd" d="M10.3965 2.10978C11.4186 1.66262 12.5814 1.66262 13.6035 2.10978L18.6035 4.29728C20.0592 4.93427 20.9998 6.37241 21 7.96135V12.9994C21 17.97 16.9706 21.9994 12 21.9994C7.02944 21.9994 3 17.97 3 12.9994V7.96135C3.00016 6.37241 3.94081 4.93427 5.39648 4.29728L10.3965 2.10978ZM12 7.95353C11.759 7.95353 11.5426 8.10264 11.4561 8.32756L10.7598 10.1391C10.6582 10.403 10.4495 10.6117 10.1855 10.7133L8.37305 11.4106C8.14843 11.4971 8.00017 11.7128 8 11.9535C8 12.1944 8.14828 12.4109 8.37305 12.4975L10.1855 13.1947C10.4494 13.2964 10.6582 13.505 10.7598 13.769L11.4561 15.5805C11.5426 15.8054 11.759 15.9535 12 15.9535C12.241 15.9535 12.4574 15.8054 12.5439 15.5805L13.2402 13.769C13.3418 13.505 13.5506 13.2964 13.8145 13.1947L15.627 12.4975C15.8517 12.4109 16 12.1944 16 11.9535C15.9998 11.7128 15.8516 11.4971 15.627 11.4106L13.8145 10.7133C13.5505 10.6117 13.3418 10.403 13.2402 10.1391L12.5439 8.32756C12.4574 8.10264 12.241 7.95353 12 7.95353Z" fill="currentColor"/>
</svg>
