<svg xmlns="http://www.w3.org/2000/svg" viewBox="0 0 24 24" fill="none">
<path d="M11 8.99956C12.1044 8.99956 12.9998 9.89517 13 10.9996C13 12.1041 12.1046 12.9996 11 12.9996C9.89543 12.9996 9 12.1041 9 10.9996C9.00022 9.89517 9.89557 8.99956 11 8.99956Z" fill="currentColor"/><path fill-rule="evenodd" clip-rule="evenodd" d="M10.3965 2.10991C11.4186 1.66275 12.5814 1.66275 13.6035 2.10991L18.6035 4.29741C20.0592 4.93439 20.9998 6.37253 21 7.96147V12.9996C21 17.9701 16.9706 21.9996 12 21.9996C7.02944 21.9996 3 17.9701 3 12.9996V7.96147C3.00016 6.37253 3.94081 4.93439 5.39648 4.29741L10.3965 2.10991ZM11 6.99956C8.791 6.99956 7.00022 8.7906 7 10.9996C7 13.2087 8.79086 14.9996 11 14.9996C11.7418 14.9996 12.4357 14.7968 13.0312 14.4449L14.793 16.2066C15.1835 16.5971 15.8165 16.5971 16.207 16.2066C16.5974 15.816 16.5975 15.183 16.207 14.7925L14.4453 13.0308C14.797 12.4354 15 11.7412 15 10.9996C14.9998 8.7906 13.209 6.99956 11 6.99956Z" fill="currentColor"/>
</svg>
