<svg xmlns="http://www.w3.org/2000/svg" viewBox="0 0 24 24" fill="none">
<path fill-rule="evenodd" clip-rule="evenodd" d="M10.3965 2.10991C11.4186 1.66275 12.5814 1.66275 13.6035 2.10991L18.6035 4.29741C20.0592 4.93439 20.9998 6.37253 21 7.96147V12.9996C21 17.9701 16.9706 21.9996 12 21.9996C7.02944 21.9996 3 17.9701 3 12.9996V7.96147C3.00016 6.37253 3.94081 4.93439 5.39648 4.29741L10.3965 2.10991ZM10.457 9.29252C10.0666 8.90227 9.43344 8.90227 9.04297 9.29252L7.04297 11.2925C6.65251 11.683 6.65265 12.316 7.04297 12.7066L9.04297 14.7066C9.43349 15.0971 10.0665 15.0971 10.457 14.7066C10.8474 14.316 10.8475 13.683 10.457 13.2925L9.16406 11.9996L10.457 10.7066C10.8474 10.316 10.8475 9.68298 10.457 9.29252ZM14.957 9.29252C14.5666 8.90227 13.9334 8.90227 13.543 9.29252C13.1525 9.68298 13.1526 10.316 13.543 10.7066L14.8359 11.9996L13.543 13.2925C13.1525 13.683 13.1526 14.316 13.543 14.7066C13.9335 15.0971 14.5665 15.0971 14.957 14.7066L16.957 12.7066C17.3474 12.316 17.3475 11.683 16.957 11.2925L14.957 9.29252Z" fill="currentColor"/>
</svg>
