<svg xmlns="http://www.w3.org/2000/svg" viewBox="0 0 24 24" fill="none">
<path d="M20 10C20.5523 10 21 10.4477 21 11C21 11.4082 21.0008 11.6823 20.9746 11.9434C20.8271 13.4114 20.0395 14.7398 18.8213 15.5723C18.6047 15.7203 18.3633 15.8504 18.0049 16.0459L14.9531 17.71C14.558 17.9255 14.4218 18.0011 14.3076 18.0791C13.5767 18.5786 13.1031 19.376 13.0147 20.2568C13.0009 20.3944 13 20.5499 13 21C13 21.5523 12.5523 22 12 22C11.4477 22 11 21.5523 11 21C11 20.5918 10.9992 20.3177 11.0254 20.0566C11.1729 18.5886 11.9605 17.2602 13.1787 16.4277C13.3953 16.2797 13.6367 16.1496 13.9951 15.9541L17.0469 14.29C17.442 14.0745 17.5782 13.9989 17.6924 13.9209C18.4233 13.4214 18.8969 12.624 18.9854 11.7432C18.9992 11.6056 19 11.4501 19 11C19 10.4477 19.4477 10 20 10Z" fill="currentColor"/><path d="M16 6C16.5523 6 17 6.44772 17 7C17 7.40825 17.0008 7.68231 16.9746 7.94336C16.8271 9.4114 16.0395 10.7398 14.8213 11.5723C14.6047 11.7203 14.3633 11.8504 14.0049 12.0459L10.9531 13.71C10.558 13.9255 10.4218 14.0011 10.3076 14.0791C9.57666 14.5786 9.10312 15.376 9.01465 16.2568C9.00085 16.3944 9 16.5499 9 17C9 17.5523 8.55229 18 8 18C7.44772 18 7 17.5523 7 17C7 16.5918 6.99918 16.3177 7.02539 16.0566C7.17286 14.5886 7.96054 13.2602 9.17871 12.4277C9.39533 12.2797 9.63672 12.1496 9.99512 11.9541L13.0469 10.29C13.442 10.0745 13.5782 9.99889 13.6924 9.9209C14.4233 9.42142 14.8969 8.62404 14.9854 7.74316C14.9992 7.60558 15 7.4501 15 7C15 6.44772 15.4477 6 16 6Z" fill="currentColor"/><path d="M12 2C12.5523 2 13 2.44772 13 3C13 3.40825 13.0008 3.68231 12.9746 3.94336C12.8271 5.4114 12.0395 6.73983 10.8213 7.57227C10.6047 7.72028 10.3633 7.85041 10.0049 8.0459L6.95313 9.70996C6.55799 9.92549 6.42179 10.0011 6.30762 10.0791C5.57666 10.5786 5.10312 11.376 5.01465 12.2568C5.00086 12.3944 5 12.5499 5 13C5 13.5523 4.55229 14 4 14C3.44772 14 3 13.5523 3 13C3 12.5918 2.99918 12.3177 3.02539 12.0566C3.17286 10.5886 3.96054 9.26017 5.17871 8.42773C5.39533 8.27972 5.63672 8.14959 5.99512 7.9541L9.04688 6.29004C9.44202 6.07451 9.57821 5.99889 9.69239 5.9209C10.4233 5.42142 10.8969 4.62404 10.9854 3.74316C10.9992 3.60558 11 3.4501 11 3C11 2.44772 11.4477 2 12 2Z" fill="currentColor"/>
</svg>
