<svg xmlns="http://www.w3.org/2000/svg" viewBox="0 0 24 24" fill="none">
<path d="M7.5 15C8.88071 15 10 16.1193 10 17.5C10 18.8807 8.88071 20 7.5 20C6.11929 20 5 18.8807 5 17.5C5 16.1193 6.11929 15 7.5 15Z" fill="currentColor"/><path d="M16.5 15C17.8807 15 19 16.1193 19 17.5C19 18.8807 17.8807 20 16.5 20C15.1193 20 14 18.8807 14 17.5C14 16.1193 15.1193 15 16.5 15Z" fill="currentColor"/><path d="M10.5 4C12.7091 4 14.5 5.79086 14.5 8V14.0361C13.4414 14.6487 12.6904 15.7319 12.5322 17H11.4678C11.2217 15.0269 9.53975 13.5 7.5 13.5C5.72131 13.5 4.21429 14.6611 3.69434 16.2666C2.66996 15.5422 2 14.35 2 13V8C2 5.79086 3.79086 4 6 4H10.5Z" fill="currentColor"/><path d="M17.9297 6C18.9327 6.00002 19.8694 6.50136 20.4258 7.33594L21.4961 8.94141C21.8246 9.43419 22 10.0132 22 10.6055V13C22 14.3503 21.3294 15.5423 20.3047 16.2666C19.7846 14.6613 18.2786 13.5 16.5 13.5C16.3307 13.5 16.1638 13.5108 16 13.5312V6H17.9297Z" fill="currentColor"/>
</svg>
