<svg width="24" height="24" viewBox="0 0 24 24" fill="none" xmlns="http://www.w3.org/2000/svg">
<path fill-rule="evenodd" clip-rule="evenodd" d="M8.00012 6C8.00012 3.79086 9.79098 2 12.0001 2C14.2093 2 16.0001 3.79086 16.0001 6V7.14621C17.4826 7.55898 18.636 8.80686 18.8798 10.3918L19.1277 12.0027C19.0854 12.0009 19.0429 12 19.0001 12H15.0001C13.3433 12 12.0001 13.3431 12.0001 15V21C12.0001 21.3506 12.0603 21.6872 12.1708 22H7.99695C5.54541 22 3.67069 19.8148 4.04347 17.3918L5.12039 10.3918C5.36422 8.80685 6.51766 7.55897 8.00012 7.14621V6ZM14.0001 7V6C14.0001 4.89543 13.1047 4 12.0001 4C10.8956 4 10.0001 4.89543 10.0001 6V7H14.0001Z" fill="currentColor" style="fill:currentColor;fill-opacity:1;"/>
<path fill-rule="evenodd" clip-rule="evenodd" d="M16.0001 14C14.8956 14 14.0001 14.8954 14.0001 16V21C14.0001 21.3603 14.1939 21.6927 14.5074 21.8702C14.8209 22.0477 15.2057 22.0429 15.5146 21.8575L17.5001 20.6662L19.4856 21.8575C19.7946 22.0429 20.1793 22.0477 20.4928 21.8702C20.8063 21.6927 21.0001 21.3603 21.0001 21V16C21.0001 14.8954 20.1047 14 19.0001 14H16.0001ZM16.0001 16H19.0001V19.2338L18.0146 18.6425C17.6979 18.4525 17.3023 18.4525 16.9856 18.6425L16.0001 19.2338V16Z" fill="currentColor" style="fill:currentColor;fill-opacity:1;"/>
</svg>
