<svg width="24" height="24" viewBox="0 0 24 24" fill="none" xmlns="http://www.w3.org/2000/svg">
<path d="M14.619 5.87325C14.619 5.87325 14.4382 5.92491 14.1412 6.0153C14.0896 5.84743 14.0121 5.65373 13.9088 5.44713C13.5731 4.80148 13.0696 4.45283 12.4757 4.45283C12.4369 4.45283 12.3982 4.45283 12.3466 4.46574C12.3336 4.43992 12.3078 4.42701 12.2949 4.40118C12.0367 4.1171 11.701 3.98797 11.3007 4.00088C10.5261 4.02671 9.75137 4.58196 9.13163 5.57626C8.69264 6.27356 8.35695 7.15163 8.26657 7.83602C7.37569 8.10719 6.75594 8.30089 6.74303 8.3138C6.29113 8.45584 6.27822 8.46875 6.22658 8.89488C6.18784 9.2177 5 18.3084 5 18.3084L14.761 20V5.86034C14.6835 5.86034 14.6448 5.87325 14.619 5.87325ZM12.3595 6.57055C11.843 6.72551 11.2749 6.90629 10.7197 7.07416C10.8747 6.46725 11.1845 5.86034 11.5461 5.46004C11.6881 5.318 11.8817 5.15013 12.1012 5.04683C12.3207 5.51169 12.3724 6.14443 12.3595 6.57055ZM11.3007 4.53031C11.4815 4.53031 11.6364 4.56905 11.7655 4.64653C11.559 4.74983 11.3524 4.9177 11.1587 5.11139C10.6681 5.64082 10.2937 6.46725 10.1387 7.25494C9.67391 7.39698 9.2091 7.53902 8.78302 7.66815C9.06707 6.42851 10.1129 4.55614 11.3007 4.53031ZM9.80302 11.6324C9.85467 12.4588 12.0367 12.6396 12.1658 14.5895C12.2562 16.1261 11.3524 17.1721 10.0483 17.2495C8.47315 17.3528 7.60809 16.4231 7.60809 16.4231L7.94379 15.0027C7.94379 15.0027 8.80885 15.6613 9.50606 15.6096C9.95796 15.5838 10.1258 15.2093 10.1129 14.951C10.0483 13.8664 8.26657 13.9309 8.15037 12.1489C8.04708 10.651 9.02834 9.14023 11.1974 8.99818C12.0367 8.94653 12.4628 9.15314 12.4628 9.15314L11.9721 11.0126C11.9721 11.0126 11.4169 10.7543 10.7585 10.806C9.80302 10.8706 9.79011 11.4775 9.80302 11.6324ZM12.8759 6.4156C12.8759 6.02821 12.8243 5.47295 12.6435 5.00809C13.2374 5.1243 13.5215 5.78286 13.6506 6.18316C13.4182 6.24773 13.16 6.32521 12.8759 6.4156Z" fill="currentColor"/>
<path d="M15.0586 19.9745L19.1128 18.9673C19.1128 18.9673 17.3697 7.17779 17.3568 7.10031C17.3439 7.02283 17.2793 6.97118 17.2148 6.97118C17.1502 6.97118 16.014 6.94536 16.014 6.94536C16.014 6.94536 15.3168 6.27388 15.0586 6.01562V19.9745Z" fill="currentColor"/>
</svg>
