<svg width="24" height="24" viewBox="0 0 24 24" fill="none" xmlns="http://www.w3.org/2000/svg">
<path fill-rule="evenodd" clip-rule="evenodd" d="M8 3C7.44772 3 7 3.44772 7 4V7H4C3.44772 7 3 7.44772 3 8V17C3 19.2091 4.79086 21 7 21H17C19.2091 21 21 19.2091 21 17V8C21 7.44772 20.5523 7 20 7H17V4C17 3.44772 16.5523 3 16 3H8ZM15 7V11C15 11.5523 15.4477 12 16 12C16.5523 12 17 11.5523 17 11V7H15ZM9 7V11C9 11.5523 8.55228 12 8 12C7.44772 12 7 11.5523 7 11V7H9ZM9 7H15V5H9V7Z" fill="currentColor" style="fill:currentColor;fill-opacity:1;"/>
</svg>
