<svg xmlns="http://www.w3.org/2000/svg" viewBox="0 0 24 24" fill="none">
<path d="M17 4H7C5.34315 4 4 5.34315 4 7V17C4 18.6569 5.34315 20 7 20H17C18.6569 20 20 18.6569 20 17V7C20 5.34315 18.6569 4 17 4Z" stroke="currentColor" stroke-width="2"/><path d="M12.4984 11H15.3786C15.811 11 16.0395 11.5118 15.7508 11.8338L11.448 16.6331C11.0938 17.0282 10.4492 16.6722 10.5949 16.162L11.4984 13H8.61817C8.18573 13 7.95721 12.4882 8.24588 12.1662L12.5487 7.36689C12.9029 6.97182 13.5476 7.32783 13.4018 7.83803L12.4984 11Z" fill="currentColor"/>
</svg>
