<svg xmlns="http://www.w3.org/2000/svg" viewBox="0 0 24 24" fill="none">
<path fill-rule="evenodd" clip-rule="evenodd" d="M17 3C19.2091 3 21 4.79086 21 7V17C21 19.2091 19.2091 21 17 21H7C4.79086 21 3 19.2091 3 17V7C3 4.79086 4.79086 3 7 3H17ZM13.4033 7.83789C13.549 7.32776 12.905 6.97219 12.5508 7.36719L8.24707 12.166C7.95855 12.488 8.18773 13 8.62012 13H11.5L10.5967 16.1621C10.451 16.6722 11.095 17.0278 11.4492 16.6328L15.7529 11.834C16.0415 11.512 15.8123 11 15.3799 11H12.5L13.4033 7.83789Z" fill="currentColor"/>
</svg>
