<svg width="24" height="24" viewBox="0 0 24 24" fill="none" xmlns="http://www.w3.org/2000/svg">
<path fill-rule="evenodd" clip-rule="evenodd" d="M3.5 6.5C3.5 4.29086 5.29086 2.5 7.5 2.5H16.5C18.7091 2.5 20.5 4.29086 20.5 6.5V17.5C20.5 19.7091 18.7091 21.5 16.5 21.5H7.5C5.29086 21.5 3.5 19.7091 3.5 17.5V6.5ZM8 8C8 7.44772 8.44772 7 9 7H15C15.5523 7 16 7.44772 16 8C16 8.55228 15.5523 9 15 9H9C8.44772 9 8 8.55228 8 8ZM8 12C8 11.4477 8.44772 11 9 11H12C12.5523 11 13 11.4477 13 12C13 12.5523 12.5523 13 12 13H9C8.44772 13 8 12.5523 8 12Z" fill="currentColor" style="fill:currentColor;fill-opacity:1;"/>
</svg>
