<svg width="24" height="24" viewBox="0 0 24 24" fill="none" xmlns="http://www.w3.org/2000/svg">
<path fill-rule="evenodd" clip-rule="evenodd" d="M4 6C4 3.79086 5.79086 2 8 2H12C14.2091 2 16 3.79086 16 6C18.2091 6 20 7.79086 20 10V18C20 20.2091 18.2091 22 16 22H12C9.79086 22 8 20.2091 8 18C5.79086 18 4 16.2091 4 14V6ZM14 6H12C9.79086 6 8 7.79086 8 10V16C6.89543 16 6 15.1046 6 14V6C6 4.89543 6.89543 4 8 4H12C13.1046 4 14 4.89543 14 6ZM15 12C15 11.4477 14.5523 11 14 11C13.4477 11 13 11.4477 13 12V13H12C11.4477 13 11 13.4477 11 14C11 14.5523 11.4477 15 12 15H13V16C13 16.5523 13.4477 17 14 17C14.5523 17 15 16.5523 15 16V15H16C16.5523 15 17 14.5523 17 14C17 13.4477 16.5523 13 16 13H15V12Z" fill="currentColor" style="fill:currentColor;fill-opacity:1;"/>
</svg>
