<svg width="24" height="24" viewBox="0 0 24 24" fill="none" xmlns="http://www.w3.org/2000/svg">
<path fill-rule="evenodd" clip-rule="evenodd" d="M6.8234 2.36754C7.09563 1.55086 7.85991 1 8.72077 1H15.2792C16.1401 1 16.9044 1.55086 17.1766 2.36754L17.8762 4.46644C19.1398 5.13874 20 6.46891 20 8V16C20 17.5311 19.1398 18.8613 17.8762 19.5336L17.1766 21.6325C16.9044 22.4491 16.1401 23 15.2792 23H8.72077C7.85991 23 7.09563 22.4491 6.8234 21.6325L6.12377 19.5336C4.86024 18.8613 4 17.5311 4 16V8C4 6.4689 4.86024 5.13873 6.12377 4.46643L6.8234 2.36754ZM8.38743 4H15.6126L15.2792 3H8.72077L8.38743 4ZM8.38743 20L8.72077 21H15.2792L15.6126 20H8.38743ZM12 8C12.5523 8 13 8.44772 13 9V11.5858L14.2071 12.7929C14.5976 13.1834 14.5976 13.8166 14.2071 14.2071C13.8166 14.5976 13.1834 14.5976 12.7929 14.2071L11.2929 12.7071C11.1054 12.5196 11 12.2652 11 12V9C11 8.44772 11.4477 8 12 8Z" fill="currentColor" style="fill:currentColor;fill-opacity:1;"/>
</svg>
