<svg width="24" height="24" viewBox="0 0 24 24" fill="none" xmlns="http://www.w3.org/2000/svg">
<path d="M7 3C4.79086 3 3 4.79086 3 7C3 9.20914 4.79086 11 7 11C9.20914 11 11 9.20914 11 7C11 4.79086 9.20914 3 7 3Z" fill="currentColor" style="fill:currentColor;fill-opacity:1;"/>
<path d="M18.7071 3.54289C18.3166 3.15237 17.6834 3.15237 17.2929 3.54289L14.2929 6.54289C13.9024 6.93342 13.9024 7.56658 14.2929 7.95711C14.6834 8.34763 15.3166 8.34763 15.7071 7.95711L17 6.66421V17.3358L15.7071 16.0429C15.3166 15.6524 14.6834 15.6524 14.2929 16.0429C13.9024 16.4334 13.9024 17.0666 14.2929 17.4571L17.2929 20.4571C17.6834 20.8476 18.3166 20.8476 18.7071 20.4571L21.7071 17.4571C22.0976 17.0666 22.0976 16.4334 21.7071 16.0429C21.3166 15.6524 20.6834 15.6524 20.2929 16.0429L19 17.3358V6.66421L20.2929 7.95711C20.6834 8.34763 21.3166 8.34763 21.7071 7.95711C22.0976 7.56658 22.0976 6.93342 21.7071 6.54289L18.7071 3.54289Z" fill="currentColor" style="fill:currentColor;fill-opacity:1;"/>
<path d="M7 13C4.79086 13 3 14.7909 3 17C3 19.2091 4.79086 21 7 21C9.20914 21 11 19.2091 11 17C11 14.7909 9.20914 13 7 13Z" fill="currentColor" style="fill:currentColor;fill-opacity:1;"/>
</svg>
