<svg width="24" height="24" viewBox="0 0 24 24" fill="none" xmlns="http://www.w3.org/2000/svg">
<path fill-rule="evenodd" clip-rule="evenodd" d="M12 2C6.47715 2 2 6.47715 2 12C2 14.5605 2.96367 16.8984 4.54655 18.6669C6.37618 20.7111 9.03824 22 12 22C14.9618 22 17.6238 20.7111 19.4535 18.6669C21.0363 16.8984 22 14.5605 22 12C22 6.47715 17.5228 2 12 2ZM12 16C14.029 16 15.8808 16.7544 17.2917 18C15.8808 19.2456 14.029 20 12 20C9.97104 20 8.11925 19.2456 6.70828 18C8.11925 16.7544 9.97104 16 12 16ZM10.6843 7.90787L9.39443 8.55279C9.0259 8.73705 9.0259 9.26295 9.39443 9.44721L10.6843 10.0921C10.781 10.1405 10.8595 10.219 10.9079 10.3157L11.5528 11.6056C11.737 11.9741 12.263 11.9741 12.4472 11.6056L13.0921 10.3157C13.1405 10.219 13.219 10.1405 13.3157 10.0921L14.6056 9.44721C14.9741 9.26295 14.9741 8.73705 14.6056 8.55279L13.3157 7.90787C13.219 7.85949 13.1405 7.78103 13.0921 7.68426L12.4472 6.39443C12.263 6.0259 11.737 6.0259 11.5528 6.39443L10.9079 7.68426C10.8595 7.78103 10.781 7.85949 10.6843 7.90787Z" fill="currentColor" style="fill:currentColor;fill-opacity:1;"/>
</svg>
