<svg xmlns="http://www.w3.org/2000/svg" viewBox="0 0 24 24" fill="none">
<path d="M4.29289 18.293C4.68342 17.9025 5.31643 17.9025 5.70696 18.293C6.0974 18.6835 6.09745 19.3166 5.70696 19.7071L3.70696 21.7071C3.31646 22.0976 2.68342 22.0975 2.29289 21.7071C1.90237 21.3166 1.90237 20.6835 2.29289 20.293L4.29289 18.293Z" fill="currentColor"/><path d="M18.2929 18.293C18.6834 17.9025 19.3164 17.9025 19.707 18.293L21.707 20.293C22.0974 20.6835 22.0975 21.3166 21.707 21.7071C21.3165 22.0976 20.6834 22.0975 20.2929 21.7071L18.2929 19.7071C17.9024 19.3166 17.9024 18.6835 18.2929 18.293Z" fill="currentColor"/><path d="M11.9999 3.00005C12.7 3.00007 13.337 3.39134 13.6562 4.00591L13.7157 4.13091L15.246 7.70317C15.4483 8.17516 15.8248 8.55167 16.2968 8.75395L19.8691 10.2842C20.5551 10.5785 20.9999 11.2535 20.9999 12C20.9999 12.7466 20.5552 13.4217 19.8691 13.7159L16.2968 15.2461C15.8248 15.4484 15.4483 15.8249 15.246 16.2969L13.7157 19.8692C13.4215 20.5553 12.7465 21 11.9999 21C11.2534 21 10.5783 20.5553 10.2841 19.8692L8.75383 16.2969C8.55155 15.8249 8.17504 15.4484 7.70305 15.2461L4.13078 13.7159C3.44468 13.4217 2.99995 12.7466 2.99992 12C2.99992 11.2535 3.44465 10.5784 4.13078 10.2842L7.70305 8.75395C8.17505 8.55166 8.55153 8.17517 8.75383 7.70317L10.2841 4.13091C10.5783 3.44477 11.2534 3.00005 11.9999 3.00005Z" fill="currentColor"/><path d="M2.29289 2.29302C2.68342 1.90249 3.31643 1.90249 3.70696 2.29302L5.70696 4.29302C6.0974 4.68355 6.09745 5.31658 5.70696 5.70708C5.31646 6.09758 4.68342 6.09753 4.29289 5.70708L2.29289 3.70708C1.90237 3.31655 1.90237 2.68354 2.29289 2.29302Z" fill="currentColor"/><path d="M20.2929 2.29302C20.6834 1.90249 21.3164 1.90249 21.707 2.29302C22.0974 2.68355 22.0975 3.31658 21.707 3.70708L19.707 5.70708C19.3165 6.09758 18.6834 6.09753 18.2929 5.70708C17.9024 5.31655 17.9024 4.68354 18.2929 4.29302L20.2929 2.29302Z" fill="currentColor"/>
</svg>
