<svg xmlns="http://www.w3.org/2000/svg" viewBox="0 0 24 24" fill="none">
<path d="M12 2C12.956 2 13.8131 2.58918 14.1562 3.48145L15.6045 7.24609C15.8076 7.77428 16.2257 8.19236 16.7539 8.39551L20.5186 9.84375C21.4108 10.1869 22 11.044 22 12C22 12.956 21.4108 13.8131 20.5186 14.1562L16.7539 15.6045C16.2257 15.8076 15.8076 16.2257 15.6045 16.7539L14.1562 20.5186C13.8131 21.4108 12.956 22 12 22C11.044 22 10.1869 21.4108 9.84375 20.5186L8.39551 16.7539C8.19236 16.2257 7.77428 15.8076 7.24609 15.6045L3.48145 14.1562C2.58918 13.8131 2 12.956 2 12C2 11.044 2.58918 10.1869 3.48145 9.84375L7.24609 8.39551C7.77428 8.19236 8.19236 7.77428 8.39551 7.24609L9.84375 3.48145C10.1869 2.58918 11.044 2 12 2Z" fill="currentColor"/>
</svg>
