<svg width="25" height="24" viewBox="0 0 25 24" fill="none" xmlns="http://www.w3.org/2000/svg">
<path d="M14.75 8C14.75 7.44772 14.3023 7 13.75 7C13.1977 7 12.75 7.44772 12.75 8C12.75 10.3085 12.2392 11.7424 11.3658 12.6158C10.4924 13.4892 9.05849 14 6.75 14C6.19772 14 5.75 14.4477 5.75 15C5.75 15.5523 6.19772 16 6.75 16C9.05849 16 10.4924 16.5108 11.3658 17.3842C12.2392 18.2576 12.75 19.6915 12.75 22C12.75 22.5523 13.1977 23 13.75 23C14.3023 23 14.75 22.5523 14.75 22C14.75 19.6915 15.2608 18.2576 16.1342 17.3842C17.0076 16.5108 18.4415 16 20.75 16C21.3023 16 21.75 15.5523 21.75 15C21.75 14.4477 21.3023 14 20.75 14C18.4415 14 17.0076 13.4892 16.1342 12.6158C15.2608 11.7424 14.75 10.3085 14.75 8Z" fill="currentColor" style="fill:currentColor;fill-opacity:1;"/>
<path d="M6.75 5.5C6.75 5.22386 6.52614 5 6.25 5C5.97386 5 5.75 5.22386 5.75 5.5C5.75 6.48063 5.53279 7.0726 5.1777 7.4277C4.8226 7.78279 4.23063 8 3.25 8C2.97386 8 2.75 8.22386 2.75 8.5C2.75 8.77614 2.97386 9 3.25 9C4.23063 9 4.8226 9.21721 5.1777 9.5723C5.53279 9.9274 5.75 10.5194 5.75 11.5C5.75 11.7761 5.97386 12 6.25 12C6.52614 12 6.75 11.7761 6.75 11.5C6.75 10.5194 6.96721 9.9274 7.3223 9.5723C7.6774 9.21721 8.26937 9 9.25 9C9.52614 9 9.75 8.77614 9.75 8.5C9.75 8.22386 9.52614 8 9.25 8C8.26937 8 7.6774 7.78279 7.3223 7.4277C6.96721 7.0726 6.75 6.48063 6.75 5.5Z" fill="currentColor" style="fill:currentColor;fill-opacity:1;"/>
<path d="M11.75 1.5C11.75 1.22386 11.5261 1 11.25 1C10.9739 1 10.75 1.22386 10.75 1.5C10.75 2.13341 10.6092 2.47538 10.4173 2.66728C10.2254 2.85918 9.88341 3 9.25 3C8.97386 3 8.75 3.22386 8.75 3.5C8.75 3.77614 8.97386 4 9.25 4C9.88341 4 10.2254 4.14082 10.4173 4.33272C10.6092 4.52462 10.75 4.86659 10.75 5.5C10.75 5.77614 10.9739 6 11.25 6C11.5261 6 11.75 5.77614 11.75 5.5C11.75 4.86659 11.8908 4.52462 12.0827 4.33272C12.2746 4.14082 12.6166 4 13.25 4C13.5261 4 13.75 3.77614 13.75 3.5C13.75 3.22386 13.5261 3 13.25 3C12.6166 3 12.2746 2.85918 12.0827 2.66728C11.8908 2.47538 11.75 2.13341 11.75 1.5Z" fill="currentColor" style="fill:currentColor;fill-opacity:1;"/>
</svg>
