<svg width="25" height="24" viewBox="0 0 25 24" fill="none" xmlns="http://www.w3.org/2000/svg">
<path d="M19.6364 2.34512C19.6142 2.14869 19.4481 2.0002 19.2504 2C19.0527 1.9998 18.8863 2.14794 18.8637 2.34433C18.7582 3.25861 18.4867 3.88584 18.0613 4.31127C17.6358 4.7367 17.0086 5.00822 16.0943 5.11367C15.8979 5.13632 15.7498 5.30271 15.75 5.5004C15.7502 5.69809 15.8987 5.86417 16.0951 5.88642C16.9939 5.98823 17.6355 6.25969 18.0717 6.68804C18.5056 7.11407 18.7822 7.74041 18.8626 8.64552C18.8805 8.84634 19.0488 9.00023 19.2504 9C19.452 8.99977 19.6201 8.84551 19.6374 8.64465C19.7145 7.75483 19.9909 7.11438 20.4276 6.67764C20.8644 6.24091 21.5048 5.96446 22.3946 5.88744C22.5955 5.87005 22.7498 5.70205 22.75 5.50044C22.7502 5.29883 22.5963 5.13048 22.3955 5.11264C21.4904 5.03224 20.8641 4.75557 20.438 4.3217C20.0097 3.88545 19.7382 3.24394 19.6364 2.34512Z" fill="currentColor" style="fill:currentColor;fill-opacity:1;"/>
<path d="M12.7436 4.88745C12.6864 4.38234 12.2594 4.00052 11.751 4C11.2427 3.99948 10.8148 4.38042 10.7566 4.88542C10.4854 7.23644 9.78724 8.84929 8.69327 9.94327C7.5993 11.0372 5.98644 11.7354 3.63542 12.0066C3.13042 12.0648 2.74948 12.4927 2.75 13.001C2.75052 13.5094 3.13234 13.9364 3.63745 13.9936C5.94871 14.2554 7.5983 14.9535 8.72008 16.055C9.83576 17.1505 10.5472 18.761 10.7539 21.0885C10.7998 21.6049 11.2327 22.0006 11.7511 22C12.2696 21.9994 12.7016 21.6027 12.7463 21.0862C12.9443 18.7981 13.6552 17.1513 14.7782 16.0282C15.9013 14.9052 17.5481 14.1943 19.8362 13.9963C20.3527 13.9516 20.7494 13.5196 20.75 13.0011C20.7506 12.4827 20.3549 12.0498 19.8385 12.0039C17.511 11.7972 15.9005 11.0858 14.805 9.97008C13.7035 8.8483 13.0054 7.19871 12.7436 4.88745Z" fill="currentColor" style="fill:currentColor;fill-opacity:1;"/>
</svg>
