<svg xmlns="http://www.w3.org/2000/svg" viewBox="0 0 24 24" fill="none">
<path d="M12 2C17.5229 2.00001 22 6.47716 22 12C22 14.9617 20.7111 17.6235 18.667 19.4531C18.2555 19.8214 17.6232 19.7865 17.2549 19.375C16.8867 18.9635 16.9215 18.3312 17.333 17.9629C18.9712 16.4966 20 14.3692 20 12C20 7.58173 16.4183 4.00001 12 4C7.58175 4 4 7.58172 4 12C4 14.3692 5.0288 16.4966 6.66699 17.9629C7.07848 18.3312 7.11332 18.9635 6.74512 19.375C6.37679 19.7865 5.74453 19.8215 5.33301 19.4531C3.2889 17.6235 2 14.9617 2 12C2 6.47716 6.47717 2 12 2Z" fill="currentColor"/><path d="M10.7139 11.4668C11.56 10.7571 12.8213 10.8678 13.5312 11.7139C14.6721 13.0736 15.3651 15.4672 15.6709 16.7412C15.7612 17.1174 15.4017 17.4189 15.0469 17.2646C13.8452 16.7423 11.6077 15.6439 10.4668 14.2842C9.75713 13.438 9.86784 12.1767 10.7139 11.4668Z" fill="currentColor"/>
</svg>
