<svg xmlns="http://www.w3.org/2000/svg" viewBox="0 0 24 24" fill="none">
<path d="M2.19336 10.0342C2.3014 9.49257 2.8285 9.14098 3.37012 9.24902C3.91138 9.35723 4.26209 9.88345 4.1543 10.4248C4.05289 10.9331 4 11.4601 4 12C4 14.3692 5.0288 16.4966 6.66699 17.9629C7.07848 18.3312 7.11332 18.9635 6.74512 19.375C6.37679 19.7865 5.74453 19.8215 5.33301 19.4531C3.2889 17.6235 2 14.9617 2 12C2 11.328 2.06642 10.6706 2.19336 10.0342Z" fill="currentColor"/><path d="M12 2C17.5229 2.00001 22 6.47716 22 12C22 14.9617 20.7111 17.6235 18.667 19.4531C18.2555 19.8214 17.6232 19.7865 17.2549 19.375C16.8867 18.9635 16.9215 18.3312 17.333 17.9629C18.9712 16.4966 20 14.3692 20 12C20 7.58173 16.4183 4.00001 12 4C9.38089 4 7.0557 5.25755 5.59473 7.20605C5.26343 7.64794 4.63622 7.73755 4.19434 7.40625C3.75284 7.07496 3.6632 6.44859 3.99414 6.00684C5.81652 3.57614 8.72452 2 12 2Z" fill="currentColor"/><path d="M7.67676 10.0332C8.98449 10.1131 11.4627 10.3801 13 11.2676C13.9565 11.8198 14.2844 13.0425 13.7324 13.999C13.1801 14.9556 11.9566 15.2837 11 14.7314C9.46282 13.8438 7.99353 11.8309 7.27051 10.7383C7.05707 10.4157 7.29081 10.0099 7.67676 10.0332Z" fill="currentColor"/>
</svg>
