<svg xmlns="http://www.w3.org/2000/svg" viewBox="0 0 24 24" fill="none">
<path d="M9.77832 2.24764C10.3168 2.12547 10.8532 2.46318 10.9756 3.00155C11.0978 3.54004 10.7601 4.07647 10.2217 4.19881C6.65922 5.00718 4.00004 8.19461 4 12.0006C4.0001 14.3697 5.02884 16.4973 6.66699 17.9635C7.07844 18.3318 7.11337 18.9641 6.74512 19.3756C6.37678 19.787 5.74451 19.822 5.33301 19.4537C3.2889 17.6241 2.0001 14.9622 2 12.0006C2.00004 7.24037 5.32504 3.25828 9.77832 2.24764Z" fill="currentColor"/><path d="M13.0244 3.00155C13.1468 2.46319 13.6832 2.12547 14.2217 2.24764C18.675 3.25829 22 7.24038 22 12.0006C21.9999 14.9622 20.7111 17.6241 18.667 19.4537C18.2555 19.822 17.6232 19.787 17.2549 19.3756C16.8866 18.9641 16.9216 18.3318 17.333 17.9635C18.9712 16.4973 19.9999 14.3697 20 12.0006C20 8.1946 17.3408 5.00718 13.7783 4.19881C13.2399 4.07647 12.9022 3.54004 13.0244 3.00155Z" fill="currentColor"/><path d="M11.5938 7.77303C11.7664 7.42682 12.2346 7.42682 12.4072 7.77303C12.992 8.94559 14.0009 11.2246 14.001 12.9996C14.001 14.104 13.1053 14.9993 12.001 14.9996C10.8964 14.9996 10.001 14.1042 10.001 12.9996C10.001 11.2246 11.009 8.94559 11.5938 7.77303Z" fill="currentColor"/>
</svg>
