<svg width="24" height="24" viewBox="0 0 24 24" fill="none" xmlns="http://www.w3.org/2000/svg">
  <path fill-rule="evenodd" clip-rule="evenodd"
    d="M12 1C5.95056 1 1 5.95056 1 12C1 18.0506 5.95056 23 12 23C18.0506 23 23 18.0506 23 12C23 5.95056 18.1047 1 12 1ZM17.06 16.8953C16.84 17.2247 16.4553 17.3353 16.1247 17.1153C13.54 15.52 10.2953 15.1906 6.44472 16.0706C6.06 16.18 5.73056 15.9047 5.62 15.5742C5.50944 15.1906 5.78472 14.86 6.11528 14.7506C10.2953 13.8142 13.9247 14.2 16.7847 15.96C17.1694 16.1247 17.2247 16.5647 17.06 16.8953ZM18.38 13.8706C18.1047 14.2542 17.6094 14.42 17.2247 14.1447C14.2553 12.3306 9.74472 11.78 6.28 12.88C5.84 12.9906 5.34472 12.7694 5.23528 12.3306C5.12472 11.8906 5.34472 11.3942 5.78472 11.2847C9.8 10.0753 14.7506 10.68 18.16 12.7694C18.4906 12.9353 18.6553 13.4847 18.38 13.8706ZM18.4906 10.7906C14.9706 8.7 9.08472 8.48 5.73056 9.52472C5.47518 9.59895 5.20099 9.57176 4.96517 9.4488C4.72934 9.32584 4.55007 9.11661 4.46472 8.86472C4.39082 8.60948 4.41818 8.33558 4.54111 8.10001C4.66404 7.86444 4.87308 7.68535 5.12472 7.6C9.03056 6.44472 15.4647 6.66472 19.5353 9.08472C20.0306 9.36 20.1953 10.02 19.92 10.5153C19.6447 10.9 18.9847 11.0647 18.4906 10.7906Z"
    fill="currentColor" />
</svg>
