<svg xmlns="http://www.w3.org/2000/svg" viewBox="0 0 24 24" fill="none">
<path fill-rule="evenodd" clip-rule="evenodd" d="M17 3C19.2091 3 21 4.79086 21 7V17C21 19.2091 19.2091 21 17 21H7C4.79086 21 3 19.2091 3 17V7C3 4.79086 4.79086 3 7 3H17ZM13.707 10.293C13.3165 9.90244 12.6835 9.90244 12.293 10.293L9 13.5859V12C9 11.4477 8.55228 11 8 11C7.44772 11 7 11.4477 7 12V16C7 16.5523 7.44772 17 8 17H12C12.5523 17 13 16.5523 13 16C13 15.4477 12.5523 15 12 15H10.4141L13.707 11.707C14.0976 11.3165 14.0976 10.6835 13.707 10.293Z" fill="currentColor"/>
</svg>
