<svg xmlns="http://www.w3.org/2000/svg" viewBox="0 0 24 24" fill="none">
<path fill-rule="evenodd" clip-rule="evenodd" d="M17 3C19.2091 3 21 4.79086 21 7V17C21 19.2091 19.2091 21 17 21H7C4.79086 21 3 19.2091 3 17V7C3 4.79086 4.79086 3 7 3H17ZM12 7C11.4477 7 11 7.44772 11 8C11 8.55228 11.4477 9 12 9H13.5859L10.293 12.293C9.90244 12.6835 9.90244 13.3165 10.293 13.707C10.6835 14.0976 11.3165 14.0976 11.707 13.707L15 10.4141V12C15 12.5523 15.4477 13 16 13C16.5523 13 17 12.5523 17 12V8C17 7.44772 16.5523 7 16 7H12Z" fill="currentColor"/>
</svg>
