<svg xmlns="http://www.w3.org/2000/svg" viewBox="0 0 24 24" fill="none">
<path fill-rule="evenodd" clip-rule="evenodd" d="M17 3C19.2091 3 21 4.79086 21 7V17C21 19.2091 19.2091 21 17 21H7C4.79086 21 3 19.2091 3 17V7C3 4.79086 4.79086 3 7 3H17ZM11.707 10.293C11.3165 9.90244 10.6835 9.90244 10.293 10.293C9.90244 10.6835 9.90244 11.3165 10.293 11.707L13.5859 15H12C11.4477 15 11 15.4477 11 16C11 16.5523 11.4477 17 12 17H16C16.5523 17 17 16.5523 17 16V12C17 11.4477 16.5523 11 16 11C15.4477 11 15 11.4477 15 12V13.5859L11.707 10.293Z" fill="currentColor"/>
</svg>
