<svg width="24" height="24" viewBox="0 0 24 24" fill="none" xmlns="http://www.w3.org/2000/svg">
<path fill-rule="evenodd" clip-rule="evenodd" d="M3.29289 3.29289C3.68342 2.90237 4.31658 2.90237 4.70711 3.29289L9 7.58579V4C9 3.44772 9.44772 3 10 3C10.5523 3 11 3.44772 11 4V9C11 10.1046 10.1046 11 9 11L4 11C3.44772 11 3 10.5523 3 10C3 9.44772 3.44772 9 4 9L7.58579 9L3.29289 4.70711C2.90237 4.31658 2.90237 3.68342 3.29289 3.29289ZM13 7C13 6.44772 13.4477 6 14 6H18C20.2091 6 22 7.79086 22 10V18C22 20.2091 20.2091 22 18 22H10C7.79086 22 6 20.2091 6 18V14C6 13.4477 6.44772 13 7 13C7.55228 13 8 13.4477 8 14V18C8 19.1046 8.89543 20 10 20H18C19.1046 20 20 19.1046 20 18V10C20 8.89543 19.1046 8 18 8H14C13.4477 8 13 7.55228 13 7Z" fill="currentColor" style="fill:currentColor;fill-opacity:1;"/>
</svg>
