<svg xmlns="http://www.w3.org/2000/svg" viewBox="0 0 24 24" fill="none">
<path fill-rule="evenodd" clip-rule="evenodd" d="M17 3C19.2091 3 21 4.79086 21 7V17C21 19.2091 19.2091 21 17 21H7C4.79086 21 3 19.2091 3 17V7C3 4.79086 4.79086 3 7 3H17ZM8 7C7.44772 7 7 7.44772 7 8V12C7 12.5523 7.44772 13 8 13C8.55228 13 9 12.5523 9 12V10.4141L12.293 13.707C12.6835 14.0976 13.3165 14.0976 13.707 13.707C14.0976 13.3165 14.0976 12.6835 13.707 12.293L10.4141 9H12C12.5523 9 13 8.55228 13 8C13 7.44772 12.5523 7 12 7H8Z" fill="currentColor"/>
</svg>
