<svg xmlns="http://www.w3.org/2000/svg" viewBox="0 0 24 24" fill="none">
<path d="M21 18C21.5523 18 22 18.4477 22 19C22 19.5523 21.5523 20 21 20H3C2.44772 20 2 19.5523 2 19C2 18.4477 2.44772 18 3 18H21Z" fill="currentColor"/><path d="M4.5 13C5.05228 13 5.5 13.4477 5.5 14V16C5.5 16.5523 5.05228 17 4.5 17C3.94772 17 3.5 16.5523 3.5 16V14C3.5 13.4477 3.94772 13 4.5 13Z" fill="currentColor"/><path d="M9.5 12C10.0523 12 10.5 12.4477 10.5 13V16C10.5 16.5523 10.0523 17 9.5 17C8.94772 17 8.5 16.5523 8.5 16V13C8.5 12.4477 8.94772 12 9.5 12Z" fill="currentColor"/><path d="M14.5 9.5C15.0523 9.5 15.5 9.94772 15.5 10.5V16C15.5 16.5523 15.0523 17 14.5 17C13.9477 17 13.5 16.5523 13.5 16V10.5C13.5 9.94772 13.9477 9.5 14.5 9.5Z" fill="currentColor"/><path d="M19.5 12.5C20.0523 12.5 20.5 12.9477 20.5 13.5V16C20.5 16.5523 20.0523 17 19.5 17C18.9477 17 18.5 16.5523 18.5 16V13.5C18.5 12.9477 18.9477 12.5 19.5 12.5Z" fill="currentColor"/><path d="M4.5 8C5.05228 8 5.5 8.44772 5.5 9V10.5C5.5 11.0523 5.05228 11.5 4.5 11.5C3.94772 11.5 3.5 11.0523 3.5 10.5V9C3.5 8.44772 3.94772 8 4.5 8Z" fill="currentColor"/><path d="M19.5 7.5C20.0523 7.5 20.5 7.94772 20.5 8.5V10C20.5 10.5523 20.0523 11 19.5 11C18.9477 11 18.5 10.5523 18.5 10V8.5C18.5 7.94772 18.9477 7.5 19.5 7.5Z" fill="currentColor"/><path d="M9.5 6C10.0523 6 10.5 6.44772 10.5 7V9.5C10.5 10.0523 10.0523 10.5 9.5 10.5C8.94772 10.5 8.5 10.0523 8.5 9.5V7C8.5 6.44772 8.94772 6 9.5 6Z" fill="currentColor"/><path d="M14.5 4C15.0523 4 15.5 4.44772 15.5 5V7C15.5 7.55228 15.0523 8 14.5 8C13.9477 8 13.5 7.55228 13.5 7V5C13.5 4.44772 13.9477 4 14.5 4Z" fill="currentColor"/>
</svg>
