<svg xmlns="http://www.w3.org/2000/svg" viewBox="0 0 24 24" fill="none">
<path d="M3 17V4C3 3.44772 3.44772 3 4 3C4.55228 3 5 3.44772 5 4V17C5 18.1046 5.89543 19 7 19H20C20.5523 19 21 19.4477 21 20C21 20.5523 20.5523 21 20 21H7C4.79086 21 3 19.2091 3 17ZM7 17V13C7 12.4477 7.44772 12 8 12C8.55228 12 9 12.4477 9 13V17C9 17.5523 8.55228 18 8 18C7.44772 18 7 17.5523 7 17ZM12 17V11C12 10.4477 12.4477 10 13 10C13.5523 10 14 10.4477 14 11V17C14 17.5523 13.5523 18 13 18C12.4477 18 12 17.5523 12 17ZM17 17V14C17 13.4477 17.4477 13 18 13C18.5523 13 19 13.4477 19 14V17C19 17.5523 18.5523 18 18 18C17.4477 18 17 17.5523 17 17ZM17 10V6C17 5.44772 17.4477 5 18 5C18.5523 5 19 5.44772 19 6V10C19 10.5523 18.5523 11 18 11C17.4477 11 17 10.5523 17 10ZM7 9V6C7 5.44772 7.44772 5 8 5C8.55228 5 9 5.44772 9 6V9C9 9.55228 8.55228 10 8 10C7.44772 10 7 9.55228 7 9ZM12 7V6C12 5.44772 12.4477 5 13 5C13.5523 5 14 5.44772 14 6V7C14 7.55228 13.5523 8 13 8C12.4477 8 12 7.55228 12 7Z" fill="currentColor"/>
</svg>
