<svg xmlns="http://www.w3.org/2000/svg" viewBox="0 0 24 24" fill="none">
<path d="M3 17V4C3 3.44772 3.44772 3 4 3C4.55228 3 5 3.44772 5 4V17C5 18.1046 5.89543 19 7 19H20C20.5523 19 21 19.4477 21 20C21 20.5523 20.5523 21 20 21H7C4.79086 21 3 19.2091 3 17Z" fill="currentColor"/><path d="M11 15C11.5523 15 12 15.4477 12 16C12 16.5523 11.5523 17 11 17H7C6.44772 17 6 16.5523 6 16C6 15.4477 6.44772 15 7 15H11ZM19 15C19.5523 15 20 15.4477 20 16C20 16.5523 19.5523 17 19 17H15C14.4477 17 14 16.5523 14 16C14 15.4477 14.4477 15 15 15H19ZM10 10.5C10.5523 10.5 11 10.9477 11 11.5C11 12.0523 10.5523 12.5 10 12.5H7C6.44772 12.5 6 12.0523 6 11.5C6 10.9477 6.44772 10.5 7 10.5H10ZM19 10.5C19.5523 10.5 20 10.9477 20 11.5C20 12.0523 19.5523 12.5 19 12.5H14C13.4477 12.5 13 12.0523 13 11.5C13 10.9477 13.4477 10.5 14 10.5H19ZM13 6C13.5523 6 14 6.44772 14 7C14 7.55228 13.5523 8 13 8H7C6.44772 8 6 7.55228 6 7C6 6.44772 6.44772 6 7 6H13ZM19 6C19.5523 6 20 6.44772 20 7C20 7.55228 19.5523 8 19 8H17C16.4477 8 16 7.55228 16 7C16 6.44772 16.4477 6 17 6H19Z" fill="currentColor"/>
</svg>
