<svg xmlns="http://www.w3.org/2000/svg" viewBox="0 0 24 24" fill="none">
<path d="M19.25 4C20.2165 4 21 4.7835 21 5.75V18C21.5523 18 22 18.4477 22 19C22 19.5523 21.5523 20 21 20H3C2.44772 20 2 19.5523 2 19C2 18.4477 2.44772 18 3 18V12.75C3 11.7835 3.7835 11 4.75 11C5.7165 11 6.5 11.7835 6.5 12.75V18H7.5V7.75C7.5 6.7835 8.2835 6 9.25 6C10.2165 6 11 6.7835 11 7.75V18H13V10.75C13 9.7835 13.7835 9 14.75 9C15.7165 9 16.5 9.7835 16.5 10.75V18H17.5V5.75C17.5 4.7835 18.2835 4 19.25 4Z" fill="currentColor"/>
</svg>
