<svg xmlns="http://www.w3.org/2000/svg" viewBox="0 0 24 24" fill="none">
<path d="M5.54688 2.33301C5.91523 1.92168 6.54753 1.88662 6.95898 2.25488C7.37026 2.62321 7.40527 3.25554 7.03711 3.66699C5.76974 5.08301 5 6.95042 5 9C5 13.4183 8.58172 17 13 17C15.3692 17 17.4966 15.9712 18.9629 14.333C19.3312 13.9215 19.9635 13.8867 20.375 14.2549C20.7865 14.6232 20.8215 15.2555 20.4531 15.667C18.8314 17.4788 16.5557 18.6947 13.9971 18.9482C13.9979 18.9654 14 18.9826 14 19V20H16.5C17.0523 20 17.5 20.4477 17.5 21C17.5 21.5523 17.0523 22 16.5 22H9.5C8.94772 22 8.5 21.5523 8.5 21C8.5 20.4477 8.94772 20 9.5 20H12V19C12 18.983 12.0011 18.9661 12.002 18.9492C6.94777 18.4483 3 14.186 3 9C3 6.43946 3.964 4.10153 5.54688 2.33301Z" fill="currentColor"/><path d="M13 2C16.866 2 20 5.13401 20 9C20 12.866 16.866 16 13 16C9.13401 16 6 12.866 6 9C6 5.13401 9.13401 2 13 2Z" fill="currentColor"/>
</svg>
