<svg width="25" height="24" viewBox="0 0 25 24" fill="none" xmlns="http://www.w3.org/2000/svg">
<path d="M5.99968 4.31963C5.74526 2.70661 7.42664 1.48502 8.88209 2.22543L12.8539 4.24597L16.8257 2.22543C18.2812 1.48502 19.9626 2.70661 19.7082 4.31963L19.0139 8.72144L22.1629 11.8745C23.3168 13.0299 22.6746 15.0065 21.0619 15.263L16.661 15.9629L14.6353 19.9321C13.8931 21.3866 11.8148 21.3866 11.0725 19.9321L9.59405 17.0351L6.17034 21.6C5.83896 22.0418 5.21216 22.1314 4.77033 21.8C4.32851 21.4686 4.23897 20.8418 4.57035 20.4L8.02064 15.7997L4.64594 15.263C3.03325 15.0065 2.39102 13.0299 3.54495 11.8745L6.69396 8.72144L5.99968 4.31963Z" fill="currentColor" style="fill:currentColor;fill-opacity:1;"/>
</svg>
