<svg width="24" height="24" viewBox="0 0 24 24" fill="none" xmlns="http://www.w3.org/2000/svg">
<path fill-rule="evenodd" clip-rule="evenodd" d="M12.0016 1.09961C12.4986 1.09961 12.9016 1.50255 12.9016 1.99961V3.14455C14.6842 3.32357 16.3118 4.02866 17.6266 5.10225L18.4369 4.29192C18.7884 3.94045 19.3583 3.94045 19.7097 4.29192C20.0612 4.6434 20.0612 5.21324 19.7097 5.56472L18.8994 6.37509C19.9727 7.68983 20.6776 9.31717 20.8566 11.0996H22.0016C22.4986 11.0996 22.9016 11.5026 22.9016 11.9996C22.9016 12.4967 22.4986 12.8996 22.0016 12.8996H20.8566C20.6776 14.6821 19.9727 16.3095 18.8993 17.6243L19.709 18.4341C20.0605 18.7855 20.0605 19.3554 19.709 19.7069C19.3576 20.0583 18.7877 20.0583 18.4363 19.7069L17.6265 18.8971C16.3117 19.9706 14.6842 20.6757 12.9016 20.8547V21.9996C12.9016 22.4967 12.4986 22.8996 12.0016 22.8996C11.5045 22.8996 11.1016 22.4967 11.1016 21.9996V20.8547C9.31913 20.6757 7.69179 19.9708 6.37704 18.8974L5.5676 19.7069C5.21613 20.0583 4.64628 20.0583 4.29481 19.7069C3.94334 19.3554 3.94334 18.7855 4.29481 18.4341L5.1042 17.6247C4.03061 16.3098 3.32553 14.6823 3.1465 12.8996H2.00156C1.50451 12.8996 1.10156 12.4967 1.10156 11.9996C1.10156 11.5026 1.50451 11.0996 2.00156 11.0996H3.1465C3.32552 9.31699 4.03056 7.6895 5.10409 6.37469L4.29412 5.56472C3.94265 5.21324 3.94265 4.6434 4.29412 4.29192C4.64559 3.94045 5.21544 3.94045 5.56691 4.29192L6.37691 5.10192C7.69168 4.02851 9.31907 3.32355 11.1016 3.14455V1.99961C11.1016 1.50255 11.5045 1.09961 12.0016 1.09961ZM11.1016 4.95611C9.81448 5.11892 8.63481 5.6263 7.6579 6.38291L11.1016 9.82657V4.95611ZM9.82901 11.0996L6.38507 7.65567C5.62835 8.63264 5.12089 9.81241 4.95806 11.0996H9.82901ZM4.95806 12.8996C5.1209 14.1869 5.6284 15.3667 6.38518 16.3437L9.82926 12.8996H4.95806ZM11.1016 14.1729L7.65803 17.6164C8.63492 18.373 9.81454 18.8803 11.1016 19.0431V14.1729ZM12.9016 19.0431C14.1888 18.8803 15.3685 18.3728 16.3455 17.6161L12.9016 14.1722V19.0431ZM14.1746 12.8996L17.6183 16.3433C18.3749 15.3664 18.8822 14.1867 19.0451 12.8996H14.1746ZM19.0451 11.0996C18.8823 9.81259 18.3749 8.63297 17.6184 7.65608L14.1748 11.0996H19.0451ZM12.9016 9.82731L16.3456 6.38323C15.3686 5.62645 14.1888 5.11895 12.9016 4.95611V9.82731Z" fill="currentColor"/>
</svg>
