<svg xmlns="http://www.w3.org/2000/svg" viewBox="0 0 24 24" fill="none">
<path d="M6 2C6.55228 2 7 2.44772 7 3C7 3.55228 6.55228 4 6 4H5V8.5C5 10.433 6.567 12 8.5 12C10.433 12 12 10.433 12 8.5V4H11C10.4477 4 10 3.55228 10 3C10 2.44772 10.4477 2 11 2H13C13.5523 2 14 2.44772 14 3V8.5C14 11.1959 12.0599 13.4368 9.5 13.9072V16.25C9.5 18.3211 11.1789 20 13.25 20C15.3211 20 17 18.3211 17 16.25V14.0752C15.8355 13.663 15 12.5557 15 11.25C15 9.59315 16.3431 8.25 18 8.25C19.6569 8.25 21 9.59315 21 11.25C21 12.5557 20.1645 13.663 19 14.0752V16.25C19 19.4256 16.4256 22 13.25 22C10.0744 22 7.5 19.4256 7.5 16.25V13.9072C4.94007 13.4368 3 11.1959 3 8.5V3C3 2.44772 3.44772 2 4 2H6Z" fill="currentColor"/>
</svg>
