<svg width="24" height="24" viewBox="0 0 24 24" fill="none" xmlns="http://www.w3.org/2000/svg">
<path fill-rule="evenodd" clip-rule="evenodd" d="M2.88758 5.8069C3.40942 4.137 4.95596 3 6.7055 3H17.2943C19.0439 3 20.5904 4.137 21.1123 5.8069L21.7787 7.9394C22.2061 9.30721 21.8438 10.6871 20.9999 11.6597V17C20.9999 19.2091 19.2091 21 16.9999 21H6.99992C4.79078 21 2.99992 19.2091 2.99992 17V11.6597C2.15607 10.6871 1.79373 9.30721 2.22117 7.9394L2.88758 5.8069ZM14.0735 8.65106L13.6171 5H10.3827L9.92632 8.65106C9.77041 9.89833 10.7429 11 11.9999 11C13.2568 11 14.2292 9.89818 14.0735 8.65106ZM8.36714 5H6.7055C5.83072 5 5.05746 5.5685 4.79654 6.40345L4.13013 8.53595C3.74821 9.75809 4.66125 11 5.94167 11C6.89885 11 7.70623 10.2873 7.82496 9.33747L8.36714 5ZM15.6327 5L16.0581 8.40299L16.1749 9.33747C16.2936 10.2873 17.101 11 18.0582 11C19.3386 11 20.2516 9.75809 19.8697 8.53595L19.2033 6.40345C18.9424 5.5685 18.1691 5 17.2943 5H15.6327Z" fill="currentColor" style="fill:currentColor;fill-opacity:1;"/>
</svg>
