<svg width="24" height="24" viewBox="0 0 24 24" fill="none" xmlns="http://www.w3.org/2000/svg">
<path d="M14.2497 3H9.74967L9.4456 7.25699C9.33973 8.73922 10.5137 10 11.9997 10C13.4857 10 14.6596 8.73922 14.5537 7.25699L14.2497 3Z" fill="currentColor" style="fill:currentColor;fill-opacity:1;"/>
<path d="M21.4904 6.43431C21.2089 4.46372 19.5212 3 17.5306 3H16.2498L16.5826 7.66044C16.6768 8.97866 17.7737 10 19.0953 10C20.6282 10 21.8058 8.64227 21.589 7.12472L21.4904 6.43431Z" fill="currentColor" style="fill:currentColor;fill-opacity:1;"/>
<path d="M2.50919 6.43431C2.7907 4.46372 4.47838 3 6.46898 3H7.7498L7.41691 7.66044C7.32275 8.97866 6.22586 10 4.90428 10C3.37132 10 2.19376 8.64227 2.41056 7.12472L2.50919 6.43431Z" fill="currentColor" style="fill:currentColor;fill-opacity:1;"/>
<path d="M2.99976 11.5814V17C2.99976 19.2092 4.79062 21 6.99976 21H16.9998C19.2089 21 20.9998 19.2092 20.9998 17V11.5813C20.4234 11.8494 19.779 12 19.0952 12C17.6685 12 16.3879 11.3366 15.5573 10.293C14.7241 11.3306 13.4447 12 11.9996 12C10.5545 12 9.2751 11.3306 8.44196 10.2931C7.61134 11.3367 6.33072 12 4.90417 12C4.2204 12 3.57604 11.8495 2.99976 11.5814Z" fill="currentColor" style="fill:currentColor;fill-opacity:1;"/>
</svg>
