<svg width="24" height="24" viewBox="0 0 24 24" fill="none" xmlns="http://www.w3.org/2000/svg">
<path d="M3.00049 12.5287C3.66325 12.8302 4.40462 13.0001 5.19696 13.0001C6.0136 13.0001 6.78829 12.8146 7.47995 12.4844C8.16733 12.8146 8.93801 13.0001 9.7507 13.0001C10.5552 13.0001 11.3185 12.8183 12.0007 12.4943C12.6829 12.8183 13.4462 13.0001 14.2507 13.0001C15.0634 13.0001 15.8341 12.8146 16.5215 12.4844C17.2131 12.8146 17.9878 13.0001 18.8044 13.0001C19.5966 13.0001 20.3378 12.8302 21.0005 12.5289V17C21.0005 19.2092 19.2096 21 17.0005 21H7.00049C4.79135 21 3.00049 19.2092 3.00049 17V12.5287Z" fill="currentColor" style="fill:currentColor;fill-opacity:1;"/>
<path d="M6.16291 3C4.44119 3 2.91263 4.10172 2.36818 5.73509L2.06269 6.65153C1.3496 8.7908 2.9419 11 5.19689 11C6.08484 11 6.89097 10.6497 7.48462 10.0797C8.07005 10.6493 8.86938 11 9.75063 11C10.6239 11 11.4167 10.6556 12.0006 10.0952C12.5846 10.6556 13.3774 11 14.2506 11C15.1319 11 15.9312 10.6493 16.5166 10.0797C17.1103 10.6497 17.9164 11 18.8044 11C21.0594 11 22.6517 8.7908 21.9386 6.65153L21.6331 5.73509C21.0886 4.10172 19.5601 3 17.8384 3H6.16291Z" fill="currentColor" style="fill:currentColor;fill-opacity:1;"/>
</svg>
