<svg width="24" height="24" viewBox="0 0 24 24" fill="none" xmlns="http://www.w3.org/2000/svg">
<path d="M21 8L18.9 5.2C18.3334 4.44458 17.4443 4 16.5 4H7.5C6.55573 4 5.66656 4.44458 5.1 5.2L3 8M21 8V9C21 9.8885 20.6137 10.6868 20 11.2361M21 8H3M3 8V9C3 9.8885 3.38625 10.6868 4 11.2361M15 9C15 10.6569 16.3431 12 18 12C18.7684 12 19.4692 11.7111 20 11.2361M15 9V8M15 9C15 10.6569 13.6569 12 12 12C10.3431 12 9 10.6569 9 9M9 9C9 10.6569 7.65685 12 6 12C5.23165 12 4.53076 11.7111 4 11.2361M9 9V8M14 20L14 17C14 15.8954 13.1046 15 12 15C10.8954 15 10 15.8954 10 17L10 20M4 11.2361V17C4 18.6569 5.34315 20 7 20H17C18.6569 20 20 18.6569 20 17V11.2361" stroke="currentColor" stroke-width="2" stroke-linecap="round" stroke-linejoin="round"/>
</svg>
