<svg width="24" height="24" viewBox="0 0 24 24" fill="none" xmlns="http://www.w3.org/2000/svg">
<path fill-rule="evenodd" clip-rule="evenodd" d="M1.44308 11.2001C1.97461 9.87133 3.26159 9 4.69275 9H11.3076C12.7388 9 14.0257 9.87133 14.5573 11.2001L14.8665 11.9733C15.3705 13.2333 14.9391 14.5655 14.0002 15.3379V17C14.0002 19.2091 12.2093 21 10.0002 21H6.00017C3.79103 21 2.00017 19.2091 2.00017 17V15.3379C1.06126 14.5655 0.629815 13.2333 1.1338 11.9733L1.44308 11.2001ZM6.89748 12.6989C6.78424 13.38 7.30958 14 8.00017 14C8.69091 14 9.21634 13.3798 9.10278 12.6984L8.81971 11H7.18063L6.89748 12.6989ZM5.15304 11L4.78342 13.2177C4.70819 13.6691 4.31762 14 3.85998 14C3.19766 14 2.74477 13.3311 2.99075 12.7161L3.30004 11.9429C3.52783 11.3734 4.0794 11 4.69275 11H5.15304ZM10.8473 11L11.2169 13.2177C11.2922 13.6691 11.6827 14 12.1404 14C12.8027 14 13.2556 13.3311 13.0096 12.7161L12.7003 11.9429C12.4725 11.3734 11.9209 11 11.3076 11H10.8473Z" fill="currentColor"/>
<path fill-rule="evenodd" clip-rule="evenodd" d="M13.0312 3C11.3956 3 9.92479 3.9958 9.31734 5.51444L9.27167 5.62861C9.06655 6.14139 9.31597 6.72336 9.82875 6.92848C10.3415 7.13359 10.9235 6.88417 11.1286 6.37139L11.1743 6.25722C11.478 5.4979 12.2134 5 13.0312 5H13.153L13.0137 5.8356C12.923 6.38037 13.291 6.8956 13.8357 6.98639C14.3805 7.07719 14.8957 6.70917 14.9865 6.1644L15.1806 5H16.8195L17.1026 6.69841C17.1841 7.18768 16.9366 7.64906 16.527 7.869C16.0404 8.13022 15.8577 8.73645 16.1189 9.22305C16.2992 9.55894 16.6439 9.75002 17.0002 9.75026V13.9788C17 13.9858 16.9999 13.9929 16.9999 14C16.9999 14.5523 17.4477 15 17.9999 15C20.2091 15 21.9999 13.2091 21.9999 11V9.33803C22.939 8.56571 23.3705 7.23339 22.8665 5.97335L22.683 5.51444C22.0755 3.99581 20.6047 3 18.969 3H13.0312ZM19.2169 7.21766L18.8471 5H18.969C19.7869 5 20.5223 5.4979 20.826 6.25722L21.0096 6.71613C21.2555 7.33107 20.8027 8 20.1403 8C19.6827 8 19.2921 7.66908 19.2169 7.21766Z" fill="currentColor"/>
</svg>
