<svg width="24" height="24" viewBox="0 0 24 24" fill="none" xmlns="http://www.w3.org/2000/svg">
<path d="M11.9991 2C9.76901 2 8.12471 2.73239 7.03691 3.83592C5.9668 4.92149 5.49907 6.30344 5.49907 7.5C5.49907 8.40078 5.70945 9.18427 6.111 9.85466C6.38191 10.3069 6.72503 10.6832 7.10917 11H3C2.44772 11 2 11.4477 2 12C2 12.5523 2.44772 13 3 13H21C21.5523 13 22 12.5523 22 12C22 11.4477 21.5523 11 21 11H12.2552C10.8346 10.6208 9.62098 10.277 8.7472 9.72079C8.32913 9.45468 8.02725 9.1617 7.82676 8.82697C7.62991 8.49831 7.49907 8.077 7.49907 7.5C7.49907 6.79772 7.78133 5.92967 8.46123 5.23995C9.12342 4.56819 10.2291 4 11.9991 4C13.8263 4 14.8513 4.60867 15.4537 5.24681C16.0851 5.91558 16.3441 6.71649 16.4455 7.20375C16.558 7.74445 17.0876 8.09155 17.6283 7.97902C18.169 7.8665 18.5161 7.33695 18.4035 6.79625C18.261 6.11113 17.8881 4.91204 16.9081 3.87391C15.8992 2.80514 14.3335 2 11.9991 2Z" fill="currentColor" style="fill:currentColor;fill-opacity:1;"/>
<path d="M18.7146 15.8854C18.6513 15.3367 18.1552 14.9433 17.6066 15.0066C17.0579 15.0699 16.6645 15.566 16.7278 16.1146C16.7416 16.234 16.7491 16.3622 16.7491 16.5C16.7491 17.7958 15.499 20 11.9991 20C10.1706 20 9.04392 19.3888 8.33175 18.7138C7.59605 18.0166 7.23897 17.1882 7.08181 16.6959C6.91386 16.1698 6.3512 15.8794 5.82507 16.0474C5.29894 16.2153 5.00858 16.778 5.17654 17.3041C5.39363 17.9842 5.89068 19.1558 6.95596 20.1654C8.04476 21.1974 9.66586 22 11.9991 22C16.4992 22 18.7491 19.0019 18.7491 16.5C18.7491 16.2896 18.7376 16.0847 18.7146 15.8854Z" fill="currentColor" style="fill:currentColor;fill-opacity:1;"/>
</svg>
