<svg width="24" height="24" viewBox="0 0 24 24" fill="none" xmlns="http://www.w3.org/2000/svg">
<path fill-rule="evenodd" clip-rule="evenodd" d="M2.35984 5.2318C2.78412 4.87824 3.41468 4.93556 3.76825 5.35984L8.00003 10.438L12.2318 5.35984C12.5854 4.93556 13.2159 4.87824 13.6402 5.2318C14.0645 5.58537 14.1218 6.21593 13.7682 6.64021L9.30173 12L13.7682 17.3598C14.1218 17.7841 14.0645 18.4147 13.6402 18.7682C13.2159 19.1218 12.5854 19.0645 12.2318 18.6402L8.00003 13.5621L3.76825 18.6402C3.41468 19.0645 2.78412 19.1218 2.35984 18.7682C1.93556 18.4147 1.87824 17.7841 2.2318 17.3598L6.69832 12L2.2318 6.64021C1.87824 6.21593 1.93556 5.58537 2.35984 5.2318ZM19.0052 14C18.5109 14 18.206 14.2669 18.0726 14.6653C17.8973 15.189 17.3306 15.4714 16.8069 15.296C16.2832 15.1207 16.0008 14.554 16.1761 14.0303C16.5543 12.9005 17.5657 12 19.0052 12C20.598 12 22 13.1531 22 14.9309C22 15.7663 21.5536 16.4323 21.1174 16.9157C20.6887 17.3907 20.137 17.8311 19.6632 18.2092L19.6239 18.2406C19.2778 18.517 18.9708 18.7638 18.7131 19H21C21.5523 19 22 19.4477 22 20C22 20.5523 21.5523 21 21 21H17C16.4477 21 16 20.5523 16 20C16 19.1631 16.4436 18.4948 16.8809 18.0076C17.3134 17.526 17.8704 17.0813 18.3474 16.7005L18.3761 16.6776C18.8937 16.2644 19.3232 15.9186 19.6326 15.5758C19.9464 15.228 20 15.0291 20 14.9309C20 14.3817 19.6216 14 19.0052 14Z" fill="currentColor" style="fill:currentColor;fill-opacity:1;"/>
</svg>
