<svg width="24" height="24" viewBox="0 0 24 24" fill="none" xmlns="http://www.w3.org/2000/svg">
<path d="M8.99955 13L10.9995 14.75L14.4995 9.75004M9.77368 3.9759L9.87823 3.87136C11.0498 2.69978 12.9493 2.69978 14.1209 3.87136L14.2254 3.9759C14.7691 4.51959 15.5065 4.82504 16.2754 4.82504C17.8766 4.82504 19.1745 6.12302 19.1745 7.72417C19.1745 8.49307 19.48 9.23048 20.0237 9.77417L20.1282 9.87872C21.2998 11.0503 21.2998 12.9498 20.1282 14.1214L20.0237 14.2259C19.48 14.7696 19.1745 15.507 19.1745 16.2759C19.1745 17.877 17.8766 19.175 16.2754 19.175C15.5065 19.175 14.7691 19.4805 14.2254 20.0242L14.1209 20.1287C12.9493 21.3003 11.0498 21.3003 9.87823 20.1287L9.77368 20.0242C9.22999 19.4805 8.49258 19.175 7.72369 19.175C6.12254 19.175 4.82455 17.877 4.82455 16.2759C4.82455 15.507 4.5191 14.7696 3.97541 14.2259L3.87087 14.1214C2.69929 12.9498 2.69929 11.0503 3.87087 9.87872L3.97541 9.77417C4.5191 9.23048 4.82455 8.49307 4.82455 7.72417C4.82455 6.12302 6.12254 4.82504 7.72369 4.82504C8.49258 4.82504 9.22999 4.51959 9.77368 3.9759Z" stroke="currentColor" stroke-width="2" stroke-linecap="round" stroke-linejoin="round"/>
</svg>
