<svg width="24" height="24" viewBox="0 0 24 24" fill="none" xmlns="http://www.w3.org/2000/svg">
<path fill-rule="evenodd" clip-rule="evenodd" d="M10.0467 2.89094C11.0788 1.70302 12.9233 1.70302 13.9554 2.89094L14.7594 3.81628C14.8927 3.96967 15.0957 4.04354 15.2964 4.0117L16.507 3.81965C18.0613 3.57309 19.4742 4.75869 19.5013 6.33214L19.5224 7.55778C19.5259 7.76096 19.6339 7.94799 19.8081 8.05261L20.859 8.6837C22.2081 9.49389 22.5284 11.3103 21.5377 12.5331L20.7661 13.4855C20.6381 13.6434 20.6006 13.8561 20.6668 14.0482L21.0662 15.2072C21.5789 16.695 20.6567 18.2923 19.1118 18.5922L17.9085 18.8258C17.709 18.8646 17.5436 19.0034 17.4708 19.1931L17.0318 20.3376C16.4682 21.8069 14.7349 22.4378 13.3587 21.6745L12.2868 21.08C12.109 20.9814 11.8931 20.9814 11.7154 21.08L10.6434 21.6745C9.2672 22.4378 7.53398 21.8069 6.97038 20.3376L6.53136 19.1931C6.45858 19.0034 6.29314 18.8646 6.09365 18.8258L4.8903 18.5922C3.34545 18.2923 2.42322 16.695 2.93592 15.2072L3.33529 14.0482C3.4015 13.8561 3.36399 13.6434 3.23607 13.4855L2.46441 12.5331C1.47376 11.3103 1.79404 9.49389 3.14315 8.6837L4.19404 8.05261C4.36825 7.94799 4.47623 7.76096 4.47973 7.55778L4.50083 6.33214C4.52791 4.75869 5.94085 3.57309 7.4951 3.81965L8.70579 4.0117C8.90649 4.04354 9.10943 3.96967 9.24271 3.81628L10.0467 2.89094ZM15.2082 11.2071C15.5987 10.8166 15.5987 10.1834 15.2082 9.79289C14.8177 9.40237 14.1845 9.40237 13.794 9.79289L11.0011 12.5858L10.2082 11.7929C9.81765 11.4024 9.18449 11.4024 8.79396 11.7929C8.40344 12.1834 8.40344 12.8166 8.79396 13.2071L9.94041 14.3536C10.5262 14.9393 11.4759 14.9393 12.0617 14.3536L15.2082 11.2071Z" fill="currentColor" style="fill:currentColor;fill-opacity:1;"/>
</svg>
