<svg width="24" height="24" viewBox="0 0 24 24" fill="none" xmlns="http://www.w3.org/2000/svg">
<path fill-rule="evenodd" clip-rule="evenodd" d="M13 2C15.2091 2 17 3.79086 17 6H18C20.2091 6 22 7.79086 22 10V17C22 19.2091 20.2091 21 18 21H6C3.79086 21 2 19.2091 2 17V10C2 7.79086 3.79086 6 6 6H7C7 3.79086 8.79086 2 11 2H13ZM9 6C9 4.89543 9.89543 4 11 4H13C14.1046 4 15 4.89543 15 6H9ZM6.80315 11.5214C6.28417 11.7102 6.01658 12.2841 6.20548 12.8031L6.58826 13.8548C6.77715 14.3737 7.351 14.6413 7.86998 14.4524L10.8555 13.3658C11.3744 13.1769 11.642 12.6031 11.4531 12.0841L11.0703 11.0324C10.8815 10.5134 10.3076 10.2458 9.78863 10.4347L6.80315 11.5214ZM17.9661 14.9125C17.7695 16.0969 16.7402 17 15.5 17C14.1193 17 13 15.8807 13 14.5C13 13.2598 13.9031 12.2305 15.0875 12.0339C15.3491 11.9904 15.6054 12.1054 15.7929 12.2929L17.7071 14.2071C17.8946 14.3947 18.0096 14.6509 17.9661 14.9125Z" fill="currentColor" style="fill:currentColor;fill-opacity:1;"/>
</svg>
