<svg xmlns="http://www.w3.org/2000/svg" viewBox="0 0 24 24" fill="none">
<path d="M12 20C12.5523 20 13 20.4477 13 21V21.5C13 22.0523 12.5523 22.5 12 22.5C11.4477 22.5 11 22.0523 11 21.5V21C11 20.4477 11.4477 20 12 20Z" fill="currentColor"/><path d="M4.92871 17.6572C5.31923 17.2667 5.95225 17.2667 6.34277 17.6572C6.7333 18.0478 6.7333 18.6808 6.34277 19.0713L5.98926 19.4248C5.59871 19.8151 4.96563 19.8152 4.5752 19.4248C4.18477 19.0344 4.18493 18.4013 4.5752 18.0107L4.92871 17.6572Z" fill="currentColor"/><path d="M17.6572 17.6572C18.0478 17.2667 18.6808 17.2667 19.0713 17.6572L19.4248 18.0107C19.8151 18.4013 19.8152 19.0344 19.4248 19.4248C19.0344 19.8152 18.4013 19.8151 18.0107 19.4248L17.6572 19.0713C17.2667 18.6808 17.2667 18.0478 17.6572 17.6572Z" fill="currentColor"/><path d="M7.75781 7.75781C10.101 5.41467 13.899 5.41467 16.2422 7.75781C18.5853 10.101 18.5853 13.899 16.2422 16.2422C13.899 18.5853 10.101 18.5853 7.75781 16.2422C5.41467 13.899 5.41467 10.101 7.75781 7.75781Z" fill="currentColor"/><path d="M3 11C3.55228 11 3.99999 11.4477 4 12C4 12.5523 3.55228 13 3 13H2.5C1.94772 13 1.5 12.5523 1.5 12C1.50001 11.4477 1.94772 11 2.5 11H3Z" fill="currentColor"/><path d="M21.5 11C22.0523 11 22.5 11.4477 22.5 12C22.5 12.5523 22.0523 13 21.5 13H21C20.4477 13 20 12.5523 20 12C20 11.4477 20.4477 11 21 11H21.5Z" fill="currentColor"/><path d="M4.5752 4.5752C4.96563 4.18476 5.59871 4.18493 5.98926 4.5752L6.34277 4.92871C6.7333 5.31924 6.7333 5.95225 6.34277 6.34277C5.95225 6.7333 5.31924 6.7333 4.92871 6.34277L4.5752 5.98926C4.18493 5.59871 4.18476 4.96563 4.5752 4.5752Z" fill="currentColor"/><path d="M18.0107 4.5752C18.4013 4.18493 19.0344 4.18477 19.4248 4.5752C19.8152 4.96563 19.8151 5.59871 19.4248 5.98926L19.0713 6.34277C18.6808 6.7333 18.0478 6.7333 17.6572 6.34277C17.2667 5.95225 17.2667 5.31923 17.6572 4.92871L18.0107 4.5752Z" fill="currentColor"/><path d="M12 1.5C12.5523 1.5 13 1.94772 13 2.5V3C13 3.55228 12.5523 4 12 4C11.4477 4 11 3.55228 11 3V2.5C11 1.94772 11.4477 1.5 12 1.5Z" fill="currentColor"/>
</svg>
