<svg xmlns="http://www.w3.org/2000/svg" viewBox="0 0 24 24" fill="none">
<g clip-path="url(#clip0_14944_27766)"><path d="M12 20C12.5523 20 13 20.4477 13 21V23C13 23.5523 12.5523 24 12 24C11.4477 24 11 23.5523 11 23V21C11 20.4477 11.4477 20 12 20Z" fill="currentColor"/><path d="M4.92871 17.6572C5.31923 17.2667 5.95225 17.2667 6.34277 17.6572C6.7333 18.0478 6.7333 18.6808 6.34277 19.0713L4.92871 20.4854C4.53818 20.8757 3.90513 20.8758 3.51465 20.4854C3.12418 20.0949 3.12427 19.4618 3.51465 19.0713L4.92871 17.6572Z" fill="currentColor"/><path d="M17.6572 17.6572C18.0478 17.2667 18.6808 17.2667 19.0713 17.6572L20.4854 19.0713C20.8757 19.4618 20.8758 20.0949 20.4854 20.4854C20.0949 20.8758 19.4618 20.8757 19.0713 20.4854L17.6572 19.0713C17.2667 18.6808 17.2667 18.0478 17.6572 17.6572Z" fill="currentColor"/><path d="M7.75781 7.75781C10.101 5.41467 13.899 5.41467 16.2422 7.75781C18.5853 10.101 18.5853 13.899 16.2422 16.2422C13.899 18.5853 10.101 18.5853 7.75781 16.2422C5.41467 13.899 5.41467 10.101 7.75781 7.75781Z" fill="currentColor"/><path d="M3 11C3.55228 11 3.99999 11.4477 4 12C4 12.5523 3.55228 13 3 13H1C0.447715 13 0 12.5523 0 12C1.03079e-05 11.4477 0.447722 11 1 11H3Z" fill="currentColor"/><path d="M23 11C23.5523 11 24 11.4477 24 12C24 12.5523 23.5523 13 23 13H21C20.4477 13 20 12.5523 20 12C20 11.4477 20.4477 11 21 11H23Z" fill="currentColor"/><path d="M3.51465 3.51465C3.90513 3.12418 4.53818 3.12427 4.92871 3.51465L6.34277 4.92871C6.7333 5.31923 6.73329 5.95225 6.34277 6.34277C5.95225 6.7333 5.31923 6.7333 4.92871 6.34277L3.51465 4.92871C3.12427 4.53818 3.12417 3.90512 3.51465 3.51465Z" fill="currentColor"/><path d="M19.0713 3.51465C19.4618 3.12428 20.0949 3.12419 20.4854 3.51465C20.8758 3.90512 20.8757 4.53817 20.4854 4.92871L19.0713 6.34277C18.6808 6.7333 18.0478 6.7333 17.6572 6.34277C17.2667 5.95225 17.2667 5.31923 17.6572 4.92871L19.0713 3.51465Z" fill="currentColor"/><path d="M12 0C12.5523 0 13 0.447715 13 1V3C13 3.55228 12.5523 4 12 4C11.4477 4 11 3.55228 11 3V1C11 0.447715 11.4477 0 12 0Z" fill="currentColor"/></g><defs><clipPath id="clip0_14944_27766"><rect width="24" height="24" fill="white"/></clipPath></defs>
</svg>
