<svg xmlns="http://www.w3.org/2000/svg" viewBox="0 0 24 24" fill="none">
<path d="M17.3333 17.9627C17.7448 17.5945 18.3771 17.6293 18.7454 18.0408C19.1136 18.4523 19.0786 19.0846 18.6673 19.4529C17.1584 20.8034 15.2344 21.7034 13.1097 21.9383C12.5607 21.9989 12.0668 21.6034 12.0061 21.0545C11.9455 20.5056 12.341 20.0117 12.8899 19.951C14.5869 19.7634 16.1245 19.0446 17.3333 17.9627ZM7.05009 15.5349C7.44053 15.1445 8.07361 15.1447 8.46415 15.5349C9.37007 16.4409 10.6193 16.9998 12.0003 16.9998C12.5524 16.9999 13.0003 17.4476 13.0003 17.9998C13.0002 18.5519 12.5524 18.9996 12.0003 18.9998C10.0676 18.9998 8.31574 18.2147 7.05009 16.949C6.6598 16.5585 6.65966 15.9254 7.05009 15.5349ZM2.94462 12.0057C3.49342 11.945 3.98821 12.3407 4.04911 12.8894C4.22132 14.4468 4.84072 15.8703 5.77763 17.0281C6.12477 17.4574 6.0584 18.087 5.62919 18.4344C5.19991 18.7817 4.57038 18.7151 4.22294 18.2859C3.05294 16.8401 2.27647 15.0596 2.06083 13.1101C2.00015 12.5613 2.3959 12.0666 2.94462 12.0057ZM17.0003 11.9998C17.0003 10.731 16.5289 9.57422 15.7503 8.69218C15.3848 8.27813 15.4241 7.64653 15.8382 7.28104C16.2522 6.91556 16.8838 6.9549 17.2493 7.36893C18.3381 8.60235 19.0003 10.2251 19.0003 11.9998C19.0002 13.7744 18.338 15.3973 17.2493 16.6307C16.8839 17.0444 16.2521 17.0837 15.8382 16.7185C15.4241 16.3531 15.3848 15.7205 15.7503 15.3064C16.5287 14.4245 17.0002 13.2684 17.0003 11.9998ZM8.00028 11.9998C8.00028 10.8955 8.44842 9.89345 9.17118 9.17069C9.58769 8.75418 10.097 8.42862 10.6663 8.22733C11.1869 8.04332 11.7585 8.31621 11.9427 8.83671C12.1267 9.35741 11.854 9.92901 11.3333 10.1131C11.0504 10.2131 10.7958 10.3761 10.5862 10.5857C10.2232 10.9488 10.0003 11.4472 10.0003 11.9998C10.0003 12.5523 10.2233 13.0509 10.5862 13.4139C10.9492 13.7767 11.4479 13.9998 12.0003 13.9998C12.5527 13.9997 13.0514 13.7768 13.4143 13.4139C13.6238 13.2044 13.786 12.9495 13.886 12.6668C14.0701 12.1461 14.6417 11.8733 15.1624 12.0574C15.683 12.2415 15.9557 12.8122 15.7718 13.3328C15.5705 13.9021 15.2449 14.4114 14.8284 14.8279C14.1057 15.5506 13.1045 15.9997 12.0003 15.9998C10.896 15.9998 9.89394 15.5507 9.17118 14.8279C8.44861 14.1052 8.00035 13.1039 8.00028 11.9998ZM5.00028 11.9998C5.00028 10.0671 5.78443 8.31525 7.05009 7.0496C7.44052 6.65918 8.07361 6.65935 8.46415 7.0496C8.85467 7.44012 8.85466 8.07313 8.46415 8.46366C7.55823 9.36958 7.00028 10.6188 7.00028 11.9998C7.00015 12.5519 6.55236 12.9996 6.00028 12.9998C5.44808 12.9998 5.00041 12.552 5.00028 11.9998ZM18.0413 5.25468C18.4528 4.88643 19.0851 4.92146 19.4534 5.3328C20.8038 6.84166 21.704 8.76582 21.9388 10.8904C21.9992 11.4392 21.6038 11.9333 21.055 11.9939C20.506 12.0546 20.0121 11.6581 19.9515 11.1092C19.7638 9.41247 19.0449 7.87543 17.9632 6.66678C17.595 6.25532 17.63 5.623 18.0413 5.25468ZM10.8899 2.06034C11.4387 1.99967 11.9335 2.39541 11.9944 2.94413C12.0551 3.49307 11.6586 3.98794 11.1097 4.04862C9.41307 4.23622 7.87589 4.95434 6.66728 6.03593C6.25575 6.40425 5.62349 6.36933 5.25517 5.9578C4.88689 5.54627 4.92178 4.914 5.33329 4.54569C6.84204 3.19544 8.76553 2.29522 10.8899 2.06034Z" fill="currentColor"/>
</svg>
