<svg xmlns="http://www.w3.org/2000/svg" viewBox="0 0 24 24" fill="none">
<path d="M8.74707 15.7959C9.3805 16.3392 10.1509 16.727 11 16.8994V21.3971C11 21.6928 10.7444 21.9249 10.4522 21.8795C8.41783 21.5631 6.5869 20.6332 5.15386 19.286C4.93827 19.0833 4.96445 18.7388 5.198 18.5571L8.74707 15.7959Z" fill="currentColor"/><path d="M18.7964 18.5527C19.0333 18.737 19.0561 19.0878 18.8342 19.29C17.3478 20.6442 15.5405 21.5658 13.5477 21.879C13.2556 21.9249 13 21.6928 13 21.3971V16.8994C13.8489 16.7271 14.6186 16.339 15.252 15.7959L18.7964 18.5527Z" fill="currentColor"/><path d="M9.24219 7.82812C7.89087 8.72321 7 10.2577 7 12C7 12.7966 7.18713 13.5494 7.51855 14.2178L3.9692 16.9792C3.73575 17.1608 3.39552 17.1016 3.25199 16.843C2.45557 15.408 2 13.7572 2 12C2 9.23885 3.12016 6.73726 4.92871 4.92871L5.28219 4.57523C5.47745 4.37997 5.79403 4.37997 5.9893 4.57523L9.24219 7.82812Z" fill="currentColor"/><path d="M12 9C13.6569 9 15 10.3431 15 12C15 13.6569 13.6569 15 12 15C10.3431 15 9 13.6569 9 12C9 10.3431 10.3431 9 12 9Z" fill="currentColor"/><path d="M12 2C17.5228 2 22 6.47715 22 12V12.5C22 12.7761 21.7761 13 21.5 13H16.8994C16.965 12.6769 17 12.3425 17 12C17 9.23858 14.7614 7 12 7C11.5729 7 11 7.09961 11 7.09961V2.5C11 2.22386 11.2239 2 11.5 2H12Z" fill="currentColor"/>
</svg>
