<svg width="24" height="24" viewBox="0 0 24 24" fill="none" xmlns="http://www.w3.org/2000/svg">
<path fill-rule="evenodd" clip-rule="evenodd" d="M19.0052 5C18.5109 5 18.206 5.26689 18.0726 5.66523C17.8973 6.18895 17.3306 6.47136 16.8069 6.29602C16.2832 6.12068 16.0008 5.55398 16.1761 5.03027C16.5543 3.90048 17.5657 3 19.0052 3C20.598 3 22 4.15312 22 5.9309C22 6.76628 21.5536 7.43229 21.1174 7.91563C20.6887 8.39072 20.137 8.83104 19.6632 9.20921L19.6239 9.24057C19.2778 9.51696 18.9708 9.76376 18.7131 10H21C21.5523 10 22 10.4477 22 11C22 11.5523 21.5523 12 21 12H17C16.4477 12 16 11.5523 16 11C16 10.1631 16.4436 9.49475 16.8809 9.00761C17.3134 8.52593 17.8704 8.08132 18.3474 7.70052L18.3761 7.6776C18.8937 7.26433 19.3232 6.91856 19.6326 6.57573C19.9464 6.22797 20 6.02907 20 5.9309C20 5.38166 19.6216 5 19.0052 5ZM2.35984 5.23178C2.78412 4.87821 3.41468 4.93554 3.76825 5.35982L8.00003 10.438L12.2318 5.35982C12.5854 4.93554 13.2159 4.87821 13.6402 5.23178C14.0645 5.58534 14.1218 6.21591 13.7682 6.64018L9.30173 12L13.7682 17.3598C14.1218 17.7841 14.0645 18.4147 13.6402 18.7682C13.2159 19.1218 12.5854 19.0645 12.2318 18.6402L8.00003 13.562L3.76825 18.6402C3.41468 19.0645 2.78412 19.1218 2.35984 18.7682C1.93556 18.4147 1.87824 17.7841 2.2318 17.3598L6.69832 12L2.2318 6.64018C1.87824 6.21591 1.93556 5.58534 2.35984 5.23178Z" fill="currentColor" style="fill:currentColor;fill-opacity:1;"/>
</svg>
