<svg xmlns="http://www.w3.org/2000/svg" viewBox="0 0 24 24" fill="none">
<path d="M3.25 13.7861C3.78256 13.7861 4.21387 14.2174 4.21387 14.75C4.21387 16.0933 5.16525 17.2136 6.43066 17.4766V16.4512C6.43066 15.9421 7.04627 15.6869 7.40625 16.0469L9.45508 18.0957C9.67824 18.3189 9.67824 18.6811 9.45508 18.9043L7.40625 20.9531C7.04625 21.3129 6.43066 21.0579 6.43066 20.5488V19.4277C4.09569 19.1466 2.28613 17.1608 2.28613 14.75C2.28613 14.2174 2.71744 13.7861 3.25 13.7861Z" fill="currentColor"/><path d="M17.5 3C18.0523 3 18.5 3.44772 18.5 4V16C18.5 16.5523 18.0523 17 17.5 17C16.9477 17 16.5 16.5523 16.5 16V4C16.5 3.44772 16.9477 3 17.5 3Z" fill="currentColor"/><path d="M6.59375 8.47559C6.95373 8.11561 7.56934 8.37079 7.56934 8.87988V10.0713C9.90437 10.3524 11.7139 12.3391 11.7139 14.75C11.7139 15.2826 11.2826 15.7139 10.75 15.7139C10.2174 15.7139 9.78613 15.2826 9.78613 14.75C9.78613 13.4066 8.83485 12.2854 7.56934 12.0225V12.9775C7.56934 13.4866 6.95375 13.7416 6.59375 13.3818L4.54492 11.333C4.32177 11.1099 4.32177 10.7476 4.54492 10.5244L6.59375 8.47559Z" fill="currentColor"/><path d="M14 6C14.5523 6 15 6.44772 15 7V11C15 11.5523 14.5523 12 14 12C13.4477 12 13 11.5523 13 11V7C13 6.44772 13.4477 6 14 6Z" fill="currentColor"/><path d="M21 8C21.5523 8 22 8.44772 22 9V11C22 11.5523 21.5523 12 21 12C20.4477 12 20 11.5523 20 11V9C20 8.44772 20.4477 8 21 8Z" fill="currentColor"/><path d="M10.5 4C11.0523 4 11.5 4.44772 11.5 5V7.5C11.5 8.05228 11.0523 8.5 10.5 8.5C9.94772 8.5 9.5 8.05228 9.5 7.5V5C9.5 4.44772 9.94772 4 10.5 4Z" fill="currentColor"/>
</svg>
