<svg width="24" height="24" viewBox="0 0 24 24" fill="none" xmlns="http://www.w3.org/2000/svg">
<path d="M5.70696 10.2929C5.49511 10.0811 5.19945 9.97535 4.90131 10.0049C4.60318 10.0344 4.33398 10.196 4.1678 10.4453C3.3354 11.6939 3.36174 13.3271 4.23396 14.5482L5.19373 15.8919L2.99985 18.0858C2.2188 18.8668 2.2188 20.1332 2.99985 20.9142L3.08564 21C3.86668 21.7811 5.13301 21.7811 5.91406 21L8.10795 18.8061L9.45163 19.7659C10.6727 20.6381 12.306 20.6645 13.5545 19.8321C13.8038 19.6659 13.9655 19.3967 13.995 19.0985C14.0245 18.8004 13.9188 18.5047 13.707 18.2929L5.70696 10.2929Z" fill="currentColor" style="fill:currentColor;fill-opacity:1;"/>
<path d="M15.5722 3C14.2596 3 13.0306 3.64397 12.2835 4.72316L8.20312 10.617L13.3834 15.7972L19.2772 11.7169C20.3564 10.9698 21.0004 9.74072 21.0004 8.42814V4C21.0004 3.44772 20.5527 3 20.0004 3H15.5722Z" fill="currentColor" style="fill:currentColor;fill-opacity:1;"/>
</svg>
