<svg xmlns="http://www.w3.org/2000/svg" viewBox="0 0 24 24" fill="none">
<path d="M7.5 9.5C8.05228 9.5 8.5 9.94772 8.5 10.5C8.5 11.0523 8.05228 11.5 7.5 11.5C6.94772 11.5 6.5 11.0523 6.5 10.5C6.5 9.94772 6.94772 9.5 7.5 9.5Z" fill="currentColor"/><path d="M13.6738 9.5C13.5631 9.81306 13.5 10.149 13.5 10.5C13.5 10.851 13.5631 11.1869 13.6738 11.5H10.3262C10.4369 11.1869 10.5 10.851 10.5 10.5C10.5 10.149 10.4369 9.81306 10.3262 9.5H13.6738Z" fill="currentColor"/><path d="M16.5 9.5C17.0523 9.5 17.5 9.94772 17.5 10.5C17.5 11.0523 17.0523 11.5 16.5 11.5C15.9477 11.5 15.5 11.0523 15.5 10.5C15.5 9.94772 15.9477 9.5 16.5 9.5Z" fill="currentColor"/><path fill-rule="evenodd" clip-rule="evenodd" d="M18 4C20.2091 4 22 5.79086 22 8V16C22 16.1079 21.9937 16.2146 21.9854 16.3203C21.9835 16.3438 21.9827 16.3673 21.9805 16.3906C21.9791 16.4043 21.978 16.418 21.9766 16.4316C21.9709 16.4844 21.9637 16.5368 21.9561 16.5889C21.9522 16.615 21.9477 16.641 21.9434 16.667C21.9372 16.7039 21.931 16.7408 21.9238 16.7773C21.9189 16.8026 21.9127 16.8275 21.9072 16.8525C21.8989 16.8908 21.8903 16.9289 21.8809 16.9668C21.873 16.9985 21.8651 17.0301 21.8564 17.0615C21.8512 17.0804 21.8463 17.0994 21.8408 17.1182C21.8296 17.1569 21.8171 17.1952 21.8047 17.2334C21.7923 17.2715 21.7791 17.3091 21.7656 17.3467C21.7601 17.362 21.7547 17.3773 21.749 17.3926C21.7335 17.4343 21.7171 17.4755 21.7002 17.5166C21.6914 17.5381 21.683 17.5597 21.6738 17.5811C21.6627 17.6069 21.6513 17.6326 21.6396 17.6582C21.4535 18.066 21.2008 18.4363 20.8955 18.7568C20.8818 18.7712 20.8684 18.7857 20.8545 18.7998C20.8261 18.8287 20.7968 18.8567 20.7676 18.8848C20.7544 18.8974 20.7418 18.9104 20.7285 18.9229C20.697 18.9523 20.6653 18.9814 20.6328 19.0098C20.6196 19.0213 20.6061 19.0326 20.5928 19.0439C20.5125 19.1124 20.4293 19.1772 20.3438 19.2393C20.3315 19.2482 20.319 19.2569 20.3066 19.2656C19.6546 19.727 18.8596 20 18 20H6C5.26514 20 4.57712 19.8009 3.98535 19.4551C3.97629 19.4498 3.96703 19.4448 3.95801 19.4395C3.86343 19.3832 3.77195 19.3224 3.68262 19.2588C3.67482 19.2532 3.66694 19.2478 3.65918 19.2422C3.61826 19.2126 3.57782 19.1825 3.53809 19.1514C3.5308 19.1457 3.52385 19.1395 3.5166 19.1338C3.43114 19.066 3.34813 18.9953 3.26855 18.9209C3.25594 18.9091 3.24391 18.8967 3.23145 18.8848C3.20221 18.8567 3.17291 18.8287 3.14453 18.7998C3.13066 18.7857 3.11718 18.7712 3.10352 18.7568C3.03436 18.6842 2.96691 18.6099 2.90332 18.5322C2.88818 18.5137 2.87419 18.4943 2.85938 18.4756C2.81961 18.4252 2.78149 18.3736 2.74414 18.3213C2.68949 18.2448 2.63618 18.1673 2.58691 18.0869C2.50156 17.9476 2.42552 17.8022 2.35742 17.6523C2.34826 17.6322 2.33891 17.6121 2.33008 17.5918C2.31829 17.5646 2.3071 17.5372 2.2959 17.5098C2.28006 17.471 2.26464 17.432 2.25 17.3926C2.24434 17.3773 2.23888 17.362 2.2334 17.3467C2.21996 17.3091 2.20667 17.2715 2.19434 17.2334C2.18198 17.1953 2.17041 17.1568 2.15918 17.1182C2.15369 17.0993 2.14779 17.0805 2.14258 17.0615C2.13396 17.0301 2.12603 16.9985 2.11816 16.9668C2.10876 16.9289 2.10011 16.8908 2.0918 16.8525C2.08636 16.8275 2.08016 16.8026 2.0752 16.7773C2.06799 16.7408 2.06186 16.7039 2.05566 16.667C2.0513 16.641 2.04683 16.615 2.04297 16.5889C2.03528 16.5368 2.02909 16.4843 2.02344 16.4316C2.02197 16.418 2.01988 16.4043 2.01855 16.3906C2.01629 16.3673 2.01553 16.3438 2.01367 16.3203C2.0053 16.2146 2 16.1078 2 16V8C2 5.79086 3.79086 4 6 4H18ZM8 16C7.66854 16 7.36169 16.1637 7.17676 16.4316L7.10547 16.5527L6.38184 18H17.6182L16.8945 16.5527C16.7464 16.2564 16.4628 16.0555 16.1406 16.0098L16 16H8ZM7.5 7.5C5.84315 7.5 4.5 8.84315 4.5 10.5C4.5 12.1569 5.84315 13.5 7.5 13.5H16.5C18.1569 13.5 19.5 12.1569 19.5 10.5C19.5 8.84315 18.1569 7.5 16.5 7.5H7.5Z" fill="currentColor"/>
</svg>
