<svg width="24" height="24" viewBox="0 0 24 24" fill="none" xmlns="http://www.w3.org/2000/svg">
<path d="M8.5 14H15.5M5 5H19C20.6569 5 22 6.34315 22 8V16C22 17.6569 20.6569 19 19 19H5C3.34315 19 2 17.6569 2 16V8C2 6.34315 3.34315 5 5 5ZM9.91422 10.5858C10.6953 11.3668 10.6953 12.6332 9.91422 13.4142C9.13317 14.1953 7.86684 14.1953 7.08579 13.4142C6.30474 12.6332 6.30474 11.3668 7.08579 10.5858C7.86684 9.80474 9.13317 9.80474 9.91422 10.5858ZM16.9142 10.5858C17.6953 11.3668 17.6953 12.6332 16.9142 13.4142C16.1332 14.1953 14.8668 14.1953 14.0858 13.4142C13.3047 12.6332 13.3047 11.3668 14.0858 10.5858C14.8668 9.80474 16.1332 9.80474 16.9142 10.5858Z" stroke="currentColor" stroke-width="2" stroke-linecap="round" stroke-linejoin="round"/>
</svg>
