<svg xmlns="http://www.w3.org/2000/svg" viewBox="0 0 24 24" fill="none">
<path d="M12.7777 12C15.1324 12.0004 17.2235 13.5073 17.9681 15.7412C18.666 17.8359 17.1065 19.9993 14.8987 20H9.10187C6.8935 19.9998 5.33422 17.8363 6.03254 15.7412C6.7773 13.5072 8.86804 12 11.223 12H12.7777Z" fill="currentColor"/><path d="M5.23762 13C4.8264 13.5502 4.48653 14.1623 4.23566 14.8252L4.13508 15.1084C3.68284 16.4652 3.81719 17.8392 4.36847 19H3.23957C2.13439 18.9999 1.07637 18.5033 0.478827 17.7012C0.17256 17.2898 -0.0323559 16.766 0.00421714 16.1846C0.0415481 15.5929 0.321969 15.0577 0.772772 14.627C1.81131 13.6352 3.2707 13.0001 4.73957 13H5.23762Z" fill="currentColor"/><path d="M19.2601 13C20.7291 13.0001 22.1883 13.6351 23.2269 14.627C23.6777 15.0577 23.9581 15.5929 23.9954 16.1846C24.032 16.766 23.8271 17.2898 23.5208 17.7012C22.9233 18.5035 21.8654 18.9999 20.7601 19H19.6312C20.1825 17.8392 20.3168 16.4652 19.8646 15.1084L19.764 14.8252C19.5131 14.1622 19.1733 13.5503 18.762 13H19.2601Z" fill="currentColor"/><path d="M4.50031 6.25C6.01882 6.25032 7.25031 7.48142 7.25031 9C7.25031 10.5186 6.01882 11.7497 4.50031 11.75C2.98153 11.75 1.75031 10.5188 1.75031 9C1.75031 7.48122 2.98153 6.25 4.50031 6.25Z" fill="currentColor"/><path d="M19.5003 6.25C21.0188 6.25032 22.2503 7.48141 22.2503 9C22.2503 10.5186 21.0188 11.7497 19.5003 11.75C17.9815 11.75 16.7503 10.5188 16.7503 9C16.7503 7.48122 17.9815 6.25 19.5003 6.25Z" fill="currentColor"/><path d="M12.0003 3.5C13.933 3.50032 15.5003 5.0672 15.5003 7C15.5003 8.9328 13.933 10.4997 12.0003 10.5C10.0673 10.5 8.50031 8.933 8.50031 7C8.50031 5.067 10.0673 3.5 12.0003 3.5Z" fill="currentColor"/>
</svg>
