<svg width="24" height="24" viewBox="0 0 24 24" fill="none" xmlns="http://www.w3.org/2000/svg">
<path d="M6.71069 2.88611C7.04976 2.45016 7.67804 2.37162 8.11399 2.71069L12 5.73318L15.8861 2.71069C16.3221 2.37162 16.9503 2.45016 17.2894 2.88611C17.6285 3.32205 17.5499 3.95033 17.114 4.2894L14.9146 6H18C20.2091 6 22 7.79086 22 10V17C22 19.2091 20.2091 21 18 21H6C3.79086 21 2 19.2091 2 17V10C2 7.79086 3.79086 6 6 6H9.08545L6.88611 4.2894C6.45016 3.95033 6.37162 3.32205 6.71069 2.88611Z" fill="currentColor" style="fill:currentColor;fill-opacity:1;"/>
</svg>
