<svg xmlns="http://www.w3.org/2000/svg" viewBox="0 0 24 24" fill="none">
<path d="M20 13.9999C20.5523 13.9999 21 14.4476 21 14.9999V16.9999C21 19.209 19.2091 20.9999 17 20.9999H14C13.4477 20.9999 13 20.5522 13 19.9999C13 19.4476 13.4477 18.9999 14 18.9999H17C18.1045 18.9999 19 18.1045 19 16.9999V14.9999C19 14.4476 19.4477 13.9999 20 13.9999Z" fill="currentColor"/><path fill-rule="evenodd" clip-rule="evenodd" d="M13.043 2.54289C13.4335 2.15237 14.0665 2.15237 14.457 2.54289L21.457 9.54289C21.8475 9.93342 21.8475 10.5664 21.457 10.957C21.0665 11.3474 20.4335 11.3474 20.043 10.957L19.25 10.164L9.95703 19.457C8.46201 20.9518 6.03803 20.9517 4.54297 19.457C3.04808 17.9619 3.04808 15.5379 4.54297 14.0429L13.8359 4.74992L13.043 3.95696C12.6525 3.56646 12.6525 2.93343 13.043 2.54289ZM10.6641 10.7499H15.8359L17.8359 8.74992L15.25 6.16399L10.6641 10.7499Z" fill="currentColor"/><path d="M9 2.99992C9.55228 2.99992 10 3.44764 10 3.99992C9.99996 4.55217 9.55226 4.99992 9 4.99992H7C5.89543 4.99992 5 5.89536 5 6.99992V9.99992C4.99996 10.5522 4.55226 10.9999 4 10.9999C3.44774 10.9999 3.00004 10.5522 3 9.99992V6.99992C3 4.79079 4.79086 2.99992 7 2.99992H9Z" fill="currentColor"/>
</svg>
