<svg width="24" height="24" viewBox="0 0 24 24" fill="none" xmlns="http://www.w3.org/2000/svg">
<path fill-rule="evenodd" clip-rule="evenodd" d="M15.5 4C15.9112 4 16.2804 4.25166 16.4308 4.63435L21.9308 18.6343C22.1327 19.1484 21.8797 19.7288 21.3657 19.9308C20.8516 20.1327 20.2712 19.8797 20.0692 19.3657L18.3542 15H12.6458L10.9308 19.3657C10.7288 19.8797 10.1484 20.1327 9.63435 19.9308C9.12031 19.7288 8.8673 19.1484 9.06925 18.6343L14.5692 4.63435C14.7196 4.25166 15.0888 4 15.5 4ZM13.4315 13H17.5685L15.5 7.73484L13.4315 13ZM5 7C5 6.44772 5.44772 6 6 6H10C10.5523 6 11 6.44772 11 7C11 7.55228 10.5523 8 10 8H6C5.44772 8 5 7.55228 5 7ZM2 12C2 11.4477 2.44772 11 3 11H8C8.55228 11 9 11.4477 9 12C9 12.5523 8.55228 13 8 13H3C2.44772 13 2 12.5523 2 12ZM3 17C3 16.4477 3.44772 16 4 16H6C6.55228 16 7 16.4477 7 17C7 17.5523 6.55228 18 6 18H4C3.44772 18 3 17.5523 3 17Z" fill="currentColor" style="fill:currentColor;fill-opacity:1;"/>
</svg>
