<svg width="24" height="24" viewBox="0 0 24 24" fill="none" xmlns="http://www.w3.org/2000/svg">
<path fill-rule="evenodd" clip-rule="evenodd" d="M15 6C15 5.44772 14.5523 5 14 5H3C2.44772 5 2 5.44772 2 6C2 6.55228 2.44772 7 3 7H14C14.5523 7 15 6.55228 15 6ZM21.4102 8.42799C21.0513 8.26654 20.631 8.33064 20.3366 8.59174L17.3366 11.2518C17.1223 11.4418 16.9997 11.7145 17 12.0009C17.0003 12.2873 17.1233 12.5599 17.338 12.7495L20.338 15.3995C20.6327 15.6598 21.0526 15.7232 21.4111 15.5616C21.7695 15.3999 22 15.0432 22 14.65V9.33998C22 8.94641 21.7691 8.58944 21.4102 8.42799ZM15 12C15 11.4477 14.5523 11 14 11H3C2.44772 11 2 11.4477 2 12C2 12.5523 2.44772 13 3 13H14C14.5523 13 15 12.5523 15 12ZM15 18C15 17.4477 14.5523 17 14 17H3C2.44772 17 2 17.4477 2 18C2 18.5523 2.44772 19 3 19H14C14.5523 19 15 18.5523 15 18Z" fill="currentColor" style="fill:currentColor;fill-opacity:1;"/>
</svg>
