<svg width="24" height="24" viewBox="0 0 24 24" fill="none" xmlns="http://www.w3.org/2000/svg">
<path d="M14.3999 2C12.8067 2 11.3584 2.62979 10.2918 3.65176C10.2197 3.72084 10.1039 3.75916 9.98889 3.73914C9.67905 3.68522 9.36101 3.65723 9.03725 3.65723C5.97491 3.65723 3.49976 6.14932 3.49976 9.21437C3.49976 10.9327 4.27817 12.4705 5.49841 13.4888C5.56041 13.5405 5.60197 13.6159 5.61271 13.6954C5.97894 16.4057 8.29212 18.5 11.0998 18.5C12.4419 18.5 13.6745 18.0196 14.6324 17.2225C14.7127 17.1557 14.8195 17.13 14.9119 17.148C15.281 17.2198 15.6616 17.2573 16.0499 17.2573C19.3401 17.2573 21.9999 14.5797 21.9999 11.2858C21.9999 9.6833 21.3695 8.22577 20.3451 7.15353C20.3072 7.11383 20.2816 7.06245 20.2727 7.00779C19.8135 4.171 17.3628 2 14.3999 2Z" fill="currentColor"/>
<path d="M4 17C2.34315 17 1 18.3431 1 20C1 21.6569 2.34315 23 4 23C5.65685 23 7 21.6569 7 20C7 18.3431 5.65685 17 4 17Z" fill="currentColor"/>
</svg>
