<svg xmlns="http://www.w3.org/2000/svg" viewBox="0 0 24 24" fill="none">
<path d="M10.5 12.2885C10.8094 12.4671 11 12.7972 11 13.1545V20.8443C11 21.614 10.1667 22.0952 9.50007 21.7103L4.34012 18.7318C3.10236 18.0173 2.33984 16.6967 2.33984 15.2675V9.30921C2.33984 8.5394 3.17318 8.05828 3.83985 8.44318L10.5 12.2885Z" fill="currentColor"/><path d="M21.6602 15.2675C21.6602 16.6967 20.8976 18.0173 19.6599 18.7318L14.4999 21.7103C13.8333 22.0952 13 21.614 13 20.8443V13.1545C13 12.7972 13.1906 12.4671 13.5 12.2885L20.1602 8.44318C20.8268 8.05828 21.6602 8.5394 21.6602 9.30921V15.2675Z" fill="currentColor"/><path d="M19.1592 4.97877C19.8259 5.36364 19.8259 6.32588 19.1593 6.71081L12.5 10.556C12.1906 10.7347 11.8094 10.7347 11.5 10.556L4.83997 6.71083C4.17328 6.32591 4.17332 5.36361 4.84004 4.97874L10.0002 2.00009C11.2377 1.28574 12.7623 1.28578 13.9998 2.00019L19.1592 4.97877Z" fill="currentColor"/>
</svg>
