<svg xmlns="http://www.w3.org/2000/svg" viewBox="0 0 24 24" fill="none">
<path d="M10.5 11.711C10.8094 11.5324 11 11.2023 11 10.845V3.15524C11 2.38548 10.1667 1.90434 9.50007 2.28917L4.34012 5.26772C3.10236 5.98221 2.33984 7.30281 2.33984 8.73198V14.6903C2.33984 15.4601 3.17318 15.9412 3.83985 15.5563L10.5 11.711Z" fill="currentColor"/><path d="M21.6602 8.73198C21.6602 7.30281 20.8976 5.98221 19.6599 5.26772L14.4999 2.28917C13.8333 1.90434 13 2.38547 13 3.15524V10.845C13 11.2023 13.1906 11.5324 13.5 11.711L20.1602 15.5563C20.8268 15.9412 21.6602 15.4601 21.6602 14.6903V8.73198Z" fill="currentColor"/><path d="M19.1592 19.0207C19.8259 18.6359 19.8259 17.6736 19.1593 17.2887L12.5 13.4435C12.1906 13.2649 11.8094 13.2648 11.5 13.4435L4.83997 17.2887C4.17328 17.6736 4.17332 18.6359 4.84004 19.0208L10.0002 21.9994C11.2377 22.7138 12.7623 22.7137 13.9998 21.9993L19.1592 19.0207Z" fill="currentColor"/>
</svg>
