<svg xmlns="http://www.w3.org/2000/svg" viewBox="0 0 24 24" fill="none">
<path d="M2.33984 9.30874C2.34004 8.53917 3.17329 8.05788 3.83984 8.44253L10.5 12.2882C10.8094 12.4669 11 12.7972 11 13.1544V20.8439C11 21.6137 10.1667 22.0949 9.5 21.7101L4.33984 18.7316C3.10232 18.0171 2.33998 16.6967 2.33984 15.2677V9.30874Z" fill="currentColor"/><path d="M20.1602 8.44253C20.8267 8.05788 21.66 8.53917 21.6602 9.30874V15.2677C21.66 16.6967 20.8977 18.0171 19.6602 18.7316L14.5 21.7101C13.8333 22.0949 13 21.6137 13 20.8439V13.1544C13 12.7972 13.1906 12.4669 13.5 12.2882L20.1602 8.44253Z" fill="currentColor"/><path d="M15.3301 8.92104L12.5 10.5558C12.1906 10.7345 11.8094 10.7344 11.5 10.5558L4.83984 6.71108C4.17322 6.3262 4.17332 5.3636 4.83984 4.97866L6.66895 3.92202L15.3301 8.92104Z" fill="currentColor"/><path d="M10 2.00014C11.2375 1.28579 12.7625 1.28573 14 2.00014L19.1592 4.97866C19.8258 5.36354 19.8258 6.32616 19.1592 6.71108L17.3291 7.76675L8.66992 2.76674L10 2.00014Z" fill="currentColor"/>
</svg>
