<svg width="24" height="24" viewBox="0 0 24 24" fill="none" xmlns="http://www.w3.org/2000/svg">
  <path
    d="M20.062 9.997C18.3846 10.0005 16.7486 9.47686 15.385 8.5V15.309C15.3846 16.5702 14.9993 17.8012 14.2804 18.8374C13.5615 19.8736 12.5434 20.6656 11.3622 21.1076C10.181 21.5495 8.89302 21.6203 7.67051 21.3104C6.448 21.0006 5.34923 20.3249 4.52112 19.3737C3.69301 18.4225 3.17505 17.2412 3.03649 15.9876C2.89793 14.7341 3.14538 13.4682 3.74576 12.3591C4.34613 11.25 5.27081 10.3506 6.39614 9.78128C7.52147 9.21192 8.7938 8.9997 10.043 9.173V12.597C9.47158 12.4174 8.85804 12.423 8.28998 12.6129C7.72191 12.8028 7.22836 13.1673 6.8798 13.6544C6.53124 14.1415 6.34548 14.7263 6.34905 15.3252C6.35262 15.9242 6.54533 16.5067 6.89968 16.9896C7.25402 17.4725 7.75188 17.8311 8.32217 18.0142C8.89246 18.1973 9.50602 18.1956 10.0753 18.0092C10.6445 17.8229 11.1403 17.4614 11.4919 16.9765C11.8435 16.4916 12.0328 15.908 12.033 15.309V2H15.385C15.383 2.283 15.406 2.566 15.455 2.845C15.5717 3.46721 15.8142 4.05907 16.1675 4.58436C16.5209 5.10965 16.9777 5.55732 17.51 5.9C18.268 6.4 19.155 6.667 20.063 6.667V9.996L20.062 9.997Z"
    fill="currentColor" />
</svg>
