<svg xmlns="http://www.w3.org/2000/svg" viewBox="0 0 24 24" fill="none">
<path d="M12 2C12.5523 2 13 2.44772 13 3C13 3.55228 12.5523 4 12 4C7.58172 4 4 7.58172 4 12C4 16.4183 7.58172 20 12 20C16.4183 20 20 16.4183 20 12C20 11.4477 20.4477 11 21 11C21.5523 11 22 11.4477 22 12C22 17.5228 17.5228 22 12 22C6.47715 22 2 17.5228 2 12C2 6.47715 6.47715 2 12 2Z" fill="currentColor"/><path fill-rule="evenodd" clip-rule="evenodd" d="M12 5.5C15.5899 5.5 18.5 8.41015 18.5 12C18.5 15.5899 15.5899 18.5 12 18.5C8.41015 18.5 5.5 15.5899 5.5 12C5.5 8.41015 8.41015 5.5 12 5.5ZM12 7.59961C11.5029 7.59961 11.0996 8.00294 11.0996 8.5V12C11.0996 12.4971 11.5029 12.9004 12 12.9004H14.5C14.9971 12.9004 15.4004 12.4971 15.4004 12C15.4004 11.5029 14.9971 11.0996 14.5 11.0996H12.9004V8.5C12.9004 8.00294 12.4971 7.59961 12 7.59961Z" fill="currentColor"/><path d="M19.9707 7.70117C20.4827 7.49457 21.0656 7.742 21.2725 8.25391C21.4793 8.76592 21.2317 9.34871 20.7197 9.55566C20.2077 9.76255 19.6249 9.515 19.418 9.00293C19.2113 8.49092 19.4587 7.90803 19.9707 7.70117Z" fill="currentColor"/><path d="M17.6572 4.92871C18.0477 4.53851 18.6808 4.53851 19.0713 4.92871C19.4618 5.31924 19.4618 5.95323 19.0713 6.34375C18.6808 6.73395 18.0477 6.73395 17.6572 6.34375C17.2667 5.95323 17.2667 5.31924 17.6572 4.92871Z" fill="currentColor"/><path d="M14.5205 3.30273C14.7319 2.7925 15.3169 2.55037 15.8271 2.76172C16.3371 2.97321 16.5795 3.55825 16.3682 4.06836C16.1567 4.57839 15.5717 4.82059 15.0615 4.60938C14.5513 4.39802 14.3092 3.81298 14.5205 3.30273Z" fill="currentColor"/>
</svg>
