<svg width="24" height="24" viewBox="0 0 24 24" fill="none" xmlns="http://www.w3.org/2000/svg">
<path d="M17.1967 4.99927L17.1994 5.0039C19.8684 5.10856 22 7.30535 22 10C22 12.0503 20.7659 13.8124 19 14.584V16H5V14.584C3.2341 13.8124 2 12.0503 2 10C2 7.30541 4.13152 5.10867 6.80043 5.00391C7.8373 3.20835 9.77754 2 12 2C14.2221 2 16.1608 3.20848 17.1967 4.99927Z" fill="currentColor" style="fill:currentColor;fill-opacity:1;"/>
<path d="M5 18C5 20.2091 6.79086 22 9 22H15C17.2091 22 19 20.2091 19 18H5Z" fill="currentColor" style="fill:currentColor;fill-opacity:1;"/>
</svg>
