<svg xmlns="http://www.w3.org/2000/svg" viewBox="0 0 24 24" fill="none">
<path fill-rule="evenodd" clip-rule="evenodd" d="M12 2.25C14.2814 2.25 16.3867 2.53726 17.9551 3.02734C18.7333 3.27054 19.4361 3.58132 19.9658 3.97266C20.4759 4.34954 21 4.93869 21 5.75C21 5.88698 20.9833 6.01724 20.9561 6.1416L19.7842 14.9346C19.5905 16.3871 19.4767 17.3094 19.1514 18.0811C18.4357 19.7781 16.9799 21.0529 15.2031 21.5381C14.3952 21.7587 13.4656 21.75 12 21.75C10.5344 21.75 9.60484 21.7587 8.79688 21.5381C7.02015 21.0529 5.56429 19.7781 4.84863 18.0811C4.52334 17.3094 4.40948 16.3871 4.21582 14.9346L3.04297 6.1416C3.01571 6.0173 3 5.8869 3 5.75C3 4.93869 3.52414 4.34954 4.03418 3.97266C4.56385 3.58132 5.2667 3.27054 6.04492 3.02734C7.61326 2.53726 9.71857 2.25 12 2.25ZM12 4.25C9.86335 4.25 7.96867 4.52185 6.6416 4.93652C5.97211 5.14574 5.50263 5.3742 5.22266 5.58105C5.12391 5.65402 5.06737 5.71157 5.03418 5.75C5.06737 5.78843 5.12391 5.84598 5.22266 5.91895C5.50263 6.1258 5.97211 6.35426 6.6416 6.56348C7.96867 6.97815 9.86335 7.25 12 7.25C14.1367 7.25 16.0313 6.97815 17.3584 6.56348C18.0279 6.35426 18.4974 6.1258 18.7773 5.91895C18.8757 5.84629 18.9316 5.78841 18.9648 5.75C18.9316 5.71159 18.8757 5.65371 18.7773 5.58105C18.4974 5.3742 18.0279 5.14574 17.3584 4.93652C16.0313 4.52185 14.1367 4.25 12 4.25Z" fill="currentColor"/>
</svg>
