<svg xmlns="http://www.w3.org/2000/svg" viewBox="0 0 24 24" fill="none">
<path fill-rule="evenodd" clip-rule="evenodd" d="M15 17C15 17.5523 15.4477 18 16 18H21C21.5523 18 22 17.5523 22 17V12C22 11.4477 21.5523 11 21 11C20.4477 11 20 11.4477 20 12V14.5858L15.7071 10.2929C14.212 8.7978 11.788 8.7978 10.2929 10.2929C9.57885 11.0069 8.42115 11.0069 7.70711 10.2929L3.70711 6.29289C3.31658 5.90237 2.68342 5.90237 2.29289 6.29289C1.90237 6.68342 1.90237 7.31658 2.29289 7.70711L6.29289 11.7071C7.78799 13.2022 10.212 13.2022 11.7071 11.7071C12.4212 10.9931 13.5788 10.9931 14.2929 11.7071L18.5858 16H16C15.4477 16 15 16.4477 15 17Z" fill="currentColor"/>
</svg>
