<svg xmlns="http://www.w3.org/2000/svg" viewBox="0 0 24 24" fill="none">
<path d="M11.9988 4.42714C13.5768 3.17368 15.3827 2.7777 17.0495 3.11268C18.9488 3.49451 20.5789 4.80805 21.4099 6.66444C23.1235 10.4941 21.3449 16.0307 13.5183 20.7719C13.0459 21.058 12.4304 20.9073 12.1443 20.4349C11.8587 19.9628 12.0094 19.3481 12.4812 19.0619C19.9454 14.5404 20.685 9.94133 19.5847 7.48182C19.0084 6.19431 17.8979 5.32349 16.655 5.07362C15.4358 4.82873 13.9991 5.1643 12.7117 6.4701C12.5238 6.66056 12.2673 6.76796 11.9997 6.76796C11.7323 6.76788 11.4757 6.6605 11.2878 6.4701C10.0938 5.25914 8.77383 4.88586 7.62474 5.0287C6.4565 5.17411 5.37934 5.8627 4.70677 6.93593C3.57723 8.73869 3.47279 11.9766 6.99974 15.5775V13.9994C6.99998 13.4474 7.44773 12.9996 7.99974 12.9994C8.55188 12.9994 8.9995 13.4473 8.99974 13.9994V17.9994C8.99974 18.5517 8.55203 18.9994 7.99974 18.9994H3.99974C3.44759 18.9993 2.99974 18.5516 2.99974 17.9994C2.99998 17.4474 3.44773 16.9996 3.99974 16.9994H5.5974C1.61172 12.926 1.22848 8.71891 3.01146 5.87343C3.98924 4.31313 5.58673 3.26622 7.37767 3.04335C8.92633 2.85076 10.5582 3.28341 11.9988 4.42714Z" fill="currentColor"/>
</svg>
