<svg width="24" height="24" viewBox="0 0 24 24" fill="none" xmlns="http://www.w3.org/2000/svg">
<path fill-rule="evenodd" clip-rule="evenodd" d="M7.03067 6.44307C6.14148 6.61284 5.323 6.82772 4.59858 7.08127C3.63251 7.41939 2.77943 7.84498 2.14832 8.36721C1.52358 8.88418 1 9.59983 1 10.5C1 11.8211 2.09809 12.7401 3.20273 13.3213C4.05652 13.7704 5.13069 14.1383 6.34526 14.414L3.15451 19.466C2.85959 19.933 2.99906 20.5506 3.46601 20.8455C3.93296 21.1404 4.55057 21.0009 4.84549 20.534L10.1642 12.1127C10.4702 11.6282 10.9086 11.3498 11.3405 11.3158C11.7816 11.2811 12.2184 11.2811 12.6595 11.3158C13.0914 11.3498 13.5298 11.6282 13.8358 12.1127L19.1545 20.534C19.4494 21.0009 20.067 21.1404 20.534 20.8455C21.0009 20.5506 21.1404 19.933 20.8455 19.466L17.6547 14.414C18.8693 14.1383 19.9435 13.7704 20.7973 13.3213C21.9019 12.7401 23 11.8211 23 10.5C23 9.59983 22.4764 8.88418 21.8517 8.36721C21.2206 7.84498 20.3675 7.41939 19.4014 7.08127C18.677 6.82772 17.8585 6.61284 16.9693 6.44307C16.6923 3.94376 14.5732 2 12 2C9.42683 2 7.30765 3.94376 7.03067 6.44307ZM9.12461 6.14158C10.0428 6.04895 11.0076 6 12 6C12.9924 6 13.9572 6.04895 14.8754 6.14158C14.5062 4.90302 13.3585 4 12 4C10.6415 4 9.49383 4.90302 9.12461 6.14158Z" fill="currentColor" style="fill:currentColor;fill-opacity:1;"/>
</svg>
