<svg width="24" height="24" viewBox="0 0 24 24" fill="none" xmlns="http://www.w3.org/2000/svg">
<path d="M13.002 3C13.002 2.44772 12.5542 2 12.002 2C11.4497 2 11.002 2.44772 11.002 3V4.03721C7.69833 4.28413 4.76668 5.74415 2.83936 7.94229C1.87726 9.03959 1.89735 10.3835 2.55647 11.4001C3.18358 12.3672 4.34923 13 5.65029 13H18.3532C19.6543 13 20.8199 12.3672 21.4471 11.4001C22.1062 10.3835 22.1263 9.03959 21.1642 7.94229C19.2369 5.74423 16.3054 4.28424 13.002 4.03724V3Z" fill="currentColor" style="fill:currentColor;fill-opacity:1;"/>
<path d="M13.0021 16C13.0021 15.4477 12.5544 15 12.0021 15C11.4499 15 11.0021 15.4477 11.0021 16V19.0767C11.0021 19.5866 10.5888 20 10.0789 20C9.63875 20 9.25982 19.6894 9.17351 19.2578L8.98273 18.3039C8.87441 17.7623 8.34759 17.4111 7.80603 17.5194C7.26447 17.6277 6.91325 18.1546 7.02157 18.6961L7.21235 19.65C7.48563 21.0164 8.68539 22 10.0789 22C11.6933 22 13.0021 20.6912 13.0021 19.0767V16Z" fill="currentColor" style="fill:currentColor;fill-opacity:1;"/>
</svg>
