<svg xmlns="http://www.w3.org/2000/svg" viewBox="0 0 24 24" fill="none">
<path d="M2.81425 1.7716C3.21635 1.39322 3.84979 1.41264 4.22832 1.81457L7.14824 4.91711L7.14922 4.91516L17.5818 16.0001H17.5799L20.2283 18.8146C20.6068 19.2167 20.5875 19.8501 20.1853 20.2286C19.7832 20.6071 19.1498 20.5878 18.7713 20.1857L14.8318 16.0001H12.9998V20.132C12.9998 20.2094 12.9817 20.2863 12.9471 20.3556L12.2234 21.8029C12.1313 21.987 11.8683 21.987 11.7762 21.8029L11.0525 20.3556C11.0179 20.2862 10.9998 20.2094 10.9998 20.132V16.0001H5.9998C4.94063 15.9999 3.90236 15.1066 4.07988 13.8614L4.15117 13.4445C4.52328 11.5584 5.55943 9.91512 6.9998 8.75988L7.59257 8.30871L2.77129 3.18566C2.39306 2.78348 2.41219 2.15003 2.81425 1.7716Z" fill="currentColor"/><path d="M12.9998 2.00012C15.2087 2.00036 16.9997 3.79123 16.9998 6.00012V8.75988C18.5454 9.99952 19.6258 11.8012 19.9197 13.8614C19.9946 14.3866 19.8507 14.8478 19.5828 15.2071L8.21562 3.12902C8.93574 2.43078 9.91762 2.00023 10.9998 2.00012H12.9998Z" fill="currentColor"/>
</svg>
