<svg xmlns="http://www.w3.org/2000/svg" viewBox="0 0 24 24" fill="none">
<path d="M7.7755 12.1221C8.9073 13.1046 10.3848 13.7 12.0011 13.7002C12.51 13.7002 13.0057 13.6409 13.4806 13.5293C12.7414 14.4906 12.3009 15.6937 12.3009 17C12.3009 18.5588 12.9275 19.9709 13.9415 21H7.75108C6.65428 20.9998 5.61769 20.546 4.92686 19.7881C4.21953 19.0115 3.87612 17.9054 4.25206 16.7393C4.86616 14.8349 6.05446 13.163 7.7755 12.1221Z" fill="currentColor"/><path fill-rule="evenodd" clip-rule="evenodd" d="M18.38 13C18.7241 13.0001 19.0241 13.2344 19.1075 13.5684L19.173 13.8301C19.2757 14.2415 19.6988 14.4857 20.1066 14.3691L20.3673 14.2949C20.698 14.2006 21.0508 14.3438 21.2228 14.6416L21.6368 15.3584C21.809 15.6565 21.7555 16.0332 21.5079 16.2725L21.3146 16.46C21.0097 16.7547 21.0099 17.2432 21.3146 17.5381L21.5099 17.7275C21.757 17.9668 21.8098 18.3437 21.6378 18.6416L21.2237 19.3584C21.0516 19.6564 20.6982 19.7998 20.3673 19.7051L20.1066 19.6299C19.6989 19.5134 19.2759 19.7577 19.173 20.1689L19.1075 20.4316C19.0242 20.7656 18.7241 20.9999 18.38 21H17.5509C17.2068 21 16.9069 20.7654 16.8233 20.4316L16.7579 20.1699C16.655 19.7587 16.2319 19.5145 15.8243 19.6309L15.5646 19.7051C15.2337 19.7997 14.8812 19.6564 14.7091 19.3584L14.2941 18.6406C14.1223 18.3428 14.1751 17.9667 14.422 17.7275L14.6173 17.5381C14.9218 17.2433 14.9219 16.7546 14.6173 16.46L14.423 16.2725C14.1759 16.0332 14.123 15.6563 14.295 15.3584L14.7101 14.6406C14.8822 14.3431 15.2349 14.2005 15.5655 14.2949L15.8243 14.3691C16.2318 14.4854 16.655 14.2412 16.7579 13.8301L16.8233 13.5674C16.9071 13.2339 17.207 13 17.5509 13H18.38ZM17.9649 15.5879C17.1853 15.5879 16.5528 16.2203 16.5528 17C16.5528 17.7797 17.1853 18.4121 17.9649 18.4121C18.7445 18.4118 19.3761 17.7796 19.3761 17C19.3761 16.2204 18.7445 15.5882 17.9649 15.5879Z" fill="currentColor"/><path d="M12.0011 2.5C14.6243 2.50015 16.7511 4.62674 16.7511 7.25C16.7511 9.87326 14.6243 11.9998 12.0011 12C9.37804 11.9996 7.25108 9.87313 7.25108 7.25C7.25108 4.62687 9.37804 2.50037 12.0011 2.5Z" fill="currentColor"/>
</svg>
