<svg xmlns="http://www.w3.org/2000/svg" viewBox="0 0 24 24" fill="none">
<path d="M7.77557 12.1221C8.90748 13.1046 10.3847 13.7001 12.0012 13.7002C12.5111 13.7002 13.0068 13.6382 13.4826 13.5264C12.7422 14.4881 12.301 15.6924 12.301 17C12.301 18.5588 12.9276 19.9709 13.9416 21H7.75116C6.65413 20.9999 5.61786 20.5462 4.92694 19.7881C4.21944 19.0115 3.87609 17.9056 4.25213 16.7393C4.86627 14.8347 6.05435 13.1629 7.77557 12.1221Z" fill="currentColor"/><path d="M19.5441 14.293C19.9347 13.9024 20.5677 13.9024 20.9582 14.293C21.3487 14.6835 21.3487 15.3165 20.9582 15.707L19.4152 17.25L20.9582 18.793C21.3487 19.1835 21.3487 19.8165 20.9582 20.207C20.5677 20.5976 19.9347 20.5976 19.5441 20.207L18.0012 18.6641L16.4582 20.207C16.0677 20.5976 15.4347 20.5976 15.0441 20.207C14.6536 19.8165 14.6536 19.1835 15.0441 18.793L16.5871 17.25L15.0441 15.707C14.6536 15.3165 14.6536 14.6835 15.0441 14.293C15.4347 13.9024 16.0677 13.9024 16.4582 14.293L18.0012 15.8359L19.5441 14.293Z" fill="currentColor"/><path d="M12.0012 2.5C14.6245 2.50003 16.7512 4.62667 16.7512 7.25C16.7512 9.87333 14.6245 12 12.0012 12C9.37781 12 7.25116 9.87335 7.25116 7.25C7.25116 4.62665 9.37781 2.5 12.0012 2.5Z" fill="currentColor"/>
</svg>
