<svg xmlns="http://www.w3.org/2000/svg" viewBox="0 0 24 24" fill="none">
<path d="M7.77558 12.1221C8.90751 13.1047 10.3847 13.7002 12.0012 13.7002C12.5111 13.7002 13.0068 13.6383 13.4826 13.5264C12.7422 14.4882 12.301 15.6924 12.301 17C12.301 18.5588 12.9276 19.9709 13.9416 21H7.75117C6.65412 21 5.61788 20.5462 4.92695 19.7881C4.21942 19.0115 3.87608 17.9056 4.25214 16.7393C4.86628 14.8347 6.05434 13.1629 7.77558 12.1221Z" fill="currentColor"/><path d="M18.0012 13C18.5535 13 19.0012 13.4477 19.0012 14V16H21.0012C21.5535 16 22.0012 16.4477 22.0012 17C22.0012 17.5523 21.5535 18 21.0012 18H19.0012V20C19.0012 20.5523 18.5535 21 18.0012 21C17.449 20.9999 17.0012 20.5522 17.0012 20V18H15.0012C14.449 17.9999 14.0012 17.5522 14.0012 17C14.0012 16.4478 14.449 16.0001 15.0012 16H17.0012V14C17.0012 13.4478 17.449 13.0001 18.0012 13Z" fill="currentColor"/><path d="M12.0012 2.5C14.6245 2.50003 16.7512 4.62667 16.7512 7.25C16.7512 9.87333 14.6245 12 12.0012 12C9.37789 11.9999 7.25117 9.8733 7.25117 7.25C7.25117 4.6267 9.37789 2.50008 12.0012 2.5Z" fill="currentColor"/>
</svg>
