<svg xmlns="http://www.w3.org/2000/svg" viewBox="0 0 24 24" fill="none">
<path fill-rule="evenodd" clip-rule="evenodd" d="M18.2511 13C20.598 13.0002 22.5009 14.9031 22.5011 17.25C22.5008 19.5969 20.598 21.4998 18.2511 21.5C15.9042 21.4998 14.0013 19.5969 14.0011 17.25C14.0013 14.9031 15.9042 13.0002 18.2511 13ZM17.2765 19.4971C17.5751 19.6268 17.9047 19.7001 18.2511 19.7002C19.6039 19.7 20.701 18.6028 20.7013 17.25C20.7012 16.9036 20.6279 16.574 20.4982 16.2754L17.2765 19.4971ZM18.2511 14.8008C16.8983 14.801 15.8021 15.8972 15.8019 17.25C15.8019 17.5958 15.8747 17.9243 16.004 18.2227L19.2237 15.0029C18.9254 14.8736 18.5969 14.8008 18.2511 14.8008Z" fill="currentColor"/><path d="M7.7755 12.1221C8.9073 13.1046 10.3848 13.7 12.0011 13.7002C12.5677 13.7002 13.1173 13.6248 13.6407 13.4873C12.803 14.5125 12.3009 15.8229 12.3009 17.25C12.3009 18.6716 12.8001 19.9766 13.6319 21H7.75108C6.65428 20.9998 5.61769 20.546 4.92686 19.7881C4.21953 19.0115 3.87612 17.9054 4.25206 16.7393C4.86616 14.8349 6.05446 13.163 7.7755 12.1221Z" fill="currentColor"/><path d="M12.0011 2.5C14.6243 2.50015 16.7511 4.62674 16.7511 7.25C16.7511 9.87326 14.6243 11.9998 12.0011 12C9.37804 11.9996 7.25108 9.87313 7.25108 7.25C7.25108 4.62687 9.37804 2.50037 12.0011 2.5Z" fill="currentColor"/>
</svg>
