<svg xmlns="http://www.w3.org/2000/svg" viewBox="0 0 24 24" fill="none">
<path d="M13.2257 12.1221C14.9474 13.1629 16.1359 14.8345 16.7502 16.7393C17.1262 17.9055 16.7828 19.0115 16.0753 19.7881C15.3844 20.5461 14.3481 20.9999 13.2511 21H4.75113C3.65422 20.9999 2.61779 20.5461 1.92691 19.7881C1.21947 19.0115 0.876098 17.9055 1.2521 16.7393C1.86623 14.8348 3.0544 13.1629 4.77554 12.1221C5.90741 13.1046 7.38471 13.7001 9.00113 13.7002C10.6173 13.7001 12.0939 13.1043 13.2257 12.1221Z" fill="currentColor"/><path d="M9.00113 2.5C11.6244 2.50015 13.7511 4.62674 13.7511 7.25C13.7511 9.87326 11.6244 11.9998 9.00113 12C6.37796 11.9998 4.25113 9.87322 4.25113 7.25C4.25113 4.62678 6.37796 2.50021 9.00113 2.5Z" fill="currentColor"/><path d="M22.5 9L20.25 11.25M20.25 11.25L18 13.5M20.25 11.25L18 9M20.25 11.25L22.5 13.5" stroke="currentColor" stroke-width="2" stroke-linecap="round"/>
</svg>
