<svg xmlns="http://www.w3.org/2000/svg" viewBox="0 0 24 24" fill="none">
<path d="M7.77548 12.1221C8.90726 13.1045 10.3848 13.7 12.0011 13.7002C12.6995 13.7002 13.3723 13.5885 14.002 13.3828V14.0059L12.7589 15.25C11.6339 16.3751 11.0012 17.9011 11.0011 19.4922V20C11.0011 20.351 11.0641 20.687 11.1749 21H7.75107C6.65425 20.9998 5.61765 20.5461 4.92685 19.7881C4.21955 19.0116 3.87612 17.9054 4.25204 16.7393C4.86612 14.8349 6.05448 13.163 7.77548 12.1221Z" fill="currentColor"/><path d="M17.169 13.668C18.0428 12.7942 19.4593 12.7942 20.3331 13.668C21.2069 14.5417 21.2069 15.9583 20.3331 16.832L17.337 19.8281C16.587 20.5781 15.5696 20.9999 14.5089 21H14.0011C13.4488 20.9999 13.0011 20.5522 13.0011 20V19.4922C13.0012 18.4315 13.4229 17.4141 14.1729 16.6641L17.169 13.668Z" fill="currentColor"/><path d="M12.0011 2.5C14.6244 2.50003 16.7511 4.62667 16.7511 7.25C16.7511 9.87333 14.6244 12 12.0011 12C9.37797 11.9997 7.25107 9.87316 7.25107 7.25C7.25107 4.62684 9.37797 2.50031 12.0011 2.5Z" fill="currentColor"/>
</svg>
