<svg xmlns="http://www.w3.org/2000/svg" viewBox="0 0 24 24" fill="none">
<path d="M18.0011 14C18.9175 13.6165 19.8931 13.4387 20.6886 13.8936C21.6341 14.4343 22.254 15.4687 22.254 16.6904C22.2538 18.3433 21.1121 19.5058 20.2296 20.1699C19.5462 20.6841 18.7948 21.0659 18.0021 21.3779C17.2098 21.0652 16.4587 20.684 15.7755 20.1699C14.893 19.5059 13.7513 18.3434 13.7511 16.6904C13.7511 15.4686 14.3709 14.4343 15.3165 13.8936C16.1118 13.4388 17.0849 13.6168 18.0011 14Z" fill="currentColor"/><path d="M7.7755 12.1221C8.9073 13.1046 10.3848 13.7 12.0011 13.7002C12.3756 13.7002 12.7428 13.6659 13.0997 13.6045C12.4334 14.4529 12.0511 15.5298 12.0509 16.6904C12.0513 18.696 13.1638 20.1278 14.1173 21H7.75108C6.65428 20.9998 5.61769 20.546 4.92686 19.7881C4.21953 19.0115 3.87612 17.9054 4.25206 16.7393C4.86616 14.8349 6.05446 13.163 7.7755 12.1221Z" fill="currentColor"/><path d="M12.0011 2.5C14.6243 2.50015 16.7511 4.62674 16.7511 7.25C16.7511 9.87326 14.6243 11.9998 12.0011 12C9.37804 11.9996 7.25108 9.87313 7.25108 7.25C7.25108 4.62687 9.37804 2.50037 12.0011 2.5Z" fill="currentColor"/>
</svg>
