<svg xmlns="http://www.w3.org/2000/svg" viewBox="0 0 24 24" fill="none">
<path d="M12.4062 12.249C13.9791 13.412 15 15.2786 15 17.3848C14.9999 18.8291 13.8291 19.9999 12.3848 20H3.61523C2.17092 19.9999 1.00008 18.8291 1 17.3848C1 15.2789 2.0203 13.412 3.59277 12.249C4.68133 13.448 6.25312 14.2002 8 14.2002C9.74664 14.2002 11.3177 13.4477 12.4062 12.249Z" fill="currentColor"/><path d="M21.541 12.7705C22.4462 13.7508 23 15.0605 23 16.5V16.6152C23 17.9322 21.9322 19 20.6152 19H16.3867C16.5884 18.501 16.7002 17.956 16.7002 17.3848C16.7002 16.3795 16.516 15.4176 16.1807 14.5303C16.6021 14.6405 17.0441 14.7002 17.5 14.7002C19.1322 14.7002 20.5876 13.947 21.541 12.7705Z" fill="currentColor"/><path d="M17.5 6C19.433 6 21 7.567 21 9.5C21 11.433 19.433 13 17.5 13C15.567 13 14 11.433 14 9.5C14 7.567 15.567 6 17.5 6Z" fill="currentColor"/><path d="M8 4C10.3472 4 12.25 5.90279 12.25 8.25C12.25 10.5972 10.3472 12.5 8 12.5C5.65279 12.5 3.75 10.5972 3.75 8.25C3.75 5.90279 5.65279 4 8 4Z" fill="currentColor"/>
</svg>
