<svg xmlns="http://www.w3.org/2000/svg" viewBox="0 0 24 24" fill="none">
<path d="M16.2258 12.1221C17.9475 13.1629 19.136 14.8345 19.7502 16.7393C20.1263 17.9055 19.7829 19.0115 19.0754 19.7881C18.3845 20.5462 17.3482 20.9999 16.2512 21H7.75119C6.65414 21 5.61794 20.5462 4.92697 19.7881C4.21939 19.0115 3.87607 17.9056 4.25217 16.7393C4.86633 14.8347 6.05431 13.1629 7.77561 12.1221C8.90757 13.1047 10.3846 13.7002 12.0012 13.7002C13.6174 13.7001 15.0939 13.1044 16.2258 12.1221Z" fill="currentColor"/><path d="M12.0012 2.5C14.6244 2.50015 16.7512 4.62674 16.7512 7.25C16.7512 9.87326 14.6244 11.9998 12.0012 12C9.37784 12 7.25119 9.87335 7.25119 7.25C7.25119 4.62665 9.37784 2.5 12.0012 2.5Z" fill="currentColor"/>
</svg>
