<svg xmlns="http://www.w3.org/2000/svg" viewBox="0 0 24 24" fill="none">
<path d="M15.6963 12.1562C16.798 13.0734 17.5 14.4544 17.5 16C17.5 17.6569 16.1569 19 14.5 19H9.5C7.84315 19 6.5 17.6569 6.5 16C6.5 14.4547 7.20133 13.0734 8.30273 12.1562C9.24537 13.1094 10.5536 13.7002 12 13.7002C13.4461 13.7002 14.7537 13.1091 15.6963 12.1562Z" fill="currentColor"/><path d="M1.0332 12.8164C1.82058 13.5213 2.86012 13.9502 4 13.9502C4.40584 13.9502 4.7984 13.8939 5.17188 13.792C4.93053 14.4832 4.7998 15.2265 4.7998 16C4.7998 16.7153 4.96022 17.3931 5.24609 18H2.5C1.11929 18 0 16.8807 0 15.5C0 14.4675 0.390911 13.526 1.0332 12.8164Z" fill="currentColor"/><path d="M22.9658 12.8164C23.6084 13.5261 24 14.4672 24 15.5C24 16.8807 22.8807 18 21.5 18H18.7539C19.0398 17.3931 19.2002 16.7153 19.2002 16C19.2002 15.2262 19.0686 14.4832 18.8271 13.792C19.2009 13.894 19.5939 13.9502 20 13.9502C21.1396 13.9502 22.1785 13.521 22.9658 12.8164Z" fill="currentColor"/><path d="M4 6.75C5.51878 6.75 6.75 7.98122 6.75 9.5C6.75 11.0188 5.51878 12.25 4 12.25C2.48122 12.25 1.25 11.0188 1.25 9.5C1.25 7.98122 2.48122 6.75 4 6.75Z" fill="currentColor"/><path d="M20 6.75C21.5188 6.75 22.75 7.98122 22.75 9.5C22.75 11.0188 21.5188 12.25 20 12.25C18.4812 12.25 17.25 11.0188 17.25 9.5C17.25 7.98122 18.4812 6.75 20 6.75Z" fill="currentColor"/><path d="M12 5C13.933 5 15.5 6.567 15.5 8.5C15.5 10.433 13.933 12 12 12C10.067 12 8.5 10.433 8.5 8.5C8.5 6.567 10.067 5 12 5Z" fill="currentColor"/>
</svg>
