<svg xmlns="http://www.w3.org/2000/svg" viewBox="0 0 24 24" fill="none">
<path d="M16.2257 12.1221C16.7945 12.466 17.304 12.8804 17.755 13.3477L16.3878 15.6914C15.3493 15.0679 13.9841 15.2016 13.0899 16.0977C12.0371 17.1532 12.0386 18.8629 13.0939 19.916L14.1808 21H7.75108C6.65428 20.9998 5.61769 20.546 4.92686 19.7881C4.21953 19.0115 3.87612 17.9054 4.25206 16.7393C4.86616 14.8349 6.05446 13.163 7.7755 12.1221C8.9073 13.1046 10.3848 13.7 12.0011 13.7002C13.6171 13.7001 15.0938 13.1042 16.2257 12.1221Z" fill="currentColor"/><path d="M19.6368 13.4961C19.9151 13.0191 20.528 12.8577 21.005 13.1357C21.482 13.414 21.6435 14.0269 21.3653 14.5039L17.8653 20.5039C17.7092 20.7715 17.4372 20.9513 17.13 20.9912C16.8228 21.0311 16.5144 20.9267 16.295 20.708L14.295 18.7119C13.9042 18.3218 13.9031 17.6888 14.2931 17.2979C14.6832 16.907 15.3162 16.9069 15.7071 17.2969L16.7892 18.376L19.6368 13.4961Z" fill="currentColor"/><path d="M12.0011 2.5C14.6243 2.50015 16.7511 4.62674 16.7511 7.25C16.7511 9.87326 14.6243 11.9998 12.0011 12C9.37804 11.9996 7.25108 9.87313 7.25108 7.25C7.25108 4.62687 9.37804 2.50037 12.0011 2.5Z" fill="currentColor"/>
</svg>
