<svg xmlns="http://www.w3.org/2000/svg" viewBox="0 0 24 24" fill="none">
<path fill-rule="evenodd" clip-rule="evenodd" d="M19.0011 12C20.9341 12 22.5011 13.567 22.5011 15.5C22.5011 17.433 20.9341 19 19.0011 19C18.7671 19 18.5386 18.9764 18.3175 18.9326L16.0441 21.207C15.8566 21.3945 15.6022 21.5 15.337 21.5H14.2511C13.6989 21.4999 13.2511 21.0522 13.2511 20.5V19.4141C13.2511 19.1489 13.3566 18.8945 13.5441 18.707L15.671 16.5791C15.5609 16.2392 15.5011 15.8766 15.5011 15.5C15.5011 13.567 17.0681 12.0001 19.0011 12ZM19.2511 14C18.6989 14.0001 18.2511 14.4478 18.2511 15C18.2511 15.5522 18.6989 15.9999 19.2511 16C19.8034 16 20.2511 15.5523 20.2511 15C20.2511 14.4477 19.8034 14 19.2511 14Z" fill="currentColor"/><path d="M7.7755 12.1221C8.9073 13.1045 10.3848 13.7 12.0011 13.7002C12.8102 13.7002 13.5846 13.5497 14.298 13.2773C13.9789 13.9512 13.8009 14.7049 13.8009 15.5C13.8009 15.6745 13.8103 15.8472 13.8273 16.0176L12.3419 17.5049C11.8359 18.011 11.551 18.698 11.5509 19.4141V20.5C11.5509 20.6709 11.5684 20.8379 11.5987 21H7.75108C6.65428 20.9998 5.61769 20.546 4.92686 19.7881C4.21953 19.0115 3.87612 17.9054 4.25206 16.7393C4.86616 14.8349 6.05446 13.163 7.7755 12.1221Z" fill="currentColor"/><path d="M12.0011 2.5C14.6243 2.50015 16.7511 4.62674 16.7511 7.25C16.7511 9.87326 14.6243 11.9998 12.0011 12C9.37804 11.9996 7.25108 9.87313 7.25108 7.25C7.25108 4.62687 9.37804 2.50037 12.0011 2.5Z" fill="currentColor"/>
</svg>
