<svg xmlns="http://www.w3.org/2000/svg" viewBox="0 0 24 24" fill="none">
<path d="M13.7929 9.79286C14.1834 9.40233 14.8164 9.40233 15.2069 9.79286L17.3339 11.9198C17.7265 11.5679 18.3295 11.5795 18.7069 11.9569L20.0429 13.2929C20.4331 13.6834 20.4332 14.3165 20.0429 14.7069L18.7069 16.0429C18.3165 16.4332 17.6834 16.4331 17.2929 16.0429L15.9569 14.7069C15.5795 14.3295 15.5679 13.7265 15.9198 13.3339L13.7929 11.2069C13.4023 10.8164 13.4023 10.1834 13.7929 9.79286Z" fill="currentColor"/><path d="M1.79286 5.95692C2.18339 5.56647 2.81642 5.56642 3.20692 5.95692L4.24989 6.99989H8.49989C9.0521 6.99997 9.49989 7.44765 9.49989 7.99989C9.4998 8.55205 9.05205 8.9998 8.49989 8.99989H4.24989L3.20692 10.0429C2.81646 10.4332 2.18337 10.4331 1.79286 10.0429L0.456918 8.70692C0.0664189 8.31642 0.0664692 7.68339 0.456918 7.29286L1.79286 5.95692Z" fill="currentColor"/><path d="M21.7069 16.293C22.0974 16.6835 22.0974 17.3165 21.7069 17.707C21.3164 18.0975 20.6834 18.0975 20.2929 17.707L18.6649 16.0791C18.6786 16.0669 18.6938 16.056 18.7069 16.0429L20.0429 14.7069C20.056 14.6938 20.0667 14.6787 20.079 14.665L21.7069 16.293Z" fill="currentColor"/><path fill-rule="evenodd" clip-rule="evenodd" d="M11.9999 4C14.209 4.00006 15.9999 5.7909 15.9999 8C15.9999 10.2091 14.209 11.9999 11.9999 12C10.4364 12 9.08356 11.1024 8.42566 9.79492C5.90568 11.1191 4.13422 13.7239 3.9989 16.9854C3.97604 17.537 3.51045 17.9659 2.95887 17.9434C2.40719 17.9205 1.9782 17.455 2.00086 16.9033C2.1747 12.7093 4.58922 9.33366 8.00574 7.77441C8.12271 5.67021 9.86644 4 11.9999 4Z" fill="currentColor"/>
</svg>
