<svg xmlns="http://www.w3.org/2000/svg" viewBox="0 0 24 24" fill="none">
<path d="M11.9999 4C14.209 4.00004 15.9999 5.79089 15.9999 8C15.9999 8.74174 15.7971 9.43577 15.4452 10.0312L21.707 16.293C22.0974 16.6835 22.0974 17.3165 21.707 17.707C21.3164 18.0975 20.6834 18.0975 20.2929 17.707L14.0312 11.4453C13.4357 11.7972 12.7417 12 11.9999 12C11.2579 12 10.5633 11.7974 9.9677 11.4453L3.70696 17.707C3.31644 18.0975 2.68342 18.0975 2.29289 17.707C1.90237 17.3165 1.90237 16.6835 2.29289 16.293L8.55364 10.0312C8.20196 9.43587 7.99992 8.74157 7.99992 8C7.99992 5.79086 9.79079 4 11.9999 4Z" fill="currentColor"/>
</svg>
