<svg xmlns="http://www.w3.org/2000/svg" viewBox="0 0 24 24" fill="none">
<path d="M12.9999 4C14.8637 4.00007 16.4299 5.27481 16.8739 7H18.7499L19.7929 5.95703C20.1834 5.56666 20.8165 5.56656 21.207 5.95703L22.5429 7.29297C22.9332 7.68345 22.9332 8.31655 22.5429 8.70703L21.207 10.043C20.8165 10.4334 20.1834 10.4333 19.7929 10.043L18.7499 9H16.9062C17.0086 9.1079 17.1474 9.25595 17.3134 9.44043C17.6783 9.84591 18.1792 10.4279 18.7284 11.1387C19.8188 12.5497 21.1364 14.5151 21.9364 16.6484C22.1303 17.1653 21.8682 17.7414 21.3515 17.9355C20.8344 18.1295 20.2574 17.8677 20.0634 17.3506C19.3635 15.4844 18.1809 13.7001 17.1464 12.3613C16.6449 11.7123 16.1858 11.1793 15.8495 10.8047C15.124 11.5418 14.1159 12 12.9999 12C11.2777 12 9.81045 10.9113 9.24699 9.38477C6.22499 10.8137 4.15591 13.6108 3.99895 17.0459C3.97361 17.5974 3.50559 18.0241 2.95403 17.999C2.40244 17.9737 1.97569 17.5057 2.0009 16.9541C2.1512 13.6665 3.72221 10.8858 6.09758 9H4.24992L3.20696 10.043C2.81648 10.4334 2.18343 10.4333 1.79289 10.043L0.456955 8.70703C0.0664317 8.31651 0.0664313 7.68349 0.456955 7.29297L1.79289 5.95703C2.18343 5.56666 2.81648 5.56656 3.20696 5.95703L4.24992 7H9.1259C9.56994 5.27477 11.1361 4 12.9999 4Z" fill="currentColor"/>
</svg>
