<svg xmlns="http://www.w3.org/2000/svg" viewBox="0 0 24 24" fill="none">
<path d="M1.79286 5.95692C2.18339 5.56647 2.81642 5.56642 3.20692 5.95692L4.24989 6.99989H9.99989V8.99989H4.24989L3.20692 10.0429C2.81646 10.4332 2.18337 10.4331 1.79286 10.0429L0.456918 8.70692C0.0664189 8.31642 0.0664692 7.68339 0.456918 7.29286L1.79286 5.95692Z" fill="currentColor"/><path d="M20.7929 5.95692C21.1834 5.56647 21.8164 5.56642 22.2069 5.95692L23.5429 7.29286C23.9331 7.68337 23.9332 8.31646 23.5429 8.70692L22.2069 10.0429C21.8165 10.4332 21.1834 10.4331 20.7929 10.0429L19.7499 8.99989H13.9999V6.99989H19.7499L20.7929 5.95692Z" fill="currentColor"/><path d="M11.9999 4C14.1332 4.00006 15.876 5.67028 15.993 7.77441C19.4099 9.33354 21.8251 12.709 21.9989 16.9033C22.0216 17.4549 21.5925 17.9204 21.0409 17.9434C20.4893 17.966 20.0237 17.537 20.0009 16.9854C19.8655 13.7236 18.0934 11.1191 15.5731 9.79492C14.9151 11.1022 13.5632 12 11.9999 12C10.4364 12 9.08355 11.1024 8.42566 9.79492C5.90568 11.1191 4.13422 13.7239 3.9989 16.9854C3.97604 17.537 3.51045 17.9659 2.95887 17.9434C2.40719 17.9205 1.9782 17.455 2.00086 16.9033C2.1747 12.7093 4.58922 9.33366 8.00574 7.77441C8.12271 5.67021 9.86644 4 11.9999 4Z" fill="currentColor"/>
</svg>
