<svg width="24" height="24" viewBox="0 0 24 24" fill="none" xmlns="http://www.w3.org/2000/svg">
<path fill-rule="evenodd" clip-rule="evenodd" d="M21.1005 9.20829C19.9054 5.32333 16.2833 2.5 12.0001 2.5C7.71683 2.5 4.09476 5.32331 2.8996 9.20824C1.78715 9.64708 1 10.7316 1 12C1 13.2684 1.78715 14.3529 2.8996 14.7918C4.09476 18.6767 7.71683 21.5 12.0001 21.5C16.2833 21.5 19.9054 18.6767 21.1005 14.7917C22.2129 14.3528 23 13.2683 23 12C23 10.7317 22.2129 9.64716 21.1005 9.20829ZM12.0001 4.5C8.84692 4.5 6.14682 6.43663 5.03028 9.1816C5.8684 9.48806 6.53159 10.1577 6.82929 11H17.1707C17.4684 10.1577 18.1316 9.48801 18.9698 9.18156C17.8533 6.43662 15.1532 4.5 12.0001 4.5ZM18.9698 14.8184C18.1316 14.512 17.4684 13.8423 17.1707 13H6.82929C6.53159 13.8423 5.8684 14.5119 5.03028 14.8184C6.14682 17.5634 8.84692 19.5 12.0001 19.5C15.1532 19.5 17.8533 17.5634 18.9698 14.8184Z" fill="currentColor" style="fill:currentColor;fill-opacity:1;"/>
</svg>
