<svg width="24" height="24" viewBox="0 0 24 24" fill="none" xmlns="http://www.w3.org/2000/svg">
<path d="M21 4C21 3.44772 20.5523 3 20 3C19.4477 3 19 3.44772 19 4V20C19 20.5523 19.4477 21 20 21C20.5523 21 21 20.5523 21 20V4Z" fill="currentColor" style="fill:currentColor;fill-opacity:1;"/>
<path d="M5.5 6C4.11929 6 3 7.11929 3 8.5C3 9.88071 4.11929 11 5.5 11H14.5C15.8807 11 17 9.88071 17 8.5C17 7.11929 15.8807 6 14.5 6H5.5Z" fill="currentColor" style="fill:currentColor;fill-opacity:1;"/>
<path d="M9.5 13C8.11929 13 7 14.1193 7 15.5C7 16.8807 8.11929 18 9.5 18H14.5C15.8807 18 17 16.8807 17 15.5C17 14.1193 15.8807 13 14.5 13H9.5Z" fill="currentColor" style="fill:currentColor;fill-opacity:1;"/>
</svg>
