<svg xmlns="http://www.w3.org/2000/svg" viewBox="0 0 24 24" fill="none">
<path d="M8.30781 4.27832C8.7062 3.8961 9.33946 3.90938 9.72188 4.30762C10.1041 4.70604 10.0909 5.33928 9.69258 5.72168L3.41426 11.748L9.7209 18.3066C10.1036 18.7047 10.0915 19.3379 9.69355 19.7207C9.29551 20.1033 8.66227 20.0912 8.27949 19.6934L1.27949 12.4131C1.09568 12.2219 0.994945 11.9654 1.0002 11.7002C1.0055 11.435 1.11653 11.1828 1.30781 10.999L8.30781 4.27832Z" fill="currentColor"/><path d="M21.2795 11.0273C21.6623 10.6294 22.2955 10.6173 22.6936 11C23.0913 11.3828 23.1036 12.0161 22.7209 12.4141L15.7209 19.6934C15.3381 20.0911 14.7048 20.1042 14.3068 19.7217C13.9089 19.339 13.8971 18.7057 14.2795 18.3076L21.2795 11.0273Z" fill="currentColor"/><path d="M17.0002 3C17.2411 3 17.4576 3.14824 17.5441 3.37305L18.2404 5.18555C18.342 5.44955 18.5516 5.65821 18.8156 5.75977L20.6271 6.45605C20.8521 6.54256 21.0002 6.75901 21.0002 7C21.0002 7.24099 20.8521 7.45744 20.6271 7.54395L18.8156 8.24023C18.5516 8.34178 18.342 8.55045 18.2404 8.81445L17.5441 10.627C17.4576 10.8518 17.2411 11 17.0002 11C16.7594 10.9999 16.5438 10.8516 16.4572 10.627L15.76 8.81445C15.6584 8.55053 15.4497 8.34178 15.1857 8.24023L13.3732 7.54395C13.1485 7.45736 13.0002 7.24088 13.0002 7C13.0002 6.75912 13.1485 6.54264 13.3732 6.45605L15.1857 5.75977C15.4497 5.65822 15.6584 5.44947 15.76 5.18555L16.4572 3.37305C16.5438 3.14841 16.7594 3.00008 17.0002 3Z" fill="currentColor"/>
</svg>
