<svg xmlns="http://www.w3.org/2000/svg" viewBox="0 0 24 24" fill="none">
<path d="M5.21896 6.37425C5.56387 5.94317 6.19398 5.87338 6.62521 6.218C7.05646 6.56299 7.12643 7.19299 6.78146 7.62425L3.28146 11.9992L6.78146 16.3742C7.12647 16.8055 7.05647 17.4355 6.62521 17.7805C6.19395 18.1255 5.56396 18.0555 5.21896 17.6242L1.21896 12.6242C0.927125 12.259 0.9269 11.7393 1.21896 11.3742L5.21896 6.37425Z" fill="currentColor"/><path d="M17.3752 6.218C17.8063 5.8731 18.4364 5.94336 18.7815 6.37425L22.7815 11.3742C23.0736 11.7394 23.0736 12.259 22.7815 12.6242L18.7815 17.6242C18.4365 18.0555 17.8065 18.1255 17.3752 17.7805C16.9443 17.4354 16.8741 16.8054 17.219 16.3742L20.719 11.9992L17.219 7.62425C16.8743 7.19301 16.9441 6.5629 17.3752 6.218Z" fill="currentColor"/><path d="M10.5002 9.99925C10.711 9.99925 10.9001 10.1296 10.9758 10.3264L11.5656 11.8596C11.6672 12.1237 11.8767 12.3322 12.1408 12.4338L13.674 13.0237C13.8707 13.0993 14.0001 13.2885 14.0002 13.4992C14.0002 13.71 13.8707 13.8991 13.674 13.9748L12.1408 14.5647C11.8767 14.6663 11.6672 14.8758 11.5656 15.1399L10.9758 16.6731C10.9 16.8697 10.711 16.9992 10.5002 16.9992C10.2895 16.9991 10.1003 16.8698 10.0246 16.6731L9.43478 15.1399C9.33321 14.8758 9.12466 14.6662 8.86056 14.5647L7.32736 13.9748C7.13059 13.8991 7.00021 13.7101 7.00021 13.4992C7.00037 13.2885 7.13067 13.0993 7.32736 13.0237L8.86056 12.4338C9.12466 12.3322 9.33321 12.1237 9.43478 11.8596L10.0246 10.3264C10.1003 10.1297 10.2895 9.9994 10.5002 9.99925Z" fill="currentColor"/><path d="M13.5002 5.99925C13.6507 5.99925 13.7859 6.09228 13.8401 6.23264L14.216 7.21018C14.3176 7.4741 14.5263 7.68286 14.7903 7.7844L15.7668 8.1594C15.9073 8.21342 16.0001 8.34879 16.0002 8.49925C16.0002 8.64986 15.9074 8.78502 15.7668 8.83909L14.7903 9.21507C14.5263 9.31664 14.3176 9.5253 14.216 9.78928L13.8401 10.7658C13.786 10.9064 13.6508 10.9992 13.5002 10.9992C13.3497 10.9991 13.2144 10.9063 13.1604 10.7658L12.7854 9.78928C12.6838 9.52533 12.4751 9.31668 12.2111 9.21507L11.2336 8.83909C11.0932 8.78493 11.0002 8.64973 11.0002 8.49925C11.0004 8.34883 11.0932 8.21345 11.2336 8.1594L12.2111 7.7844C12.475 7.68282 12.6838 7.47408 12.7854 7.21018L13.1604 6.23264C13.2144 6.09225 13.3498 5.9994 13.5002 5.99925Z" fill="currentColor"/>
</svg>
