<svg width="24" height="24" viewBox="0 0 24 24" fill="none" xmlns="http://www.w3.org/2000/svg">
<path fill-rule="evenodd" clip-rule="evenodd" d="M5.26756 18C5.61337 17.4022 6.25972 17 7 17C7.74028 17 8.38663 17.4022 8.73244 18H21C21.5523 18 22 18.4477 22 19C22 19.5523 21.5523 20 21 20H8.73244C8.38663 20.5978 7.74028 21 7 21C6.25972 21 5.61337 20.5978 5.26756 20H3C2.44772 20 2 19.5523 2 19C2 18.4477 2.44772 18 3 18H5.26756Z" fill="currentColor" style="fill:currentColor;fill-opacity:1;"/>
<path fill-rule="evenodd" clip-rule="evenodd" d="M2 8C2 5.79086 3.79086 4 6 4H18C20.2091 4 22 5.79086 22 8V12C22 14.2091 20.2091 16 18 16H6C3.79086 16 2 14.2091 2 12V8ZM5.62345 9.40742L4 10.625V12C4 13.1046 4.89543 14 6 14H14.8636L9.31846 9.48171C8.25007 8.61116 6.72597 8.58052 5.62345 9.40742ZM17.5 10C18.3284 10 19 9.32843 19 8.5C19 7.67157 18.3284 7 17.5 7C16.6716 7 16 7.67157 16 8.5C16 9.32843 16.6716 10 17.5 10Z" fill="currentColor" style="fill:currentColor;fill-opacity:1;"/>
</svg>
