<svg xmlns="http://www.w3.org/2000/svg" viewBox="0 0 24 24" fill="none">
<path d="M2.17594 2.21848C2.60706 1.87359 3.23711 1.94385 3.58219 2.37473L17.9816 20.3747C18.3266 20.806 18.2566 21.436 17.8254 21.781C17.3942 22.1256 16.765 22.0557 16.4201 21.6247L2.01969 3.62473C1.67508 3.1935 1.74487 2.56339 2.17594 2.21848Z" fill="currentColor"/><path d="M12.8 19.4997H6.00114C3.79218 19.4995 2.00114 17.7087 2.00114 15.4997V8.49973C2.0012 7.81221 2.17405 7.16445 2.47965 6.59934L12.8 19.4997Z" fill="currentColor"/><path d="M20.3302 6.96751C21.3274 6.46895 22.5006 7.19372 22.5011 8.30833V15.6911C22.5008 16.806 21.3275 17.5306 20.3302 17.032L18.5011 16.1179V7.88157L20.3302 6.96751Z" fill="currentColor"/><path d="M13.0011 4.49973C15.2101 4.49973 17.0009 6.29077 17.0011 8.49973V15.4997C17.0011 15.8691 16.9493 16.2266 16.8556 16.5661L7.20231 4.49973H13.0011Z" fill="currentColor"/>
</svg>
