<svg width="25" height="24" viewBox="0 0 25 24" fill="none" xmlns="http://www.w3.org/2000/svg">
<path d="M4.86701 7.6523C2.97837 11.073 3.48471 15.4624 6.38604 18.3637C9.28736 21.265 13.6767 21.7714 17.0975 19.8827M8.40254 4.11676C11.8233 2.22813 16.2126 2.73447 19.114 5.63579C22.0153 8.53712 22.5216 12.9265 20.633 16.3472" stroke="currentColor" style="stroke:currentColor;stroke-opacity:1;" stroke-width="2" stroke-linecap="round" stroke-linejoin="round"/>
<path d="M12.75 12H12.76M13 12C13 12.1381 12.8881 12.25 12.75 12.25C12.6119 12.25 12.5 12.1381 12.5 12C12.5 11.8619 12.6119 11.75 12.75 11.75C12.8881 11.75 13 11.8619 13 12Z" stroke="currentColor" style="stroke:currentColor;stroke-opacity:1;" stroke-width="2" stroke-linecap="round" stroke-linejoin="round"/>
<path d="M16.5732 10.4629C14.1584 7.84569 11.3419 7.84569 8.92709 10.4629C8.12717 11.3299 8.12717 12.6701 8.92709 13.5371C11.3419 16.1543 14.1584 16.1543 16.5732 13.5371C17.3732 12.6701 17.3732 11.3299 16.5732 10.4629Z" stroke="currentColor" style="stroke:currentColor;stroke-opacity:1;" stroke-width="2" stroke-linejoin="round"/>
</svg>
