<svg width="24" height="24" viewBox="0 0 24 24" fill="none" xmlns="http://www.w3.org/2000/svg">
<path fill-rule="evenodd" clip-rule="evenodd" d="M4.93821 6H2.75018C2.12503 6 2 6.29684 2 6.62526C2 7.21074 2.74143 10.1147 5.45396 13.9554C7.2619 16.5783 9.80939 18 12.1274 18C13.5184 18 13.6903 17.6842 13.6903 17.1404V15.1579C13.6903 14.5263 13.8216 14.4 14.2623 14.4C14.5874 14.4 15.1438 14.5642 16.4416 15.8286C17.9251 17.3274 18.1695 18 19.0041 18H21.1921C21.8173 18 22.1299 17.6842 21.9492 17.0608C21.7523 16.44 21.044 15.5387 20.1038 14.4707C19.5936 13.8619 18.8284 13.2057 18.5971 12.8779C18.2721 12.4566 18.3658 12.2691 18.5971 11.8945C18.5971 11.8945 21.2628 8.10063 21.5416 6.81284C21.6804 6.34421 21.5416 6 20.8789 6H18.6915C18.1352 6 17.8788 6.29684 17.7401 6.62526C17.7401 6.62526 16.6273 9.36505 15.0513 11.1448C14.5412 11.6602 14.3092 11.8244 14.031 11.8244C13.8922 11.8244 13.691 11.6602 13.691 11.1922V6.81284C13.691 6.25074 13.529 6 13.0658 6H9.62747C9.27988 6 9.07108 6.26084 9.07108 6.50842C9.07108 7.04084 9.85877 7.164 9.94004 8.66211V11.9179C9.94004 12.6316 9.81251 12.7611 9.5337 12.7611C8.79227 12.7611 6.98808 10.0086 5.91782 6.85958C5.70777 6.24632 5.4971 6 4.93821 6Z" fill="currentColor"/>
</svg>
