<svg xmlns="http://www.w3.org/2000/svg" viewBox="0 0 24 24" fill="none">
<path d="M14.9998 13.9334C17.6886 13.5744 20.2812 11.7633 21.9998 8.49996C18.3222 1.51668 10.6418 1.18341 6.58203 7.5" stroke="currentColor" stroke-width="2" stroke-linecap="round" stroke-linejoin="round"/><path d="M16.25 8.5C16.25 9.74264 15.2426 10.75 14 10.75C12.7574 10.75 11.75 9.74264 11.75 8.5C11.75 7.25736 12.7574 6.25 14 6.25C15.2426 6.25 16.25 7.25736 16.25 8.5Z" stroke="currentColor" stroke-width="2" stroke-linecap="round" stroke-linejoin="round"/><path d="M11 18.5C12.3333 17.25 12.3333 14.75 11 13.5" stroke="currentColor" stroke-width="2" stroke-linecap="round" stroke-linejoin="round"/><path d="M2 16.5V15.5C2 14.3954 2.89543 13.5 4 13.5L5.03501 11.775C5.32349 11.2942 5.84307 11 6.40377 11C7.28534 11 8 11.7147 8 12.5962V19.4038C8 20.2853 7.28534 21 6.40377 21C5.84307 21 5.32349 20.7058 5.03501 20.225L4 18.5C2.89543 18.5 2 17.6046 2 16.5Z" stroke="currentColor" stroke-width="2" stroke-linejoin="round"/>
</svg>
