<svg xmlns="http://www.w3.org/2000/svg" viewBox="0 0 24 24" fill="none">
<path d="M16 2C17.6569 2 19 3.34315 19 5C19 6.30574 18.1645 7.41299 17 7.8252V16.1738C18.1647 16.5859 19 17.6941 19 19C19 20.6569 17.6569 22 16 22C14.3431 22 13 20.6569 13 19C13 17.6941 13.8353 16.5859 15 16.1738V7.8252C13.8355 7.41299 13 6.30574 13 5C13 3.34315 14.3431 2 16 2Z" fill="currentColor"/><path d="M8 4C8.55228 4 9 4.44772 9 5V19C9 19.5523 8.55228 20 8 20C7.44772 20 7 19.5523 7 19V5C7 4.44772 7.44772 4 8 4Z" fill="currentColor"/><path d="M4 9C4.55228 9 5 9.44772 5 10V14C5 14.5523 4.55228 15 4 15C3.44772 15 3 14.5523 3 14V10C3 9.44772 3.44772 9 4 9Z" fill="currentColor"/><path d="M12 9C12.5523 9 13 9.44772 13 10V14C13 14.5523 12.5523 15 12 15C11.4477 15 11 14.5523 11 14V10C11 9.44772 11.4477 9 12 9Z" fill="currentColor"/><path d="M20 10C20.5523 10 21 10.4477 21 11V13C21 13.5523 20.5523 14 20 14C19.4477 14 19 13.5523 19 13V11C19 10.4477 19.4477 10 20 10Z" fill="currentColor"/>
</svg>
