<svg xmlns="http://www.w3.org/2000/svg" viewBox="0 0 24 24" fill="none">
<path d="M6.40332 10.0004C7.83718 10.0004 9 11.1632 9 12.597V19.4037C8.99979 20.8374 7.83705 22.0004 6.40332 22.0004C5.49164 22.0002 4.64689 21.5213 4.17773 20.7396L3.39746 19.4398C2.0295 19.1609 1.00018 17.9507 1 16.5004V15.5004C1 14.0498 2.02933 12.8388 3.39746 12.5599L4.17773 11.2611C4.64686 10.4792 5.49153 10.0005 6.40332 10.0004Z" fill="currentColor"/><path d="M10.2705 12.8168C10.6482 12.4139 11.2807 12.3933 11.6836 12.7709C12.5911 13.6217 13 14.8454 13 16.0004C12.9999 17.1552 12.5911 18.3791 11.6836 19.2298C11.2807 19.6072 10.6482 19.5865 10.2705 19.1839C9.89299 18.7811 9.91373 18.1486 10.3164 17.7709C10.742 17.3718 10.9999 16.7201 11 16.0004C11 15.2806 10.7419 14.629 10.3164 14.2298C9.91362 13.8522 9.89313 13.2197 10.2705 12.8168Z" fill="currentColor"/><path d="M5.74121 6.95934C7.93568 3.54523 11.1918 1.8245 14.4922 2.015C17.7897 2.20549 20.913 4.29041 22.8848 8.03453C23.0381 8.32603 23.0382 8.67472 22.8848 8.96617C21.0424 12.4644 18.1953 14.5161 15.1318 14.9252C14.5847 14.998 14.082 14.6129 14.0088 14.0658C13.9359 13.5186 14.32 13.016 14.8672 12.9427C17.0592 12.6501 19.2725 11.2237 20.8555 8.50035C19.1564 5.57664 16.7317 4.14715 14.377 4.01109C11.9029 3.86829 9.28813 5.13917 7.42285 8.04137C7.12411 8.50535 6.50536 8.63948 6.04102 8.34117C5.57685 8.04252 5.44292 7.42376 5.74121 6.95934Z" fill="currentColor"/><path fill-rule="evenodd" clip-rule="evenodd" d="M14 5.25035C15.7949 5.25035 17.25 6.70543 17.25 8.50035C17.2498 10.2951 15.7948 11.7504 14 11.7504C12.2052 11.7504 10.7502 10.2951 10.75 8.50035C10.75 6.70543 12.2051 5.25035 14 5.25035ZM14 7.25035C13.3096 7.25035 12.75 7.81 12.75 8.50035C12.7502 9.19053 13.3098 9.75035 14 9.75035C14.6902 9.75035 15.2498 9.19053 15.25 8.50035C15.25 7.81 14.6904 7.25035 14 7.25035Z" fill="currentColor"/>
</svg>
