<svg xmlns="http://www.w3.org/2000/svg" viewBox="0 0 24 24" fill="none">
<path d="M8 5C8.55228 5 9 5.44772 9 6V18C9 18.5523 8.55228 19 8 19C7.44772 19 7 18.5523 7 18V6C7 5.44772 7.44772 5 8 5Z" fill="currentColor"/><path d="M16 7C16.5523 7 17 7.44772 17 8V16C17 16.5523 16.5523 17 16 17C15.4477 17 15 16.5523 15 16V8C15 7.44772 15.4477 7 16 7Z" fill="currentColor"/><path d="M12 9C12.5523 9 13 9.44772 13 10V14C13 14.5523 12.5523 15 12 15C11.4477 15 11 14.5523 11 14V10C11 9.44772 11.4477 9 12 9Z" fill="currentColor"/><path d="M4 10C4.55228 10 5 10.4477 5 11V13C5 13.5523 4.55228 14 4 14C3.44772 14 3 13.5523 3 13V11C3 10.4477 3.44772 10 4 10Z" fill="currentColor"/><path d="M20 10C20.5523 10 21 10.4477 21 11V13C21 13.5523 20.5523 14 20 14C19.4477 14 19 13.5523 19 13V11C19 10.4477 19.4477 10 20 10Z" fill="currentColor"/>
</svg>
