<svg xmlns="http://www.w3.org/2000/svg" viewBox="0 0 24 24" fill="none">
<path d="M8 3C8.55228 3 9 3.44772 9 4V20C9 20.5523 8.55228 21 8 21C7.44772 21 7 20.5523 7 20V4C7 3.44772 7.44772 3 8 3Z" fill="currentColor"/><path d="M16 13C16.2409 13 16.4574 13.1482 16.5439 13.373L17.2402 15.1855C17.3418 15.4494 17.5506 15.6582 17.8145 15.7598L19.627 16.4561C19.8518 16.5426 20 16.7591 20 17C20 17.2409 19.8518 17.4574 19.627 17.5439L17.8145 18.2402C17.5506 18.3418 17.3418 18.5506 17.2402 18.8145L16.5439 20.627C16.4574 20.8518 16.2409 21 16 21C15.7591 21 15.5426 20.8518 15.4561 20.627L14.7598 18.8145C14.6582 18.5506 14.4494 18.3418 14.1855 18.2402L12.373 17.5439C12.1482 17.4574 12 17.2409 12 17C12 16.7591 12.1482 16.5426 12.373 16.4561L14.1855 15.7598C14.4494 15.6582 14.6582 15.4494 14.7598 15.1855L15.4561 13.373C15.5426 13.1482 15.7591 13 16 13Z" fill="currentColor"/><path d="M4 9C4.55228 9 5 9.44772 5 10V14C5 14.5523 4.55228 15 4 15C3.44772 15 3 14.5523 3 14V10C3 9.44772 3.44772 9 4 9Z" fill="currentColor"/><path d="M12 7C12.5523 7 13 7.44772 13 8V13C13 13.5523 12.5523 14 12 14C11.4477 14 11 13.5523 11 13V8C11 7.44772 11.4477 7 12 7Z" fill="currentColor"/><path d="M20 9C20.5523 9 21 9.44772 21 10V13C21 13.5523 20.5523 14 20 14C19.4477 14 19 13.5523 19 13V10C19 9.44772 19.4477 9 20 9Z" fill="currentColor"/><path d="M16 5C16.5523 5 17 5.44772 17 6V10C17 10.5523 16.5523 11 16 11C15.4477 11 15 10.5523 15 10V6C15 5.44772 15.4477 5 16 5Z" fill="currentColor"/>
</svg>
