<svg xmlns="http://www.w3.org/2000/svg" viewBox="0 0 24 24" fill="none">
<path d="M8 6C8.55228 6 9 6.44772 9 7V17C9 17.5523 8.55228 18 8 18C7.44772 18 7 17.5523 7 17V7C7 6.44772 7.44772 6 8 6Z" fill="currentColor"/><path d="M16 8C16.5523 8 17 8.44772 17 9V15C17 15.5523 16.5523 16 16 16C15.4477 16 15 15.5523 15 15V9C15 8.44772 15.4477 8 16 8Z" fill="currentColor"/><path d="M12 10C12.5523 10 13 10.4477 13 11V13C13 13.5523 12.5523 14 12 14C11.4477 14 11 13.5523 11 13V11C11 10.4477 11.4477 10 12 10Z" fill="currentColor"/><path d="M4 10.5C4.55228 10.5 5 10.9477 5 11.5V12.5C5 13.0523 4.55228 13.5 4 13.5C3.44772 13.5 3 13.0523 3 12.5V11.5C3 10.9477 3.44772 10.5 4 10.5Z" fill="currentColor"/><path d="M20 10.5C20.5523 10.5 21 10.9477 21 11.5V12.5C21 13.0523 20.5523 13.5 20 13.5C19.4477 13.5 19 13.0523 19 12.5V11.5C19 10.9477 19.4477 10.5 20 10.5Z" fill="currentColor"/>
</svg>
