<svg xmlns="http://www.w3.org/2000/svg" viewBox="0 0 24 24" fill="none">
<path fill-rule="evenodd" clip-rule="evenodd" d="M8.89358 8.5C9.59988 8.50006 10.2542 8.87287 10.6143 9.48047L11.2363 10.5303L12.4707 10.54C13.1771 10.5458 13.8284 10.9246 14.1836 11.5352L14.5723 12.2041C14.9309 12.8207 14.9346 13.5817 14.5811 14.2012L13.9824 15.25L14.5811 16.2988C14.9346 16.9183 14.9309 17.6793 14.5723 18.2959L14.1836 18.9648C13.8284 19.5754 13.1771 19.9542 12.4707 19.96L11.2363 19.9697L10.6143 21.0195C10.2542 21.6271 9.59988 21.9999 8.89358 22H8.10256C7.39623 22 6.74201 21.6271 6.38186 21.0195L5.75881 19.9697L4.52541 19.96C3.81905 19.9542 3.16774 19.5754 2.81252 18.9648L2.42385 18.2959C2.06519 17.6793 2.06148 16.9183 2.41506 16.2988L3.01369 15.25L2.41506 14.2012C2.06148 13.5817 2.06519 12.8207 2.42385 12.2041L2.81252 11.5352C3.16774 10.9246 3.81905 10.5458 4.52541 10.54L5.75881 10.5303L6.38186 9.48047C6.74201 8.87286 7.39624 8.50002 8.10256 8.5H8.89358ZM8.49807 13.5C7.5316 13.5 6.74807 14.2835 6.74807 15.25C6.74807 16.2165 7.5316 17 8.49807 17C9.46448 16.9999 10.2481 16.2164 10.2481 15.25C10.2481 14.2836 9.46448 13.5001 8.49807 13.5Z" fill="currentColor"/><path d="M17.9981 2C18.5504 2 18.9981 2.44772 18.9981 3V15C18.9981 15.5523 18.5504 16 17.9981 16C17.4458 16 16.9981 15.5523 16.9981 15V3C16.9981 2.44772 17.4458 2.00002 17.9981 2Z" fill="currentColor"/><path d="M21.4981 7C22.0504 7 22.4981 7.44772 22.4981 8V10C22.4981 10.5523 22.0504 11 21.4981 11C20.9458 11 20.4981 10.5523 20.4981 10V8C20.4981 7.44772 20.9458 7.00002 21.4981 7Z" fill="currentColor"/><path d="M14.4981 5C15.0504 5 15.4981 5.44772 15.4981 6V8.25C15.4981 8.80228 15.0504 9.25 14.4981 9.25C13.9458 9.24998 13.4981 8.80228 13.4981 8.25V6C13.4981 5.44772 13.9458 5.00002 14.4981 5Z" fill="currentColor"/><path d="M10.9981 3C11.5504 3 11.9981 3.44772 11.9981 4V5.5C11.9981 6.05228 11.5504 6.5 10.9981 6.5C10.4458 6.49998 9.99807 6.05228 9.99807 5.5V4C9.99807 3.44772 10.4458 3.00002 10.9981 3Z" fill="currentColor"/>
</svg>
