<svg xmlns="http://www.w3.org/2000/svg" viewBox="0 0 24 24" fill="none">
<path fill-rule="evenodd" clip-rule="evenodd" d="M12 2C17.5228 2 22 6.47715 22 12C22 17.5228 17.5228 22 12 22C6.47715 22 2 17.5228 2 12C2 6.47715 6.47715 2 12 2ZM11.5 7.5C11.1852 7.5 10.889 7.64858 10.7002 7.90039L9.7998 9.09961C9.61095 9.35142 9.31476 9.5 9 9.5H8.5C7.94772 9.5 7.5 9.94772 7.5 10.5V13.5C7.5 14.0523 7.94772 14.5 8.5 14.5H9C9.31476 14.5 9.61095 14.6486 9.7998 14.9004L10.7002 16.0996C10.889 16.3514 11.1852 16.5 11.5 16.5C12.0523 16.5 12.5 16.0523 12.5 15.5V8.5C12.5 7.94772 12.0523 7.5 11.5 7.5ZM15.0547 9.16797C14.5952 8.86162 13.9743 8.98578 13.668 9.44531C13.3616 9.90484 13.4858 10.5257 13.9453 10.832C14.8516 11.4362 14.8516 12.5638 13.9453 13.168C13.4858 13.4743 13.3616 14.0952 13.668 14.5547C13.9743 15.0142 14.5952 15.1384 15.0547 14.832C17.1484 13.4362 17.1484 10.5638 15.0547 9.16797Z" fill="currentColor"/>
</svg>
