<svg xmlns="http://www.w3.org/2000/svg" viewBox="0 0 24 24" fill="none">
<path d="M3.58398 17.3984C4.96248 16.4781 6.13474 16.2731 7.19434 16.4053C8.37259 16.5524 9.52456 17.1279 10.7842 17.9072C11.9776 18.6456 13.3543 19.6321 14.7188 20.3076C15.2561 20.5736 15.8189 20.8054 16.4072 20.9756C15.0773 21.6298 13.5822 22 12 22C8.46616 22 5.36263 20.1656 3.58398 17.3984Z" fill="currentColor"/><path d="M8.0752 9.00098C8.71383 8.9817 9.3529 9.23563 10.0498 9.7793C10.756 10.3303 11.4474 11.1209 12.1709 12.0459C12.8507 12.915 13.6353 14.0095 14.3564 14.8945C15.0997 15.8068 15.9262 16.6949 16.8604 17.2822C17.7941 17.8693 18.8759 18.1762 20.0791 17.8906C19.7249 18.3755 19.3274 18.826 18.8936 19.2393C17.7879 19.3654 16.7268 19.0702 15.6064 18.5156C14.3493 17.8933 13.2074 17.0556 11.8359 16.207C10.5306 15.3994 9.07067 14.6242 7.44141 14.4209C5.91759 14.2308 4.3375 14.5507 2.67285 15.6074C2.52096 15.215 2.39202 14.8111 2.29004 14.3965C3.52638 12.4321 4.61001 11.1082 5.55859 10.2607C6.61124 9.32035 7.435 9.0204 8.0752 9.00098Z" fill="currentColor"/><path d="M12 2C17.5228 2 22 6.47715 22 12C22 12.8906 21.8815 13.7534 21.6631 14.5752C20.8625 15.402 20.2074 15.7882 19.6846 15.9297C19.093 16.0896 18.5397 15.9755 17.9248 15.5889C17.2773 15.1817 16.6189 14.5044 15.9072 13.6309C15.1734 12.7302 14.5322 11.8186 13.7461 10.8135C13.0036 9.86425 12.1888 8.91199 11.2803 8.20312C10.3626 7.48716 9.27798 6.96397 8.01562 7.00195C6.75462 7.04001 5.49922 7.6326 4.22656 8.76953C3.5209 9.39995 2.79326 10.2159 2.03125 11.2354C2.42192 6.06984 6.73448 2 12 2Z" fill="currentColor"/>
</svg>
