<svg xmlns="http://www.w3.org/2000/svg" viewBox="0 0 24 24" fill="none">
<path d="M12.0003 4C12.5525 4.00011 13.0003 4.44778 13.0003 5V19C13.0003 19.5522 12.5525 19.9999 12.0003 20C11.448 20 11.0003 19.5523 11.0003 19V5C11.0003 4.44772 11.448 4 12.0003 4Z" fill="currentColor"/><path d="M8.00029 7C8.55249 7.00011 9.00029 7.44778 9.00029 8V16C9.00029 16.5522 8.55249 16.9999 8.00029 17C7.44801 17 7.00029 16.5523 7.00029 16V8C7.00029 7.44772 7.44801 7 8.00029 7Z" fill="currentColor"/><path d="M16.0003 7C16.5525 7.00011 17.0003 7.44778 17.0003 8V16C17.0003 16.5522 16.5525 16.9999 16.0003 17C15.448 17 15.0003 16.5523 15.0003 16V8C15.0003 7.44772 15.448 7 16.0003 7Z" fill="currentColor"/><path d="M4.20049 9.59961C4.53009 9.35293 5.00029 9.58816 5.00029 10V14C5.00029 14.4118 4.53009 14.6471 4.20049 14.4004L1.5335 12.4004C1.26683 12.2004 1.26683 11.7996 1.5335 11.5996L4.20049 9.59961Z" fill="currentColor"/><path d="M19.0003 10C19.0003 9.58806 19.4705 9.35263 19.8001 9.59961L22.4671 11.5996C22.7337 11.7996 22.7337 12.2004 22.4671 12.4004L19.8001 14.4004C19.4705 14.6474 19.0003 14.4119 19.0003 14V10Z" fill="currentColor"/>
</svg>
