<svg xmlns="http://www.w3.org/2000/svg" viewBox="0 0 24 24" fill="none">
<path d="M8 3C8.55228 3 9 3.44772 9 4V20C9 20.5523 8.55228 21 8 21C7.44772 21 7 20.5523 7 20V4C7 3.44772 7.44772 3 8 3Z" fill="currentColor"/><path d="M20 12C20.5523 12 21 12.4477 21 13V17C21 17.5523 20.5523 18 20 18C19.4477 18 19 17.5523 19 17V15.3428C18.3966 15.9025 17.9885 16.4294 17.7041 16.96C17.2549 17.7981 17.0652 18.7407 17.0205 20.0342C17.0015 20.5859 16.5389 21.0176 15.9873 20.999C15.4355 20.98 15.0036 20.5176 15.0225 19.9658C15.0726 18.5151 15.2907 17.23 15.9414 16.0156C16.3253 15.2993 16.8423 14.6411 17.5117 14H16C15.4477 14 15 13.5523 15 13C15 12.4477 15.4477 12 16 12H20Z" fill="currentColor"/><path d="M12 7C12.5523 7 13 7.44772 13 8V16C13 16.5523 12.5523 17 12 17C11.4477 17 11 16.5523 11 16V8C11 7.44772 11.4477 7 12 7Z" fill="currentColor"/><path d="M4 9C4.55228 9 5 9.44772 5 10V14C5 14.5523 4.55228 15 4 15C3.44772 15 3 14.5523 3 14V10C3 9.44772 3.44772 9 4 9Z" fill="currentColor"/><path d="M16 5C16.5523 5 17 5.44772 17 6V9C17 9.55228 16.5523 10 16 10C15.4477 10 15 9.55228 15 9V6C15 5.44772 15.4477 5 16 5Z" fill="currentColor"/>
</svg>
