<svg width="24" height="24" viewBox="0 0 24 24" fill="none" xmlns="http://www.w3.org/2000/svg">
<path d="M9.71963 3.59848C11.0223 2.51294 13 3.43926 13 5.13493V18.8648C13 20.5605 11.0223 21.4868 9.71963 20.4013L5.91608 17.2317C5.73637 17.0819 5.50984 16.9999 5.2759 16.9999H4C2.34315 16.9999 1 15.6567 1 13.9999V9.99989C1 8.34303 2.34315 6.99989 4 6.99989H5.2759C5.50984 6.99989 5.73637 6.91787 5.91608 6.76811L9.71963 3.59848Z" fill="currentColor" style="fill:currentColor;fill-opacity:1;"/>
<path d="M16.3305 9.49918C16.0539 9.02113 15.4422 8.85777 14.9641 9.13432C14.4861 9.41088 14.3227 10.0226 14.5993 10.5007C14.854 10.9409 15.0001 11.4519 15.0001 12C15.0001 12.5481 14.854 13.059 14.5993 13.4993C14.3227 13.9774 14.4861 14.5891 14.9641 14.8656C15.4422 15.1422 16.0539 14.9788 16.3305 14.5008C16.7565 13.7643 17 12.9091 17 12C17 11.0909 16.7565 10.2357 16.3305 9.49918Z" fill="currentColor" style="fill:currentColor;fill-opacity:1;"/>
</svg>
