<svg width="24" height="24" viewBox="0 0 24 24" fill="none" xmlns="http://www.w3.org/2000/svg">
<path fill-rule="evenodd" clip-rule="evenodd" d="M2 6.5C2 5.12055 3.11658 4 4.49855 4H16.5C18.433 4 20 5.567 20 7.5C20 7.51164 19.9998 7.52324 19.9994 7.53479C21.1953 8.22632 22 9.51919 22 11V16C22 18.2091 20.2091 20 18 20H5C3.34315 20 2 18.6569 2 17C2 13.5132 2 9.95609 2 6.5ZM17.9146 7C17.7087 6.4174 17.1531 6 16.5 6H4.49855C4.22367 6 4 6.2226 4 6.5C4 6.77614 4.22386 7 4.5 7H17.9146ZM15 13.5C15 12.6716 15.6716 12 16.5 12C17.3284 12 18 12.6716 18 13.5C18 14.3284 17.3284 15 16.5 15C15.6716 15 15 14.3284 15 13.5Z" fill="currentColor" style="fill:currentColor;fill-opacity:1;"/>
</svg>
