<svg width="24" height="24" viewBox="0 0 24 24" fill="none" xmlns="http://www.w3.org/2000/svg">
<path fill-rule="evenodd" clip-rule="evenodd" d="M4 6C4 3.79086 5.79086 2 8 2H11V20H8V21C8 21.5523 7.55228 22 7 22C6.44772 22 6 21.5523 6 21V19.4649C4.8044 18.7733 4 17.4806 4 16V6ZM9 10C9 9.44772 8.55228 9 8 9C7.44772 9 7 9.44772 7 10V12C7 12.5523 7.44772 13 8 13C8.55228 13 9 12.5523 9 12V10Z" fill="currentColor" style="fill:currentColor;fill-opacity:1;"/>
<path fill-rule="evenodd" clip-rule="evenodd" d="M13 20H16V21C16 21.5523 16.4477 22 17 22C17.5523 22 18 21.5523 18 21V19.4649C19.1956 18.7733 20 17.4806 20 16V6C20 3.79086 18.2091 2 16 2H13V20ZM16 9C16.5523 9 17 9.44772 17 10V12C17 12.5523 16.5523 13 16 13C15.4477 13 15 12.5523 15 12V10C15 9.44772 15.4477 9 16 9Z" fill="currentColor" style="fill:currentColor;fill-opacity:1;"/>
</svg>
