<svg width="24" height="24" viewBox="0 0 24 24" fill="none" xmlns="http://www.w3.org/2000/svg">
<path fill-rule="evenodd" clip-rule="evenodd" d="M7 3C4.79086 3 3 4.79086 3 7V17C3 19.2091 4.79086 21 7 21H17C19.2091 21 21 19.2091 21 17V7C21 4.79086 19.2091 3 17 3H7ZM5 6.25C5 5.55964 5.55964 5 6.25 5C6.94036 5 7.5 5.55964 7.5 6.25C7.5 6.94036 6.94036 7.5 6.25 7.5C5.55964 7.5 5 6.94036 5 6.25ZM15.7826 14.3042C15.0924 14.6393 14.4112 14.7472 13.7436 14.6935C12.8727 14.6235 12.0861 14.2782 11.4725 14.0059L11.4373 13.9903C10.7819 13.6995 10.3167 13.4931 9.86089 13.4322C9.47518 13.3807 9.08549 13.4349 8.60111 13.7992L8.16175 14.1297C8.64927 15.7887 10.1832 17 12 17C13.7525 17 15.2418 15.873 15.7826 14.3042ZM15.8383 11.8704L15.3989 12.2009C14.8041 12.6482 14.3288 12.7341 13.9039 12.7C13.4196 12.661 12.9279 12.4636 12.2835 12.1778L12.1542 12.1201C11.5889 11.8679 10.877 11.5502 10.1256 11.4498C9.49902 11.3661 8.85638 11.4306 8.20973 11.7184C8.74397 10.1378 10.2391 9 12 9C13.8169 9 15.3508 10.2113 15.8383 11.8704Z" fill="currentColor" style="fill:currentColor;fill-opacity:1;"/>
</svg>
