<svg xmlns="http://www.w3.org/2000/svg" viewBox="0 0 24 24" fill="none">
<path fill-rule="evenodd" clip-rule="evenodd" d="M21 17C21 19.2091 19.2091 21 17 21H7C4.79086 21 3 19.2091 3 17V8H21V17ZM10.457 12.293C10.0665 11.9024 9.43349 11.9024 9.04297 12.293L7.54297 13.793C7.15244 14.1835 7.15244 14.8165 7.54297 15.207L9.04297 16.707C9.43349 17.0976 10.0665 17.0976 10.457 16.707C10.8476 16.3165 10.8476 15.6835 10.457 15.293L9.66406 14.5L10.457 13.707C10.8476 13.3165 10.8476 12.6835 10.457 12.293ZM14.957 12.293C14.5665 11.9024 13.9335 11.9024 13.543 12.293C13.1524 12.6835 13.1524 13.3165 13.543 13.707L14.3359 14.5L13.543 15.293C13.1524 15.6835 13.1524 16.3165 13.543 16.707C13.9335 17.0976 14.5665 17.0976 14.957 16.707L16.457 15.207C16.8476 14.8165 16.8476 14.1835 16.457 13.793L14.957 12.293Z" fill="currentColor"/><path d="M17 3C18.8638 3 20.43 4.27477 20.874 6H3.12598C3.57002 4.27477 5.13616 3 7 3H17Z" fill="currentColor"/>
</svg>
