<svg width="24" height="24" viewBox="0 0 24 24" fill="none" xmlns="http://www.w3.org/2000/svg">
<path fill-rule="evenodd" clip-rule="evenodd" d="M20.3739 18.6316C21.7169 17.6578 22.5753 16.2187 22.5753 14.6183C22.5753 11.6871 19.7226 9.31035 16.2046 9.31035C12.6865 9.31035 9.83385 11.6871 9.83385 14.6183C9.83385 17.5503 12.6865 19.927 16.2046 19.927C16.9316 19.927 17.6331 19.8239 18.2844 19.6362L18.4712 19.608C18.5937 19.608 18.7047 19.6459 18.8096 19.7058L20.2047 20.5113L20.3272 20.551C20.4444 20.551 20.5396 20.4558 20.5396 20.3386L20.5052 20.1835L20.2179 19.1127L20.1959 18.977C20.1959 18.8343 20.2664 18.7082 20.3739 18.6316ZM9.06979 3.44901C4.84761 3.44901 1.42474 6.3008 1.42474 9.81973C1.42474 11.7391 2.45407 13.4673 4.06592 14.635C4.19547 14.7267 4.28007 14.8782 4.28007 15.0501L4.25363 15.2122L3.90905 16.4971L3.86763 16.6831C3.86763 16.8241 3.9822 16.9387 4.12232 16.9387L4.27037 16.8911L5.94391 15.9243C6.06905 15.852 6.20212 15.8071 6.3493 15.8071L6.57402 15.8406C7.35483 16.0653 8.19733 16.1904 9.06979 16.1904L9.48927 16.1799C9.32359 15.6828 9.23282 15.1594 9.23282 14.6191C9.23282 11.4104 12.3543 8.80891 16.2046 8.80891L16.6197 8.81948C16.0442 5.77645 12.8831 3.44901 9.06979 3.44901ZM14.0807 13.7696C13.6119 13.7696 13.232 13.3889 13.232 12.92C13.232 12.4503 13.6119 12.0705 14.0807 12.0705C14.5504 12.0705 14.9303 12.4503 14.9303 12.92C14.9303 13.3889 14.5504 13.7696 14.0807 13.7696ZM18.3284 13.7696C17.8587 13.7696 17.4789 13.3889 17.4789 12.92C17.4789 12.4503 17.8587 12.0705 18.3284 12.0705C18.7973 12.0705 19.1771 12.4503 19.1771 12.92C19.1771 13.3889 18.7973 13.7696 18.3284 13.7696ZM6.52115 8.8001C5.95801 8.8001 5.50239 8.3436 5.50239 7.78134C5.50239 7.21821 5.95801 6.76171 6.52115 6.76171C7.08428 6.76171 7.54078 7.21821 7.54078 7.78134C7.54078 8.3436 7.08428 8.8001 6.52115 8.8001ZM11.6175 8.8001C11.0544 8.8001 10.5988 8.3436 10.5988 7.78134C10.5988 7.21821 11.0544 6.76171 11.6175 6.76171C12.1807 6.76171 12.6372 7.21821 12.6372 7.78134C12.6372 8.3436 12.1807 8.8001 11.6175 8.8001Z" fill="currentColor"/>
</svg>
