<svg width="24" height="24" viewBox="0 0 24 24" fill="none" xmlns="http://www.w3.org/2000/svg">
  <path fill-rule="evenodd" clip-rule="evenodd"
    d="M16.5169 13.9846C16.2687 13.8615 15.0502 13.2625 14.8246 13.1795C14.5969 13.0974 14.4318 13.0564 14.2666 13.3025C14.1015 13.5518 13.6266 14.1087 13.482 14.2738C13.3384 14.44 13.1938 14.4605 12.9456 14.3354C12.6974 14.2123 11.8995 13.9508 10.9538 13.1077C10.2174 12.4513 9.71999 11.64 9.57537 11.3918C9.43178 11.1436 9.55999 11.0102 9.68409 10.8861C9.79588 10.7754 9.9323 10.5969 10.0554 10.4523C10.1795 10.3087 10.2215 10.2051 10.3036 10.039C10.3856 9.87486 10.3446 9.72922 10.2831 9.60512C10.2215 9.48204 9.72512 8.26256 9.51896 7.76717C9.31794 7.28512 9.11384 7.34974 8.96204 7.34153C8.80384 7.33502 8.6455 7.33228 8.48717 7.33333C8.36167 7.33664 8.23821 7.36587 8.12455 7.41917C8.01088 7.47248 7.90946 7.5487 7.82666 7.64307C7.59999 7.89127 6.95999 8.49025 6.95999 9.70871C6.95999 10.9272 7.84717 12.1056 7.97127 12.2708C8.09435 12.4359 9.71794 14.9374 12.202 16.0092C12.7938 16.2656 13.2554 16.4174 13.6143 16.5313C14.2082 16.72 14.7487 16.6933 15.1754 16.6297C15.6513 16.5579 16.64 16.0307 16.8472 15.4523C17.0533 14.8738 17.0533 14.3774 16.9907 14.2738C16.9292 14.1713 16.7651 14.1097 16.5169 13.9846ZM11.9969 20.1548H11.9938C10.5178 20.1551 9.06892 19.7583 7.79897 19.0061L7.49845 18.8277L4.38051 19.6451L5.2123 16.6061L5.01743 16.2943C4.19197 14.9814 3.75496 13.4616 3.75692 11.9108C3.75897 7.36922 7.45538 3.67384 12 3.67384C14.201 3.67384 16.2697 4.5323 17.8256 6.08922C18.5927 6.85301 19.2007 7.76135 19.6144 8.76167C20.0281 9.76198 20.2394 10.8344 20.2359 11.9169C20.2348 16.4595 16.5384 20.1548 11.9969 20.1548ZM19.0092 4.90666C18.0907 3.9825 16.9979 3.24974 15.7943 2.7508C14.5906 2.25187 13.2999 1.99668 11.9969 2C6.5323 2 2.08513 6.44512 2.08205 11.9097C2.08205 13.6564 2.53743 15.362 3.40513 16.8636L2 22L7.25538 20.6215C8.70921 21.4134 10.3383 21.8285 11.9938 21.8287H11.9969C17.4605 21.8287 21.9087 17.3825 21.9107 11.9179C21.9147 10.6155 21.6603 9.32515 21.1623 8.12166C20.6642 6.91818 19.9324 5.82543 19.0092 4.90666Z"
    fill="currentColor" />
</svg>
