<svg width="24" height="24" viewBox="0 0 24 24" fill="none" xmlns="http://www.w3.org/2000/svg">
<path d="M12.1701 6.55366C11.7603 6.92362 11.1282 6.89148 10.758 6.48179C10.3877 6.07199 10.4198 5.43964 10.8296 5.06939L11.4699 5.7781C10.8296 5.06938 10.8294 5.06956 10.8296 5.06939L10.8315 5.06765L10.8346 5.06493L10.8439 5.05658L10.8754 5.02884C10.9019 5.00563 10.9393 4.97323 10.9866 4.93328C11.0811 4.8535 11.2156 4.74298 11.3811 4.61519C11.7094 4.36181 12.173 4.03015 12.698 3.73544C13.213 3.44633 13.8431 3.16055 14.4961 3.04927C15.1588 2.93632 15.9542 2.98943 16.628 3.53319C17.0124 3.84339 17.313 4.21596 17.475 4.66107C17.6397 5.11353 17.6317 5.56006 17.5289 5.96132C17.3388 6.70318 16.8095 7.3383 16.3808 7.79626C16.1819 8.00875 15.9737 8.21416 15.7845 8.39945C15.8923 8.37793 16.0077 8.35532 16.132 8.33202C16.7008 8.22545 17.4001 8.12 18.0954 8.17822C18.8097 8.23804 19.579 8.47601 20.2071 9.10411C20.9974 9.8944 21.1081 10.848 21.004 11.6526C20.9254 12.2603 20.7053 12.8897 20.5435 13.3525C20.5085 13.4526 20.4762 13.5449 20.4487 13.6274C20.274 14.1514 19.7077 14.4345 19.1838 14.2599C18.6598 14.0853 18.3767 13.5189 18.5513 12.995C18.5973 12.8572 18.6424 12.7267 18.6857 12.6018C18.8412 12.1527 18.9713 11.7766 19.0205 11.3961C19.075 10.9753 19.0026 10.728 18.7929 10.5183C18.5926 10.318 18.3227 10.2043 17.9285 10.1712C17.5153 10.1366 17.037 10.1973 16.5004 10.2978C16.3765 10.321 16.2414 10.3483 16.101 10.3767C15.7083 10.4561 15.2736 10.544 14.9242 10.5745C14.6757 10.5962 14.3565 10.603 14.042 10.5148C13.692 10.4167 13.3212 10.1898 13.1056 9.75865C12.845 9.23761 12.9922 8.74004 13.1343 8.44699C13.2753 8.15638 13.4888 7.89639 13.6741 7.69142C13.8676 7.4773 14.0938 7.25568 14.303 7.05097L14.3183 7.03602C14.5302 6.82858 14.7325 6.6306 14.9206 6.42958C15.3339 5.98801 15.5381 5.67335 15.5915 5.46481C15.6105 5.39087 15.6018 5.36205 15.5957 5.34521C15.5868 5.32103 15.5464 5.23036 15.372 5.08957C15.2958 5.02807 15.1537 4.96603 14.8321 5.02085C14.5007 5.07733 14.0995 5.24221 13.677 5.47941C13.2645 5.71102 12.8844 5.98134 12.6032 6.19836C12.4641 6.30577 12.3525 6.39755 12.2771 6.46127C12.2394 6.49308 12.2109 6.51772 12.1928 6.53364L12.1734 6.5507L12.1701 6.55366Z" fill="currentColor"/>
<path d="M7.5 7.50009C5.01472 7.50009 3 9.51481 3 12.0001C3 14.4854 5.01472 16.5001 7.5 16.5001C9.98528 16.5001 12 14.4854 12 12.0001C12 9.51481 9.98528 7.50009 7.5 7.50009Z" fill="currentColor"/>
<path d="M16.2634 13.8691C15.6734 12.9472 14.3266 12.9472 13.7366 13.8691L10.6502 18.6915C10.0112 19.6899 10.7283 21.0001 11.9136 21.0001H18.0864C19.2717 21.0001 19.9888 19.6899 19.3498 18.6915L16.2634 13.8691Z" fill="currentColor"/>
</svg>
