<svg width="25" height="24" viewBox="0 0 25 24" fill="none" xmlns="http://www.w3.org/2000/svg">
<path d="M7.75 8C7.75 8.55228 7.30228 9 6.75 9C6.19772 9 5.75 8.55228 5.75 8C5.75 7.44772 6.19772 7 6.75 7C7.30228 7 7.75 7.44772 7.75 8Z" fill="currentColor" style="fill:currentColor;fill-opacity:1;"/>
<path d="M10.75 8C10.75 8.55228 10.3023 9 9.75 9C9.19772 9 8.75 8.55228 8.75 8C8.75 7.44772 9.19772 7 9.75 7C10.3023 7 10.75 7.44772 10.75 8Z" fill="currentColor" style="fill:currentColor;fill-opacity:1;"/>
<path d="M12.75 9C13.3023 9 13.75 8.55228 13.75 8C13.75 7.44772 13.3023 7 12.75 7C12.1977 7 11.75 7.44772 11.75 8C11.75 8.55228 12.1977 9 12.75 9Z" fill="currentColor" style="fill:currentColor;fill-opacity:1;"/>
<path d="M2.75 8C2.75 5.79086 4.54086 4 6.75 4H18.75C20.9591 4 22.75 5.79086 22.75 8C22.75 8.55228 22.3023 9 21.75 9C21.1977 9 20.75 8.55228 20.75 8C20.75 6.89543 19.8546 6 18.75 6H6.75C5.64543 6 4.75 6.89543 4.75 8V16C4.75 17.1046 5.64543 18 6.75 18H10.75C11.3023 18 11.75 18.4477 11.75 19C11.75 19.5523 11.3023 20 10.75 20H6.75C4.54086 20 2.75 18.2091 2.75 16V8Z" fill="currentColor" style="fill:currentColor;fill-opacity:1;"/>
<path d="M18.75 11C19.3023 11 19.75 11.4477 19.75 12C19.75 13.2668 20.0316 13.9508 20.4154 14.3346C20.7992 14.7184 21.4832 15 22.75 15C23.3023 15 23.75 15.4477 23.75 16C23.75 16.5523 23.3023 17 22.75 17C21.4832 17 20.7992 17.2816 20.4154 17.6654C20.0316 18.0492 19.75 18.7332 19.75 20C19.75 20.5523 19.3023 21 18.75 21C18.1977 21 17.75 20.5523 17.75 20C17.75 18.7332 17.4684 18.0492 17.0846 17.6654C16.7008 17.2816 16.0168 17 14.75 17C14.1977 17 13.75 16.5523 13.75 16C13.75 15.4477 14.1977 15 14.75 15C16.0168 15 16.7008 14.7184 17.0846 14.3346C17.4684 13.9508 17.75 13.2668 17.75 12C17.75 11.4477 18.1977 11 18.75 11Z" fill="currentColor" style="fill:currentColor;fill-opacity:1;"/>
</svg>
