<svg width="24" height="24" viewBox="0 0 24 24" fill="none" xmlns="http://www.w3.org/2000/svg">
<path d="M23.5519 5.06564H23.7806L23.7797 5.0647C23.9016 5.0647 24 5.16314 24 5.28501V9.90952C24 10.0314 23.9016 10.1298 23.7797 10.1298H23.5857C22.6135 10.1298 21.826 10.9173 21.826 11.8894V16.7849C21.826 17.9735 20.8333 18.9383 19.6746 18.9383C18.9152 18.9383 18.2786 18.5876 17.8652 17.997L12.893 10.8967C12.5564 10.4167 12.0071 10.1308 11.4212 10.1308H11.4183C10.4462 10.1308 9.6587 10.9182 9.6587 11.8904V16.7839C9.6587 18.1349 8.39125 19.1951 7.01411 18.882C6.46382 18.7573 5.98665 18.4142 5.66323 17.952L0.188433 10.1326C0.0656218 9.9564 0 9.74827 0 9.5336V5.28782C0 5.06845 0.28218 4.98033 0.407797 5.15939L5.97166 13.1053C6.3082 13.5853 6.87443 13.8712 7.44441 13.8712C8.40718 13.8712 9.20403 13.0838 9.20403 12.1116V7.21525C9.20403 6.0256 10.224 5.06189 11.3574 5.06189C12.084 5.06189 12.7551 5.41344 13.1676 6.00311L18.14 13.1044C18.4765 13.5844 19.0437 13.8703 19.6118 13.8703C20.568 13.8703 21.3714 13.0828 21.3714 12.1107V7.24243C21.3714 6.03873 22.3483 5.06377 23.5519 5.06564Z" fill="currentColor"/>
</svg>
