<svg width="24" height="24" viewBox="0 0 24 24" fill="none" xmlns="http://www.w3.org/2000/svg">
<path fill-rule="evenodd" clip-rule="evenodd" d="M6 4C3.79086 4 2 5.79086 2 8V10H22V8C22 5.79086 20.2091 4 18 4H6ZM6 6C5.44772 6 5 6.44772 5 7C5 7.55228 5.44772 8 6 8C6.55228 8 7 7.55228 7 7C7 6.44772 6.55228 6 6 6ZM8 7C8 6.44772 8.44772 6 9 6C9.55228 6 10 6.44772 10 7C10 7.55228 9.55228 8 9 8C8.44772 8 8 7.55228 8 7ZM12 6C11.4477 6 11 6.44772 11 7C11 7.55228 11.4477 8 12 8C12.5523 8 13 7.55228 13 7C13 6.44772 12.5523 6 12 6Z" fill="currentColor" style="fill:currentColor;fill-opacity:1;"/>
<path d="M2 16V12H22V16C22 18.2091 20.2091 20 18 20H6C3.79086 20 2 18.2091 2 16Z" fill="currentColor" style="fill:currentColor;fill-opacity:1;"/>
</svg>
