<svg xmlns="http://www.w3.org/2000/svg" viewBox="0 0 24 24" fill="none">
<path d="M18.8887 11.5977C19.6623 12.703 19.8271 14.1242 19.3262 15.377L17.4775 20H19C19.5523 20 20 20.4477 20 21C20 21.5523 19.5523 22 19 22H5C4.44772 22 4 21.5523 4 21C4 20.4477 4.44772 20 5 20H6.52246L4.67383 15.377C4.17292 14.1242 4.33766 12.703 5.11133 11.5977L11 3.18359V11.709C10.1172 12.0948 9.5 12.975 9.5 14C9.5 15.3807 10.6193 16.5 12 16.5C13.3807 16.5 14.5 15.3807 14.5 14C14.5 12.975 13.8828 12.0948 13 11.709V3.18359L18.8887 11.5977Z" fill="currentColor"/>
</svg>
