<svg width="24" height="24" viewBox="0 0 24 24" fill="none" xmlns="http://www.w3.org/2000/svg">
<path d="M11.9995 4.58524L19.4139 11.9993L20.0855 11.3276C21.6476 9.76551 21.6476 7.23285 20.0855 5.67075L18.3282 3.91339C16.7661 2.3513 14.2334 2.3513 12.6713 3.91339L11.9995 4.58524Z" fill="currentColor" style="fill:currentColor;fill-opacity:1;"/>
<path d="M18.4029 13.8167L10.182 5.59618L7.72879 6.48824C6.42674 6.96172 5.46242 8.07525 5.17985 9.4316L3.08203 19.5011L8.15387 14.4293C8.04271 14.1463 7.98166 13.8381 7.98166 13.5156C7.98166 12.1349 9.10095 11.0156 10.4817 11.0156C11.8624 11.0156 12.9817 12.1349 12.9817 13.5156C12.9817 14.8963 11.8624 16.0156 10.4817 16.0156C10.1592 16.0156 9.85109 15.9546 9.56811 15.8435L4.49379 20.9178L14.5674 18.8191C15.9237 18.5365 17.0372 17.5722 17.5107 16.2702L18.4029 13.8167Z" fill="currentColor" style="fill:currentColor;fill-opacity:1;"/>
</svg>
