<svg width="24" height="24" viewBox="0 0 24 24" fill="none" xmlns="http://www.w3.org/2000/svg">
  <path fill-rule="evenodd" clip-rule="evenodd"
    d="M20.5954 4.4598C21.5414 4.7128 22.2872 5.4586 22.5402 6.4046C23 8.1206 23 11.7 23 11.7C23 11.7 23 15.2794 22.5402 16.9954C22.4148 17.4615 22.1691 17.8865 21.8278 18.2278C21.4865 18.5691 21.0615 18.8148 20.5954 18.9402C18.8794 19.4 12 19.4 12 19.4C12 19.4 5.1206 19.4 3.4046 18.9402C2.9385 18.8148 2.51352 18.5691 2.17221 18.2278C1.8309 17.8865 1.58523 17.4615 1.4598 16.9954C1 15.2794 1 11.7 1 11.7C1 11.7 1 8.1206 1.4598 6.4046C1.7128 5.4586 2.4586 4.7128 3.4046 4.4598C5.1206 4 12 4 12 4C12 4 18.8794 4 20.5954 4.4598ZM15.5156 11.7L9.8 15V8.4L15.5156 11.7Z"
    fill="currentColor" />
</svg>
