<svg width="24" height="24" viewBox="0 0 24 24" fill="none" xmlns="http://www.w3.org/2000/svg">
<path fill-rule="evenodd" clip-rule="evenodd" d="M3.38218 11.7863L8.97412 16.18C7.82247 16.599 7 17.7035 7 19C7 20.6569 8.34315 22 10 22H14C15.6569 22 17 20.6569 17 19C17 17.7035 16.1775 16.599 15.0259 16.18L20.6178 11.7863C20.8591 11.5967 21 11.3069 21 11C21 6.02944 16.9706 2 12 2C7.02944 2 3 6.02944 3 11C3 11.3069 3.14089 11.5967 3.38218 11.7863ZM17.0964 11.747C17.1993 11.755 17.3007 11.763 17.4002 11.771L13 15.2282V11.5148C14.3262 11.5509 15.8256 11.6482 17.0964 11.747ZM6.90361 11.747C8.17443 11.6482 9.67378 11.5509 11 11.5148V15.2282L6.59981 11.771C6.69932 11.763 6.80066 11.755 6.90361 11.747Z" fill="currentColor" style="fill:currentColor;fill-opacity:1;"/>
</svg>
