<svg width="24" height="24" viewBox="0 0 24 24" fill="none" xmlns="http://www.w3.org/2000/svg">
<path fill-rule="evenodd" clip-rule="evenodd" d="M6.15819 7.7304C5.43238 8.85314 5.01402 10.4084 5.00034 12.0085C4.98666 13.6093 5.37864 15.1581 6.09305 16.273C6.79174 17.3634 7.7607 18 8.99997 18C9.67459 18 10.3513 17.6611 11.0435 16.9067C11.7403 16.1473 12.3729 15.0475 12.925 13.7468C13.0006 13.5688 13.0741 13.3883 13.1457 13.2056C13.0735 12.8747 13.0011 12.5457 12.9273 12.223C12.5262 10.4701 12.0764 8.85351 11.4076 7.68386C10.7585 6.5485 10.0095 6 8.99997 6C7.8319 6 6.87272 6.62512 6.15819 7.7304ZM14.2953 9.52085C13.9919 8.50757 13.6227 7.5285 13.1439 6.69114C12.2922 5.2015 10.9905 4 8.99997 4C6.9867 4 5.46105 5.12488 4.4786 6.6446C3.50743 8.14686 3.01666 10.0916 3.00042 11.9915C2.98418 13.8907 3.44148 15.8419 4.40909 17.352C5.39242 18.8866 6.93821 20 8.99997 20C10.4267 20 11.5988 19.2597 12.5171 18.2589C13.0245 17.706 13.4781 17.0495 13.8832 16.3348C13.9624 16.6153 14.0448 16.884 14.1313 17.1367C14.3696 17.8318 14.6717 18.5108 15.0953 19.0303C15.5403 19.5762 16.1703 20 17 20C17.6412 20 18.198 19.811 18.6497 19.4701C19.0884 19.139 19.3756 18.7049 19.5645 18.2866C19.9328 17.4711 20 16.5545 20 16C20 15.4477 19.5523 15 19 15C18.4477 15 18 15.4477 18 16C18 16.4455 17.938 17.0289 17.7418 17.4634C17.6484 17.6701 17.5445 17.7985 17.4449 17.8737C17.3583 17.939 17.2296 18 17 18C16.9311 18 16.8246 17.9863 16.6454 17.7665C16.4448 17.5205 16.2349 17.1057 16.0234 16.4883C15.7241 15.615 15.4855 14.5449 15.2264 13.3567C16.1471 10.8278 16.7187 8.06922 16.9902 6.13933C17.0672 5.59244 16.6862 5.08671 16.1393 5.00975C15.5924 4.9328 15.0867 5.31377 15.0097 5.86067C14.8636 6.89913 14.6269 8.18012 14.2953 9.52085Z" fill="currentColor" style="fill:currentColor;fill-opacity:1;"/>
</svg>
