<svg width="24" height="24" viewBox="0 0 24 24" fill="none" xmlns="http://www.w3.org/2000/svg">
<path d="M13.8291 7.58504C13.3451 7.62343 12.7861 7.66183 12.2271 7.73694C11.371 7.84705 10.5149 7.99725 9.80796 8.33155C8.4307 8.89284 7.49954 10.0849 7.49954 11.8377C7.49954 14.0388 8.91464 15.1552 10.7007 15.1552C11.2976 15.1552 11.781 15.0823 12.2271 14.9699C12.9357 14.7463 13.5315 14.3358 14.2385 13.5916C14.649 14.1506 14.7597 14.412 15.4678 15.0083C15.6535 15.0834 15.8393 15.0834 15.9884 14.9711C16.4351 14.5989 17.216 13.9275 17.6265 13.5548C17.8118 13.4041 17.7751 13.1822 17.6638 12.9947C17.2533 12.4729 16.845 12.0246 16.845 11.0194V7.66353C16.845 6.24448 16.9551 4.94063 15.915 3.9722C15.0578 3.18673 13.7178 2.89027 12.6765 2.89027C12.5275 2.89027 12.379 2.89027 12.2293 2.89027C10.3309 3.00152 8.32116 3.8203 7.87336 6.17164C7.79995 6.4681 8.02413 6.5816 8.17264 6.61943L10.2569 6.88144C10.4805 6.84192 10.5917 6.6567 10.6284 6.46923C10.8165 5.651 11.4856 5.24048 12.2299 5.16538C12.2677 5.16538 12.305 5.16538 12.3795 5.16538C12.8256 5.16538 13.309 5.35285 13.5704 5.72272C13.8658 6.17164 13.8308 6.76907 13.8308 7.28971L13.8291 7.58504ZM13.4197 12.0223C13.1593 12.5446 12.7121 12.8801 12.2282 12.9924C12.1542 12.9924 12.0435 13.0308 11.9312 13.0308C11.1124 13.0308 10.6268 12.3967 10.6268 11.4638C10.6268 10.2724 11.3349 9.71106 12.2282 9.45074C12.7121 9.3395 13.2712 9.3011 13.8296 9.3011V9.7489C13.8291 10.6072 13.8641 11.2775 13.4197 12.0223ZM22 17.1999V17.3213C21.9802 18.0503 21.5957 19.449 20.6854 20.2187C20.5036 20.3598 20.3212 20.2791 20.4014 20.0752C20.6662 19.4287 21.2716 17.9277 20.9887 17.5839C20.7882 17.3213 19.9575 17.341 19.25 17.402C18.927 17.4427 18.643 17.4613 18.4205 17.5054C18.2189 17.524 18.1771 17.3433 18.3804 17.2021C18.6435 17.0197 18.9276 16.8786 19.2506 16.7752C20.402 16.4319 21.7386 16.6341 21.9209 16.8577C21.9605 16.9153 22 17.0367 22 17.1999ZM20.079 18.6172C19.8158 18.8188 19.534 19.0023 19.25 19.1667C17.1262 20.4434 14.3762 21.1097 11.9905 21.1097C8.14667 21.1097 4.70889 19.6912 2.10062 17.3213C1.87701 17.1383 2.0594 16.8757 2.32254 17.0169C5.13353 18.6579 8.61197 19.6517 12.2118 19.6517C14.4779 19.6517 16.9224 19.2259 19.2494 18.3129C19.4104 18.2541 19.5928 18.1706 19.7548 18.1118C20.119 17.9475 20.4432 18.3558 20.079 18.6172Z" fill="currentColor"/>
</svg>
