<svg width="24" height="24" viewBox="0 0 24 24" fill="none" xmlns="http://www.w3.org/2000/svg">
<path fill-rule="evenodd" clip-rule="evenodd" d="M11.1617 2.57593C7.06882 3.83893 3.83893 7.06882 2.57593 11.1617L12.8383 21.4241C16.9312 20.1611 20.1611 16.9312 21.4241 12.8383L11.1617 2.57593ZM14.4571 10.9571C14.8476 10.5666 14.8476 9.93342 14.4571 9.54289C14.0666 9.15237 13.4334 9.15237 13.0429 9.54289L9.54289 13.0429C9.15237 13.4334 9.15237 14.0666 9.54289 14.4571C9.93342 14.8476 10.5666 14.8476 10.9571 14.4571L14.4571 10.9571Z" fill="currentColor" style="fill:currentColor;fill-opacity:1;"/>
<path d="M2 15C2 14.4926 2.02907 13.9921 2.08562 13.4998L10.5002 21.9144C10.0079 21.9709 9.50737 22 9 22H4C2.89543 22 2 21.1046 2 20V15Z" fill="currentColor" style="fill:currentColor;fill-opacity:1;"/>
<path d="M21.9144 10.5002C21.9709 10.0079 22 9.50737 22 9V4C22 2.89543 21.1046 2 20 2H15C14.4926 2 13.9921 2.02907 13.4998 2.08562L21.9144 10.5002Z" fill="currentColor" style="fill:currentColor;fill-opacity:1;"/>
</svg>
