<svg width="24" height="24" viewBox="0 0 24 24" fill="none" xmlns="http://www.w3.org/2000/svg">
<path fill-rule="evenodd" clip-rule="evenodd" d="M20.9982 3.93886C21.0319 4.49011 20.6125 4.96438 20.0612 4.99816C16.6283 5.20854 15.0733 6.19348 14.2637 7.32885C13.394 8.5485 13.2007 10.154 12.9945 12.1052C12.9904 12.1443 12.9862 12.1836 12.9821 12.223C12.7919 14.0262 12.5686 16.1441 11.3648 17.8324C10.0745 19.6419 7.82933 20.7672 4.0612 20.9982C3.50995 21.0319 3.03569 20.6125 3.00191 20.0612C2.96812 19.51 3.38761 19.0357 3.93886 19.0019C7.37174 18.7915 8.9268 17.8066 9.7364 16.6712C10.6061 15.4516 10.7993 13.8461 11.0056 11.8949C11.0097 11.8558 11.0139 11.8165 11.018 11.7771C11.2081 9.97389 11.4314 7.85595 12.6353 6.16768C13.9255 4.35821 16.1707 3.23283 19.9389 3.00191C20.4901 2.96812 20.9644 3.38761 20.9982 3.93886Z" fill="currentColor" style="fill:currentColor;fill-opacity:1;"/>
</svg>
