<svg width="24" height="24" viewBox="0 0 24 24" fill="none" xmlns="http://www.w3.org/2000/svg">
<path fill-rule="evenodd" clip-rule="evenodd" d="M14.0717 5.84598C15.5116 4.18055 17.3948 3.00001 20 3C20.5523 3 21 3.44771 21 4C21 4.55228 20.5523 5 20 5C18.1052 5.00001 16.7384 5.81947 15.5846 7.15404C14.3928 8.53256 13.4774 10.4043 12.5305 12.4244C12.4708 12.5517 12.411 12.6796 12.3509 12.8081C11.4867 14.6568 10.5733 16.6105 9.3974 18.1156C8.10541 19.7694 6.40528 21 4 21C3.44772 21 3 20.5523 3 20C3 19.4477 3.44772 19 4 19C5.59472 19 6.76959 18.2306 7.82135 16.8844C8.85167 15.5655 9.67414 13.8086 10.5728 11.889C10.6214 11.785 10.6704 11.6805 10.7195 11.5756C11.6476 9.59576 12.6697 7.46747 14.0717 5.84598Z" fill="currentColor" style="fill:currentColor;fill-opacity:1;"/>
</svg>
