<svg width="25" height="24" viewBox="0 0 25 24" fill="none" xmlns="http://www.w3.org/2000/svg">
<path fill-rule="evenodd" clip-rule="evenodd" d="M9.24785 4.72793C8.54159 4.58634 7.8592 4.53688 7.23184 4.60556C6.35225 4.70185 5.5079 5.04254 4.93155 5.7653C4.3552 6.48805 4.21097 7.38706 4.31287 8.26602C4.38555 8.89293 4.58564 9.54719 4.88088 10.2042C4.32984 10.6681 3.86572 11.1708 3.52827 11.7041C3.05516 12.4519 2.7951 13.3245 3.00085 14.2257C3.2066 15.1269 3.81956 15.8002 4.5703 16.2685C5.10576 16.6026 5.74206 16.854 6.43982 17.0329C6.45898 17.7529 6.56264 18.4292 6.76922 19.0255C7.05887 19.8616 7.57895 20.609 8.41185 21.01C9.24464 21.411 10.1531 21.3516 10.9872 21.0567C11.5821 20.8464 12.1753 20.5059 12.75 20.072C13.3248 20.5059 13.9179 20.8464 14.5128 21.0567C15.347 21.3516 16.2554 21.411 17.0882 21.01C17.9211 20.609 18.4412 19.8616 18.7308 19.0255C18.9374 18.4292 19.0411 17.7529 19.0602 17.0329C19.758 16.854 20.3943 16.6026 20.9297 16.2685C21.6805 15.8002 22.2934 15.1269 22.4992 14.2257C22.7049 13.3245 22.4449 12.4519 21.9718 11.7041C21.6343 11.1708 21.1702 10.6681 20.6192 10.2042C20.9144 9.54719 21.1145 8.89293 21.1872 8.26602C21.2891 7.38705 21.1448 6.48805 20.5685 5.7653C19.9921 5.04254 19.1478 4.70184 18.2682 4.60555C17.6408 4.53687 16.9584 4.58634 16.2522 4.72793C15.9225 4.08746 15.5358 3.5231 15.0909 3.07541C14.4672 2.44774 13.6744 2 12.75 2C11.8256 2 11.0328 2.44774 10.4091 3.07541C9.96427 3.5231 9.57749 4.08746 9.24785 4.72793ZM11.2036 5.32042C11.3428 5.3756 11.4827 5.43362 11.623 5.49443C12.3398 5.80492 13.1602 5.80491 13.877 5.49443C14.0174 5.43362 14.1572 5.3756 14.2964 5.32042C14.0928 4.97461 13.8818 4.69602 13.6722 4.48511C13.2994 4.10991 12.9878 4 12.75 4C12.5122 4 12.2006 4.10991 11.8278 4.48511C11.6183 4.69602 11.4072 4.97461 11.2036 5.32042ZM15.0803 7.16117C14.946 7.2138 14.8098 7.26996 14.6719 7.32967C13.4479 7.85984 12.0521 7.85984 10.8281 7.32967C10.6903 7.26996 10.5541 7.2138 10.4197 7.16117C10.377 7.29905 10.336 7.44056 10.2968 7.58555C9.94817 8.87307 9.07791 9.96439 7.90028 10.5908C7.76766 10.6614 7.63883 10.7328 7.5139 10.8051C7.59512 10.9244 7.68019 11.0447 7.76907 11.1658C8.55837 12.2411 8.86904 13.6019 8.62459 14.9132C8.59706 15.0608 8.57262 15.2061 8.55122 15.3489C8.69492 15.3597 8.84178 15.3682 8.99164 15.3742C10.3246 15.4276 11.5823 16.0333 12.4551 17.0422C12.5534 17.1558 12.6518 17.2655 12.75 17.3712C12.8483 17.2655 12.9466 17.1558 13.0449 17.0422C13.9177 16.0333 15.1754 15.4276 16.5084 15.3742C16.6583 15.3682 16.8051 15.3597 16.9488 15.3489C16.9274 15.2061 16.903 15.0608 16.8754 14.9132C16.631 13.6019 16.9417 12.2411 17.731 11.1658C17.8198 11.0447 17.9049 10.9244 17.9861 10.8051C17.8612 10.7328 17.7324 10.6614 17.5998 10.5908C16.4221 9.96439 15.5519 8.87307 15.2032 7.58555C15.164 7.44056 15.123 7.29905 15.0803 7.16117ZM17.0083 6.62646C17.0519 6.76966 17.0938 6.91517 17.1337 7.06284C17.3379 7.81686 17.8493 8.45823 18.539 8.82509C18.6741 8.89694 18.8066 8.9701 18.9365 9.0445C19.08 8.66976 19.1662 8.33104 19.2005 8.03571C19.2614 7.5103 19.1531 7.19818 19.0048 7.01224C18.8565 6.82629 18.5763 6.65123 18.0505 6.59368C17.755 6.56132 17.4056 6.56999 17.0083 6.62646ZM19.6062 11.9791C19.5215 12.1025 19.4338 12.2259 19.3432 12.3492C18.881 12.979 18.6984 13.7787 18.8416 14.5467C18.8696 14.697 18.8951 14.8463 18.9179 14.9942C19.3003 14.8728 19.6189 14.729 19.8712 14.5716C20.3199 14.2917 20.4964 14.0124 20.5494 13.7806C20.6023 13.5487 20.5645 13.2205 20.2817 12.7735C20.1227 12.5223 19.8981 12.2545 19.6062 11.9791ZM17.041 17.3475C16.8919 17.3581 16.741 17.3665 16.5884 17.3726C15.8078 17.4039 15.0686 17.7598 14.5574 18.3507C14.4573 18.4664 14.3565 18.5794 14.255 18.6895C14.5883 18.9127 14.8992 19.072 15.1794 19.1711C15.678 19.3473 16.0063 19.3112 16.2205 19.208C16.4348 19.1048 16.6679 18.8707 16.841 18.3709C16.9383 18.0899 17.0076 17.7474 17.041 17.3475ZM11.245 18.6895C11.1436 18.5794 11.0427 18.4664 10.9426 18.3507C10.4314 17.7598 9.69225 17.4039 8.91161 17.3726C8.75901 17.3665 8.6081 17.3581 8.45903 17.3475C8.4924 17.7474 8.56171 18.0899 8.65904 18.3709C8.83218 18.8707 9.06521 19.1048 9.27949 19.208C9.49374 19.3112 9.82207 19.3473 10.3206 19.1711C10.6008 19.072 10.9117 18.9127 11.245 18.6895ZM6.58216 14.9942C6.60498 14.8463 6.63042 14.697 6.65846 14.5467C6.80162 13.7787 6.61903 12.979 6.1568 12.3492C6.06627 12.2259 5.97857 12.1025 5.89381 11.9791C5.60197 12.2545 5.37735 12.5223 5.21837 12.7735C4.93556 13.2205 4.89775 13.5487 4.95068 13.7806C5.00361 14.0124 5.18011 14.2917 5.62888 14.5716C5.88114 14.729 6.19972 14.8728 6.58216 14.9942ZM6.5635 9.0445C6.69339 8.9701 6.82595 8.89694 6.96102 8.82509C7.65068 8.45824 8.16213 7.81686 8.36629 7.06285C8.40627 6.91518 8.4481 6.76966 8.49172 6.62646C8.09444 6.56999 7.74503 6.56132 7.44948 6.59368C6.9237 6.65124 6.64352 6.8263 6.49524 7.01224C6.34697 7.19818 6.23866 7.5103 6.29956 8.03571C6.3338 8.33104 6.42002 8.66976 6.5635 9.0445Z" fill="currentColor" style="fill:currentColor;fill-opacity:1;"/>
</svg>
