<svg width="24" height="24" viewBox="0 0 24 24" fill="none" xmlns="http://www.w3.org/2000/svg">
<path d="M12 20.5V18M12 5.99999V3.49999M6.59808 8.99999L4.5 7.78866M4.5 16.2113L6.59808 15M19.5 16.2113L17.4019 15M17.4019 8.99999L19.5 7.78866M17.7426 6.23019L19.2354 7.0699C19.7077 7.33557 20 7.83535 20 8.37726V9.99999M20 14V15.6227C20 16.1646 19.7077 16.6644 19.2354 16.9301L17.7426 17.7698M14.1791 19.7743L12.7354 20.5863C12.2788 20.8432 11.7212 20.8432 11.2646 20.5863L9.82092 19.7743M6.25741 17.7698L4.76461 16.9301C4.29229 16.6644 4 16.1646 4 15.6227V14M4 9.99999V8.37726C4 7.83535 4.29202 7.33573 4.76434 7.07005L6.25741 6.23019M9.82093 4.22571L11.2646 3.41365C11.7212 3.1568 12.2788 3.1568 12.7354 3.41364L14.1791 4.22571M12 12V14M12 12L10.2679 11M12 12L13.7321 11" stroke="currentColor" stroke-width="2" stroke-linecap="round" stroke-linejoin="round"/>
</svg>
