<svg width="24" height="24" viewBox="0 0 24 24" fill="none" xmlns="http://www.w3.org/2000/svg">
<path d="M2.75 4C2.75 4.69036 3.30964 5.25 4 5.25C4.69036 5.25 5.25 4.69036 5.25 4C5.25 3.30964 4.69036 2.75 4 2.75C3.30964 2.75 2.75 3.30964 2.75 4Z" fill="currentColor" style="fill:currentColor;fill-opacity:1;"/>
<path d="M18.75 4C18.75 4.69036 19.3096 5.25 20 5.25C20.6904 5.25 21.25 4.69036 21.25 4C21.25 3.30964 20.6904 2.75 20 2.75C19.3096 2.75 18.75 3.30964 18.75 4Z" fill="currentColor" style="fill:currentColor;fill-opacity:1;"/>
<path d="M10.0154 6.26799C11.2452 5.56529 12.7548 5.56529 13.9846 6.26799L15.9846 7.41085C16.3065 7.59481 16.5966 7.81969 16.8498 8.07682L11.9998 10.8482L7.15005 8.07696C7.40331 7.81978 7.69345 7.59485 8.01544 7.41085L10.0154 6.26799Z" fill="currentColor" style="fill:currentColor;fill-opacity:1;"/>
<path d="M6.14743 9.80753C6.05079 10.1533 6 10.5149 6 10.8838V13.1162C6 14.5516 6.76914 15.877 8.01544 16.5891L10.0154 17.732C10.3285 17.9109 10.6597 18.0442 10.9998 18.1321V12.5803L6.14743 9.80753Z" fill="currentColor" style="fill:currentColor;fill-opacity:1;"/>
<path d="M12.9998 18.1322C13.34 18.0443 13.6714 17.911 13.9846 17.732L15.9846 16.5891C17.2309 15.877 18 14.5516 18 13.1162V10.8838C18 10.5149 17.9492 10.1532 17.8525 9.80734L12.9998 12.5803V18.1322Z" fill="currentColor" style="fill:currentColor;fill-opacity:1;"/>
<path d="M18.75 20C18.75 20.6904 19.3096 21.25 20 21.25C20.6904 21.25 21.25 20.6904 21.25 20C21.25 19.3096 20.6904 18.75 20 18.75C19.3096 18.75 18.75 19.3096 18.75 20Z" fill="currentColor" style="fill:currentColor;fill-opacity:1;"/>
<path d="M2.75 20C2.75 20.6904 3.30964 21.25 4 21.25C4.69036 21.25 5.25 20.6904 5.25 20C5.25 19.3096 4.69036 18.75 4 18.75C3.30964 18.75 2.75 19.3096 2.75 20Z" fill="currentColor" style="fill:currentColor;fill-opacity:1;"/>
</svg>
