<svg width="24" height="24" viewBox="0 0 24 24" fill="none" xmlns="http://www.w3.org/2000/svg">
<path fill-rule="evenodd" clip-rule="evenodd" d="M7 2C5.89543 2 5 2.89543 5 4V8C5 8.00274 5.00001 8.00548 5.00003 8.00822C4.95243 8.01046 4.90624 8.01332 4.86178 8.01695C4.63318 8.03563 4.36345 8.07969 4.09202 8.21799C3.7157 8.40974 3.40974 8.7157 3.21799 9.09202C3.07969 9.36345 3.03563 9.63318 3.01695 9.86178C2.99994 10.0699 2.99997 10.3157 3 10.5681L3 15.2413C2.99999 16.0463 2.99998 16.7106 3.0442 17.2518C3.09012 17.8139 3.18869 18.3306 3.43598 18.816C3.81947 19.5686 4.43139 20.1805 5.18404 20.564C5.66938 20.8113 6.18608 20.9099 6.74818 20.9558C7.28938 21 7.95375 21 8.75873 21H15.2413C16.0463 21 16.7106 21 17.2518 20.9558C17.8139 20.9099 18.3306 20.8113 18.816 20.564C19.5686 20.1805 20.1805 19.5686 20.564 18.816C20.8113 18.3306 20.9099 17.8139 20.9558 17.2518C21 16.7106 21 16.0463 21 15.2413L21 10.5681C21 10.3158 21.0001 10.0699 20.9831 9.86178C20.9644 9.63318 20.9203 9.36345 20.782 9.09203C20.5903 8.7157 20.2843 8.40974 19.908 8.21799C19.6366 8.07969 19.3668 8.03563 19.1382 8.01695C19.0938 8.01332 19.0476 8.01046 19 8.00822C19 8.00548 19 8.00274 19 8V6C19 4.89543 18.1046 4 17 4L12.9142 4L11.5 2.58579C11.1249 2.21071 10.6162 2 10.0858 2H7ZM17 8V6H12.9142C12.3838 6 11.8751 5.78929 11.5 5.41421L10.0858 4H7V8H17ZM7 13C7 12.4477 7.44772 12 8 12H12C12.5523 12 13 12.4477 13 13C13 13.5523 12.5523 14 12 14H8C7.44772 14 7 13.5523 7 13Z" fill="currentColor" style="fill:currentColor;fill-opacity:1;"/>
</svg>
