<svg width="24" height="24" viewBox="0 0 24 24" fill="none" xmlns="http://www.w3.org/2000/svg">
<path fill-rule="evenodd" clip-rule="evenodd" d="M4 7.99092V17.7909C4.00336 17.7933 4.00684 17.7956 4.01044 17.798C4.18622 17.9163 4.50775 18.0654 5.00486 18.2176C5.91507 18.4962 7 17.7301 7 16.4426V10.479C7 9.49461 6.23964 8.59344 5.11481 8.31963C4.71783 8.22299 4.34215 8.114 4 7.99092ZM3.91187 17.7196C3.91187 17.7196 3.91672 17.7236 3.92317 17.7317C3.91455 17.7237 3.91187 17.7196 3.91187 17.7196ZM20 7.99092V17.7909C19.9966 17.7933 19.9932 17.7956 19.9896 17.798C19.8138 17.9163 19.4923 18.0654 18.9951 18.2176C18.0849 18.4962 17 17.7301 17 16.4426V10.479C17 9.49461 17.7604 8.59344 18.8852 8.31963C19.2822 8.22299 19.6579 8.114 20 7.99092ZM20.0881 17.7196C20.0881 17.7196 20.0855 17.7238 20.0768 17.7317C20.0833 17.7236 20.0881 17.7196 20.0881 17.7196ZM22 6V18C22 18.7355 21.4772 19.2077 21.106 19.4574C20.695 19.734 20.1604 19.9525 19.5805 20.13C17.3234 20.8208 15.4187 19.1336 15.0605 17.1219C14.1113 17.0433 13.0799 17 12 17C10.9201 17 9.88871 17.0433 8.93951 17.1219C8.58131 19.1336 6.67659 20.8208 4.41951 20.13C3.83959 19.9525 3.30502 19.734 2.89397 19.4574C2.52279 19.2077 2 18.7355 2 18V6C2 5.53592 2.21611 5.17053 2.44722 4.91954C2.6734 4.67392 2.9589 4.48507 3.24216 4.33625C3.81073 4.03753 4.56777 3.79879 5.41911 3.6096C7.13801 3.22762 9.46419 3 12 3C14.5358 3 16.862 3.22762 18.5809 3.6096C19.4322 3.79879 20.1893 4.03753 20.7578 4.33625C21.0411 4.48507 21.3266 4.67392 21.5528 4.91954C21.7839 5.17053 22 5.53592 22 6Z" fill="currentColor" style="fill:currentColor;fill-opacity:1;"/>
</svg>
