<svg width="24" height="24" viewBox="0 0 24 24" fill="none" xmlns="http://www.w3.org/2000/svg">
<path fill-rule="evenodd" clip-rule="evenodd" d="M12.2929 1.29289C12.6834 0.902369 13.3166 0.902369 13.7071 1.29289L16.7071 4.29289C17.0976 4.68342 17.0976 5.31658 16.7071 5.70711L13.7071 8.70711C13.3166 9.09763 12.6834 9.09763 12.2929 8.70711C11.9024 8.31658 11.9024 7.68342 12.2929 7.29289L13.5858 6H7C5.89543 6 5 6.89543 5 8V13C5 13.5523 4.55228 14 4 14C3.44772 14 3 13.5523 3 13V8C3 5.79086 4.79086 4 7 4H13.5858L12.2929 2.70711C11.9024 2.31658 11.9024 1.68342 12.2929 1.29289ZM20 10C20.5523 10 21 10.4477 21 11V16C21 18.2091 19.2091 20 17 20H10.4142L11.7071 21.2929C12.0976 21.6834 12.0976 22.3166 11.7071 22.7071C11.3166 23.0976 10.6834 23.0976 10.2929 22.7071L7.29289 19.7071C6.90237 19.3166 6.90237 18.6834 7.29289 18.2929L10.2929 15.2929C10.6834 14.9024 11.3166 14.9024 11.7071 15.2929C12.0976 15.6834 12.0976 16.3166 11.7071 16.7071L10.4142 18H17C18.1046 18 19 17.1046 19 16V11C19 10.4477 19.4477 10 20 10Z" fill="currentColor" style="fill:currentColor;fill-opacity:1;"/>
</svg>
