<svg width="24" height="24" viewBox="0 0 24 24" fill="none" xmlns="http://www.w3.org/2000/svg">
<path d="M16.7931 18.2929C16.4026 18.6834 16.4026 19.3166 16.7931 19.7071C17.1836 20.0976 17.8168 20.0976 18.2073 19.7071L21.1467 16.7678C22.123 15.7915 22.123 14.2085 21.1467 13.2322L18.2073 10.2929C17.8168 9.90237 17.1836 9.90237 16.7931 10.2929C16.4026 10.6834 16.4026 11.3166 16.7931 11.7071L19.086 14H7.5C5.567 14 4 12.433 4 10.5C4 8.567 5.567 7 7.5 7H12C12.5523 7 13 6.55229 13 6C13 5.44771 12.5523 5 12 5H7.5C4.46243 5 2 7.46243 2 10.5C2 13.5376 4.46243 16 7.5 16H19.086L16.7931 18.2929Z" fill="currentColor" style="fill:currentColor;fill-opacity:1;"/>
</svg>
