<svg width="24" height="24" viewBox="0 0 24 24" fill="none" xmlns="http://www.w3.org/2000/svg">
<path fill-rule="evenodd" clip-rule="evenodd" d="M17 5L15 5C14.4477 5 14 4.55228 14 4C14 3.44772 14.4477 3 15 3L17 3C19.2091 3 21 4.79086 21 7V17C21 19.2091 19.2091 21 17 21H15C14.4477 21 14 20.5523 14 20C14 19.4477 14.4477 19 15 19H17C18.1046 19 19 18.1046 19 17V7C19 5.89543 18.1046 5 17 5ZM10.2929 7.7929C10.6834 7.40237 11.3166 7.40237 11.7071 7.7929L15.2071 11.2929C15.3946 11.4804 15.5 11.7348 15.5 12C15.5 12.2652 15.3946 12.5196 15.2071 12.7071L11.7071 16.2071C11.3166 16.5976 10.6834 16.5976 10.2929 16.2071C9.90237 15.8166 9.90237 15.1834 10.2929 14.7929L12.0858 13H4C3.44772 13 3 12.5523 3 12C3 11.4477 3.44772 11 4 11H12.0858L10.2929 9.20711C9.90237 8.81658 9.90237 8.18342 10.2929 7.7929Z" fill="currentColor" style="fill:currentColor;fill-opacity:1;"/>
</svg>
