<svg width="24" height="24" viewBox="0 0 24 24" fill="none" xmlns="http://www.w3.org/2000/svg">
<path d="M22 5C22 4.44772 21.5523 4 21 4C20.4477 4 20 4.44772 20 5V19C20 19.5523 20.4477 20 21 20C21.5523 20 22 19.5523 22 19V5Z" fill="currentColor" style="fill:currentColor;fill-opacity:1;"/>
<path d="M13.9571 7.04289C13.5666 6.65237 12.9334 6.65237 12.5429 7.04289C12.1524 7.43342 12.1524 8.06658 12.5429 8.45711L15.0858 11H3C2.44772 11 2 11.4477 2 12C2 12.5523 2.44772 13 3 13H15.0858L12.5429 15.5429C12.1524 15.9334 12.1524 16.5666 12.5429 16.9571C12.9334 17.3476 13.5666 17.3476 13.9571 16.9571L17.1465 13.7677C18.1228 12.7914 18.1228 11.2085 17.1464 10.2322L13.9571 7.04289Z" fill="currentColor" style="fill:currentColor;fill-opacity:1;"/>
</svg>
