<svg width="24" height="24" viewBox="0 0 24 24" fill="none" xmlns="http://www.w3.org/2000/svg">
<path fill-rule="evenodd" clip-rule="evenodd" d="M4 20C4.55228 20 5 19.5523 5 19V12C5 10.8954 5.89543 10 7 10H17.5858L15.2929 12.2929C14.9024 12.6834 14.9024 13.3166 15.2929 13.7071C15.6834 14.0976 16.3166 14.0976 16.7071 13.7071L20.7071 9.70711C21.0976 9.31658 21.0976 8.68342 20.7071 8.29289L16.7071 4.29289C16.3166 3.90237 15.6834 3.90237 15.2929 4.29289C14.9024 4.68342 14.9024 5.31658 15.2929 5.70711L17.5858 8H7C4.79086 8 3 9.79086 3 12V19C3 19.5523 3.44772 20 4 20Z" fill="currentColor" style="fill:currentColor;fill-opacity:1;"/>
</svg>
