<svg width="24" height="24" viewBox="0 0 24 24" fill="none" xmlns="http://www.w3.org/2000/svg">
<path fill-rule="evenodd" clip-rule="evenodd" d="M11.9982 2C12.5505 2 12.9982 2.44772 12.9982 3V10.2675L19.2917 6.63397C19.77 6.35783 20.3816 6.52171 20.6578 7C20.9339 7.47829 20.77 8.08988 20.2917 8.36603L13.9979 11.9998L20.2924 15.634C20.7707 15.9101 20.9346 16.5217 20.6585 17C20.3823 17.4783 19.7707 17.6422 19.2924 17.366L12.9982 13.7321V21C12.9982 21.5523 12.5505 22 11.9982 22C11.4459 22 10.9982 21.5523 10.9982 21V13.7317L4.70329 17.366C4.225 17.6422 3.61341 17.4783 3.33727 17C3.06112 16.5217 3.225 15.9101 3.70329 15.634L9.99787 11.9998L3.70399 8.36603C3.22569 8.08988 3.06182 7.47829 3.33796 7C3.6141 6.52171 4.22569 6.35783 4.70399 6.63397L10.9982 10.2679V3C10.9982 2.44772 11.4459 2 11.9982 2Z" fill="currentColor" style="fill:currentColor;fill-opacity:1;"/>
</svg>
