<svg width="24" height="24" viewBox="0 0 24 24" fill="none" xmlns="http://www.w3.org/2000/svg">
<path d="M14.0019 2.40144C14.0019 0.917322 12.077 0.334547 11.2538 1.5694L3.18804 13.668C2.52349 14.6648 3.23807 16.0001 4.43612 16.0001H10.0019V21.5987C10.0019 23.0828 11.9267 23.6656 12.7499 22.4307L20.8157 10.3321C21.4802 9.33528 20.7656 8.00006 19.5676 8.00006H14.0019V2.40144Z" fill="currentColor" style="fill:currentColor;fill-opacity:1;"/>
<path fill-rule="evenodd" clip-rule="evenodd" d="M21.4291 14.0162C21.8276 14.0888 22.1429 14.3945 22.2278 14.7905L23.7278 21.7905C23.8435 22.3306 23.4996 22.8621 22.9595 22.9779C22.4195 23.0936 21.8879 22.7496 21.7722 22.2096L21.6202 21.5001H18.2602L17.5912 22.5408C17.2925 23.0054 16.6738 23.1399 16.2092 22.8412C15.7447 22.5426 15.6102 21.9239 15.9088 21.4593L20.4088 14.4593C20.6278 14.1186 21.0307 13.9437 21.4291 14.0162ZM19.546 19.5001H21.1916L20.7802 17.5802L19.546 19.5001Z" fill="currentColor" style="fill:currentColor;fill-opacity:1;"/>
</svg>
