<svg width="24" height="24" viewBox="0 0 24 24" fill="none" xmlns="http://www.w3.org/2000/svg">
<path fill-rule="evenodd" clip-rule="evenodd" d="M7.0022 7V6C7.0022 4.34315 8.34534 3 10.0022 3H14.0022C15.6591 3 17.0022 4.34315 17.0022 6V7H18C20.2091 7 22 8.79086 22 11V11.9332C22.0015 11.9553 22.0022 11.9775 22.0022 12H2.00037L2 11C2 8.79086 3.79086 7 6 7H7.0022ZM9.0022 6C9.0022 5.44772 9.44991 5 10.0022 5H14.0022C14.5545 5 15.0022 5.44772 15.0022 6V7H9.0022V6Z" fill="currentColor" style="fill:currentColor;fill-opacity:1;"/>
<path d="M2.0022 17L2.0011 14H11.0007L11.0022 16.0007C11.0026 16.553 11.4506 17.0004 12.0029 17C12.5552 16.9996 13.0026 16.5516 13.0022 15.9993L13.0007 14L22.0022 14V17C22.0022 19.2091 20.2113 21 18.0022 21H6.0022C3.79306 21 2.0022 19.2091 2.0022 17Z" fill="currentColor" style="fill:currentColor;fill-opacity:1;"/>
</svg>
