<svg width="24" height="24" viewBox="0 0 24 24" fill="none" xmlns="http://www.w3.org/2000/svg">
<path fill-rule="evenodd" clip-rule="evenodd" d="M5.67635 3.25864C7.33264 1.77667 9.58091 1 12 1C14.4191 1 16.6674 1.77667 18.3237 3.25864C19.9923 4.75165 21 6.90902 21 9.52857C21 12.8115 19.6207 15.426 17.8313 17.2115C16.9375 18.1033 15.9193 18.8089 14.8933 19.2872L15.2956 19.8906C16.1817 21.2197 15.2289 23 13.6315 23H10.3685C8.77113 23 7.81834 21.2197 8.70442 19.8906L9.10666 19.2872C8.08075 18.8089 7.06247 18.1033 6.16867 17.2115C4.3793 15.426 3 12.8115 3 9.52857C3 6.90902 4.00771 4.75165 5.67635 3.25864ZM11.0878 19.9211L10.3685 21H13.6315L12.9122 19.9211C12.6 19.9733 12.2947 20 12 20C11.7053 20 11.4 19.9733 11.0878 19.9211ZM11.976 5.89014C12.0963 6.42916 11.7569 6.96366 11.2179 7.08398C10.1334 7.32606 9.32553 8.07133 9.07924 9.21119C8.96261 9.75102 8.43044 10.0941 7.89061 9.97745C7.35078 9.86081 7.00772 9.32864 7.12435 8.78881C7.54659 6.83459 8.98947 5.53219 10.7821 5.13202C11.3212 5.0117 11.8557 5.35112 11.976 5.89014Z" fill="currentColor" style="fill:currentColor;fill-opacity:1;"/>
</svg>
