<svg width="24" height="24" viewBox="0 0 24 24" fill="none" xmlns="http://www.w3.org/2000/svg">
<path fill-rule="evenodd" clip-rule="evenodd" d="M2 12C2 6.47715 6.47715 2 12 2C17.5228 2 22 6.47715 22 12C22 17.5228 17.5228 22 12 22C6.47715 22 2 17.5228 2 12ZM5.53783 6.2276C5.64964 6.33491 5.82694 6.33783 5.93809 6.22983L6.91997 5.27569C7.05871 5.14087 7.06233 4.91865 6.92276 4.78469C6.78319 4.65073 6.56127 4.66343 6.43225 4.80757L5.51917 5.82775C5.41582 5.94323 5.42602 6.12028 5.53783 6.2276ZM17.0751 4.78469C16.9356 4.91865 16.9392 5.14087 17.0779 5.27569L18.0598 6.22983C18.1709 6.33783 18.3482 6.33491 18.4601 6.2276C18.5719 6.12028 18.5821 5.94323 18.4787 5.82775L17.5656 4.80757C17.4366 4.66343 17.2147 4.65073 17.0751 4.78469ZM6.77507 7.74526C6.94005 8.00739 7.27864 8.11215 7.55171 7.96598L8.20258 7.61757C8.54388 7.43488 8.67392 7.00754 8.46772 6.67992C8.26151 6.35229 7.82133 6.2865 7.50889 6.51506L6.91306 6.95095C6.66308 7.13383 6.61009 7.48313 6.77507 7.74526ZM15.5302 6.67992C15.324 7.00754 15.454 7.43488 15.7953 7.61757L16.4462 7.96598C16.7192 8.11215 17.0578 8.00739 17.2228 7.74526C17.3878 7.48313 17.3348 7.13383 17.0848 6.95095L16.489 6.51506C16.1766 6.2865 15.7364 6.35229 15.5302 6.67992ZM7.68801 9.78294C7.77358 10.0803 8.06966 10.2766 8.37232 10.2123L9.09451 10.0589C9.47346 9.97844 9.71715 9.60218 9.61002 9.22988C9.50289 8.85757 9.09846 8.67381 8.73461 8.80685L8.0412 9.06038C7.75061 9.16663 7.60245 9.4856 7.68801 9.78294ZM14.3879 9.22988C14.2807 9.60218 14.5244 9.97844 14.9034 10.0589L15.6256 10.2123C15.9282 10.2766 16.2243 10.0803 16.3099 9.78295C16.3954 9.4856 16.2473 9.16663 15.9567 9.06038L15.2633 8.80685C14.8994 8.67381 14.495 8.85757 14.3879 9.22988ZM8.5402 11.3997C8.23058 11.4211 7.99895 11.6897 7.99895 12C7.99895 12.3104 8.23058 12.5789 8.5402 12.6003L9.27632 12.6513C9.66209 12.678 9.99895 12.3867 9.99895 12C9.99895 11.6133 9.66209 11.3221 9.27632 11.3488L8.5402 11.3997ZM14.7216 11.3488C14.3358 11.3221 13.9989 11.6133 13.9989 12C13.9989 12.3867 14.3358 12.678 14.7216 12.6513L15.4577 12.6003C15.7673 12.5789 15.9989 12.3104 15.9989 12C15.9989 11.6897 15.7673 11.4211 15.4577 11.3997L14.7216 11.3488ZM7.68801 14.2171C7.60245 14.5144 7.75061 14.8334 8.0412 14.9397L8.73461 15.1932C9.09846 15.3262 9.50289 15.1425 9.61002 14.7702C9.71716 14.3979 9.47346 14.0216 9.09451 13.9411L8.37232 13.7877C8.06966 13.7234 7.77358 13.9198 7.68801 14.2171ZM14.3879 14.7702C14.495 15.1425 14.8994 15.3262 15.2633 15.1932L15.9567 14.9397C16.2473 14.8334 16.3954 14.5144 16.3099 14.2171C16.2243 13.9198 15.9282 13.7234 15.6256 13.7877L14.9034 13.9411C14.5244 14.0216 14.2807 14.3979 14.3879 14.7702ZM6.77507 16.2548C6.61009 16.5169 6.66308 16.8662 6.91306 17.0491L7.5089 17.485C7.82133 17.7136 8.26151 17.6478 8.46772 17.3201C8.67392 16.9925 8.54388 16.5652 8.20258 16.3825L7.55171 16.0341C7.27865 15.8879 6.94005 15.9927 6.77507 16.2548ZM15.5302 17.3201C15.7364 17.6478 16.1766 17.7136 16.489 17.485L17.0848 17.0491C17.3348 16.8662 17.3878 16.5169 17.2228 16.2548C17.0578 15.9927 16.7192 15.8879 16.4462 16.0341L15.7953 16.3825C15.454 16.5652 15.324 16.9925 15.5302 17.3201ZM5.53783 17.7725C5.42602 17.8798 5.41582 18.0568 5.51917 18.1723L6.43225 19.1925C6.56127 19.3366 6.78319 19.3493 6.92276 19.2154C7.06233 19.0814 7.05871 18.8592 6.91997 18.7244L5.93809 17.7702C5.82694 17.6622 5.64964 17.6651 5.53783 17.7725ZM17.0751 19.2154C17.2147 19.3493 17.4366 19.3366 17.5656 19.1925L18.4787 18.1723C18.5821 18.0568 18.5719 17.8798 18.4601 17.7725C18.3482 17.6651 18.1709 17.6622 18.0598 17.7702L17.0779 18.7244C16.9392 18.8592 16.9356 19.0814 17.0751 19.2154Z" fill="currentColor" style="fill:currentColor;fill-opacity:1;"/>
</svg>
