<svg width="24" height="24" viewBox="0 0 24 24" fill="none" xmlns="http://www.w3.org/2000/svg">
<path d="M4.11267 5.84914C2.98014 7.29878 2.23866 9.06875 2.04688 11.0004H6.93561C6.67816 8.93588 5.63404 7.11564 4.11267 5.84914Z" fill="currentColor" style="fill:currentColor;fill-opacity:1;"/>
<path d="M2.04688 13.0004C2.23866 14.9321 2.98014 16.7021 4.11267 18.1517C5.63404 16.8852 6.67816 15.065 6.93561 13.0004H2.04688Z" fill="currentColor" style="fill:currentColor;fill-opacity:1;"/>
<path d="M5.4975 4.40084C7.40209 6.03139 8.68651 8.36547 8.94812 11.0004H10.9975V2.0498C8.90804 2.25726 7.00779 3.10786 5.4975 4.40084Z" fill="currentColor" style="fill:currentColor;fill-opacity:1;"/>
<path d="M12.9975 2.0498V11.0004H15.0469C15.3085 8.36547 16.5929 6.03139 18.4975 4.40084C16.9872 3.10786 15.087 2.25726 12.9975 2.0498Z" fill="currentColor" style="fill:currentColor;fill-opacity:1;"/>
<path d="M19.8823 5.84914C18.361 7.11564 17.3168 8.93588 17.0594 11.0004H21.9481C21.7563 9.06875 21.0149 7.29878 19.8823 5.84914Z" fill="currentColor" style="fill:currentColor;fill-opacity:1;"/>
<path d="M21.9481 13.0004H17.0594C17.3168 15.065 18.361 16.8852 19.8823 18.1517C21.0149 16.7021 21.7563 14.9321 21.9481 13.0004Z" fill="currentColor" style="fill:currentColor;fill-opacity:1;"/>
<path d="M18.4975 19.6C16.9872 20.893 15.087 21.7436 12.9975 21.9511V13.0004H15.0469C15.3085 15.6354 16.5929 17.9695 18.4975 19.6Z" fill="currentColor" style="fill:currentColor;fill-opacity:1;"/>
<path d="M10.9975 21.9511V13.0004H8.94812C8.68651 15.6354 7.40209 17.9695 5.4975 19.6C7.00779 20.893 8.90804 21.7436 10.9975 21.9511Z" fill="currentColor" style="fill:currentColor;fill-opacity:1;"/>
</svg>
