<svg width="24" height="24" viewBox="0 0 24 24" fill="none" xmlns="http://www.w3.org/2000/svg">
<path d="M12 1C10.3431 1 9 2.34315 9 4C9 5.65685 10.3431 7 12 7C13.6569 7 15 5.65685 15 4C15 2.34315 13.6569 1 12 1Z" fill="currentColor" style="fill:currentColor;fill-opacity:1;"/>
<path d="M10 8C7.79086 8 6 9.79086 6 12V15C6 16.1046 6.89543 17 8 17V21C8 22.1046 8.89543 23 10 23H14C15.1046 23 16 22.1046 16 21V17C17.1046 17 18 16.1046 18 15V12C18 9.79086 16.2091 8 14 8H10Z" fill="currentColor" style="fill:currentColor;fill-opacity:1;"/>
</svg>
