<svg width="24" height="24" viewBox="0 0 24 24" fill="none" xmlns="http://www.w3.org/2000/svg">
<path d="M12 1C10.3431 1 9 2.34315 9 4C9 5.65685 10.3431 7 12 7C13.6569 7 15 5.65685 15 4C15 2.34315 13.6569 1 12 1Z" fill="currentColor" style="fill:currentColor;fill-opacity:1;"/>
<path d="M11.3438 8C9.50832 8 7.90839 9.24919 7.46322 11.0299L5.84195 17.5149C5.52638 18.7772 6.48109 20 7.78224 20H8.00146V22C8.00146 22.5523 8.44917 23 9.00146 23H15.0015C15.5537 23 16.0015 22.5523 16.0015 22V20H16.2207C17.5218 20 18.4765 18.7772 18.161 17.5149L16.5397 11.0299C16.0945 9.24919 14.4946 8 12.6591 8H11.3438Z" fill="currentColor" style="fill:currentColor;fill-opacity:1;"/>
</svg>
