<svg width="24" height="24" viewBox="0 0 24 24" fill="none" xmlns="http://www.w3.org/2000/svg">
<path d="M5 5H11.5L6.7 11.4C6.47274 11.703 6.43618 12.1084 6.60557 12.4472C6.77496 12.786 7.12123 13 7.5 13H11.5L7 19H5C2.79086 19 1 17.2091 1 15V9C1 6.79086 2.79086 5 5 5Z" fill="currentColor" style="fill:currentColor;fill-opacity:1;"/>
<path fill-rule="evenodd" clip-rule="evenodd" d="M16 19H9.5L14.3 12.6C14.5273 12.297 14.5638 11.8916 14.3944 11.5528C14.225 11.214 13.8788 11 13.5 11H9.5L14 5H16C17.8638 5 19.4299 6.27477 19.874 8H20.5C21.8807 8 23 9.11929 23 10.5V13.5C23 14.8807 21.8807 16 20.5 16H19.874C19.4299 17.7252 17.8638 19 16 19ZM20 14H20.5C20.7761 14 21 13.7761 21 13.5V10.5C21 10.2239 20.7761 10 20.5 10H20V14Z" fill="currentColor" style="fill:currentColor;fill-opacity:1;"/>
</svg>
