<svg width="24" height="24" viewBox="0 0 24 24" fill="none" xmlns="http://www.w3.org/2000/svg">
<path fill-rule="evenodd" clip-rule="evenodd" d="M5 5C2.79086 5 1 6.79086 1 9V15C1 17.2091 2.79086 19 5 19H16C17.8638 19 19.4299 17.7252 19.874 16H20.5C21.8807 16 23 14.8807 23 13.5V10.5C23 9.11929 21.8807 8 20.5 8H19.874C19.4299 6.27477 17.8638 5 16 5H5ZM20 10V14H20.5C20.7761 14 21 13.7761 21 13.5V10.5C21 10.2239 20.7761 10 20.5 10H20ZM6 9C6.55228 9 7 9.44772 7 10V14C7 14.5523 6.55228 15 6 15C5.44772 15 5 14.5523 5 14V10C5 9.44772 5.44772 9 6 9ZM11.5 10C11.5 9.44772 11.0523 9 10.5 9C9.94771 9 9.5 9.44772 9.5 10V14C9.5 14.5523 9.94771 15 10.5 15C11.0523 15 11.5 14.5523 11.5 14V10Z" fill="currentColor" style="fill:currentColor;fill-opacity:1;"/>
</svg>
