<svg width="24" height="24" viewBox="0 0 24 24" fill="none" xmlns="http://www.w3.org/2000/svg">
<path d="M16.969 16.927C17.2235 17.1627 17.5232 17.3442 17.85 17.4606C18.1768 17.577 18.5238 17.6258 18.87 17.604C19.4186 17.6179 19.9566 17.451 20.401 17.129C20.763 16.894 21.037 16.545 21.18 16.139H23.765C23.4896 17.2967 22.8173 18.3214 21.865 19.035C20.9508 19.6417 19.8706 19.9492 18.774 19.915C17.9913 19.9252 17.2146 19.778 16.49 19.482C15.8342 19.2088 15.2462 18.7955 14.767 18.271C14.2898 17.7216 13.9231 17.0853 13.687 16.397C13.4223 15.6274 13.2927 14.8178 13.304 14.004C13.299 13.204 13.433 12.409 13.7 11.655C14.0601 10.5947 14.746 9.67538 15.6597 9.02815C16.5735 8.38092 17.6683 8.03893 18.788 8.05099C19.615 8.03384 20.4327 8.2276 21.164 8.614C21.825 8.976 22.395 9.48399 22.832 10.099C23.2784 10.7439 23.5984 11.4677 23.775 12.232C23.969 13.053 24.038 13.898 23.98 14.74H16.281C16.218 15.53 16.465 16.314 16.969 16.927ZM6.947 4.08399C7.59529 4.07225 8.24263 4.13873 8.875 4.28199C9.40769 4.39805 9.91338 4.61458 10.365 4.91999C10.783 5.22299 11.113 5.63099 11.323 6.10199C11.564 6.68099 11.68 7.30499 11.664 7.93199C11.6919 8.6212 11.5159 9.30334 11.158 9.89299C10.7822 10.4496 10.2628 10.8943 9.655 11.18C10.4802 11.4023 11.199 11.9119 11.682 12.617C12.146 13.364 12.379 14.232 12.352 15.111C12.3679 15.8117 12.2232 16.5068 11.929 17.143C11.6574 17.6986 11.2591 18.1827 10.766 18.556C10.2593 18.926 9.68875 19.1995 9.083 19.363C8.45517 19.5369 7.80648 19.6241 7.155 19.622H0V4.08399H6.947ZM6.712 16.984C7.02 16.988 7.328 16.955 7.628 16.885C7.90234 16.8247 8.16244 16.712 8.394 16.553C8.622 16.395 8.805 16.182 8.928 15.934C9.07 15.617 9.136 15.271 9.119 14.925C9.14994 14.6091 9.10817 14.2903 8.99689 13.993C8.88561 13.6958 8.70777 13.4279 8.477 13.21C7.98742 12.8499 7.38781 12.6714 6.781 12.705H3.241V16.984H6.712ZM20.347 11.017C20.1316 10.8015 19.8725 10.6348 19.5872 10.528C19.3018 10.4212 18.9969 10.3769 18.693 10.398C18.2895 10.3823 17.8888 10.4716 17.53 10.657C17.2457 10.8133 16.995 11.0239 16.792 11.277C16.6112 11.5136 16.4768 11.7824 16.396 12.069C16.322 12.308 16.276 12.554 16.259 12.803H21.028C20.9862 12.1533 20.7496 11.5312 20.349 11.018L20.347 11.017ZM6.534 10.369C7.04366 10.3898 7.54533 10.2372 7.957 9.93599C8.356 9.58099 8.564 9.05599 8.517 8.52299C8.52997 8.21602 8.46892 7.91043 8.339 7.63199C8.22817 7.41078 8.05643 7.22585 7.844 7.09899C7.62857 6.95934 7.38644 6.86603 7.133 6.82499C6.85803 6.77123 6.57813 6.74676 6.298 6.75199H3.241V10.383H6.534V10.369ZM21.62 5.12199H15.644V6.64899H21.62V5.12199Z" fill="currentColor"/>
</svg>
