<svg width="24" height="24" viewBox="0 0 24 24" fill="none" xmlns="http://www.w3.org/2000/svg">
<path d="M10 11C9.44772 11 9 11.4477 9 12C9 12.5523 9.44772 13 10 13H14C14.5523 13 15 12.5523 15 12C15 11.4477 14.5523 11 14 11H10Z" fill="currentColor" style="fill:currentColor;fill-opacity:1;"/>
<path fill-rule="evenodd" clip-rule="evenodd" d="M3 5.5C3 4.11929 4.11929 3 5.5 3H6.5C7.70948 3 8.71836 3.85888 8.94999 5H15.05C15.2816 3.85888 16.2905 3 17.5 3H18.5C19.8807 3 21 4.11929 21 5.5V6.5C21 7.70948 20.1411 8.71836 19 8.94999V15.05C20.1411 15.2816 21 16.2905 21 17.5V18.5C21 19.8807 19.8807 21 18.5 21H17.5C16.2905 21 15.2816 20.1411 15.05 19H8.94999C8.71836 20.1411 7.70948 21 6.5 21H5.5C4.11929 21 3 19.8807 3 18.5V17.5C3 16.2905 3.85888 15.2816 5 15.05V8.94999C3.85888 8.71836 3 7.70948 3 6.5V5.5ZM7 8.94999V15.05C7.97957 15.2488 8.75115 16.0204 8.94999 17H15.05C15.2488 16.0204 16.0204 15.2488 17 15.05V8.94999C16.0204 8.75115 15.2488 7.97957 15.05 7H8.94999C8.75115 7.97957 7.97957 8.75115 7 8.94999Z" fill="currentColor" style="fill:currentColor;fill-opacity:1;"/>
</svg>
