<svg width="24" height="24" viewBox="0 0 24 24" fill="none" xmlns="http://www.w3.org/2000/svg">
<path fill-rule="evenodd" clip-rule="evenodd" d="M12 4C10.6938 4 9.58254 4.83481 9.17071 6H4.73244C4.38663 5.4022 3.74028 5 3 5C1.89543 5 1 5.89543 1 7C1 8.10457 1.89543 9 3 9C3.74028 9 4.38663 8.5978 4.73244 8H6.3429C4.50921 9.48356 3.26988 11.6732 3.039 14.1572C1.85348 14.5578 1 15.6793 1 17C1 18.6569 2.34315 20 4 20C5.65685 20 7 18.6569 7 17C7 15.7112 6.18737 14.6123 5.04656 14.1876C5.34577 11.597 7.0611 9.43452 9.40038 8.49832C9.91885 9.39595 10.8889 10 12 10C13.1111 10 14.0811 9.39595 14.5996 8.49832C16.9389 9.43452 18.6542 11.597 18.9534 14.1876C17.8126 14.6123 17 15.7112 17 17C17 18.6569 18.3431 20 20 20C21.6569 20 23 18.6569 23 17C23 15.6793 22.1465 14.5578 20.961 14.1572C20.7301 11.6732 19.4908 9.48356 17.6571 8H19.2676C19.6134 8.5978 20.2597 9 21 9C22.1046 9 23 8.10457 23 7C23 5.89543 22.1046 5 21 5C20.2597 5 19.6134 5.4022 19.2676 6H14.8293C14.4175 4.83481 13.3062 4 12 4ZM11 7C11 6.44772 11.4477 6 12 6C12.5523 6 13 6.44772 13 7C13 7.55228 12.5523 8 12 8C11.4477 8 11 7.55228 11 7Z" fill="currentColor" style="fill:currentColor;fill-opacity:1;"/>
</svg>
