<svg width="24" height="24" viewBox="0 0 24 24" fill="none" xmlns="http://www.w3.org/2000/svg">
<path fill-rule="evenodd" clip-rule="evenodd" d="M19.1262 14.8738C18.8724 14.62 18.4609 14.62 18.2071 14.8738L15 18.0809V19H15.9191L19.1262 15.7929C19.38 15.5391 19.38 15.1276 19.1262 14.8738ZM16.7929 13.4596C17.8278 12.4247 19.5056 12.4247 20.5404 13.4596C21.5753 14.4944 21.5753 16.1722 20.5404 17.2071L17.0404 20.7071C16.8529 20.8946 16.5986 21 16.3333 21H14C13.4477 21 13 20.5523 13 20V17.6667C13 17.4014 13.1054 17.1471 13.2929 16.9596L16.7929 13.4596Z" fill="currentColor"/>
<path d="M5.5 3C4.11929 3 3 4.11929 3 5.5V6.5C3 7.70948 3.85888 8.71836 5 8.94999V15.05C3.85888 15.2816 3 16.2905 3 17.5V18.5C3 19.8807 4.11929 21 5.5 21H6.5C7.70948 21 8.71836 20.1411 8.94999 19H10C10.5523 19 11 18.5523 11 18C11 17.4477 10.5523 17 10 17H8.94999C8.75115 16.0204 7.97957 15.2488 7 15.05V8.94999C7.97957 8.75115 8.75115 7.97957 8.94999 7H15.05C15.2488 7.97957 16.0204 8.75115 17 8.94999V10C17 10.5523 17.4477 11 18 11C18.5523 11 19 10.5523 19 10V8.94999C20.1411 8.71836 21 7.70948 21 6.5V5.5C21 4.11929 19.8807 3 18.5 3H17.5C16.2905 3 15.2816 3.85888 15.05 5H8.94999C8.71836 3.85888 7.70948 3 6.5 3H5.5Z" fill="currentColor"/>
</svg>
