<svg width="24" height="24" viewBox="0 0 24 24" fill="none" xmlns="http://www.w3.org/2000/svg">
<path fill-rule="evenodd" clip-rule="evenodd" d="M12.0003 1.17163C12.2655 1.17163 12.5199 1.27699 12.7074 1.46452L14.1216 2.87874C15.2932 4.05031 15.2932 5.94981 14.1216 7.12138C13.794 7.44895 13.4096 7.68494 13 7.82933V9.00006H16.5185C18.7174 9.00006 20.5 10.7826 20.5 12.9815V13.3075C20.5 13.9572 20.3204 14.5772 20 15.1103V18.0001C20 20.2092 18.2091 22.0001 16 22.0001H8C5.79086 22.0001 4 20.2092 4 18.0001V15.1103C3.67957 14.5772 3.5 13.9572 3.5 13.3075V12.9815C3.5 10.7826 5.28256 9.00006 7.48146 9.00006H11V7.82912C10.5907 7.6847 10.2064 7.44879 9.87898 7.12138C8.70741 5.94981 8.70741 4.05031 9.87898 2.87874L11.2932 1.46452C11.4807 1.27699 11.7351 1.17163 12.0003 1.17163ZM7.48146 11.0001C6.38713 11.0001 5.5 11.8872 5.5 12.9815V13.3075C5.5 13.9208 5.87343 14.4724 6.44291 14.7002C6.80053 14.8432 7.19947 14.8432 7.55709 14.7002L8.01444 14.5173C8.96808 14.1358 10.0319 14.1358 10.9856 14.5173L11.2572 14.6259C11.734 14.8166 12.266 14.8166 12.7428 14.6259L13.0144 14.5173C13.9681 14.1358 15.0319 14.1358 15.9856 14.5173L16.4429 14.7002C16.8005 14.8432 17.1995 14.8432 17.5571 14.7002C18.1266 14.4724 18.5 13.9208 18.5 13.3075V12.9815C18.5 11.8872 17.6129 11.0001 16.5185 11.0001H7.48146Z" fill="currentColor" style="fill:currentColor;fill-opacity:1;"/>
</svg>
