<svg width="24" height="24" viewBox="0 0 24 24" fill="none" xmlns="http://www.w3.org/2000/svg">
<path d="M16.47 20.1929L15.8888 21.0066H15.8888L16.47 20.1929ZM12.93 17.6643L13.5112 16.8505H13.5112L12.93 17.6643ZM11.07 17.6643L10.4888 16.8505L11.07 17.6643ZM7.52998 20.1929L6.94874 19.3791H6.94874L7.52998 20.1929ZM12.2456 17.2595L12.4911 16.2901L12.4911 16.2901L12.2456 17.2595ZM11.7544 17.2595L11.5089 16.2901L11.5089 16.2901L11.7544 17.2595ZM5.20836 20.6678L6 20.0568L6 20.0568L5.20836 20.6678ZM5.96294 21.0561L5.92589 22.0554H5.92589L5.96294 21.0561ZM18.7916 20.6678L18 20.0568L18 20.0568L18.7916 20.6678ZM18.0371 21.0561L18.0741 22.0554H18.0741L18.0371 21.0561ZM18.673 4.63803L17.782 5.09202V5.09202L18.673 4.63803ZM17.362 3.32698L17.816 2.43597V2.43597L17.362 3.32698ZM5.32698 4.63803L6.21799 5.09202L5.32698 4.63803ZM6.63803 3.32698L7.09202 4.21799L6.63803 3.32698ZM14.8284 8.5858C15.219 8.19528 15.219 7.56211 14.8284 7.17159C14.4379 6.78106 13.8048 6.78106 13.4142 7.17159L14.8284 8.5858ZM9.17159 11.4142C8.78107 11.8048 8.78107 12.4379 9.17159 12.8284C9.56211 13.219 10.1953 13.219 10.5858 12.8284L9.17159 11.4142ZM13.4142 12.8284C13.8048 13.2189 14.4379 13.2189 14.8284 12.8284C15.219 12.4379 15.219 11.8047 14.8284 11.4142L13.4142 12.8284ZM10.5858 7.17156C10.1953 6.78104 9.56212 6.78104 9.17159 7.17156C8.78107 7.56208 8.78107 8.19525 9.17159 8.58577L10.5858 7.17156ZM18 7.8V18.8909H20V7.8H18ZM6 18.8909V7.8H4V18.8909H6ZM9.8 4H14.2V2H9.8V4ZM17.0513 19.3791L13.5112 16.8505L12.3487 18.478L15.8888 21.0066L17.0513 19.3791ZM10.4888 16.8505L6.94874 19.3791L8.11122 21.0066L11.6513 18.478L10.4888 16.8505ZM13.5112 16.8505C13.2454 16.6606 12.9003 16.3938 12.4911 16.2901L12 18.2289C11.956 18.2178 11.9466 18.2043 12.0065 18.2412C12.0771 18.2846 12.1705 18.3507 12.3487 18.478L13.5112 16.8505ZM11.6513 18.478C11.8295 18.3507 11.9229 18.2846 11.9935 18.2412C12.0534 18.2043 12.044 18.2178 12 18.2289L11.5089 16.2901C11.0997 16.3938 10.7546 16.6606 10.4888 16.8505L11.6513 18.478ZM12.4911 16.2901C12.1688 16.2085 11.8312 16.2085 11.5089 16.2901L12 18.2289H12L12.4911 16.2901ZM4 18.8909C4 19.3733 3.999 19.8046 4.0302 20.1459C4.06022 20.4742 4.1313 20.909 4.41673 21.2788L6 20.0568C6.07706 20.1567 6.04397 20.2053 6.02189 19.9638C6.001 19.7353 6 19.4131 6 18.8909H4ZM6.94874 19.3791C6.52379 19.6827 6.26104 19.8691 6.06296 19.9849C5.85365 20.1073 5.87396 20.0521 6 20.0568L5.92589 22.0554C6.39272 22.0727 6.7878 21.8779 7.07244 21.7115C7.3683 21.5385 7.71867 21.287 8.11122 21.0066L6.94874 19.3791ZM4.41673 21.2788C4.77954 21.7489 5.33249 22.0334 5.92589 22.0554L6 20.0568L6 20.0568L4.41673 21.2788ZM18 18.8909C18 19.4131 17.999 19.7353 17.9781 19.9638C17.956 20.2053 17.9229 20.1567 18 20.0568L19.5833 21.2788C19.8687 20.909 19.9398 20.4742 19.9698 20.1459C20.001 19.8046 20 19.3733 20 18.8909H18ZM15.8888 21.0066C16.2813 21.287 16.6317 21.5385 16.9276 21.7115C17.2122 21.8779 17.6073 22.0727 18.0741 22.0554L18 20.0568C18.126 20.0521 18.1463 20.1073 17.937 19.9849C17.739 19.8691 17.4762 19.6827 17.0513 19.3791L15.8888 21.0066ZM18 20.0568L18 20.0568L18.0741 22.0554C18.6675 22.0334 19.2205 21.7489 19.5833 21.2788L18 20.0568ZM20 7.8C20 6.97642 20.0008 6.2986 19.9558 5.74817C19.9099 5.18608 19.8113 4.66937 19.564 4.18404L17.782 5.09202C17.8617 5.24842 17.9266 5.47262 17.9624 5.91104C17.9992 6.36113 18 6.94342 18 7.8H20ZM14.2 4C15.0566 4 15.6389 4.00078 16.089 4.03755C16.5274 4.07337 16.7516 4.1383 16.908 4.21799L17.816 2.43597C17.3306 2.18868 16.8139 2.09012 16.2518 2.04419C15.7014 1.99922 15.0236 2 14.2 2V4ZM19.564 4.18404C19.1805 3.43139 18.5686 2.81947 17.816 2.43597L16.908 4.21799C17.2843 4.40973 17.5903 4.7157 17.782 5.09202L19.564 4.18404ZM6 7.8C6 6.94342 6.00078 6.36113 6.03755 5.91104C6.07337 5.47262 6.1383 5.24842 6.21799 5.09202L4.43597 4.18404C4.18868 4.66937 4.09012 5.18608 4.04419 5.74817C3.99922 6.2986 4 6.97642 4 7.8H6ZM9.8 2C8.97642 2 8.2986 1.99922 7.74817 2.04419C7.18608 2.09012 6.66937 2.18868 6.18404 2.43597L7.09202 4.21799C7.24842 4.1383 7.47262 4.07337 7.91104 4.03755C8.36113 4.00078 8.94342 4 9.8 4V2ZM6.21799 5.09202C6.40973 4.71569 6.71569 4.40973 7.09202 4.21799L6.18404 2.43597C5.43139 2.81947 4.81947 3.43139 4.43597 4.18404L6.21799 5.09202ZM13.4142 7.17159L9.17159 11.4142L10.5858 12.8284L14.8284 8.5858L13.4142 7.17159ZM14.8284 11.4142L10.5858 7.17156L9.17159 8.58577L13.4142 12.8284L14.8284 11.4142Z" fill="currentColor"/>
</svg>
