<svg width="24" height="24" viewBox="0 0 24 24" fill="none" xmlns="http://www.w3.org/2000/svg">
<path d="M6.11454 4.80339L7.80179 3.74886C8.56062 3.2746 9.49155 3.16383 10.3405 3.44681L11.0513 3.68376C11.6671 3.88902 12.3329 3.88902 12.9487 3.68376L13.6595 3.44681C14.5085 3.16383 15.4394 3.2746 16.1982 3.74886L17.8855 4.80339C18.5788 5.23673 19 5.99668 19 6.8143C19 7.56071 19.3514 8.26355 19.9485 8.71139L20 8.74998C20.6295 9.22212 21 9.96309 21 10.75V12.25C21 13.0369 20.6295 13.7778 20 14.25C19.3705 14.7221 19 15.4631 19 16.25V16.8372C19 17.8716 18.4671 18.833 17.59 19.3812L16.1982 20.2511C15.4394 20.7254 14.5085 20.8361 13.6595 20.5532L12.9487 20.3162C12.3329 20.1109 11.6671 20.1109 11.0513 20.3162L10.3405 20.5532C9.49155 20.8361 8.56062 20.7254 7.80179 20.2511L6.41 19.3812C5.53286 18.833 5 17.8716 5 16.8372V16.25C5 15.4631 4.62951 14.7221 4 14.25C3.37049 13.7778 3 13.0369 3 12.25V10.75C3 9.96309 3.37049 9.22212 4 8.74998L4.05146 8.71139C4.64858 8.26355 5 7.56071 5 6.8143C5 5.99668 5.4212 5.23673 6.11454 4.80339Z" stroke="currentColor" stroke-width="2" stroke-linecap="round" stroke-linejoin="round"/>
<path d="M12 4.5V6.75736C12 7.55301 12.3161 8.31607 12.8787 8.87868L15 11M12 19.5V17.2426C12 16.447 11.6839 15.6839 11.1213 15.1213L9 13" stroke="currentColor" stroke-width="2" stroke-linecap="round" stroke-linejoin="round"/>
<circle cx="9" cy="13" r="1" stroke="currentColor" stroke-width="2" stroke-linecap="round" stroke-linejoin="round"/>
<circle cx="15" cy="11" r="1" stroke="currentColor" stroke-width="2" stroke-linecap="round" stroke-linejoin="round"/>
</svg>
