<svg width="25" height="24" viewBox="0 0 25 24" fill="none" xmlns="http://www.w3.org/2000/svg">
<path d="M11.75 2.10021C11.4266 2.03449 11.0921 2 10.75 2C8.64225 2 6.84097 3.30344 6.10484 5.14722C4.17387 5.65404 2.75 7.4102 2.75 9.5C2.75 10.4247 3.02964 11.2851 3.50796 12C3.02964 12.7149 2.75 13.5753 2.75 14.5C2.75 16.2118 3.70553 17.6984 5.10942 18.459C5.89867 20.5286 7.90137 22 10.25 22C10.7695 22 11.2728 21.9277 11.75 21.7927L11.75 17.0029L11.75 17C11.75 15.8954 10.8546 15 9.75 15C9.19772 15 8.75 14.5523 8.75 14C8.75 13.4477 9.19772 13 9.75 13C10.4786 13 11.1617 13.1948 11.75 13.5351L11.75 7L11.75 6.99766L11.75 2.10021Z" fill="currentColor" style="fill:currentColor;fill-opacity:1;"/>
<path d="M13.75 21.7927C14.2272 21.9277 14.7305 22 15.25 22C17.5986 22 19.6013 20.5286 20.3906 18.459C21.7945 17.6984 22.75 16.2118 22.75 14.5C22.75 13.5753 22.4704 12.7149 21.992 12C22.4704 11.2851 22.75 10.4247 22.75 9.5C22.75 7.4102 21.3261 5.65404 19.3952 5.14722C18.659 3.30344 16.8577 2 14.75 2C14.4079 2 14.0734 2.03449 13.75 2.10021L13.75 7.00329C13.7518 8.10635 14.6465 9 15.75 9C16.3023 9 16.75 9.44771 16.75 10C16.75 10.5523 16.3023 11 15.75 11C15.0214 11 14.3383 10.8052 13.75 10.4649L13.75 21.7927Z" fill="currentColor" style="fill:currentColor;fill-opacity:1;"/>
</svg>
