<svg width="24" height="24" viewBox="0 0 24 24" fill="none" xmlns="http://www.w3.org/2000/svg">
<path fill-rule="evenodd" clip-rule="evenodd" d="M2.17371 5.00024C0.973201 5.00024 0 5.97344 0 7.17394V14.6528C0 17.0538 1.9464 19.0002 4.3474 19.0002H14.8263C16.0268 19.0002 16.9999 18.027 16.9999 16.8265V9.34765C16.9999 6.94664 15.0535 5.00024 12.6526 5.00024H2.17371ZM24 6.96376V17.0362C24 17.8534 23.0729 18.3256 22.4118 17.8449L19.3236 15.5989C18.8061 15.2226 18.4999 14.6214 18.4999 13.9815V10.0184C18.4999 9.37856 18.8061 8.77733 19.3236 8.40097L22.4118 6.15503C23.0729 5.67433 24 6.14648 24 6.96376Z" fill="currentColor"/>
</svg>
