<svg width="24" height="24" viewBox="0 0 24 24" fill="none" xmlns="http://www.w3.org/2000/svg">
<path fill-rule="evenodd" clip-rule="evenodd" d="M6.70659 6.00155C5.04677 7.4674 4 9.61146 4 12C4 16.4183 7.58172 20 12 20C13.933 20 15.5 18.433 15.5 16.5C15.5 15.246 15.0704 14.5944 14.4835 14.1423C13.8089 13.6226 12.8718 13.3185 11.7029 12.9548C11.6755 12.9463 11.648 12.9378 11.6203 12.9292C10.5555 12.5982 9.28325 12.2027 8.29597 11.4421C7.19538 10.5942 6.5 9.34588 6.5 7.5C6.5 6.98055 6.57201 6.47792 6.70659 6.00155ZM12 2C6.47715 2 2 6.47715 2 12C2 17.5228 6.47715 22 12 22C17.5228 22 22 17.5228 22 12C22 6.47715 17.5228 2 12 2Z" fill="currentColor" style="fill:currentColor;fill-opacity:1;"/>
</svg>
