<svg width="24" height="24" viewBox="0 0 24 24" fill="none" xmlns="http://www.w3.org/2000/svg">
<path fill-rule="evenodd" clip-rule="evenodd" d="M12 2C16.5563 2 20.25 5.69365 20.25 10.25C20.25 14.8063 16.5563 18.5 12 18.5C7.44365 18.5 3.75 14.8063 3.75 10.25C3.75 5.69365 7.44365 2 12 2ZM11.9805 6.25C11.4313 6.25004 10.9417 6.34859 10.5117 6.54492C10.0842 6.74129 9.74562 7.01335 9.49707 7.36133C9.42205 7.46565 9.35848 7.57517 9.30566 7.68945C9.09799 8.13883 9.52156 8.56152 10.0166 8.56152C10.473 8.56152 10.6008 8.56209 11.0342 8.10352C11.131 7.97191 11.261 7.86993 11.4248 7.79785C11.5913 7.7258 11.7768 7.68949 11.9805 7.68945C12.1743 7.68945 12.3446 7.72582 12.4912 7.79785C12.6404 7.86994 12.7568 7.97177 12.8389 8.10352C12.9232 8.23268 12.9644 8.38337 12.9619 8.55469C12.9643 8.73103 12.9162 8.88779 12.8193 9.02441C12.7224 9.15846 12.5869 9.26241 12.4131 9.33691C12.2416 9.41147 12.0426 9.44922 11.8164 9.44922H11.7314C11.369 9.44922 11.0752 9.74303 11.0752 10.1055C11.0752 10.4679 11.369 10.7617 11.7314 10.7617H11.8164C12.0749 10.7617 12.2994 10.7999 12.4883 10.877C12.6796 10.954 12.8273 11.063 12.9316 11.2021C13.0358 11.3412 13.0874 11.5 13.085 11.6787C13.0874 11.8577 13.0407 12.017 12.9463 12.1562C12.8519 12.2928 12.7205 12.401 12.5518 12.4805C12.3853 12.5575 12.1923 12.5966 11.9736 12.5967C11.7549 12.5967 11.5592 12.5604 11.3877 12.4883C11.2427 12.4273 11.1238 12.3462 11.0303 12.2461C10.9964 12.2098 10.9632 12.1723 10.9268 12.1387C10.5015 11.7462 10.3705 11.7461 9.91895 11.7461C9.39361 11.7461 8.94366 12.1977 9.17773 12.668C9.22904 12.771 9.2896 12.8705 9.35938 12.9658C9.61788 13.3187 9.97159 13.5956 10.4189 13.7969C10.8688 13.9956 11.3843 14.0947 11.9658 14.0947C12.5624 14.0947 13.0909 13.9986 13.5508 13.8047C14.0131 13.6083 14.3733 13.3395 14.6318 12.999C14.8928 12.656 15.0234 12.2628 15.0234 11.8203C15.0258 11.3507 14.8753 10.9596 14.5723 10.6465C14.2766 10.3386 13.8403 10.1477 13.2637 10.0752C13.2467 10.073 13.2336 10.059 13.2334 10.042C13.2334 10.0251 13.2461 10.0105 13.2627 10.0078C13.6918 9.94003 14.0437 9.77012 14.3184 9.49805C14.6017 9.21964 14.7427 8.86461 14.7402 8.43457C14.7402 8.01972 14.6245 7.64826 14.3936 7.32031C14.1624 6.9897 13.839 6.72852 13.4238 6.53711C13.0087 6.3457 12.5273 6.25 11.9805 6.25Z" fill="currentColor"/>
<path d="M16.5 22C16.5 22.3138 16.3531 22.6099 16.1025 22.7988C15.8521 22.9877 15.5272 23.048 15.2256 22.9619L12 22.04L8.77441 22.9619C8.47281 23.048 8.14787 22.9877 7.89746 22.7988C7.64695 22.6099 7.5 22.3138 7.5 22V18.6182C8.83945 19.34 10.3718 19.75 12 19.75C13.6282 19.75 15.1605 19.34 16.5 18.6182V22Z" fill="currentColor"/>
</svg>
