<svg width="24" height="24" viewBox="0 0 24 24" fill="none" xmlns="http://www.w3.org/2000/svg">
<path d="M20.5749 6.82878L18.0352 11.3921L18.3849 11.5853C19.8268 12.3818 20.3494 14.1972 19.549 15.6369C19.3494 15.9959 18.8969 16.1254 18.5375 15.9267L8.13198 10.1722C7.77097 9.97253 7.64071 9.51767 7.84132 9.15719C8.64046 7.72116 10.4508 7.20229 11.8893 7.99695L12.2795 8.21253L14.8852 3.64501C15.7692 2.0954 17.7395 1.54479 19.3027 2.40784C20.8787 3.27792 21.4495 5.25722 20.5749 6.82878Z" fill="currentColor" style="fill:currentColor;fill-opacity:1;"/>
<path d="M7.36569 12.0298C6.91594 12.3951 6.46065 12.6428 5.99064 12.7967C5.21704 13.0501 4.31445 13.0787 3.19278 12.8407C2.51131 12.696 1.89206 13.2759 1.9958 13.9647C2.57011 17.7787 6.07699 20.7657 9.47367 21.6906C11.1979 22.1602 13.0491 22.145 14.5825 21.2978C15.9021 20.5686 16.8503 19.2994 17.2873 17.5167L7.36569 12.0298Z" fill="currentColor" style="fill:currentColor;fill-opacity:1;"/>
</svg>
