<svg width="24" height="24" viewBox="0 0 24 24" fill="none" xmlns="http://www.w3.org/2000/svg">
<path fill-rule="evenodd" clip-rule="evenodd" d="M18.502 3C20.4349 3 22.002 4.567 22.002 6.5V11.5C22.002 13.433 20.4349 15 18.502 15H18.002V15.5C18.002 17.433 16.4349 19 14.502 19H10.7611L6.4876 21.3742C6.17787 21.5462 5.8002 21.5416 5.49483 21.3619C5.18945 21.1822 5.00195 20.8543 5.00195 20.5V18.9646C3.30581 18.7219 2.00195 17.2632 2.00195 15.5V10.5C2.00195 8.567 3.56896 7 5.50195 7H6.00195V6.5C6.00195 4.567 7.56896 3 9.50195 3H18.502ZM8.00195 7H14.502C16.4349 7 18.002 8.567 18.002 10.5V13H18.502C19.3304 13 20.002 12.3284 20.002 11.5V6.5C20.002 5.67157 19.3304 5 18.502 5H9.50195C8.67353 5 8.00195 5.67157 8.00195 6.5V7Z" fill="currentColor" style="fill:currentColor;fill-opacity:1;"/>
</svg>
