<svg width="24" height="24" viewBox="0 0 24 24" fill="none" xmlns="http://www.w3.org/2000/svg">
<path fill-rule="evenodd" clip-rule="evenodd" d="M17.0019 3L7.00195 3.00002C4.79281 3.00002 3.00195 4.79088 3.00195 7.00002V15.0358C3.00195 17.2449 4.79281 19.0358 7.00195 19.0358H8.65157L11.3553 21.3021C11.7252 21.6123 12.2639 21.6138 12.6357 21.3058L15.3757 19.0358L17.002 19.0358C19.2111 19.0357 21.002 17.2449 21.002 15.0358V7C21.002 4.79086 19.2111 3 17.0019 3ZM11.9998 14.75C12.552 14.75 12.9998 14.3023 12.9998 13.75V11.75C12.9998 11.1977 12.552 10.75 11.9998 10.75C11.4475 10.75 10.9998 11.1977 10.9998 11.75V13.75C10.9998 14.3023 11.4475 14.75 11.9998 14.75ZM11.9998 10C11.3094 10 10.7498 9.44036 10.7498 8.75C10.7498 8.05964 11.3094 7.5 11.9998 7.5C12.6901 7.5 13.2498 8.05964 13.2498 8.75C13.2498 9.44036 12.6901 10 11.9998 10Z" fill="currentColor" style="fill:currentColor;fill-opacity:1;"/>
</svg>
