<svg width="24" height="24" viewBox="0 0 24 24" fill="none" xmlns="http://www.w3.org/2000/svg">
<path fill-rule="evenodd" clip-rule="evenodd" d="M7.00195 3.00002L17.0019 3C19.2111 3 21.002 4.79086 21.002 7V15.0358C21.002 17.2449 19.2111 19.0357 17.002 19.0358L15.3757 19.0358L12.6357 21.3058C12.2639 21.6138 11.7252 21.6123 11.3553 21.3021L8.65157 19.0358H7.00195C4.79281 19.0358 3.00195 17.2449 3.00195 15.0358V7.00002C3.00195 4.79088 4.79281 3.00002 7.00195 3.00002ZM14.7069 9.70711C15.0974 9.31658 15.0974 8.68342 14.7069 8.29289C14.3163 7.90237 13.6832 7.90237 13.2926 8.29289L11.9998 9.58579L10.7069 8.29289C10.3163 7.90237 9.68317 7.90237 9.29265 8.29289C8.90212 8.68342 8.90212 9.31658 9.29265 9.70711L10.5855 11L9.29265 12.2929C8.90212 12.6834 8.90212 13.3166 9.29265 13.7071C9.68317 14.0976 10.3163 14.0976 10.7069 13.7071L11.9998 12.4142L13.2926 13.7071C13.6832 14.0976 14.3163 14.0976 14.7069 13.7071C15.0974 13.3166 15.0974 12.6834 14.7069 12.2929L13.414 11L14.7069 9.70711Z" fill="currentColor" style="fill:currentColor;fill-opacity:1;"/>
</svg>
