<svg width="24" height="24" viewBox="0 0 24 24" fill="none" xmlns="http://www.w3.org/2000/svg">
<path fill-rule="evenodd" clip-rule="evenodd" d="M2 12C2 6.47715 6.47715 2 12 2C17.5228 2 22 6.47715 22 12C22 17.5228 17.5228 22 12 22C10.56 22 9.18849 21.695 7.94883 21.1451C7.92174 21.1331 7.90654 21.1344 7.90422 21.1346L5.21726 21.9223C3.30237 22.4836 1.53396 20.6856 2.12696 18.7803L2.92293 16.2228C2.92293 16.2228 2.92318 16.2196 2.92286 16.2157C2.92219 16.2075 2.91945 16.1937 2.91155 16.1765C2.32603 14.9043 2 13.4889 2 12ZM6.25 12C6.25 12.6904 6.80964 13.25 7.5 13.25C8.19036 13.25 8.75 12.6904 8.75 12C8.75 11.3096 8.19036 10.75 7.5 10.75C6.80964 10.75 6.25 11.3096 6.25 12ZM10.75 12C10.75 12.6904 11.3096 13.25 12 13.25C12.6904 13.25 13.25 12.6904 13.25 12C13.25 11.3096 12.6904 10.75 12 10.75C11.3096 10.75 10.75 11.3096 10.75 12ZM16.5 13.25C15.8096 13.25 15.25 12.6904 15.25 12C15.25 11.3096 15.8096 10.75 16.5 10.75C17.1904 10.75 17.75 11.3096 17.75 12C17.75 12.6904 17.1904 13.25 16.5 13.25Z" fill="currentColor" style="fill:currentColor;fill-opacity:1;"/>
</svg>
