<svg width="24" height="24" viewBox="0 0 24 24" fill="none" xmlns="http://www.w3.org/2000/svg">
<path fill-rule="evenodd" clip-rule="evenodd" d="M19.5674 5.35691C17.6899 3.79161 15.0647 3 12 3C8.93532 3 6.31015 3.79161 4.43258 5.35691C2.53317 6.94042 1.50001 9.23347 1.50001 12C1.50001 12.8165 1.76934 13.8187 2.0126 14.578C2.26608 15.3691 2.53706 16.0322 2.61364 16.2158L2.62642 16.2461L2.6341 16.2641L2.63604 16.2688C2.64543 16.2957 2.72638 16.544 2.66855 16.9774C2.60848 17.4277 2.39154 18.1318 1.70314 19.0398C1.5212 19.2797 1.45709 19.5889 1.52864 19.8815C1.60018 20.174 1.79975 20.4187 2.07192 20.5477C3.45903 21.2047 4.84475 20.9717 5.79597 20.6417C6.25234 20.4834 6.63664 20.2938 6.91575 20.1378C8.55744 20.8505 10.3807 21 12 21C15.0647 21 17.6899 20.2084 19.5674 18.6431C21.4668 17.0596 22.5 14.7665 22.5 12C22.5 9.23347 21.4668 6.94042 19.5674 5.35691ZM2.63604 16.2688L2.63523 16.2665L2.6367 16.2704L2.63604 16.2688ZM6.25 12C6.25 12.6904 6.80964 13.25 7.5 13.25C8.19036 13.25 8.75 12.6904 8.75 12C8.75 11.3096 8.19036 10.75 7.5 10.75C6.80964 10.75 6.25 11.3096 6.25 12ZM10.75 12C10.75 12.6904 11.3096 13.25 12 13.25C12.6904 13.25 13.25 12.6904 13.25 12C13.25 11.3096 12.6904 10.75 12 10.75C11.3096 10.75 10.75 11.3096 10.75 12ZM16.5 13.25C15.8096 13.25 15.25 12.6904 15.25 12C15.25 11.3096 15.8096 10.75 16.5 10.75C17.1904 10.75 17.75 11.3096 17.75 12C17.75 12.6904 17.1904 13.25 16.5 13.25Z" fill="currentColor" style="fill:currentColor;fill-opacity:1;"/>
</svg>
