<svg width="24" height="24" viewBox="0 0 24 24" fill="none" xmlns="http://www.w3.org/2000/svg">
<path d="M4 16V15C3.44772 15 3 15.4477 3 16H4ZM20 16H21C21 15.4477 20.5523 15 20 15V16ZM6.22354 19.8978L6.48236 18.9319L6.22354 19.8978ZM4.10222 17.7765L5.06815 17.5176L4.10222 17.7765ZM17.7765 19.8978L17.5176 18.9319L17.7765 19.8978ZM19.8978 17.7765L18.9319 17.5176L19.8978 17.7765ZM16 19H8V21H16V19ZM4 17H20V15H4V17ZM8 19C7.00565 19 6.70464 18.9914 6.48236 18.9319L5.96472 20.8637C6.50545 21.0086 7.13441 21 8 21V19ZM3 16C3 16.8656 2.99141 17.4946 3.1363 18.0353L5.06815 17.5176C5.00859 17.2954 5 16.9944 5 16H3ZM6.48236 18.9319C5.79218 18.7469 5.25308 18.2078 5.06815 17.5176L3.1363 18.0353C3.50617 19.4156 4.58436 20.4938 5.96472 20.8637L6.48236 18.9319ZM16 21C16.8656 21 17.4946 21.0086 18.0353 20.8637L17.5176 18.9319C17.2954 18.9914 16.9944 19 16 19V21ZM19 16C19 16.9944 18.9914 17.2954 18.9319 17.5176L20.8637 18.0353C21.0086 17.4946 21 16.8656 21 16H19ZM18.0353 20.8637C19.4156 20.4938 20.4938 19.4156 20.8637 18.0353L18.9319 17.5176C18.7469 18.2078 18.2078 18.7469 17.5176 18.9319L18.0353 20.8637ZM5 13H19V11H5V13ZM19 15H5V17H19V15ZM5 15C4.44772 15 4 14.5523 4 14H2C2 15.6569 3.34315 17 5 17V15ZM20 14C20 14.5523 19.5523 15 19 15V17C20.6569 17 22 15.6569 22 14H20ZM19 13C19.5523 13 20 13.4477 20 14H22C22 12.3431 20.6569 11 19 11V13ZM5 11C3.34315 11 2 12.3431 2 14H4C4 13.4477 4.44772 13 5 13V11ZM12 5C13.1627 5 14.9667 5.33865 16.4462 6.27692C17.876 7.18367 19 8.6371 19 11H21C21 7.84935 19.433 5.80279 17.5173 4.58792C15.6513 3.40458 13.4553 3 12 3V5ZM5 11C5 8.6371 6.12399 7.18366 7.5538 6.27692C9.03333 5.33865 10.8373 5 12 5V3C10.5447 3 8.34866 3.40458 6.48269 4.58792C4.56701 5.80279 3 7.84935 3 11H5ZM19 11V13C20.1046 13 21 12.1046 21 11H19ZM3 11C3 12.1046 3.89543 13 5 13V11H3Z" fill="currentColor"/>
</svg>
