<svg width="24" height="24" viewBox="0 0 24 24" fill="none" xmlns="http://www.w3.org/2000/svg">
<path d="M9 3C9 2.44772 8.55228 2 8 2C7.44772 2 7 2.44772 7 3V4C4.79086 4 3 5.79086 3 8V17C3 19.2091 4.79086 21 7 21H11C11.5523 21 12 20.5523 12 20C12 19.4477 11.5523 19 11 19H7C5.89543 19 5 18.1046 5 17V10H19V11C19 11.5523 19.4477 12 20 12C20.5523 12 21 11.5523 21 11V8C21 5.79086 19.2091 4 17 4V3C17 2.44772 16.5523 2 16 2C15.4477 2 15 2.44772 15 3V4H9V3Z" fill="currentColor" style="fill:currentColor;fill-opacity:1;"/>
<path d="M15.2929 15.2929C14.9024 15.6835 14.9024 16.3166 15.2929 16.7071L16.5859 18L15.2929 19.2929C14.9024 19.6834 14.9024 20.3165 15.2929 20.7071C15.6834 21.0976 16.3165 21.0976 16.7071 20.7071L18.0001 19.4142L19.2929 20.7071C19.6834 21.0976 20.3165 21.0976 20.7071 20.7071C21.0976 20.3166 21.0976 19.6835 20.7071 19.2929L19.4144 18L20.7071 16.7071C21.0976 16.3165 21.0976 15.6834 20.7071 15.2929C20.3165 14.9024 19.6834 14.9024 19.2929 15.2929L18.0001 16.5858L16.7071 15.2929C16.3165 14.9024 15.6834 14.9024 15.2929 15.2929Z" fill="currentColor" style="fill:currentColor;fill-opacity:1;"/>
</svg>
