<svg width="24" height="24" viewBox="0 0 24 24" fill="none" xmlns="http://www.w3.org/2000/svg">
<path d="M10 12C10 11.0335 10.7835 10.25 11.75 10.25C12.7165 10.25 13.5 11.0335 13.5 12C13.5 12.9665 12.7165 13.75 11.75 13.75C10.7835 13.75 10 12.9665 10 12Z" fill="currentColor" style="fill:currentColor;fill-opacity:1;"/>
<path fill-rule="evenodd" clip-rule="evenodd" d="M8 2C8.55228 2 9 2.44772 9 3V4H15V3C15 2.44772 15.4477 2 16 2C16.5523 2 17 2.44772 17 3V4C19.2091 4 21 5.79086 21 8V17C21 19.2091 19.2091 21 17 21H7C4.79086 21 3 19.2091 3 17V8C3 5.79086 4.79086 4 7 4V3C7 2.44772 7.44772 2 8 2ZM11.75 8.25C9.67893 8.25 8 9.92893 8 12C8 14.0711 9.67893 15.75 11.75 15.75C12.4223 15.75 13.0533 15.5731 13.599 15.2632L14.2929 15.9571C14.6834 16.3476 15.3166 16.3476 15.7071 15.9571C16.0976 15.5666 16.0976 14.9334 15.7071 14.5429L15.0132 13.849C15.3231 13.3033 15.5 12.6723 15.5 12C15.5 9.92893 13.8211 8.25 11.75 8.25Z" fill="currentColor" style="fill:currentColor;fill-opacity:1;"/>
</svg>
