<svg width="24" height="24" viewBox="0 0 24 24" fill="none" xmlns="http://www.w3.org/2000/svg">
<path d="M20.7071 4.70711C21.0976 4.31658 21.0976 3.68342 20.7071 3.29289C20.3166 2.90237 19.6834 2.90237 19.2929 3.29289L10.7304 11.8554C10.3104 11.3709 9.92858 10.8523 9.58964 10.3046C9.45513 10.0872 9.47191 9.74447 9.73847 9.47791C10.4734 8.74303 10.7454 7.66399 10.4468 6.66855L10.1484 5.67405C9.67227 4.08691 8.21143 3 6.55441 3C4.53882 3 2.66629 4.68399 3.05043 6.91005C3.60849 10.1439 5.07943 13.0646 7.18846 15.3973L3.29289 19.2929C2.90237 19.6834 2.90237 20.3166 3.29289 20.7071C3.68342 21.0976 4.31658 21.0976 4.70711 20.7071L20.7071 4.70711Z" fill="currentColor" style="fill:currentColor;fill-opacity:1;"/>
<path d="M16.8921 20.7517C14.3959 20.321 12.0864 19.3463 10.0898 17.9541L13.7508 14.2931C13.9362 14.3077 14.147 14.2409 14.3243 14.0637C15.0591 13.3288 16.1382 13.0568 17.1336 13.3554L18.1281 13.6538C19.7153 14.1299 20.8022 15.5907 20.8022 17.2478C20.8022 19.2633 19.1182 21.1359 16.8921 20.7517Z" fill="currentColor" style="fill:currentColor;fill-opacity:1;"/>
</svg>
