<svg width="24" height="24" viewBox="0 0 24 24" fill="none" xmlns="http://www.w3.org/2000/svg">
<path d="M6.75363 3C4.73804 3 2.86551 4.68399 3.24965 6.91005C4.46758 13.9678 10.0336 19.5338 17.0913 20.7517C19.3174 21.1359 21.0014 19.2633 21.0014 17.2478C21.0014 15.5907 19.9145 14.1299 18.3273 13.6538L17.3328 13.3554C16.3374 13.0568 15.2584 13.3288 14.5235 14.0637C14.2569 14.3303 13.9142 14.347 13.6968 14.2125C12.1109 13.2312 10.7702 11.8905 9.78886 10.3046C9.65435 10.0872 9.67113 9.74447 9.93769 9.47791C10.6726 8.74303 10.9446 7.66399 10.646 6.66855L10.3476 5.67405C9.87149 4.08691 8.41065 3 6.75363 3Z" fill="currentColor" style="fill:currentColor;fill-opacity:1;"/>
<path d="M20 9C20 9.55228 19.5523 10 19 10H15C14.4477 10 14 9.55228 14 9V5C14 4.44772 14.4477 4 15 4C15.5523 4 16 4.44772 16 5V6.58579L19.2929 3.29289C19.6834 2.90237 20.3166 2.90237 20.7071 3.29289C21.0976 3.68342 21.0976 4.31658 20.7071 4.70711L17.4142 8H19C19.5523 8 20 8.44772 20 9Z" fill="currentColor" style="fill:currentColor;fill-opacity:1;"/>
</svg>
