<svg width="24" height="24" viewBox="0 0 24 24" fill="none" xmlns="http://www.w3.org/2000/svg">
<path d="M12 12.9166L12.2652 13.5H11.7348L12 12.9166Z" fill="currentColor" style="fill:currentColor;fill-opacity:1;"/>
<path fill-rule="evenodd" clip-rule="evenodd" d="M7.77735 4.7812C8.51921 3.6684 9.76814 3 11.1056 3H12.8944C14.2319 3 15.4808 3.6684 16.2226 4.7812L16.4619 5.14002C16.82 5.67729 17.423 6 18.0688 6C20.2399 6 22 7.76008 22 9.93124V17C22 19.2091 20.2091 21 18 21H6C3.79086 21 2 19.2091 2 17V9.93125C2 7.76008 3.76008 6 5.93125 6C6.57696 6 7.17996 5.67729 7.53814 5.14002L7.77735 4.7812ZM12.9104 10.0862C12.7481 9.7292 12.3921 9.5 12 9.5C11.6079 9.5 11.2519 9.7292 11.0896 10.0862L8.58963 15.5862C8.3611 16.089 8.58342 16.6818 9.0862 16.9104C9.58898 17.1389 10.1818 16.9166 10.4104 16.4138L10.8257 15.5H13.1743L13.5896 16.4138C13.8182 16.9166 14.411 17.1389 14.9138 16.9104C15.4166 16.6818 15.6389 16.089 15.4104 15.5862L12.9104 10.0862Z" fill="currentColor" style="fill:currentColor;fill-opacity:1;"/>
</svg>
