<svg width="24" height="24" viewBox="0 0 24 24" fill="none" xmlns="http://www.w3.org/2000/svg">
<path fill-rule="evenodd" clip-rule="evenodd" d="M2.89496 6.09115C4.11615 4.73472 5.8193 4 7.71208 4H12C13.5738 4 15.0557 4.74097 16 6L17.4807 7.97432C17.5387 8.05162 17.6231 8.10482 17.7179 8.12377C20.7892 8.73804 23 11.4348 23 14.5669V14.803C23 16.4434 21.7645 17.7953 20.1732 17.9788C19.6158 19.1727 18.4045 20 17 20C15.6038 20 14.3985 19.1825 13.8368 18H10.1632C9.60145 19.1825 8.3962 20 7 20C5.5768 20 4.352 19.1505 3.80495 17.931C2.20492 17.6086 1 16.195 1 14.5V11.5819C1 9.34005 1.67907 7.44169 2.89496 6.09115ZM5.5 16.5C5.5 15.6716 6.17157 15 7 15C7.82843 15 8.5 15.6716 8.5 16.5C8.5 17.3284 7.82843 18 7 18C6.17157 18 5.5 17.3284 5.5 16.5ZM17 15C16.1716 15 15.5 15.6716 15.5 16.5C15.5 17.3284 16.1716 18 17 18C17.8284 18 18.5 17.3284 18.5 16.5C18.5 15.6716 17.8284 15 17 15ZM11.9168 9.99984H13.9935C14.2007 9.99984 14.3179 10.2375 14.1919 10.4019L11.2431 14.2481C11.0869 14.4519 10.7618 14.3159 10.7971 14.0616L11.0835 11.9998H9.00681C8.79957 11.9998 8.68232 11.7622 8.80841 11.5977L11.7571 7.75158C11.9134 7.5478 12.2385 7.68374 12.2032 7.93808L11.9168 9.99984Z" fill="currentColor"/>
</svg>
