<svg width="24" height="24" viewBox="0 0 24 24" fill="none" xmlns="http://www.w3.org/2000/svg">
<path fill-rule="evenodd" clip-rule="evenodd" d="M1 8C1 5.79086 2.79086 4 5 4L12.5 4C13.759 4 14.9446 4.59278 15.7 5.6L17.3415 7.7887C17.4891 7.98553 17.7041 8.12103 17.9454 8.16928L19.7845 8.53709C21.6542 8.91103 23 10.5527 23 12.4594V15C23 16.6014 21.7453 17.9097 20.1653 17.9955C19.6045 19.1804 18.398 20 17 20C15.6038 20 14.3985 19.1825 13.8368 18H10.1632C9.60145 19.1825 8.3962 20 7 20C5.60204 20 4.39551 19.1804 3.8347 17.9955C2.25472 17.9097 1 16.6014 1 15V8ZM7 15C6.17157 15 5.5 15.6716 5.5 16.5C5.5 17.3284 6.17157 18 7 18C7.82843 18 8.5 17.3284 8.5 16.5C8.5 15.6716 7.82843 15 7 15ZM17 15C16.1716 15 15.5 15.6716 15.5 16.5C15.5 17.3284 16.1716 18 17 18C17.8284 18 18.5 17.3284 18.5 16.5C18.5 15.6716 17.8284 15 17 15Z" fill="currentColor"/>
</svg>
