<svg width="24" height="24" viewBox="0 0 24 24" fill="none" xmlns="http://www.w3.org/2000/svg">
<path fill-rule="evenodd" clip-rule="evenodd" d="M6.53513 5C7.22675 3.8044 8.51944 3 10 3H14C15.4806 3 16.7733 3.8044 17.4649 5H18C20.2091 5 22 6.79086 22 9V15C22 17.2091 20.2091 19 18 19H17.4649C16.7733 20.1956 15.4806 21 14 21H10C8.51944 21 7.22675 20.1956 6.53513 19H6C3.79086 19 2 17.2091 2 15V9C2 6.79086 3.79086 5 6 5H6.53513ZM6 7C4.89543 7 4 7.89543 4 9V15C4 16.1046 4.89543 17 6 17V7ZM18 17C19.1046 17 20 16.1046 20 15V9C20 7.89543 19.1046 7 18 7V17Z" fill="currentColor" style="fill:currentColor;fill-opacity:1;"/>
</svg>
