<svg width="24" height="24" viewBox="0 0 24 24" fill="none" xmlns="http://www.w3.org/2000/svg">
<path d="M13.2892 16.0055C13.8594 15.8527 14.1731 15.1742 13.9897 14.4899C13.8064 13.8057 13.1955 13.3748 12.6253 13.5276C12.0551 13.6804 11.7414 14.359 11.9248 15.0432C12.1081 15.7275 12.719 16.1583 13.2892 16.0055Z" fill="currentColor" style="fill:currentColor;fill-opacity:1;"/>
<path d="M18.0684 16.4955C18.1906 16.9516 17.735 17.4701 17.0508 17.6534C16.3665 17.8367 15.7127 17.6156 15.5905 17.1594C15.4683 16.7032 15.9239 16.1848 16.6081 16.0015C17.2924 15.8181 17.9462 16.0393 18.0684 16.4955Z" fill="currentColor" style="fill:currentColor;fill-opacity:1;"/>
<path fill-rule="evenodd" clip-rule="evenodd" d="M7 3C4.79086 3 3 4.79086 3 7V17C3 19.2091 4.79086 21 7 21H17C19.2091 21 21 19.2091 21 17V7C21 4.79086 19.2091 3 17 3H7ZM14.8767 9.3188C14.0072 9.55178 13.2037 9.89153 12.4854 10.3127L8.97942 9.49861C8.62937 9.41733 8.31043 9.72086 8.37429 10.0745L9.11761 14.1907C8.79389 15.135 8.73348 16.1269 8.99221 17.0925C9.18405 17.8084 9.53505 18.4492 10.0105 19H17C18.1046 19 19 18.1046 19 17V14.3425C18.6017 14.2341 18.2506 13.8738 18.1191 13.3833C17.9358 12.699 18.2494 12.0205 18.8196 11.8677C18.8795 11.8517 18.9398 11.8421 19 11.8385V7.73363C19 7.64567 18.8946 7.60056 18.831 7.66128L17.4448 8.98386C16.6121 8.97828 15.7463 9.08581 14.8767 9.3188Z" fill="currentColor" style="fill:currentColor;fill-opacity:1;"/>
</svg>
