<svg width="24" height="24" viewBox="0 0 24 24" fill="none" xmlns="http://www.w3.org/2000/svg">
<path fill-rule="evenodd" clip-rule="evenodd" d="M5 8C3.89543 8 3 8.89543 3 10V14C3 15.1046 3.89543 16 5 16H8C8.55228 16 9 16.4477 9 17C9 17.5523 8.55228 18 8 18H5C2.79086 18 1 16.2091 1 14V10C1 7.79086 2.79086 6 5 6H8C8.55228 6 9 6.44772 9 7C9 7.55228 8.55228 8 8 8H5ZM15 7C15 6.44772 15.4477 6 16 6H19C21.2091 6 23 7.79086 23 10V14C23 16.2091 21.2091 18 19 18H16C15.4477 18 15 17.5523 15 17C15 16.4477 15.4477 16 16 16H19C20.1046 16 21 15.1046 21 14V10C21 8.89543 20.1046 8 19 8H16C15.4477 8 15 7.55228 15 7ZM6 12C6 11.4477 6.44772 11 7 11H17C17.5523 11 18 11.4477 18 12C18 12.5523 17.5523 13 17 13H7C6.44772 13 6 12.5523 6 12Z" fill="currentColor" style="fill:currentColor;fill-opacity:1;"/>
</svg>
