<svg width="24" height="24" viewBox="0 0 24 24" fill="none" xmlns="http://www.w3.org/2000/svg">
<path d="M8.59209 6.65363C8.83451 6.35059 9.31472 6.52592 9.31472 6.91746V8.66673H10.4919C10.8355 8.66673 11.0248 9.07516 10.8072 9.34719L8.40793 12.3464C8.16551 12.6494 7.68529 12.4741 7.68529 12.0825V10.3333H6.50813C6.16448 10.3333 5.97524 9.92484 6.19286 9.65281L8.59209 6.65363Z" fill="currentColor" style="fill:currentColor;fill-opacity:1;"/>
<path fill-rule="evenodd" clip-rule="evenodd" d="M3 7C3 4.79086 4.79086 3 7 3H10C12.2091 3 14 4.79086 14 7V19H20C20.5523 19 21 19.4477 21 20C21 20.5523 20.5523 21 20 21H4C3.44772 21 3 20.5523 3 20V7ZM7 5C5.89543 5 5 5.89543 5 7V14H12V7C12 5.89543 11.1046 5 10 5H7Z" fill="currentColor" style="fill:currentColor;fill-opacity:1;"/>
<path d="M17.6402 3.7318C17.2159 3.37824 16.5853 3.43556 16.2318 3.85984C15.8782 4.28412 15.9355 4.91468 16.3598 5.26825L18.6402 7.16855C18.8682 7.35855 19 7.64 19 7.93678V14.5C19 14.7762 18.7761 15 18.5 15C18.2239 15 18 14.7762 18 14.5V11C18 10.4477 17.5523 10 17 10C16.4477 10 16 10.4477 16 11V14.5C16 15.8807 17.1193 17 18.5 17C19.8807 17 21 15.8807 21 14.5V7.93678C21 7.04644 20.6045 6.20209 19.9205 5.63211L17.6402 3.7318Z" fill="currentColor" style="fill:currentColor;fill-opacity:1;"/>
</svg>
