<svg width="24" height="24" viewBox="0 0 24 24" fill="none" xmlns="http://www.w3.org/2000/svg">
<path d="M1.29289 4.54289C0.902369 4.93342 0.902369 5.56658 1.29289 5.95711C1.68342 6.34763 2.31658 6.34763 2.70711 5.95711L5.70711 2.95711C6.09763 2.56658 6.09763 1.93342 5.70711 1.54289C5.31658 1.15237 4.68342 1.15237 4.29289 1.54289L1.29289 4.54289Z" fill="currentColor" style="fill:currentColor;fill-opacity:1;"/>
<path d="M19.7071 1.54289C19.3166 1.15237 18.6834 1.15237 18.2929 1.54289C17.9024 1.93342 17.9024 2.56658 18.2929 2.95711L21.2929 5.95711C21.6834 6.34763 22.3166 6.34763 22.7071 5.95711C23.0976 5.56658 23.0976 4.93342 22.7071 4.54289L19.7071 1.54289Z" fill="currentColor" style="fill:currentColor;fill-opacity:1;"/>
<path fill-rule="evenodd" clip-rule="evenodd" d="M21.9998 12C21.9998 17.5228 17.5227 22 11.9998 22C6.477 22 1.99985 17.5228 1.99985 12C1.99985 6.47715 6.477 2 11.9998 2C17.5227 2 21.9998 6.47715 21.9998 12ZM11.9998 7C12.5521 7 12.9998 7.44772 12.9998 8V11.5858L15.207 13.7929C15.5975 14.1834 15.5975 14.8166 15.207 15.2071C14.8164 15.5976 14.1833 15.5976 13.7927 15.2071L11.2927 12.7071C11.1052 12.5196 10.9998 12.2652 10.9998 12V8C10.9998 7.44772 11.4476 7 11.9998 7Z" fill="currentColor" style="fill:currentColor;fill-opacity:1;"/>
</svg>
