<svg width="24" height="24" viewBox="0 0 24 24" fill="none" xmlns="http://www.w3.org/2000/svg">
<path d="M18 19.9998C20.7614 19.9998 23 17.7612 23 14.9998C23 12.5601 21.2526 10.5285 18.9412 10.0882C18.7634 8.72118 18.1912 7.47799 17.3425 6.47656L10.3877 19.9998H18Z" fill="currentColor" style="fill:currentColor;fill-opacity:1;"/>
<path d="M16.3893 3.95756C16.6419 3.46642 16.4485 2.86351 15.9573 2.61092C15.4662 2.35834 14.8633 2.55172 14.6107 3.04286L13.9732 4.28245C13.3466 4.09866 12.6842 4.00021 12 4.00021C9.14187 4.00021 6.68595 5.71262 5.59824 8.16506C2.96041 8.79672 1 11.1688 1 14.0002C1 16.9515 3.13084 19.4051 5.93798 19.9065L5.61071 20.5429C5.35813 21.034 5.55151 21.6369 6.04265 21.8895C6.53379 22.1421 7.1367 21.9487 7.38929 21.4576L16.3893 3.95756Z" fill="currentColor" style="fill:currentColor;fill-opacity:1;"/>
</svg>
