<svg width="24" height="24" viewBox="0 0 24 24" fill="none" xmlns="http://www.w3.org/2000/svg">
<path d="M9 4C4.58172 4 1 7.58172 1 12C1 14.7194 2.35779 17.1215 4.4279 18.5655C4.88088 18.8815 5.50422 18.7704 5.82019 18.3174C6.13615 17.8644 6.02507 17.2411 5.5721 16.9251C4.01524 15.8392 3 14.0381 3 12C3 8.68629 5.68629 6 9 6C11.4749 6 13.6021 7.49867 14.5192 9.64202C14.7232 10.1188 15.2579 10.3605 15.7506 10.1987C16.1424 10.07 16.562 10 17 10C19.2091 10 21 11.7909 21 14C21 15.6387 20.0144 17.0494 18.5996 17.6676C18.0935 17.8887 17.8625 18.4782 18.0836 18.9843C18.3048 19.4904 18.8943 19.7214 19.4004 19.5003C21.5174 18.5754 23 16.4619 23 14C23 10.6863 20.3137 8 17 8C16.6524 8 16.3112 8.02966 15.9789 8.0867C14.6092 5.6491 11.9981 4 9 4Z" fill="currentColor" style="fill:currentColor;fill-opacity:1;"/>
<path d="M13 20C13 20.5523 12.5523 21 12 21C11.4477 21 11 20.5523 11 20V16.4142L10.2071 17.2071C9.81658 17.5976 9.18342 17.5976 8.79289 17.2071C8.40237 16.8166 8.40237 16.1834 8.79289 15.7929L11.2929 13.2929C11.6834 12.9024 12.3166 12.9024 12.7071 13.2929L15.2071 15.7929C15.5976 16.1834 15.5976 16.8166 15.2071 17.2071C14.8166 17.5976 14.1834 17.5976 13.7929 17.2071L13 16.4142V20Z" fill="currentColor" style="fill:currentColor;fill-opacity:1;"/>
</svg>
