<svg width="24" height="24" viewBox="0 0 24 24" fill="none" xmlns="http://www.w3.org/2000/svg">
<path fill-rule="evenodd" clip-rule="evenodd" d="M5.59824 8.16485C6.68595 5.71241 9.14187 4 12 4C15.5571 4 18.4944 6.65314 18.9412 10.0884C21.2527 10.5287 23 12.5603 23 15C23 17.7614 20.7614 20 18 20H7C3.68629 20 1 17.3137 1 14C1 11.1686 2.96041 8.79651 5.59824 8.16485ZM12 12.1069V11.2489C11.1716 11.2489 10.5 11.9205 10.5 12.7489C10.5 13.5773 11.1716 14.2489 12 14.2489C12.4901 14.2489 12.9253 14.0149 13.2006 13.6483C13.5323 13.2067 14.1592 13.1176 14.6008 13.4493C15.0423 13.781 15.1314 14.4079 14.7997 14.8495C14.1629 15.6973 13.1457 16.2489 12 16.2489C10.067 16.2489 8.5 14.6819 8.5 12.7489C8.5 10.8159 10.067 9.24889 12 9.24889V8.39088C12 7.955 12.5189 7.72783 12.8391 8.02348L14.852 9.88149C15.0665 10.0795 15.0665 10.4183 14.852 10.6163L12.8391 12.4743C12.5189 12.7699 12 12.5428 12 12.1069Z" fill="currentColor" style="fill:currentColor;fill-opacity:1;"/>
</svg>
