<svg width="24" height="24" viewBox="0 0 24 24" fill="none" xmlns="http://www.w3.org/2000/svg">
<path fill-rule="evenodd" clip-rule="evenodd" d="M12 2C17.5228 2 22 6.47715 22 12C22 17.5228 17.5228 22 12 22C6.47715 22 2 17.5228 2 12C2 6.47715 6.47715 2 12 2ZM9.5 7.09961C9.00294 7.09961 8.59961 7.50294 8.59961 8C8.59961 8.49706 9.00294 8.90039 9.5 8.90039H11C11.8371 8.90039 12.5573 9.39108 12.8945 10.0996H8C7.50294 10.0996 7.09961 10.5029 7.09961 11C7.09961 11.4971 7.50294 11.9004 8 11.9004H12.8945C12.5573 12.6089 11.8371 13.0996 11 13.0996H9.5C9.11261 13.0996 8.76899 13.3483 8.64648 13.7158C8.52417 14.0832 8.65025 14.4873 8.95996 14.7197L12.96 17.7197L13.0361 17.7715C13.4268 18.007 13.9401 17.9128 14.2197 17.54C14.4994 17.1671 14.446 16.648 14.1104 16.3389L14.04 16.2803L12.0186 14.7646C13.3926 14.3938 14.4639 13.2909 14.793 11.9004H16L16.0918 11.8955C16.5457 11.8495 16.9004 11.4661 16.9004 11C16.9004 10.5339 16.5457 10.1505 16.0918 10.1045L16 10.0996H14.7949C14.3883 8.37981 12.8439 7.09961 11 7.09961H9.5Z" fill="currentColor"/>
</svg>
