<svg width="24" height="24" viewBox="0 0 24 24" fill="none" xmlns="http://www.w3.org/2000/svg">
<path fill-rule="evenodd" clip-rule="evenodd" d="M12 2C6.47715 2 2 6.47715 2 12C2 17.5228 6.47715 22 12 22C17.5228 22 22 17.5228 22 12C22 6.47715 17.5228 2 12 2ZM7.84184 13C8.24994 15.2029 9.97942 17 12.25 17C13.5568 17 14.7084 16.3842 15.5091 15.4503C15.8686 15.0311 15.8202 14.3998 15.4009 14.0403C14.9817 13.6808 14.3503 13.7292 13.9909 14.1485C13.5211 14.6964 12.9019 15 12.25 15C11.243 15 10.2481 14.2242 9.88968 13H10.75C11.3023 13 11.75 12.5523 11.75 12C11.75 11.4477 11.3023 11 10.75 11H9.88968C10.2481 9.77582 11.243 9 12.25 9C12.9019 9 13.5211 9.30363 13.9909 9.8515C14.3503 10.2708 14.9817 10.3192 15.4009 9.95973C15.8202 9.60024 15.8686 8.96893 15.5091 8.54966C14.7084 7.61576 13.5568 7 12.25 7C9.97942 7 8.24994 8.79705 7.84184 11H7.75C7.19772 11 6.75 11.4477 6.75 12C6.75 12.5523 7.19772 13 7.75 13H7.84184Z" fill="currentColor"/>
</svg>
