<svg width="24" height="24" viewBox="0 0 24 24" fill="none" xmlns="http://www.w3.org/2000/svg">
<path fill-rule="evenodd" clip-rule="evenodd" d="M10.7071 6.29289L11.5 7.08582L14.2929 4.29295C15.6011 2.98475 17.6205 2.82122 19.1065 3.80237C19.3188 3.94254 19.5202 4.10606 19.7071 4.29295C21.0153 5.60116 21.1788 7.62058 20.1977 9.10659C20.0575 9.31888 19.894 9.52028 19.7071 9.70716L16.9142 12.5L17.7071 13.2929C18.0976 13.6834 18.0976 14.3166 17.7071 14.7071C17.3166 15.0976 16.6834 15.0976 16.2929 14.7071L15.5 13.9142L9 20.4143C8.62493 20.7893 8.11622 21.0001 7.58579 21.0001H5C3.89543 21.0001 3 20.1046 3 19.0001V16.4143C3 15.8838 3.21071 15.3751 3.58579 15.0001L10.0858 8.50003L9.29289 7.70711C8.90237 7.31658 8.90237 6.68342 9.29289 6.29289C9.68342 5.90237 10.3166 5.90237 10.7071 6.29289ZM11.5 9.91427L14.0858 12.5001L11.5858 15H6.41427L11.5 9.91427Z" fill="currentColor" style="fill:currentColor;fill-opacity:1;"/>
</svg>
