<svg width="24" height="24" viewBox="0 0 24 24" fill="none" xmlns="http://www.w3.org/2000/svg">
<path d="M6 4C3.79086 4 2 5.79086 2 8V16C2 18.2091 3.79086 20 6 20H11C11.5523 20 12 19.5523 12 19C12 18.4477 11.5523 18 11 18H6C4.89543 18 4 17.1046 4 16V13H21C21.5523 13 22 12.5523 22 12V8C22 5.79086 20.2091 4 18 4H6Z" fill="currentColor" style="fill:currentColor;fill-opacity:1;"/>
<path d="M17.7071 16.2929C17.3166 15.9024 16.6834 15.9024 16.2929 16.2929C15.9024 16.6834 15.9024 17.3166 16.2929 17.7071L17.5858 19L16.2929 20.2929C15.9024 20.6834 15.9024 21.3166 16.2929 21.7071C16.6834 22.0976 17.3166 22.0976 17.7071 21.7071L19 20.4142L20.2929 21.7071C20.6834 22.0976 21.3166 22.0976 21.7071 21.7071C22.0976 21.3166 22.0976 20.6834 21.7071 20.2929L20.4142 19L21.7071 17.7071C22.0976 17.3166 22.0976 16.6834 21.7071 16.2929C21.3166 15.9024 20.6834 15.9024 20.2929 16.2929L19 17.5858L17.7071 16.2929Z" fill="currentColor" style="fill:currentColor;fill-opacity:1;"/>
</svg>
