<svg width="24" height="24" viewBox="0 0 24 24" fill="none" xmlns="http://www.w3.org/2000/svg">
<path d="M18 6H13V19C13 19.5523 12.5523 20 12 20H6C3.79086 20 2 18.2091 2 16V8C2 5.79086 3.79086 4 6 4H18C20.2091 4 22 5.79086 22 8V10C22 10.5523 21.5523 11 21 11C20.4477 11 20 10.5523 20 10V8C20 6.89543 19.1046 6 18 6Z" fill="currentColor" style="fill:currentColor;fill-opacity:1;"/>
<path d="M17.7071 14.2929C17.3166 13.9024 16.6834 13.9024 16.2929 14.2929C15.9024 14.6834 15.9024 15.3166 16.2929 15.7071L17.5858 17L16.2929 18.2929C15.9024 18.6834 15.9024 19.3166 16.2929 19.7071C16.6834 20.0976 17.3166 20.0976 17.7071 19.7071L19 18.4142L20.2929 19.7071C20.6834 20.0976 21.3166 20.0976 21.7071 19.7071C22.0976 19.3166 22.0976 18.6834 21.7071 18.2929L20.4142 17L21.7071 15.7071C22.0976 15.3166 22.0976 14.6834 21.7071 14.2929C21.3166 13.9024 20.6834 13.9024 20.2929 14.2929L19 15.5858L17.7071 14.2929Z" fill="currentColor" style="fill:currentColor;fill-opacity:1;"/>
</svg>
