<svg width="24" height="24" viewBox="0 0 24 24" fill="none" xmlns="http://www.w3.org/2000/svg">
<path d="M11.4647 8.75288C10.737 8.88141 10.0823 9.31668 9.58608 9.79896C8.83008 10.5337 8.21727 11.5747 7.92523 12.6645C7.6332 13.7544 7.64342 14.9623 7.93078 15.9766C8.20609 16.9483 8.8236 18.002 9.95749 18.3058C11.0914 18.6096 12.153 18.0059 12.8773 17.302C13.6333 16.5673 14.2461 15.5263 14.5381 14.4365C14.8301 13.3466 14.8199 12.1386 14.5326 11.1244C14.3408 10.4476 13.9831 9.73107 13.4005 9.25581L15.2754 2.25858C15.4183 1.72511 15.1018 1.17678 14.5683 1.03383C14.0348 0.890892 13.4865 1.20747 13.3436 1.74094L11.4647 8.75288Z" fill="currentColor"/>
<path d="M16.5016 13.4704C16.5332 12.919 17.0058 12.4976 17.5572 12.5292C18.6627 12.5926 19.7808 12.7647 20.6567 13.1156C21.4751 13.4434 22.4768 14.1052 22.4851 15.3307C22.4912 16.2219 22.0125 16.8898 21.4478 17.3447C20.8976 17.7879 20.1938 18.0951 19.5093 18.3147C18.1313 18.757 16.5357 18.936 15.5494 18.9847C14.9978 19.012 14.5285 18.5869 14.5012 18.0353C14.474 17.4837 14.899 17.0144 15.4506 16.9871C16.3473 16.9428 17.751 16.7786 18.8981 16.4104C19.4763 16.2248 19.9165 16.01 20.1931 15.7872C20.4551 15.5761 20.4858 15.4341 20.4852 15.3443L20.485 15.3398C20.4849 15.3389 20.4849 15.3384 20.4848 15.3381C20.4847 15.3377 20.4848 15.3381 20.4848 15.3381C20.4836 15.3354 20.474 15.315 20.44 15.28C20.3643 15.202 20.2043 15.0889 19.9129 14.9721C19.3284 14.738 18.4578 14.5841 17.4428 14.526C16.8914 14.4943 16.47 14.0217 16.5016 13.4704Z" fill="currentColor"/>
<path d="M5.94339 13.9642C6.12658 14.4852 5.85271 15.0561 5.3317 15.2392C3.9343 15.7306 3.50003 16.2983 3.5 16.9164C3.49997 17.4642 3.84969 18.0371 4.89525 18.5895C5.93048 19.1364 7.42626 19.5289 9.14973 19.76C12.5978 20.2223 16.585 19.9934 18.7396 19.4123C19.2728 19.2684 19.8217 19.5841 19.9655 20.1173C20.1093 20.6506 19.7936 21.1994 19.2604 21.3433C16.7935 22.0087 12.5305 22.2312 8.88394 21.7422C7.06008 21.4977 5.29739 21.0639 3.96101 20.3579C2.63496 19.6573 1.49992 18.5507 1.5 16.9163C1.50009 14.9301 3.10646 13.9016 4.6683 13.3525C5.18932 13.1693 5.7602 13.4431 5.94339 13.9642Z" fill="currentColor"/>
</svg>
