<svg width="24" height="24" viewBox="0 0 24 24" fill="none" xmlns="http://www.w3.org/2000/svg">
<path fill-rule="evenodd" clip-rule="evenodd" d="M2 12C2 6.47715 6.47715 2 12 2C17.5228 2 22 6.47715 22 12C22 17.5228 17.5228 22 12 22C6.47715 22 2 17.5228 2 12ZM14.1213 14.1213C12.9497 15.2929 11.0502 15.2929 9.87867 14.1213C8.7071 12.9497 8.7071 11.0503 9.87867 9.87868C11.0502 8.70711 12.9497 8.70711 14.1213 9.87868C14.5118 10.2692 15.145 10.2692 15.5355 9.87868C15.9261 9.48815 15.9261 8.85499 15.5355 8.46447C13.5829 6.51184 10.4171 6.51184 8.46446 8.46447C6.51184 10.4171 6.51184 13.5829 8.46446 15.5355C10.4171 17.4882 13.5829 17.4882 15.5355 15.5355C15.9261 15.145 15.9261 14.5118 15.5355 14.1213C15.145 13.7308 14.5118 13.7308 14.1213 14.1213Z" fill="currentColor" style="fill:currentColor;fill-opacity:1;"/>
</svg>
