<svg width="24" height="24" viewBox="0 0 24 24" fill="none" xmlns="http://www.w3.org/2000/svg">
<path d="M3 20V16.7998C3 14.5762 2.99922 12.848 3.1123 11.4639C3.22635 10.0682 3.46079 8.93406 3.98047 7.91406L4.14844 7.60059C5.01688 6.05065 6.32634 4.78946 7.91406 3.98047L8.30273 3.79883C9.22209 3.40429 10.2428 3.21208 11.4639 3.1123C12.848 2.99922 14.5762 3 16.7998 3H20C20.5523 3 21 3.44772 21 4C21 4.55228 20.5523 5 20 5H16.7998C14.5432 5 12.9108 5.00058 11.627 5.10547C10.5139 5.19642 9.73036 5.36187 9.08887 5.6377L8.82227 5.7627C7.58744 6.39187 6.56901 7.37272 5.89355 8.57812L5.7627 8.82227C5.41061 9.51338 5.2094 10.355 5.10547 11.627C5.00058 12.9108 5 14.5432 5 16.7998V20C5 20.5523 4.55228 21 4 21C3.44772 21 3 20.5523 3 20Z" fill="currentColor"/>
</svg>
