<svg width="24" height="24" viewBox="0 0 24 24" fill="none" xmlns="http://www.w3.org/2000/svg">
<path d="M12.7457 2.18607C12.2601 2.03433 11.7399 2.03433 11.2543 2.18607L4.75431 4.21732C3.71062 4.54347 3 5.51005 3 6.60352V7.50073C3 8.71021 3.85888 9.71908 5 9.95072L5 17C5 17.5523 5.44772 18 6 18C6.55228 18 7 17.5523 7 17L7 10.0007H9L9 17C9 17.5523 9.44772 18 10 18C10.5523 18 11 17.5523 11 17L11 10.0007H13L13 17C13 17.5523 13.4477 18 14 18C14.5523 18 15 17.5523 15 17L15 10.0007H17L17 17C17 17.5523 17.4477 18 18 18C18.5523 18 19 17.5523 19 17L19 9.95072C20.1411 9.71909 21 8.71021 21 7.50073V6.60352C21 5.51005 20.2894 4.54347 19.2457 4.21732L12.7457 2.18607Z" fill="currentColor" style="fill:currentColor;fill-opacity:1;"/>
<path d="M3 20C3 19.4477 3.44772 19 4 19H20C20.5523 19 21 19.4477 21 20C21 20.5523 20.5523 21 20 21H4C3.44772 21 3 20.5523 3 20Z" fill="currentColor" style="fill:currentColor;fill-opacity:1;"/>
</svg>
