<svg width="24" height="24" viewBox="0 0 24 24" fill="none" xmlns="http://www.w3.org/2000/svg">
<path d="M12.0001 2V6M21.0001 11.0001H17.0001M7 11.0001H3M12.0001 16.127V20M7.00002 5.99996L8.46458 7.46445M17 5.99995L15.5357 7.46447M15.6255 14.6253L17 16M8.46458 14.5356C6.11622 16.5362 4.79736 19.0169 4.00009 22M13.0001 11C13.0001 11.5523 12.5523 12 12.0001 12C11.4478 12 11.0001 11.5523 11.0001 11C11.0001 10.4477 11.4478 10 12.0001 10C12.5523 10 13.0001 10.4477 13.0001 11Z" stroke="currentColor" stroke-width="2" stroke-linecap="round" stroke-linejoin="round"/>
</svg>
