<svg width="24" height="24" viewBox="0 0 24 24" fill="none" xmlns="http://www.w3.org/2000/svg">
<path d="M20 5.5C20 6.32843 19.3284 7 18.5 7C17.6716 7 17 6.32843 17 5.5C17 4.67157 17.6716 4 18.5 4C19.3284 4 20 4.67157 20 5.5Z" fill="currentColor" style="fill:currentColor;fill-opacity:1;"/>
<path d="M20 12C20 12.8284 19.3284 13.5 18.5 13.5C17.6716 13.5 17 12.8284 17 12C17 11.1716 17.6716 10.5 18.5 10.5C19.3284 10.5 20 11.1716 20 12Z" fill="currentColor" style="fill:currentColor;fill-opacity:1;"/>
<path d="M7 12C7 12.8284 6.32843 13.5 5.5 13.5C4.67157 13.5 4 12.8284 4 12C4 11.1716 4.67157 10.5 5.5 10.5C6.32843 10.5 7 11.1716 7 12Z" fill="currentColor" style="fill:currentColor;fill-opacity:1;"/>
<path d="M7 18.5C7 19.3284 6.32843 20 5.5 20C4.67157 20 4 19.3284 4 18.5C4 17.6716 4.67157 17 5.5 17C6.32843 17 7 17.6716 7 18.5Z" fill="currentColor" style="fill:currentColor;fill-opacity:1;"/>
<path d="M13.5 5.5C13.5 6.32843 12.8284 7 12 7C11.1716 7 10.5 6.32843 10.5 5.5C10.5 4.67157 11.1716 4 12 4C12.8284 4 13.5 4.67157 13.5 5.5Z" fill="currentColor" style="fill:currentColor;fill-opacity:1;"/>
<path d="M13.5 18.5C13.5 19.3284 12.8284 20 12 20C11.1716 20 10.5 19.3284 10.5 18.5C10.5 17.6716 11.1716 17 12 17C12.8284 17 13.5 17.6716 13.5 18.5Z" fill="currentColor" style="fill:currentColor;fill-opacity:1;"/>
<path d="M12 9.5C10.6193 9.5 9.5 10.6193 9.5 12C9.5 13.3807 10.6193 14.5 12 14.5C13.3807 14.5 14.5 13.3807 14.5 12C14.5 10.6193 13.3807 9.5 12 9.5Z" fill="currentColor" style="fill:currentColor;fill-opacity:1;"/>
</svg>
