<svg width="24" height="24" viewBox="0 0 24 24" fill="none" xmlns="http://www.w3.org/2000/svg">
<path d="M2 16V15C1.44772 15 1 15.4477 1 16H2ZM13 17H14V15H13V17ZM13 21H14V19H13V21ZM19 9V10H21V9H19ZM17 17C16.4477 17 16 17.4477 16 18C16 18.5523 16.4477 19 17 19V17ZM18 19C18.5523 19 19 18.5523 19 18C19 17.4477 18.5523 17 18 17V19ZM7 5H17V3H7V5ZM5 16V7H3V16H5ZM2 17H4V15H2V17ZM4 17H13V15H4V17ZM13 19H5V21H13V19ZM3 17V16H1V17H3ZM19 7V9H21V7H19ZM5 19C3.89543 19 3 18.1046 3 17H1C1 19.2091 2.79086 21 5 21V19ZM17 5C18.1046 5 19 5.89543 19 7H21C21 4.79086 19.2091 3 17 3V5ZM7 3C4.79086 3 3 4.79086 3 7H5C5 5.89543 5.89543 5 7 5V3ZM16 10H19V8H16V10ZM21 12V18H23V12H21ZM19 20H16V22H19V20ZM14 18V12H12V18H14ZM17 19H18V17H17V19ZM16 20C14.8954 20 14 19.1046 14 18H12C12 20.2091 13.7909 22 16 22V20ZM21 18C21 19.1046 20.1046 20 19 20V22C21.2091 22 23 20.2091 23 18H21ZM19 10C20.1046 10 21 10.8954 21 12H23C23 9.79086 21.2091 8 19 8V10ZM16 8C13.7909 8 12 9.79086 12 12H14C14 10.8954 14.8954 10 16 10V8Z" fill="currentColor"/>
</svg>
