<svg width="24" height="24" viewBox="0 0 24 24" fill="none" xmlns="http://www.w3.org/2000/svg">
<path fill-rule="evenodd" clip-rule="evenodd" d="M14.5512 11.2154C12.9943 10.6487 12.1915 8.92718 12.7582 7.37025L13.7842 4.55117C14.3509 2.99424 16.0725 2.19148 17.6294 2.75815L20.4485 3.78422C22.0054 4.35089 22.8082 6.07242 22.2415 7.62935L21.2154 10.4484C20.6487 12.0054 18.9272 12.8081 17.3703 12.2414L14.5512 11.2154ZM17.1597 8.43958C17.6786 8.62848 18.2525 8.36089 18.4414 7.84191C18.6303 7.32293 18.3627 6.74909 17.8437 6.5602C17.3247 6.37131 16.7509 6.63889 16.562 7.15787C16.3731 7.67685 16.6407 8.25069 17.1597 8.43958Z" fill="currentColor" style="fill:currentColor;fill-opacity:1;"/>
<path fill-rule="evenodd" clip-rule="evenodd" d="M3.81829 10.1492C1.81613 11.0828 0.949913 13.4627 1.88354 15.4649L3.15139 18.1838C4.08501 20.1859 6.46494 21.0522 8.46709 20.1185L11.186 18.8507C13.1882 17.9171 14.0544 15.5371 13.1208 13.535L11.8529 10.8161C10.9193 8.81391 8.53938 7.94769 6.53722 8.88131L3.81829 10.1492ZM6.41267 13.3518C6.64608 13.8523 6.42952 14.4473 5.92898 14.6807C5.42844 14.9141 4.83346 14.6975 4.60006 14.197C4.36665 13.6965 4.58321 13.1015 5.08375 12.8681C5.58429 12.6347 6.17927 12.8512 6.41267 13.3518ZM9.91726 16.1319C10.4178 15.8985 10.6344 15.3035 10.401 14.8029C10.1675 14.3024 9.57257 14.0858 9.07203 14.3192C8.57149 14.5526 8.35493 15.1476 8.58834 15.6482C8.82174 16.1487 9.41672 16.3653 9.91726 16.1319Z" fill="currentColor" style="fill:currentColor;fill-opacity:1;"/>
</svg>
