<svg width="24" height="24" viewBox="0 0 24 24" fill="none" xmlns="http://www.w3.org/2000/svg">
<path fill-rule="evenodd" clip-rule="evenodd" d="M2 12C2 6.47715 6.47715 2 12 2C17.5228 2 22 6.47715 22 12C22 17.5228 17.5228 22 12 22C6.47715 22 2 17.5228 2 12ZM12 5.5C12.5523 5.5 13 5.94772 13 6.5V7.12367C13.804 7.32711 14.5135 7.77457 14.9759 8.41405C15.2995 8.86159 15.199 9.48674 14.7515 9.81035C14.304 10.134 13.6788 10.0335 13.3552 9.58595C13.1379 9.28549 12.6534 9 12 9H11.7222C10.8274 9 10.5 9.54492 10.5 9.77778V9.8541C10.5 10.0514 10.6491 10.3826 11.1525 10.584L13.5902 11.5591C14.6572 11.9858 15.5 12.9386 15.5 14.1459C15.5 15.6189 14.323 16.6144 13 16.9091V17.5C13 18.0523 12.5523 18.5 12 18.5C11.4477 18.5 11 18.0523 11 17.5V16.8763C10.196 16.6729 9.4865 16.2254 9.02411 15.586C8.7005 15.1384 8.80096 14.5133 9.24851 14.1897C9.69605 13.866 10.3212 13.9665 10.6448 14.414C10.8621 14.7145 11.3466 15 12 15H12.1824C13.1298 15 13.5 14.4209 13.5 14.1459C13.5 13.9486 13.3509 13.6174 12.8475 13.416L10.4098 12.4409C9.34283 12.0142 8.5 11.0614 8.5 9.8541V9.77778C8.5 8.31377 9.68936 7.33904 11 7.07331V6.5C11 5.94772 11.4477 5.5 12 5.5Z" fill="currentColor" style="fill:currentColor;fill-opacity:1;"/>
</svg>
