<svg width="24" height="24" viewBox="0 0 24 24" fill="none" xmlns="http://www.w3.org/2000/svg">
<path d="M21 12C21 16.9706 16.9706 21 12 21C7.02944 21 3 16.9706 3 12C3 7.02944 7.02944 3 12 3C16.9706 3 21 7.02944 21 12Z" stroke="currentColor" style="stroke:currentColor;stroke-opacity:1;" stroke-width="2" stroke-linecap="square"/>
<path d="M14 12C14 13.1046 13.1046 14 12 14C10.8954 14 10 13.1046 10 12C10 10.8954 10.8954 10 12 10C13.1046 10 14 10.8954 14 12Z" stroke="currentColor" style="stroke:currentColor;stroke-opacity:1;" stroke-width="2" stroke-linecap="square"/>
<path d="M11.8319 5.91473C12.7373 5.34517 13.9306 5.58882 14.5402 6.46773L14.9652 7.08037C15.2059 7.4274 15.5503 7.68932 15.949 7.8286L16.6529 8.07448C17.6627 8.42724 18.2162 9.51209 17.9091 10.5367L17.6951 11.2509C17.5738 11.6555 17.5838 12.088 17.7235 12.4866L17.9701 13.1902C18.3239 14.1997 17.8208 15.3088 16.8283 15.7076L16.1365 15.9856C15.7446 16.143 15.4126 16.4205 15.1881 16.7782L14.7917 17.4097C14.2231 18.3157 13.0423 18.6139 12.1117 18.0866L11.463 17.719C11.0956 17.5108 10.6716 17.4242 10.252 17.4717L9.51114 17.5556C8.44828 17.6759 7.47889 16.9386 7.31097 15.8822L7.19392 15.1459C7.12762 14.7288 6.93098 14.3434 6.63219 14.0449L6.1047 13.518C5.34795 12.762 5.31996 11.5444 6.04118 10.7545L6.5439 10.2039C6.82866 9.89199 7.00739 9.49796 7.05445 9.07825L7.13754 8.33731C7.25675 7.27432 8.19124 6.49329 9.25851 6.56465L10.0024 6.61439C10.4238 6.64256 10.8433 6.53662 11.2008 6.31174L11.8319 5.91473Z" stroke="currentColor" style="stroke:currentColor;stroke-opacity:1;" stroke-width="2" stroke-linecap="square"/>
</svg>
