<svg width="24" height="24" viewBox="0 0 24 24" fill="none" xmlns="http://www.w3.org/2000/svg">
<path d="M12 1C10.04 1 8.42739 1.63555 7.24015 2.78957C6.06672 3.93017 5.38799 5.49924 5.12661 7.24106C4.88782 8.83234 6.22231 10 7.61538 10C8.97715 10 9.89287 8.90717 10.1017 7.80915C10.2183 7.19631 10.4275 6.74922 10.704 6.4641C10.9547 6.20553 11.3362 6 12 6C13.1046 6 14 6.89543 14 8V8.11696C14 9.40825 13.1737 10.5547 11.9487 10.963L8.41886 12.1396C6.37715 12.8202 5 14.7309 5 16.883V19C5 21.2091 6.79086 23 9 23H15C17.2091 23 19 21.2091 19 19V8C19 4.13401 15.866 1 12 1Z" fill="currentColor" style="fill:currentColor;fill-opacity:1;"/>
</svg>
