<svg width="24" height="24" viewBox="0 0 24 24" fill="none" xmlns="http://www.w3.org/2000/svg">
<path fill-rule="evenodd" clip-rule="evenodd" d="M8 2C5.79086 2 4 3.79086 4 6V10H20V6C20 3.79086 18.2091 2 16 2H8ZM9 6C9 5.44772 9.44771 5 10 5H14C14.5523 5 15 5.44772 15 6C15 6.55228 14.5523 7 14 7H10C9.44771 7 9 6.55228 9 6Z" fill="currentColor" style="fill:currentColor;fill-opacity:1;"/>
<path fill-rule="evenodd" clip-rule="evenodd" d="M20 12H4V16C4 17.4806 4.8044 18.7733 6 19.4649V21C6 21.5523 6.44772 22 7 22C7.55228 22 8 21.5523 8 21V20H16V21C16 21.5523 16.4477 22 17 22C17.5523 22 18 21.5523 18 21V19.4649C19.1956 18.7733 20 17.4806 20 16V12ZM10 15C9.44771 15 9 15.4477 9 16C9 16.5523 9.44771 17 10 17H14C14.5523 17 15 16.5523 15 16C15 15.4477 14.5523 15 14 15H10Z" fill="currentColor" style="fill:currentColor;fill-opacity:1;"/>
</svg>
