<svg width="24" height="24" viewBox="0 0 24 24" fill="none" xmlns="http://www.w3.org/2000/svg">
<path fill-rule="evenodd" clip-rule="evenodd" d="M3 7C3 4.79086 4.79086 3 7 3H17C19.2091 3 21 4.79086 21 7V10H3V7ZM10 6C10 5.44772 10.4477 5 11 5H13C13.5523 5 14 5.44772 14 6C14 6.55228 13.5523 7 13 7H11C10.4477 7 10 6.55228 10 6Z" fill="currentColor" style="fill:currentColor;fill-opacity:1;"/>
<path fill-rule="evenodd" clip-rule="evenodd" d="M3 12V15C3 16.8666 4.27853 18.4346 6.00763 18.8759C6.00259 18.9166 6 18.958 6 19V21C6 21.5523 6.44772 22 7 22C7.55228 22 8 21.5523 8 21V19H16V21C16 21.5523 16.4477 22 17 22C17.5523 22 18 21.5523 18 21V19C18 18.958 17.9974 18.9166 17.9924 18.8759C19.7215 18.4346 21 16.8666 21 15V12H3ZM11 14C10.4477 14 10 14.4477 10 15C10 15.5523 10.4477 16 11 16H13C13.5523 16 14 15.5523 14 15C14 14.4477 13.5523 14 13 14H11Z" fill="currentColor" style="fill:currentColor;fill-opacity:1;"/>
</svg>
