<svg width="24" height="24" viewBox="0 0 24 24" fill="none" xmlns="http://www.w3.org/2000/svg">
<path fill-rule="evenodd" clip-rule="evenodd" d="M22 12C22 17.5228 17.5228 22 12 22C6.47715 22 2 17.5228 2 12C2 6.47715 6.47715 2 12 2C17.5228 2 22 6.47715 22 12ZM14.3839 17C14.7627 17 15.109 16.786 15.2783 16.4472L15.6086 15.7867C15.8335 15.3369 15.6894 14.79 15.2719 14.5095L13.2783 13.1698C13.1314 13.071 12.9609 13.0131 12.7842 13.0018L11.561 12.9237C11.2748 12.9055 10.9946 13.0109 10.7915 13.2133L10.5838 13.4203C10.2456 13.7572 10.1927 14.2862 10.4575 14.6834L11.7051 16.5547C11.8906 16.8329 12.2028 17 12.5371 17H14.3839ZM8.54009 9.93024C8.25947 10.4873 7.54292 10.6543 7.0449 10.2788L5.42409 9.05644C5.04481 8.77041 4.91348 8.25311 5.16042 7.8473C6.56407 5.54056 9.1019 4 11.9995 4C12.3249 4 12.6456 4.01942 12.9608 4.05715C13.5095 4.12286 13.8355 4.6729 13.7011 5.20895L13.1468 7.4194C13.0572 7.77687 12.7782 8.05606 12.4208 8.14597L9.44963 8.8934C9.16804 8.96424 8.93115 9.15397 8.80051 9.41329L8.54009 9.93024Z" fill="currentColor" style="fill:currentColor;fill-opacity:1;"/>
</svg>
