<svg width="24" height="24" viewBox="0 0 24 24" fill="none" xmlns="http://www.w3.org/2000/svg">
<path d="M10.9364 3.66222C10.4357 1.63857 7.5603 1.63507 7.05469 3.65751L5.59796 9.48443C5.37537 10.3748 4.57541 10.9994 3.65767 10.9994H2C1.44772 10.9994 1 11.4471 1 11.9994C1 12.5516 1.44772 12.9994 2 12.9994H3.65767C5.49314 12.9994 7.09307 11.7502 7.53824 9.9695L8.99497 4.14258L13.0536 20.5461C13.5555 22.5747 16.4405 22.5713 16.9376 20.5414L18.4114 14.5236C18.6305 13.6287 19.4326 12.9994 20.354 12.9994H22C22.5523 12.9994 23 12.5516 23 11.9994C23 11.4471 22.5523 10.9994 22 10.9994H20.354C18.5113 10.9994 16.9071 12.2581 16.4688 14.0479L14.995 20.0657L10.9364 3.66222Z" fill="currentColor" style="fill:currentColor;fill-opacity:1;"/>
</svg>
