<svg width="24" height="24" viewBox="0 0 24 24" fill="none" xmlns="http://www.w3.org/2000/svg">
<path d="M4.63803 18.673L5.09202 17.782H5.09202L4.63803 18.673ZM3.32698 17.362L2.43597 17.816H2.43597L3.32698 17.362ZM20.673 17.362L21.564 17.816V17.816L20.673 17.362ZM19.362 18.673L18.908 17.782L18.908 17.782L19.362 18.673ZM20.673 6.63803L21.564 6.18404V6.18404L20.673 6.63803ZM19.362 5.32698L18.908 6.21799L18.908 6.21799L19.362 5.32698ZM3.32698 6.63803L4.21799 7.09202L3.32698 6.63803ZM4.63803 5.32698L5.09202 6.21799L4.63803 5.32698ZM13.8741 11.5007L13.2494 10.7199V10.7199L13.8741 11.5007ZM10.1259 11.5007L9.5012 12.2816L10.1259 11.5007ZM20 9.8V14.2H22V9.8H20ZM16.2 18H7.8V20H16.2V18ZM4 14.2V9.8H2V14.2H4ZM7.8 6H16.2V4H7.8V6ZM7.8 18C6.94342 18 6.36113 17.9992 5.91104 17.9624C5.47262 17.9266 5.24842 17.8617 5.09202 17.782L4.18404 19.564C4.66937 19.8113 5.18608 19.9099 5.74817 19.9558C6.2986 20.0008 6.97642 20 7.8 20V18ZM2 14.2C2 15.0236 1.99922 15.7014 2.04419 16.2518C2.09012 16.8139 2.18868 17.3306 2.43597 17.816L4.21799 16.908C4.1383 16.7516 4.07337 16.5274 4.03755 16.089C4.00078 15.6389 4 15.0566 4 14.2H2ZM5.09202 17.782C4.7157 17.5903 4.40973 17.2843 4.21799 16.908L2.43597 17.816C2.81947 18.5686 3.43139 19.1805 4.18404 19.564L5.09202 17.782ZM20 14.2C20 15.0566 19.9992 15.6389 19.9624 16.089C19.9266 16.5274 19.8617 16.7516 19.782 16.908L21.564 17.816C21.8113 17.3306 21.9099 16.8139 21.9558 16.2518C22.0008 15.7014 22 15.0236 22 14.2H20ZM16.2 20C17.0236 20 17.7014 20.0008 18.2518 19.9558C18.8139 19.9099 19.3306 19.8113 19.816 19.564L18.908 17.782C18.7516 17.8617 18.5274 17.9266 18.089 17.9624C17.6389 17.9992 17.0566 18 16.2 18V20ZM19.782 16.908C19.5903 17.2843 19.2843 17.5903 18.908 17.782L19.816 19.564C20.5686 19.1805 21.1805 18.5686 21.564 17.816L19.782 16.908ZM22 9.8C22 8.97642 22.0008 8.2986 21.9558 7.74817C21.9099 7.18608 21.8113 6.66937 21.564 6.18404L19.782 7.09202C19.8617 7.24842 19.9266 7.47262 19.9624 7.91104C19.9992 8.36113 20 8.94342 20 9.8H22ZM16.2 6C17.0566 6 17.6389 6.00078 18.089 6.03755C18.5274 6.07337 18.7516 6.1383 18.908 6.21799L19.816 4.43597C19.3306 4.18868 18.8139 4.09012 18.2518 4.04419C17.7014 3.99922 17.0236 4 16.2 4V6ZM21.564 6.18404C21.1805 5.43139 20.5686 4.81947 19.816 4.43597L18.908 6.21799C19.2843 6.40973 19.5903 6.71569 19.782 7.09202L21.564 6.18404ZM4 9.8C4 8.94342 4.00078 8.36113 4.03755 7.91104C4.07337 7.47262 4.1383 7.24842 4.21799 7.09202L2.43597 6.18404C2.18868 6.66937 2.09012 7.18608 2.04419 7.74817C1.99922 8.2986 2 8.97642 2 9.8H4ZM7.8 4C6.97642 4 6.2986 3.99922 5.74817 4.04419C5.18608 4.09012 4.66937 4.18868 4.18404 4.43597L5.09202 6.21799C5.24842 6.1383 5.47262 6.07337 5.91104 6.03755C6.36113 6.00078 6.94342 6 7.8 6V4ZM4.21799 7.09202C4.40973 6.71569 4.71569 6.40973 5.09202 6.21799L4.18404 4.43597C3.43139 4.81947 2.81947 5.43139 2.43597 6.18404L4.21799 7.09202ZM19.8753 5.41913L13.2494 10.7199L14.4988 12.2816L21.1247 6.98087L19.8753 5.41913ZM10.7506 10.7199L4.12468 5.41913L2.87529 6.98087L9.5012 12.2816L10.7506 10.7199ZM13.2494 10.7199C12.5189 11.3042 11.481 11.3042 10.7506 10.7199L9.5012 12.2816C10.9621 13.4503 13.0379 13.4503 14.4988 12.2816L13.2494 10.7199Z" fill="currentColor"/>
</svg>
