<svg width="24" height="24" viewBox="0 0 24 24" fill="none" xmlns="http://www.w3.org/2000/svg">
<path fill-rule="evenodd" clip-rule="evenodd" d="M19 1C19.5523 1 20 1.44772 20 2V4H22C22.5523 4 23 4.44772 23 5C23 5.55228 22.5523 6 22 6H20V8C20 8.55228 19.5523 9 19 9C18.4477 9 18 8.55228 18 8V6H16C15.4477 6 15 5.55228 15 5C15 4.44772 15.4477 4 16 4H18V2C18 1.44772 18.4477 1 19 1ZM12 4C7.58172 4 4 7.58172 4 12C4 16.4183 7.58172 20 12 20C16.4183 20 20 16.4183 20 12C20 11.4477 20.4477 11 21 11C21.5523 11 22 11.4477 22 12C22 17.5228 17.5228 22 12 22C6.47715 22 2 17.5228 2 12C2 6.47715 6.47715 2 12 2C12.5523 2 13 2.44772 13 3C13 3.55228 12.5523 4 12 4ZM8 9.5C8 8.80964 8.55964 8.25 9.25 8.25C9.94036 8.25 10.5 8.80964 10.5 9.5C10.5 10.1904 9.94036 10.75 9.25 10.75C8.55964 10.75 8 10.1904 8 9.5ZM13.5 9.5C13.5 8.80964 14.0596 8.25 14.75 8.25C15.4404 8.25 16 8.80964 16 9.5C16 10.1904 15.4404 10.75 14.75 10.75C14.0596 10.75 13.5 10.1904 13.5 9.5ZM8.46477 14.1213C8.8553 13.7308 9.48846 13.7308 9.87898 14.1213C11.0505 15.2929 12.95 15.2929 14.1216 14.1213C14.5121 13.7308 15.1453 13.7308 15.5358 14.1213C15.9264 14.5118 15.9264 15.145 15.5358 15.5355C13.5832 17.4882 10.4174 17.4882 8.46477 15.5355C8.07424 15.145 8.07424 14.5118 8.46477 14.1213Z" fill="currentColor" style="fill:currentColor;fill-opacity:1;"/>
</svg>
