<svg width="24" height="24" viewBox="0 0 24 24" fill="none" xmlns="http://www.w3.org/2000/svg">
<path fill-rule="evenodd" clip-rule="evenodd" d="M12 1C12.5523 1 13 1.44772 13 2V7C13 7.55228 12.5523 8 12 8C11.4477 8 11 7.55228 11 7V2C11 1.44772 11.4477 1 12 1ZM7.85604 3.94633C8.16183 4.40623 8.03689 5.02695 7.57698 5.33273C5.41886 6.76764 4 9.21834 4 12C4 16.4183 7.58172 20 12 20C16.4183 20 20 16.4183 20 12C20 9.21834 18.5811 6.76764 16.423 5.33273C15.9631 5.02695 15.8382 4.40623 16.144 3.94633C16.4497 3.48642 17.0705 3.36148 17.5304 3.66727C20.2223 5.45712 22 8.52075 22 12C22 17.5228 17.5228 22 12 22C6.47715 22 2 17.5228 2 12C2 8.52075 3.77767 5.45712 6.46963 3.66727C6.92954 3.36148 7.55025 3.48642 7.85604 3.94633Z" fill="currentColor" style="fill:currentColor;fill-opacity:1;"/>
</svg>
