<svg width="24" height="24" viewBox="0 0 24 24" fill="none" xmlns="http://www.w3.org/2000/svg">
<path fill-rule="evenodd" clip-rule="evenodd" d="M12.0001 4C15.8038 3.99997 19.5071 6.10671 22.0673 10.1138C22.8011 11.2622 22.8011 12.7377 22.0673 13.8861C19.5071 17.8932 15.8038 20 12.0001 20C8.19639 20 4.49313 17.8933 1.93289 13.8862C1.19913 12.7378 1.19913 11.2623 1.93289 10.1139C4.49313 6.10681 8.19638 4.00003 12.0001 4ZM8.50011 12C8.50011 10.067 10.0671 8.5 12.0001 8.5C13.9331 8.5 15.5001 10.067 15.5001 12C15.5001 13.933 13.9331 15.5 12.0001 15.5C10.0671 15.5 8.50011 13.933 8.50011 12Z" fill="currentColor" style="fill:currentColor;fill-opacity:1;"/>
</svg>
