<svg width="24" height="24" viewBox="0 0 24 24" fill="none" xmlns="http://www.w3.org/2000/svg">
<path fill-rule="evenodd" clip-rule="evenodd" d="M3.70521 2.29289C3.31468 1.90237 2.68152 1.90237 2.29099 2.29289C1.90047 2.68342 1.90047 3.31658 2.29099 3.70711L5.10633 6.52245C4.44714 7.0508 3.82023 7.65993 3.23373 8.34802C2.77241 8.88926 2.33616 9.47925 1.92874 10.1172C1.19514 11.266 1.19595 12.7356 1.92924 13.8837C4.95004 18.6134 9.56324 20.6872 14.0133 19.8006C15.1082 19.5824 16.1799 19.1865 17.201 18.6171L20.291 21.7071C20.6815 22.0976 21.3147 22.0976 21.7052 21.7071C22.0957 21.3166 22.0957 20.6834 21.7052 20.2929L18.8904 17.4781C20.0659 16.5358 21.1413 15.3352 22.0671 13.8861C22.8009 12.7377 22.8009 11.2622 22.0671 10.1138C19.5069 6.10671 15.8036 3.99997 11.9999 4C10.2064 4.00001 8.43531 4.46839 6.7958 5.38349L3.70521 2.29289ZM10.3336 8.92133L15.0786 13.6663C15.3473 13.1708 15.4999 12.6032 15.4999 12C15.4999 10.067 13.9329 8.5 11.9999 8.5C11.3967 8.5 10.8291 8.65261 10.3336 8.92133ZM5.3787 8.96641C5.75118 8.58964 6.13617 8.24999 6.53071 7.94682L15.7182 17.1343C15.1977 17.3845 14.6676 17.5797 14.1332 17.7209L5.3787 8.96641ZM4.08482 10.501L11.5719 17.9881C8.67853 17.8372 5.75862 16.1638 3.61479 12.8072C3.30038 12.3149 3.30033 11.6854 3.61435 11.1937C3.7673 10.9542 3.92424 10.7233 4.08482 10.501Z" fill="currentColor" style="fill:currentColor;fill-opacity:1;"/>
</svg>
