<svg width="24" height="24" viewBox="0 0 24 24" fill="none" xmlns="http://www.w3.org/2000/svg">
  <path fill-rule="evenodd" clip-rule="evenodd"
    d="M2 11.7C2 6.12737 6.36842 2 12 2C17.6316 2 22 6.12947 22 11.7021C22 17.2747 17.6316 21.4021 12 21.4021C10.9874 21.4021 10.0179 21.2674 9.10526 21.0179C8.92769 20.9697 8.73895 20.9838 8.57053 21.0579L6.58526 21.9316C6.46544 21.9846 6.33443 22.0073 6.20376 21.9978C6.07308 21.9883 5.94674 21.9469 5.83582 21.8772C5.72491 21.8074 5.63283 21.7115 5.56767 21.5978C5.5025 21.4841 5.46625 21.3562 5.46211 21.2253L5.40737 19.4453C5.40436 19.3369 5.37907 19.2303 5.33307 19.1322C5.28707 19.034 5.22135 18.9464 5.14 18.8747C3.19474 17.1347 2 14.6147 2 11.7ZM8.93263 9.8779L5.99579 14.5379C5.71158 14.9853 6.26211 15.4874 6.68211 15.1674L9.8379 12.7726C9.94171 12.6939 10.0683 12.6512 10.1986 12.6508C10.3289 12.6504 10.4557 12.6924 10.56 12.7705L12.8968 14.5221C13.0627 14.6467 13.2525 14.7356 13.4544 14.7831C13.6563 14.8306 13.8659 14.8357 14.0698 14.7981C14.2738 14.7605 14.4678 14.681 14.6395 14.5647C14.8112 14.4483 14.9569 14.2976 15.0674 14.1221L18.0074 9.46526C18.2874 9.01789 17.7379 8.51263 17.3179 8.83263L14.1621 11.2274C14.0583 11.3061 13.9317 11.3488 13.8014 11.3492C13.6711 11.3496 13.5443 11.3076 13.44 11.2295L11.1032 9.4779C10.9373 9.35345 10.7474 9.26471 10.5456 9.2173C10.3437 9.16988 10.1342 9.1648 9.93026 9.20238C9.72633 9.23996 9.5324 9.31939 9.3607 9.43565C9.18899 9.55191 9.04324 9.7025 8.93263 9.8779Z"
    fill="currentColor" />
</svg>
