<svg width="24" height="24" viewBox="0 0 24 24" fill="none" xmlns="http://www.w3.org/2000/svg">
<path d="M13.5858 3.58579L14.2929 2.87868L14.2929 2.87868L13.5858 3.58579ZM18.4142 8.41421L17.7071 9.12132V9.12132L18.4142 8.41421ZM4 10.5C4 11.0523 4.44772 11.5 5 11.5C5.55228 11.5 6 11.0523 6 10.5H4ZM14 20C13.4477 20 13 20.4477 13 21C13 21.5523 13.4477 22 14 22V20ZM14 3.5V2.5H12V3.5H14ZM18.5 10H19.5V8H18.5V10ZM8 4H12.1716V2H8V4ZM18 9.82843V18H20V9.82843H18ZM12.8787 4.29289L17.7071 9.12132L19.1213 7.70711L14.2929 2.87868L12.8787 4.29289ZM6 10.5V6H4V10.5H6ZM16 20H14V22H16V20ZM20 9.82843C20 9.03278 19.6839 8.26972 19.1213 7.70711L17.7071 9.12132C17.8946 9.30886 18 9.56321 18 9.82843H20ZM12.1716 4C12.4368 4 12.6911 4.10536 12.8787 4.29289L14.2929 2.87868C13.7303 2.31607 12.9672 2 12.1716 2V4ZM18 18C18 19.1046 17.1046 20 16 20V22C18.2091 22 20 20.2091 20 18H18ZM8 2C5.79086 2 4 3.79086 4 6H6C6 4.89543 6.89543 4 8 4V2ZM12 3.5V7H14V3.5H12ZM15 10H18.5V8H15V10ZM12 7C12 8.65685 13.3431 10 15 10V8C14.4477 8 14 7.55228 14 7H12ZM5 18H9V16H5V18ZM9 18V20H11V18H9ZM9 20H5V22H9V20ZM5 20V18H3V20H5ZM5 20H5H3C3 21.1046 3.89543 22 5 22V20ZM9 20V22C10.1046 22 11 21.1046 11 20H9ZM9 18H11C11 16.8954 10.1046 16 9 16V18ZM5 16C3.89543 16 3 16.8954 3 18H5V16ZM8 16V17H10V16H8ZM6 17V16H4V17H6ZM7 15C7.55228 15 8 15.4477 8 16H10C10 14.3431 8.65685 13 7 13V15ZM7 13C5.34315 13 4 14.3431 4 16H6C6 15.4477 6.44772 15 7 15V13Z" fill="currentColor"/>
</svg>
