<svg width="24" height="24" viewBox="0 0 24 24" fill="none" xmlns="http://www.w3.org/2000/svg">
<path fill-rule="evenodd" clip-rule="evenodd" d="M8 2H12V7C12 8.65685 13.3431 10 15 10H20V18C20 20.2091 18.2091 22 16 22H8C5.79086 22 4 20.2091 4 18V6C4 3.79086 5.79086 2 8 2ZM15.2071 17.2071L12.7071 19.7071C12.3166 20.0976 11.6834 20.0976 11.2929 19.7071L8.79289 17.2071C8.40237 16.8166 8.40237 16.1834 8.79289 15.7929C9.18342 15.4024 9.81658 15.4024 10.2071 15.7929L11 16.5858V13C11 12.4477 11.4477 12 12 12C12.5523 12 13 12.4477 13 13V16.5858L13.7929 15.7929C14.1834 15.4024 14.8166 15.4024 15.2071 15.7929C15.5976 16.1834 15.5976 16.8166 15.2071 17.2071Z" fill="currentColor" style="fill:currentColor;fill-opacity:1;"/>
<path d="M14 2.58579L19.4142 8H15C14.4477 8 14 7.55228 14 7V2.58579Z" fill="currentColor" style="fill:currentColor;fill-opacity:1;"/>
</svg>
