<svg width="24" height="24" viewBox="0 0 24 24" fill="none" xmlns="http://www.w3.org/2000/svg">
<path fill-rule="evenodd" clip-rule="evenodd" d="M17.2929 4.29289C17.6834 3.90237 18.3166 3.90237 18.7071 4.29289L21.7071 7.29289C22.0976 7.68342 22.0976 8.31658 21.7071 8.70711C21.3166 9.09763 20.6834 9.09763 20.2929 8.70711L19 7.41421V13C19 13.5523 18.5523 14 18 14C17.4477 14 17 13.5523 17 13V7.41421L15.7071 8.70711C15.3166 9.09763 14.6834 9.09763 14.2929 8.70711C13.9024 8.31658 13.9024 7.68342 14.2929 7.29289L17.2929 4.29289ZM3 6C3 5.44772 3.44772 5 4 5H9C9.55228 5 10 5.44772 10 6C10 6.55228 9.55228 7 9 7H4C3.44772 7 3 6.55228 3 6ZM3 12C3 11.4477 3.44772 11 4 11H11C11.5523 11 12 11.4477 12 12C12 12.5523 11.5523 13 11 13H4C3.44772 13 3 12.5523 3 12ZM3 18C3 17.4477 3.44772 17 4 17H18C18.5523 17 19 17.4477 19 18C19 18.5523 18.5523 19 18 19H4C3.44772 19 3 18.5523 3 18Z" fill="currentColor" style="fill:currentColor;fill-opacity:1;"/>
</svg>
