<svg width="24" height="24" viewBox="0 0 24 24" fill="none" xmlns="http://www.w3.org/2000/svg">
<path fill-rule="evenodd" clip-rule="evenodd" d="M3.5 10.5C3.5 5.80558 7.30558 2 12 2C12.4294 2 12.8519 2.03192 13.2653 2.09367C13.8115 2.17527 14.1882 2.68423 14.1066 3.23045C14.025 3.77667 13.516 4.15332 12.9698 4.07172C12.6539 4.02453 12.3302 4 12 4C8.41015 4 5.5 6.91015 5.5 10.5V11.2916C5.5 11.8439 5.05228 12.2916 4.5 12.2916C3.94772 12.2916 3.5 11.8439 3.5 11.2916V10.5ZM16.0082 4.08162C16.3603 3.65614 16.9907 3.59667 17.4162 3.94878C19.2982 5.50628 20.5 7.86323 20.5 10.5V13.5C20.5 14.8733 20.1736 16.1732 19.5932 17.3238C19.3444 17.8169 18.743 18.015 18.25 17.7662C17.7569 17.5175 17.5588 16.9161 17.8075 16.423C18.2502 15.5454 18.5 14.5533 18.5 13.5V10.5C18.5 8.48426 17.5836 6.68342 16.1411 5.48958C15.7156 5.13747 15.6561 4.50711 16.0082 4.08162ZM9.7956 6.51117C10.4618 6.18354 11.2109 6 12 6C14.7614 6 17 8.23858 17 11V13C17 13.0701 16.9986 13.1399 16.9957 13.2094C16.9729 13.7612 16.507 14.1901 15.9552 14.1673C15.4034 14.1444 14.9746 13.6786 14.9974 13.1268C14.9991 13.0848 15 13.0425 15 13V11C15 9.34315 13.6569 8 12 8C11.5236 8 11.0759 8.11031 10.6783 8.30585C10.1827 8.5496 9.58334 8.34544 9.3396 7.84985C9.09585 7.35426 9.30001 6.75492 9.7956 6.51117ZM8.04478 9.83275C8.59659 9.85556 9.02543 10.3214 9.00261 10.8732C9.00088 10.9152 9 10.9575 9 11V13C9 14.6569 10.3431 16 12 16C12.4764 16 12.9241 15.8897 13.3217 15.6941C13.8173 15.4504 14.4167 15.6546 14.6604 16.1501C14.9041 16.6457 14.7 17.2451 14.2044 17.4888C13.5382 17.8165 12.7891 18 12 18C9.23858 18 7 15.7614 7 13V11C7 10.9299 7.00145 10.8601 7.00432 10.7906C7.02713 10.2388 7.49296 9.80994 8.04478 9.83275ZM12 10C12.5523 10 13 10.4477 13 11V13C13 13.5523 12.5523 14 12 14C11.4477 14 11 13.5523 11 13V11C11 10.4477 11.4477 10 12 10ZM4.47983 14.3439C5.01582 14.2107 5.55828 14.5373 5.69145 15.0733C6.39461 17.9035 8.95371 20 12 20C13.2695 20 14.4511 19.6371 15.4504 19.0098C15.9181 18.7162 16.5354 18.8573 16.829 19.3251C17.1226 19.7928 16.9815 20.4101 16.5137 20.7037C15.2052 21.5251 13.6565 22 12 22C8.0133 22 4.66991 19.2563 3.75046 15.5555C3.61729 15.0195 3.94384 14.477 4.47983 14.3439Z" fill="currentColor" style="fill:currentColor;fill-opacity:1;"/>
</svg>
