<svg width="24" height="24" viewBox="0 0 24 24" fill="none" xmlns="http://www.w3.org/2000/svg">
<path fill-rule="evenodd" clip-rule="evenodd" d="M11.5191 1.62322C11.8187 1.45893 12.1813 1.45893 12.4809 1.62322L12.4825 1.6241L12.4848 1.62537L12.4914 1.62905L12.5127 1.64098C12.5304 1.65097 12.5551 1.66502 12.5862 1.6831C12.6485 1.71925 12.7368 1.77155 12.8474 1.83978C13.0684 1.97616 13.3792 2.1766 13.75 2.43923C14.4898 2.96334 15.477 3.74137 16.4669 4.75945C18.435 6.78337 20.5 9.84845 20.5 13.8122C20.5 16.4935 19.4387 18.5706 17.8048 19.9628C16.1923 21.3366 14.0772 21.9993 12.0003 22C9.92346 22.0007 7.80813 21.3395 6.19532 19.9658C4.56102 18.5737 3.5 16.4958 3.5 13.8122C3.5 9.84845 5.565 6.78337 7.53307 4.75945C8.52305 3.74137 9.51024 2.96334 10.25 2.43923C10.6208 2.1766 10.9316 1.97616 11.1526 1.83978C11.2632 1.77155 11.3515 1.71925 11.4138 1.6831C11.4449 1.66502 11.4696 1.65097 11.4873 1.64098L11.5086 1.62905L11.5152 1.62537L11.5175 1.6241L11.5191 1.62322ZM11.8532 12.11C11.94 12.0436 12.06 12.0436 12.1468 12.11C12.4615 12.3507 12.8372 12.6694 13.2114 13.0603C14.1495 14.0403 15 15.388 15 17.0489C15 18.1125 14.6009 18.8223 14.0785 19.2744C13.5364 19.7436 12.7851 19.9997 11.9996 20C11.214 20.0003 10.4631 19.7447 9.92142 19.276C9.3994 18.8243 9 18.1144 9 17.0489C9 15.388 9.85051 14.0403 10.7886 13.0603C11.1628 12.6694 11.5385 12.3507 11.8532 12.11Z" fill="currentColor" style="fill:currentColor;fill-opacity:1;"/>
</svg>
