<svg width="24" height="24" viewBox="0 0 24 24" fill="none" xmlns="http://www.w3.org/2000/svg">
<path d="M11.4773 15.8914C9.52371 15.341 7.84455 14.9429 6 15.6508V20.9999C6 21.5522 5.55228 21.9999 5 21.9999C4.44772 21.9999 4 21.5522 4 20.9999V4.61918C4 3.87824 4.42123 3.12522 5.19798 2.81704C7.67948 1.83251 9.90744 2.37612 11.8383 2.91546C11.9681 2.95169 12.0962 2.98777 12.2229 3.02345C14.0527 3.53857 15.587 3.97052 17.2559 3.57855C17.8998 3.42733 18.5623 3.56894 19.0716 3.9116C19.5898 4.26022 20 4.8583 20 5.61484V14.3807C20 15.1217 19.5788 15.8747 18.802 16.1828C16.1736 17.2257 13.8066 16.5531 11.7885 15.9796C11.684 15.9499 11.5799 15.9203 11.4773 15.8914Z" fill="currentColor" style="fill:currentColor;fill-opacity:1;"/>
</svg>
