<svg width="24" height="24" viewBox="0 0 24 24" fill="none" xmlns="http://www.w3.org/2000/svg">
<path d="M5 7C5 5.89543 5.89543 5 7 5H8C8.55228 5 9 4.55228 9 4C9 3.44772 8.55228 3 8 3H7C4.79086 3 3 4.79086 3 7V8C3 8.55228 3.44772 9 4 9C4.55228 9 5 8.55228 5 8V7Z" fill="currentColor" style="fill:currentColor;fill-opacity:1;"/>
<path d="M16 3C15.4477 3 15 3.44772 15 4C15 4.55228 15.4477 5 16 5H17C18.1046 5 19 5.89543 19 7V8C19 8.55228 19.4477 9 20 9C20.5523 9 21 8.55228 21 8V7C21 4.79086 19.2091 3 17 3H16Z" fill="currentColor" style="fill:currentColor;fill-opacity:1;"/>
<path d="M10.4312 9.43113C10.8921 9.15753 11.4314 9 12 9C13.3965 9 14.5725 9.95512 14.9055 11.2493C15.0432 11.7841 15.5884 12.1061 16.1232 11.9684C16.6581 11.8308 16.9801 11.2856 16.8424 10.7507C16.2874 8.59442 14.3312 7 12 7C10.8817 7 9.83411 7.36805 8.99002 7.98997L8.35355 7.3535C8.03857 7.03852 7.5 7.26161 7.5 7.70706V9.99995C7.5 10.5522 7.94772 11 8.5 11H10.7929C11.2383 11 11.4614 10.4614 11.1464 10.1464L10.4312 9.43113Z" fill="currentColor" style="fill:currentColor;fill-opacity:1;"/>
<path d="M9.09445 12.7507C8.95679 12.2159 8.41161 11.8939 7.87676 12.0316C7.34191 12.1692 7.01992 12.7144 7.15758 13.2493C7.71258 15.4056 9.66883 17 12 17C13.1186 17 14.1664 16.6316 15.0101 16.01L15.6464 16.6464C15.9614 16.9614 16.5 16.7383 16.5 16.2928V14C16.5 13.4477 16.0523 13 15.5 13H13.2071C12.7617 13 12.5386 13.5385 12.8536 13.8535L13.5689 14.5688C13.1077 14.8426 12.5685 15 12 15C10.6035 15 9.42754 14.0449 9.09445 12.7507Z" fill="currentColor" style="fill:currentColor;fill-opacity:1;"/>
<path d="M5 16C5 15.4477 4.55228 15 4 15C3.44772 15 3 15.4477 3 16V17C3 19.2091 4.79086 21 7 21H8C8.55228 21 9 20.5523 9 20C9 19.4477 8.55228 19 8 19H7C5.89543 19 5 18.1046 5 17V16Z" fill="currentColor" style="fill:currentColor;fill-opacity:1;"/>
<path d="M21 16C21 15.4477 20.5523 15 20 15C19.4477 15 19 15.4477 19 16V17C19 18.1046 18.1046 19 17 19H16C15.4477 19 15 19.4477 15 20C15 20.5523 15.4477 21 16 21H17C19.2091 21 21 19.2091 21 17V16Z" fill="currentColor" style="fill:currentColor;fill-opacity:1;"/>
</svg>
