<svg width="24" height="24" viewBox="0 0 24 24" fill="none" xmlns="http://www.w3.org/2000/svg">
<path fill-rule="evenodd" clip-rule="evenodd" d="M9 3C6.79086 3 5 4.79086 5 7C2.79086 7 1 8.79086 1 11V17C1 19.2091 2.79086 21 5 21H15C17.2091 21 19 19.2091 19 17C21.2091 17 23 15.2091 23 13V9C23 6.79086 21.2091 5 19 5H14.8284C14.5632 5 14.3089 4.89464 14.1213 4.70711L13.2929 3.87868C12.7303 3.31607 11.9672 3 11.1716 3H9ZM19 15C20.1046 15 21 14.1046 21 13V9C21 7.89543 20.1046 7 19 7H14.8284C14.0328 7 13.2697 6.68393 12.7071 6.12132L11.8787 5.29289C11.6911 5.10536 11.4368 5 11.1716 5H9C7.89543 5 7 5.89543 7 7H7.17157C7.96722 7 8.73028 7.31607 9.29289 7.87868L10.1213 8.70711C10.3089 8.89464 10.5632 9 10.8284 9H15C17.2091 9 19 10.7909 19 13V15Z" fill="currentColor" style="fill:currentColor;fill-opacity:1;"/>
</svg>
