<svg width="24" height="24" viewBox="0 0 24 24" fill="none" xmlns="http://www.w3.org/2000/svg">
<path d="M9.4 4.5H9.5H9.6M10 4.5C10 4.77614 9.77614 5 9.5 5C9.22386 5 9 4.77614 9 4.5C9 4.22386 9.22386 4 9.5 4C9.77614 4 10 4.22386 10 4.5Z" stroke="currentColor" stroke-width="2" stroke-linecap="round" stroke-linejoin="round"/>
<path d="M12 19C18 19 20 16 20 16H4C4 16 6 19 12 19Z" stroke="currentColor" stroke-width="2" stroke-linecap="round" stroke-linejoin="round"/>
<path d="M10 20H14" stroke="currentColor" stroke-width="2" stroke-linecap="round" stroke-linejoin="round"/>
<path d="M14.8333 6.83333L16.25 4L17.6667 6.83333L20.5 8.25L17.6667 9.66667L16.25 12.5L14.8333 9.66667L12 8.25L14.8333 6.83333Z" stroke="currentColor" stroke-width="2" stroke-linecap="round" stroke-linejoin="round"/>
<path d="M5.63563 8.96481L6 8.23607L6.36437 8.96481C6.50952 9.2551 6.7449 9.49048 7.03519 9.63563L7.76393 10L7.03519 10.3644C6.7449 10.5095 6.50952 10.7449 6.36437 11.0352L6 11.7639L5.63563 11.0352C5.49048 10.7449 5.2551 10.5095 4.96481 10.3644L4.23607 10L4.96481 9.63563C5.2551 9.49048 5.49048 9.2551 5.63563 8.96481ZM6.44721 7.34164C6.44713 7.34182 6.44704 7.34199 6.44695 7.34217L6.44721 7.34164L6 7.11803L6.44721 7.34164Z" stroke="currentColor" stroke-width="2" stroke-linecap="square" stroke-linejoin="round"/>
</svg>
