<svg width="24" height="24" viewBox="0 0 24 24" fill="none" xmlns="http://www.w3.org/2000/svg">
<path fill-rule="evenodd" clip-rule="evenodd" d="M3 7C3 4.79086 4.79086 3 7 3H17C19.2091 3 21 4.79086 21 7V17C21 19.2091 19.2091 21 17 21H7C4.79086 21 3 19.2091 3 17V7ZM7 16C7 15.4477 7.44772 15 8 15H16C16.5523 15 17 15.4477 17 16C17 16.5523 16.5523 17 16 17H8C7.44772 17 7 16.5523 7 16ZM8 7C7.44772 7 7 7.44772 7 8V10C7 10.5523 7.44772 11 8 11H10C10.5523 11 11 10.5523 11 10V8C11 7.44772 10.5523 7 10 7H8Z" fill="currentColor" style="fill:currentColor;fill-opacity:1;"/>
</svg>
