<svg width="24" height="24" viewBox="0 0 24 24" fill="none" xmlns="http://www.w3.org/2000/svg">
<path d="M7.32567 3.00669C7.32567 2.4866 6.94694 2.05333 6.45457 2.01014L6.37896 2.00351C5.85611 1.95765 5.39693 2.36663 5.35336 2.91701L4.51314 13.5304C4.42032 14.703 4.82262 15.859 5.613 16.691L7.11684 18.274C7.8104 19.0041 8.20005 19.9943 8.20005 21.0268C8.20005 21.5643 8.61399 22.0001 9.12462 22.0001H14.8754C15.386 22.0001 15.8 21.5643 15.8 21.0268C15.8 19.9943 16.1896 19.0041 16.8832 18.274L18.387 16.691C19.1774 15.859 19.5797 14.703 19.4869 13.5304L18.6466 2.91701C18.6031 2.36663 18.1439 1.95765 17.621 2.00351L17.5454 2.01014C17.0531 2.05333 16.6743 2.4866 16.6743 3.00669V12.0399C16.6743 12.5702 16.2659 13.0001 15.7622 13.0001C15.2584 13.0001 14.85 12.5702 14.85 12.0399V3.00006C14.85 2.44777 14.4246 2.00006 13.9 2.00006C13.3753 2.00006 12.95 2.44777 12.95 3.00006V12.0001C12.95 12.5523 12.5247 13.0001 12 13.0001C11.4753 13.0001 11.05 12.5523 11.05 12.0001V3.00006C11.05 2.44777 10.6247 2.00006 10.1 2.00006C9.57536 2.00006 9.15003 2.44777 9.15003 3.00006V12.0399C9.15003 12.5702 8.74164 13.0001 8.23785 13.0001C7.73407 13.0001 7.32567 12.5702 7.32567 12.0399V3.00669Z" fill="currentColor" style="fill:currentColor;fill-opacity:1;"/>
</svg>
