<svg width="24" height="24" viewBox="0 0 24 24" fill="none" xmlns="http://www.w3.org/2000/svg">
<path fill-rule="evenodd" clip-rule="evenodd" d="M12 2C9.92893 2 8.25 3.67893 8.25 5.75C8.25 7.82107 9.92893 9.5 12 9.5C14.0711 9.5 15.75 7.82107 15.75 5.75C15.75 3.67893 14.0711 2 12 2ZM10.25 5.75C10.25 4.7835 11.0335 4 12 4C12.9665 4 13.75 4.7835 13.75 5.75C13.75 6.7165 12.9665 7.5 12 7.5C11.0335 7.5 10.25 6.7165 10.25 5.75Z" fill="currentColor" style="fill:currentColor;fill-opacity:1;"/>
<path d="M2 12C2 9.92893 3.67893 8.25 5.75 8.25C7.82107 8.25 9.5 9.92893 9.5 12C9.5 14.0711 7.82107 15.75 5.75 15.75C3.67893 15.75 2 14.0711 2 12Z" fill="currentColor" style="fill:currentColor;fill-opacity:1;"/>
<path d="M14.5 12C14.5 9.92893 16.1789 8.25 18.25 8.25C20.3211 8.25 22 9.92893 22 12C22 14.0711 20.3211 15.75 18.25 15.75C16.1789 15.75 14.5 14.0711 14.5 12Z" fill="currentColor" style="fill:currentColor;fill-opacity:1;"/>
<path d="M8.25 18.25C8.25 16.1789 9.92893 14.5 12 14.5C14.0711 14.5 15.75 16.1789 15.75 18.25C15.75 20.3211 14.0711 22 12 22C9.92893 22 8.25 20.3211 8.25 18.25Z" fill="currentColor" style="fill:currentColor;fill-opacity:1;"/>
</svg>
