<svg width="24" height="24" viewBox="0 0 24 24" fill="none" xmlns="http://www.w3.org/2000/svg">
<path d="M7 19V15M17 19V15M7 15H17M7 15V14C7 12.3431 8.34315 11 10 11H14C15.6569 11 17 12.3431 17 14V15M4.43565 8.12266L10.4357 4.45599C11.396 3.86912 12.604 3.86912 13.5643 4.45599L19.5643 8.12266C20.4561 8.66763 21 9.6374 21 10.6825V16C21 17.6569 19.6569 19 18 19H6C4.34315 19 3 17.6569 3 16V10.6825C3 9.6374 3.54389 8.66763 4.43565 8.12266Z" stroke="currentColor" stroke-width="2" stroke-linecap="square" stroke-linejoin="round"/>
</svg>
