<svg width="24" height="24" viewBox="0 0 24 24" fill="none" xmlns="http://www.w3.org/2000/svg">
<path fill-rule="evenodd" clip-rule="evenodd" d="M3 7C3 4.79086 4.79086 3 7 3H11C13.2091 3 15 4.79086 15 7V9C17.2091 9 19 10.7909 19 13V15.5C19 15.7761 19.2239 16 19.5 16C19.7761 16 20 15.7761 20 15.5V9.24264C20 8.71221 19.7893 8.2035 19.4142 7.82843L18.2929 6.70711C17.9024 6.31658 17.9024 5.68342 18.2929 5.29289C18.6834 4.90237 19.3166 4.90237 19.7071 5.29289L20.8284 6.41421C21.5786 7.16436 22 8.18177 22 9.24264V15.5C22 16.8807 20.8807 18 19.5 18C18.1193 18 17 16.8807 17 15.5V13C17 11.8954 16.1046 11 15 11V19C15.5523 19 16 19.4477 16 20C16 20.5523 15.5523 21 15 21H3C2.44772 21 2 20.5523 2 20C2 19.4477 2.44772 19 3 19V7ZM6 10C6 9.44772 6.44772 9 7 9H11C11.5523 9 12 9.44772 12 10C12 10.5523 11.5523 11 11 11H7C6.44772 11 6 10.5523 6 10Z" fill="currentColor" style="fill:currentColor;fill-opacity:1;"/>
</svg>
