<svg width="24" height="24" viewBox="0 0 24 24" fill="none" xmlns="http://www.w3.org/2000/svg">
<path fill-rule="evenodd" clip-rule="evenodd" d="M12 4C9.51472 4 7.5 6.01472 7.5 8.5C7.5 10.9853 9.51472 13 12 13C14.4853 13 16.5 10.9853 16.5 8.5C16.5 6.01472 14.4853 4 12 4ZM5.5 8.5C5.5 4.91015 8.41015 2 12 2C15.5899 2 18.5 4.91015 18.5 8.5C18.5 11.7508 16.1136 14.4442 12.9972 14.924C12.999 14.9491 13 14.9744 13 15V17H15C15.5523 17 16 17.4477 16 18C16 18.5523 15.5523 19 15 19H13V21C13 21.5523 12.5523 22 12 22C11.4477 22 11 21.5523 11 21V19H9C8.44772 19 8 18.5523 8 18C8 17.4477 8.44772 17 9 17H11V15C11 14.9744 11.001 14.9491 11.0028 14.924C7.88636 14.4442 5.5 11.7508 5.5 8.5Z" fill="currentColor" style="fill:currentColor;fill-opacity:1;"/>
</svg>
