<svg width="24" height="24" viewBox="0 0 24 24" fill="none" xmlns="http://www.w3.org/2000/svg">
<path fill-rule="evenodd" clip-rule="evenodd" d="M14 4C14 3.44772 14.4477 3 15 3H20C20.5523 3 21 3.44772 21 4V9C21 9.55228 20.5523 10 20 10C19.4477 10 19 9.55228 19 9V6.41421L14.2489 11.1653C15.0356 12.2403 15.5 13.5659 15.5 15C15.5 18.5899 12.5899 21.5 9 21.5C5.41015 21.5 2.5 18.5899 2.5 15C2.5 11.4101 5.41015 8.5 9 8.5C10.4341 8.5 11.7597 8.96443 12.8347 9.7511L17.5858 5H15C14.4477 5 14 4.55228 14 4ZM9 10.5C6.51472 10.5 4.5 12.5147 4.5 15C4.5 17.4853 6.51472 19.5 9 19.5C11.4853 19.5 13.5 17.4853 13.5 15C13.5 12.5147 11.4853 10.5 9 10.5Z" fill="currentColor" style="fill:currentColor;fill-opacity:1;"/>
</svg>
