<svg width="24" height="24" viewBox="0 0 24 24" fill="none" xmlns="http://www.w3.org/2000/svg">
<path d="M2 7.33333C2 5.49238 3.49238 4 5.33333 4H11V9H3.66667C2.74619 9 2 8.25381 2 7.33333Z" fill="currentColor" style="fill:currentColor;fill-opacity:1;"/>
<path d="M3 11H11V20H7C4.79086 20 3 18.2091 3 16V11Z" fill="currentColor" style="fill:currentColor;fill-opacity:1;"/>
<path d="M13 4H18.6667C20.5076 4 22 5.49238 22 7.33333C22 8.25381 21.2538 9 20.3333 9H13V4Z" fill="currentColor" style="fill:currentColor;fill-opacity:1;"/>
<path d="M13 11H21V16C21 18.2091 19.2091 20 17 20H13V11Z" fill="currentColor" style="fill:currentColor;fill-opacity:1;"/>
</svg>
