<svg width="24" height="24" viewBox="0 0 24 24" fill="none" xmlns="http://www.w3.org/2000/svg">
<path d="M11 3H7C4.79086 3 3 4.79086 3 7V11H7.39981C7.14419 10.5 7 9.93348 7 9.33333C7 8.04467 8.04467 7 9.33333 7C9.93348 7 10.5 7.14419 11 7.39981V3Z" fill="currentColor" style="fill:currentColor;fill-opacity:1;"/>
<path d="M3 13V17C3 19.2091 4.79086 21 7 21H11V14.8396C10.2726 15.5833 9.46268 16.2462 8.54227 16.8402C8.07824 17.1397 7.45928 17.0063 7.15979 16.5423C6.86031 16.0782 6.9937 15.4593 7.45773 15.1598C8.42349 14.5365 9.24799 13.8269 9.98093 13H3Z" fill="currentColor" style="fill:currentColor;fill-opacity:1;"/>
<path d="M13 21H17C19.2091 21 21 19.2091 21 17V13H14.0191C14.752 13.8269 15.5765 14.5365 16.5423 15.1598C17.0063 15.4593 17.1397 16.0782 16.8402 16.5423C16.5407 17.0063 15.9218 17.1397 15.4577 16.8402C14.5373 16.2462 13.7274 15.5833 13 14.8396V21Z" fill="currentColor" style="fill:currentColor;fill-opacity:1;"/>
<path d="M21 11V7C21 4.79086 19.2091 3 17 3H13V7.39981C13.5 7.14419 14.0665 7 14.6667 7C15.9553 7 17 8.04467 17 9.33333C17 9.93348 16.8558 10.5 16.6002 11H21Z" fill="currentColor" style="fill:currentColor;fill-opacity:1;"/>
<path d="M9.33333 9C10.2538 9 11 9.74619 11 10.6667V11H10.6667C9.74619 11 9 10.2538 9 9.33333C9 9.14924 9.14924 9 9.33333 9Z" fill="currentColor" style="fill:currentColor;fill-opacity:1;"/>
<path d="M13 10.6667V11H13.3333C14.2538 11 15 10.2538 15 9.33333C15 9.14924 14.8508 9 14.6667 9C13.7462 9 13 9.74619 13 10.6667Z" fill="currentColor" style="fill:currentColor;fill-opacity:1;"/>
</svg>
