<svg width="24" height="24" viewBox="0 0 24 24" fill="none" xmlns="http://www.w3.org/2000/svg">
<path fill-rule="evenodd" clip-rule="evenodd" d="M2 8C2 5.79086 3.79086 4 6 4H14C16.2091 4 18 5.79086 18 8C20.2091 8 22 9.79086 22 12V16C22 18.2091 20.2091 20 18 20H10C7.79086 20 6 18.2091 6 16C3.79086 16 2 14.2091 2 12V8ZM8 16C8 17.1046 8.89543 18 10 18H18C19.1046 18 20 17.1046 20 16V12C20 10.8954 19.1046 10 18 10V12C18 14.2091 16.2091 16 14 16H8ZM6 9C6 8.44772 6.44772 8 7 8H8C8.55228 8 9 8.44772 9 9C9 9.55228 8.55228 10 8 10H7C6.44772 10 6 9.55228 6 9Z" fill="currentColor" style="fill:currentColor;fill-opacity:1;"/>
</svg>
