<svg width="24" height="24" viewBox="0 0 24 24" fill="none" xmlns="http://www.w3.org/2000/svg">
<path d="M6.5 8C7.88071 8 9 6.88071 9 5.5C9 4.11929 7.88071 3 6.5 3C5.11929 3 4 4.11929 4 5.5C4 6.88071 5.11929 8 6.5 8ZM6.5 8V9.25C6.5 10.7688 7.73122 12 9.25 12C10.7688 12 12 13.2312 12 14.75M17.5 8C18.8807 8 20 6.88071 20 5.5C20 4.11929 18.8807 3 17.5 3C16.1193 3 15 4.11929 15 5.5C15 6.88071 16.1193 8 17.5 8ZM17.5 8V9.25C17.5 10.7688 16.2688 12 14.75 12C13.2312 12 12 13.2312 12 14.75M12 16C10.6193 16 9.5 17.1193 9.5 18.5C9.5 19.8807 10.6193 21 12 21C13.3807 21 14.5 19.8807 14.5 18.5C14.5 17.1193 13.3807 16 12 16ZM12 16V14.75" stroke="currentColor" style="stroke:currentColor;stroke-opacity:1;" stroke-width="2"/>
</svg>
