<svg width="24" height="24" viewBox="0 0 24 24" fill="none" xmlns="http://www.w3.org/2000/svg">
  <path
    d="M12.0459 1.00011C9.42646 0.988461 6.88893 1.91219 4.89002 3.60504C2.8911 5.29788 1.5621 7.64865 1.14222 10.2342C0.722345 12.8198 1.23918 15.4703 2.59968 17.7087C3.96019 19.947 6.07502 21.6263 8.5635 22.4441C9.11334 22.5358 9.29663 22.1692 9.29663 21.8943V20.0615C6.27247 20.7029 5.63098 18.5952 5.63098 18.5952C5.08114 17.3122 4.34801 16.9457 4.34801 16.9457C3.4316 16.3042 4.43965 16.3042 4.43965 16.3042C5.53934 16.3042 6.18083 17.4039 6.18083 17.4039C7.09724 19.0534 8.74678 18.5952 9.38827 18.3203C9.47991 17.5871 9.75483 17.1289 10.1214 16.854C7.64709 16.5791 5.08114 15.6627 5.08114 11.4472C5.08114 10.2559 5.53934 9.24781 6.18083 8.51468C5.99755 8.23976 5.72262 7.2317 6.27247 5.85709C6.27247 5.85709 7.18888 5.58216 9.29663 6.95678C11.0972 6.47023 12.9946 6.47023 14.7951 6.95678C16.9028 5.58216 17.8192 5.85709 17.8192 5.85709C18.3691 7.2317 18.0942 8.23976 17.9109 8.51468C18.644 9.24781 19.0106 10.2559 19.0106 11.4472C19.0106 15.6627 16.4446 16.5791 13.9703 16.854C14.3369 17.2206 14.7035 17.8621 14.7035 18.8701V21.8943C14.7035 22.1692 14.8867 22.5358 15.4366 22.4441C17.9176 21.6287 20.0274 19.957 21.3884 17.7282C22.7495 15.4994 23.2729 12.8589 22.865 10.2795C22.4572 7.69998 21.1446 5.34984 19.1623 3.64967C17.18 1.9495 14.6574 1.01028 12.0459 1.00011Z"
    fill="currentColor" />
</svg>
