<svg width="24" height="24" viewBox="0 0 24 24" fill="none" xmlns="http://www.w3.org/2000/svg">
  <path
    d="M12.643 10.679L15.343 7.786L4.864 2.129C4.8 2.064 4.671 2.064 4.48 2L12.644 10.679H12.643ZM16.5 14.857L20.293 12.8C20.743 12.543 21 12.157 21 11.643C21 11.129 20.743 10.679 20.293 10.486L16.5 8.429L13.479 11.643L16.5 14.857ZM3.257 2.579C3.064 2.771 3 3.029 3 3.286V20C3 20.257 3.064 20.514 3.257 20.771L11.743 11.643L3.257 2.579ZM12.643 12.607L4.479 21.286C4.607 21.286 4.736 21.221 4.864 21.157L15.343 15.5L12.643 12.607Z"
    fill="currentColor" />
</svg>
