<svg width="24" height="24" viewBox="0 0 24 24" fill="none" xmlns="http://www.w3.org/2000/svg">
<path d="M18.0017 19H18.9283C20.6682 19 22.1305 17.4568 21.352 15.9008C20.1918 13.5823 17.9935 12.6536 16.0017 13.1147M11.0017 7C11.0017 8.65685 9.65859 10 8.00174 10C6.34489 10 5.00174 8.65685 5.00174 7C5.00174 5.34315 6.34489 4 8.00174 4C9.65859 4 11.0017 5.34315 11.0017 7ZM19.5017 7.5C19.5017 8.88071 18.3825 10 17.0017 10C15.621 10 14.5017 8.88071 14.5017 7.5C14.5017 6.11929 15.621 5 17.0017 5C18.3825 5 19.5017 6.11929 19.5017 7.5ZM10.7828 20H5.22066C3.48074 20 2.03609 18.4769 2.70657 16.8713C4.86215 11.7096 11.1413 11.7096 13.2969 16.8713C13.9674 18.4769 12.5227 20 10.7828 20Z" stroke="currentColor" stroke-width="2" stroke-linecap="round" stroke-linejoin="round"/>
</svg>
