<svg width="24" height="24" viewBox="0 0 24 24" fill="none" xmlns="http://www.w3.org/2000/svg">
<path fill-rule="evenodd" clip-rule="evenodd" d="M3 4C3.55228 4 4 4.44772 4 5V11H12V5C12 4.44772 12.4477 4 13 4C13.5523 4 14 4.44772 14 5V19C14 19.5523 13.5523 20 13 20C12.4477 20 12 19.5523 12 19V13H4V19C4 19.5523 3.55228 20 3 20C2.44772 20 2 19.5523 2 19V5C2 4.44772 2.44772 4 3 4ZM21.4242 10.0944C21.7755 10.259 22 10.612 22 11V19C22 19.5523 21.5523 20 21 20C20.4477 20 20 19.5523 20 19V13.135L18.6402 14.2682C18.2159 14.6218 17.5853 14.5645 17.2318 14.1402C16.8782 13.7159 16.9355 13.0853 17.3598 12.7318L20.3598 10.2318C20.6579 9.98338 21.0728 9.92983 21.4242 10.0944Z" fill="currentColor" style="fill:currentColor;fill-opacity:1;"/>
</svg>
