<svg width="24" height="24" viewBox="0 0 24 24" fill="none" xmlns="http://www.w3.org/2000/svg">
<path fill-rule="evenodd" clip-rule="evenodd" d="M3 4C3.55228 4 4 4.44772 4 5V11H12V5C12 4.44772 12.4477 4 13 4C13.5523 4 14 4.44772 14 5V19C14 19.5523 13.5523 20 13 20C12.4477 20 12 19.5523 12 19V13H4V19C4 19.5523 3.55228 20 3 20C2.44772 20 2 19.5523 2 19V5C2 4.44772 2.44772 4 3 4ZM20 12C19.6311 12 19.3076 12.1992 19.1332 12.5007C18.8566 12.9788 18.2449 13.1421 17.7668 12.8656C17.2888 12.5891 17.1254 11.9773 17.402 11.4993C17.9192 10.6052 18.8883 10 20 10C21.6569 10 23 11.3431 23 13V13.2396C23 13.9635 22.7382 14.6627 22.2636 15.2084L20.0621 18H22C22.5523 18 23 18.4477 23 19C23 19.5523 22.5523 20 22 20H18C17.6169 20 17.2674 19.7811 17.1002 19.4363C16.933 19.0916 16.9775 18.6816 17.2148 18.3808L20.7096 13.9491C20.7218 13.9337 20.7344 13.9186 20.7474 13.904C20.9101 13.7209 21 13.4845 21 13.2396V13C21 12.4477 20.5523 12 20 12Z" fill="currentColor" style="fill:currentColor;fill-opacity:1;"/>
</svg>
