<svg width="24" height="24" viewBox="0 0 24 24" fill="none" xmlns="http://www.w3.org/2000/svg">
<path d="M13.969 3.29814L14 3.23607L14.031 3.29814C14.1762 3.58843 14.4116 3.82382 14.7019 3.96896L14.7639 4L14.7019 4.03104C14.4116 4.17618 14.1762 4.41157 14.031 4.70186L14 4.76393L13.969 4.70186C13.8238 4.41157 13.5884 4.17618 13.2981 4.03104L13.2361 4L13.2981 3.96896C13.5884 3.82382 13.8238 3.58843 13.969 3.29814Z" stroke="currentColor" stroke-width="2" stroke-linecap="square" stroke-linejoin="round"/>
<path d="M9 4.693C9.08574 4.81067 9.18933 4.91426 9.307 5C9.18933 5.08574 9.08574 5.18933 9 5.307C8.91426 5.18933 8.81067 5.08574 8.693 5C8.81067 4.91426 8.91426 4.81067 9 4.693Z" stroke="currentColor" stroke-width="2" stroke-linecap="square" stroke-linejoin="round"/>
<path d="M18 13V17.9994C18 19.2029 17.282 20.3109 16.1078 20.5748C14.9071 20.8448 13.5019 21 12 21C10.4981 21 9.09291 20.8448 7.89219 20.5748C6.718 20.3109 6 19.2029 6 17.9994V13" stroke="currentColor" stroke-width="2" stroke-linecap="round" stroke-linejoin="round"/>
<path d="M20 11C20 12.1046 16.4183 13 12 13C7.58172 13 4 12.1046 4 11C4 9.89543 7.58172 9 12 9C16.4183 9 20 9.89543 20 11Z" stroke="currentColor" stroke-width="2"/>
</svg>
