<svg width="25" height="24" viewBox="0 0 25 24" fill="none" xmlns="http://www.w3.org/2000/svg">
<path fill-rule="evenodd" clip-rule="evenodd" d="M8.20713 3.15018C8.37825 3.34731 8.58958 3.67913 8.81414 4.16703C9.3079 5.23983 9.76176 6.83756 10.0273 8.70087C10.1416 9.50314 10.21 10.278 10.2369 11H8.28112C8.1618 10.464 8.0575 9.89394 7.97274 9.29905C7.70745 7.43726 7.69112 5.73775 7.86037 4.50773C7.9458 3.88685 8.07156 3.43845 8.20254 3.15986C8.20408 3.15659 8.20561 3.15336 8.20713 3.15018ZM6.23659 11C6.14406 10.5429 6.06219 10.0686 5.99274 9.58119C5.70826 7.58477 5.67846 5.69279 5.87903 4.2351C5.97851 3.51214 6.14166 2.84263 6.39262 2.30888C6.62499 1.81466 7.04819 1.1992 7.79138 1.03704C8.57418 0.866238 9.20207 1.29972 9.58592 1.69559C9.98931 2.11161 10.336 2.68996 10.6309 3.33084C11.2276 4.62714 11.723 6.42383 12.0073 8.41873C12.1346 9.31262 12.2105 10.1826 12.2381 11H13.2516C13.2662 8.04882 13.4344 5.6493 15.5421 3.54269C16.4831 2.60216 17.7639 2.80937 18.6646 3.17498C19.6131 3.55999 20.5497 4.26108 21.269 4.98041C21.6337 5.34511 21.9626 5.73442 22.221 6.11921C22.4694 6.48905 22.6966 6.91911 22.7844 7.3587C22.8742 7.8078 22.8426 8.48704 22.2448 8.93799C21.7502 9.31102 21.1204 9.31209 20.6168 9.24124L19.5409 9.10668C19.4066 9.68216 19.2218 10.3207 18.9283 11H21.75C22.3023 11 22.75 11.4477 22.75 12C22.75 12.5522 22.3023 13 21.75 13H20.75V18C20.75 20.2091 18.9591 22 16.75 22H8.75C6.54086 22 4.75 20.2091 4.75 18V13H3.75C3.19772 13 2.75 12.5522 2.75 12C2.75 11.4477 3.19772 11 3.75 11H6.23659ZM16.6944 11C17.3583 9.84787 17.5803 8.7849 17.7681 7.81067C17.8678 7.29353 18.3515 6.94235 18.8741 7.00771L20.5492 7.2172C20.3769 6.9637 20.1398 6.67969 19.8547 6.39456C19.2616 5.8014 18.5421 5.28374 17.9124 5.02812C17.2349 4.75311 17.0154 4.89781 16.9559 4.95726C15.4569 6.45556 15.276 8.06688 15.2533 11H16.6944Z" fill="currentColor" style="fill:currentColor;fill-opacity:1;"/>
</svg>
