<svg width="25" height="24" viewBox="0 0 25 24" fill="none" xmlns="http://www.w3.org/2000/svg">
<path fill-rule="evenodd" clip-rule="evenodd" d="M6.03975 11C6.33249 10.8539 6.76319 10.6991 7.33568 10.5559C8.68329 10.219 10.598 10 12.75 10C14.902 10 16.8167 10.219 18.1643 10.5559C18.7368 10.6991 19.1675 10.8539 19.4602 11C19.1675 11.1461 18.7368 11.3009 18.1643 11.4441C16.8167 11.781 14.902 12 12.75 12C10.598 12 8.68329 11.781 7.33568 11.4441C6.76319 11.3009 6.33249 11.1461 6.03975 11ZM6.85061 8.61564C8.39843 8.22869 10.4837 8 12.75 8C15.0163 8 17.1016 8.22869 18.6494 8.61564C19.4156 8.8072 20.1066 9.0512 20.6301 9.36064C21.0867 9.63052 21.75 10.152 21.75 11C21.75 11.848 21.0867 12.3695 20.6301 12.6394C20.3734 12.7911 20.0764 12.9271 19.75 13.0489V17.9994C19.75 19.5676 18.8013 21.1629 17.0772 21.5505C15.7972 21.8383 14.3178 22 12.75 22C11.1822 22 9.70281 21.8383 8.42283 21.5505C6.69871 21.1629 5.75 19.5676 5.75 17.9994V13.0489C5.4236 12.9271 5.12659 12.7911 4.86985 12.6394C4.41326 12.3695 3.75 11.848 3.75 11C3.75 10.152 4.41326 9.63052 4.86985 9.36064C5.39339 9.0512 6.08439 8.8072 6.85061 8.61564Z" fill="currentColor" style="fill:currentColor;fill-opacity:1;"/>
<path d="M13.8247 2.85081L14.303 1.89431C14.4872 1.52579 15.0132 1.52579 15.1974 1.89431L15.6757 2.85081C15.724 2.94758 15.8025 3.02604 15.8993 3.07442L16.8558 3.55267C17.2243 3.73693 17.2243 4.26284 16.8558 4.4471L15.8993 4.92535C15.8025 4.97373 15.724 5.05219 15.6757 5.14896L15.1974 6.10546C15.0132 6.47398 14.4873 6.47398 14.303 6.10546L13.8247 5.14896C13.7764 5.05219 13.6979 4.97373 13.6011 4.92535L12.6446 4.4471C12.2761 4.26284 12.2761 3.73693 12.6446 3.55267L13.6011 3.07442C13.6979 3.02604 13.7764 2.94758 13.8247 2.85081Z" fill="currentColor" style="fill:currentColor;fill-opacity:1;"/>
<path d="M8.9765 4.0473L9.39243 3.21543C9.53984 2.92061 9.96056 2.92061 10.108 3.21543L10.5239 4.0473C10.5626 4.12471 10.6254 4.18748 10.7028 4.22618L11.5347 4.64212C11.8295 4.78952 11.8295 5.21025 11.5347 5.35766L10.7028 5.77359C10.6254 5.8123 10.5626 5.87507 10.5239 5.95248L10.108 6.78434C9.96056 7.07916 9.53984 7.07916 9.39243 6.78434L8.9765 5.95248C8.93779 5.87507 8.87502 5.8123 8.79761 5.77359L7.96574 5.35766C7.67092 5.21025 7.67092 4.78952 7.96574 4.64211L8.79761 4.22618C8.87502 4.18748 8.93779 4.12471 8.9765 4.0473Z" fill="currentColor" style="fill:currentColor;fill-opacity:1;"/>
</svg>
