<svg width="24" height="24" viewBox="0 0 24 24" fill="none" xmlns="http://www.w3.org/2000/svg">
<path d="M15.3984 13.8545H14.749V10.0996H15.3984C16.3896 10.0996 16.9756 10.7393 16.9756 11.9258C16.9756 13.2246 16.4336 13.8545 15.3984 13.8545Z" fill="currentColor" style="fill:currentColor;fill-opacity:1;"/>
<path fill-rule="evenodd" clip-rule="evenodd" d="M2 8C2 5.79086 3.79086 4 6 4H18C20.2091 4 22 5.79086 22 8V16C22 18.2091 20.2091 20 18 20H6C3.79086 20 2 18.2091 2 16V8ZM5.08105 14.5381C5.08105 15.2314 5.45703 15.6221 6.11621 15.6221C6.77539 15.6221 7.15137 15.2314 7.15137 14.5381V12.7754H9.63184V14.5381C9.63184 15.2314 10.0078 15.6221 10.667 15.6221C11.3262 15.6221 11.7021 15.2314 11.7021 14.5381V9.41602C11.7021 8.72266 11.3262 8.33203 10.667 8.33203C10.0078 8.33203 9.63184 8.72266 9.63184 9.41602V11.1299H7.15137V9.41602C7.15137 8.72266 6.77539 8.33203 6.11621 8.33203C5.45703 8.33203 5.08105 8.72266 5.08105 9.41602V14.5381ZM12.6787 14.416C12.6787 15.1094 13.0547 15.5 13.7139 15.5H15.6914C17.8252 15.5 19.085 14.1816 19.085 11.9258C19.085 9.66992 17.8301 8.4541 15.6914 8.4541H13.7139C13.0547 8.4541 12.6787 8.84473 12.6787 9.53809V14.416Z" fill="currentColor" style="fill:currentColor;fill-opacity:1;"/>
</svg>
