<svg width="24" height="24" viewBox="0 0 24 24" fill="none" xmlns="http://www.w3.org/2000/svg">
<path d="M11 2C6.58172 2 3 5.58172 3 10C3 11.8604 3.63624 13.5749 4.70231 14.934C5.90057 16.4615 6.00385 17.9415 6.00265 19.9992C6.00201 21.1009 6.89217 22 8 22H13C14.1046 22 15 21.1046 15 20C15 19.4477 15.4477 19 16 19C17.6569 19 19 17.6569 19 16V14.0662L20.1152 13.3971C21.0914 12.8113 21.3928 11.5149 20.7269 10.5618C20.6536 10.4569 20.5815 10.3541 20.5106 10.253C19.6786 9.06637 19.0161 8.12164 18.4868 6.76847C17.2219 3.5352 14.1621 2 11 2Z" fill="currentColor" style="fill:currentColor;fill-opacity:1;"/>
</svg>
