<svg width="24" height="24" viewBox="0 0 24 24" fill="none" xmlns="http://www.w3.org/2000/svg">
<path d="M3.33782 7C2.97522 7.62683 2.6787 8.29667 2.4578 9H11C11.5523 9 12 9.44772 12 10C12 10.5523 11.5523 11 11 11H2.04938C2.01672 11.3289 2 11.6625 2 12C2 12.3375 2.01672 12.6711 2.04938 13H11C11.5523 13 12 13.4477 12 14C12 14.5523 11.5523 15 11 15H2.4578C2.6787 15.7033 2.97522 16.3732 3.33782 17H11C11.5523 17 12 17.4477 12 18C12 18.5523 11.5523 19 11 19H4.85857C6.67349 20.8514 9.20261 22 12 22C17.5228 22 22 17.5228 22 12C22 6.47715 17.5228 2 12 2C9.20261 2 6.67349 3.14864 4.85857 5H11C11.5523 5 12 5.44772 12 6C12 6.55228 11.5523 7 11 7H3.33782Z" fill="currentColor" style="fill:currentColor;fill-opacity:1;"/>
</svg>
