<svg width="24" height="24" viewBox="0 0 24 24" fill="none" xmlns="http://www.w3.org/2000/svg">
<path d="M14.5224 2.26078C13.0528 1.06672 10.9472 1.06672 9.47763 2.26078L4.47763 6.32328C3.54279 7.08284 3 8.22322 3 9.42774V16.9998C3 19.209 4.79086 20.9998 7 20.9998H8V16C8 13.7909 9.79086 12 12 12C14.2091 12 16 13.7909 16 16V20.9998H17C19.2091 20.9998 21 19.209 21 16.9998V9.42774C21 8.22322 20.4572 7.08284 19.5224 6.32328L14.5224 2.26078Z" fill="currentColor" style="fill:currentColor;fill-opacity:1;"/>
<path d="M14 20.9998V16C14 14.8954 13.1046 14 12 14C10.8954 14 10 14.8954 10 16V20.9998H14Z" fill="currentColor" style="fill:currentColor;fill-opacity:1;"/>
</svg>
