<svg width="24" height="24" viewBox="0 0 24 24" fill="none" xmlns="http://www.w3.org/2000/svg">
<path d="M12.4921 1.79131C12.1692 1.70937 11.831 1.70937 11.5081 1.79131C11.1338 1.88631 10.8131 2.11797 10.5575 2.30261L10.4866 2.35369L1.91796 8.48811C1.4689 8.8096 1.36548 9.43427 1.68697 9.88333C2.00846 10.3324 2.63313 10.4358 3.08219 10.1143L4.00009 9.45718L4.00009 15.2413C4.00008 16.0463 4.00007 16.7106 4.04428 17.2518C4.09021 17.8139 4.18877 18.3306 4.43606 18.816C4.81956 19.5686 5.43148 20.1805 6.18413 20.564C6.66946 20.8113 7.18617 20.9099 7.74826 20.9558C8.28945 21 8.95381 21 9.75877 21H14.2414C15.0464 21 15.7107 21 16.2519 20.9558C16.814 20.9099 17.3307 20.8113 17.8161 20.564C18.5687 20.1805 19.1806 19.5686 19.5641 18.816C19.8114 18.3306 19.91 17.8139 19.9559 17.2518C20.0001 16.7106 20.0001 16.0463 20.0001 15.2413V9.45718L20.918 10.1143C21.3671 10.4358 21.9917 10.3324 22.3132 9.88333C22.6347 9.43427 22.5313 8.8096 22.0822 8.48811L13.5136 2.35369L13.4427 2.30261C13.1871 2.11797 12.8664 1.88631 12.4921 1.79131Z" fill="currentColor" style="fill:currentColor;fill-opacity:1;"/>
</svg>
