<svg width="24" height="24" viewBox="0 0 24 24" fill="none" xmlns="http://www.w3.org/2000/svg">
<path fill-rule="evenodd" clip-rule="evenodd" d="M7.12203 5H16.878C16.5224 4.38385 15.8633 4 15.1459 4H8.8541C8.1367 4 7.4776 4.38385 7.12203 5ZM19.1624 5.08869L18.7236 4.21115C18.046 2.85601 16.661 2 15.1459 2H8.8541C7.33901 2 5.95396 2.85601 5.27639 4.21115L4.83762 5.08869C3.77837 5.379 3 6.3486 3 7.5C3 8.29183 3.36813 8.99768 3.94257 9.45574L4.88879 18.4199C5.10363 20.4552 6.8201 22 8.86669 22H15.1334C17.1799 22 18.8964 20.4552 19.1113 18.4199L20.0575 9.45571C20.6319 8.99766 21 8.29182 21 7.5C21 6.3486 20.2216 5.379 19.1624 5.08869ZM5.5 7C5.22386 7 5 7.22386 5 7.5C5 7.77614 5.22386 8 5.5 8H18.5C18.7761 8 19 7.77614 19 7.5C19 7.22386 18.7761 7 18.5 7H5.5Z" fill="currentColor" style="fill:currentColor;fill-opacity:1;"/>
</svg>
