<svg width="24" height="24" viewBox="0 0 24 24" fill="none" xmlns="http://www.w3.org/2000/svg">
<path d="M13.2275 8.40625L14.2568 8.66309C14.5246 8.73004 14.6879 9.0017 14.6211 9.26953L14.3789 10.2393C14.3118 10.507 14.0403 10.6695 13.7725 10.6025L12.7432 10.3457C12.4754 10.2787 12.3121 10.0071 12.3789 9.73926L12.6211 8.76953C12.6882 8.50178 12.9597 8.33929 13.2275 8.40625Z" fill="currentColor"/>
<path d="M6.41602 7.22754C6.64578 7.07436 6.9562 7.13645 7.10938 7.36621L7.55469 8.0332C7.70786 8.26297 7.64578 8.57436 7.41602 8.72754L6.58398 9.28125C6.35422 9.43443 6.0438 9.37234 5.89062 9.14258L5.44531 8.47559C5.29214 8.24582 5.35422 7.93443 5.58398 7.78125L6.41602 7.22754Z" fill="currentColor"/>
<path d="M16.2773 7.08887C16.4305 6.8591 16.7409 6.79702 16.9707 6.9502L17.6387 7.39453C17.8684 7.54771 17.9305 7.8591 17.7773 8.08887L17.2227 8.91992C17.0695 9.14969 16.7591 9.21177 16.5293 9.05859L15.8613 8.61426C15.6316 8.46108 15.5695 8.14969 15.7227 7.91992L16.2773 7.08887Z" fill="currentColor"/>
<path d="M10.6055 6.33301C10.8523 6.20968 11.1528 6.30995 11.2764 6.55664L11.7236 7.45215C11.8468 7.69903 11.7468 7.99859 11.5 8.12207L10.3945 8.67578C10.1477 8.79911 9.84721 8.69884 9.72363 8.45215L9.27637 7.55664C9.15316 7.30976 9.25323 7.0102 9.5 6.88672L10.6055 6.33301Z" fill="currentColor"/>
<path fill-rule="evenodd" clip-rule="evenodd" d="M12 3.5C14.8561 3.5 17.4877 3.96132 19.4424 4.74316C20.4169 5.13298 21.2729 5.62243 21.9014 6.2168C22.5319 6.81313 23 7.58426 23 8.5V9.5C23 15.5751 18.0751 20.5 12 20.5C5.92487 20.5 1 15.5751 1 9.5V8.5C1 7.58426 1.46815 6.81313 2.09863 6.2168C2.72712 5.62243 3.58307 5.13298 4.55762 4.74316C6.51226 3.96132 9.14394 3.5 12 3.5ZM12 5.5C9.33352 5.5 6.9654 5.93388 5.30078 6.59961C4.46568 6.93365 3.85623 7.30718 3.47266 7.66992C3.09148 8.03052 3 8.31134 3 8.5C3 8.68866 3.09148 8.96948 3.47266 9.33008C3.85623 9.69282 4.46568 10.0664 5.30078 10.4004C6.9654 11.0661 9.33352 11.5 12 11.5C14.6665 11.5 17.0346 11.0661 18.6992 10.4004C19.5343 10.0664 20.1438 9.69282 20.5273 9.33008C20.9085 8.96948 21 8.68866 21 8.5C21 8.31134 20.9085 8.03052 20.5273 7.66992C20.1438 7.30718 19.5343 6.93365 18.6992 6.59961C17.0346 5.93388 14.6665 5.5 12 5.5Z" fill="currentColor"/>
</svg>
