<svg width="25" height="24" viewBox="0 0 25 24" fill="none" xmlns="http://www.w3.org/2000/svg">
<path d="M19.6972 1.89431C19.513 1.52579 18.987 1.52579 18.8028 1.89431L17.8245 3.85082C17.7762 3.94758 17.6977 4.02604 17.6009 4.07442L15.6444 5.05267C15.2759 5.23693 15.2759 5.76284 15.6444 5.9471L17.6009 6.92535C17.6977 6.97373 17.7762 7.05219 17.8245 7.14896L18.8028 9.10546C18.987 9.47398 19.513 9.47398 19.6972 9.10546L20.6755 7.14896C20.7238 7.05219 20.8023 6.97373 20.8991 6.92535L22.8556 5.9471C23.2241 5.76284 23.2241 5.23693 22.8556 5.05267L20.8991 4.07442C20.8023 4.02604 20.7238 3.94758 20.6755 3.85082L19.6972 1.89431Z" fill="currentColor" style="fill:currentColor;fill-opacity:1;"/>
<path fill-rule="evenodd" clip-rule="evenodd" d="M5.75 6.99989C5.75 5.89532 6.64543 4.99989 7.75 4.99989H11.75C12.3023 4.99989 12.75 4.55217 12.75 3.99989C12.75 3.4476 12.3023 2.99989 11.75 2.99989H7.75C5.54086 2.99989 3.75 4.79075 3.75 6.99989V16.9999C3.75 19.209 5.54086 20.9999 7.75 20.9999H17.75C19.9591 20.9999 21.75 19.209 21.75 16.9999V12.9999C21.75 12.4476 21.3023 11.9999 20.75 11.9999C20.1977 11.9999 19.75 12.4476 19.75 12.9999V16.9999C19.75 18.1045 18.8546 18.9999 17.75 18.9999H17.65C17.1867 16.7176 15.169 14.9999 12.75 14.9999C10.331 14.9999 8.31329 16.7176 7.85002 18.9999H7.75C6.64543 18.9999 5.75 18.1045 5.75 16.9999V6.99989Z" fill="currentColor" style="fill:currentColor;fill-opacity:1;"/>
<path d="M12.75 7.49976C11.0931 7.49976 9.75 8.8429 9.75 10.4998C9.75 12.1566 11.0931 13.4998 12.75 13.4998C14.4069 13.4998 15.75 12.1566 15.75 10.4998C15.75 8.8429 14.4069 7.49976 12.75 7.49976Z" fill="currentColor" style="fill:currentColor;fill-opacity:1;"/>
</svg>
