<svg width="24" height="24" viewBox="0 0 24 24" fill="none" xmlns="http://www.w3.org/2000/svg">
<path fill-rule="evenodd" clip-rule="evenodd" d="M9 3C7.067 3 5.5 4.567 5.5 6.5C5.5 8.433 7.067 10 9 10C10.933 10 12.5 8.433 12.5 6.5C12.5 4.567 10.933 3 9 3ZM7.5 6.5C7.5 5.67157 8.17157 5 9 5C9.82843 5 10.5 5.67157 10.5 6.5C10.5 7.32843 9.82843 8 9 8C8.17157 8 7.5 7.32843 7.5 6.5Z" fill="currentColor" style="fill:currentColor;fill-opacity:1;"/>
<path d="M12.8682 10.0002C13.9133 8.54862 16.1003 8.63227 17.0315 10.1594L20.7137 16.1983C21.7295 17.8642 20.5304 19.9998 18.5792 19.9998H5.52367C3.53703 19.9998 2.34406 17.7944 3.43125 16.1317L5.30837 13.2608C6.08605 12.0714 7.6975 11.7686 8.85389 12.5946L9.86596 13.3175C10.0901 13.4776 10.4014 13.4263 10.5623 13.2028L12.8682 10.0002Z" fill="currentColor" style="fill:currentColor;fill-opacity:1;"/>
</svg>
