<svg width="24" height="24" viewBox="0 0 24 24" fill="none" xmlns="http://www.w3.org/2000/svg">
<path d="M17.5 9C17.5 10.3807 16.3807 11.5 15 11.5C13.6193 11.5 12.5 10.3807 12.5 9C12.5 7.61929 13.6193 6.5 15 6.5C16.3807 6.5 17.5 7.61929 17.5 9Z" fill="currentColor" style="fill:currentColor;fill-opacity:1;"/>
<path fill-rule="evenodd" clip-rule="evenodd" d="M7 3H16.99C19.2 3 20.99 4.79 20.99 7V17C20.99 19.21 19.2 21 16.99 21H7C4.79 21 3 19.21 3 17V7C3 4.79 4.79 3 7 3ZM17 5H7V5.01C5.9 5.01 5 5.91 5 7.01V12.22L6.27 11.27L6.29 11.25C7.51 10.43 9.15 10.62 10.15 11.7C11.62 13.28 13.09 14.45 15 14.45C16.7 14.45 17.86 13.89 19 12.83V7C19 5.9 18.1 5 17 5Z" fill="currentColor" style="fill:currentColor;fill-opacity:1;"/>
</svg>
