<svg width="24" height="24" viewBox="0 0 24 24" fill="none" xmlns="http://www.w3.org/2000/svg">
<path fill-rule="evenodd" clip-rule="evenodd" d="M18.048 3.66365C18.51 3.96632 18.6391 4.58618 18.3365 5.04814L11.7847 15.0481C11.6118 15.3121 11.3244 15.4789 11.0094 15.4982C10.6945 15.5175 10.3889 15.387 10.185 15.1462L6.73671 11.0721C6.3799 10.6505 6.43239 10.0195 6.85395 9.66274C7.27551 9.30594 7.90649 9.35843 8.2633 9.77999L10.846 12.8314L16.6635 3.95209C16.9662 3.49012 17.5861 3.36099 18.048 3.66365ZM4 14.0001C4.55229 14.0001 5 14.4478 5 15.0001V15.2001C5 16.0567 5.00078 16.639 5.03755 17.0891C5.07337 17.5275 5.1383 17.7517 5.21799 17.9081C5.40973 18.2844 5.7157 18.5904 6.09202 18.7821C6.24842 18.8618 6.47262 18.9267 6.91104 18.9626C7.36113 18.9993 7.94342 19.0001 8.8 19.0001H15.2C16.0566 19.0001 16.6389 18.9993 17.089 18.9626C17.5274 18.9267 17.7516 18.8618 17.908 18.7821C18.2843 18.5904 18.5903 18.2844 18.782 17.9081C18.8617 17.7517 18.9266 17.5275 18.9624 17.0891C18.9992 16.639 19 16.0567 19 15.2001V15.0001C19 14.4478 19.4477 14.0001 20 14.0001C20.5523 14.0001 21 14.4478 21 15.0001V15.2414C21 16.0464 21 16.7107 20.9558 17.2519C20.9099 17.814 20.8113 18.3307 20.564 18.8161C20.1805 19.5687 19.5686 20.1806 18.816 20.5641C18.3306 20.8114 17.8139 20.91 17.2518 20.9559C16.7106 21.0001 16.0463 21.0001 15.2413 21.0001H8.75868C7.95372 21.0001 7.28936 21.0001 6.74817 20.9559C6.18608 20.91 5.66937 20.8114 5.18404 20.5641C4.43139 20.1806 3.81947 19.5687 3.43597 18.8161C3.18868 18.3307 3.09012 17.814 3.04419 17.2519C2.99998 16.7107 2.99999 16.0464 3 15.2414L3 15.0001C3 14.4478 3.44772 14.0001 4 14.0001Z" fill="currentColor" style="fill:currentColor;fill-opacity:1;"/>
</svg>
