<svg width="24" height="24" viewBox="0 0 24 24" fill="none" xmlns="http://www.w3.org/2000/svg">
  <path
    d="M12 3.803C14.67 3.803 14.987 3.813 16.042 3.861C18.752 3.984 20.017 5.27 20.141 7.96C20.189 9.014 20.198 9.33 20.198 12C20.198 14.672 20.188 14.988 20.141 16.042C20.017 18.729 18.754 20.017 16.041 20.141C14.987 20.189 14.671 20.199 12 20.199C9.33 20.199 9.013 20.189 7.96 20.141C5.242 20.017 3.983 18.725 3.86 16.041C3.812 14.987 3.802 14.671 3.802 12C3.802 9.33 3.812 9.014 3.86 7.96C3.984 5.27 5.247 3.983 7.96 3.86C9.014 3.813 9.33 3.803 12 3.803ZM12 2C9.284 2 8.944 2.012 7.878 2.06C4.246 2.227 2.228 4.242 2.061 7.877C2.01 8.944 2 9.284 2 12C2 14.716 2.012 15.057 2.06 16.123C2.227 19.755 4.242 21.773 7.877 21.94C8.944 21.988 9.284 22 12 22C14.716 22 15.057 21.988 16.123 21.94C19.752 21.773 21.775 19.758 21.939 16.123C21.989 15.057 22 14.716 22 12C22 9.284 21.988 8.944 21.94 7.878C21.777 4.249 19.76 2.228 16.124 2.061C15.057 2.01 14.716 2 12 2ZM12 6.865C11.3257 6.865 10.6579 6.99782 10.0349 7.25588C9.41191 7.51394 8.84584 7.89218 8.36901 8.36901C7.89218 8.84584 7.51394 9.41191 7.25588 10.0349C6.99782 10.6579 6.865 11.3257 6.865 12C6.865 12.6743 6.99782 13.3421 7.25588 13.9651C7.51394 14.5881 7.89218 15.1542 8.36901 15.631C8.84584 16.1078 9.41191 16.4861 10.0349 16.7441C10.6579 17.0022 11.3257 17.135 12 17.135C13.3619 17.135 14.668 16.594 15.631 15.631C16.594 14.668 17.135 13.3619 17.135 12C17.135 10.6381 16.594 9.33201 15.631 8.36901C14.668 7.40601 13.3619 6.865 12 6.865ZM12 15.333C11.116 15.333 10.2683 14.9818 9.64321 14.3568C9.01815 13.7317 8.667 12.884 8.667 12C8.667 11.116 9.01815 10.2683 9.64321 9.64321C10.2683 9.01815 11.116 8.667 12 8.667C12.884 8.667 13.7317 9.01815 14.3568 9.64321C14.9818 10.2683 15.333 11.116 15.333 12C15.333 12.884 14.9818 13.7317 14.3568 14.3568C13.7317 14.9818 12.884 15.333 12 15.333ZM17.338 5.463C17.0197 5.463 16.7145 5.58943 16.4895 5.81447C16.2644 6.03952 16.138 6.34474 16.138 6.663C16.138 6.98126 16.2644 7.28648 16.4895 7.51153C16.7145 7.73657 17.0197 7.863 17.338 7.863C17.6563 7.863 17.9615 7.73657 18.1865 7.51153C18.4116 7.28648 18.538 6.98126 18.538 6.663C18.538 6.34474 18.4116 6.03952 18.1865 5.81447C17.9615 5.58943 17.6563 5.463 17.338 5.463Z"
    fill="currentColor" />
</svg>
