<svg width="24" height="24" viewBox="0 0 24 24" fill="none" xmlns="http://www.w3.org/2000/svg">
<path fill-rule="evenodd" clip-rule="evenodd" d="M19 3C19 2.44772 18.5523 2 18 2C17.4477 2 17 2.44772 17 3V3.5C17 3.77614 16.7761 4 16.5 4H8.5C6.567 4 5 5.567 5 7.5V8C2.79086 8 1 9.79086 1 12V18C1 20.2091 2.79086 22 5 22H19C21.2091 22 23 20.2091 23 18V12C23 9.79086 21.2091 8 19 8H7V7.5C7 6.67157 7.67157 6 8.5 6H16.5C17.8807 6 19 4.88071 19 3.5V3ZM10 16C9.44771 16 9 16.4477 9 17C9 17.5523 9.44771 18 10 18H14C14.5523 18 15 17.5523 15 17C15 16.4477 14.5523 16 14 16H10ZM4.75 13C4.75 13.6904 5.30964 14.25 6 14.25C6.69036 14.25 7.25 13.6904 7.25 13C7.25 12.3096 6.69036 11.75 6 11.75C5.30964 11.75 4.75 12.3096 4.75 13ZM16.75 13C16.75 13.6904 17.3096 14.25 18 14.25C18.6904 14.25 19.25 13.6904 19.25 13C19.25 12.3096 18.6904 11.75 18 11.75C17.3096 11.75 16.75 12.3096 16.75 13ZM14 14.25C13.3096 14.25 12.75 13.6904 12.75 13C12.75 12.3096 13.3096 11.75 14 11.75C14.6904 11.75 15.25 12.3096 15.25 13C15.25 13.6904 14.6904 14.25 14 14.25ZM8.75 13C8.75 13.6904 9.30964 14.25 10 14.25C10.6904 14.25 11.25 13.6904 11.25 13C11.25 12.3096 10.6904 11.75 10 11.75C9.30964 11.75 8.75 12.3096 8.75 13ZM6 18.25C5.30964 18.25 4.75 17.6904 4.75 17C4.75 16.3096 5.30964 15.75 6 15.75C6.69036 15.75 7.25 16.3096 7.25 17C7.25 17.6904 6.69036 18.25 6 18.25ZM16.75 17C16.75 17.6904 17.3096 18.25 18 18.25C18.6904 18.25 19.25 17.6904 19.25 17C19.25 16.3096 18.6904 15.75 18 15.75C17.3096 15.75 16.75 16.3096 16.75 17Z" fill="currentColor" style="fill:currentColor;fill-opacity:1;"/>
</svg>
