<svg width="24" height="24" viewBox="0 0 24 24" fill="none" xmlns="http://www.w3.org/2000/svg">
<path fill-rule="evenodd" clip-rule="evenodd" d="M12 22C17.5228 22 22 17.5228 22 12C22 6.47715 17.5228 2 12 2C6.47715 2 2 6.47715 2 12C2 17.5228 6.47715 22 12 22ZM15 10C15 11.0038 14.507 11.8924 13.75 12.437V15.25C13.75 16.2165 12.9665 17 12 17C11.0335 17 10.25 16.2165 10.25 15.25V12.437C9.49297 11.8924 9 11.0038 9 10C9 8.34315 10.3431 7 12 7C13.6569 7 15 8.34315 15 10Z" fill="currentColor" style="fill:currentColor;fill-opacity:1;"/>
</svg>
