<svg width="24" height="24" viewBox="0 0 24 24" fill="none" xmlns="http://www.w3.org/2000/svg">
<path d="M9 3C9 2.44772 8.55228 2 8 2C7.44772 2 7 2.44772 7 3L7.00002 3.11318C7.00022 4.10626 7.00042 5.12872 6.86278 6.07246C6.71871 7.06036 6.44227 7.80853 5.99437 8.28817C5.78794 8.50924 5.56755 8.7259 5.32747 8.96194C5.25968 9.02859 5.19029 9.09681 5.11922 9.16709C4.80764 9.47521 4.47293 9.81434 4.16991 10.1785C3.56852 10.9011 3 11.8297 3 13V15H11V13H10C9.44772 13 9 12.5523 9 12C9 11.4477 9.44772 11 10 11H11V5.7274C10.5866 5.60582 10.2098 5.40826 9.90195 5.14355C9.37952 4.69437 9.0007 4.00776 9 3.00277L9 3Z" fill="currentColor" style="fill:currentColor;fill-opacity:1;"/>
<path d="M13 5.7274V11H14C14.5523 11 15 11.4477 15 12C15 12.5523 14.5523 13 14 13H13V15H21V13C21 11.8297 20.4315 10.9011 19.8301 10.1785C19.5271 9.81434 19.1924 9.47521 18.8808 9.16709C18.8097 9.09681 18.7403 9.02858 18.6725 8.96192C18.4324 8.72589 18.2121 8.50923 18.0056 8.28817C17.5577 7.80853 17.2813 7.06036 17.1372 6.07246C16.9996 5.12872 16.9998 4.10625 17 3.11317L17 3C17 2.44772 16.5523 2 16 2C15.4477 2 15 2.44772 15 3L15 3.00274C14.9993 4.00775 14.6205 4.69436 14.0981 5.14355C13.7902 5.40826 13.4134 5.60582 13 5.7274Z" fill="currentColor" style="fill:currentColor;fill-opacity:1;"/>
<path d="M21 17H13V21H17C19.2091 21 21 19.2091 21 17Z" fill="currentColor" style="fill:currentColor;fill-opacity:1;"/>
<path d="M11 21V17H3C3 19.2091 4.79086 21 7 21H11Z" fill="currentColor" style="fill:currentColor;fill-opacity:1;"/>
</svg>
