<svg width="24" height="24" viewBox="0 0 24 24" fill="none" xmlns="http://www.w3.org/2000/svg">
<path d="M4 9C4 4.58172 7.58172 1 12 1C16.4183 1 20 4.58172 20 9C20 10.8924 19.3427 12.6309 18.2452 14H5.75483C4.65734 12.6309 4 10.8924 4 9Z" fill="currentColor" style="fill:currentColor;fill-opacity:1;"/>
<path d="M8 16V16.5C8 17.8807 9.11929 19 10.5 19H13.5C14.8807 19 16 17.8807 16 16.5V16H8Z" fill="currentColor" style="fill:currentColor;fill-opacity:1;"/>
<path d="M9 21C9 20.4477 9.44772 20 10 20H14C14.5523 20 15 20.4477 15 21C15 21.5523 14.5523 22 14 22H10C9.44772 22 9 21.5523 9 21Z" fill="currentColor" style="fill:currentColor;fill-opacity:1;"/>
</svg>
