<svg width="24" height="24" viewBox="0 0 24 24" fill="none" xmlns="http://www.w3.org/2000/svg">
<path fill-rule="evenodd" clip-rule="evenodd" d="M17.6568 7.34315C14.5326 4.21895 9.46733 4.21895 6.34314 7.34315C3.32484 10.3614 3.22249 15.1922 6.03624 18.3327C6.40478 18.744 6.37009 19.3762 5.95876 19.7448C5.54743 20.1133 4.91521 20.0786 4.54667 19.6673C1.02817 15.7403 1.15554 9.70232 4.92892 5.92893C8.83417 2.02369 15.1658 2.02369 19.0711 5.92893C22.8444 9.70232 22.9718 15.7403 19.4533 19.6673C19.0848 20.0786 18.4526 20.1133 18.0412 19.7448C17.6299 19.3762 17.5952 18.744 17.9637 18.3327C20.7775 15.1922 20.6751 10.3614 17.6568 7.34315ZM8.29152 9.29289C8.68205 8.90237 9.31521 8.90237 9.70574 9.29289L12.7057 12.2929C13.0963 12.6834 13.0963 13.3166 12.7057 13.7071C12.3152 14.0976 11.682 14.0976 11.2915 13.7071L8.29152 10.7071C7.901 10.3166 7.901 9.68342 8.29152 9.29289Z" fill="currentColor" style="fill:currentColor;fill-opacity:1;"/>
</svg>
