<svg width="24" height="24" viewBox="0 0 24 24" fill="none" xmlns="http://www.w3.org/2000/svg">
<path d="M19.25 5L19.3271 5.00391C19.7051 5.04253 20 5.36183 20 5.75C20 6.13817 19.7051 6.45747 19.3271 6.49609L19.25 6.5H4.75C4.33579 6.5 4 6.16421 4 5.75C4 5.33579 4.33579 5 4.75 5H19.25Z" fill="currentColor"/>
<path d="M18.25 15.5L18.4287 15.5088C19.3113 15.5983 20 16.3438 20 17.25C20 18.1562 19.3113 18.9017 18.4287 18.9912L18.25 19H5.75C4.7835 19 4 18.2165 4 17.25C4 16.2835 4.7835 15.5 5.75 15.5H18.25Z" fill="currentColor"/>
<path d="M18.8779 9.75684L18.75 9.75H5.25C4.55964 9.75 4 10.3096 4 11C4 11.6904 4.55964 12.25 5.25 12.25H18.75L18.8779 12.2432C19.5082 12.1791 20 11.6472 20 11C20 10.3528 19.5082 9.82092 18.8779 9.75684Z" fill="currentColor"/>
</svg>
