<svg width="24" height="24" viewBox="0 0 24 24" fill="none" xmlns="http://www.w3.org/2000/svg">
<path fill-rule="evenodd" clip-rule="evenodd" d="M21 7C21 4.79086 19.2091 3 17 3H7C4.79086 3 3 4.79086 3 7V17C3 19.2091 4.79086 21 7 21H17C19.2091 21 21 19.2091 21 17V7ZM9.5 8C9.5 8.69036 8.94036 9.25 8.25 9.25C7.55964 9.25 7 8.69036 7 8C7 7.30964 7.55964 6.75 8.25 6.75C8.94036 6.75 9.5 7.30964 9.5 8ZM9.5 12C9.5 12.6904 8.94036 13.25 8.25 13.25C7.55964 13.25 7 12.6904 7 12C7 11.3096 7.55964 10.75 8.25 10.75C8.94036 10.75 9.5 11.3096 9.5 12ZM8.25 17.25C8.94036 17.25 9.5 16.6904 9.5 16C9.5 15.3096 8.94036 14.75 8.25 14.75C7.55964 14.75 7 15.3096 7 16C7 16.6904 7.55964 17.25 8.25 17.25Z" fill="currentColor" style="fill:currentColor;fill-opacity:1;"/>
</svg>
