<svg width="24" height="24" viewBox="0 0 24 24" fill="none" xmlns="http://www.w3.org/2000/svg">
<path fill-rule="evenodd" clip-rule="evenodd" d="M12.0061 2.9449C12.0667 2.39596 12.5609 2.00015 13.1099 2.06083C18.1109 2.61366 22 6.85189 22 11.9998C22 17.5227 17.5228 21.9998 12 21.9998C6.47715 21.9998 2 17.5227 2 11.9998C2 8.53176 3.76629 5.47661 6.44374 3.68439C6.90269 3.37717 7.5238 3.50018 7.83101 3.95914C8.13822 4.41809 8.01521 5.03919 7.55626 5.3464C5.40977 6.78322 4 9.2271 4 11.9998C4 16.4181 7.58172 19.9998 12 19.9998C16.4183 19.9998 20 16.4181 20 11.9998C20 7.88269 16.889 4.49078 12.8901 4.04872C12.3412 3.98804 11.9454 3.49384 12.0061 2.9449ZM12.0165 6.40987C12.1162 5.86667 12.6375 5.50721 13.1807 5.60699C16.2069 6.16286 18.5 8.81251 18.5 11.9998C18.5 15.5897 15.5899 18.4998 12 18.4998C8.41015 18.4998 5.5 15.5897 5.5 11.9998C5.5 11.1678 5.65683 10.37 5.94345 9.63607C6.14436 9.12163 6.72427 8.86745 7.23871 9.06836C7.75316 9.26927 8.00733 9.84917 7.80643 10.3636C7.6089 10.8694 7.5 11.4207 7.5 11.9998C7.5 14.4851 9.51472 16.4998 12 16.4998C14.4853 16.4998 16.5 14.4851 16.5 11.9998C16.5 9.79504 14.9134 7.95872 12.8193 7.57408C12.2761 7.4743 11.9167 6.95307 12.0165 6.40987ZM12.1344 9.76669C12.4109 9.28862 13.0227 9.12526 13.5007 9.40181C14.3948 9.91901 15 10.8882 15 11.9998C15 13.6567 13.6569 14.9998 12 14.9998C10.8883 14.9998 9.91916 14.3947 9.40196 13.5006C9.12542 13.0225 9.28878 12.4108 9.76684 12.1342C10.2449 11.8577 10.8566 12.0211 11.1332 12.4991C11.3076 12.8006 11.6311 12.9998 12 12.9998C12.5523 12.9998 13 12.5521 13 11.9998C13 11.631 12.8008 11.3074 12.4993 11.133C12.0212 10.8565 11.8579 10.2447 12.1344 9.76669Z" fill="currentColor" style="fill:currentColor;fill-opacity:1;"/>
</svg>
