<svg width="24" height="24" viewBox="0 0 24 24" fill="none" xmlns="http://www.w3.org/2000/svg">
<path d="M13 3.05469C17.5 3.55213 21 7.3672 21 11.9998C21 16.9703 16.9706 20.9998 12 20.9998C7.02944 20.9998 3 16.9703 3 11.9998C3 8.87934 4.58803 6.12983 7 4.51531M13 6.59045C15.5601 7.0607 17.5 9.30369 17.5 11.9998C17.5 15.0373 15.0376 17.4998 12 17.4998C8.96243 17.4998 6.5 15.0373 6.5 11.9998C6.5 11.2942 6.63286 10.6196 6.87494 9.99976M13 10.2673C13.5978 10.6131 14 11.2595 14 11.9998C14 13.1043 13.1046 13.9998 12 13.9998C11.2597 13.9998 10.6134 13.5976 10.2676 12.9998" stroke="currentColor" stroke-width="2" stroke-linecap="round" stroke-linejoin="round"/>
</svg>
