<svg width="25" height="24" viewBox="0 0 25 24" fill="none" xmlns="http://www.w3.org/2000/svg">
<path fill-rule="evenodd" clip-rule="evenodd" d="M11.1834 11.4178C10.8193 11.6606 10.75 11.8861 10.75 12C10.75 12.1139 10.8193 12.3394 11.1834 12.5822C11.5405 12.8202 12.0915 13 12.75 13C13.4085 13 13.9595 12.8202 14.3166 12.5822C14.6807 12.3394 14.75 12.1139 14.75 12C14.75 11.8861 14.6807 11.6606 14.3166 11.4178C13.9595 11.1798 13.4085 11 12.75 11C12.0915 11 11.5405 11.1798 11.1834 11.4178ZM14.75 14.6088C14.1499 14.8635 13.4625 15 12.75 15C12.0375 15 11.3501 14.8635 10.75 14.6088V18C10.75 18.1139 10.8193 18.3394 11.1834 18.5822C11.5405 18.8202 12.0915 19 12.75 19C13.4085 19 13.9595 18.8202 14.3166 18.5822C14.6807 18.3394 14.75 18.1139 14.75 18V14.6088ZM16.75 12C16.75 11.0093 16.1477 10.2349 15.426 9.75374C14.6974 9.26796 13.7483 9 12.75 9C11.7517 9 10.8026 9.26796 10.074 9.75374C9.3523 10.2349 8.75 11.0093 8.75 12V22C8.75 22.5523 9.19772 23 9.75 23C10.7251 23 14.7749 23 15.75 23C16.3023 23 16.75 22.5523 16.75 22V12Z" fill="currentColor" style="fill:currentColor;fill-opacity:1;"/>
<path d="M5.39242 5.21641C5.53975 4.92192 5.96024 4.92192 6.10756 5.21642C6.86192 6.72429 7.02462 6.88668 8.5329 7.6404C8.82756 7.78765 8.82756 8.2079 8.5329 8.35514C7.02462 9.10886 6.86192 9.27126 6.10756 10.7791C5.96024 11.0736 5.53975 11.0736 5.39242 10.7791C4.63806 9.27126 4.47536 9.10886 2.96708 8.35514C2.67243 8.2079 2.67243 7.78765 2.96709 7.6404C4.47536 6.88668 4.63806 6.72429 5.39242 5.21641Z" fill="currentColor" style="fill:currentColor;fill-opacity:1;"/>
<path d="M12.3885 1.22087C12.5358 0.926377 12.9563 0.926378 13.1037 1.22087C13.858 2.72874 14.0207 2.89114 15.529 3.64485C15.8237 3.7921 15.8237 4.21235 15.529 4.3596C14.0207 5.11332 13.858 5.27571 13.1037 6.78359C12.9563 7.07808 12.5358 7.07808 12.3885 6.78358C11.6342 5.27571 11.4715 5.11332 9.96319 4.3596C9.66853 4.21235 9.66853 3.7921 9.96319 3.64485C11.4715 2.89114 11.6342 2.72874 12.3885 1.22087Z" fill="currentColor" style="fill:currentColor;fill-opacity:1;"/>
<path d="M19.3846 5.21641C19.5319 4.92192 19.9524 4.92192 20.0998 5.21642C20.8541 6.72429 21.0168 6.88668 22.5251 7.6404C22.8198 7.78765 22.8198 8.2079 22.5251 8.35514C21.0168 9.10886 20.8541 9.27126 20.0998 10.7791C19.9524 11.0736 19.5319 11.0736 19.3846 10.7791C18.6303 9.27126 18.4676 9.10886 16.9593 8.35514C16.6646 8.2079 16.6646 7.78765 16.9593 7.6404C18.4676 6.88668 18.6303 6.72429 19.3846 5.21641Z" fill="currentColor" style="fill:currentColor;fill-opacity:1;"/>
</svg>
