<svg width="25" height="24" viewBox="0 0 25 24" fill="none" xmlns="http://www.w3.org/2000/svg">
<path d="M13.1357 3.78069C12.1198 2.91564 10.5649 3.70794 10.6676 5.03823L10.8993 8.03764L8.33652 9.61324C7.1999 10.312 7.47291 12.0357 8.76984 12.3491L10.555 12.7804L4.04289 19.2926C3.65237 19.6831 3.65237 20.3163 4.04289 20.7068C4.43342 21.0973 5.06658 21.0973 5.45711 20.7068L11.9692 14.1947L12.4006 15.9799C12.714 17.2768 14.4376 17.5498 15.1364 16.4132L16.712 13.8504L19.7115 14.0821C21.0418 14.1848 21.834 12.6299 20.969 11.614L19.0186 9.32362L20.1658 6.54259C20.6746 5.30916 19.4405 4.07513 18.2071 4.58393L15.4261 5.73112L13.1357 3.78069Z" fill="currentColor" style="fill:currentColor;fill-opacity:1;"/>
</svg>
