<svg width="24" height="24" viewBox="0 0 24 24" fill="none" xmlns="http://www.w3.org/2000/svg">
<path d="M11.7726 12.2271L12.6226 15.745C12.7271 16.1774 13.3016 16.2684 13.5346 15.8895L15.2701 13.0666C15.3683 12.9069 15.5476 12.8155 15.7346 12.8299L19.0385 13.0851C19.4819 13.1194 19.746 12.601 19.4577 12.2624L17.3092 9.73949C17.1877 9.59674 17.1562 9.39798 17.2277 9.22465L18.4913 6.1613C18.6609 5.75016 18.2496 5.33882 17.8384 5.50841L14.7751 6.77206C14.6018 6.84356 14.403 6.81208 14.2603 6.69052L11.7373 4.54209C11.3987 4.25374 10.8804 4.51784 10.9146 4.96127L11.1698 8.26518C11.1843 8.45212 11.0929 8.63142 10.9332 8.72962L8.11026 10.4652C7.73139 10.6981 7.82239 11.2727 8.2547 11.3771L11.7726 12.2271ZM11.7726 12.2271L4 19.9997" stroke="currentColor" stroke-width="2" stroke-linecap="round" stroke-linejoin="round"/>
</svg>
