<svg width="25" height="24" viewBox="0 0 25 24" fill="none" xmlns="http://www.w3.org/2000/svg">
<path fill-rule="evenodd" clip-rule="evenodd" d="M8.75 2C6.54086 2 4.75 3.79086 4.75 6V19C4.75 20.6569 6.09315 22 7.75 22H19.75C20.3023 22 20.75 21.5523 20.75 21V3C20.75 2.44772 20.3023 2 19.75 2H8.75ZM7.75 18H18.75V20H7.75C7.19772 20 6.75 19.5523 6.75 19C6.75 18.4477 7.19772 18 7.75 18ZM13.1581 7.18426C13.1098 7.28103 13.0313 7.35949 12.9345 7.40787L11.6447 8.05279C11.2762 8.23705 11.2762 8.76295 11.6447 8.94721L12.9345 9.59213C13.0313 9.64051 13.1098 9.71897 13.1581 9.81574L13.8031 11.1056C13.9873 11.4741 14.5132 11.4741 14.6975 11.1056L15.3424 9.81574C15.3908 9.71897 15.4692 9.64051 15.566 9.59213L16.8558 8.94721C17.2244 8.76295 17.2244 8.23705 16.8558 8.05279L15.566 7.40787C15.4692 7.35949 15.3908 7.28103 15.3424 7.18426L14.6975 5.89443C14.5132 5.5259 13.9873 5.5259 13.8031 5.89443L13.1581 7.18426ZM9.46166 11.5772C9.43263 11.6353 9.38556 11.6824 9.3275 11.7114L8.28693 12.2317C8.06581 12.3422 8.06582 12.6578 8.28693 12.7683L9.3275 13.2886C9.38556 13.3176 9.43263 13.3647 9.46166 13.4228L9.98195 14.4633C10.0925 14.6845 10.408 14.6845 10.5186 14.4633L11.0389 13.4228C11.0679 13.3647 11.115 13.3176 11.173 13.2886L12.2136 12.7683C12.4347 12.6578 12.4347 12.3422 12.2136 12.2317L11.173 11.7114C11.115 11.6824 11.0679 11.6353 11.0389 11.5772L10.5186 10.5367C10.408 10.3155 10.0925 10.3155 9.98194 10.5367L9.46166 11.5772Z" fill="currentColor" style="fill:currentColor;fill-opacity:1;"/>
</svg>
