<svg width="24" height="24" viewBox="0 0 24 24" fill="none" xmlns="http://www.w3.org/2000/svg">
<path d="M6.2303 13.1622C6.22763 13.1622 6.22497 13.1622 6.22164 13.1622C5.94725 13.1622 5.69949 13.2787 5.52567 13.4645L5.525 13.4652C5.3272 13.6757 5.20599 13.9594 5.20599 14.2711C5.20599 14.3363 5.21132 14.4003 5.22131 14.4622L5.22064 14.4555C5.24328 14.5162 5.27858 14.5335 5.30389 14.5368C5.35717 14.5435 5.43709 14.5042 5.48704 14.3703L5.50103 14.327C5.53433 14.2098 5.57895 14.1079 5.63489 14.0133L5.63156 14.0193C5.73546 13.8621 5.91128 13.7596 6.11175 13.7596C6.22897 13.7596 6.33819 13.7949 6.42877 13.8548L6.42677 13.8535C6.57928 13.9547 6.67852 14.1259 6.67852 14.3203C6.67852 14.3949 6.66386 14.4662 6.63722 14.5308L6.63856 14.5268C6.56863 14.6993 6.528 14.8998 6.528 15.1096C6.528 15.1156 6.528 15.1215 6.528 15.1275C6.528 15.1342 6.52733 15.1415 6.52733 15.1495C6.52733 15.4565 6.75977 15.709 7.05747 15.7409H7.06013C7.07279 15.7423 7.08744 15.7429 7.10209 15.7429C7.2646 15.7429 7.40712 15.6577 7.48771 15.5298L7.48904 15.5278C7.49637 15.5145 7.50103 15.4992 7.50103 15.4825C7.50103 15.4599 7.49303 15.4399 7.47971 15.4239C7.44375 15.38 7.38581 15.3933 7.32986 15.4066C7.2899 15.4179 7.24395 15.4246 7.19666 15.4246C7.194 15.4246 7.19134 15.4246 7.18867 15.4246C7.09144 15.4246 7.00486 15.376 6.95291 15.302L6.95224 15.3014C6.92294 15.2434 6.90629 15.1748 6.90629 15.1022C6.90629 15.0216 6.9276 14.9457 6.96423 14.8798L6.9629 14.8818C6.97222 14.8585 6.98354 14.8338 6.9962 14.8052C7.10809 14.6227 7.17469 14.4016 7.17469 14.1645C7.17469 14.0007 7.14272 13.8435 7.08478 13.7003L7.08744 13.7083C6.94558 13.4192 6.67252 13.2141 6.34885 13.1682L6.34352 13.1675C6.30955 13.1628 6.26959 13.1595 6.22897 13.1595L6.2303 13.1622ZM6.28891 12.3909C6.32887 12.3909 6.37016 12.3909 6.41278 12.3936C7.34651 12.5055 8.07046 13.2694 8.12041 14.2111V14.2158C8.30089 15.3893 8.01385 16.5821 6.91428 16.7699C6.83236 16.7839 6.73846 16.7919 6.64189 16.7919C6.6279 16.7919 6.61458 16.7919 6.60059 16.7912H6.60259C5.47505 16.7086 4.56663 15.8668 4.38215 14.7792L4.38015 14.7652C4.35751 14.6527 4.34485 14.5228 4.34485 14.3903C4.34485 13.4226 5.03083 12.6147 5.94392 12.4276L5.95657 12.4256C6.05581 12.4049 6.16969 12.3923 6.28691 12.3909H6.28824H6.28891ZM15.9726 12.371C15.9666 12.3703 15.9599 12.3703 15.9526 12.3703C15.8613 12.3703 15.7807 12.4196 15.7375 12.4928L15.7368 12.4942C15.7341 12.5102 15.7328 12.5281 15.7328 12.5468C15.7328 12.7532 15.9 12.9204 16.1064 12.9204C16.2116 12.9204 16.3062 12.8771 16.3742 12.8072C16.3815 12.7812 16.3861 12.7512 16.3861 12.7206C16.3861 12.5808 16.2962 12.4622 16.1717 12.4189L16.1697 12.4182C16.1124 12.3889 16.0445 12.3716 15.9726 12.371ZM14.0911 12.038C14.0898 12.038 14.0878 12.038 14.0858 12.038C14.0425 12.038 13.9992 12.0406 13.9572 12.0453L13.9626 12.0446C13.7734 12.0659 13.6043 12.1399 13.4671 12.2517L13.4691 12.2504C13.4045 12.297 13.3592 12.3663 13.3432 12.4456L13.3425 12.4476V12.4482C13.3425 12.4829 13.3705 12.5108 13.4051 12.5108C13.4764 12.5002 13.5403 12.4822 13.6003 12.4562L13.5949 12.4582C13.7674 12.3909 13.9672 12.3523 14.1764 12.3523C14.2649 12.3523 14.3522 12.3596 14.4374 12.373L14.4281 12.3716C14.5586 12.3863 14.6192 12.3943 14.6485 12.3503C14.6545 12.3403 14.6579 12.3277 14.6579 12.315C14.6579 12.297 14.6512 12.2804 14.6406 12.2671C14.5113 12.1259 14.3255 12.0373 14.1197 12.0373C14.1098 12.0373 14.0998 12.0373 14.0898 12.038H14.0911ZM17.0708 11.8948C16.9283 11.8921 16.8104 12.0493 16.8071 12.2444C16.8037 12.4409 16.9163 12.6021 17.0595 12.6041C17.2027 12.6067 17.3205 12.4502 17.3239 12.2544C17.3272 12.0579 17.214 11.8974 17.0708 11.8948ZM13.6735 11.2208C13.6715 11.2208 13.6695 11.2208 13.6675 11.2208C13.3518 11.2208 13.0608 11.3227 12.8237 11.4952L12.8277 11.4925C12.6945 11.5897 12.5686 11.7256 12.5866 11.8069C12.5933 11.8335 12.6126 11.8535 12.6599 11.8595C12.907 11.7855 13.222 11.713 13.543 11.6583L13.5936 11.651C13.6096 11.6504 13.6276 11.6503 13.6462 11.6503C13.9066 11.6503 14.153 11.7123 14.3708 11.8222L14.3615 11.8182C14.5606 11.9048 14.6825 11.962 14.7305 11.9121C14.7611 11.8808 14.7518 11.8208 14.7045 11.7423C14.5766 11.5598 14.4021 11.4173 14.1977 11.3313L14.1897 11.3287C14.0372 11.2614 13.86 11.2214 13.6735 11.2208ZM16.7198 9.93407C16.7018 9.93407 16.6845 9.93606 16.6679 9.93873H16.6699C16.3908 9.98335 16.3808 10.3283 16.48 10.8045C16.5253 11.0463 16.6186 11.2607 16.7498 11.4466L16.7464 11.4412C16.8084 11.4326 16.8803 11.4279 16.9536 11.4279C17.0268 11.4279 17.0988 11.4326 17.1694 11.4419L17.1614 11.4412C17.2033 11.3134 17.2273 11.1668 17.2273 11.0143C17.2273 10.8871 17.2106 10.7646 17.1793 10.6474L17.1813 10.6573C17.0881 10.2118 16.9642 9.9314 16.7205 9.93473L16.7198 9.93407ZM16.7012 8.11921L16.7478 8.11988C16.8896 8.12587 17.0202 8.1705 17.1301 8.24309L17.1274 8.24109C17.5716 8.5368 17.6349 9.25341 17.6582 9.77689C17.6709 10.0766 17.7075 10.7999 17.7195 11.007C17.7474 11.4825 17.8727 11.5491 18.1251 11.6317C18.2663 11.679 18.3995 11.713 18.5939 11.7682C19.0395 11.8595 19.4298 12.0513 19.7554 12.3197L19.7508 12.3157C19.8607 12.4236 19.9366 12.5661 19.9606 12.7253L19.9612 12.7293C20.0305 13.2354 19.5683 13.8615 18.3448 14.4282C17.3738 14.8645 16.2403 15.1189 15.0475 15.1189C14.7711 15.1189 14.4987 15.1056 14.229 15.0789L14.2629 15.0816L13.8707 15.0376C12.9736 14.9171 12.4614 16.0753 13.0002 16.8691C13.5183 17.3953 14.2383 17.7209 15.0348 17.7209C15.1061 17.7209 15.1767 17.7183 15.2466 17.713L15.2373 17.7136C15.3212 17.7176 15.4191 17.7203 15.517 17.7203C17.1467 17.7203 18.6226 17.0589 19.6895 15.9893C19.7055 15.9687 19.7221 15.9461 19.7375 15.9221L19.7395 15.9187C19.7694 15.8728 19.7448 15.8482 19.7062 15.8741C18.4907 16.7193 16.9842 17.2248 15.3592 17.2248C15.0728 17.2248 14.7897 17.2088 14.512 17.1782L14.5466 17.1815C14.3335 17.1435 14.1457 17.0909 13.9659 17.023L13.9879 17.0303C13.7754 16.9471 13.3319 16.7439 13.2779 16.289C13.7614 16.4735 14.3209 16.5801 14.905 16.5801C15.4551 16.5801 15.9832 16.4855 16.4741 16.3117L16.4414 16.3217C16.4621 16.3117 16.4767 16.291 16.4767 16.2671C16.4767 16.2651 16.4767 16.2631 16.4767 16.2617C16.4741 16.2331 16.4501 16.2118 16.4214 16.2118C16.4194 16.2118 16.4174 16.2118 16.4154 16.2125C16.1617 16.2444 15.868 16.2631 15.5703 16.2631C14.7658 16.2631 13.9919 16.1292 13.2706 15.8835L13.3205 15.8981C13.4844 15.3653 13.9199 15.5584 14.5773 15.6111C14.7398 15.621 14.9296 15.627 15.1214 15.627C16.0085 15.627 16.8663 15.5012 17.6775 15.2667L17.6129 15.2827C18.4807 15.031 19.2366 14.6447 19.9 14.1419L19.8826 14.1545C20.0218 14.4669 20.1317 14.8298 20.195 15.2088L20.199 15.2354C20.2223 15.2314 20.2496 15.2294 20.2769 15.2294C20.3708 15.2294 20.4587 15.2541 20.5347 15.2974L20.532 15.296C20.6759 15.3839 20.7811 15.5671 20.7092 16.0406C20.5626 16.9324 20.149 17.709 19.555 18.3044C19.1667 18.7233 18.7078 19.0703 18.1957 19.3273L18.1684 19.34C17.9146 19.4772 17.6156 19.6071 17.3046 19.711L17.2633 19.7229C16.7524 19.9441 16.1584 20.0726 15.5337 20.0726C13.8786 20.0726 12.4348 19.1702 11.6662 17.8308L11.6549 17.8089C11.5983 17.6883 11.545 17.5445 11.5024 17.3953L11.497 17.3746C11.4078 17.0669 11.3558 16.7133 11.3558 16.3477C11.3558 15.3653 11.7281 14.4695 12.3389 13.7935L12.3362 13.7969C12.3968 13.7436 12.4374 13.669 12.4461 13.5851V13.5837C12.4381 13.5058 12.4075 13.4366 12.3608 13.3806L12.3615 13.3813C11.6396 12.7712 11.184 11.8648 11.184 10.8518C11.184 10.7885 11.186 10.7266 11.1893 10.664L11.1887 10.6727C11.3152 9.68298 12.1404 8.92174 13.1474 8.89577H13.15C13.224 8.8991 13.2972 8.90376 13.3712 8.90843C13.7481 8.93107 14.0784 8.97902 14.3888 8.99168C14.4434 8.997 14.5067 8.99967 14.5713 8.99967C15.0954 8.99967 15.573 8.8012 15.9333 8.47552L15.9313 8.47686C16.0878 8.31568 16.2882 8.1978 16.514 8.14452L16.522 8.14319C16.5753 8.12854 16.6359 8.11988 16.6985 8.11988C16.6992 8.11988 16.6998 8.11988 16.7012 8.11988V8.11921ZM14.1857 5.45188C14.1863 5.45188 14.187 5.45188 14.187 5.45188C14.2063 5.45188 14.2216 5.4672 14.2216 5.48651C14.2216 5.49717 14.2163 5.50716 14.209 5.51315C14.0784 5.61372 13.9659 5.72694 13.8687 5.85348L13.8653 5.85814C13.8613 5.86347 13.8587 5.8708 13.8587 5.87812C13.8587 5.8961 13.8733 5.91076 13.8913 5.91142C14.5613 5.93473 15.186 6.10856 15.7388 6.40027L15.7155 6.38895C15.7494 6.40826 15.7255 6.47486 15.6868 6.46553C15.196 6.34965 14.6319 6.28372 14.0531 6.28372C13.4611 6.28372 12.885 6.35298 12.3322 6.48418L12.3828 6.47419C11.3618 6.70929 10.4634 7.12021 9.67552 7.67699L9.69949 7.66101C9.69417 7.665 9.68684 7.66767 9.67952 7.66767C9.66087 7.66767 9.64555 7.65235 9.64555 7.6337C9.64555 7.62504 9.64888 7.61772 9.65354 7.61172C10.3468 6.79854 11.1694 6.12055 12.0944 5.60373L12.1391 5.58042C12.1437 5.57776 12.1484 5.57642 12.1544 5.57642C12.1717 5.57642 12.1863 5.59041 12.1863 5.60839C12.1863 5.61372 12.185 5.61905 12.1823 5.62371C12.0884 5.78621 12.0092 5.97336 11.9552 6.17116L11.9512 6.18781C11.9506 6.18981 11.9506 6.19247 11.9506 6.19447C11.9506 6.21312 11.9659 6.22844 11.9845 6.22844C11.9912 6.22844 11.9979 6.22644 12.0032 6.22244C12.6219 5.81086 13.3645 5.53447 14.165 5.45321L14.1857 5.45188ZM11.4504 2.72794C11.4544 2.72794 11.4591 2.72794 11.4637 2.72794C11.5969 2.72794 11.7255 2.74526 11.848 2.77856L11.838 2.77589C12.2396 3.07626 12.5893 3.41126 12.895 3.78422L12.9036 3.79487C11.7914 4.4369 10.8337 5.10423 9.93726 5.84282L9.97389 5.81352C8.09177 7.336 6.64655 9.32867 5.81138 11.6151L5.78208 11.7076C5.10409 11.8368 4.53266 12.2158 4.15371 12.7426L4.14838 12.7506C3.88997 12.5495 3.6622 12.3297 3.45974 12.0886L3.45441 12.0819C2.87366 10.9784 4.08778 8.8345 4.93693 7.62371C6.86966 4.86447 9.81205 2.72328 11.4517 2.72861L11.4504 2.72794ZM11.3898 2.00133C7.66486 1.98868 0.498032 10.5288 3.17535 12.7905L3.8327 13.3473C3.70349 13.6823 3.6289 14.0706 3.6289 14.4755C3.6289 14.6034 3.63623 14.7299 3.65088 14.8538L3.64955 14.8385C3.74412 15.5984 4.11708 16.2571 4.66054 16.7213L4.66453 16.7246C5.19001 17.2035 5.88531 17.5045 6.65054 17.5265H6.65521C7.89064 20.1712 10.528 21.9707 13.5863 21.9707C13.6036 21.9707 13.6202 21.9707 13.6376 21.9707H13.6349C13.8314 21.9893 14.0591 22 14.2896 22C17.2613 22 19.822 20.2391 20.9849 17.7036L21.0035 17.6577C21.2293 17.1016 21.3752 16.4582 21.4091 15.7849L21.4098 15.7709C21.4098 14.975 20.9602 14.6454 20.6732 14.6454C20.6652 14.6147 20.6086 14.4076 20.53 14.1578C20.4774 13.9867 20.4234 13.8455 20.3622 13.7096L20.3722 13.7336C20.5546 13.4832 20.6639 13.1695 20.6639 12.8298C20.6639 12.7526 20.6579 12.676 20.6472 12.6014L20.6485 12.6101C20.5986 12.293 20.4501 12.0167 20.2363 11.8082C19.8334 11.4639 19.3412 11.2115 18.7997 11.0902L18.7771 11.0862L18.4061 10.983C18.4041 10.967 18.3861 10.1066 18.3702 9.73693C18.3622 9.34466 18.3029 8.96837 18.1983 8.61206L18.2057 8.64202C18.0711 8.10989 17.8061 7.65235 17.4471 7.28738L17.4477 7.28805C18.2663 6.55211 18.8177 5.5338 18.9469 4.38695L18.9489 4.36563C18.9462 2.62204 16.8051 2.09457 14.167 3.18748L13.6076 3.42458C13.2661 3.08936 12.9243 2.75458 12.5819 2.42025C12.2756 2.15917 11.8753 2 11.4384 2C11.4211 2 11.4038 2 11.3871 2.00067L11.3898 2.00133Z" fill="currentColor"/>
</svg>
