<svg width="24" height="24" viewBox="0 0 24 24" fill="none" xmlns="http://www.w3.org/2000/svg">
<path fill-rule="evenodd" clip-rule="evenodd" d="M14.3019 2.81343C15.8944 1.58843 18.1485 1.73481 19.5692 3.1555L20.844 4.43031C22.2647 5.85099 22.4111 8.10508 21.1861 9.69757L14.8753 17.9015C13.9975 19.0427 12.6407 19.5685 11.3263 19.4452C11.2988 19.4546 11.2707 19.463 11.242 19.4701C9.72243 19.85 7.7947 20.9111 6.37997 22.0942C5.59987 22.7466 4.37844 22.7932 3.58526 22L1.99948 20.4142C1.2063 19.621 1.25292 18.3996 1.90528 17.6195C3.08835 16.2048 4.14944 14.2771 4.52934 12.7575C4.53651 12.7288 4.54486 12.7007 4.55432 12.6732C4.43095 11.3588 4.95677 10.002 6.09794 9.12417L14.3019 2.81343ZM5.77257 15.1873C5.16964 16.5132 4.32575 17.8428 3.43951 18.9025C3.41848 18.9277 3.4097 18.9576 3.41006 18.981C3.41023 18.9916 3.4128 18.9988 3.4128 18.9988L3.41369 19L4.99948 20.5858L5.00027 20.5865C5.00027 20.5865 5.00786 20.5893 5.01846 20.5894C5.04191 20.5898 5.0718 20.581 5.09696 20.56C6.15672 19.6737 7.48627 18.8298 8.81217 18.2269L5.77257 15.1873Z" fill="currentColor" style="fill:currentColor;fill-opacity:1;"/>
</svg>
