<svg width="24" height="24" viewBox="0 0 24 24" fill="none" xmlns="http://www.w3.org/2000/svg">
<path d="M3.85123 19.0302C3.29425 18.1904 3.00001 17.178 3 16C3.45007 12.8495 5.52061 10.5093 7.75299 8.25H16.3521C18.4405 10.4656 20.5457 12.82 21 16C21 17.178 20.7058 18.1904 20.1488 19.0302C19.5957 19.8642 18.8228 20.469 17.9544 20.9025C16.2468 21.7548 14.0585 22 12 22C9.94146 22 7.75317 21.7548 6.04565 20.9025C5.17717 20.469 4.40435 19.8642 3.85123 19.0302Z" fill="currentColor" style="fill:currentColor;fill-opacity:1;"/>
<path d="M15.7567 5.51278C16.2601 4.17052 15.7456 2.60173 14.3523 2.2646C13.6127 2.08565 12.8278 2 12 2C11.1722 2 10.3873 2.08565 9.6477 2.2646C8.25437 2.60173 7.73995 4.17052 8.24329 5.51278L8.70225 6.73666L8.66667 6.75H15.3333L15.2978 6.73666L15.7567 5.51278Z" fill="currentColor" style="fill:currentColor;fill-opacity:1;"/>
</svg>
