<svg width="24" height="24" viewBox="0 0 24 24" fill="none" xmlns="http://www.w3.org/2000/svg">
<path fill-rule="evenodd" clip-rule="evenodd" d="M13 5C13 4.44772 13.4477 4 14 4C15.6287 4 17.0645 5.06831 17.5325 6.6283L18.55 10.02C18.6982 10.0068 18.8483 10 19 10C21.7614 10 24 12.2386 24 15C24 17.7614 21.7614 20 19 20C16.2386 20 14 17.7614 14 15C14 13.0944 15.066 11.4378 16.6342 10.594L16.4951 10.1305L9.80709 13.6199C9.93272 14.0582 10 14.5213 10 15C10 17.7614 7.76142 20 5 20C2.23858 20 0 17.7614 0 15C0 12.2386 2.23858 10 5 10C6.56617 10 7.96415 10.7201 8.88094 11.8472L9.69276 11.4237L7.2 8.1C7.1757 8.0676 7.15366 8.0342 7.13386 8H7C6.44772 8 6 7.55228 6 7C6 6.44772 6.44772 6 7 6H10C10.5523 6 11 6.44772 11 7C11 7.55228 10.5523 8 10 8H9.625L11.4896 10.4862L15.9099 8.17993L15.6169 7.203C15.4027 6.48898 14.7455 6 14 6C13.4477 6 13 5.55228 13 5ZM7.04509 12.8051C6.50925 12.3056 5.79031 12 5 12C3.34315 12 2 13.3431 2 15C2 16.6569 3.34315 18 5 18C6.65685 18 8 16.6569 8 15C8 14.8568 7.98997 14.7159 7.97056 14.5781L5.46257 15.8866C4.97292 16.1421 4.36888 15.9522 4.11342 15.4626C3.85795 14.9729 4.04779 14.3689 4.53743 14.1134L7.04509 12.8051ZM17.2294 12.578C16.484 13.1238 16 14.0054 16 15C16 16.6569 17.3431 18 19 18C20.6569 18 22 16.6569 22 15C22 13.3918 20.7345 12.0791 19.1451 12.0034L19.9578 14.7127C20.1165 15.2416 19.8163 15.7991 19.2873 15.9578C18.7584 16.1165 18.2009 15.8163 18.0422 15.2873L17.2294 12.578Z" fill="currentColor" style="fill:currentColor;fill-opacity:1;"/>
</svg>
