<svg width="24" height="24" viewBox="0 0 24 24" fill="none" xmlns="http://www.w3.org/2000/svg">
<path d="M18 19.9953C20.2091 19.9953 22 18.2045 22 15.9953V13.7646C22 11.9465 20.7128 10.429 19 10.0739V4.99533C19 4.66735 18.8392 4.36022 18.5696 4.17341C18.0001 3.77875 17.3938 4.14211 16.8847 4.42844C16.4567 4.66924 15.8873 5.04271 15.3161 5.57829C14.1618 6.6604 13 8.41004 13 10.9953V15.9963C13 18.2059 14.7913 19.9953 17 19.9953H18Z" fill="currentColor" style="fill:currentColor;fill-opacity:1;"/>
<path d="M7 19.9953C9.20914 19.9953 11 18.2045 11 15.9953V13.7646C11 11.9465 9.71279 10.429 8 10.0739V4.99533C8 4.66735 7.83917 4.36022 7.56959 4.17341C7.00012 3.77875 6.39378 4.14211 5.88474 4.42844C5.45666 4.66924 4.88734 5.04271 4.31606 5.57829C3.16181 6.6604 2 8.41004 2 10.9953V15.9963C2 18.2059 3.79129 19.9953 6 19.9953H7Z" fill="currentColor" style="fill:currentColor;fill-opacity:1;"/>
</svg>
