<svg width="24" height="24" viewBox="0 0 24 24" fill="none" xmlns="http://www.w3.org/2000/svg">
<path d="M20.5677 10.1865C21.0215 8.82449 20.8652 7.33247 20.1395 6.09361C19.0482 4.19343 16.8542 3.21583 14.7115 3.67588C13.7583 2.60202 12.3888 1.99134 10.953 2.00009C8.76283 1.99509 6.81952 3.40523 6.1457 5.48917C4.7387 5.77732 3.52421 6.65803 2.81351 7.90628C1.71404 9.80146 1.96468 12.1904 3.43357 13.8156C2.97978 15.1776 3.13604 16.6696 3.86174 17.9085C4.95309 19.8087 7.14705 20.7862 9.28975 20.3262C10.2423 21.4001 11.6125 22.0107 13.0482 22.0014C15.2397 22.007 17.1836 20.5956 17.8574 18.5098C19.2644 18.2216 20.4789 17.3409 21.1896 16.0927C22.2879 14.1975 22.0366 11.8104 20.5683 10.1852L20.5677 10.1865ZM13.0495 20.6944C12.1725 20.6956 11.3231 20.3887 10.6499 19.8268C10.6805 19.8105 10.7336 19.7811 10.768 19.7599L14.7509 17.4597C14.9547 17.344 15.0797 17.1271 15.0784 16.8927V11.2778L16.7617 12.2498C16.7798 12.2586 16.7917 12.2761 16.7942 12.2961V16.9459C16.7917 19.0136 15.1172 20.69 13.0495 20.6944ZM4.99622 17.2547C4.5568 16.4958 4.39866 15.6064 4.5493 14.7432C4.57868 14.7607 4.63056 14.7926 4.66744 14.8138L8.65032 17.114C8.85221 17.2322 9.10223 17.2322 9.30475 17.114L14.1671 14.3063V16.2502C14.1683 16.2702 14.159 16.2896 14.1433 16.3021L10.1173 18.6267C8.32404 19.6593 6.03382 19.0455 4.99685 17.2547H4.99622ZM3.948 8.56071C4.38554 7.80064 5.07623 7.21934 5.89881 6.91743C5.89881 6.95181 5.89693 7.01244 5.89693 7.05495V11.656C5.89568 11.8898 6.02069 12.1067 6.22384 12.2223L11.0862 15.0294L9.40289 16.0014C9.38601 16.0127 9.36476 16.0145 9.34601 16.0064L5.31938 13.6799C3.52983 12.6436 2.91602 10.354 3.94737 8.56134L3.948 8.56071ZM17.7781 11.7791L12.9157 8.97138L14.599 8.00003C14.6159 7.98878 14.6371 7.98691 14.6559 7.99504L18.6825 10.3196C20.4752 11.3554 21.0896 13.6487 20.0539 15.4414C19.6157 16.2002 18.9257 16.7815 18.1037 17.084V12.3454C18.1056 12.1117 17.9812 11.8954 17.7787 11.7791H17.7781ZM19.4532 9.25765C19.4238 9.23953 19.372 9.20827 19.3351 9.18702L15.3522 6.88681C15.1503 6.76867 14.9003 6.76867 14.6978 6.88681L9.83543 9.69457V7.75064C9.83418 7.73063 9.84355 7.71126 9.85918 7.69876L13.8852 5.37604C15.6785 4.34156 17.9712 4.95725 19.005 6.75117C19.442 7.50874 19.6001 8.3957 19.452 9.25765H19.4532ZM8.92034 12.7224L7.23643 11.7504C7.21831 11.7416 7.20643 11.7241 7.20393 11.7041V7.05432C7.20518 4.98413 8.88471 3.30647 10.9549 3.30772C11.8306 3.30772 12.6782 3.61525 13.3514 4.1753C13.3208 4.19155 13.2683 4.22093 13.2333 4.24218L9.25037 6.5424C9.0466 6.65803 8.92159 6.8743 8.92284 7.1087L8.92034 12.7211V12.7224ZM9.8348 10.7509L12.0006 9.50018L14.1665 10.7503V13.2512L12.0006 14.5013L9.8348 13.2512V10.7509Z" fill="currentColor"/>
</svg>
