<svg width="24" height="24" viewBox="0 0 24 24" fill="none" xmlns="http://www.w3.org/2000/svg">
<path d="M17.5043 19.0001C19.9872 19.0001 22 16.9854 22 14.5001C22 12.0148 19.9872 10.0001 17.5043 10.0001C16.8839 10.0001 16.2929 10.1259 15.7553 10.3533C15.8624 10.1573 15.9789 9.97235 16.1032 9.79632C16.8883 8.68539 18.0491 7.83838 19.557 6.83216C20.0161 6.5258 20.1402 5.90493 19.8341 5.44541C19.528 4.98588 18.9078 4.8617 18.4487 5.16806C16.9594 6.16184 15.4977 7.18982 14.472 8.64139C13.4176 10.1334 12.879 11.9837 13.0086 14.5276C13.0234 17.0002 15.0305 19.0001 17.5043 19.0001Z" fill="currentColor" style="fill:currentColor;fill-opacity:1;"/>
<path d="M6.51466 19.0001C8.99759 19.0001 11.0104 16.9854 11.0104 14.5001C11.0104 12.0148 8.99759 10.0001 6.51466 10.0001C5.89431 10.0001 5.3033 10.1259 4.7657 10.3533C4.87285 10.1573 4.98926 9.97235 5.11365 9.79632C5.89868 8.68539 7.05951 7.83838 8.56742 6.83216C9.02651 6.5258 9.15057 5.90493 8.8445 5.44541C8.53844 4.98588 7.91816 4.8617 7.45906 5.16806C5.9698 6.16184 4.50811 7.18982 3.48236 8.64139C2.42803 10.1334 1.88939 11.9837 2.01899 14.5276C2.03376 17.0002 4.04088 19.0001 6.51466 19.0001Z" fill="currentColor" style="fill:currentColor;fill-opacity:1;"/>
</svg>
