<svg width="24" height="24" viewBox="0 0 24 24" fill="none" xmlns="http://www.w3.org/2000/svg">
<path fill-rule="evenodd" clip-rule="evenodd" d="M17.741 6C17.0233 6 16.3606 6.38457 16.0045 7.00772L9.73201 17.9846C9.01983 19.2309 7.69446 20 6.25903 20H4C3.44772 20 3 19.5523 3 19C3 18.4477 3.44772 18 4 18H6.25903C6.97675 18 7.63943 17.6154 7.99552 16.9923L14.268 6.01544C14.9802 4.76914 16.3055 4 17.741 4H20C20.5523 4 21 4.44772 21 5C21 5.55228 20.5523 6 20 6H17.741ZM15 19C15 18.4477 15.4477 18 16 18H20C20.5523 18 21 18.4477 21 19C21 19.5523 20.5523 20 20 20H16C15.4477 20 15 19.5523 15 19Z" fill="currentColor" style="fill:currentColor;fill-opacity:1;"/>
</svg>
