<svg width="24" height="24" viewBox="0 0 24 24" fill="none" xmlns="http://www.w3.org/2000/svg">
<path d="M8 3H7C4.79086 3 3 4.79086 3 7V17C3 19.2091 4.79086 21 7 21H13.7574L12.1287 19.3713C10.9571 18.1997 10.9571 16.3003 12.1287 15.1287C13.3003 13.9571 15.1997 13.9571 16.3713 15.1287L16.5 15.2574L18.8787 12.8787C19.4645 12.2929 20.2322 12 21 12V7C21 4.79086 19.2091 3 17 3H16V6.5C16 7.88071 14.8807 9 13.5 9H10.5C9.11929 9 8 7.88071 8 6.5V3Z" fill="currentColor" style="fill:currentColor;fill-opacity:1;"/>
<path d="M14 3H10V6.5C10 6.77614 10.2239 7 10.5 7H13.5C13.7761 7 14 6.77614 14 6.5V3Z" fill="currentColor" style="fill:currentColor;fill-opacity:1;"/>
<path d="M21.7071 15.7071C22.0976 15.3166 22.0976 14.6834 21.7071 14.2929C21.3166 13.9024 20.6834 13.9024 20.2929 14.2929L16.5 18.0858L14.9571 16.5429C14.5666 16.1524 13.9334 16.1524 13.5429 16.5429C13.1524 16.9334 13.1524 17.5666 13.5429 17.9571L15.7929 20.2071C15.9804 20.3946 16.2348 20.5 16.5 20.5C16.7652 20.5 17.0196 20.3946 17.2071 20.2071L21.7071 15.7071Z" fill="currentColor" style="fill:currentColor;fill-opacity:1;"/>
</svg>
