<svg width="24" height="24" viewBox="0 0 24 24" fill="none" xmlns="http://www.w3.org/2000/svg">
<path fill-rule="evenodd" clip-rule="evenodd" d="M7 3H8V7.5C8 8.88071 9.11929 10 10.5 10H13.5C14.8807 10 16 8.88071 16 7.5V3H17C19.2091 3 21 4.79086 21 7V17C21 19.2091 19.2091 21 17 21H7C4.79086 21 3 19.2091 3 17V7C3 4.79086 4.79086 3 7 3ZM15 16C14.4477 16 14 16.4477 14 17C14 17.5523 14.4477 18 15 18H17C17.5523 18 18 17.5523 18 17C18 16.4477 17.5523 16 17 16H15Z" fill="currentColor" style="fill:currentColor;fill-opacity:1;"/>
<path d="M10 3H14V7.5C14 7.77614 13.7761 8 13.5 8H10.5C10.2239 8 10 7.77614 10 7.5V3Z" fill="currentColor" style="fill:currentColor;fill-opacity:1;"/>
</svg>
