<svg width="24" height="24" viewBox="0 0 24 24" fill="none" xmlns="http://www.w3.org/2000/svg">
<path fill-rule="evenodd" clip-rule="evenodd" d="M4 6C4 3.79086 5.79086 2 8 2H16C18.2091 2 20 3.79086 20 6V11.8779C18.4159 11.4054 16.6296 11.7946 15.3787 13.0455L11.8787 16.5455C11.3161 17.1081 11 17.8712 11 18.6668V21.0002C11 21.3507 11.0601 21.6873 11.1706 22H8C5.79086 22 4 20.2091 4 18V6ZM8 7C8 6.44772 8.44772 6 9 6H15C15.5523 6 16 6.44772 16 7C16 7.55228 15.5523 8 15 8H9C8.44772 8 8 7.55228 8 7ZM9 10C8.44772 10 8 10.4477 8 11C8 11.5523 8.44772 12 9 12H11C11.5523 12 12 11.5523 12 11C12 10.4477 11.5523 10 11 10H9Z" fill="currentColor" style="fill:currentColor;fill-opacity:1;"/>
<path fill-rule="evenodd" clip-rule="evenodd" d="M19.1262 15.874C18.8724 15.6201 18.4609 15.6201 18.2071 15.8739L15 19.0811V20.0002H15.9191L19.1262 16.7931C19.38 16.5393 19.38 16.1278 19.1262 15.874ZM16.7929 14.4597C17.8278 13.4249 19.5056 13.4249 20.5404 14.4597C21.5753 15.4946 21.5753 17.1724 20.5404 18.2073L17.0404 21.7073C16.8529 21.8948 16.5986 22.0002 16.3333 22.0002H14C13.4477 22.0002 13 21.5525 13 21.0002V18.6668C13 18.4016 13.1054 18.1473 13.2929 17.9597L16.7929 14.4597Z" fill="currentColor" style="fill:currentColor;fill-opacity:1;"/>
</svg>
