<svg width="24" height="24" viewBox="0 0 24 24" fill="none" xmlns="http://www.w3.org/2000/svg">
<path d="M7 4.5C7 4.22386 7.22386 4 7.5 4C7.77614 4 8 4.22386 8 4.5V9C8 10.1046 7.10457 11 6 11C4.89543 11 4 10.1046 4 9V5C4 4.44772 3.55228 4 3 4C2.44772 4 2 4.44772 2 5V9C2 11.2091 3.79086 13 6 13C8.20914 13 10 11.2091 10 9V4.5C10 3.11929 8.88071 2 7.5 2C6.11929 2 5 3.11929 5 4.5V9C5 9.55228 5.44772 10 6 10C6.55228 10 7 9.55228 7 9V4.5Z" fill="currentColor" style="fill:currentColor;fill-opacity:1;"/>
<path d="M6 15C5.29873 15 4.62556 14.8797 4 14.6586V18C4 20.2091 5.79086 22 8 22H16C18.2091 22 20 20.2091 20 18V6C20 3.79086 18.2091 2 16 2H11.2422C11.7209 2.71505 12 3.57493 12 4.5V9C12 12.3137 9.31371 15 6 15Z" fill="currentColor" style="fill:currentColor;fill-opacity:1;"/>
</svg>
