<svg width="24" height="24" viewBox="0 0 24 24" fill="none" xmlns="http://www.w3.org/2000/svg">
<path fill-rule="evenodd" clip-rule="evenodd" d="M14.9762 19.3795C15.0157 19.358 15.0542 19.3337 15.0914 19.3064L22.5914 13.8064C22.8482 13.618 23 13.3185 23 13C23 6.92487 18.0751 2 12 2C5.92487 2 1 6.92487 1 13C1 13.3185 1.15176 13.618 1.40864 13.8064L8.90864 19.3064C8.94585 19.3337 8.98432 19.358 9.02377 19.3795C9.21028 20.8572 10.4717 22 12 22C13.5283 22 14.7897 20.8572 14.9762 19.3795ZM14.4631 17.287L20.2436 13.048C17.7313 11.507 15.3421 10.6692 13 10.4841V16.1707C13.5971 16.3818 14.1074 16.7765 14.4631 17.287ZM9.53686 17.287C9.89256 16.7765 10.4029 16.3818 11 16.1707V10.4841C8.65788 10.6692 6.26867 11.507 3.7564 13.048L9.53686 17.287Z" fill="currentColor" style="fill:currentColor;fill-opacity:1;"/>
</svg>
