<svg width="24" height="24" viewBox="0 0 24 24" fill="none" xmlns="http://www.w3.org/2000/svg">
<path d="M5.50012 6.5C5.50012 4.01472 7.51484 2 10.0001 2C12.4854 2 14.5001 4.01472 14.5001 6.5C14.5001 8.98528 12.4854 11 10.0001 11C7.51484 11 5.50012 8.98528 5.50012 6.5Z" fill="currentColor" style="fill:currentColor;fill-opacity:1;"/>
<path d="M2.55269 16.3886C3.96263 13.7661 6.64237 12 10.0001 12C13.3578 12 16.0376 13.7661 17.4475 16.3886C18.0768 17.5589 17.8396 18.7737 17.142 19.6414C16.4687 20.479 15.3765 21 14.2049 21H5.79536C4.62375 21 3.53148 20.479 2.85818 19.6414C2.16063 18.7737 1.92347 17.5589 2.55269 16.3886Z" fill="currentColor" style="fill:currentColor;fill-opacity:1;"/>
<path d="M20.0001 8C20.0001 7.44772 19.5524 7 19.0001 7C18.4478 7 18.0001 7.44772 18.0001 8V10H16.0001C15.4478 10 15.0001 10.4477 15.0001 11C15.0001 11.5523 15.4478 12 16.0001 12H18.0001V14C18.0001 14.5523 18.4478 15 19.0001 15C19.5524 15 20.0001 14.5523 20.0001 14V12H22.0001C22.5524 12 23.0001 11.5523 23.0001 11C23.0001 10.4477 22.5524 10 22.0001 10H20.0001V8Z" fill="currentColor" style="fill:currentColor;fill-opacity:1;"/>
</svg>
