<svg width="24" height="24" viewBox="0 0 24 24" fill="none" xmlns="http://www.w3.org/2000/svg">
<path fill-rule="evenodd" clip-rule="evenodd" d="M16.4325 3.36223C16.6327 2.84749 16.3777 2.26795 15.8629 2.06778C15.3482 1.8676 14.7687 2.1226 14.5685 2.63733L7.56848 20.6373C7.36831 21.1521 7.62331 21.7316 8.13804 21.9318C8.65277 22.132 9.23232 21.877 9.43249 21.3622L16.4325 3.36223ZM4.00049 4.99978C4.00049 3.34293 5.34363 1.99978 7.00049 1.99978C8.65734 1.99978 10.0005 3.34293 10.0005 4.99978C10.0005 6.65663 8.65734 7.99978 7.00049 7.99978C5.34363 7.99978 4.00049 6.65663 4.00049 4.99978ZM17.0005 9.49978C15.3436 9.49978 14.0005 10.8429 14.0005 12.4998C14.0005 14.1566 15.3436 15.4998 17.0005 15.4998C18.6573 15.4998 20.0005 14.1566 20.0005 12.4998C20.0005 10.8429 18.6573 9.49978 17.0005 9.49978ZM16.8529 15.9998C14.9952 15.9998 13.4962 16.9781 12.6396 18.4237C12.1038 19.328 12.2824 20.2941 12.8226 20.9697C13.3345 21.61 14.162 21.9998 15.0361 21.9998H18.6698C19.5439 21.9998 20.3714 21.61 20.8833 20.9697C21.4235 20.2941 21.6021 19.328 21.0662 18.4237C20.2097 16.9781 18.7107 15.9998 16.8529 15.9998ZM10.5532 10.2034C9.66834 9.1627 8.38218 8.49978 6.85294 8.49978C4.9952 8.49978 3.49618 9.47812 2.63964 10.9237C2.10376 11.828 2.28243 12.7941 2.82256 13.4697C3.33452 14.11 4.16195 14.4998 5.03611 14.4998H8.66978C8.74203 14.4998 8.81397 14.4971 8.88543 14.4919L10.5532 10.2034Z" fill="currentColor"/>
</svg>
