<svg width="24" height="24" viewBox="0 0 24 24" fill="none" xmlns="http://www.w3.org/2000/svg">
<path d="M13.9997 13.2499C13.3725 13.0868 12.7037 13 11.9997 13C9.02123 13 6.67402 14.5539 5.43304 16.8621C4.59593 18.4191 6.02717 20 7.79494 20H10.9997M17.9997 15V18M17.9997 18V21M17.9997 18H14.9997M17.9997 18H20.9997M15.4997 6.5C15.4997 8.433 13.9327 10 11.9997 10C10.0667 10 8.49969 8.433 8.49969 6.5C8.49969 4.567 10.0667 3 11.9997 3C13.9327 3 15.4997 4.567 15.4997 6.5Z" stroke="currentColor" stroke-width="2" stroke-linecap="round" stroke-linejoin="round"/>
</svg>
