<svg width="24" height="24" viewBox="0 0 24 24" fill="none" xmlns="http://www.w3.org/2000/svg">
<path d="M16.1733 2.29945L16.1491 2.29261C16.0372 2.26098 15.8874 2.21866 15.747 2.19527C15.5679 2.16542 15.3412 2.15331 15.0869 2.22617C14.7368 2.32647 14.4156 2.5697 14.2241 2.8795C14.0768 3.11776 14.0319 3.35364 14.0143 3.52815C13.9999 3.67269 13.9999 3.83561 14 3.96723L14 8.22359C14 8.3427 13.9999 8.48496 14.0102 8.61028C14.022 8.7555 14.0525 8.96349 14.1635 9.18144C14.3073 9.46368 14.5368 9.69315 14.819 9.83696C15.037 9.94801 15.245 9.97845 15.3902 9.99032C15.5155 10.0006 15.6578 10.0005 15.7769 10.0005L20.0332 10.0005C20.1649 10.0005 20.3278 10.0006 20.4723 9.98612C20.6468 9.96862 20.8827 9.92366 21.121 9.77639C21.4308 9.5849 21.674 9.26369 21.7743 8.91357C21.8472 8.65926 21.835 8.43257 21.8052 8.25347C21.7818 8.11309 21.7395 7.9633 21.7079 7.85139L21.701 7.82713C20.9483 5.15522 18.8453 3.05218 16.1733 2.29945Z" fill="currentColor" style="fill:currentColor;fill-opacity:1;"/>
<path d="M11 4C6.02944 4 2 8.02944 2 13C2 17.9706 6.02944 22 11 22C15.9706 22 20 17.9706 20 13C20 12.4477 19.5523 12 19 12H13.4C12.9635 12 12.6962 11.9992 12.4962 11.9829C12.4031 11.9753 12.3467 11.9657 12.3125 11.9577C12.2962 11.9538 12.2862 11.9506 12.2808 11.9487C12.2756 11.9468 12.273 11.9455 12.273 11.9455C12.1789 11.8976 12.1024 11.8211 12.0545 11.727L12.0535 11.7248L12.0513 11.7192C12.0494 11.7138 12.0462 11.7038 12.0423 11.6875C12.0343 11.6533 12.0247 11.5969 12.0171 11.5038C12.0008 11.3038 12 11.0365 12 10.6V5C12 4.44772 11.5523 4 11 4Z" fill="currentColor" style="fill:currentColor;fill-opacity:1;"/>
</svg>
