<svg width="24" height="24" viewBox="0 0 24 24" fill="none" xmlns="http://www.w3.org/2000/svg">
<path fill-rule="evenodd" clip-rule="evenodd" d="M9 21.0001C10.1046 21.0001 11 20.1047 11 19.0001L13 19.0001C13 20.1047 13.8954 21.0001 15 21.0001H17C18.1046 21.0001 19 20.1047 19 19.0001V16.8894C19.3295 16.5527 19.6258 16.183 19.8831 15.7854C20.2284 15.9239 20.6053 16.0001 20.999 16.0001C22.6558 16.0001 23.999 14.657 23.999 13.0001C23.999 12.4553 23.8528 11.9416 23.597 11.4994C23.3205 11.0213 22.7087 10.8579 22.2307 11.1345C21.7526 11.411 21.5892 12.0228 21.8658 12.5008C21.9503 12.6469 21.999 12.8163 21.999 13.0001C21.999 13.5524 21.5512 14.0001 20.999 14.0001C20.9017 14.0001 20.8082 13.9864 20.72 13.9609C20.9021 13.3394 21 12.6815 21 12.0001C21 8.13376 17.8663 5.0001 14 5.0001H10.0085C9.87889 4.83397 9.71111 4.64344 9.4999 4.44713C8.90931 3.89822 7.99073 3.31617 6.66148 3.09361C5.39073 2.88086 4.5 3.95345 4.5 5.00005V7.08361C3.98098 7.64381 3.60965 8.28657 3.32378 8.9351H3C1.89543 8.9351 1 9.83053 1 10.9351V14.0001C1 15.1047 1.89543 16.0001 3 16.0001H3.44811C3.88101 16.6316 4.37079 17.1193 5 17.551V19.0001C5 20.1047 5.89543 21.0001 7 21.0001H9ZM8.25 12.0001C8.94036 12.0001 9.5 11.4404 9.5 10.7501C9.5 10.0597 8.94036 9.50009 8.25 9.50009C7.55964 9.50009 7 10.0597 7 10.7501C7 11.4404 7.55964 12.0001 8.25 12.0001Z" fill="currentColor" style="fill:currentColor;fill-opacity:1;"/>
</svg>
