<svg width="24" height="24" viewBox="0 0 24 24" fill="none" xmlns="http://www.w3.org/2000/svg">
<path d="M10.2638 19.6777L8 17.414L4.70711 20.7069C4.31658 21.0974 3.68342 21.0974 3.29289 20.7069C2.90237 20.3163 2.90237 19.6832 3.29289 19.2926L6.58579 15.9998L4.322 13.736C1.92396 11.3379 3.41086 7.231 6.78828 6.92396L9.80396 6.64981C10.4723 6.58905 11.0657 6.19712 11.3838 5.60623L12.2079 4.07579C13.4782 1.71661 16.6636 1.24911 18.5582 3.14376L20.856 5.44153C22.7506 7.33618 22.2831 10.5215 19.924 11.7918L18.3935 12.6159C17.8026 12.9341 17.4107 13.5274 17.3499 14.1958L17.0758 17.2115C16.7687 20.5889 12.6618 22.0758 10.2638 19.6777Z" fill="currentColor" style="fill:currentColor;fill-opacity:1;"/>
</svg>
