<svg width="24" height="24" viewBox="0 0 24 24" fill="none" xmlns="http://www.w3.org/2000/svg">
<path fill-rule="evenodd" clip-rule="evenodd" d="M2.86058 6.81727C3.37572 7.01642 3.63187 7.59545 3.43273 8.11058C2.85576 9.60303 2.85576 10.897 3.43273 12.3894C3.63187 12.9045 3.37572 13.4836 2.86058 13.6827C2.34545 13.8819 1.76642 13.6257 1.56727 13.1106C0.810909 11.1541 0.810909 9.34591 1.56727 7.38942C1.76642 6.87429 2.34545 6.61813 2.86058 6.81727Z" fill="currentColor" style="fill:currentColor;fill-opacity:1;"/>
<path d="M11.3871 8.21721L16.2669 5.29567C17.884 4.32756 19.9517 4.90208 20.8853 6.5789L21.916 8.43017C24.1475 12.4382 22.8232 17.5633 18.9581 19.8773C16.3597 21.4329 13.1441 21.3677 10.6063 19.7079L5.03489 16.0638C4.70876 15.8505 4.53625 15.4672 4.59288 15.0816L4.70388 14.3258C4.89131 13.0497 6.04085 12.1728 7.27146 12.3671L8.61013 12.5785L5.22927 6.50624C4.60687 5.38836 4.97623 3.95893 6.05426 3.31352C7.13228 2.66811 8.51075 3.05113 9.13315 4.16901L11.3871 8.21721Z" fill="currentColor" style="fill:currentColor;fill-opacity:1;"/>
</svg>
