<svg width="24" height="24" viewBox="0 0 24 24" fill="none" xmlns="http://www.w3.org/2000/svg">
  <path fill-rule="evenodd" clip-rule="evenodd"
    d="M8.74174 22.5092C9.79701 22.8356 10.8954 23.001 12 23C18.0754 23 23 18.0754 23 12C23 5.92461 18.0754 1 12 1C5.92462 1 1 5.92461 1 12C0.99998 14.2127 1.66701 16.374 2.91402 18.2019C4.16103 20.0297 5.93011 21.4392 7.99036 22.2464C7.89333 21.3754 7.80759 20.0385 8.02872 19.0874C8.22841 18.2299 9.31826 13.6201 9.31826 13.6201C9.31826 13.6201 8.98882 12.9612 8.98882 11.9865C8.98882 10.4577 9.87559 9.31487 10.9801 9.31487C11.9188 9.31487 12.3712 10.02 12.3712 10.865C12.3712 11.4675 12.1264 12.2606 11.8691 13.0944C11.7225 13.5682 11.5724 14.0545 11.4607 14.5272C11.2012 15.6227 12.0102 16.5151 13.0898 16.5151C15.045 16.5151 16.5478 14.4538 16.5478 11.4776C16.5478 8.84441 14.6547 7.00205 11.9526 7.00205C8.82298 7.00205 6.98513 9.34985 6.98513 11.7766C6.98513 12.7221 7.34954 13.7363 7.80421 14.2869C7.89446 14.3963 7.90687 14.4911 7.87979 14.6028L7.68574 15.397L7.57518 15.8506C7.52667 16.0514 7.41497 16.0943 7.20738 15.9972C5.83323 15.3575 4.97354 13.3493 4.97354 11.736C4.97354 8.26564 7.49508 5.07846 12.2426 5.07846C16.0593 5.07846 19.0242 7.79744 19.0242 11.4314C19.0242 15.2233 16.6335 18.2739 13.3155 18.2739C12.2008 18.2739 11.1527 17.6952 10.7951 17.0104C10.7951 17.0104 10.2423 19.1122 10.1091 19.6267C9.86092 20.5811 9.19077 21.7793 8.74174 22.5092Z"
    fill="currentColor" />
</svg>
