<svg width="24" height="24" viewBox="0 0 24 24" fill="none" xmlns="http://www.w3.org/2000/svg">
<path d="M14.0008 4.99995C13.4485 4.99995 13.0008 5.44767 13.0008 5.99995C13.0008 6.55224 13.4485 6.99995 14.0008 6.99995C14.5531 6.99995 15.0008 6.55224 15.0008 5.99995C15.0008 5.44767 14.5531 4.99995 14.0008 4.99995Z" fill="currentColor" style="fill:currentColor;fill-opacity:1;"/>
<path d="M11.0008 5.99995C11.0008 5.43481 11.1571 4.90616 11.4288 4.45486L7.17029 5.18489C7.71647 8.67004 9.5484 11.7288 12.1655 13.8604C12.6561 12.2064 14.1876 11 16.0008 11C17.4851 11 18.7807 11.8085 19.471 13.0091L20.2698 8.34932C20.7208 5.71862 18.5251 3.42119 15.9198 3.69393C16.5804 4.24423 17.0008 5.073 17.0008 5.99995C17.0008 7.65681 15.6576 8.99995 14.0008 8.99995C12.3439 8.99995 11.0008 7.65681 11.0008 5.99995Z" fill="currentColor" style="fill:currentColor;fill-opacity:1;"/>
<path d="M17.318 16.5105L17.4096 16.4195C17.7758 16.0561 18.0008 15.5552 18.0008 15C18.0008 13.8954 17.1054 13 16.0008 13C14.8962 13 14.0008 13.8954 14.0008 15V15.127C15.0308 15.7228 16.1437 16.1912 17.318 16.5105Z" fill="currentColor" style="fill:currentColor;fill-opacity:1;"/>
<path d="M18.4256 18.7938C11.6518 17.6978 6.30296 12.349 5.20695 5.57517C3.38313 6.20845 2.1124 8.14719 2.87277 10.1904C3.77666 12.6191 5.20468 14.8964 7.15454 16.8462C9.1044 18.7961 11.3816 20.2241 13.8104 21.128C15.8536 21.8884 17.7923 20.6176 18.4256 18.7938Z" fill="currentColor" style="fill:currentColor;fill-opacity:1;"/>
</svg>
