<svg width="24" height="24" viewBox="0 0 24 24" fill="none" xmlns="http://www.w3.org/2000/svg">
<path d="M17.6808 17.5284L17.5995 18.0028C17.3169 19.6515 15.7261 20.7743 14.1584 20.1908C11.8615 19.336 9.70715 17.9855 7.86085 16.1392C6.01454 14.2929 4.66399 12.1385 3.80918 9.84161C3.22575 8.27391 4.34849 6.68312 5.99718 6.40048L6.47161 6.31915M17.6808 17.5284L18.4186 13.2248M17.6808 17.5284C16.0887 17.2273 14.5385 16.6501 13.107 15.797M6.47161 6.31915C6.9795 9.00456 8.27261 11.5708 10.3509 13.6491C11.1971 14.4952 12.124 15.2112 13.107 15.797M6.47161 6.31915L12.1069 5.3531M18.4186 13.2248C17.8725 12.482 16.9926 12 16 12C14.3431 12 13 13.3431 13 15C13 15.276 13.0373 15.5432 13.107 15.797M18.4186 13.2248L19.2834 8.1804C19.6331 6.13997 17.86 4.36685 15.8196 4.71664L15.569 4.7596M15.569 4.7596C15.8389 5.10051 16 5.53144 16 6C16 7.10457 15.1046 8 14 8C12.8954 8 12 7.10457 12 6C12 5.77361 12.0376 5.55601 12.1069 5.3531M15.569 4.7596L12.1069 5.3531" stroke="currentColor" stroke-width="2" stroke-linecap="square" stroke-linejoin="round"/>
</svg>
