<svg width="24" height="24" viewBox="0 0 24 24" fill="none" xmlns="http://www.w3.org/2000/svg">
<path fill-rule="evenodd" clip-rule="evenodd" d="M9.10003 5.20006C9.54185 5.53143 9.6314 6.15823 9.30003 6.60006L6.30002 10.6001C6.13556 10.8193 5.8883 10.9615 5.61604 10.9933C5.34379 11.0251 5.07041 10.9438 4.85984 10.7683L3.35984 9.51828C2.93556 9.16472 2.87824 8.53415 3.2318 8.10987C3.58537 7.6856 4.21593 7.62827 4.64021 7.98184L5.33158 8.55798L7.70003 5.40006C8.0314 4.95823 8.6582 4.86869 9.10003 5.20006ZM12 8.00006C12 7.44777 12.4477 7.00006 13 7.00006H20C20.5523 7.00006 21 7.44777 21 8.00006C21 8.55234 20.5523 9.00006 20 9.00006H13C12.4477 9.00006 12 8.55234 12 8.00006ZM3.00003 16.0001C3.00003 14.3432 4.34318 13.0001 6.00003 13.0001C7.65687 13.0001 9.00003 14.3432 9.00003 16.0001C9.00003 17.657 7.65687 19.0001 6.00003 19.0001C4.34318 19.0001 3.00003 17.657 3.00003 16.0001ZM12 16.0001C12 15.4478 12.4477 15.0001 13 15.0001H20C20.5523 15.0001 21 15.4478 21 16.0001C21 16.5523 20.5523 17.0001 20 17.0001H13C12.4477 17.0001 12 16.5523 12 16.0001Z" fill="currentColor" style="fill:currentColor;fill-opacity:1;"/>
</svg>
