<svg width="24" height="24" viewBox="0 0 24 24" fill="none" xmlns="http://www.w3.org/2000/svg">
<path d="M10 14.8039V9.19607C10 8.79436 10.4498 8.55666 10.7817 8.78296L14.8941 11.5869C15.1852 11.7854 15.1852 12.2146 14.8941 12.4131L10.7817 15.217C10.4498 15.4433 10 15.2056 10 14.8039Z" fill="currentColor"/>
<path fill-rule="evenodd" clip-rule="evenodd" d="M12 4C7.58172 4 4 7.58172 4 12C4 16.4183 7.58172 20 12 20C16.4183 20 20 16.4183 20 12C20 7.58172 16.4183 4 12 4ZM2 12C2 6.47715 6.47715 2 12 2C17.5228 2 22 6.47715 22 12C22 17.5228 17.5228 22 12 22C6.47715 22 2 17.5228 2 12Z" fill="currentColor"/>
</svg>
