<svg width="24" height="24" viewBox="0 0 24 24" fill="none" xmlns="http://www.w3.org/2000/svg">
<path d="M17.4443 17C17.4443 18.6569 16.1012 20 14.4443 20C12.7874 20 11.4443 18.6569 11.4443 17C11.4443 15.3431 12.7874 14 14.4443 14C16.1012 14 17.4443 15.3431 17.4443 17Z" stroke="currentColor" stroke-width="2" stroke-linejoin="round"/>
<path d="M4.70307 7.13192L10.0104 11.5853L3.5 13.9549L4.70307 7.13192Z" stroke="currentColor" stroke-width="2" stroke-linejoin="round"/>
<path d="M14.0473 6.16481C14.4046 4.83115 15.7754 4.03969 17.1091 4.39705L18.075 4.65587C19.4087 5.01322 20.2002 6.38406 19.8428 7.71773L19.584 8.68365C19.2266 10.0173 17.8558 10.8088 16.5221 10.4514L15.5562 10.1926C14.2225 9.83525 13.4311 8.46441 13.7884 7.13074L14.0473 6.16481Z" stroke="currentColor" stroke-width="2" stroke-linejoin="round"/>
</svg>
