<svg width="24" height="24" viewBox="0 0 24 24" fill="none" xmlns="http://www.w3.org/2000/svg">
<path d="M21.952 13H15.8754C15.4313 14.7252 13.8652 16 12.0014 16C10.1376 16 8.57147 14.7252 8.12742 13H2.05078C2.55251 18.0533 6.81606 22 12.0014 22C17.1868 22 21.4503 18.0533 21.952 13Z" fill="currentColor" style="fill:currentColor;fill-opacity:1;"/>
<path d="M21.952 11C21.4503 5.94668 17.1868 2 12.0014 2C6.81606 2 2.55251 5.94668 2.05078 11H8.12742C8.57147 9.27477 10.1376 8 12.0014 8C13.8652 8 15.4313 9.27477 15.8754 11H21.952Z" fill="currentColor" style="fill:currentColor;fill-opacity:1;"/>
<path d="M10.0014 12C10.0014 10.8954 10.8968 10 12.0014 10C13.106 10 14.0014 10.8954 14.0014 12C14.0014 13.1046 13.106 14 12.0014 14C10.8968 14 10.0014 13.1046 10.0014 12Z" fill="currentColor" style="fill:currentColor;fill-opacity:1;"/>
</svg>
