<svg width="24" height="24" viewBox="0 0 24 24" fill="none" xmlns="http://www.w3.org/2000/svg">
<path fill-rule="evenodd" clip-rule="evenodd" d="M5 8C5 4.13401 8.13401 1 12 1C15.866 1 19 4.13401 19 8V14C19 16.2091 17.2091 18 15 18V20C15 21.6569 13.6569 23 12 23C10.3431 23 9 21.6569 9 20V18C6.79086 18 5 16.2091 5 14V8ZM11 18V20C11 20.5523 11.4477 21 12 21C12.5523 21 13 20.5523 13 20V18H11ZM11 7C11 6.44772 10.5523 6 10 6C9.44772 6 9 6.44772 9 7V12.5C9 13.0523 9.44772 13.5 10 13.5C10.5523 13.5 11 13.0523 11 12.5V7ZM14 6C14.5523 6 15 6.44772 15 7V12.5C15 13.0523 14.5523 13.5 14 13.5C13.4477 13.5 13 13.0523 13 12.5V7C13 6.44772 13.4477 6 14 6Z" fill="currentColor" style="fill:currentColor;fill-opacity:1;"/>
</svg>
