<svg width="24" height="24" viewBox="0 0 24 24" fill="none" xmlns="http://www.w3.org/2000/svg">
<path fill-rule="evenodd" clip-rule="evenodd" d="M9 2C7.34315 2 6 3.34315 6 5V6C3.79086 6 2 7.79086 2 10V15C2 16.6569 3.34315 18 5 18H6V19C6 20.6569 7.34315 22 9 22H15C16.6569 22 18 20.6569 18 19V18H19C20.6569 18 22 16.6569 22 15V10C22 7.79086 20.2091 6 18 6V5C18 3.34315 16.6569 2 15 2H9ZM16 6V5C16 4.44772 15.5523 4 15 4H9C8.44772 4 8 4.44772 8 5V6H16ZM16 15H8V19C8 19.5523 8.44772 20 9 20H15C15.5523 20 16 19.5523 16 19V15ZM6 11C6 10.4477 6.44772 10 7 10H9C9.55228 10 10 10.4477 10 11C10 11.5523 9.55228 12 9 12H7C6.44772 12 6 11.5523 6 11Z" fill="currentColor" style="fill:currentColor;fill-opacity:1;"/>
</svg>
