<svg width="25" height="24" viewBox="0 0 25 24" fill="none" xmlns="http://www.w3.org/2000/svg">
<path fill-rule="evenodd" clip-rule="evenodd" d="M2.75 8C2.75 5.79086 4.54086 4 6.75 4C7.30228 4 7.75 4.44772 7.75 5C7.75 5.55228 7.30228 6 6.75 6C5.64543 6 4.75 6.89543 4.75 8C4.75 8.55228 4.30228 9 3.75 9C3.19772 9 2.75 8.55228 2.75 8ZM17.75 5C17.75 4.44772 18.1977 4 18.75 4C20.9591 4 22.75 5.79086 22.75 8C22.75 8.55228 22.3023 9 21.75 9C21.1977 9 20.75 8.55228 20.75 8C20.75 6.89543 19.8546 6 18.75 6C18.1977 6 17.75 5.55228 17.75 5ZM7.75 10C7.75 9.44772 8.19772 9 8.75 9H16.75C17.3023 9 17.75 9.44772 17.75 10C17.75 10.5523 17.3023 11 16.75 11H8.75C8.19772 11 7.75 10.5523 7.75 10ZM7.75 14C7.75 13.4477 8.19772 13 8.75 13H14.75C15.3023 13 15.75 13.4477 15.75 14C15.75 14.5523 15.3023 15 14.75 15H8.75C8.19772 15 7.75 14.5523 7.75 14ZM3.75 15C4.30228 15 4.75 15.4477 4.75 16C4.75 17.1046 5.64543 18 6.75 18C7.30228 18 7.75 18.4477 7.75 19C7.75 19.5523 7.30228 20 6.75 20C4.54086 20 2.75 18.2091 2.75 16C2.75 15.4477 3.19772 15 3.75 15ZM21.75 15C22.3023 15 22.75 15.4477 22.75 16C22.75 18.2091 20.9591 20 18.75 20C18.1977 20 17.75 19.5523 17.75 19C17.75 18.4477 18.1977 18 18.75 18C19.8546 18 20.75 17.1046 20.75 16C20.75 15.4477 21.1977 15 21.75 15Z" fill="currentColor" style="fill:currentColor;fill-opacity:1;"/>
</svg>
