<svg width="24" height="24" viewBox="0 0 24 24" fill="none" xmlns="http://www.w3.org/2000/svg">
<path fill-rule="evenodd" clip-rule="evenodd" d="M8.29289 3.29289C8.68342 2.90237 9.31658 2.90237 9.70711 3.29289L12.7071 6.29289C13.0976 6.68342 13.0976 7.31658 12.7071 7.70711C12.3166 8.09763 11.6834 8.09763 11.2929 7.70711L10 6.41421V14H20C20.5523 14 21 14.4477 21 15C21 15.5523 20.5523 16 20 16H9.41421L4.70711 20.7071C4.31658 21.0976 3.68342 21.0976 3.29289 20.7071C2.90237 20.3166 2.90237 19.6834 3.29289 19.2929L8 14.5858V6.41421L6.70711 7.70711C6.31658 8.09763 5.68342 8.09763 5.29289 7.70711C4.90237 7.31658 4.90237 6.68342 5.29289 6.29289L8.29289 3.29289Z" fill="currentColor" style="fill:currentColor;fill-opacity:1;"/>
</svg>
