<svg width="24" height="24" viewBox="0 0 24 24" fill="none" xmlns="http://www.w3.org/2000/svg">
<path fill-rule="evenodd" clip-rule="evenodd" d="M3 12C3 7.02944 7.02944 3 12 3C14.282 3 16.4025 3.8504 18.0118 5.2544V4C18.0118 3.44772 18.4596 3 19.0118 3C19.5641 3 20.0118 3.44772 20.0118 4V8C20.0118 8.55228 19.5641 9 19.0118 9H15.0118C14.4596 9 14.0118 8.55228 14.0118 8C14.0118 7.44772 14.4596 7 15.0118 7H16.9572C15.676 5.76414 13.9105 5 12 5C8.13401 5 5 8.13401 5 12C5 12.5523 4.55228 13 4 13C3.44772 13 3 12.5523 3 12ZM11 12C11 11.4477 11.4477 11 12 11H12.01C12.5623 11 13.01 11.4477 13.01 12C13.01 12.5523 12.5623 13 12.01 13H12C11.4477 13 11 12.5523 11 12ZM20 11C20.5523 11 21 11.4477 21 12C21 16.9706 16.9706 21 12 21C9.72357 21 7.60792 20.1538 6 18.7559V20C6 20.5523 5.55228 21 5 21C4.44772 21 4 20.5523 4 20V16C4 15.4477 4.44772 15 5 15H9C9.55228 15 10 15.4477 10 16C10 16.5523 9.55228 17 9 17H7.04284C8.32397 18.2359 10.0895 19 12 19C15.866 19 19 15.866 19 12C19 11.4477 19.4477 11 20 11Z" fill="currentColor" style="fill:currentColor;fill-opacity:1;"/>
</svg>
