<svg width="24" height="24" viewBox="0 0 24 24" fill="none" xmlns="http://www.w3.org/2000/svg">
<path d="M11.002 5V6.05356C6.44611 6.54773 3 10.4216 3 16V17C3 17.5523 3.44772 18 4 18H11.002V19H4C3.44772 19 3 19.4477 3 20C3 20.5523 3.44772 21 4 21H20C20.5523 21 21 20.5523 21 20C21 19.4477 20.5523 19 20 19H13.002V18H20C20.5523 18 21 17.5523 21 17V16C21 10.4232 17.5559 6.54994 13.002 6.05398V5H14.002C14.5542 5 15.002 4.55228 15.002 4C15.002 3.44772 14.5542 3 14.002 3H10.002C9.44967 3 9.00195 3.44772 9.00195 4C9.00195 4.55228 9.44967 5 10.002 5H11.002Z" fill="currentColor" style="fill:currentColor;fill-opacity:1;"/>
</svg>
