<svg width="24" height="24" viewBox="0 0 24 24" fill="none" xmlns="http://www.w3.org/2000/svg">
<path d="M8.86944 3.07179C9.38222 3.2769 9.63164 3.85887 9.42652 4.37166L7.97519 8H16.0209L14.5696 4.37166C14.3645 3.85887 14.6139 3.2769 15.1267 3.07179C15.6394 2.86668 16.2214 3.11609 16.4265 3.62888L18.175 8H19.7995L19.8326 8.00027H19.998C20.16 8.00027 20.3129 8.03874 20.4482 8.10705C21.3532 8.41656 21.9496 9.35458 21.7672 10.3578L21.163 13.681C20.0839 12.6402 18.6157 12 16.998 12C13.6843 12 10.998 14.6863 10.998 18C10.998 19.0929 11.2902 20.1175 11.8007 21H7.5014C5.56826 21 3.91174 19.6175 3.56593 17.7155L2.22815 10.3578C2.0456 9.35374 2.64316 8.41497 3.54949 8.10627C3.6844 8.03845 3.83676 8.00027 3.99805 8.00027H4.16275L4.19589 8H5.82112L7.56957 3.62888C7.77468 3.11609 8.35665 2.86668 8.86944 3.07179Z" fill="currentColor" style="fill:currentColor;fill-opacity:1;"/>
<path fill-rule="evenodd" clip-rule="evenodd" d="M14.1696 15.1716C14.5601 14.781 15.1933 14.781 15.5838 15.1716L16.998 16.5858L18.4123 15.1716C18.8028 14.781 19.436 14.781 19.8265 15.1716C20.217 15.5621 20.217 16.1953 19.8265 16.5858L18.4123 18L19.8265 19.4142C20.217 19.8047 20.217 20.4379 19.8265 20.8284C19.436 21.219 18.8028 21.219 18.4123 20.8284L16.998 19.4142L15.5838 20.8284C15.1933 21.219 14.5601 21.219 14.1696 20.8284C13.7791 20.4379 13.7791 19.8047 14.1696 19.4142L15.5838 18L14.1696 16.5858C13.7791 16.1953 13.7791 15.5621 14.1696 15.1716Z" fill="currentColor" style="fill:currentColor;fill-opacity:1;"/>
</svg>
