<svg width="24" height="24" viewBox="0 0 24 24" fill="none" xmlns="http://www.w3.org/2000/svg">
<path d="M21.4651 10.1331C20.6095 10.6818 19.5919 11 18.5 11C15.4624 11 13 8.53757 13 5.5C13 5.33146 13.0076 5.16468 13.0224 5H5.34713L5.19529 4.089C4.99438 2.88353 3.95141 2 2.72931 2H2C1.44772 2 1 2.44772 1 3C1 3.55228 1.44772 4 2 4H2.72931C2.97373 4 3.18232 4.17671 3.22251 4.4178L4.59581 12.6576C4.91726 14.5863 6.58602 16 8.54138 16H17.0271C18.9419 16 20.5881 14.643 20.9536 12.7635L21.4651 10.1331Z" fill="currentColor" style="fill:currentColor;fill-opacity:1;"/>
<path d="M8 17C6.89543 17 6 17.8954 6 19C6 20.1046 6.89543 21 8 21C9.10457 21 10 20.1046 10 19C10 17.8954 9.10457 17 8 17Z" fill="currentColor" style="fill:currentColor;fill-opacity:1;"/>
<path d="M15 19C15 17.8954 15.8954 17 17 17C18.1046 17 19 17.8954 19 19C19 20.1046 18.1046 21 17 21C15.8954 21 15 20.1046 15 19Z" fill="currentColor" style="fill:currentColor;fill-opacity:1;"/>
<path fill-rule="evenodd" clip-rule="evenodd" d="M15.7929 2.79289C16.1834 2.40237 16.8166 2.40237 17.2071 2.79289L18.5 4.08579L19.7929 2.79289C20.1834 2.40237 20.8166 2.40237 21.2071 2.79289C21.5976 3.18342 21.5976 3.81658 21.2071 4.20711L19.9142 5.5L21.2071 6.79289C21.5976 7.18342 21.5976 7.81658 21.2071 8.20711C20.8166 8.59763 20.1834 8.59763 19.7929 8.20711L18.5 6.91421L17.2071 8.20711C16.8166 8.59763 16.1834 8.59763 15.7929 8.20711C15.4024 7.81658 15.4024 7.18342 15.7929 6.79289L17.0858 5.5L15.7929 4.20711C15.4024 3.81658 15.4024 3.18342 15.7929 2.79289Z" fill="currentColor" style="fill:currentColor;fill-opacity:1;"/>
</svg>
