<svg width="24" height="24" viewBox="0 0 24 24" fill="none" xmlns="http://www.w3.org/2000/svg">
<path fill-rule="evenodd" clip-rule="evenodd" d="M6 5C4.89543 5 4 5.89543 4 7V15C4 16.1046 4.89543 17 6 17H7C7.55228 17 8 17.4477 8 18C8 18.5523 7.55228 19 7 19H6C3.79086 19 2 17.2091 2 15V7C2 4.79086 3.79086 3 6 3H18C20.2091 3 22 4.79086 22 7V15C22 17.2091 20.2091 19 18 19H14.4142L15.7071 20.2929C16.0976 20.6834 16.0976 21.3166 15.7071 21.7071C15.3166 22.0976 14.6834 22.0976 14.2929 21.7071L11.2929 18.7071C10.9024 18.3166 10.9024 17.6834 11.2929 17.2929L14.2929 14.2929C14.6834 13.9024 15.3166 13.9024 15.7071 14.2929C16.0976 14.6834 16.0976 15.3166 15.7071 15.7071L14.4142 17H18C19.1046 17 20 16.1046 20 15V7C20 5.89543 19.1046 5 18 5H6Z" fill="currentColor" style="fill:currentColor;fill-opacity:1;"/>
</svg>
