<svg width="25" height="24" viewBox="0 0 25 24" fill="none" xmlns="http://www.w3.org/2000/svg">
<path fill-rule="evenodd" clip-rule="evenodd" d="M13.75 3C13.75 2.44772 13.3023 2 12.75 2C12.1977 2 11.75 2.44772 11.75 3V4H7.25C5.04086 4 3.25 5.79086 3.25 8V8.26756C2.6522 8.61337 2.25 9.25972 2.25 10C2.25 10.7403 2.6522 11.3866 3.25 11.7324V16C3.25 18.2091 5.04086 20 7.25 20H18.25C20.4591 20 22.25 18.2091 22.25 16V11.7324C22.8478 11.3866 23.25 10.7403 23.25 10C23.25 9.25972 22.8478 8.61337 22.25 8.26756V8C22.25 5.79086 20.4591 4 18.25 4H13.75V3ZM9.25 8.5C8.42157 8.5 7.75 9.17157 7.75 10C7.75 10.8284 8.42157 11.5 9.25 11.5C10.0784 11.5 10.75 10.8284 10.75 10C10.75 9.17157 10.0784 8.5 9.25 8.5ZM16.25 8.5C15.4216 8.5 14.75 9.17157 14.75 10C14.75 10.8284 15.4216 11.5 16.25 11.5C17.0784 11.5 17.75 10.8284 17.75 10C17.75 9.17157 17.0784 8.5 16.25 8.5ZM10.75 14C10.1977 14 9.75 14.4477 9.75 15C9.75 15.5523 10.1977 16 10.75 16H14.75C15.3023 16 15.75 15.5523 15.75 15C15.75 14.4477 15.3023 14 14.75 14H10.75Z" fill="currentColor" style="fill:currentColor;fill-opacity:1;"/>
</svg>
