<svg width="24" height="24" viewBox="0 0 24 24" fill="none" xmlns="http://www.w3.org/2000/svg">
<path fill-rule="evenodd" clip-rule="evenodd" d="M4.06189 11H4.50001C5.05229 11 5.50001 11.4477 5.50001 12C5.50001 12.5523 5.05229 13 4.50001 13H4.06189C4.1538 13.737 4.34597 14.443 4.62433 15.1036L5.00481 14.884C5.4831 14.6078 6.09469 14.7717 6.37083 15.25C6.64698 15.7283 6.4831 16.3399 6.00481 16.616L5.62576 16.8349C6.06659 17.4152 6.58485 17.9334 7.16514 18.3743L7.38398 17.9952C7.66013 17.5169 8.27172 17.353 8.75001 17.6292C9.2283 17.9053 9.39218 18.5169 9.11603 18.9952L8.89637 19.3757C9.55705 19.654 10.263 19.8462 11 19.9381V19.5C11 18.9477 11.4477 18.5 12 18.5C12.5523 18.5 13 18.9477 13 19.5V19.9381C13.737 19.8462 14.4429 19.654 15.1036 19.3757L14.884 18.9952C14.6078 18.5169 14.7717 17.9053 15.25 17.6292C15.7283 17.353 16.3399 17.5169 16.616 17.9952L16.8349 18.3742C17.4152 17.9334 17.9334 17.4152 18.3742 16.8349L17.9952 16.616C17.5169 16.3399 17.353 15.7283 17.6292 15.25C17.9053 14.7717 18.5169 14.6079 18.9952 14.884L19.3757 15.1037C19.654 14.443 19.8462 13.7371 19.9381 13H19.5C18.9477 13 18.5 12.5523 18.5 12C18.5 11.4477 18.9477 11 19.5 11H19.9381C19.8462 10.263 19.654 9.55705 19.3757 8.89635L18.9952 9.11603C18.5169 9.39217 17.9053 9.22829 17.6292 8.75C17.353 8.27171 17.5169 7.66012 17.9952 7.38397L18.3742 7.16513C17.9334 6.58484 17.4152 6.06659 16.8349 5.62576L16.616 6.00482C16.3399 6.48311 15.7283 6.64699 15.25 6.37085C14.7717 6.0947 14.6078 5.48311 14.884 5.00482L15.1037 4.62433C14.443 4.34597 13.7371 4.1538 13 4.06189V4.5C13 5.05228 12.5523 5.5 12 5.5C11.4477 5.5 11 5.05228 11 4.5V4.06189C10.263 4.1538 9.55704 4.34597 8.89634 4.62433L9.11602 5.00481C9.39216 5.48311 9.22828 6.0947 8.74999 6.37084C8.2717 6.64698 7.66011 6.48311 7.38397 6.00481L7.16512 5.62576C6.58483 6.06659 6.06658 6.58485 5.62575 7.16514L6.00481 7.38399C6.48311 7.66014 6.64698 8.27173 6.37084 8.75002C6.0947 9.22831 5.48311 9.39219 5.00481 9.11604L4.62432 8.89637C4.34597 9.55705 4.1538 10.263 4.06189 11ZM2 12C2 6.47715 6.47715 2 12 2C17.5228 2 22 6.47715 22 12C22 17.5228 17.5228 22 12 22C6.47715 22 2 17.5228 2 12ZM7.5 9C7.5 8.17157 8.17157 7.5 9 7.5C9.82843 7.5 10.5 8.17157 10.5 9C10.5 9.028 10.4992 9.05583 10.4977 9.08346L11.0864 9.67219C11.3694 9.56104 11.6776 9.5 12 9.5C12.3224 9.5 12.6306 9.56104 12.9136 9.67219L13.5023 9.08355C13.5008 9.05589 13.5 9.02804 13.5 9C13.5 8.17157 14.1716 7.5 15 7.5C15.8284 7.5 16.5 8.17157 16.5 9C16.5 9.82843 15.8284 10.5 15 10.5C14.972 10.5 14.9442 10.4992 14.9165 10.4977L14.3278 11.0864C14.439 11.3694 14.5 11.6776 14.5 12C14.5 12.3224 14.439 12.6306 14.3278 12.9136L14.9165 13.5023C14.9442 13.5008 14.972 13.5 15 13.5C15.8284 13.5 16.5 14.1716 16.5 15C16.5 15.8284 15.8284 16.5 15 16.5C14.1716 16.5 13.5 15.8284 13.5 15C13.5 14.972 13.5008 14.9441 13.5023 14.9165L12.9136 14.3278C12.6306 14.439 12.3224 14.5 12 14.5C11.6776 14.5 11.3694 14.439 11.0864 14.3278L10.4977 14.9165C10.4992 14.9442 10.5 14.972 10.5 15C10.5 15.8284 9.82843 16.5 9 16.5C8.17157 16.5 7.5 15.8284 7.5 15C7.5 14.1716 8.17157 13.5 9 13.5C9.02804 13.5 9.05589 13.5008 9.08355 13.5023L9.67219 12.9136C9.56104 12.6306 9.5 12.3224 9.5 12C9.5 11.6776 9.56104 11.3694 9.67219 11.0864L9.08355 10.4977C9.05589 10.4992 9.02804 10.5 9 10.5C8.17157 10.5 7.5 9.82843 7.5 9Z" fill="currentColor" style="fill:currentColor;fill-opacity:1;"/>
</svg>
