<svg width="24" height="24" viewBox="0 0 24 24" fill="none" xmlns="http://www.w3.org/2000/svg">
<path d="M11.9998 2C11.4475 2 10.9998 2.44772 10.9998 3C10.9998 3.55228 11.4475 4 11.9998 4C16.4181 4 19.9998 7.58172 19.9998 12C19.9998 12.5523 20.4475 13 20.9998 13C21.5521 13 21.9998 12.5523 21.9998 12C21.9998 6.47715 17.5227 2 11.9998 2Z" fill="currentColor" style="fill:currentColor;fill-opacity:1;"/>
<path d="M11.9998 5C11.4475 5 10.9998 5.44772 10.9998 6C10.9998 6.55228 11.4475 7 11.9998 7C14.7613 7 16.9998 9.23858 16.9998 12C16.9998 12.5523 17.4475 13 17.9998 13C18.5521 13 18.9998 12.5523 18.9998 12C18.9998 8.13401 15.8658 5 11.9998 5Z" fill="currentColor" style="fill:currentColor;fill-opacity:1;"/>
<path d="M8.15492 7.74087C7.33586 6.92181 6.21454 6.51669 5.15267 6.61942C4.05788 6.72533 3.03253 7.38114 2.59204 8.60353C1.32008 12.1333 2.09706 16.2394 4.92877 19.0711C7.76047 21.9028 11.8665 22.6798 15.3963 21.4078C16.6187 20.9673 17.2745 19.942 17.3804 18.8472C17.4831 17.7853 17.078 16.664 16.259 15.8449L12.914 12.5L13.7069 11.7071C14.0975 11.3166 14.0975 10.6834 13.7069 10.2929C13.3164 9.90237 12.6833 9.90237 12.2927 10.2929L11.4998 11.0858L8.15492 7.74087Z" fill="currentColor" style="fill:currentColor;fill-opacity:1;"/>
</svg>
