<svg width="24" height="24" viewBox="0 0 24 24" fill="none" xmlns="http://www.w3.org/2000/svg">
<path fill-rule="evenodd" clip-rule="evenodd" d="M6 4C3.79086 4 2 5.79086 2 8V16C2 18.2091 3.79086 20 6 20H18C20.2091 20 22 18.2091 22 16V8C22 5.79086 20.2091 4 18 4H6ZM11.9363 8.64888L11.9414 8.66264L15.8356 8.01361C16.3322 7.93083 16.813 8.23021 16.9578 8.71243C17.1025 9.19466 16.8662 9.70932 16.4061 9.91381L13.4772 11.2156L15.2142 11.0071C15.691 10.9499 16.1412 11.2398 16.2865 11.6975C16.3965 12.0442 16.3081 12.413 16.0752 12.6707L16.7966 12.5209C17.3374 12.4086 17.8668 12.7559 17.9791 13.2966C18.0914 13.8374 17.7441 14.3668 17.2034 14.4791L9.98113 15.9791C9.4951 16.0801 9.00859 15.8092 8.83839 15.3429C8.66819 14.8765 8.86584 14.356 9.30263 14.1201L10.2294 13.6196L7.11915 13.9929C6.62787 14.0518 6.16734 13.7426 6.03592 13.2656C5.9045 12.7886 6.1417 12.2871 6.59386 12.0862L8.4108 11.2787L7.1644 11.4864C6.65656 11.571 6.16745 11.2563 6.03412 10.759C5.90078 10.2617 6.16681 9.74445 6.64888 9.56367L10.6489 8.06367C11.166 7.86975 11.7424 8.13176 11.9363 8.64888Z" fill="currentColor" style="fill:currentColor;fill-opacity:1;"/>
</svg>
