<svg width="24" height="24" viewBox="0 0 24 24" fill="none" xmlns="http://www.w3.org/2000/svg">
<path fill-rule="evenodd" clip-rule="evenodd" d="M8.75869 3H15.2413C16.0463 2.99999 16.7106 2.99998 17.2518 3.04419C17.8139 3.09012 18.3306 3.18868 18.816 3.43598C19.5686 3.81947 20.1805 4.43139 20.564 5.18404C20.8113 5.66937 20.9099 6.18608 20.9558 6.74818C21 7.28936 21 7.95372 21 8.75868V15.2413C21 16.0463 21 16.7106 20.9558 17.2518C20.9099 17.8139 20.8113 18.3306 20.564 18.816C20.1805 19.5686 19.5686 20.1805 18.816 20.564C18.3306 20.8113 17.8139 20.9099 17.2518 20.9558C16.7106 21 16.0463 21 15.2413 21H8.75868C7.95372 21 7.28937 21 6.74818 20.9558C6.18608 20.9099 5.66937 20.8113 5.18404 20.564C4.43139 20.1805 3.81947 19.5686 3.43598 18.816C3.18868 18.3306 3.09012 17.8139 3.04419 17.2518C2.99998 16.7106 2.99999 16.0463 3 15.2413V8.7587C2.99999 7.95374 2.99998 7.28937 3.04419 6.74818C3.09012 6.18608 3.18868 5.66937 3.43598 5.18404C3.81947 4.43139 4.43139 3.81947 5.18404 3.43598C5.66937 3.18868 6.18608 3.09012 6.74818 3.04419C7.28937 2.99998 7.95372 2.99999 8.75869 3ZM12 7C9.23858 7 7 9.23858 7 12C7 14.7614 9.23858 17 12 17C13.0188 17 13.967 16.6948 14.7573 16.1715L12.2929 13.7071C11.9024 13.3166 11.9024 12.6834 12.2929 12.2929C12.6834 11.9024 13.3166 11.9024 13.7071 12.2929L16.1715 14.7573C16.6948 13.967 17 13.0188 17 12C17 9.23858 14.7614 7 12 7Z" fill="currentColor" style="fill:currentColor;fill-opacity:1;"/>
</svg>
