<svg width="24" height="24" viewBox="0 0 24 24" fill="none" xmlns="http://www.w3.org/2000/svg">
<path fill-rule="evenodd" clip-rule="evenodd" d="M10.6997 2.38913C11.5424 2.09946 12.4576 2.09946 13.3003 2.38913L18.9752 4.33988C20.1866 4.7563 21 5.89596 21 7.17694V11.9119C21 14.7187 19.8511 16.7414 18.1875 18.3163C16.6151 19.805 14.5552 20.9158 12.6319 21.9529L12.4748 22.0376C12.1785 22.1975 11.8215 22.1975 11.5252 22.0376L11.3681 21.9529C9.44484 20.9158 7.38493 19.805 5.8125 18.3163C4.14891 16.7414 3 14.7187 3 11.9119V7.17694C3 5.89596 3.81336 4.7563 5.02476 4.33988L10.6997 2.38913ZM13.2929 14.2071C13.6834 14.5976 14.3166 14.5976 14.7071 14.2071C15.0976 13.8166 15.0976 13.1834 14.7071 12.7929L13.4142 11.5L14.7071 10.2071C15.0976 9.81658 15.0976 9.18342 14.7071 8.79289C14.3166 8.40237 13.6834 8.40237 13.2929 8.79289L12 10.0858L10.7071 8.79289C10.3166 8.40237 9.68342 8.40237 9.29289 8.79289C8.90237 9.18342 8.90237 9.81658 9.29289 10.2071L10.5858 11.5L9.29289 12.7929C8.90237 13.1834 8.90237 13.8166 9.29289 14.2071C9.68342 14.5976 10.3166 14.5976 10.7071 14.2071L12 12.9142L13.2929 14.2071Z" fill="currentColor" style="fill:currentColor;fill-opacity:1;"/>
</svg>
