<svg width="24" height="24" viewBox="0 0 24 24" fill="none" xmlns="http://www.w3.org/2000/svg">
<path d="M13.3003 2.38913C12.4576 2.09946 11.5424 2.09946 10.6997 2.38913L5.02476 4.33988C3.81336 4.7563 3 5.89596 3 7.17694V11.9119C3 14.7187 4.14891 16.7414 5.8125 18.3163C7.38493 19.805 9.44484 20.9158 11.3681 21.9529L11.5252 22.0376C11.8215 22.1975 12.1785 22.1975 12.4748 22.0376L12.6319 21.9529C14.5552 20.9158 16.6151 19.805 18.1875 18.3163C19.8511 16.7414 21 14.7187 21 11.9119V7.17694C21 5.89596 20.1866 4.7563 18.9752 4.33988L13.3003 2.38913Z" fill="currentColor" style="fill:currentColor;fill-opacity:1;"/>
</svg>
