<svg width="24" height="24" viewBox="0 0 24 24" fill="none" xmlns="http://www.w3.org/2000/svg">
<path fill-rule="evenodd" clip-rule="evenodd" d="M12.0001 2C9.79098 2 8.00012 3.79086 8.00012 6V7.14621C6.51766 7.55897 5.36422 8.80685 5.12039 10.3918L4.04347 17.3918C3.67069 19.8148 5.54541 22 7.99695 22H13.7493C12.7998 21.1311 11.4991 19.5741 11.4991 17.4175C11.4991 16.0541 11.9376 14.7399 12.875 13.7401C13.7975 12.7561 15.0493 12.25 16.3054 12.25C16.8439 12.25 17.3283 12.3322 17.7505 12.4542C18.1648 12.3344 18.6392 12.253 19.1657 12.2501L18.8798 10.3918C18.636 8.80686 17.4826 7.55898 16.0001 7.14621V6C16.0001 3.79086 14.2093 2 12.0001 2ZM14.0001 7V6C14.0001 4.89543 13.1047 4 12.0001 4C10.8956 4 10.0001 4.89543 10.0001 6V7H14.0001Z" fill="currentColor" style="fill:currentColor;fill-opacity:1;"/>
<path fill-rule="evenodd" clip-rule="evenodd" d="M16.3054 14.25C16.9058 14.25 17.3965 14.4153 17.7505 14.5933C18.1044 14.4153 18.5952 14.25 19.1955 14.25C19.9154 14.25 20.6337 14.5392 21.1669 15.1079C21.7048 15.6818 22.0018 16.481 22.0018 17.4175C22.0018 18.9259 20.9464 20.0866 20.1146 20.7738C19.6718 21.1396 19.2219 21.43 18.8584 21.6319C18.6769 21.7328 18.5072 21.8169 18.3619 21.8792C18.2902 21.91 18.2131 21.9402 18.1365 21.9648L18.1338 21.9656C18.0872 21.9806 17.9327 22.0301 17.7505 22.0301C17.5682 22.0301 17.4137 21.9806 17.3671 21.9656L17.3644 21.9648C17.2878 21.9402 17.2107 21.91 17.139 21.8792C16.9937 21.8169 16.824 21.7328 16.6425 21.6319C16.2791 21.43 15.8292 21.1396 15.3863 20.7738C14.5545 20.0866 13.4991 18.9259 13.4991 17.4175C13.4991 16.481 13.7961 15.6818 14.3341 15.1079C14.8673 14.5392 15.5856 14.25 16.3054 14.25ZM15.4991 17.4175C15.4991 16.9091 15.6538 16.6245 15.7931 16.4758C15.9373 16.3221 16.1222 16.25 16.3054 16.25C16.5525 16.25 16.7498 16.3236 16.8878 16.3988C16.9566 16.4364 17.0068 16.4724 17.0354 16.4947C17.0467 16.5036 17.0542 16.51 17.0575 16.5128C17.4442 16.8849 18.0567 16.8849 18.4435 16.5128C18.4467 16.51 18.4542 16.5036 18.4656 16.4947C18.4941 16.4724 18.5443 16.4364 18.6131 16.3988C18.7511 16.3236 18.9484 16.25 19.1955 16.25C19.3788 16.25 19.5636 16.3221 19.7078 16.4758C19.8472 16.6245 20.0018 16.9091 20.0018 17.4175C20.0018 17.9864 19.567 18.632 18.8408 19.2318C18.5047 19.5095 18.1587 19.7327 17.8871 19.8836C17.8377 19.9111 17.792 19.9355 17.7505 19.9568C17.709 19.9355 17.6633 19.9111 17.6138 19.8836C17.3422 19.7327 16.9962 19.5095 16.6601 19.2318C15.934 18.632 15.4991 17.9864 15.4991 17.4175Z" fill="currentColor" style="fill:currentColor;fill-opacity:1;"/>
</svg>
