<svg width="24" height="24" viewBox="0 0 24 24" fill="none" xmlns="http://www.w3.org/2000/svg">
<path fill-rule="evenodd" clip-rule="evenodd" d="M8.00012 6C8.00012 3.79086 9.79098 2 12.0001 2C14.2093 2 16.0001 3.79086 16.0001 6V7.14621C17.4826 7.55898 18.636 8.80686 18.8798 10.3918L19.0191 11.2968C18.4133 11.1147 17.7882 11.0164 17.1627 11.0019C15.323 10.9593 13.4586 11.642 12.0504 13.0502C10.6421 14.4585 9.95936 16.323 10.002 18.1628C10.0331 19.506 10.451 20.8476 11.2546 22H7.99695C5.54541 22 3.67069 19.8148 4.04347 17.3918L5.12039 10.3918C5.36422 8.80685 6.51766 7.55897 8.00012 7.14621V6ZM14.0001 7V6C14.0001 4.89543 13.1047 4 12.0001 4C10.8956 4 10.0001 4.89543 10.0001 6V7H14.0001Z" fill="currentColor" style="fill:currentColor;fill-opacity:1;"/>
<path fill-rule="evenodd" clip-rule="evenodd" d="M17.1164 13.0013C15.8001 12.9709 14.4704 13.4586 13.4646 14.4645C12.4587 15.4703 11.971 16.8001 12.0015 18.1164C12.0302 19.3556 12.5182 20.5892 13.4646 21.5355C14.4704 22.5414 15.8001 23.0291 17.1164 22.9987C18.3557 22.97 19.5893 22.4819 20.5357 21.5355C21.482 20.5892 21.9701 19.3556 21.9988 18.1164C22.0293 16.8001 21.5415 15.4703 20.5357 14.4645C19.5893 13.5181 18.3557 13.03 17.1164 13.0013ZM19.708 19.2937L15.7064 15.2921C16.1354 15.0871 16.6032 14.99 17.0701 15.0008C17.8157 15.0181 18.5531 15.3104 19.1214 15.8787C19.7251 16.4823 20.0177 17.2774 19.9993 18.0701C19.9896 18.4902 19.8925 18.9076 19.708 19.2937ZM14.2922 16.7063L18.2938 20.7079C17.9077 20.8924 17.4902 20.9895 17.0701 20.9992C16.2774 21.0175 15.4824 20.725 14.8788 20.1213C14.3105 19.553 14.0182 18.8157 14.0009 18.0701C13.9901 17.6031 14.0872 17.1353 14.2922 16.7063Z" fill="currentColor" style="fill:currentColor;fill-opacity:1;"/>
</svg>
