<svg width="24" height="24" viewBox="0 0 24 24" fill="none" xmlns="http://www.w3.org/2000/svg">
<path fill-rule="evenodd" clip-rule="evenodd" d="M8.00012 6C8.00012 3.79086 9.79098 2 12.0001 2C14.2093 2 16.0001 3.79086 16.0001 6V7.14621C17.4826 7.55898 18.636 8.80686 18.8799 10.3918L19.2378 12.7185C17.8655 12.5496 16.4323 12.9919 15.3788 14.0454L11.5859 17.8383C11.2108 18.2134 11.0001 18.7221 11.0001 19.2525V22H7.99695C5.54541 22 3.67069 19.8148 4.04347 17.3918L5.12039 10.3918C5.36422 8.80685 6.51766 7.55897 8.00012 7.14621V6ZM14.0001 7V6C14.0001 4.89543 13.1047 4 12.0001 4C10.8956 4 10.0001 4.89543 10.0001 6V7H14.0001Z" fill="currentColor" style="fill:currentColor;fill-opacity:1;"/>
<path fill-rule="evenodd" clip-rule="evenodd" d="M20.5406 15.4596C19.5057 14.4248 17.8279 14.4248 16.793 15.4596L13.293 18.9596C13.1055 19.1472 13.0001 19.4015 13.0001 19.6667V22.0001C13.0001 22.5523 13.4478 23.0001 14.0001 23.0001H16.3335C16.5987 23.0001 16.853 22.8947 17.0406 22.7072L20.5406 19.2072C21.5754 18.1723 21.5754 16.4945 20.5406 15.4596ZM18.2072 16.8738C18.461 16.62 18.8725 16.62 19.1263 16.8738C19.3802 17.1276 19.3802 17.5391 19.1263 17.7929L15.9192 21.0001H15.0001V20.0809L18.2072 16.8738Z" fill="currentColor" style="fill:currentColor;fill-opacity:1;"/>
</svg>
