<svg width="24" height="24" viewBox="0 0 24 24" fill="none" xmlns="http://www.w3.org/2000/svg">
<g clip-path="url(#clip0_2011_2)">
<mask id="mask0_2011_2" style="mask-type:luminance" maskUnits="userSpaceOnUse" x="2" y="2" width="20" height="20">
<path d="M2.625 21.375H21.2403V2.62478H2.625V21.375Z" fill="white"/>
</mask>
<g mask="url(#mask0_2011_2)">
<mask id="mask1_2011_2" style="mask-type:luminance" maskUnits="userSpaceOnUse" x="-39" y="-13" width="102" height="181">
<path d="M-38.6523 -12.8877H62.5179V167.061H-38.6523V-12.8877Z" fill="white"/>
</mask>
<g mask="url(#mask1_2011_2)">
<mask id="mask2_2011_2" style="mask-type:luminance" maskUnits="userSpaceOnUse" x="6" y="20" width="2" height="2">
<path d="M6.08789 20.1591L6.4217 21.2069C6.44243 21.2722 6.48939 21.3255 6.552 21.3537C6.58331 21.3682 6.61716 21.375 6.65143 21.375C6.68358 21.375 6.71616 21.3682 6.74662 21.3549L7.751 20.9168L7.55893 20.4731L6.7995 20.8046L6.54693 20.0115L6.08789 20.1591Z" fill="white"/>
</mask>
<g mask="url(#mask2_2011_2)">
<mask id="mask3_2011_2" style="mask-type:luminance" maskUnits="userSpaceOnUse" x="2" y="2" width="20" height="20">
<path d="M2.625 21.375H21.2403V2.62478H2.625V21.375Z" fill="white"/>
</mask>
<g mask="url(#mask3_2011_2)">
<mask id="mask4_2011_2" style="mask-type:luminance" maskUnits="userSpaceOnUse" x="5" y="19" width="3" height="3">
<path d="M5.99805 21.375H7.75167V19.8912H5.99805V21.375Z" fill="white"/>
</mask>
<g mask="url(#mask4_2011_2)">
<mask id="mask5_2011_2" style="mask-type:luminance" maskUnits="userSpaceOnUse" x="6" y="20" width="2" height="2">
<path d="M7.75295 20.0115V21.375L6.08984 21.375V20.0115H7.75295Z" fill="white"/>
</mask>
<g mask="url(#mask5_2011_2)">
<path d="M6.08984 21.375H7.75295V20.0115H6.08984V21.375Z" fill="currentColor"/>
</g>
<mask id="mask6_2011_2" style="mask-type:luminance" maskUnits="userSpaceOnUse" x="6" y="20" width="2" height="2">
<path d="M7.75295 20.0115V21.375L6.08984 21.375V20.0115H7.75295Z" fill="white"/>
</mask>
<g mask="url(#mask6_2011_2)">
<path d="M5.99805 21.375H7.88656V19.8912H5.99805V21.375Z" fill="currentColor"/>
</g>
</g>
</g>
</g>
</g>
<mask id="mask7_2011_2" style="mask-type:luminance" maskUnits="userSpaceOnUse" x="-39" y="-13" width="102" height="181">
<path d="M-38.6523 -12.8877H62.5179V167.061H-38.6523V-12.8877Z" fill="white"/>
</mask>
<g mask="url(#mask7_2011_2)">
<mask id="mask8_2011_2" style="mask-type:luminance" maskUnits="userSpaceOnUse" x="2" y="2" width="20" height="19">
<path d="M10.6228 2.71114L10.6854 3.19111C11.3784 3.09939 12.0972 3.08487 12.7945 3.14845L12.8385 2.66634C12.5389 2.63904 12.2356 2.62539 11.9318 2.62539C11.4931 2.62539 11.0531 2.65397 10.6228 2.71114ZM13.6313 3.26322C14.3277 3.39077 15.0059 3.5977 15.649 3.87801L15.8402 3.43387C15.1637 3.13863 14.4495 2.92105 13.7185 2.78708L13.6313 3.26322ZM7.6541 3.60239L7.86437 4.03756C8.49475 3.72996 9.16406 3.4953 9.85409 3.33958L9.7479 2.86686C9.02233 3.03112 8.31791 3.27857 7.6541 3.60239ZM16.4067 4.25174C17.0265 4.59475 17.6023 5.00946 18.1168 5.48431L18.4425 5.1272C17.8997 4.62676 17.2922 4.18945 16.6385 3.82808L16.4067 4.25174ZM5.1258 5.40708L5.46722 5.74882C5.96011 5.25221 6.5173 4.81235 7.12314 4.44287L6.8731 4.02903C6.23468 4.41898 5.64661 4.88232 5.1258 5.40708ZM18.7095 6.08672C19.1821 6.61832 19.5827 7.20323 19.9 7.82571L20.3282 7.60428C19.9927 6.94554 19.5688 6.32606 19.0683 5.76419L18.7095 6.08672ZM3.35481 7.96906L3.79353 8.16915C4.0808 7.5326 4.45396 6.92976 4.90157 6.37768L4.52884 6.07093C4.05415 6.65586 3.659 7.29411 3.35481 7.96906ZM20.2431 8.59707C20.4949 9.25666 20.6569 9.94654 20.7242 10.6479L21.2031 10.6014C21.1324 9.85694 20.9603 9.12397 20.6924 8.423L20.2431 8.59707ZM2.62669 11.0046L3.10731 11.0272C3.14073 10.3224 3.2685 9.6257 3.48765 8.95588L3.03031 8.80442C2.79719 9.51563 2.66096 10.2563 2.62669 11.0046ZM20.4509 13.5751L20.9133 13.7104C21.121 12.9923 21.2314 12.2478 21.2403 11.4974L20.7589 11.4914C20.7504 12.1983 20.6468 12.8989 20.4509 13.5751ZM2.625 11.895C2.65038 12.7163 2.7405 13.4386 2.89915 14.102L3.3675 13.989C3.21646 13.3575 3.131 12.6672 3.10646 11.8796L2.625 11.895ZM19.125 16.1998L19.5074 16.4929C19.9631 15.8935 20.3362 15.2416 20.618 14.5564L20.1729 14.3725C19.9072 15.0184 19.5552 15.6332 19.125 16.1998ZM3.15681 14.963C3.42546 15.6972 3.79015 16.3363 4.27288 16.9136L4.6418 16.603C4.19546 16.068 3.85742 15.4775 3.60907 14.7962L3.15681 14.963ZM16.9664 18.2029L17.2287 18.6086C17.8557 18.1995 18.4286 17.7178 18.9324 17.1764L18.5809 16.8457C18.1036 17.3581 17.5608 17.8142 16.9664 18.2029ZM4.89649 17.5642C5.05303 17.7076 5.22015 17.8471 5.39488 17.9798L5.81795 19.31L6.27657 19.162L5.8298 17.7588C5.81457 17.7105 5.78453 17.6683 5.74434 17.638C5.55988 17.5002 5.38345 17.3551 5.22015 17.2058L4.89649 17.5642ZM14.2697 19.3881L14.389 19.857C15.11 19.6718 15.8063 19.4035 16.4608 19.0604L16.2379 18.6308C15.6164 18.9576 14.9547 19.2123 14.2697 19.3881ZM9.88286 19.4589L8.35471 20.1258L8.54679 20.5703L9.99667 19.9368C10.1608 19.982 10.2937 20.0161 10.4109 20.0426L10.5175 19.5703C10.3889 19.5408 10.2382 19.5024 10.0428 19.4478C10.0216 19.4418 10.0001 19.4389 9.97848 19.4389C9.9459 19.4389 9.91333 19.4457 9.88286 19.4589ZM11.9293 19.6825C11.6814 19.6825 11.4948 19.6812 11.3302 19.6752L11.3124 20.1595C11.4846 20.1654 11.6763 20.1667 11.9293 20.1667C12.4628 20.1667 12.998 20.1236 13.5196 20.0396L13.4426 19.5609C12.9464 19.6419 12.437 19.6825 11.9293 19.6825Z" fill="white"/>
</mask>
<g mask="url(#mask8_2011_2)">
<mask id="mask9_2011_2" style="mask-type:luminance" maskUnits="userSpaceOnUse" x="2" y="2" width="20" height="20">
<path d="M2.625 21.375H21.2403V2.62478H2.625V21.375Z" fill="white"/>
</mask>
<g mask="url(#mask9_2011_2)">
<mask id="mask10_2011_2" style="mask-type:luminance" maskUnits="userSpaceOnUse" x="2" y="2" width="20" height="19">
<path d="M2.625 20.7012H21.2403V2.62542H2.625V20.7012Z" fill="white"/>
</mask>
<g mask="url(#mask10_2011_2)">
<mask id="mask11_2011_2" style="mask-type:luminance" maskUnits="userSpaceOnUse" x="2" y="2" width="20" height="19">
<path d="M21.2403 2.62539V20.5703L2.625 20.5703L2.625 2.62539H21.2403Z" fill="white"/>
</mask>
<g mask="url(#mask11_2011_2)">
<path d="M2.625 20.5703H21.2403V2.62539H2.625V20.5703Z" fill="currentColor"/>
</g>
<mask id="mask12_2011_2" style="mask-type:luminance" maskUnits="userSpaceOnUse" x="2" y="2" width="20" height="19">
<path d="M21.2403 2.62539V20.5703L2.625 20.5703L2.625 2.62539H21.2403Z" fill="white"/>
</mask>
<g mask="url(#mask12_2011_2)">
<path d="M2.625 20.7012H21.2403V2.62542H2.625V20.7012Z" fill="currentColor"/>
</g>
</g>
</g>
</g>
</g>
<mask id="mask13_2011_2" style="mask-type:luminance" maskUnits="userSpaceOnUse" x="-39" y="-13" width="102" height="181">
<path d="M-38.6523 -12.8877H62.5179V167.061H-38.6523V-12.8877Z" fill="white"/>
</mask>
<g mask="url(#mask13_2011_2)">
<mask id="mask14_2011_2" style="mask-type:luminance" maskUnits="userSpaceOnUse" x="4" y="4" width="16" height="16">
<path d="M7.60309 19.2285C7.56459 19.2285 7.52609 19.2191 7.49097 19.2004C7.41778 19.1615 7.36955 19.0882 7.3632 19.005L7.1779 16.6111C6.39225 16.0125 5.78132 15.2403 5.36121 14.3136C4.9466 13.4006 4.73633 12.3814 4.73633 11.2862C4.73633 7.54667 8.02532 4.50387 12.0678 4.50387C16.1099 4.50387 19.3993 7.54667 19.3993 11.2862C19.3993 15.0261 16.1099 18.0689 12.0678 18.0689C11.3955 18.0689 10.73 17.9849 10.0874 17.818L7.72409 19.1957C7.68643 19.2174 7.64497 19.2285 7.60309 19.2285Z" fill="white"/>
</mask>
<g mask="url(#mask14_2011_2)">
<mask id="mask15_2011_2" style="mask-type:luminance" maskUnits="userSpaceOnUse" x="2" y="2" width="20" height="20">
<path d="M2.625 21.375H21.2403V2.62478H2.625V21.375Z" fill="white"/>
</mask>
<g mask="url(#mask15_2011_2)">
<path d="M4.0625 3.82876H20.0744V19.9023H4.0625V3.82876Z" fill="currentColor"/>
</g>
</g>
</g>
</g>
</g>
<defs>
<clipPath id="clip0_2011_2">
<rect width="24" height="24" fill="white"/>
</clipPath>
</defs>
</svg>
