<svg width="24" height="24" viewBox="0 0 24 24" fill="none" xmlns="http://www.w3.org/2000/svg">
<path fill-rule="evenodd" clip-rule="evenodd" d="M12 2C16.5563 2 20.25 5.69365 20.25 10.25C20.25 14.8063 16.5563 18.5 12 18.5C7.44365 18.5 3.75 14.8063 3.75 10.25C3.75 5.69365 7.44365 2 12 2ZM11.918 6C11.3565 6.00005 10.8634 6.10339 10.4385 6.30957C10.0161 6.51333 9.68775 6.80402 9.4541 7.18164C9.36115 7.33195 9.28645 7.49426 9.23047 7.66699C9.08191 8.12623 9.49476 8.5283 9.97754 8.52832C10.4478 8.52832 10.746 8.37755 10.9824 7.93848C11.0719 7.77706 11.1965 7.6538 11.3555 7.56934C11.5145 7.48244 11.7 7.43945 11.9111 7.43945C12.1198 7.43948 12.3053 7.4805 12.4668 7.5625C12.6282 7.64452 12.7548 7.76156 12.8467 7.91309C12.9385 8.06212 12.9843 8.24205 12.9844 8.45312C12.9844 8.64205 12.9462 8.81792 12.8691 8.97949C12.7921 9.13849 12.6798 9.29706 12.5332 9.45605C12.3865 9.61266 12.2088 9.78569 12 9.97461L9.52637 12.1406C9.32857 12.3139 9.21497 12.5642 9.21484 12.8271C9.21484 13.3314 9.62373 13.741 10.1279 13.7412H14.124C14.5347 13.7411 14.8681 13.4078 14.8682 12.9971C14.8682 12.5863 14.5348 12.253 14.124 12.2529H11.8066C11.7882 12.2529 11.7727 12.2382 11.7725 12.2197C11.7725 12.2103 11.7773 12.2007 11.7842 12.1943L12.6865 11.3623C13.2408 10.8801 13.668 10.4656 13.9688 10.1201C14.272 9.77459 14.4828 9.45872 14.5996 9.17285C14.7163 8.8871 14.7744 8.59834 14.7744 8.30762C14.7743 7.85041 14.656 7.44893 14.4199 7.10352C14.1863 6.75572 13.856 6.48484 13.4287 6.29102C13.0012 6.09712 12.4972 6 11.918 6Z" fill="currentColor"/>
<path d="M16.5 22C16.5 22.3138 16.3531 22.6099 16.1025 22.7988C15.8521 22.9877 15.5272 23.048 15.2256 22.9619L12 22.04L8.77441 22.9619C8.47281 23.048 8.14787 22.9877 7.89746 22.7988C7.64695 22.6099 7.5 22.3138 7.5 22V18.6182C8.83945 19.34 10.3718 19.75 12 19.75C13.6282 19.75 15.1605 19.34 16.5 18.6182V22Z" fill="currentColor"/>
</svg>
