<svg width="24" height="24" viewBox="0 0 24 24" fill="none" xmlns="http://www.w3.org/2000/svg">
<path d="M12 4C12.5523 4 13 3.55228 13 3V2C13 1.44772 12.5523 1 12 1C11.4477 1 11 1.44772 11 2V3C11 3.55228 11.4477 4 12 4Z" fill="currentColor" style="fill:currentColor;fill-opacity:1;"/>
<path d="M6.34317 6.34312C6.73369 5.9526 6.73369 5.31943 6.34317 4.92891L5.63606 4.2218C5.24554 3.83128 4.61237 3.83128 4.22185 4.2218C3.83132 4.61233 3.83132 5.24549 4.22185 5.63602L4.92895 6.34312C5.31948 6.73365 5.95264 6.73365 6.34317 6.34312Z" fill="currentColor" style="fill:currentColor;fill-opacity:1;"/>
<path d="M17.6569 6.34315C18.0474 6.73367 18.6805 6.73367 19.0711 6.34315L19.7782 5.63604C20.1687 5.24552 20.1687 4.61235 19.7782 4.22183C19.3877 3.8313 18.7545 3.8313 18.364 4.22183L17.6569 4.92893C17.2663 5.31946 17.2663 5.95262 17.6569 6.34315Z" fill="currentColor" style="fill:currentColor;fill-opacity:1;"/>
<path d="M4 12C4 11.4477 3.55228 11 3 11H2C1.44772 11 1 11.4477 1 12C1 12.5523 1.44772 13 2 13H3C3.55228 13 4 12.5523 4 12Z" fill="currentColor" style="fill:currentColor;fill-opacity:1;"/>
<path d="M23 12C23 11.4477 22.5523 11 22 11H21C20.4477 11 20 11.4477 20 12C20 12.5523 20.4477 13 21 13H22C22.5523 13 23 12.5523 23 12Z" fill="currentColor" style="fill:currentColor;fill-opacity:1;"/>
<path d="M18 16V12C18 8.68629 15.3137 6 12 6C8.68629 6 6 8.68629 6 12V16H11V14C11 13.4477 11.4477 13 12 13C12.5523 13 13 13.4477 13 14V16H18Z" fill="currentColor" style="fill:currentColor;fill-opacity:1;"/>
<path d="M20 20C20 18.3431 18.6569 17 17 17H7C5.34315 17 4 18.3431 4 20C4 21.1046 4.89543 22 6 22H18C19.1046 22 20 21.1046 20 20Z" fill="currentColor" style="fill:currentColor;fill-opacity:1;"/>
</svg>
