<svg width="24" height="24" viewBox="0 0 24 24" fill="none" xmlns="http://www.w3.org/2000/svg">
<path fill-rule="evenodd" clip-rule="evenodd" d="M8 2C5.79086 2 4 3.79086 4 6V14C4 16.2091 5.79086 18 8 18C8 20.2091 9.79086 22 12 22H16C18.2091 22 20 20.2091 20 18V10C20 7.79086 18.2091 6 16 6C16 3.79086 14.2091 2 12 2H8ZM12 6H14C14 4.89543 13.1046 4 12 4H8C6.89543 4 6 4.89543 6 6V14C6 15.1046 6.89543 16 8 16V10C8 7.79086 9.79086 6 12 6Z" fill="currentColor" style="fill:currentColor;fill-opacity:1;"/>
</svg>
