<svg width="24" height="24" viewBox="0 0 24 24" fill="none" xmlns="http://www.w3.org/2000/svg">
<path fill-rule="evenodd" clip-rule="evenodd" d="M2 8C2 5.79086 3.79086 4 6 4H14C16.2091 4 18 5.79086 18 8C20.2091 8 22 9.79086 22 12V16C22 18.2091 20.2091 20 18 20H10C7.79086 20 6 18.2091 6 16C3.79086 16 2 14.2091 2 12V8ZM6 12V14C4.89543 14 4 13.1046 4 12V8C4 6.89543 4.89543 6 6 6H14C15.1046 6 16 6.89543 16 8H10C7.79086 8 6 9.79086 6 12Z" fill="currentColor" style="fill:currentColor;fill-opacity:1;"/>
</svg>
