<svg width="24" height="24" viewBox="0 0 24 24" fill="none" xmlns="http://www.w3.org/2000/svg">
<path fill-rule="evenodd" clip-rule="evenodd" d="M6 4C3.79086 4 2 5.79086 2 8V12C2 14.2091 3.79086 16 6 16C6 18.2091 7.79086 20 10 20H18C20.2091 20 22 18.2091 22 16V12C22 9.79086 20.2091 8 18 8C18 5.79086 16.2091 4 14 4H6ZM6 14V12C6 9.79086 7.79086 8 10 8H16C16 6.89543 15.1046 6 14 6H6C4.89543 6 4 6.89543 4 8V12C4 13.1046 4.89543 14 6 14ZM12 15C11.4477 15 11 14.5523 11 14C11 13.4477 11.4477 13 12 13H13V12C13 11.4477 13.4477 11 14 11C14.5523 11 15 11.4477 15 12V13H16C16.5523 13 17 13.4477 17 14C17 14.5523 16.5523 15 16 15H15V16C15 16.5523 14.5523 17 14 17C13.4477 17 13 16.5523 13 16V15H12Z" fill="currentColor" style="fill:currentColor;fill-opacity:1;"/>
</svg>
