<svg width="24" height="24" viewBox="0 0 24 24" fill="none" xmlns="http://www.w3.org/2000/svg">
<path d="M8.8198 3.57799L10.2366 4.60739C11.2881 5.37132 12.7119 5.37132 13.7634 4.60739L15.1802 3.57799M8.8198 3.57799C9.80859 3.20443 10.8804 3 12 3C13.1196 3 14.1914 3.20443 15.1802 3.57799M8.8198 3.57799C7.2983 4.15282 5.97341 5.12811 4.97371 6.37531M4.97371 6.37531C3.73871 7.91606 3 9.87176 3 12C3 12.1409 3.00324 12.2811 3.00965 12.4204M4.97371 6.37531L5.51412 8.03851C5.91574 9.27458 5.47577 10.6287 4.42431 11.3926L3.00965 12.4204M3.00965 12.4204C3.08627 14.0867 3.61602 15.6348 4.47854 16.9443M4.47854 16.9443H6.22815C7.52783 16.9443 8.6797 17.7812 9.08132 19.0172L9.62244 20.6826M4.47854 16.9443C5.66664 18.748 7.48614 20.099 9.62244 20.6826M9.62244 20.6826C10.3798 20.8895 11.177 21 12 21C12.823 21 13.6202 20.8895 14.3776 20.6826M14.3776 20.6826L14.9187 19.0172C15.3203 17.7812 16.4722 16.9443 17.7719 16.9443H19.5215M14.3776 20.6826C16.5139 20.099 18.3334 18.748 19.5215 16.9443M19.5215 16.9443C20.384 15.6348 20.9137 14.0867 20.9904 12.4204M20.9904 12.4204C20.9968 12.2811 21 12.1409 21 12C21 9.87176 20.2613 7.91606 19.0263 6.37531M20.9904 12.4204L19.5757 11.3926C18.5242 10.6287 18.0843 9.27458 18.4859 8.03851L19.0263 6.37531M19.0263 6.37531C18.0266 5.12811 16.7017 4.15282 15.1802 3.57799M9.69174 12.75V12.75C10.0167 13.75 10.9485 14.4271 12 14.4271V14.4271C13.0515 14.4271 13.9833 13.75 14.3083 12.75V12.75C14.6332 11.75 14.2772 10.6545 13.4266 10.0365V10.0365C12.5759 9.41844 11.4241 9.41844 10.5734 10.0365V10.0365C9.72276 10.6545 9.36682 11.75 9.69174 12.75Z" stroke="currentColor" stroke-width="2" stroke-linejoin="round"/>
</svg>
