<svg width="24" height="24" viewBox="0 0 24 24" fill="none" xmlns="http://www.w3.org/2000/svg">
<path d="M3 9V8C3 5.79086 4.79086 4 7 4H17C19.2091 4 21 5.79086 21 8V9H20C18.3431 9 17 10.3431 17 12H7C7 10.3431 5.65685 9 4 9H3Z" fill="currentColor" style="fill:currentColor;fill-opacity:1;"/>
<path d="M3 11C1.89543 11 1 11.8954 1 13V14C1 15.8638 2.27477 17.4299 4 17.874V19C4 19.5523 4.44772 20 5 20C5.55228 20 6 19.5523 6 19V18H18V19C18 19.5523 18.4477 20 19 20C19.5523 20 20 19.5523 20 19V17.874C21.7252 17.4299 23 15.8638 23 14V13C23 11.8954 22.1046 11 21 11C19.8954 11 19 11.8954 19 13V14H5V13C5 11.8954 4.10457 11 3 11Z" fill="currentColor" style="fill:currentColor;fill-opacity:1;"/>
</svg>
