<svg width="24" height="24" viewBox="0 0 24 24" fill="none" xmlns="http://www.w3.org/2000/svg">
<path fill-rule="evenodd" clip-rule="evenodd" d="M15.0007 3C15.553 3 16.0145 3.45467 15.8783 3.98988C15.4378 5.72024 13.8692 7 12.0017 7C10.1342 7 8.56565 5.72024 8.12514 3.98988C7.98888 3.45467 8.45041 3 9.0027 3C11.2779 3 12.7256 3 15.0007 3Z" fill="currentColor" style="fill:currentColor;fill-opacity:1;"/>
<path fill-rule="evenodd" clip-rule="evenodd" d="M3.00171 4C3.00171 3.44772 3.44942 3 4.00171 3H5.00171C5.55399 3 6.00171 3.44772 6.00171 4C6.00171 4.55228 5.55399 5 5.00171 5H4.00171C3.44942 5 3.00171 4.55228 3.00171 4ZM18.0017 4C18.0017 3.44772 18.4494 3 19.0017 3H20.0017C20.554 3 21.0017 3.44772 21.0017 4C21.0017 4.55228 20.554 5 20.0017 5H19.0017C18.4494 5 18.0017 4.55228 18.0017 4ZM12.0017 9C12.554 9 13.0017 9.44772 13.0017 10V11C13.0017 11.5523 12.554 12 12.0017 12C11.4494 12 11.0017 11.5523 11.0017 11V10C11.0017 9.44772 11.4494 9 12.0017 9Z" fill="currentColor" style="fill:currentColor;fill-opacity:1;"/>
<path fill-rule="evenodd" clip-rule="evenodd" d="M7.70882 7.54289C8.09934 7.93342 8.09934 8.56658 7.70882 8.95711L6.95882 9.70711C6.56829 10.0976 5.93513 10.0976 5.5446 9.70711C5.15408 9.31658 5.15408 8.68342 5.5446 8.29289L6.2946 7.54289C6.68513 7.15237 7.31829 7.15237 7.70882 7.54289Z" fill="currentColor" style="fill:currentColor;fill-opacity:1;"/>
<path fill-rule="evenodd" clip-rule="evenodd" d="M16.2946 7.54289C15.9041 7.93342 15.9041 8.56658 16.2946 8.95711L17.0446 9.70711C17.4351 10.0976 18.0683 10.0976 18.4588 9.70711C18.8493 9.31658 18.8493 8.68342 18.4588 8.29289L17.7088 7.54289C17.3183 7.15237 16.6851 7.15237 16.2946 7.54289Z" fill="currentColor" style="fill:currentColor;fill-opacity:1;"/>
<path d="M11.0017 16C11.0017 15.4477 10.554 15 10.0017 15H5.61977C4.86222 15 4.1697 15.428 3.83091 16.1056L2.83091 18.1056C2.16601 19.4354 3.13301 21 4.61977 21H10.0017C10.554 21 11.0017 20.5523 11.0017 20V16Z" fill="currentColor" style="fill:currentColor;fill-opacity:1;"/>
<path d="M13.0017 20C13.0017 20.5523 13.4494 21 14.0017 21H19.3837C20.8705 21 21.8375 19.4354 21.1726 18.1056L20.1726 16.1056C19.8338 15.428 19.1412 15 18.3837 15H14.0017C13.4494 15 13.0017 15.4477 13.0017 16V20Z" fill="currentColor" style="fill:currentColor;fill-opacity:1;"/>
</svg>
