<svg width="24" height="24" viewBox="0 0 24 24" fill="none" xmlns="http://www.w3.org/2000/svg">
  <path fill-rule="evenodd" clip-rule="evenodd"
    d="M10.449 18.1047V6.80992C10.449 6.45022 10.5546 6.23572 10.7658 6.16642C12.2146 5.81581 13.7423 6.02356 15.0448 6.74832C15.933 7.23425 16.685 7.93551 17.2316 8.78772C17.7856 9.64237 18.1183 10.6215 18.1996 11.6367C18.6196 11.4562 19.0724 11.3645 19.5295 11.3672C20.4854 11.3672 21.3027 11.7104 21.9814 12.3957C22.6601 13.081 23 13.9049 23 14.8663C23 15.8354 22.6601 16.6626 21.9814 17.3479C21.3027 18.0332 20.4887 18.3753 19.5394 18.3753L10.6338 18.3643C10.5747 18.3459 10.525 18.3053 10.4952 18.251C10.4677 18.2069 10.4518 18.1566 10.449 18.1047ZM8.0532 17.8044C8.0532 18.185 8.3062 18.3753 8.8111 18.3753C9.3171 18.3753 9.569 18.185 9.569 17.8033V7.42372C9.569 6.84182 9.382 6.44582 9.0421 6.40292C8.8122 6.37322 8.5999 6.37322 8.3821 6.56022C8.1621 6.74722 8.0532 7.08492 8.0532 7.42372V17.8044ZM5.6992 17.7725C5.6992 17.9738 5.7707 18.1245 5.9137 18.2246C6.0567 18.3247 6.2415 18.3753 6.467 18.3753C6.65738 18.3832 6.84534 18.3304 7.0038 18.2246C7.1435 18.1245 7.2139 17.9738 7.2139 17.7736V11.3672C7.21566 11.2655 7.19711 11.1645 7.15934 11.07C7.12156 10.9756 7.06532 10.8897 6.9939 10.8172C6.92678 10.7444 6.84509 10.6864 6.75412 10.6472C6.66316 10.608 6.56496 10.5883 6.4659 10.5895C6.3647 10.5881 6.26429 10.6076 6.17097 10.6467C6.07766 10.6859 5.99344 10.744 5.9236 10.8172C5.85093 10.8889 5.79358 10.9747 5.755 11.0692C5.71643 11.1638 5.69745 11.2651 5.6992 11.3672V17.7725ZM3.354 17.4403C3.354 17.6416 3.4244 17.7923 3.5641 17.8924C3.7038 17.9925 3.8831 18.0431 4.102 18.0431C4.3275 18.0431 4.509 17.9925 4.6498 17.8924C4.7895 17.7923 4.8588 17.6416 4.8588 17.4414V10.4234C4.86033 10.3239 4.84162 10.2251 4.8038 10.133C4.76598 10.0409 4.70985 9.95746 4.6388 9.88772C4.56954 9.81552 4.4861 9.75842 4.39373 9.71999C4.30135 9.68157 4.20203 9.66265 4.102 9.66442C4.00334 9.66314 3.90548 9.68231 3.8146 9.72075C3.72372 9.75918 3.6418 9.81604 3.574 9.88772C3.50309 9.95733 3.44703 10.0406 3.40922 10.1325C3.3714 10.2244 3.35262 10.323 3.354 10.4223V17.4403ZM1 16.1533C1 16.4305 1.099 16.6395 1.297 16.7814C1.38636 16.8496 1.48903 16.8982 1.59836 16.9241C1.70769 16.9501 1.82125 16.9528 1.9317 16.9321C2.1429 16.8903 2.2914 16.8144 2.3772 16.7033C2.4619 16.5933 2.5048 16.4096 2.5048 16.1533V13.1426C2.50682 13.0417 2.48837 12.9414 2.45056 12.8478C2.41275 12.7543 2.35636 12.6693 2.2848 12.5981C2.21541 12.5258 2.1318 12.4686 2.03922 12.4302C1.94665 12.3917 1.84712 12.3729 1.7469 12.3748C1.64843 12.3738 1.5508 12.393 1.46014 12.4315C1.36947 12.4699 1.28771 12.5266 1.22 12.5981C1.0737 12.7466 1 12.9281 1 13.1426V16.1533Z"
    fill="currentColor" />
</svg>
