<svg width="25" height="24" viewBox="0 0 25 24" fill="none" xmlns="http://www.w3.org/2000/svg">
<path d="M13.7078 2.71265C13.5809 2.28967 13.1916 2 12.75 2C12.3084 2 11.9191 2.28967 11.7922 2.71265C11.0728 5.11046 10.1404 6.82042 8.85539 8.10539C7.57042 9.39036 5.86046 10.3228 3.46265 11.0422C3.03967 11.1691 2.75 11.5584 2.75 12C2.75 12.4416 3.03967 12.8309 3.46265 12.9578C5.86046 13.6772 7.57042 14.6096 8.85539 15.8946C10.1404 17.1796 11.0728 18.8895 11.7922 21.2873C11.9191 21.7103 12.3084 22 12.75 22C13.1916 22 13.5809 21.7103 13.7078 21.2873C14.4272 18.8895 15.3596 17.1796 16.6446 15.8946C17.9296 14.6096 19.6395 13.6772 22.0373 12.9578C22.4603 12.8309 22.75 12.4416 22.75 12C22.75 11.5584 22.4603 11.1691 22.0373 11.0422C19.6395 10.3228 17.9296 9.39036 16.6446 8.10539C15.3596 6.82042 14.4272 5.11046 13.7078 2.71265Z" fill="currentColor" style="fill:currentColor;fill-opacity:1;"/>
</svg>
