<svg width="25" height="24" viewBox="0 0 25 24" fill="none" xmlns="http://www.w3.org/2000/svg">
<path d="M16.75 8C16.75 7.44772 16.3023 7 15.75 7C15.1977 7 14.75 7.44772 14.75 8C14.75 10.3085 14.2392 11.7424 13.3658 12.6158C12.4924 13.4892 11.0585 14 8.75 14C8.19772 14 7.75 14.4477 7.75 15C7.75 15.5523 8.19772 16 8.75 16C11.0585 16 12.4924 16.5108 13.3658 17.3842C14.2392 18.2576 14.75 19.6915 14.75 22C14.75 22.5523 15.1977 23 15.75 23C16.3023 23 16.75 22.5523 16.75 22C16.75 19.6915 17.2608 18.2576 18.1342 17.3842C19.0076 16.5108 20.4415 16 22.75 16C23.3023 16 23.75 15.5523 23.75 15C23.75 14.4477 23.3023 14 22.75 14C20.4415 14 19.0076 13.4892 18.1342 12.6158C17.2608 11.7424 16.75 10.3085 16.75 8Z" fill="currentColor" style="fill:currentColor;fill-opacity:1;"/>
<path d="M8.25 2C8.25 1.44772 7.80228 1 7.25 1C6.69772 1 6.25 1.44772 6.25 2C6.25 3.44043 5.93016 4.24938 5.46477 4.71477C4.99938 5.18016 4.19043 5.5 2.75 5.5C2.19772 5.5 1.75 5.94772 1.75 6.5C1.75 7.05228 2.19772 7.5 2.75 7.5C4.19043 7.5 4.99938 7.81984 5.46477 8.28523C5.93016 8.75062 6.25 9.55957 6.25 11C6.25 11.5523 6.69772 12 7.25 12C7.80228 12 8.25 11.5523 8.25 11C8.25 9.55957 8.56984 8.75062 9.03523 8.28523C9.50062 7.81984 10.3096 7.5 11.75 7.5C12.3023 7.5 12.75 7.05228 12.75 6.5C12.75 5.94772 12.3023 5.5 11.75 5.5C10.3096 5.5 9.50062 5.18016 9.03523 4.71477C8.56984 4.24938 8.25 3.44043 8.25 2Z" fill="currentColor" style="fill:currentColor;fill-opacity:1;"/>
</svg>
