<svg width="24" height="24" viewBox="0 0 24 24" fill="none" xmlns="http://www.w3.org/2000/svg">
<path d="M7.0001 3.73194L4.33984 5.26784C3.10224 5.98237 2.33984 7.30288 2.33984 8.73194V9.88672L7.0001 12.5773V3.73194Z" fill="currentColor" style="fill:currentColor;fill-opacity:1;"/>
<path d="M2.33984 12.1961V15.2678C2.33984 16.6969 3.10224 18.0174 4.33985 18.7319L5.33997 19.3094L10.0002 16.6188L2.33984 12.1961Z" fill="currentColor" style="fill:currentColor;fill-opacity:1;"/>
<path d="M7.33997 20.4641L10.0001 21.9999C11.2377 22.7144 12.7625 22.7144 14.0001 21.9999L15.0001 21.4225V16.0415L7.33997 20.4641Z" fill="currentColor" style="fill:currentColor;fill-opacity:1;"/>
<path d="M17.0001 20.2678L19.6604 18.7319C20.898 18.0174 21.6604 16.6969 21.6604 15.2678V14.1132L17.0001 11.4226V20.2678Z" fill="currentColor" style="fill:currentColor;fill-opacity:1;"/>
<path d="M21.6604 11.8038V8.73194C21.6604 7.30288 20.898 5.98237 19.6604 5.26784L18.6605 4.69056L14.0002 7.3812L21.6604 11.8038Z" fill="currentColor" style="fill:currentColor;fill-opacity:1;"/>
<path d="M16.6605 3.53586L14.0001 1.99989C12.7625 1.28536 11.2377 1.28536 10.0001 1.99989L9.0001 2.57724V7.95859L16.6605 3.53586Z" fill="currentColor" style="fill:currentColor;fill-opacity:1;"/>
<path d="M12.0002 15.4641L9.0001 13.732V10.268L12.0002 8.5359L15.0001 10.2679V13.7321L12.0002 15.4641Z" fill="currentColor" style="fill:currentColor;fill-opacity:1;"/>
</svg>
