<svg width="24" height="24" viewBox="0 0 24 24" fill="none" xmlns="http://www.w3.org/2000/svg">
<path fill-rule="evenodd" clip-rule="evenodd" d="M6.50391 3C7.05619 3 7.50391 3.44772 7.50391 4V16C7.50391 16.5523 7.05619 17 6.50391 17C5.95162 17 5.50391 16.5523 5.50391 16V4C5.50391 3.44772 5.95162 3 6.50391 3ZM13.5039 4C14.0562 4 14.5039 4.44772 14.5039 5V8.5C14.5039 9.05228 14.0562 9.5 13.5039 9.5C12.9516 9.5 12.5039 9.05228 12.5039 8.5V5C12.5039 4.44772 12.9516 4 13.5039 4ZM10.0039 6C10.5562 6 11.0039 6.44772 11.0039 7V13C11.0039 13.5523 10.5562 14 10.0039 14C9.45162 14 9.00391 13.5523 9.00391 13V7C9.00391 6.44772 9.45162 6 10.0039 6ZM3.00391 8C3.55619 8 4.00391 8.44772 4.00391 9V11C4.00391 11.5523 3.55619 12 3.00391 12C2.45162 12 2.00391 11.5523 2.00391 11V9C2.00391 8.44772 2.45162 8 3.00391 8ZM12.5039 12C12.5039 11.4477 12.9516 11 13.5039 11H21.5039C22.0562 11 22.5039 11.4477 22.5039 12V13.5556C22.5039 14.1078 22.0562 14.5556 21.5039 14.5556C20.9516 14.5556 20.5039 14.1078 20.5039 13.5556V13H18.5039V19H19.0039C19.5562 19 20.0039 19.4477 20.0039 20C20.0039 20.5523 19.5562 21 19.0039 21H16.0039C15.4516 21 15.0039 20.5523 15.0039 20C15.0039 19.4477 15.4516 19 16.0039 19H16.5039V13H14.5039V13.5556C14.5039 14.1078 14.0562 14.5556 13.5039 14.5556C12.9516 14.5556 12.5039 14.1078 12.5039 13.5556V12Z" fill="currentColor"/>
</svg>
