<svg width="24" height="24" viewBox="0 0 24 24" fill="none" xmlns="http://www.w3.org/2000/svg">
<path fill-rule="evenodd" clip-rule="evenodd" d="M8.7587 3L15.2413 3C16.0463 2.99999 16.7106 2.99998 17.2518 3.04419C17.8139 3.09012 18.3306 3.18868 18.816 3.43598C19.5686 3.81947 20.1805 4.43139 20.564 5.18404C20.8113 5.66937 20.9099 6.18608 20.9558 6.74818C21 7.28937 21 7.95372 21 8.75868V9C21 9.55229 20.5523 10 20 10C19.4477 10 19 9.55229 19 9V8.8C19 7.94342 18.9992 7.36113 18.9625 6.91104C18.9266 6.47262 18.8617 6.24842 18.782 6.09202C18.5903 5.7157 18.2843 5.40974 17.908 5.21799C17.7516 5.1383 17.5274 5.07337 17.089 5.03755C16.6389 5.00078 16.0566 5 15.2 5L8.8 5C7.94342 5 7.36113 5.00078 6.91104 5.03755C6.47262 5.07337 6.24842 5.1383 6.09202 5.21799C5.7157 5.40973 5.40973 5.7157 5.21799 6.09202C5.1383 6.24842 5.07337 6.47262 5.03755 6.91104C5.00078 7.36113 5 7.94342 5 8.8L5 15.2C5 16.0566 5.00078 16.6389 5.03755 17.089C5.07337 17.5274 5.1383 17.7516 5.21799 17.908C5.40973 18.2843 5.7157 18.5903 6.09202 18.782C6.24842 18.8617 6.47262 18.9266 6.91104 18.9624C7.36113 18.9992 7.94342 19 8.8 19H9C9.55229 19 10 19.4477 10 20C10 20.5523 9.55229 21 9 21H8.75868C7.95372 21 7.28936 21 6.74817 20.9558C6.18608 20.9099 5.66937 20.8113 5.18404 20.564C4.43139 20.1805 3.81947 19.5686 3.43597 18.816C3.18868 18.3306 3.09012 17.8139 3.04419 17.2518C2.99998 16.7106 2.99999 16.0463 3 15.2413L3 8.75871C2.99999 7.95373 2.99998 7.28937 3.04419 6.74817C3.09012 6.18608 3.18868 5.66937 3.43598 5.18404C3.81947 4.43139 4.43139 3.81947 5.18404 3.43597C5.66937 3.18868 6.18608 3.09012 6.74818 3.04419C7.28937 2.99998 7.95373 2.99999 8.7587 3ZM10.2929 10.2929C10.6834 9.90237 11.3166 9.90237 11.7071 10.2929L19 17.5858V14C19 13.4477 19.4477 13 20 13C20.5523 13 21 13.4477 21 14V20C21 20.5523 20.5523 21 20 21H14C13.4477 21 13 20.5523 13 20C13 19.4477 13.4477 19 14 19H17.5858L10.2929 11.7071C9.90237 11.3166 9.90237 10.6834 10.2929 10.2929Z" fill="currentColor" style="fill:currentColor;fill-opacity:1;"/>
</svg>
