<svg width="24" height="24" viewBox="0 0 24 24" fill="none" xmlns="http://www.w3.org/2000/svg">
<path d="M10 5C10 4.44772 10.4477 4 11 4C11.5523 4 12 3.55228 12 3C12 2.44772 11.5523 2 11 2C9.34315 2 8 3.34315 8 5C8 5.55228 8.44772 6 9 6C9.55228 6 10 5.55228 10 5Z" fill="currentColor" style="fill:currentColor;fill-opacity:1;"/>
<path d="M14 2C13.4477 2 13 2.44772 13 3C13 3.55228 13.4477 4 14 4H16C16.5523 4 17 3.55228 17 3C17 2.44772 16.5523 2 16 2H14Z" fill="currentColor" style="fill:currentColor;fill-opacity:1;"/>
<path d="M19 2C18.4477 2 18 2.44772 18 3C18 3.55228 18.4477 4 19 4C19.5523 4 20 4.44772 20 5C20 5.55228 20.4477 6 21 6C21.5523 6 22 5.55228 22 5C22 3.34315 20.6569 2 19 2Z" fill="currentColor" style="fill:currentColor;fill-opacity:1;"/>
<path d="M10 8C10 7.44772 9.55228 7 9 7C8.44772 7 8 7.44772 8 8H5.25C3.45508 8 2 9.45507 2 11.25V18.75C2 20.5449 3.45507 22 5.25 22H12.75C14.5449 22 16 20.5449 16 18.75V16C16.5523 16 17 15.5523 17 15C17 14.4477 16.5523 14 16 14V11.25C16 9.45507 14.5449 8 12.75 8H10Z" fill="currentColor" style="fill:currentColor;fill-opacity:1;"/>
<path d="M22 8C22 7.44772 21.5523 7 21 7C20.4477 7 20 7.44772 20 8V10C20 10.5523 20.4477 11 21 11C21.5523 11 22 10.5523 22 10V8Z" fill="currentColor" style="fill:currentColor;fill-opacity:1;"/>
<path d="M22 13C22 12.4477 21.5523 12 21 12C20.4477 12 20 12.4477 20 13C20 13.5523 19.5523 14 19 14C18.4477 14 18 14.4477 18 15C18 15.5523 18.4477 16 19 16C20.6569 16 22 14.6569 22 13Z" fill="currentColor" style="fill:currentColor;fill-opacity:1;"/>
</svg>
