<svg width="24" height="24" viewBox="0 0 24 24" fill="none" xmlns="http://www.w3.org/2000/svg">
<path fill-rule="evenodd" clip-rule="evenodd" d="M2 8C2 5.79086 3.79086 4 6 4H18C20.2091 4 22 5.79086 22 8V16C22 18.2091 20.2091 20 18 20H6C3.79086 20 2 18.2091 2 16V8ZM19.1919 17.6062L17.1716 15.5858C16.7965 15.2107 16.2878 15 15.7574 15H8.24264C7.71221 15 7.2035 15.2107 6.82843 15.5858L4.80805 17.6062C5.14093 17.8536 5.55337 18 6 18H18C18.4466 18 18.8591 17.8536 19.1919 17.6062Z" fill="currentColor" style="fill:currentColor;fill-opacity:1;"/>
</svg>
