<svg width="24" height="24" viewBox="0 0 24 24" fill="none" xmlns="http://www.w3.org/2000/svg">
<path fill-rule="evenodd" clip-rule="evenodd" d="M13.6077 2.79421C14.0463 2.45859 14.1298 1.83095 13.7942 1.39235C13.4585 0.953742 12.8309 0.870263 12.3923 1.20589C11.7045 1.73219 11.2846 2.35384 11.2462 3.09589C11.2141 3.71603 11.4757 4.25216 11.6156 4.53889L11.6358 4.58039C11.7305 4.77586 11.7742 4.88142 11.7946 4.93423C11.7489 4.97618 11.663 5.04204 11.5088 5.12903C11.0277 5.40033 10.8577 6.01023 11.129 6.49129C11.4003 6.97234 12.0102 7.14238 12.4912 6.87108C13.1826 6.48118 13.7269 5.94429 13.8038 5.16721C13.8627 4.57157 13.5945 4.02956 13.4638 3.76563C13.4535 3.74464 13.4439 3.72542 13.4355 3.70807C13.2623 3.35078 13.2407 3.2539 13.2435 3.19939C13.2436 3.19568 13.2438 3.1749 13.2746 3.12532C13.3128 3.06386 13.4032 2.9507 13.6077 2.79421Z" fill="currentColor" style="fill:currentColor;fill-opacity:1;"/>
<path fill-rule="evenodd" clip-rule="evenodd" d="M8.49776 3.86736C8.97677 3.59246 9.14222 2.98129 8.86731 2.50229C8.59241 2.02329 7.98124 1.85783 7.50224 2.13274C6.86309 2.49955 6.30055 3.01994 6.24722 3.79182C6.20781 4.36222 6.49359 4.84078 6.64022 5.06629L6.61043 5.07905C6.10178 5.2942 5.86385 5.88096 6.079 6.38962C6.29415 6.89827 6.88091 7.1362 7.38957 6.92105C7.98861 6.66767 8.69303 6.24341 8.80005 5.43238C8.84965 5.05647 8.74231 4.74242 8.64961 4.54058C8.56698 4.36066 8.45741 4.19169 8.39034 4.08827L8.37553 4.0654C8.35438 4.03268 8.33633 4.00394 8.32095 3.97886C8.36476 3.94787 8.42246 3.91058 8.49776 3.86736Z" fill="currentColor" style="fill:currentColor;fill-opacity:1;"/>
<path fill-rule="evenodd" clip-rule="evenodd" d="M18.3673 4.50229C18.6422 4.98129 18.4768 5.59246 17.9978 5.86736C17.9225 5.91058 17.8648 5.94787 17.8209 5.97886C17.8363 6.00394 17.8544 6.03268 17.8755 6.0654L17.8903 6.08827C17.9574 6.1917 18.067 6.3607 18.1496 6.54058C18.2423 6.74242 18.3496 7.05647 18.3 7.43238C18.193 8.24341 17.4886 8.66767 16.8896 8.92105C16.3809 9.1362 15.7942 8.89827 15.579 8.38962C15.3639 7.88096 15.6018 7.2942 16.1104 7.07905L16.1402 7.06629C15.9936 6.84078 15.7078 6.36222 15.7472 5.79182C15.8006 5.01994 16.3631 4.49955 17.0022 4.13274C17.4812 3.85783 18.0924 4.02328 18.3673 4.50229Z" fill="currentColor" style="fill:currentColor;fill-opacity:1;"/>
<path d="M8.61973 8.01319C6.00781 7.82212 3.58506 9.52191 2.5373 12.2037C1.87179 13.9072 1.82311 15.841 2.39911 17.5834C3.09298 19.6824 4.18206 21.1072 5.56232 21.9669C7.12717 20.0753 8.09008 18.4251 8.58648 16.4767C9.1214 14.3771 9.13918 11.8355 8.62912 8.13665C8.6234 8.0952 8.62031 8.05399 8.61973 8.01319Z" fill="currentColor" style="fill:currentColor;fill-opacity:1;"/>
<path d="M7.48665 22.7686C9.24259 23.1993 11.1603 22.9773 12.9788 22.5239C14.6869 22.098 16.9556 21.3755 18.7799 20.1879C16.0637 17.6656 12.4618 17.8237 10.1799 18.2409C10.163 18.244 10.1461 18.2466 10.1292 18.2488C9.54065 19.8562 8.65608 21.2927 7.48665 22.7686Z" fill="currentColor" style="fill:currentColor;fill-opacity:1;"/>
<path d="M21.9181 14.1072C22.2589 16.1249 21.513 17.7111 20.3452 18.9171C17.2703 15.8916 13.2982 15.7977 10.7102 16.1341C11.1073 14.0467 11.0838 11.6666 10.7162 8.67388C10.7415 8.68878 10.7665 8.70361 10.7909 8.71832L13.0063 10.049C13.3141 10.2339 13.5574 10.348 13.782 10.3966C14.3776 10.5255 15.0108 10.5171 15.7234 10.4714C15.8542 10.463 15.991 10.4529 16.1318 10.4425C16.7065 10.4002 17.3505 10.3528 17.9462 10.3924C18.7281 10.4444 19.561 10.6477 20.2967 11.2585C21.0223 11.8609 21.5403 12.7658 21.8934 13.9983L21.9088 14.0521L21.9181 14.1072Z" fill="currentColor" style="fill:currentColor;fill-opacity:1;"/>
</svg>
