<svg width="24" height="24" viewBox="0 0 24 24" fill="none" xmlns="http://www.w3.org/2000/svg">
<path fill-rule="evenodd" clip-rule="evenodd" d="M13 2C13 1.44772 12.5523 1 12 1C11.4477 1 11 1.44772 11 2V2.65378C10.6296 2.45519 10.2485 2.30301 9.89343 2.18768C8.64744 1.78298 7.27807 1.68062 6.49383 1.79247C6.17027 1.83639 5.8198 1.94936 5.52909 2.20446C5.21977 2.4759 5.07174 2.82593 5.03064 3.16062C4.95944 3.74042 5.20267 4.30365 5.38749 4.66095C5.58937 5.05126 5.85487 5.43813 6.09024 5.75117C5.09918 6.32277 4.35985 7.08136 3.85385 7.99923C3.2305 9.12995 3 10.4312 3 11.7839C3 14.1329 4.26301 16.6608 5.91044 18.5648C7.53823 20.4461 9.79062 22 12 22C14.2094 22 16.4618 20.4461 18.0896 18.5648C19.737 16.6608 21 14.1329 21 11.7839C21 10.4312 20.7695 9.12995 20.1462 7.99923C19.6401 7.08136 18.9008 6.32278 17.9098 5.75118C18.1451 5.43813 18.4106 5.05126 18.6125 4.66095C18.7973 4.30365 19.0406 3.74042 18.9694 3.16061C18.9283 2.82593 18.7802 2.4759 18.4709 2.20446C18.1802 1.94936 17.8297 1.83639 17.5062 1.79247C16.7219 1.68062 15.3526 1.78298 14.1066 2.18768C13.7515 2.30302 13.3704 2.45521 13 2.65381V2ZM9.47984 5.21162C9.06898 5.14948 8.60841 5.08841 8.13479 5.1016L8.13298 5.09948C7.96136 4.8991 7.45293 4.29724 7.16792 3.7498C7.69629 3.74935 8.50226 3.83868 9.2756 4.08986C10.3184 4.42855 10.8925 4.91938 11.0229 5.44172C10.6674 5.40175 10.3215 5.34587 9.97005 5.28911C9.8083 5.26298 9.64538 5.23666 9.47984 5.21162ZM14.0299 5.28911C13.6786 5.34587 13.3327 5.40174 12.9771 5.44171C13.1076 4.91936 13.6817 4.42854 14.7244 4.08986C15.4978 3.83868 16.3037 3.74935 16.8321 3.7498C16.5471 4.29724 16.0386 4.89911 15.867 5.09948L15.8652 5.1016C15.3916 5.08841 14.931 5.14948 14.5202 5.21162C14.3546 5.23666 14.1917 5.26298 14.0299 5.28911ZM12 12.5C12.5523 12.5 13 11.8284 13 11C13 10.1716 12.5523 9.5 12 9.5C11.4477 9.5 11 10.1716 11 11C11 11.8284 11.4477 12.5 12 12.5ZM9 11C9 11.8284 8.55228 12.5 8 12.5C7.44772 12.5 7 11.8284 7 11C7 10.1716 7.44772 9.5 8 9.5C8.55228 9.5 9 10.1716 9 11ZM16 12.5C16.5523 12.5 17 11.8284 17 11C17 10.1716 16.5523 9.5 16 9.5C15.4477 9.5 15 10.1716 15 11C15 11.8284 15.4477 12.5 16 12.5ZM15 15.5C15 16.3284 14.5523 17 14 17C13.4477 17 13 16.3284 13 15.5C13 14.6716 13.4477 14 14 14C14.5523 14 15 14.6716 15 15.5ZM10 17C10.5523 17 11 16.3284 11 15.5C11 14.6716 10.5523 14 10 14C9.44772 14 9 14.6716 9 15.5C9 16.3284 9.44772 17 10 17Z" fill="currentColor" style="fill:currentColor;fill-opacity:1;"/>
</svg>
