<svg width="24" height="24" viewBox="0 0 24 24" fill="none" xmlns="http://www.w3.org/2000/svg">
<path fill-rule="evenodd" clip-rule="evenodd" d="M9.17112 3.16425C10.7332 1.60215 13.2659 1.60215 14.828 3.16425L14.9325 3.26879C15.2887 3.62495 15.7717 3.82504 16.2754 3.82504C18.4288 3.82504 20.1745 5.57074 20.1745 7.72417C20.1745 8.22786 20.3746 8.71091 20.7308 9.06707L20.8353 9.17161C22.3974 10.7337 22.3974 13.2664 20.8353 14.8285L20.7308 14.933C20.3746 15.2892 20.1745 15.7722 20.1745 16.2759C20.1745 18.4293 18.4288 20.175 16.2754 20.175C15.7717 20.175 15.2887 20.3751 14.9325 20.7313L14.828 20.8358C13.2659 22.3979 10.7332 22.3979 9.17112 20.8358L9.06658 20.7313C8.71042 20.3751 8.22737 20.175 7.72369 20.175C5.57025 20.175 3.82455 18.4293 3.82455 16.2759C3.82455 15.7722 3.62446 15.2892 3.2683 14.933L3.16376 14.8285C1.60166 13.2664 1.60166 10.7337 3.16376 9.17161L3.2683 9.06707C3.62446 8.71091 3.82455 8.22786 3.82455 7.72417C3.82455 5.57074 5.57025 3.82504 7.72369 3.82504C8.22737 3.82504 8.71042 3.62495 9.06658 3.26879L9.17112 3.16425ZM15.3187 10.3235C15.6355 9.87107 15.5254 9.24754 15.073 8.93083C14.6205 8.61411 13.997 8.72415 13.6803 9.1766L10.8193 13.2636L9.65802 12.2475C9.24238 11.8838 8.61062 11.9259 8.24693 12.3416C7.88325 12.7572 7.92537 13.389 8.34101 13.7526L10.341 15.5026C10.5547 15.6897 10.8379 15.777 11.1198 15.7428C11.4018 15.7086 11.6559 15.5562 11.8187 15.3235L15.3187 10.3235Z" fill="currentColor" style="fill:currentColor;fill-opacity:1;"/>
</svg>
