<svg width="24" height="24" viewBox="0 0 24 24" fill="none" xmlns="http://www.w3.org/2000/svg">
<path fill-rule="evenodd" clip-rule="evenodd" d="M8.12602 5H7C4.79086 5 3 6.79086 3 9V17C3 18.8638 4.27477 20.4299 6 20.874V21C6 21.5523 6.44772 22 7 22C7.55228 22 8 21.5523 8 21H16C16 21.5523 16.4477 22 17 22C17.5523 22 18 21.5523 18 21V20.874C19.7252 20.4299 21 18.8638 21 17V9C21 6.79086 19.2091 5 17 5H15.874C15.4299 3.27477 13.8638 2 12 2C10.1362 2 8.57006 3.27477 8.12602 5ZM10.2676 5H13.7324C13.3866 4.4022 12.7403 4 12 4C11.2597 4 10.6134 4.4022 10.2676 5ZM9 9C9.55228 9 10 9.44772 10 10V16C10 16.5523 9.55228 17 9 17C8.44772 17 8 16.5523 8 16V10C8 9.44772 8.44772 9 9 9ZM15 9C15.5523 9 16 9.44772 16 10V16C16 16.5523 15.5523 17 15 17C14.4477 17 14 16.5523 14 16V10C14 9.44772 14.4477 9 15 9Z" fill="currentColor" style="fill:currentColor;fill-opacity:1;"/>
</svg>
