<svg width="24" height="24" viewBox="0 0 24 24" fill="none" xmlns="http://www.w3.org/2000/svg">
<path fill-rule="evenodd" clip-rule="evenodd" d="M10.5 3C11.0523 3 11.5 3.44772 11.5 4H19C19.5523 4 20 4.44772 20 5C20 5.55228 19.5523 6 19 6C19 6.55228 18.5523 7 18 7C17.4477 7 17 6.55228 17 6H4V16H9C9.55228 16 10 16.4477 10 17C10 17.5523 9.55228 18 9 18H2C1.44772 18 1 17.5523 1 17C1 16.4477 1.44772 16 2 16V6C1.44772 6 1 5.55228 1 5C1 4.44772 1.44772 4 2 4H9.5C9.5 3.44772 9.94772 3 10.5 3ZM14 12C14 10.3431 15.3431 9 17 9C18.6569 9 20 10.3431 20 12C20 13.6569 18.6569 15 17 15C15.3431 15 14 13.6569 14 12ZM12.1132 18.5347C12.9085 16.7147 14.8256 15.5 17 15.5C19.1744 15.5 21.0915 16.7147 21.8868 18.5347C22.1693 19.1812 22.0196 19.8423 21.6428 20.3035C21.2835 20.7434 20.729 21 20.1447 21H13.8553C13.271 21 12.7165 20.7434 12.3572 20.3035C11.9804 19.8423 11.8307 19.1812 12.1132 18.5347Z" fill="currentColor" style="fill:currentColor;fill-opacity:1;"/>
</svg>
