<svg width="24" height="24" viewBox="0 0 24 24" fill="none" xmlns="http://www.w3.org/2000/svg">
<path d="M3 5H18M3 5V17M3 5H2M18 5H19M18 5V6M3 17H2M3 17H9M10.5 5V4M19 12C19 13.1046 18.1046 14 17 14C15.8954 14 15 13.1046 15 12C15 10.8954 15.8954 10 17 10C18.1046 10 19 10.8954 19 12ZM17 16.5C15.1898 16.5 13.6528 17.5089 13.0295 18.9351C12.7926 19.4774 13.2636 20 13.8553 20H20.1447C20.7364 20 21.2075 19.4774 20.9705 18.9351C20.3472 17.5089 18.8102 16.5 17 16.5Z" stroke="currentColor" stroke-width="2" stroke-linecap="round" stroke-linejoin="round"/>
</svg>
