<svg width="24" height="24" viewBox="0 0 24 24" fill="none" xmlns="http://www.w3.org/2000/svg">
<path d="M15.0343 4.52781C13.9963 4.9056 13.4611 6.05328 13.8389 7.09124L15.72 12.2595C16.0978 13.2975 17.2455 13.8327 18.2835 13.4549L22.0422 12.0868C23.0802 11.709 23.6154 10.5613 23.2376 9.52339L21.3565 4.35508C20.9787 3.31712 19.831 2.78195 18.793 3.15973L15.0343 4.52781Z" fill="currentColor"/>
<path d="M6.96236 10.1263C6.67902 9.34781 7.0804 8.48705 7.85886 8.20371L12.0875 6.66462L14.6526 13.7123L11.9991 14.6781V18.9999H13.9991C14.5514 18.9999 14.9991 19.4477 14.9991 19.9999C14.9991 20.5522 14.5514 20.9999 13.9991 20.9999H7.99913C7.44685 20.9999 6.99913 20.5522 6.99913 19.9999C6.99913 19.4477 7.44685 18.9999 7.99913 18.9999H9.99913V15.3397C9.35415 15.3779 8.73374 14.9931 8.50145 14.3549L6.96236 10.1263Z" fill="currentColor"/>
<path d="M1.36725 13.7587C0.989468 12.7208 1.52464 11.5731 2.5626 11.1953L5.38168 10.1692L7.26279 15.3375L4.44371 16.3636C3.40575 16.7414 2.25807 16.2062 1.88028 15.1683L1.36725 13.7587Z" fill="currentColor"/>
</svg>
