<svg width="24" height="24" viewBox="0 0 24 24" fill="none" xmlns="http://www.w3.org/2000/svg">
<path fill-rule="evenodd" clip-rule="evenodd" d="M10.9064 4.57711C10.7421 4.22504 10.3888 4 10.0002 4C9.61171 4 9.25836 4.22504 9.09406 4.57711L2.09406 19.5771C1.8605 20.0776 2.07688 20.6726 2.57735 20.9062C3.07782 21.1397 3.67287 20.9234 3.90642 20.4229L5.97064 15.9996C5.98047 15.9999 5.99034 16 6.00024 16H14.0002C14.0101 16 14.02 15.9999 14.0298 15.9996L16.0941 20.4229C16.3276 20.9234 16.9227 21.1397 17.4231 20.9062C17.9236 20.6726 18.14 20.0776 17.9064 19.5771L10.9064 4.57711ZM10.0002 7.36471L13.0967 14H6.90377L10.0002 7.36471Z" fill="currentColor" style="fill:currentColor;fill-opacity:1;"/>
<path d="M19.2244 2.31034C19.0356 2.11216 18.7739 2 18.5002 2C18.2266 2 17.9648 2.11216 17.7761 2.31034L17.7747 2.31177L17.7725 2.31416L17.7653 2.32181L17.7405 2.34824C17.7196 2.3707 17.69 2.40276 17.6529 2.44354C17.5788 2.52504 17.4746 2.64174 17.3504 2.78671C17.1028 3.07554 16.7708 3.48207 16.4365 3.95001C16.1045 4.41488 15.7565 4.95945 15.488 5.52319C15.2267 6.0719 15.0002 6.72163 15.0002 7.375C15.0002 9.2095 16.4989 11 18.5002 11C20.5016 11 22.0002 9.2095 22.0002 7.375C22.0002 6.72163 21.7738 6.0719 21.5125 5.52319C21.244 4.95945 20.896 4.41488 20.564 3.95001C20.2297 3.48207 19.8977 3.07554 19.6501 2.78671C19.5259 2.64174 19.4217 2.52504 19.3476 2.44354C19.3105 2.40276 19.2809 2.3707 19.26 2.34824L19.2352 2.32181L19.228 2.31416L19.2257 2.31177L19.2244 2.31034Z" fill="currentColor" style="fill:currentColor;fill-opacity:1;"/>
</svg>
