<svg width="24" height="24" viewBox="0 0 24 24" fill="none" xmlns="http://www.w3.org/2000/svg">
<path d="M6 4C4.34315 4 3 5.34315 3 7C3 8.65685 4.34315 10 6 10C7.65685 10 9 8.65685 9 7C9 5.34315 7.65685 4 6 4Z" fill="currentColor" style="fill:currentColor;fill-opacity:1;"/>
<path d="M13 4.5C12.4477 4.5 12 4.94772 12 5.5C12 6.05228 12.4477 6.5 13 6.5H20C20.5523 6.5 21 6.05228 21 5.5C21 4.94772 20.5523 4.5 20 4.5H13Z" fill="currentColor" style="fill:currentColor;fill-opacity:1;"/>
<path d="M13 7.5C12.4477 7.5 12 7.94772 12 8.5C12 9.05228 12.4477 9.5 13 9.5H17C17.5523 9.5 18 9.05228 18 8.5C18 7.94772 17.5523 7.5 17 7.5H13Z" fill="currentColor" style="fill:currentColor;fill-opacity:1;"/>
<path d="M6 14C4.34315 14 3 15.3431 3 17C3 18.6569 4.34315 20 6 20C7.65685 20 9 18.6569 9 17C9 15.3431 7.65685 14 6 14Z" fill="currentColor" style="fill:currentColor;fill-opacity:1;"/>
<path d="M13 14.5C12.4477 14.5 12 14.9477 12 15.5C12 16.0523 12.4477 16.5 13 16.5H20C20.5523 16.5 21 16.0523 21 15.5C21 14.9477 20.5523 14.5 20 14.5H13Z" fill="currentColor" style="fill:currentColor;fill-opacity:1;"/>
<path d="M13 17.5C12.4477 17.5 12 17.9477 12 18.5C12 19.0523 12.4477 19.5 13 19.5H17C17.5523 19.5 18 19.0523 18 18.5C18 17.9477 17.5523 17.5 17 17.5H13Z" fill="currentColor" style="fill:currentColor;fill-opacity:1;"/>
</svg>
