<svg width="24" height="24" viewBox="0 0 24 24" fill="none" xmlns="http://www.w3.org/2000/svg">
<path fill-rule="evenodd" clip-rule="evenodd" d="M11.0039 10V6.55234C11.0039 5.64406 10.6948 4.76281 10.1274 4.05356L9.09712 2.76574C8.70993 2.28175 8.12372 2 7.50391 2C6.88409 2 6.29788 2.28175 5.91069 2.76574L4.88043 4.05356C4.31303 4.76282 4.00391 5.64406 4.00391 6.55234V10H3C2.44772 10 2 10.4477 2 11V17C2 19.2091 3.79086 21 6 21H18C20.2091 21 22 19.2091 22 17V11C22 10.4477 21.5523 10 21 10H20V4C20 2.89543 19.1046 2 18 2H14C12.8954 2 12 2.89543 12 4V10H11.0039ZM7.50391 4C7.49166 4 7.48008 4.00557 7.47243 4.01513L6.44217 5.30295C6.15847 5.65758 6.00391 6.0982 6.00391 6.55234V10H9.00391V6.55234C9.00391 6.0982 8.84934 5.65758 8.56564 5.30295L7.53539 4.01513C7.52773 4.00557 7.51615 4 7.50391 4ZM14 10H18V4H14V6H15.0039C15.5562 6 16.0039 6.44772 16.0039 7C16.0039 7.55228 15.5562 8 15.0039 8H14V10Z" fill="currentColor" style="fill:currentColor;fill-opacity:1;"/>
</svg>
