<svg width="24" height="24" viewBox="0 0 24 24" fill="none" xmlns="http://www.w3.org/2000/svg">
<path d="M8 3C8 2.44772 7.55228 2 7 2C6.44772 2 6 2.44772 6 3V9.12602C4.27477 9.57006 3 11.1362 3 13V15C3 16.8638 4.27477 18.4299 6 18.874V21C6 21.5523 6.44772 22 7 22C7.55228 22 8 21.5523 8 21V18.874C9.72523 18.4299 11 16.8638 11 15V13C11 11.1362 9.72523 9.57006 8 9.12602V3Z" fill="currentColor" style="fill:currentColor;fill-opacity:1;"/>
<path d="M18 3C18 2.44772 17.5523 2 17 2C16.4477 2 16 2.44772 16 3V5.12602C14.2748 5.57006 13 7.13616 13 9V15C13 16.8638 14.2748 18.4299 16 18.874V21C16 21.5523 16.4477 22 17 22C17.5523 22 18 21.5523 18 21V18.874C19.7252 18.4299 21 16.8638 21 15V9C21 7.13616 19.7252 5.57006 18 5.12602V3Z" fill="currentColor" style="fill:currentColor;fill-opacity:1;"/>
</svg>
