<svg width="24" height="24" viewBox="0 0 24 24" fill="none" xmlns="http://www.w3.org/2000/svg">
<path fill-rule="evenodd" clip-rule="evenodd" d="M7.4173 5C8.18876 3.23448 9.94971 2 12.0009 2C14.0522 2 15.8131 3.23448 16.5846 5H21C21.5523 5 22 5.44772 22 6C22 6.55228 21.5523 7 21 7H19.9356L19.1845 18.2661C19.0444 20.3673 17.2992 22 15.1933 22H8.80666C6.7008 22 4.9556 20.3673 4.81552 18.2661L4.06445 7H3C2.44772 7 2 6.55228 2 6C2 5.44772 2.44772 5 3 5H7.4173ZM9.76461 5C10.3143 4.38612 11.113 4 12.0009 4C12.8889 4 13.6876 4.38612 14.2373 5H9.76461Z" fill="currentColor" style="fill:currentColor;fill-opacity:1;"/>
</svg>
