<svg width="24" height="24" viewBox="0 0 24 24" fill="none" xmlns="http://www.w3.org/2000/svg">
<path fill-rule="evenodd" clip-rule="evenodd" d="M12 2C7.02944 2 3 6.02944 3 11C3 15.6326 6.50005 19.4476 11 19.9451V21C11 21.5523 11.4477 22 12 22C12.5523 22 13 21.5523 13 21V19.9451C17.5 19.4476 21 15.6326 21 11C21 6.02944 16.9706 2 12 2ZM11 17.9291V15.4142L9.29289 13.7071C8.90237 13.3166 8.90237 12.6834 9.29289 12.2929C9.68342 11.9024 10.3166 11.9024 10.7071 12.2929L12 13.5858L14.2929 11.2929C14.6834 10.9024 15.3166 10.9024 15.7071 11.2929C16.0976 11.6834 16.0976 12.3166 15.7071 12.7071L13 15.4142V17.9291C12.6734 17.9758 12.3395 18 12 18C11.6605 18 11.3266 17.9758 11 17.9291Z" fill="currentColor" style="fill:currentColor;fill-opacity:1;"/>
</svg>
