<svg width="24" height="24" viewBox="0 0 24 24" fill="none" xmlns="http://www.w3.org/2000/svg">
<path fill-rule="evenodd" clip-rule="evenodd" d="M12.8642 5.00398L9.87898 14.6088C9.30105 16.4683 6.68468 16.4938 6.07168 14.6448L4.89129 11.0842L3.92265 13.3973C3.70932 13.9067 3.12342 14.1468 2.614 13.9334C2.10458 13.7201 1.86454 13.1342 2.07787 12.6248L3.04734 10.3097C3.76299 8.60077 6.20702 8.69731 6.78924 10.4535L7.96955 14.0138L10.9548 4.40874C11.5613 2.45721 14.3465 2.56085 14.8113 4.54729L18.1925 18.996L20.0567 13.6853C20.2396 13.1642 20.8104 12.89 21.3315 13.073C21.8526 13.2559 22.1267 13.8266 21.9438 14.3477L20.079 19.6602C19.4146 21.5531 16.7013 21.4011 16.2454 19.4526L12.8642 5.00398Z" fill="currentColor" style="fill:currentColor;fill-opacity:1;"/>
</svg>
