<svg width="24" height="24" viewBox="0 0 24 24" fill="none" xmlns="http://www.w3.org/2000/svg">
<path fill-rule="evenodd" clip-rule="evenodd" d="M22 12C22 17.5228 17.5228 22 12 22C6.47715 22 2 17.5228 2 12C2 6.47715 6.47715 2 12 2C17.5228 2 22 6.47715 22 12ZM12.4999 10C12.4999 8.95066 13.3506 8.1 14.3999 8.1H15.8999C16.9492 8.1 17.7999 8.95066 17.7999 10C17.7999 10.4971 17.397 10.9 16.8999 10.9C16.4028 10.9 15.9999 10.4971 15.9999 10C15.9999 9.94477 15.9551 9.9 15.8999 9.9H14.3999C14.3447 9.9 14.2999 9.94477 14.2999 10V11C14.2999 11.0552 14.3447 11.1 14.3999 11.1H15.8999C16.9492 11.1 17.7999 11.9507 17.7999 13V14C17.7999 15.0493 16.9492 15.9 15.8999 15.9H14.3999C13.3506 15.9 12.4999 15.0493 12.4999 14C12.4999 13.5029 12.9028 13.1 13.3999 13.1C13.897 13.1 14.2999 13.5029 14.2999 14C14.2999 14.0552 14.3447 14.1 14.3999 14.1H15.8999C15.9551 14.1 15.9999 14.0552 15.9999 14V13C15.9999 12.9448 15.9551 12.9 15.8999 12.9H14.3999C13.3506 12.9 12.4999 12.0493 12.4999 11V10ZM7.87313 8.78172C7.75257 8.2995 7.26393 8.00632 6.78172 8.12687C6.2995 8.24743 6.00632 8.73607 6.12687 9.21828L7.62687 15.2183C7.72703 15.6189 8.08702 15.9 8.5 15.9H9.5C9.91298 15.9 10.273 15.6189 10.3731 15.2183L11.8731 9.21828C11.9937 8.73607 11.7005 8.24743 11.2183 8.12687C10.7361 8.00632 10.2474 8.2995 10.1269 8.78172L9 13.2892L7.87313 8.78172Z" fill="currentColor"/>
</svg>
