<svg width="24" height="24" viewBox="0 0 24 24" fill="none" xmlns="http://www.w3.org/2000/svg">
<path fill-rule="evenodd" clip-rule="evenodd" d="M15 2C14.4477 2 14 2.44772 14 3V4H6C3.79086 4 2 5.79086 2 8V16C2 18.2091 3.79086 20 6 20H14V21C14 21.5523 14.4477 22 15 22C15.5523 22 16 21.5523 16 21V3C16 2.44772 15.5523 2 15 2ZM7.56681 9.09871C7.91328 8.93219 8.32452 8.979 8.62469 9.21914L11.1247 11.2191C11.3619 11.4089 11.5 11.6962 11.5 12C11.5 12.3038 11.3619 12.5911 11.1247 12.7809L8.62469 14.7809C8.32452 15.021 7.91328 15.0678 7.56681 14.9013C7.22035 14.7348 7 14.3844 7 14V10C7 9.6156 7.22035 9.26523 7.56681 9.09871Z" fill="currentColor" style="fill:currentColor;fill-opacity:1;"/>
<path d="M22 16C22 18.2091 20.2091 20 18 20V4C20.2091 4 22 5.79086 22 8V16Z" fill="currentColor" style="fill:currentColor;fill-opacity:1;"/>
</svg>
