<svg width="25" height="24" viewBox="0 0 25 24" fill="none" xmlns="http://www.w3.org/2000/svg">
<path d="M18.4067 6.34289C15.8288 3.76496 11.9269 3.31309 8.88575 4.99218C8.40226 5.25912 7.79391 5.08358 7.52697 4.60009C7.26003 4.1166 7.43558 3.50826 7.91906 3.24132C11.7193 1.14313 16.5962 1.70395 19.8209 4.92867C23.0457 8.1534 23.6065 13.0303 21.5083 16.8305C21.2413 17.314 20.633 17.4896 20.1495 17.2226C19.666 16.9557 19.4905 16.3473 19.7574 15.8639C21.4365 12.8227 20.9846 8.92081 18.4067 6.34289Z" fill="currentColor" style="fill:currentColor;fill-opacity:1;"/>
<path d="M5.35021 6.77685C5.8337 7.04379 6.00924 7.65214 5.7423 8.13562C4.06321 11.1768 4.51508 15.0787 7.09301 17.6566C9.67093 20.2345 13.5728 20.6864 16.614 19.0073C17.0975 18.7404 17.7058 18.9159 17.9728 19.3994C18.2397 19.8829 18.0641 20.4912 17.5807 20.7582C13.7804 22.8563 8.90352 22.2955 5.67879 19.0708C2.45407 15.8461 1.89325 10.9692 3.99144 7.16894C4.25838 6.68545 4.86672 6.50991 5.35021 6.77685Z" fill="currentColor" style="fill:currentColor;fill-opacity:1;"/>
<path fill-rule="evenodd" clip-rule="evenodd" d="M12.75 7.49998C14.4169 7.49998 15.9733 8.3382 17.3081 9.7848C18.4614 11.0348 18.4614 12.9652 17.3081 14.2152C15.9733 15.6618 14.4169 16.5 12.75 16.5C11.0831 16.5 9.52673 15.6618 8.192 14.2152C7.03868 12.9652 7.03868 11.0348 8.192 9.7848C9.52673 8.3382 11.0831 7.49998 12.75 7.49998ZM12.75 10.75C12.0596 10.75 11.5 11.3096 11.5 12C11.5 12.6904 12.0596 13.25 12.75 13.25C13.4404 13.25 14 12.6904 14 12C14 11.3096 13.4404 10.75 12.75 10.75Z" fill="currentColor" style="fill:currentColor;fill-opacity:1;"/>
</svg>
