<svg width="24" height="24" viewBox="0 0 24 24" fill="none" xmlns="http://www.w3.org/2000/svg">
<path d="M13 5.13493C13 3.43926 11.0223 2.51294 9.71963 3.59848L5.91608 6.76811C5.73637 6.91787 5.50984 6.99989 5.2759 6.99989H4C2.34315 6.99989 1 8.34303 1 9.99989V13.9999C1 15.6567 2.34315 16.9999 4 16.9999H5.2759C5.50984 16.9999 5.73637 17.0819 5.91608 17.2317L9.71963 20.4013C11.0223 21.4868 13 20.5605 13 18.8648V5.13493Z" fill="currentColor" style="fill:currentColor;fill-opacity:1;"/>
<path d="M15.1821 7.40422C15.5726 7.0137 16.2057 7.0137 16.5963 7.40422C17.7714 8.5794 18.5001 10.2058 18.5001 12.0004C18.5001 13.7951 17.7714 15.4214 16.5963 16.5966C16.2057 16.9871 15.5726 16.9871 15.1821 16.5966C14.7915 16.2061 14.7915 15.5729 15.1821 15.1824C15.9975 14.367 16.5001 13.2433 16.5001 12.0004C16.5001 10.7575 15.9975 9.63387 15.1821 8.81843C14.7915 8.42791 14.7915 7.79475 15.1821 7.40422Z" fill="currentColor" style="fill:currentColor;fill-opacity:1;"/>
</svg>
