<svg width="24" height="24" viewBox="0 0 24 24" fill="none" xmlns="http://www.w3.org/2000/svg">
<path d="M9.71963 3.59848C11.0223 2.51294 13 3.43926 13 5.13493V18.8648C13 20.5605 11.0223 21.4868 9.71963 20.4013L5.91608 17.2317C5.73637 17.0819 5.50984 16.9999 5.2759 16.9999H4C2.34315 16.9999 1 15.6567 1 13.9999V9.99989C1 8.34303 2.34315 6.99989 4 6.99989H5.2759C5.50984 6.99989 5.73637 6.91787 5.91608 6.76811L9.71963 3.59848Z" fill="currentColor" style="fill:currentColor;fill-opacity:1;"/>
<path d="M16 11C15.4477 11 15 11.4477 15 12C15 12.5523 15.4477 13 16 13H22C22.5523 13 23 12.5523 23 12C23 11.4477 22.5523 11 22 11H16Z" fill="currentColor" style="fill:currentColor;fill-opacity:1;"/>
</svg>
