<svg width="24" height="24" viewBox="0 0 24 24" fill="none" xmlns="http://www.w3.org/2000/svg">
<path d="M12 8C10.8954 8 10 8.89543 10 10C10 11.1046 10.8954 12 12 12C13.1046 12 14 11.1046 14 10C14 8.89543 13.1046 8 12 8Z" fill="currentColor" style="fill:currentColor;fill-opacity:1;"/>
<path fill-rule="evenodd" clip-rule="evenodd" d="M12 2C7.58172 2 4 5.58172 4 10C4 14.0796 7.05369 17.446 11 17.9381V20H7C6.44772 20 6 20.4477 6 21C6 21.5523 6.44772 22 7 22H17C17.5523 22 18 21.5523 18 21C18 20.4477 17.5523 20 17 20H13V17.9381C16.9463 17.446 20 14.0796 20 10C20 5.58172 16.4183 2 12 2ZM8 10C8 7.79086 9.79086 6 12 6C14.2091 6 16 7.79086 16 10C16 12.2091 14.2091 14 12 14C9.79086 14 8 12.2091 8 10Z" fill="currentColor" style="fill:currentColor;fill-opacity:1;"/>
</svg>
