<svg width="24" height="24" viewBox="0 0 24 24" fill="none" xmlns="http://www.w3.org/2000/svg">
<path fill-rule="evenodd" clip-rule="evenodd" d="M10.5 5C10.5 3.34315 11.8431 2 13.5 2C15.1569 2 16.5 3.34315 16.5 5C16.5 6.65685 15.1569 8 13.5 8C11.8431 8 10.5 6.65685 10.5 5ZM13.5 4C12.9477 4 12.5 4.44772 12.5 5C12.5 5.55228 12.9477 6 13.5 6C14.0523 6 14.5 5.55228 14.5 5C14.5 4.44772 14.0523 4 13.5 4Z" fill="currentColor" style="fill:currentColor;fill-opacity:1;"/>
<path d="M13.0157 10.5485C13.1873 10.0236 12.9009 9.45892 12.376 9.2873C11.851 9.11568 11.2863 9.4021 11.1147 9.92704L10.18 12.7862L10.1735 12.8067C9.54044 14.8939 11.1024 17 13.2836 17H16.4384C17.089 17 17.5663 17.6114 17.4086 18.2425L17.0298 19.7574C16.8959 20.2932 17.2216 20.8362 17.7574 20.9701C18.2932 21.1041 18.8362 20.7783 18.9701 20.2425L19.3488 18.7276C19.8222 16.8341 18.3901 15 16.4384 15H13.2836C12.4478 15 11.8483 14.1959 12.0848 13.396L12.2142 13H16C16.5523 13 17 12.5523 17 12C17 11.4477 16.5523 11 16 11H12.8681L13.0157 10.5485Z" fill="currentColor" style="fill:currentColor;fill-opacity:1;"/>
<path d="M10 22C12.1729 22 14.076 20.8449 15.1288 19.1154L15.1577 18.9999H13.2837C9.76024 18.9999 7.237 15.5979 8.25965 12.2261L8.26901 12.1953L8.95721 10.0903C6.14058 10.5839 4 13.0419 4 16C4 19.3137 6.68629 22 10 22Z" fill="currentColor" style="fill:currentColor;fill-opacity:1;"/>
</svg>
