<svg width="24" height="24" viewBox="0 0 24 24" fill="none" xmlns="http://www.w3.org/2000/svg">
<path d="M13 3C13 2.44772 12.5523 2 12 2C11.4477 2 11 2.44772 11 3V4H6C3.79086 4 2 5.79086 2 8V15C2 17.2091 3.79086 19 6 19H6.61257L6.05132 20.6838C5.87667 21.2077 6.15983 21.774 6.68377 21.9487C7.20772 22.1233 7.77404 21.8402 7.94868 21.3162L8.72076 19H11V20C11 20.5523 11.4477 21 12 21C12.5523 21 13 20.5523 13 20V19H15.2792L16.0513 21.3162C16.226 21.8402 16.7923 22.1233 17.3162 21.9487C17.8402 21.774 18.1233 21.2077 17.9487 20.6838L17.3874 19H18C20.2091 19 22 17.2091 22 15V8C22 5.79086 20.2091 4 18 4H13V3Z" fill="currentColor" style="fill:currentColor;fill-opacity:1;"/>
</svg>
