<svg width="24" height="24" viewBox="0 0 24 24" fill="none" xmlns="http://www.w3.org/2000/svg">
<path d="M16.6341 14.103C13.9336 11.9969 10.0655 11.9969 7.36502 14.103C6.92952 14.4426 6.30114 14.3649 5.9615 13.9294C5.62186 13.4939 5.69957 12.8655 6.13507 12.5259C9.55858 9.85595 14.4405 9.85595 17.864 12.5259C18.2995 12.8655 18.3772 13.4939 18.0376 13.9294C17.698 14.3649 17.0696 14.4426 16.6341 14.103Z" fill="currentColor" style="fill:currentColor;fill-opacity:1;"/>
<path d="M10.7495 18.75C10.7495 19.4404 11.3092 20 11.9995 20C12.6899 20 13.2495 19.4404 13.2495 18.75C13.2495 18.0596 12.6899 17.5 11.9995 17.5C11.3092 17.5 10.7495 18.0596 10.7495 18.75Z" fill="currentColor" style="fill:currentColor;fill-opacity:1;"/>
</svg>
