<svg width="24" height="24" viewBox="0 0 24 24" fill="none" xmlns="http://www.w3.org/2000/svg">
<path d="M6 7C5.44772 7 5 7.44772 5 8C5 8.55228 5.44772 9 6 9C6.55228 9 7 8.55228 7 8C7 7.44772 6.55228 7 6 7Z" fill="currentColor" style="fill:currentColor;fill-opacity:1;"/>
<path d="M8 8C8 7.44772 8.44772 7 9 7C9.55228 7 10 7.44772 10 8C10 8.55228 9.55228 9 9 9C8.44772 9 8 8.55228 8 8Z" fill="currentColor" style="fill:currentColor;fill-opacity:1;"/>
<path d="M12 7C11.4477 7 11 7.44772 11 8C11 8.55228 11.4477 9 12 9C12.5523 9 13 8.55228 13 8C13 7.44772 12.5523 7 12 7Z" fill="currentColor" style="fill:currentColor;fill-opacity:1;"/>
<path fill-rule="evenodd" clip-rule="evenodd" d="M2 8C2 5.79086 3.79086 4 6 4H18C20.2091 4 22 5.79086 22 8V16C22 18.2091 20.2091 20 18 20H6C3.79086 20 2 18.2091 2 16V8ZM18 6C19.1046 6 20 6.89543 20 8V10H4V8C4 6.89543 4.89543 6 6 6H18Z" fill="currentColor" style="fill:currentColor;fill-opacity:1;"/>
</svg>
