<svg width="25" height="24" viewBox="0 0 25 24" fill="none" xmlns="http://www.w3.org/2000/svg">
<path fill-rule="evenodd" clip-rule="evenodd" d="M20.6229 18.9999H21.75C22.3023 18.9999 22.75 19.4476 22.75 19.9999C22.75 20.5522 22.3023 20.9999 21.75 20.9999H3.75C3.19772 20.9999 2.75 20.5522 2.75 19.9999C2.75 19.4476 3.19772 18.9999 3.75 18.9999H4.86998L7.71437 11.4826L7.83507 11.5389C7.89053 11.5648 7.93511 11.6093 7.96099 11.6648L8.51389 12.8495C8.60746 13.05 8.89254 13.05 8.98611 12.8495L9.53901 11.6648C9.56489 11.6093 9.60947 11.5648 9.66493 11.5389L10.8496 10.986C11.0501 10.8924 11.0501 10.6073 10.8496 10.5138L9.66493 9.96087C9.60947 9.93498 9.56489 9.89041 9.53901 9.83495L8.98611 8.65024C8.95396 8.58136 8.89921 8.53615 8.83738 8.5146L10.5735 3.92637C11.3958 1.75302 14.2703 1.29944 15.7219 3.11396L19.5309 7.87513C19.771 8.1753 19.8178 8.58655 19.6513 8.93301C19.4848 9.27948 19.1344 9.49983 18.75 9.49983H16.4774L20.6229 18.9999ZM12.711 14.835C12.6851 14.8904 12.6405 14.935 12.5851 14.9609L11.4004 15.5138C11.1999 15.6073 11.1999 15.8924 11.4004 15.986L12.5851 16.5389C12.6405 16.5648 12.6851 16.6093 12.711 16.6648L13.2639 17.8495C13.3575 18.05 13.6425 18.05 13.7361 17.8495L14.289 16.6648C14.3149 16.6093 14.3595 16.5648 14.4149 16.5389L15.5996 15.986C15.8001 15.8924 15.8001 15.6073 15.5996 15.5138L14.4149 14.9609C14.3595 14.935 14.3149 14.8904 14.289 14.835L13.7361 13.6502C13.6425 13.4498 13.3575 13.4498 13.2639 13.6502L12.711 14.835Z" fill="currentColor" style="fill:currentColor;fill-opacity:1;"/>
</svg>
