<svg width="24" height="24" viewBox="0 0 24 24" fill="none" xmlns="http://www.w3.org/2000/svg">
<path fill-rule="evenodd" clip-rule="evenodd" d="M2 12C2 6.47715 6.47715 2 12 2C17.5228 2 22 6.47715 22 12C22 17.5228 17.5228 22 12 22C6.47715 22 2 17.5228 2 12ZM9.25258 7.3415C8.88889 6.92586 8.25713 6.88374 7.8415 7.24742C7.42586 7.61111 7.38374 8.24287 7.74742 8.6585L10.6712 12H10C9.44772 12 9 12.4477 9 13C9 13.5523 9.44772 14 10 14H11V17C11 17.5523 11.4477 18 12 18C12.5523 18 13 17.5523 13 17V14H14C14.5523 14 15 13.5523 15 13C15 12.4477 14.5523 12 14 12H13.3288L16.2526 8.6585C16.6163 8.24287 16.5741 7.61111 16.1585 7.24742C15.7429 6.88374 15.1111 6.92586 14.7474 7.3415L12 10.4814L9.25258 7.3415Z" fill="currentColor" style="fill:currentColor;fill-opacity:1;"/>
</svg>
