<svg width="24" height="24" viewBox="0 0 24 24" fill="none" xmlns="http://www.w3.org/2000/svg">
<path d="M16.2413 3H7.7587C6.95374 2.99999 6.28937 2.99998 5.74818 3.04419C5.18608 3.09012 4.66937 3.18868 4.18404 3.43598C3.43139 3.81947 2.81947 4.43139 2.43598 5.18404C2.18868 5.66937 2.09012 6.18608 2.04419 6.74818C1.99998 7.28937 1.99999 7.95372 2 8.75869V14.5C2 16.433 3.567 18 5.5 18C6.05229 18 6.5 17.5523 6.5 17C6.5 16.4477 6.05229 16 5.5 16C4.67157 16 4 15.3284 4 14.5V8.8C4 7.94342 4.00078 7.36113 4.03755 6.91104C4.07337 6.47262 4.1383 6.24842 4.21799 6.09202C4.40973 5.7157 4.7157 5.40973 5.09202 5.21799C5.24842 5.1383 5.47262 5.07337 5.91104 5.03755C6.36113 5.00078 6.94342 5 7.8 5H16.2C17.0566 5 17.6389 5.00078 18.089 5.03755C18.5274 5.07337 18.7516 5.1383 18.908 5.21799C19.2843 5.40973 19.5903 5.7157 19.782 6.09202C19.8617 6.24842 19.9266 6.47262 19.9624 6.91104C19.9992 7.36113 20 7.94342 20 8.8V14.5C20 15.3284 19.3284 16 18.5 16C17.9477 16 17.5 16.4477 17.5 17C17.5 17.5523 17.9477 18 18.5 18C20.433 18 22 16.433 22 14.5V8.75868C22 7.95372 22 7.28937 21.9558 6.74818C21.9099 6.18608 21.8113 5.66937 21.564 5.18404C21.1805 4.43139 20.5686 3.81947 19.816 3.43598C19.3306 3.18868 18.8139 3.09012 18.2518 3.04419C17.7106 2.99998 17.0463 2.99999 16.2413 3Z" fill="currentColor" style="fill:currentColor;fill-opacity:1;"/>
<path d="M12 14C12.3038 14 12.5911 14.1381 12.7809 14.3753L16.7809 19.3753C17.021 19.6755 17.0678 20.0867 16.9013 20.4332C16.7348 20.7797 16.3844 21 16 21H8.00001C7.6156 21 7.26523 20.7797 7.09871 20.4332C6.93219 20.0867 6.979 19.6755 7.21914 19.3753L11.2191 14.3753C11.4089 14.1381 11.6962 14 12 14Z" fill="currentColor" style="fill:currentColor;fill-opacity:1;"/>
</svg>
