<svg width="24" height="24" viewBox="0 0 24 24" fill="none" xmlns="http://www.w3.org/2000/svg">
<path d="M6 13C4.84438 13 3.78033 12.608 2.93359 11.9496C2.24942 11.4177 2 10.5319 2 9.66528V6.33472C2 5.46808 2.24942 4.58233 2.93359 4.05039C3.78033 3.39204 4.84438 3 6 3C8.76142 3 11 5.23858 11 8L11 19C11 20.1046 10.1046 21 9 21C7.89543 21 7 20.1046 7 19V12.9C6.67689 12.9656 6.34247 13 6 13Z" fill="currentColor"/>
<path d="M18 13C19.1556 13 20.2197 12.608 21.0664 11.9496C21.7506 11.4177 22 10.5319 22 9.66528V6.33472C22 5.46808 21.7506 4.58233 21.0664 4.05039C20.2197 3.39204 19.1556 3 18 3C15.2386 3 13 5.23858 13 8L13 19C13 20.1046 13.8954 21 15 21C16.1046 21 17 20.1046 17 19V12.9C17.3231 12.9656 17.6575 13 18 13Z" fill="currentColor"/>
</svg>
