<svg width="24" height="24" viewBox="0 0 24 24" fill="none" xmlns="http://www.w3.org/2000/svg">
<path fill-rule="evenodd" clip-rule="evenodd" d="M15.6502 5.06203C14.3517 4.6157 13 5.58041 13 6.9534V17.0463C13 18.4193 14.3517 19.384 15.6502 18.9377L17.6502 18.2502C18.4578 17.9726 19 17.2128 19 16.3588V7.6409C19 6.78691 18.4578 6.02714 17.6502 5.74953L15.6502 5.06203ZM11 6.9534C11 4.20742 13.7035 2.27799 16.3003 3.17065L18.3003 3.85815C19.9155 4.41338 21 5.93293 21 7.6409V16.3588C21 18.0668 19.9155 19.5863 18.3003 20.1416L16.3003 20.8291C13.7035 21.7217 11 19.7923 11 17.0463V6.9534ZM8 3.99985C8.55228 3.99985 9 4.44757 9 4.99985V18.9999C9 19.5521 8.55228 19.9999 8 19.9999C7.44772 19.9999 7 19.5521 7 18.9999V4.99985C7 4.44757 7.44772 3.99985 8 3.99985ZM4 4.99985C4.55228 4.99985 5 5.44757 5 5.99985V17.9999C5 18.5521 4.55228 18.9999 4 18.9999C3.44772 18.9999 3 18.5521 3 17.9999V5.99985C3 5.44757 3.44772 4.99985 4 4.99985Z" fill="currentColor" style="fill:currentColor;fill-opacity:1;"/>
</svg>
