<svg width="24" height="24" viewBox="0 0 24 24" fill="none" xmlns="http://www.w3.org/2000/svg">
<path fill-rule="evenodd" clip-rule="evenodd" d="M3 4C3.55228 4 4 4.44772 4 5V19C4 19.5523 3.55228 20 3 20C2.44772 20 2 19.5523 2 19V5C2 4.44772 2.44772 4 3 4ZM8 6C8 5.44772 8.44772 5 9 5H21C21.5523 5 22 5.44772 22 6C22 6.55228 21.5523 7 21 7H9C8.44772 7 8 6.55228 8 6ZM8 12C8 11.4477 8.44772 11 9 11H21C21.5523 11 22 11.4477 22 12C22 12.5523 21.5523 13 21 13H9C8.44772 13 8 12.5523 8 12ZM8 18C8 17.4477 8.44772 17 9 17H16C16.5523 17 17 17.4477 17 18C17 18.5523 16.5523 19 16 19H9C8.44772 19 8 18.5523 8 18Z" fill="currentColor" style="fill:currentColor;fill-opacity:1;"/>
</svg>
