<svg width="24" height="24" viewBox="0 0 24 24" fill="none" xmlns="http://www.w3.org/2000/svg">
<path fill-rule="evenodd" clip-rule="evenodd" d="M12 2C10.067 2 8.5 3.567 8.5 5.5C8.5 7.08551 9.55426 8.42479 11 8.85506V20H7.97026C7.09081 20 6.31455 19.4255 6.05756 18.5844L4.3512 13H6.00001C6.55229 13 7.00001 12.5523 7.00001 12C7.00001 11.4477 6.55229 11 6.00001 11H3.00001C2.68301 11 2.38478 11.1503 2.1962 11.4051C2.00762 11.6599 1.95102 11.9891 2.04366 12.2922L4.14486 19.1689C4.65884 20.851 6.21136 22 7.97026 22H16.0298C17.7887 22 19.3412 20.851 19.8552 19.1689L21.9564 12.2922C22.049 11.9891 21.9924 11.6599 21.8038 11.4051C21.6152 11.1503 21.317 11 21 11H18C17.4477 11 17 11.4477 17 12C17 12.5523 17.4477 13 18 13H19.6488L17.9425 18.5844C17.6855 19.4255 16.9092 20 16.0298 20H13V8.85506C14.4457 8.42478 15.5 7.08551 15.5 5.5C15.5 3.567 13.933 2 12 2ZM10.5 5.5C10.5 4.67157 11.1716 4 12 4C12.8284 4 13.5 4.67157 13.5 5.5C13.5 6.32843 12.8284 7 12 7C11.1716 7 10.5 6.32843 10.5 5.5Z" fill="currentColor" style="fill:currentColor;fill-opacity:1;"/>
</svg>
