<svg width="24" height="24" viewBox="0 0 24 24" fill="none" xmlns="http://www.w3.org/2000/svg">
  <path
    d="M17.1106 3.01986C17.422 2.96046 17.6983 3.03426 17.9386 3.24216C18.1798 3.44916 18.3004 3.71645 18.3004 4.04225V15.4434C18.3004 16.4964 18.0169 17.3181 17.4508 17.9103C16.8838 18.4881 16.1044 18.777 15.1126 18.777C14.4331 18.777 13.8733 18.5925 13.4341 18.2217C13.2236 18.0453 13.0551 17.824 12.9411 17.5741C12.8272 17.3241 12.7705 17.0519 12.7753 16.7772C12.7753 16.0509 13.0516 15.4434 13.6033 14.9547C14.1568 14.466 14.8723 14.2212 15.7507 14.2212C16.0765 14.2212 16.423 14.2806 16.792 14.3994C16.8055 14.3994 16.8199 14.3913 16.8343 14.3769C16.8487 14.3769 16.855 14.3697 16.855 14.3544V7.02034C16.855 6.97534 16.8343 6.93934 16.792 6.90964C16.7488 6.86464 16.7065 6.85024 16.6642 6.86464L8.69564 8.46484C8.58224 8.49454 8.52464 8.56834 8.52464 8.68714V17.6664C8.52464 18.7185 8.24204 19.5402 7.67504 20.1324C7.10804 20.7111 6.32955 21 5.33775 21C4.65825 21 4.09845 20.8074 3.65926 20.4222C3.44808 20.2513 3.27888 20.0342 3.16468 19.7877C3.05047 19.5412 2.99429 19.2718 3.00046 19.0002C3.00046 18.2739 3.27676 17.6664 3.82845 17.1777C4.38195 16.6881 5.09745 16.4442 5.97585 16.4442C6.30165 16.4442 6.64815 16.5027 7.01715 16.6215C7.03065 16.6215 7.04504 16.6143 7.05944 16.599C7.07294 16.599 7.08014 16.5918 7.08014 16.5774V6.26435C7.08014 5.89445 7.18634 5.56865 7.39874 5.28695C7.62554 4.98995 7.90904 4.81265 8.24924 4.75325L17.1106 3.01986Z"
    fill="currentColor" />
</svg>
