<svg width="24" height="24" viewBox="0 0 24 24" fill="none" xmlns="http://www.w3.org/2000/svg">
<path d="M12.0002 12L12 3.99997M12.0002 12L4.88891 16M12.0002 12L19.1111 16M20 14.7454V9.25452C20 8.1707 19.4154 7.17114 18.4708 6.63979L13.4708 3.82729C12.5575 3.31359 11.4425 3.31359 10.5292 3.82729L5.52922 6.63979C4.58459 7.17114 4 8.1707 4 9.25452V14.7454C4 15.8293 4.58459 16.8288 5.52922 17.3602L10.5292 20.1727C11.4425 20.6864 12.5575 20.6864 13.4708 20.1727L18.4708 17.3602C19.4154 16.8288 20 15.8293 20 14.7454Z" stroke="currentColor" stroke-width="2" stroke-linecap="round" stroke-linejoin="round"/>
</svg>
