<svg width="24" height="24" viewBox="0 0 24 24" fill="none" xmlns="http://www.w3.org/2000/svg">
<path fill-rule="evenodd" clip-rule="evenodd" d="M5 5C2.79086 5 1 6.79086 1 9V16C1 18.2091 2.79086 20 5 20H6.87279C7.84169 20 8.77765 19.6483 9.50681 19.0103L11.3415 17.405C11.7185 17.0751 12.2815 17.0751 12.6585 17.405L14.4932 19.0103C15.2224 19.6483 16.1583 20 17.1272 20H19C21.2091 20 23 18.2091 23 16V9C23 6.79086 21.2091 5 19 5H5ZM7.5 9.25C6.25736 9.25 5.25 10.2574 5.25 11.5C5.25 12.7426 6.25736 13.75 7.5 13.75C8.74264 13.75 9.75 12.7426 9.75 11.5C9.75 10.2574 8.74264 9.25 7.5 9.25ZM14.25 11.5C14.25 10.2574 15.2574 9.25 16.5 9.25C17.7426 9.25 18.75 10.2574 18.75 11.5C18.75 12.7426 17.7426 13.75 16.5 13.75C15.2574 13.75 14.25 12.7426 14.25 11.5Z" fill="currentColor" style="fill:currentColor;fill-opacity:1;"/>
</svg>
