<svg width="24" height="24" viewBox="0 0 24 24" fill="none" xmlns="http://www.w3.org/2000/svg">
<path d="M3 3C2.44772 3 2 3.44772 2 4V6C2 6.55228 2.44772 7 3 7H21C21.5523 7 22 6.55228 22 6V4C22 3.44772 21.5523 3 21 3H3Z" fill="currentColor" style="fill:currentColor;fill-opacity:1;"/>
<path fill-rule="evenodd" clip-rule="evenodd" d="M21 9H3L3 15.2413C2.99999 16.0463 2.99998 16.7106 3.04419 17.2518C3.09012 17.8139 3.18868 18.3306 3.43597 18.816C3.81947 19.5686 4.43139 20.1805 5.18404 20.564C5.66937 20.8113 6.18608 20.9099 6.74817 20.9558C7.28938 21 7.95374 21 8.75873 21H15.2413C16.0463 21 16.7106 21 17.2518 20.9558C17.8139 20.9099 18.3306 20.8113 18.816 20.564C19.5686 20.1805 20.1805 19.5686 20.564 18.816C20.8113 18.3306 20.9099 17.8139 20.9558 17.2518C21 16.7106 21 16.0463 21 15.2413V9ZM9 12C9 11.4477 9.44772 11 10 11H14C14.5523 11 15 11.4477 15 12C15 12.5523 14.5523 13 14 13H10C9.44772 13 9 12.5523 9 12Z" fill="currentColor" style="fill:currentColor;fill-opacity:1;"/>
</svg>
