<svg width="24" height="24" viewBox="0 0 24 24" fill="none" xmlns="http://www.w3.org/2000/svg">
<path d="M20 8H21C21 7.44772 20.5523 7 20 7V8ZM4 8V7C3.44772 7 3 7.44772 3 8H4ZM5.63803 19.673L6.09202 18.782H6.09202L5.63803 19.673ZM4.32698 18.362L3.43597 18.816H3.43597L4.32698 18.362ZM19.673 18.362L18.782 17.908V17.908L19.673 18.362ZM18.362 19.673L17.908 18.782H17.908L18.362 19.673ZM3 4V3C2.44772 3 2 3.44772 2 4H3ZM21 4H22C22 3.44772 21.5523 3 21 3V4ZM21 8V9C21.5523 9 22 8.55228 22 8H21ZM3 8H2C2 8.55228 2.44772 9 3 9V8ZM10 11C9.44772 11 9 11.4477 9 12C9 12.5523 9.44772 13 10 13V11ZM14 13C14.5523 13 15 12.5523 15 12C15 11.4477 14.5523 11 14 11V13ZM19 8V15.2H21V8H19ZM15.2 19H8.8V21H15.2V19ZM5 15.2V8H3V15.2H5ZM4 9H20V7H4V9ZM8.8 19C7.94342 19 7.36113 18.9992 6.91104 18.9624C6.47262 18.9266 6.24842 18.8617 6.09202 18.782L5.18404 20.564C5.66937 20.8113 6.18608 20.9099 6.74817 20.9558C7.2986 21.0008 7.97642 21 8.8 21V19ZM3 15.2C3 16.0236 2.99922 16.7014 3.04419 17.2518C3.09012 17.8139 3.18868 18.3306 3.43597 18.816L5.21799 17.908C5.1383 17.7516 5.07337 17.5274 5.03755 17.089C5.00078 16.6389 5 16.0566 5 15.2H3ZM6.09202 18.782C5.7157 18.5903 5.40973 18.2843 5.21799 17.908L3.43597 18.816C3.81947 19.5686 4.43139 20.1805 5.18404 20.564L6.09202 18.782ZM19 15.2C19 16.0566 18.9992 16.6389 18.9624 17.089C18.9266 17.5274 18.8617 17.7516 18.782 17.908L20.564 18.816C20.8113 18.3306 20.9099 17.8139 20.9558 17.2518C21.0008 16.7014 21 16.0236 21 15.2H19ZM15.2 21C16.0236 21 16.7014 21.0008 17.2518 20.9558C17.8139 20.9099 18.3306 20.8113 18.816 20.564L17.908 18.782C17.7516 18.8617 17.5274 18.9266 17.089 18.9624C16.6389 18.9992 16.0566 19 15.2 19V21ZM18.782 17.908C18.5903 18.2843 18.2843 18.5903 17.908 18.782L18.816 20.564C19.5686 20.1805 20.1805 19.5686 20.564 18.816L18.782 17.908ZM3 5H21V3H3V5ZM20 4V8H22V4H20ZM21 7H3V9H21V7ZM4 8V4H2V8H4ZM10 13H14V11H10V13Z" fill="currentColor"/>
</svg>
