<svg width="24" height="24" viewBox="0 0 24 24" fill="none" xmlns="http://www.w3.org/2000/svg">
<path fill-rule="evenodd" clip-rule="evenodd" d="M20 20C19.4477 20 19 19.5523 19 19V12C19 10.8954 18.1046 10 17 10H6.41421L8.70711 12.2929C9.09763 12.6834 9.09763 13.3166 8.70711 13.7071C8.31658 14.0976 7.68342 14.0976 7.29289 13.7071L3.29289 9.70711C2.90237 9.31658 2.90237 8.68342 3.29289 8.29289L7.29289 4.29289C7.68342 3.90237 8.31658 3.90237 8.70711 4.29289C9.09763 4.68342 9.09763 5.31658 8.70711 5.70711L6.41421 8H17C19.2091 8 21 9.79086 21 12V19C21 19.5523 20.5523 20 20 20Z" fill="currentColor" style="fill:currentColor;fill-opacity:1;"/>
</svg>
