<svg width="24" height="24" viewBox="0 0 24 24" fill="none" xmlns="http://www.w3.org/2000/svg">
<path d="M21 5C21 4.44772 20.5523 4 20 4C19.4477 4 19 4.44772 19 5V11.2065C18.8811 10.8504 18.68 10.5157 18.3964 10.2322L15.2071 7.04289C14.8166 6.65237 14.1834 6.65237 13.7929 7.04289C13.4024 7.43342 13.4024 8.06658 13.7929 8.45711L16.3358 11H4C3.44772 11 3 11.4477 3 12C3 12.5523 3.44772 13 4 13H16.3358L13.7929 15.5429C13.4024 15.9334 13.4024 16.5666 13.7929 16.9571C14.1834 17.3476 14.8166 17.3476 15.2071 16.9571L18.3965 13.7677C18.68 13.4842 18.8811 13.1496 19 12.7935V19C19 19.5523 19.4477 20 20 20C20.5523 20 21 19.5523 21 19V5Z" fill="currentColor" style="fill:currentColor;fill-opacity:1;"/>
</svg>
