<svg width="24" height="24" viewBox="0 0 24 24" fill="none" xmlns="http://www.w3.org/2000/svg">
<path fill-rule="evenodd" clip-rule="evenodd" d="M20 20C20 19.4477 19.5523 19 19 19H12C10.8954 19 10 18.1046 10 17V6.41421L12.2929 8.70711C12.6834 9.09763 13.3166 9.09763 13.7071 8.70711C14.0976 8.31658 14.0976 7.68342 13.7071 7.29289L9.70711 3.29289C9.31658 2.90237 8.68342 2.90237 8.29289 3.29289L4.29289 7.29289C3.90237 7.68342 3.90237 8.31658 4.29289 8.70711C4.68342 9.09763 5.31658 9.09763 5.70711 8.70711L8 6.41421V17C8 19.2091 9.79086 21 12 21H19C19.5523 21 20 20.5523 20 20Z" fill="currentColor" style="fill:currentColor;fill-opacity:1;"/>
</svg>
