<svg width="24" height="24" viewBox="0 0 24 24" fill="none" xmlns="http://www.w3.org/2000/svg">
<path d="M11 4.91376L9.70688 6.20688C9.31636 6.5974 8.68319 6.5974 8.29267 6.20688C7.90214 5.81636 7.90214 5.18319 8.29267 4.79267L10.232 2.85333C11.2083 1.87702 12.7912 1.87702 13.7675 2.85333L15.7069 4.79267C16.0974 5.18319 16.0974 5.81636 15.7069 6.20688C15.3164 6.5974 14.6832 6.5974 14.2927 6.20688L13 4.91421V11H19.0858L17.7927 9.70688C17.4021 9.31636 17.4021 8.68319 17.7927 8.29267C18.1832 7.90214 18.8164 7.90214 19.2069 8.29267L21.1462 10.232C22.1225 11.2083 22.1225 12.7912 21.1462 13.7675L19.2069 15.7069C18.8164 16.0974 18.1832 16.0974 17.7927 15.7069C17.4021 15.3164 17.4021 14.6832 17.7927 14.2927L19.0853 13H13V19.0853L14.2927 17.7927C14.6832 17.4021 15.3164 17.4021 15.7069 17.7927C16.0974 18.1832 16.0974 18.8164 15.7069 19.2069L13.7675 21.1462C12.7912 22.1225 11.2083 22.1225 10.232 21.1462L8.29267 19.2069C7.90214 18.8164 7.90214 18.1832 8.29267 17.7927C8.68319 17.4021 9.31636 17.4021 9.70688 17.7927L11 19.0858V13H4.91421L6.20688 14.2927C6.5974 14.6832 6.5974 15.3164 6.20688 15.7069C5.81636 16.0974 5.18319 16.0974 4.79267 15.7069L2.85333 13.7675C1.87702 12.7912 1.87702 11.2083 2.85333 10.232L4.79267 8.29267C5.18319 7.90214 5.81636 7.90214 6.20688 8.29267C6.5974 8.68319 6.5974 9.31636 6.20688 9.70688L4.91376 11H11V4.91376Z" fill="currentColor" style="fill:currentColor;fill-opacity:1;"/>
</svg>
