<svg width="24" height="24" viewBox="0 0 24 24" fill="none" xmlns="http://www.w3.org/2000/svg">
<path fill-rule="evenodd" clip-rule="evenodd" d="M4 21C4 21.5523 4.44772 22 5 22H19C19.5523 22 20 21.5523 20 21C20 20.4477 19.5523 20 19 20H5C4.44772 20 4 20.4477 4 21ZM10.2323 17.1465C11.2086 18.1228 12.7915 18.1228 13.7678 17.1464L16.9571 13.9571C17.3476 13.5666 17.3476 12.9334 16.9571 12.5429C16.5666 12.1524 15.9334 12.1524 15.5429 12.5429L13 15.0858V3C13 2.44772 12.5523 2 12 2C11.4477 2 11 2.44772 11 3V15.0858L8.45711 12.5429C8.06658 12.1524 7.43342 12.1524 7.04289 12.5429C6.65237 12.9334 6.65237 13.5666 7.04289 13.9571L10.2323 17.1465Z" fill="currentColor" style="fill:currentColor;fill-opacity:1;"/>
</svg>
