<svg width="24" height="24" viewBox="0 0 24 24" fill="none" xmlns="http://www.w3.org/2000/svg">
<path d="M8.99977 5.49977L10.9391 3.56043C11.5249 2.97465 12.4746 2.97465 13.0604 3.56043L14.9998 5.49977M5.49977 8.99977L3.56043 10.9391C2.97465 11.5249 2.97465 12.4746 3.56043 13.0604L5.49977 14.9998M18.4998 8.99977L20.4391 10.9391C21.0249 11.5249 21.0249 12.4746 20.4391 13.0604L18.4998 14.9998M14.9998 18.4998L13.0604 20.4391C12.4746 21.0249 11.5249 21.0249 10.9391 20.4391L8.99977 18.4998M11.9998 3.99977V11.9998M11.9998 11.9998V19.9998M11.9998 11.9998H3.99977M11.9998 11.9998H19.9998" stroke="currentColor" stroke-width="2" stroke-linecap="round" stroke-linejoin="round"/>
</svg>
