<svg width="24" height="24" viewBox="0 0 24 24" fill="none" xmlns="http://www.w3.org/2000/svg">
<path fill-rule="evenodd" clip-rule="evenodd" d="M4 4C4 3.44772 4.44772 3 5 3H19C19.5523 3 20 3.44772 20 4C20 4.55228 19.5523 5 19 5H12.7935C13.1496 5.11885 13.4842 5.32003 13.7677 5.60355L13.0606 6.31066M13.0606 6.31066L13.7677 5.60355L16.9571 8.79289C17.3476 9.18342 17.3476 9.81658 16.9571 10.2071C16.5666 10.5976 15.9334 10.5976 15.5429 10.2071L13 7.66421V20C13 20.5523 12.5523 21 12 21C11.4477 21 11 20.5523 11 20V7.66422L8.45711 10.2071C8.06659 10.5976 7.43342 10.5976 7.04289 10.2071C6.65237 9.81658 6.65237 9.18342 7.04289 8.79289L10.2322 5.60356C10.5157 5.32004 10.8504 5.11885 11.2065 5H5C4.44772 5 4 4.55228 4 4" fill="currentColor" style="fill:currentColor;fill-opacity:1;"/>
</svg>
