<svg width="24" height="24" viewBox="0 0 24 24" fill="none" xmlns="http://www.w3.org/2000/svg">
<path fill-rule="evenodd" clip-rule="evenodd" d="M3 4C3.55228 4 4 4.44772 4 5V19C4 19.5523 3.55228 20 3 20C2.44772 20 2 19.5523 2 19V5C2 4.44772 2.44772 4 3 4ZM11.4571 7.04289C11.8476 7.43342 11.8476 8.06659 11.4571 8.45711L8.91422 11H21C21.5523 11 22 11.4477 22 12C22 12.5523 21.5523 13 21 13H8.91421L11.4571 15.5429C11.8476 15.9334 11.8476 16.5666 11.4571 16.9571C11.0666 17.3476 10.4334 17.3476 10.0429 16.9571L6.85355 13.7677C5.87724 12.7914 5.87725 11.2085 6.85356 10.2322L10.0429 7.04289C10.4334 6.65237 11.0666 6.65237 11.4571 7.04289Z" fill="currentColor" style="fill:currentColor;fill-opacity:1;"/>
</svg>
