<svg width="24" height="24" viewBox="0 0 24 24" fill="none" xmlns="http://www.w3.org/2000/svg">
<path fill-rule="evenodd" clip-rule="evenodd" d="M10.0002 2C10.3975 2 10.7571 2.23519 10.9163 2.59918L15.7289 13.5992C15.8642 13.9084 15.8343 14.2649 15.6496 14.5473C15.4649 14.8298 15.1502 15 14.8127 15H5.84175L3.91641 19.4008C3.69505 19.9068 3.10542 20.1375 2.59944 19.9162C2.09346 19.6948 1.86273 19.1052 2.08409 18.5992L9.08401 2.59919C9.24325 2.2352 9.60287 2 10.0002 2ZM6.71673 13H13.2837L10.0002 5.49489L6.71673 13ZM21.555 13.1679C22.0145 13.4743 22.1387 14.0952 21.8323 14.5547L17.1656 21.5547C16.9995 21.804 16.7303 21.9656 16.4321 21.9951C16.134 22.0247 15.8383 21.919 15.6265 21.7071L13.2931 19.3738C12.9026 18.9832 12.9026 18.3501 13.2931 17.9596C13.6837 17.569 14.3168 17.569 14.7074 17.9596L16.1782 19.4304L20.1682 13.4453C20.4746 12.9858 21.0954 12.8616 21.555 13.1679Z" fill="currentColor" style="fill:currentColor;fill-opacity:1;"/>
</svg>
