<svg width="24" height="24" viewBox="0 0 24 24" fill="none" xmlns="http://www.w3.org/2000/svg">
<path fill-rule="evenodd" clip-rule="evenodd" d="M17.0888 2.00202C18.4503 1.97165 19.7998 2.27946 20.7607 3.24196C21.7216 4.20454 22.0285 5.55618 21.9979 6.91939C21.9672 8.29042 21.5957 9.8125 21.0367 11.3116C19.9199 14.3064 17.9682 17.4356 16.0142 19.4525C12.9351 22.6307 7.56141 22.9645 4.32225 19.7195C1.02702 16.5184 1.35697 11.1377 4.56333 8.01131C6.58122 6.04372 9.70883 4.08494 12.7012 2.96508C14.199 2.40454 15.7195 2.03256 17.0888 2.00202ZM9.75035 17.75C11.6833 17.75 13.2504 16.183 13.2504 14.25C13.2504 12.317 11.6833 10.75 9.75035 10.75C7.81735 10.75 6.25035 12.317 6.25035 14.25C6.25035 16.183 7.81735 17.75 9.75035 17.75Z" fill="currentColor" style="fill:currentColor;fill-opacity:1;"/>
</svg>
