<svg width="24" height="24" viewBox="0 0 24 24" fill="none" xmlns="http://www.w3.org/2000/svg">
<path fill-rule="evenodd" clip-rule="evenodd" d="M7.73884 4C6.30341 4 4.97804 4.76914 4.26587 6.01544L1.98015 10.0154C1.27745 11.2452 1.27745 12.7548 1.98015 13.9846L4.26587 17.9846C4.97804 19.2309 6.30341 20 7.73884 20H17.9979C20.207 20 21.9979 18.2091 21.9979 16V8C21.9979 5.79086 20.207 4 17.9979 4H7.73884ZM11.7052 9.29289C11.3146 8.90237 10.6815 8.90237 10.2909 9.29289C9.90042 9.68342 9.90042 10.3166 10.2909 10.7071L11.5838 12L10.2909 13.2929C9.90042 13.6834 9.90042 14.3166 10.2909 14.7071C10.6815 15.0976 11.3146 15.0976 11.7052 14.7071L12.998 13.4142L14.2909 14.7071C14.6815 15.0976 15.3146 15.0976 15.7052 14.7071C16.0957 14.3166 16.0957 13.6834 15.7052 13.2929L14.4123 12L15.7052 10.7071C16.0957 10.3166 16.0957 9.68342 15.7052 9.29289C15.3146 8.90237 14.6815 8.90237 14.2909 9.29289L12.998 10.5858L11.7052 9.29289Z" fill="currentColor" style="fill:currentColor;fill-opacity:1;"/>
</svg>
