<svg width="24" height="24" viewBox="0 0 24 24" fill="none" xmlns="http://www.w3.org/2000/svg">
<path fill-rule="evenodd" clip-rule="evenodd" d="M1 8C1 5.79086 2.79086 4 5 4H19C21.2091 4 23 5.79086 23 8V16C23 18.2091 21.2091 20 19 20H5C2.79086 20 1 18.2091 1 16V8ZM4 6C3.44772 6 3 6.44772 3 7C3 7.55228 3.44772 8 4 8H5C5.55228 8 6 7.55228 6 7C6 6.44772 5.55228 6 5 6H4ZM12 9.5C10.6193 9.5 9.5 10.6193 9.5 12C9.5 13.3807 10.6193 14.5 12 14.5C13.3807 14.5 14.5 13.3807 14.5 12C14.5 10.6193 13.3807 9.5 12 9.5ZM19 16C18.4477 16 18 16.4477 18 17C18 17.5523 18.4477 18 19 18H20C20.5523 18 21 17.5523 21 17C21 16.4477 20.5523 16 20 16H19Z" fill="currentColor" style="fill:currentColor;fill-opacity:1;"/>
</svg>
