<svg width="24" height="24" viewBox="0 0 24 24" fill="none" xmlns="http://www.w3.org/2000/svg">
<path d="M19 9.00002V17M15 17V9.00002M5 9.00002V17M9 17V9.00002M3.68328 6.65838L10.6584 3.17084C11.5029 2.74855 12.4971 2.74855 13.3416 3.17084L20.3167 6.65838C20.7355 6.86776 21 7.29577 21 7.76396C21 8.44662 20.4466 9.00002 19.7639 9.00002H4.23607C3.55341 9.00002 3 8.44662 3 7.76396C3 7.29577 3.26452 6.86776 3.68328 6.65838ZM4.236 20H19.764C20.3721 20 20.8014 19.4043 20.6091 18.8275C20.2454 17.7361 19.2241 17 18.0737 17H5.92628C4.77592 17 3.75463 17.7361 3.39086 18.8275C3.19857 19.4043 3.62794 20 4.236 20Z" stroke="currentColor" stroke-width="2" stroke-linecap="square"/>
</svg>
