<svg width="24" height="24" viewBox="0 0 24 24" fill="none" xmlns="http://www.w3.org/2000/svg">
<path d="M9.42652 4.37166C9.63164 3.85887 9.38222 3.2769 8.86944 3.07179C8.35665 2.86668 7.77468 3.11609 7.56957 3.62888L5.82112 8H4.19589C4.18482 8 4.17378 8.00009 4.16275 8.00027H3.99805C3.83676 8.00027 3.6844 8.03845 3.54949 8.10627C2.64316 8.41497 2.0456 9.35374 2.22815 10.3578L3.56593 17.7155C3.91174 19.6175 5.56826 21 7.5014 21H16.4939C18.4271 21 20.0836 19.6175 20.4294 17.7155L21.7672 10.3578C21.9496 9.35458 21.3532 8.41656 20.4482 8.10705C20.3129 8.03874 20.16 8.00027 19.998 8.00027H19.8326C19.8216 8.00009 19.8105 8 19.7995 8H18.175L16.4265 3.62888C16.2214 3.11609 15.6394 2.86668 15.1267 3.07179C14.6139 3.2769 14.3645 3.85887 14.5696 4.37166L16.0209 8H7.97519L9.42652 4.37166Z" fill="currentColor" style="fill:currentColor;fill-opacity:1;"/>
</svg>
