<svg width="24" height="24" viewBox="0 0 24 24" fill="none" xmlns="http://www.w3.org/2000/svg">
<path fill-rule="evenodd" clip-rule="evenodd" d="M1 9C1 6.79086 2.79086 5 5 5H16C17.8638 5 19.4299 6.27477 19.874 8H20.5C21.8807 8 23 9.11929 23 10.5V13.5C23 14.8807 21.8807 16 20.5 16H19.874C19.4299 17.7252 17.8638 19 16 19H5C2.79086 19 1 17.2091 1 15V9ZM20 14H20.5C20.7761 14 21 13.7761 21 13.5V10.5C21 10.2239 20.7761 10 20.5 10H20V14Z" fill="currentColor" style="fill:currentColor;fill-opacity:1;"/>
</svg>
