<svg width="24" height="24" viewBox="0 0 24 24" fill="none" xmlns="http://www.w3.org/2000/svg">
<path d="M18.2996 8.99251L17.3009 9.04245V9.04245L18.2996 8.99251ZM5.70037 8.99251L6.69913 9.04245L5.70037 8.99251ZM4.08541 15.8292L3.19098 15.382H3.19098L4.08541 15.8292ZM18.7815 13.5631L19.676 13.1159L18.7815 13.5631ZM18.4686 12.3712L17.4698 12.4212L18.4686 12.3712ZM19.9146 15.8292L19.0202 16.2764L19.9146 15.8292ZM5.53144 12.3712L4.53269 12.3213L5.53144 12.3712ZM5.21846 13.5631L6.11289 14.0103H6.11289L5.21846 13.5631ZM10.5 7.5C9.94772 7.5 9.5 7.94772 9.5 8.5C9.5 9.05228 9.94772 9.5 10.5 9.5V7.5ZM13.5 8.5L14.3 9.1C14.5273 8.79698 14.5638 8.39157 14.3944 8.05279C14.225 7.714 13.8788 7.5 13.5 7.5V8.5ZM10.5 12.5L9.7 11.9C9.47274 12.203 9.43618 12.6084 9.60557 12.9472C9.77496 13.286 10.1212 13.5 10.5 13.5V12.5ZM13.5 13.5C14.0523 13.5 14.5 13.0523 14.5 12.5C14.5 11.9477 14.0523 11.5 13.5 11.5V13.5ZM15 17C15 18.6569 13.6569 20 12 20V22C14.7614 22 17 19.7614 17 17H15ZM12 20C10.3431 20 9 18.6569 9 17H7C7 19.7614 9.23858 22 12 22V20ZM4.80902 18H19.191V16H4.80902V18ZM20.809 15.382L19.676 13.1159L17.8871 14.0103L19.0202 16.2764L20.809 15.382ZM19.4673 12.3213L19.2984 8.94258L17.3009 9.04245L17.4698 12.4212L19.4673 12.3213ZM4.70162 8.94258L4.53269 12.3213L6.53019 12.4212L6.69913 9.04245L4.70162 8.94258ZM4.32404 13.1159L3.19098 15.382L4.97984 16.2764L6.11289 14.0103L4.32404 13.1159ZM12 2C8.10602 2 4.89608 5.05346 4.70162 8.94258L6.69913 9.04245C6.84036 6.21775 9.17177 4 12 4V2ZM19.2984 8.94258C19.1039 5.05346 15.894 2 12 2V4C14.8282 4 17.1596 6.21775 17.3009 9.04245L19.2984 8.94258ZM3.19098 15.382C3.06539 15.6332 3 15.9101 3 16.191H5C5 16.2206 4.9931 16.2499 4.97984 16.2764L3.19098 15.382ZM19.676 13.1159C19.5522 12.8683 19.4811 12.5977 19.4673 12.3213L17.4698 12.4212C17.4975 12.9741 17.6396 13.5152 17.8871 14.0103L19.676 13.1159ZM21 16.191C21 15.9101 20.9346 15.6332 20.809 15.382L19.0202 16.2764C19.0069 16.2499 19 16.2206 19 16.191H21ZM4.53269 12.3213C4.51886 12.5977 4.44781 12.8683 4.32404 13.1159L6.11289 14.0103C6.36045 13.5152 6.50255 12.9741 6.53019 12.4212L4.53269 12.3213ZM19.191 18C20.1901 18 21 17.1901 21 16.191H19C19 16.0855 19.0855 16 19.191 16V18ZM4.80902 16C4.91449 16 5 16.0855 5 16.191H3C3 17.1901 3.80992 18 4.80902 18V16ZM10.5 9.5H13.5V7.5H10.5V9.5ZM12.7 7.9L9.7 11.9L11.3 13.1L14.3 9.1L12.7 7.9ZM10.5 13.5H13.5V11.5H10.5V13.5Z" fill="currentColor"/>
</svg>
