<svg width="24" height="24" viewBox="0 0 24 24" fill="none" xmlns="http://www.w3.org/2000/svg">
<path fill-rule="evenodd" clip-rule="evenodd" d="M7 8.5C7 5.46243 9.46243 3 12.5 3C15.5734 3 17.4528 5.16369 17.6595 7.4083C17.7624 8.52544 17.4513 9.69056 16.6354 10.5816C16.6072 10.6124 16.5785 10.6428 16.5493 10.6727C17.0045 10.9087 17.4044 11.2025 17.7449 11.5473C18.7089 12.5233 19.1065 13.8184 19.0024 15.0821C18.7923 17.6332 16.5784 20 13 20C11.4633 20 10.0615 19.4223 9 18.4722V19C9 20.6569 7.65685 22 6 22C5.44772 22 5 21.5523 5 21C5 20.4477 5.44772 20 6 20C6.55228 20 7 19.5523 7 19V8.5ZM9 14C9 16.2091 10.7909 18 13 18C15.6037 18 16.8898 16.3668 17.0092 14.9179C17.0698 14.1816 16.8395 13.4767 16.322 12.9527C15.8072 12.4315 14.9173 12 13.5 12C13.4531 12 13.407 11.9968 13.3619 11.9905C13.2433 11.9968 13.1226 12 13 12C12.4477 12 12 11.5523 12 11C12 10.4477 12.4477 10 13 10C14.1156 10 14.7833 9.6427 15.1603 9.23093C15.5463 8.80944 15.7263 8.22456 15.668 7.5917C15.5524 6.33631 14.5003 5 12.5 5C10.567 5 9 6.567 9 8.5V14Z" fill="currentColor" style="fill:currentColor;fill-opacity:1;"/>
</svg>
