<svg width="24" height="24" viewBox="0 0 24 24" fill="none" xmlns="http://www.w3.org/2000/svg">
<path fill-rule="evenodd" clip-rule="evenodd" d="M11.5357 13.3901C11.2124 12.2586 12.2586 11.2124 13.3901 11.5357L19.8421 13.3792C21.1362 13.7489 21.3262 15.5041 20.1412 16.1422L17.5418 17.5418L16.1422 20.1412C15.5041 21.3262 13.7489 21.1362 13.3792 19.8421L11.5357 13.3901ZM13.706 13.706L14.9643 18.1101L15.852 16.4615C15.9912 16.2031 16.2031 15.9912 16.4615 15.852L18.1101 14.9643L13.706 13.706Z" fill="currentColor" style="fill:currentColor;fill-opacity:1;"/>
<path d="M5.5 3C4.11929 3 3 4.11929 3 5.5V6.5C3 7.70948 3.85888 8.71836 5 8.94999V15.05C3.85888 15.2816 3 16.2905 3 17.5V18.5C3 19.8807 4.11929 21 5.5 21H6.5C7.70948 21 8.71836 20.1411 8.94999 19H10C10.5523 19 11 18.5523 11 18C11 17.4477 10.5523 17 10 17H8.94999C8.75115 16.0204 7.97957 15.2488 7 15.05V8.94999C7.97957 8.75115 8.75115 7.97957 8.94999 7H15.05C15.2488 7.97957 16.0204 8.75115 17 8.94999V10C17 10.5523 17.4477 11 18 11C18.5523 11 19 10.5523 19 10V8.94999C20.1411 8.71836 21 7.70948 21 6.5V5.5C21 4.11929 19.8807 3 18.5 3H17.5C16.2905 3 15.2816 3.85888 15.05 5H8.94999C8.71836 3.85888 7.70948 3 6.5 3H5.5Z" fill="currentColor" style="fill:currentColor;fill-opacity:1;"/>
</svg>
