<svg width="24" height="24" viewBox="0 0 24 24" fill="none" xmlns="http://www.w3.org/2000/svg">
<path fill-rule="evenodd" clip-rule="evenodd" d="M2 12.5C2 13.8807 3.11929 15 4.5 15H4.58179C5.39363 17.0059 6.99418 18.6064 9.00003 19.4182V19.5C9.00003 20.8807 10.1193 22 11.5 22H12.5C13.8807 22 15 20.8807 15 19.5V19.4182C17.0059 18.6063 18.6064 17.0058 19.4182 15H19.5C20.8807 15 22 13.8807 22 12.5V11.5C22 10.1193 20.8807 9 19.5 9H19.4182C18.6064 6.99416 17.0058 5.39363 15 4.5818V4.5C15 3.11929 13.8807 2 12.5 2H11.5C10.1193 2 9 3.11929 9 4.5V4.58179C6.99416 5.39363 5.39363 6.99416 4.58179 9H4.5C3.11929 9 2 10.1193 2 11.5V12.5ZM9.27985 17.3496C8.15 16.7738 7.22623 15.85 6.65038 14.7202C7.45223 14.3039 8 13.4659 8 12.5V11.5C8 10.5341 7.45223 9.69614 6.65038 9.27982C7.22623 8.14999 8.14999 7.22623 9.27982 6.65038C9.69614 7.45223 10.5341 8 11.5 8H12.5C13.4659 8 14.3039 7.45223 14.7202 6.65039C15.85 7.22624 16.7738 8.15 17.3496 9.27983C16.5478 9.69616 16 10.5341 16 11.5V12.5C16 13.4659 16.5478 14.3038 17.3496 14.7202C16.7738 15.85 15.85 16.7737 14.7202 17.3496C14.3039 16.5478 13.4659 16 12.5 16H11.5C10.5341 16 9.69617 16.5478 9.27985 17.3496Z" fill="currentColor" style="fill:currentColor;fill-opacity:1;"/>
</svg>
