<svg width="24" height="24" viewBox="0 0 24 24" fill="none" xmlns="http://www.w3.org/2000/svg">
<path fill-rule="evenodd" clip-rule="evenodd" d="M6.26094 20.4815C5.27586 22.3109 2.5 21.6111 2.5 19.5333V11.9997C2.5 6.75297 6.75329 2.49968 12 2.49968C13.9992 2.49968 15.8556 3.11812 17.3862 4.17322L17.7391 3.51788C18.7241 1.68845 21.5 2.38828 21.5 4.46608V11.9997C21.5 17.2464 17.2467 21.4997 12 21.4997C10.0008 21.4997 8.14441 20.8812 6.61382 19.8261L6.26094 20.4815ZM12 15.4998C13.933 15.4998 15.5 13.9328 15.5 11.9998C15.5 10.0668 13.933 8.49976 12 8.49976C10.067 8.49976 8.5 10.0668 8.5 11.9998C8.5 13.9328 10.067 15.4998 12 15.4998Z" fill="currentColor" style="fill:currentColor;fill-opacity:1;"/>
</svg>
