<svg width="24" height="24" viewBox="0 0 24 24" fill="none" xmlns="http://www.w3.org/2000/svg">
<path fill-rule="evenodd" clip-rule="evenodd" d="M2 7C2 5.34315 3.34315 4 5 4H18C20.2091 4 22 5.79086 22 8V16C22 18.2091 20.2091 20 18 20H8.14286C7.18465 20 6.25228 19.6892 5.48571 19.1143C3.29141 17.4686 2 14.8857 2 12.1429V7ZM8.5 18C8.13321 18 7.93052 17.8824 7.7933 17.7388C7.6335 17.5716 7.49331 17.2912 7.42228 16.8887C7.27427 16.05 7.49068 15.0668 7.83205 14.5547C8.09647 14.1581 8.04417 13.63 7.70711 13.2929L6.63604 12.2218C5.70859 11.2944 5.06465 10.5602 4.6399 9.77838C4.23019 9.02426 4 8.17809 4 7C4 6.44772 4.44772 6 5 6H18C19.1046 6 20 6.89543 20 8V16C20 17.1046 19.1046 18 18 18H8.5Z" fill="currentColor" style="fill:currentColor;fill-opacity:1;"/>
</svg>
