<svg width="24" height="24" viewBox="0 0 24 24" fill="none" xmlns="http://www.w3.org/2000/svg">
<path fill-rule="evenodd" clip-rule="evenodd" d="M5 7.625C5 5.16376 6.92389 3 9.5 3H12.8333C15.8697 3 18.1667 5.55551 18.1667 8.5C18.1667 9.58312 17.8559 10.6136 17.3118 11.4836C18.3611 12.5023 19 13.9471 19 15.5C19 18.4445 16.703 21 13.6667 21H9.5C6.92389 21 5 18.8362 5 16.375V7.625ZM12.8333 10C13.4789 10 14.1667 9.4215 14.1667 8.5C14.1667 7.5785 13.4789 7 12.8333 7H9.5C9.31469 7 9 7.18675 9 7.625V10H12.8333ZM9 14H13.6667C14.3122 14 15 14.5785 15 15.5C15 16.4215 14.3122 17 13.6667 17H9.5C9.31469 17 9 16.8133 9 16.375V14Z" fill="currentColor" style="fill:currentColor;fill-opacity:1;"/>
</svg>
