<svg width="24" height="24" viewBox="0 0 24 24" fill="none" xmlns="http://www.w3.org/2000/svg">
<path fill-rule="evenodd" clip-rule="evenodd" d="M12 2C9.79086 2 8 3.79086 8 6V8H6C3.79086 8 2 9.79086 2 12V18C2 20.2091 3.79086 22 6 22H12C14.2091 22 16 20.2091 16 18V16H18C20.2091 16 22 14.2091 22 12V6C22 3.79086 20.2091 2 18 2H12ZM18 14C19.1046 14 20 13.1046 20 12V6C20 4.89543 19.1046 4 18 4H12C10.8954 4 10 4.89543 10 6V12C10 13.1046 10.8954 14 12 14H18Z" fill="currentColor" style="fill:currentColor;fill-opacity:1;"/>
</svg>
