<svg width="25" height="24" viewBox="0 0 25 24" fill="none" xmlns="http://www.w3.org/2000/svg">
<path fill-rule="evenodd" clip-rule="evenodd" d="M20.2741 4.14824C20.7445 4.43769 20.8911 5.05364 20.6017 5.52399L18.4626 8.9999H19.75C20.3023 8.9999 20.75 9.44761 20.75 9.9999V17.9999C20.75 20.209 18.9591 21.9999 16.75 21.9999H8.75C6.54086 21.9999 4.75 20.209 4.75 17.9999V9.9999C4.75 9.44761 5.19772 8.9999 5.75 8.9999H16.1143L18.8983 4.4758C19.1878 4.00544 19.8037 3.85879 20.2741 4.14824ZM10.75 12.9999C10.1977 12.9999 9.75 13.4476 9.75 13.9999C9.75 14.5522 10.1977 14.9999 10.75 14.9999H14.75C15.3023 14.9999 15.75 14.5522 15.75 13.9999C15.75 13.4476 15.3023 12.9999 14.75 12.9999H10.75Z" fill="currentColor" style="fill:currentColor;fill-opacity:1;"/>
<path d="M12.6001 3.07442C12.6968 3.02604 12.7753 2.94758 12.8237 2.85081L13.3019 1.89431C13.4862 1.52579 14.0121 1.52579 14.1964 1.89431L14.6746 2.85081C14.723 2.94758 14.8015 3.02604 14.8982 3.07442L15.8547 3.55267C16.2233 3.73693 16.2233 4.26284 15.8547 4.4471L14.8982 4.92535C14.8015 4.97373 14.723 5.05219 14.6746 5.14896L14.1964 6.10546C14.0121 6.47398 13.4862 6.47398 13.3019 6.10546L12.8237 5.14896C12.7753 5.05219 12.6968 4.97373 12.6001 4.92535L11.6436 4.4471C11.2751 4.26284 11.2751 3.73693 11.6436 3.55267L12.6001 3.07442Z" fill="currentColor" style="fill:currentColor;fill-opacity:1;"/>
<path d="M7.26675 4.74109C7.36351 4.69271 7.44197 4.61425 7.49036 4.51748L7.80194 3.89431C7.9862 3.52579 8.5121 3.52579 8.69637 3.89431L9.00795 4.51748C9.05633 4.61424 9.13479 4.69271 9.23156 4.74109L9.85472 5.05267C10.2232 5.23693 10.2233 5.76284 9.85473 5.9471L9.23156 6.25868C9.13479 6.30707 9.05633 6.38553 9.00795 6.48229L8.69637 7.10546C8.5121 7.47398 7.9862 7.47398 7.80194 7.10546L7.49036 6.48229C7.44197 6.38553 7.36351 6.30707 7.26675 6.25868L6.64358 5.9471C6.27506 5.76284 6.27506 5.23693 6.64358 5.05267L7.26675 4.74109Z" fill="currentColor" style="fill:currentColor;fill-opacity:1;"/>
</svg>
