<svg width="24" height="24" viewBox="0 0 24 24" fill="none" xmlns="http://www.w3.org/2000/svg">
<path d="M17 3C19.2092 3 21 4.79086 21 7L21 12H15.874C15.4177 12 15.0193 12.3089 14.9055 12.7507C14.5724 14.0449 13.3965 15 12 15C10.6035 15 9.42754 14.0449 9.09445 12.7507C8.98071 12.3089 8.58229 12 8.12601 12H3.00002L3.00003 6.99999C3.00004 4.79086 4.7909 3.00001 7.00003 3.00001L17 3Z" fill="currentColor" style="fill:currentColor;fill-opacity:1;"/>
<path d="M3.00002 14L3 17C2.99999 19.2091 4.79086 21 7 21H17C19.2092 21 21 19.2091 21 17L21 14H16.5836C15.8122 15.7655 14.0512 17 12 17C9.94877 17 8.18782 15.7655 7.41636 14H3.00002Z" fill="currentColor" style="fill:currentColor;fill-opacity:1;"/>
</svg>
