<svg width="24" height="24" viewBox="0 0 24 24" fill="none" xmlns="http://www.w3.org/2000/svg">
<path d="M6.5 3C4.84315 3 3.5 4.34315 3.5 6C3.5 7.30622 4.33481 8.41746 5.5 8.82929V15.1707C4.33481 15.5825 3.5 16.6938 3.5 18C3.5 19.6569 4.84315 21 6.5 21C8.15685 21 9.5 19.6569 9.5 18C9.5 16.6938 8.66519 15.5825 7.5 15.1707V15C7.5 13.8954 8.39543 13 9.5 13H14.5C16.7091 13 18.5 11.2091 18.5 9V8.82929C19.6652 8.41746 20.5 7.30622 20.5 6C20.5 4.34315 19.1569 3 17.5 3C15.8431 3 14.5 4.34315 14.5 6C14.5 7.30622 15.3348 8.41746 16.5 8.82929V9C16.5 10.1046 15.6046 11 14.5 11H9.5C8.77143 11 8.08835 11.1948 7.5 11.5351V8.82929C8.66519 8.41746 9.5 7.30622 9.5 6C9.5 4.34315 8.15685 3 6.5 3Z" fill="currentColor"/>
</svg>
