<svg width="24" height="24" viewBox="0 0 24 24" fill="none" xmlns="http://www.w3.org/2000/svg">
<path d="M12 2C6.47715 2 2 6.47715 2 12C2 13.4889 2.32603 14.9043 2.91155 16.1765C2.91945 16.1937 2.92219 16.2075 2.92286 16.2157C2.92318 16.2196 2.92303 16.2219 2.92293 16.2228C2.92247 16.2243 2.92283 16.2237 2.92293 16.2228L2.12696 18.7803C1.53396 20.6856 3.30237 22.4836 5.21726 21.9223L7.90422 21.1346C7.90654 21.1344 7.92174 21.1331 7.94883 21.1451C9.18849 21.695 10.56 22 12 22C17.5228 22 22 17.5228 22 12C22 6.47715 17.5228 2 12 2Z" fill="currentColor" style="fill:currentColor;fill-opacity:1;"/>
</svg>
