<svg width="24" height="24" viewBox="0 0 24 24" fill="none" xmlns="http://www.w3.org/2000/svg">
<path fill-rule="evenodd" clip-rule="evenodd" d="M17.0019 3L7.00195 3.00002C4.79281 3.00002 3.00195 4.79088 3.00195 7.00002V15.0358C3.00195 17.2449 4.79281 19.0358 7.00195 19.0358H8.65157L11.3553 21.3021C11.7252 21.6123 12.2639 21.6138 12.6357 21.3058L15.3757 19.0358L17.002 19.0358C19.2111 19.0357 21.002 17.2449 21.002 15.0358V7C21.002 4.79086 19.2111 3 17.0019 3ZM11.9998 7.5C12.552 7.5 12.9998 7.94772 12.9998 8.5V10.5C12.9998 11.0523 12.552 11.5 11.9998 11.5C11.4475 11.5 10.9998 11.0523 10.9998 10.5V8.5C10.9998 7.94772 11.4475 7.5 11.9998 7.5ZM11.9998 12.25C11.3094 12.25 10.7498 12.8096 10.7498 13.5C10.7498 14.1904 11.3094 14.75 11.9998 14.75C12.6901 14.75 13.2498 14.1904 13.2498 13.5C13.2498 12.8096 12.6901 12.25 11.9998 12.25Z" fill="currentColor" style="fill:currentColor;fill-opacity:1;"/>
</svg>
