<svg width="24" height="24" viewBox="0 0 24 24" fill="none" xmlns="http://www.w3.org/2000/svg">
<path d="M17.9466 7.81131L17.851 7.3118C17.7649 6.86329 17.5702 6.43954 17.1265 6.27753C16.984 6.22578 16.8226 6.20403 16.714 6.09678C16.604 5.98953 16.5721 5.82227 16.5468 5.66777C16.4998 5.38427 16.4563 5.10076 16.4078 4.81801C16.3666 4.57425 16.334 4.3005 16.2269 4.07774C16.0858 3.77774 15.7948 3.60223 15.506 3.48673C15.3578 3.4293 15.2065 3.38072 15.0529 3.34123C14.3292 3.14397 13.5692 3.07122 12.8259 3.02922C11.9333 2.97837 11.0384 2.99391 10.148 3.07572C9.48573 3.13797 8.78729 3.21372 8.15761 3.45073C7.92746 3.53773 7.69006 3.64273 7.51491 3.82649C7.29995 4.05299 7.23047 4.404 7.3868 4.686C7.49826 4.88626 7.68717 5.02801 7.88765 5.12101C8.14821 5.24251 8.42107 5.33401 8.70044 5.39552C9.47849 5.57402 10.2848 5.64377 11.0795 5.67302C11.961 5.71052 12.8433 5.68052 13.7212 5.58452C13.9376 5.55977 14.154 5.52977 14.3697 5.49527C14.6245 5.45477 14.788 5.11051 14.7128 4.86976C14.623 4.5825 14.382 4.4715 14.1091 4.515C13.7719 4.5705 13.4143 4.596 13.1089 4.6245C12.257 4.6845 11.4023 4.686 10.5497 4.629C10.2699 4.60982 9.99068 4.58306 9.71227 4.54875C9.65002 4.54125 9.58199 4.53 9.52553 4.52175C9.34966 4.49475 9.17523 4.46175 9.00153 4.42425C8.92119 4.404 8.92119 4.2855 9.00153 4.26524H9.00515C9.20563 4.22024 9.40828 4.18424 9.61166 4.15499H9.61311C9.70792 4.14824 9.80346 4.13099 9.89827 4.11899C10.7219 4.03041 11.5503 4.00034 12.3779 4.02899C12.8657 4.04324 13.3528 4.07924 13.8377 4.13699L14.0028 4.16024C14.196 4.19024 14.3885 4.22624 14.5803 4.26899C14.864 4.33275 15.2281 4.35375 15.3548 4.6755C15.3946 4.77825 15.4127 4.89151 15.4351 4.99876L15.666 6.11178C15.6709 6.13564 15.671 6.1603 15.6663 6.18421C15.6616 6.20812 15.6522 6.23076 15.6387 6.25075C15.6252 6.27073 15.6078 6.28761 15.5877 6.30035C15.5677 6.31309 15.5453 6.3214 15.5219 6.32478H15.5198C15.493 6.32928 15.4655 6.33228 15.4387 6.33603C14.3002 6.48655 13.1536 6.56046 12.0059 6.55729C10.8687 6.55607 9.73275 6.47992 8.6049 6.32928C8.50358 6.31653 8.39284 6.29778 8.30309 6.28428C8.06714 6.24828 7.83337 6.20328 7.59887 6.16353C7.31443 6.11478 7.04301 6.13953 6.78608 6.28428C6.57618 6.40429 6.40465 6.58729 6.29753 6.81004C6.18607 7.04705 6.1535 7.30505 6.10429 7.56006C6.05435 7.81506 5.97691 8.09032 6.00658 8.35207C6.06955 8.91683 6.45025 9.37584 6.99814 9.47859C9.70754 9.97965 12.4724 10.0746 15.2078 9.7606C15.2598 9.75447 15.3124 9.76051 15.3619 9.77826C15.4113 9.79601 15.4562 9.82503 15.4934 9.86318C15.5305 9.90133 15.559 9.94763 15.5766 9.99867C15.5941 10.0497 15.6005 10.1042 15.595 10.1581L15.5437 10.6809L14.8069 18.1113C14.7772 18.4188 14.7728 18.7353 14.7164 19.039C14.6281 19.5168 14.3161 19.81 13.8609 19.9173C13.4433 20.0155 13.0177 20.0673 12.59 20.071C12.1152 20.074 11.6418 20.0523 11.167 20.0545C10.6611 20.0575 10.0409 20.0095 9.65075 19.6195C9.30696 19.276 9.25991 18.739 9.21287 18.2748L8.68379 13.0149L8.45074 10.6944C8.42396 10.4311 8.24374 10.1731 7.96003 10.1859C7.71684 10.1971 7.44036 10.4109 7.46931 10.6951L7.63433 12.3339L8.32119 19.168C8.42758 20.176 9.17089 20.7191 10.0915 20.8721C10.6286 20.9621 11.1793 20.9801 11.7251 20.9891C12.4242 21.0011 13.1306 21.0288 13.8182 20.8976C14.8373 20.7041 15.6023 19.999 15.7116 18.9048C15.9576 16.4057 16.2059 13.9074 16.4527 11.4084L16.6083 9.8431C16.616 9.76548 16.6476 9.69249 16.6984 9.63493C16.7493 9.57738 16.8166 9.53834 16.8906 9.52359C17.1815 9.46509 17.4602 9.36459 17.6679 9.13509C17.9972 8.76908 18.0631 8.29282 17.9466 7.81131ZM16.8768 8.39032C16.7719 8.49307 16.6141 8.54108 16.4585 8.56508C14.7099 8.83433 12.9366 8.97008 11.1692 8.91008C9.90406 8.86508 8.65267 8.71958 7.40055 8.53658C7.27751 8.51858 7.14507 8.49532 7.06038 8.40157C6.90116 8.22457 6.98005 7.86906 7.0213 7.65531C7.05894 7.4603 7.13131 7.19855 7.35641 7.1708C7.70671 7.12805 8.11347 7.2818 8.46087 7.3358C8.87849 7.4018 9.29755 7.45505 9.71806 7.49481C11.513 7.66431 13.3383 7.63731 15.126 7.3898C15.4517 7.3448 15.7767 7.2923 16.0995 7.2323C16.3883 7.1783 16.7075 7.0778 16.8812 7.3868C17.0013 7.59756 17.0172 7.87956 16.9984 8.11732C16.9927 8.22115 16.949 8.3188 16.8761 8.39032H16.8768ZM12.4192 11.3154C11.7953 11.5929 11.0874 11.9064 10.169 11.9064C9.78508 11.9054 9.40309 11.8507 9.03337 11.7436L9.66812 18.4968C9.71516 19.0818 10.1871 19.5318 10.7538 19.5318C10.7538 19.5318 11.6534 19.5805 11.9538 19.5805C12.2773 19.5805 13.2464 19.5318 13.2464 19.5318C13.8131 19.5318 14.2843 19.0818 14.3313 18.4968L15.0117 11.0341C14.7048 10.9191 14.3812 10.8587 14.0549 10.8556C13.457 10.8556 12.9757 11.0686 12.4192 11.3154Z" fill="currentColor"/>
</svg>
