<svg width="24" height="24" viewBox="0 0 24 24" fill="none" xmlns="http://www.w3.org/2000/svg">
<path d="M7 5H17V3H7V5ZM19 7V8H21V7H19ZM19 8V17H21V8H19ZM17 19H7V21H17V19ZM5 17V8H3V17H5ZM5 8V7H3V8H5ZM4 9H20V7H4V9ZM7.25 12C7.25 11.5858 7.58579 11.25 8 11.25V13.25C8.69036 13.25 9.25 12.6904 9.25 12H7.25ZM8 11.25C8.41422 11.25 8.75 11.5858 8.75 12H6.75C6.75 12.6904 7.30965 13.25 8 13.25V11.25ZM8.75 12C8.75 12.4143 8.41422 12.75 8 12.75V10.75C7.30965 10.75 6.75 11.3097 6.75 12H8.75ZM8 12.75C7.58579 12.75 7.25 12.4143 7.25 12H9.25C9.25 11.3097 8.69036 10.75 8 10.75V12.75ZM7 11.75V12.25H9V11.75H7ZM8.25 11H7.75V13H8.25V11ZM7.35052 12.375C7.14342 12.0163 7.26632 11.5576 7.62504 11.3505L8.62504 13.0826C9.22291 12.7374 9.42775 11.9729 9.08257 11.375L7.35052 12.375ZM7.62504 11.3505C7.98376 11.1434 8.44245 11.2663 8.64956 11.625L6.91751 12.625C7.26269 13.2229 8.02718 13.4277 8.62504 13.0826L7.62504 11.3505ZM8.64956 11.625C8.85667 11.9838 8.73376 12.4425 8.37504 12.6496L7.37504 10.9175C6.77718 11.2627 6.57233 12.0272 6.91751 12.625L8.64956 11.625ZM8.37504 12.6496C8.01632 12.8567 7.55763 12.7338 7.35052 12.375L9.08257 11.375C8.73739 10.7772 7.97291 10.5723 7.37504 10.9175L8.37504 12.6496ZM7.00902 12.2835L7.25902 12.7165L8.99107 11.7165L8.74107 11.2835L7.00902 12.2835ZM7.71655 11.009L7.28353 11.259L8.28354 12.9911L8.71655 12.7411L7.71655 11.009ZM7.62508 12.6496C7.26636 12.4425 7.14345 11.9838 7.35056 11.6251L9.08261 12.6251C9.42779 12.0272 9.22295 11.2627 8.62508 10.9175L7.62508 12.6496ZM7.35056 11.6251C7.55767 11.2663 8.01636 11.1434 8.37508 11.3505L7.37508 13.0826C7.97295 13.4278 8.73744 13.2229 9.08261 12.6251L7.35056 11.6251ZM8.37508 11.3505C8.7338 11.5576 8.85671 12.0163 8.6496 12.3751L6.91755 11.3751C6.57237 11.9729 6.77722 12.7374 7.37508 13.0826L8.37508 11.3505ZM8.6496 12.3751C8.44249 12.7338 7.9838 12.8567 7.62508 12.6496L8.62508 10.9175C8.02721 10.5723 7.26273 10.7772 6.91755 11.3751L8.6496 12.3751ZM7.28357 12.7411L7.71659 12.9911L8.71659 11.259L8.28357 11.009L7.28357 12.7411ZM7.25905 11.2836L7.00905 11.7166L8.74111 12.7166L8.99111 12.2836L7.25905 11.2836ZM7.25 16C7.25 15.5858 7.58579 15.25 8 15.25V17.25C8.69036 17.25 9.25 16.6904 9.25 16H7.25ZM8 15.25C8.41422 15.25 8.75 15.5858 8.75 16H6.75C6.75 16.6904 7.30965 17.25 8 17.25V15.25ZM8.75 16C8.75 16.4143 8.41422 16.75 8 16.75V14.75C7.30965 14.75 6.75 15.3097 6.75 16H8.75ZM8 16.75C7.58579 16.75 7.25 16.4143 7.25 16H9.25C9.25 15.3097 8.69036 14.75 8 14.75V16.75ZM7 15.75V16.25H9V15.75H7ZM8.25 15H7.75V17H8.25V15ZM7.35052 16.375C7.14342 16.0163 7.26632 15.5576 7.62504 15.3505L8.62504 17.0826C9.22291 16.7374 9.42775 15.9729 9.08257 15.375L7.35052 16.375ZM7.62504 15.3505C7.98376 15.1434 8.44245 15.2663 8.64956 15.625L6.91751 16.625C7.26269 17.2229 8.02718 17.4277 8.62504 17.0826L7.62504 15.3505ZM8.64956 15.625C8.85667 15.9838 8.73376 16.4425 8.37504 16.6496L7.37504 14.9175C6.77718 15.2627 6.57233 16.0272 6.91751 16.625L8.64956 15.625ZM8.37504 16.6496C8.01632 16.8567 7.55763 16.7338 7.35052 16.375L9.08257 15.375C8.7374 14.7772 7.97291 14.5723 7.37504 14.9175L8.37504 16.6496ZM7.00902 16.2835L7.25902 16.7165L8.99107 15.7165L8.74107 15.2835L7.00902 16.2835ZM7.71655 15.009L7.28354 15.259L8.28354 16.9911L8.71655 16.7411L7.71655 15.009ZM7.62508 16.6496C7.26636 16.4425 7.14345 15.9838 7.35056 15.6251L9.08261 16.6251C9.42779 16.0272 9.22295 15.2627 8.62508 14.9175L7.62508 16.6496ZM7.35056 15.6251C7.55767 15.2663 8.01636 15.1434 8.37508 15.3505L7.37508 17.0826C7.97295 17.4278 8.73744 17.2229 9.08261 16.6251L7.35056 15.6251ZM8.37508 15.3505C8.7338 15.5576 8.85671 16.0163 8.6496 16.3751L6.91755 15.3751C6.57237 15.9729 6.77721 16.7374 7.37508 17.0826L8.37508 15.3505ZM8.6496 16.3751C8.44249 16.7338 7.9838 16.8567 7.62508 16.6496L8.62508 14.9175C8.02722 14.5723 7.26273 14.7772 6.91755 15.3751L8.6496 16.3751ZM7.28357 16.7411L7.71659 16.9911L8.71659 15.259L8.28357 15.009L7.28357 16.7411ZM7.25905 15.2836L7.00905 15.7166L8.74111 16.7166L8.99111 16.2836L7.25905 15.2836ZM11.25 16C11.25 15.5858 11.5858 15.25 12 15.25V17.25C12.6904 17.25 13.25 16.6904 13.25 16H11.25ZM12 15.25C12.4142 15.25 12.75 15.5858 12.75 16H10.75C10.75 16.6904 11.3096 17.25 12 17.25V15.25ZM12.75 16C12.75 16.4143 12.4142 16.75 12 16.75V14.75C11.3096 14.75 10.75 15.3097 10.75 16H12.75ZM12 16.75C11.5858 16.75 11.25 16.4143 11.25 16H13.25C13.25 15.3097 12.6904 14.75 12 14.75V16.75ZM11 15.75V16.25H13V15.75H11ZM12.25 15H11.75V17H12.25V15ZM11.3505 16.375C11.1434 16.0163 11.2663 15.5576 11.625 15.3505L12.625 17.0826C13.2229 16.7374 13.4278 15.9729 13.0826 15.375L11.3505 16.375ZM11.625 15.3505C11.9838 15.1434 12.4425 15.2663 12.6496 15.625L10.9175 16.625C11.2627 17.2229 12.0272 17.4277 12.625 17.0826L11.625 15.3505ZM12.6496 15.625C12.8567 15.9838 12.7338 16.4425 12.375 16.6496L11.375 14.9175C10.7772 15.2627 10.5723 16.0272 10.9175 16.625L12.6496 15.625ZM12.375 16.6496C12.0163 16.8567 11.5576 16.7338 11.3505 16.375L13.0826 15.375C12.7374 14.7772 11.9729 14.5723 11.375 14.9175L12.375 16.6496ZM11.009 16.2835L11.259 16.7165L12.9911 15.7165L12.7411 15.2835L11.009 16.2835ZM11.7165 15.009L11.2835 15.259L12.2835 16.9911L12.7165 16.7411L11.7165 15.009ZM11.6251 16.6496C11.2664 16.4425 11.1435 15.9838 11.3506 15.6251L13.0826 16.6251C13.4278 16.0272 13.2229 15.2627 12.6251 14.9175L11.6251 16.6496ZM11.3506 15.6251C11.5577 15.2663 12.0164 15.1434 12.3751 15.3505L11.3751 17.0826C11.9729 17.4278 12.7374 17.2229 13.0826 16.6251L11.3506 15.6251ZM12.3751 15.3505C12.7338 15.5576 12.8567 16.0163 12.6496 16.3751L10.9175 15.3751C10.5724 15.9729 10.7772 16.7374 11.3751 17.0826L12.3751 15.3505ZM12.6496 16.3751C12.4425 16.7338 11.9838 16.8567 11.6251 16.6496L12.6251 14.9175C12.0272 14.5723 11.2627 14.7772 10.9175 15.3751L12.6496 16.3751ZM11.2836 16.7411L11.7166 16.9911L12.7166 15.259L12.2836 15.009L11.2836 16.7411ZM11.2591 15.2836L11.0091 15.7166L12.7411 16.7166L12.9911 16.2836L11.2591 15.2836ZM11.25 12C11.25 11.5858 11.5858 11.25 12 11.25V13.25C12.6904 13.25 13.25 12.6904 13.25 12H11.25ZM12 11.25C12.4142 11.25 12.75 11.5858 12.75 12H10.75C10.75 12.6904 11.3096 13.25 12 13.25V11.25ZM12.75 12C12.75 12.4143 12.4142 12.75 12 12.75V10.75C11.3096 10.75 10.75 11.3097 10.75 12H12.75ZM12 12.75C11.5858 12.75 11.25 12.4143 11.25 12H13.25C13.25 11.3097 12.6904 10.75 12 10.75V12.75ZM11 11.75V12.25H13V11.75H11ZM12.25 11H11.75V13H12.25V11ZM11.3505 12.375C11.1434 12.0163 11.2663 11.5576 11.625 11.3505L12.625 13.0826C13.2229 12.7374 13.4277 11.9729 13.0826 11.375L11.3505 12.375ZM11.625 11.3505C11.9838 11.1434 12.4425 11.2663 12.6496 11.625L10.9175 12.625C11.2627 13.2229 12.0272 13.4277 12.625 13.0826L11.625 11.3505ZM12.6496 11.625C12.8567 11.9838 12.7338 12.4425 12.375 12.6496L11.375 10.9175C10.7772 11.2627 10.5723 12.0272 10.9175 12.625L12.6496 11.625ZM12.375 12.6496C12.0163 12.8567 11.5576 12.7338 11.3505 12.375L13.0826 11.375C12.7374 10.7772 11.9729 10.5723 11.375 10.9175L12.375 12.6496ZM11.009 12.2835L11.259 12.7165L12.9911 11.7165L12.7411 11.2835L11.009 12.2835ZM11.7165 11.009L11.2835 11.259L12.2835 12.9911L12.7165 12.7411L11.7165 11.009ZM11.6251 12.6496C11.2664 12.4425 11.1435 11.9838 11.3506 11.6251L13.0826 12.6251C13.4278 12.0272 13.2229 11.2627 12.6251 10.9175L11.6251 12.6496ZM11.3506 11.6251C11.5577 11.2663 12.0164 11.1434 12.3751 11.3505L11.3751 13.0826C11.9729 13.4278 12.7374 13.2229 13.0826 12.6251L11.3506 11.6251ZM12.3751 11.3505C12.7338 11.5576 12.8567 12.0163 12.6496 12.3751L10.9175 11.3751C10.5724 11.9729 10.7772 12.7374 11.3751 13.0826L12.3751 11.3505ZM12.6496 12.3751C12.4425 12.7338 11.9838 12.8567 11.6251 12.6496L12.6251 10.9175C12.0272 10.5723 11.2627 10.7772 10.9175 11.3751L12.6496 12.3751ZM11.2836 12.7411L11.7166 12.9911L12.7166 11.259L12.2836 11.009L11.2836 12.7411ZM11.2591 11.2836L11.0091 11.7166L12.7411 12.7166L12.9911 12.2836L11.2591 11.2836ZM15.25 12C15.25 11.5858 15.5858 11.25 16 11.25V13.25C16.6904 13.25 17.25 12.6904 17.25 12H15.25ZM16 11.25C16.4142 11.25 16.75 11.5858 16.75 12H14.75C14.75 12.6904 15.3096 13.25 16 13.25V11.25ZM16.75 12C16.75 12.4143 16.4142 12.75 16 12.75V10.75C15.3096 10.75 14.75 11.3097 14.75 12H16.75ZM16 12.75C15.5858 12.75 15.25 12.4143 15.25 12H17.25C17.25 11.3097 16.6904 10.75 16 10.75V12.75ZM15 11.75V12.25H17V11.75H15ZM16.25 11H15.75V13H16.25V11ZM15.3505 12.375C15.1434 12.0163 15.2663 11.5576 15.625 11.3505L16.625 13.0826C17.2229 12.7374 17.4277 11.9729 17.0826 11.375L15.3505 12.375ZM15.625 11.3505C15.9838 11.1434 16.4425 11.2663 16.6496 11.625L14.9175 12.625C15.2627 13.2229 16.0272 13.4277 16.625 13.0826L15.625 11.3505ZM16.6496 11.625C16.8567 11.9838 16.7338 12.4425 16.375 12.6496L15.375 10.9175C14.7772 11.2627 14.5723 12.0272 14.9175 12.625L16.6496 11.625ZM16.375 12.6496C16.0163 12.8567 15.5576 12.7338 15.3505 12.375L17.0826 11.375C16.7374 10.7772 15.9729 10.5723 15.375 10.9175L16.375 12.6496ZM15.009 12.2835L15.259 12.7165L16.9911 11.7165L16.7411 11.2835L15.009 12.2835ZM15.7165 11.009L15.2835 11.259L16.2835 12.9911L16.7165 12.7411L15.7165 11.009ZM15.6251 12.6496C15.2664 12.4425 15.1435 11.9838 15.3506 11.6251L17.0826 12.6251C17.4278 12.0272 17.2229 11.2627 16.6251 10.9175L15.6251 12.6496ZM15.3506 11.6251C15.5577 11.2663 16.0164 11.1434 16.3751 11.3505L15.3751 13.0826C15.9729 13.4278 16.7374 13.2229 17.0826 12.6251L15.3506 11.6251ZM16.3751 11.3505C16.7338 11.5576 16.8567 12.0163 16.6496 12.3751L14.9175 11.3751C14.5724 11.9729 14.7772 12.7374 15.3751 13.0826L16.3751 11.3505ZM16.6496 12.3751C16.4425 12.7338 15.9838 12.8567 15.6251 12.6496L16.6251 10.9175C16.0272 10.5723 15.2627 10.7772 14.9175 11.3751L16.6496 12.3751ZM15.2836 12.7411L15.7166 12.9911L16.7166 11.259L16.2836 11.009L15.2836 12.7411ZM15.2591 11.2836L15.0091 11.7166L16.7411 12.7166L16.9911 12.2836L15.2591 11.2836ZM7 19C5.89543 19 5 18.1046 5 17H3C3 19.2091 4.79086 21 7 21V19ZM19 17C19 18.1046 18.1046 19 17 19V21C19.2091 21 21 19.2091 21 17H19ZM17 5C18.1046 5 19 5.89543 19 7H21C21 4.79086 19.2091 3 17 3V5ZM7 3C4.79086 3 3 4.79086 3 7H5C5 5.89543 5.89543 5 7 5V3Z" fill="currentColor"/>
</svg>
