<svg width="24" height="24" viewBox="0 0 24 24" fill="none" xmlns="http://www.w3.org/2000/svg">
<path d="M9 3C9 2.44772 8.55228 2 8 2C7.44772 2 7 2.44772 7 3V4C4.79086 4 3 5.79086 3 8V17C3 19.2091 4.79086 21 7 21H10.0723C9.90014 20.7011 9.74539 20.3877 9.60984 20.0605C7.92025 15.98 9.85773 11.3009 13.9392 9.61023C16.3283 8.62063 18.9212 8.8744 21 10.073V8C21 5.79086 19.2091 4 17 4V3C17 2.44772 16.5523 2 16 2C15.4477 2 15 2.44772 15 3V4H9V3Z" fill="currentColor" style="fill:currentColor;fill-opacity:1;"/>
<path d="M17 14.0002C17.5523 14.0002 18 14.448 18 15.0002V16.5857L19.2072 17.7932C19.5977 18.1838 19.5976 18.817 19.207 19.2074C18.8164 19.5979 18.1833 19.5978 17.7928 19.2073L16.2928 17.7069C16.1053 17.5193 16 17.265 16 16.9999V15.0002C16 14.448 16.4477 14.0002 17 14.0002Z" fill="currentColor" style="fill:currentColor;fill-opacity:1;"/>
<path fill-rule="evenodd" clip-rule="evenodd" d="M11 17C11 13.6863 13.6863 11 17 11C20.3137 11 23 13.6863 23 17C23 20.3137 20.3137 23 17 23C13.6863 23 11 20.3137 11 17ZM17 13C14.7909 13 13 14.7909 13 17C13 19.2091 14.7909 21 17 21C19.2091 21 21 19.2091 21 17C21 14.7909 19.2091 13 17 13Z" fill="currentColor" style="fill:currentColor;fill-opacity:1;"/>
</svg>
