<svg width="24" height="24" viewBox="0 0 24 24" fill="none" xmlns="http://www.w3.org/2000/svg">
<path fill-rule="evenodd" clip-rule="evenodd" d="M19.8284 14.1716C18.2663 12.6095 15.7337 12.6095 14.1716 14.1716C12.6095 15.7337 12.6095 18.2663 14.1716 19.8284C15.4895 21.1464 17.4983 21.3524 19.0322 20.4464L20.2929 21.7071C20.6834 22.0976 21.3166 22.0976 21.7071 21.7071C22.0976 21.3166 22.0976 20.6834 21.7071 20.2929L20.4464 19.0322C21.3524 17.4983 21.1464 15.4895 19.8284 14.1716ZM15.5858 18.4142C14.8047 17.6332 14.8047 16.3668 15.5858 15.5858C16.3668 14.8047 17.6332 14.8047 18.4142 15.5858C19.1953 16.3668 19.1953 17.6332 18.4142 18.4142C17.6332 19.1953 16.3668 19.1953 15.5858 18.4142Z" fill="currentColor" style="fill:currentColor;fill-opacity:1;"/>
<path d="M9 3C9 2.44772 8.55228 2 8 2C7.44772 2 7 2.44772 7 3V4C4.79086 4 3 5.79086 3 8V17C3 19.2091 4.79086 21 7 21H10C10.5523 21 11 20.5523 11 20C11 19.4477 10.5523 19 10 19H7C5.89543 19 5 18.1046 5 17V10H19C19 10.5523 19.4477 11 20 11C20.5523 11 21 10.5523 21 10V8C21 5.79086 19.2091 4 17 4V3C17 2.44772 16.5523 2 16 2C15.4477 2 15 2.44772 15 3V4H9V3Z" fill="currentColor" style="fill:currentColor;fill-opacity:1;"/>
</svg>
