<svg width="24" height="24" viewBox="0 0 24 24" fill="none" xmlns="http://www.w3.org/2000/svg">
<path d="M9 3C9 2.44772 8.55228 2 8 2C7.44772 2 7 2.44772 7 3V4C4.79086 4 3 5.79086 3 8V17C3 19.2091 4.79086 21 7 21H11C11.5523 21 12 20.5523 12 20C12 19.4477 11.5523 19 11 19H7C5.89543 19 5 18.1046 5 17V10H19C19 10.5523 19.4477 11 20 11C20.5523 11 21 10.5523 21 10V8C21 5.79086 19.2091 4 17 4V3C17 2.44772 16.5523 2 16 2C15.4477 2 15 2.44772 15 3V4H9V3Z" fill="currentColor" style="fill:currentColor;fill-opacity:1;"/>
<path d="M21.7071 14.2929C20.7643 13.3501 19.2357 13.3501 18.2929 14.2929L15.1716 17.4142C14.4214 18.1644 14 19.1818 14 20.2426V21C14 21.5523 14.4477 22 15 22H15.7574C16.8182 22 17.8356 21.5786 18.5858 20.8284L21.7071 17.7071C22.6499 16.7643 22.6499 15.2357 21.7071 14.2929Z" fill="currentColor" style="fill:currentColor;fill-opacity:1;"/>
</svg>
