<svg width="24" height="24" viewBox="0 0 24 24" fill="none" xmlns="http://www.w3.org/2000/svg">
<path fill-rule="evenodd" clip-rule="evenodd" d="M3.70711 2.29289C3.31658 1.90237 2.68342 1.90237 2.29289 2.29289C1.90237 2.68342 1.90237 3.31658 2.29289 3.70711L4.76245 6.17667C3.16204 6.67433 2 8.16708 2 9.93125V17C2 19.2091 3.79086 21 6 21H18C18.4744 21 18.9294 20.9174 19.3517 20.7659L20.2929 21.7071C20.6834 22.0976 21.3166 22.0976 21.7071 21.7071C22.0976 21.3166 22.0976 20.6834 21.7071 20.2929L3.70711 2.29289ZM13.9754 15.3896L9.11036 10.5246C8.72528 11.0868 8.5 11.7671 8.5 12.5C8.5 14.433 10.067 16 12 16C12.7329 16 13.4132 15.7747 13.9754 15.3896Z" fill="currentColor" style="fill:currentColor;fill-opacity:1;"/>
<path d="M8.34627 4.10399L21.9395 17.6972C21.9792 17.4708 22 17.2378 22 17V9.93124C22 7.76008 20.2399 6 18.0688 6C17.423 6 16.82 5.67729 16.4619 5.14002L16.2226 4.7812C15.4808 3.6684 14.2319 3 12.8944 3H11.1056C10.0671 3 9.08207 3.40295 8.34627 4.10399Z" fill="currentColor" style="fill:currentColor;fill-opacity:1;"/>
</svg>
