<svg width="24" height="24" viewBox="0 0 24 24" fill="none" xmlns="http://www.w3.org/2000/svg">
<path fill-rule="evenodd" clip-rule="evenodd" d="M7.71208 4C5.8193 4 4.11615 4.73472 2.89496 6.09115C1.67907 7.44169 1 9.34005 1 11.5819V14.5C1 16.195 2.20492 17.6086 3.80495 17.931C4.352 19.1505 5.5768 20 7 20C8.3962 20 9.60145 19.1825 10.1632 18H13.8368C14.3985 19.1825 15.6038 20 17 20C18.4045 20 19.6158 19.1727 20.1732 17.9788C21.7645 17.7953 23 16.4434 23 14.803V14.5669C23 11.4348 20.7892 8.73804 17.7179 8.12377C17.6231 8.10482 17.5387 8.05162 17.4807 7.97432L16 6C15.0557 4.74097 13.5738 4 12 4H7.71208ZM7 15C6.17157 15 5.5 15.6716 5.5 16.5C5.5 17.3284 6.17157 18 7 18C7.82843 18 8.5 17.3284 8.5 16.5C8.5 15.6716 7.82843 15 7 15ZM15.5 16.5C15.5 15.6716 16.1716 15 17 15C17.8284 15 18.5 15.6716 18.5 16.5C18.5 17.3284 17.8284 18 17 18C16.1716 18 15.5 17.3284 15.5 16.5Z" fill="currentColor"/>
</svg>
