<svg width="24" height="24" viewBox="0 0 24 24" fill="none" xmlns="http://www.w3.org/2000/svg">
<path fill-rule="evenodd" clip-rule="evenodd" d="M5.27735 5.7812C6.01921 4.6684 7.26814 4 8.60555 4H12.5C13.759 4 14.9446 4.59278 15.7 5.6L17.3415 7.7887C17.4891 7.98553 17.7041 8.12103 17.9454 8.16928L19.7845 8.53709C21.6542 8.91103 23 10.5527 23 12.4594V15C23 16.6014 21.7453 17.9097 20.1653 17.9955C19.6045 19.1804 18.398 20 17 20C15.6038 20 14.3985 19.1825 13.8368 18H10.1632C9.60145 19.1825 8.3962 20 7 20C5.60204 20 4.39551 19.1804 3.8347 17.9955C2.25472 17.9097 1 16.6014 1 15V11.6056C1 10.2681 1.6684 9.01921 2.7812 8.27735L4.11248 7.38983C4.22233 7.3166 4.3166 7.22233 4.38983 7.11248L5.27735 5.7812ZM7 18C7.82843 18 8.5 17.3284 8.5 16.5C8.5 15.6716 7.82843 15 7 15C6.17157 15 5.5 15.6716 5.5 16.5C5.5 17.3284 6.17157 18 7 18ZM18.5 16.5C18.5 17.3284 17.8284 18 17 18C16.1716 18 15.5 17.3284 15.5 16.5C15.5 15.6716 16.1716 15 17 15C17.8284 15 18.5 15.6716 18.5 16.5ZM11.9167 10H13.9933C14.2006 10 14.3178 10.2376 14.1917 10.4021L11.243 14.2483C11.0868 14.452 10.7617 14.3161 10.797 14.0618L11.0833 12H9.00669C8.79945 12 8.6822 11.7624 8.80828 11.5979L11.757 7.75174C11.9132 7.54796 12.2384 7.68391 12.203 7.93824L11.9167 10Z" fill="currentColor"/>
</svg>
