<svg width="24" height="24" viewBox="0 0 24 24" fill="none" xmlns="http://www.w3.org/2000/svg">
<path fill-rule="evenodd" clip-rule="evenodd" d="M1 8V15C1 16.6014 2.25472 17.9097 3.8347 17.9955C4.39551 19.1804 5.60204 20 7 20C8.3962 20 9.60145 19.1825 10.1632 18H13.8368C14.3985 19.1825 15.6038 20 17 20C18.398 20 19.6045 19.1804 20.1653 17.9955C21.7453 17.9097 23 16.6014 23 15V12.3545C23 11.1278 22.2532 10.0239 21.1143 9.56836L19.4277 8.89453C19.2025 8.80444 19.0188 8.63571 18.9092 8.42188L18.8672 8.32812L18.1758 6.5498C17.5778 5.01266 16.0976 4.00018 14.4482 4H5C2.79086 4 1 5.79086 1 8ZM7 15C7.82843 15 8.5 15.6716 8.5 16.5C8.5 17.3284 7.82843 18 7 18C6.17157 18 5.5 17.3284 5.5 16.5C5.5 15.6716 6.17157 15 7 15ZM17 15C17.8284 15 18.5 15.6716 18.5 16.5C18.5 17.3284 17.8284 18 17 18C16.1716 18 15.5 17.3284 15.5 16.5C15.5 15.6716 16.1716 15 17 15ZM11.9168 9.99984H13.9935C14.2007 9.99984 14.3179 10.2375 14.1919 10.4019L11.2431 14.2481C11.0869 14.4519 10.7618 14.3159 10.7971 14.0616L11.0835 11.9998H9.00681C8.79957 11.9998 8.68232 11.7622 8.80841 11.5977L11.7571 7.75157C11.9134 7.5478 12.2385 7.68374 12.2032 7.93808L11.9168 9.99984Z" fill="currentColor"/>
</svg>
