<svg width="24" height="24" viewBox="0 0 24 24" fill="none" xmlns="http://www.w3.org/2000/svg">
<path fill-rule="evenodd" clip-rule="evenodd" d="M6.54058 4C4.58522 4 2.91646 5.41365 2.595 7.3424L1.40094 14.5068C1.12696 16.1506 2.23884 17.6619 3.81307 17.9506C4.3644 19.1596 5.58369 20 6.99927 20C8.39547 20 9.60072 19.1825 10.1625 18H13.8361C14.3978 19.1825 15.6031 20 16.9993 20C18.3955 20 19.6007 19.1825 20.1625 18H20.9992C22.1038 18 22.9992 17.1046 22.9992 16V14.3561C22.9992 12.5893 22.331 10.8877 21.1287 9.59298L18.0123 6.23684C16.6878 4.81047 14.8293 4 12.8828 4H6.54058ZM5.49927 16.5C5.49927 15.6716 6.17084 15 6.99927 15C7.82769 15 8.49927 15.6716 8.49927 16.5C8.49927 17.3284 7.82769 18 6.99927 18C6.17084 18 5.49927 17.3284 5.49927 16.5ZM15.4993 16.5C15.4993 15.6716 16.1708 15 16.9993 15C17.8277 15 18.4993 15.6716 18.4993 16.5C18.4993 17.3284 17.8277 18 16.9993 18C16.1708 18 15.4993 17.3284 15.4993 16.5ZM11.9161 9.99984H13.9927C14.2 9.99984 14.3172 10.2375 14.1911 10.4019L11.2424 14.2481C11.0862 14.4519 10.7611 14.3159 10.7964 14.0616L11.0827 11.9998H9.00607C8.79884 11.9998 8.68159 11.7622 8.80767 11.5977L11.7564 7.75157C11.9126 7.5478 12.2378 7.68374 12.2024 7.93808L11.9161 9.99984Z" fill="currentColor"/>
</svg>
