<svg width="24" height="24" viewBox="0 0 24 24" fill="none" xmlns="http://www.w3.org/2000/svg">
<path d="M13.8154 1.01449C14.3609 0.921256 14.8786 1.28782 14.9718 1.83322L14.9721 1.83465L14.9724 1.83647L14.9732 1.84126C15.0132 2.08719 15.0367 2.33613 15.0513 2.58474C15.0759 3.00655 15.079 3.59664 14.9694 4.18819C14.8415 4.87914 14.5209 5.50092 14.2668 5.91765C14.1352 6.13338 14.0107 6.31145 13.9179 6.43714C13.8659 6.50754 13.8126 6.57698 13.7571 6.64466L13.7533 6.64931L13.7518 6.65109L13.7506 6.65251C13.3955 7.07682 12.7636 7.13291 12.3392 6.77779C11.9156 6.42325 11.859 5.79288 12.2122 5.36858L12.2146 5.36567C12.3392 5.21002 12.4521 5.04469 12.5558 4.87451C12.7547 4.54834 12.9351 4.16825 12.999 3.82333C13.0676 3.4531 13.0706 3.04133 13.0508 2.70171C13.0404 2.52474 13.0238 2.34781 12.9969 2.17255L12.9965 2.17005L12.9963 2.16892C12.9042 1.62422 13.2706 1.10761 13.8154 1.01449Z" fill="currentColor" style="fill:currentColor;fill-opacity:1;"/>
<path d="M19.0828 2.56218C19.6035 2.7496 19.8736 3.32357 19.6862 3.84418L19.2353 5.09651C19.0479 5.61712 18.4739 5.88722 17.9532 5.69981C17.4326 5.51239 17.1624 4.93842 17.3499 4.41781L17.8007 3.16548C17.9882 2.64487 18.5622 2.37477 19.0828 2.56218Z" fill="currentColor" style="fill:currentColor;fill-opacity:1;"/>
<path d="M21.894 7.06425C22.1415 7.55915 21.9409 8.16094 21.4459 8.40839L20.444 8.90933C19.949 9.15678 19.3472 8.95618 19.0997 8.46128C18.8523 7.96638 19.0529 7.36458 19.5478 7.11713L20.5498 6.6162C21.0447 6.36875 21.6465 6.56935 21.894 7.06425Z" fill="currentColor" style="fill:currentColor;fill-opacity:1;"/>
<path d="M17.1976 6.80387C17.5889 7.19512 17.5889 7.82947 17.1976 8.22072L16.1956 9.22259C15.8043 9.61384 15.1699 9.61384 14.7787 9.22259C14.3874 8.83134 14.3874 8.19699 14.7787 7.80574L15.7806 6.80387C16.1719 6.41262 16.8063 6.41262 17.1976 6.80387Z" fill="currentColor" style="fill:currentColor;fill-opacity:1;"/>
<path d="M16.991 10.9765C17.0143 10.4237 17.4814 9.99449 18.0343 10.0179L18.0355 10.0179L18.037 10.018L18.0408 10.0181C18.2268 10.0273 18.4124 10.0469 18.5969 10.0716C18.914 10.1141 19.3523 10.1918 19.8003 10.3351C20.2239 10.4707 20.6633 10.6877 20.9707 10.8521C21.1583 10.9524 21.3439 11.0568 21.5249 11.1686L21.5259 11.1693C21.9959 11.4613 22.1409 12.0795 21.8489 12.5495C21.5569 13.0193 20.9394 13.1636 20.4695 12.8719C20.3245 12.7828 20.1759 12.6993 20.0259 12.6191C19.7499 12.4716 19.4378 12.323 19.1896 12.2435C18.8922 12.1484 18.579 12.0908 18.331 12.0577C18.2044 12.0407 18.0772 12.027 17.9496 12.0198L17.9481 12.0197C17.3962 11.9954 16.9676 11.5287 16.991 10.9765Z" fill="currentColor" style="fill:currentColor;fill-opacity:1;"/>
<path d="M5.92038 8.48551C6.71386 6.47169 9.31179 5.93145 10.8424 7.46197L16.5396 13.1587C18.0703 14.6893 17.5299 17.2871 15.5158 18.0804L6.11506 21.7833C3.67018 22.7463 1.25356 20.3297 2.21678 17.8851L5.92038 8.48551Z" fill="currentColor" style="fill:currentColor;fill-opacity:1;"/>
</svg>
