<svg width="24" height="24" viewBox="0 0 24 24" fill="none" xmlns="http://www.w3.org/2000/svg">
<path fill-rule="evenodd" clip-rule="evenodd" d="M5 6C5 3.79086 6.79086 2 9 2H15C17.2091 2 19 3.79086 19 6V7C19 8.48057 18.1956 9.77325 17 10.4649V13H19C19.5523 13 20 13.4477 20 14C20 14.5523 19.5523 15 19 15V21C19 21.5523 18.5523 22 18 22C17.4477 22 17 21.5523 17 21V19H7V21C7 21.5523 6.55228 22 6 22C5.44772 22 5 21.5523 5 21V15C4.44772 15 4 14.5523 4 14C4 13.4477 4.44772 13 5 13H7V10.4649C5.8044 9.77325 5 8.48057 5 7V6ZM9 11V13H15V11H9ZM17 15V17H7V15H17Z" fill="currentColor" style="fill:currentColor;fill-opacity:1;"/>
</svg>
