<svg width="24" height="24" viewBox="0 0 24 24" fill="none" xmlns="http://www.w3.org/2000/svg">
<path fill-rule="evenodd" clip-rule="evenodd" d="M6.49439 5.11352C6.90829 3.29236 8.52733 2 10.3949 2H13.6056C15.4731 2 17.0922 3.29236 17.5061 5.11352L19.3292 13.1352C19.4709 13.101 19.6137 13.0659 19.7577 13.0299C20.2935 12.8959 20.8364 13.2217 20.9704 13.7575C21.1043 14.2933 20.7786 14.8362 20.2428 14.9701C19.1981 15.2313 18.2107 15.4482 17.2613 15.6208L18.9489 20.6838C19.1236 21.2077 18.8404 21.774 18.3165 21.9487C17.7925 22.1233 17.2262 21.8402 17.0516 21.3162L15.2546 15.9255C13.0374 16.1915 10.9631 16.1915 8.74582 15.9255L6.94892 21.3162C6.77427 21.8402 6.20795 22.1233 5.68401 21.9487C5.16007 21.774 4.87691 21.2077 5.05155 20.6838L6.73922 15.6208C5.78974 15.4482 4.80238 15.2313 3.7577 14.9701C3.22191 14.8362 2.89615 14.2933 3.03009 13.7575C3.16404 13.2217 3.70698 12.8959 4.24277 13.0299C4.38681 13.0659 4.52962 13.101 4.67128 13.1352L6.49439 5.11352Z" fill="currentColor" style="fill:currentColor;fill-opacity:1;"/>
</svg>
