<svg width="24" height="24" viewBox="0 0 24 24" fill="none" xmlns="http://www.w3.org/2000/svg">
<path d="M9 9.33V10.33H10V9.33H9ZM4 9.33H3H4ZM4 4L4 3L3 3L3 4H4ZM9 5.5H8H9ZM7.5 4V3V4ZM14.5 14.6601V15.6601H15.5V14.6601H14.5ZM13 9.33008L13 10.3301H13V9.33008ZM14.5 10.8301H13.5H14.5ZM4 19.9902H3V20.9902H4V19.9902ZM20 18.4902H21H20ZM18.5 19.9902V18.9902V19.9902ZM20 16.1602H19H20ZM18.5 14.6602L18.5 15.6602H18.5V14.6602ZM5 2C5 1.44772 4.55228 1 4 1C3.44772 1 3 1.44772 3 2H5ZM3 22C3 22.5523 3.44772 23 4 23C4.55228 23 5 22.5523 5 22H3ZM8 5.5V9.33H10V5.5H8ZM9 8.33H4V10.33H9V8.33ZM5 9.33L5 4H3L3 9.33H5ZM4 5L7.5 5V3L4 3L4 5ZM10 5.5C10 4.11929 8.88071 3 7.5 3V5C7.77614 5 8 5.22386 8 5.5H10ZM14.5 13.6601H4V15.6601H14.5V13.6601ZM5 14.6601V9.33H3V14.6601H5ZM3.99999 10.33L13 10.3301L13 8.33008L4.00001 8.33L3.99999 10.33ZM13 10.3301C13.2761 10.3301 13.5 10.5539 13.5 10.8301H15.5C15.5 9.44937 14.3807 8.33008 13 8.33008V10.3301ZM19 16.1602V18.4902H21V16.1602H19ZM18.5 18.9902H4V20.9902H18.5V18.9902ZM3.99999 15.6601L18.5 15.6602L18.5 13.6602L4.00001 13.6601L3.99999 15.6601ZM19 18.4902C19 18.7663 18.7761 18.9902 18.5 18.9902V20.9902C19.8807 20.9902 21 19.8709 21 18.4902H19ZM21 16.1602C21 14.7794 19.8807 13.6602 18.5 13.6602V15.6602C18.7761 15.6602 19 15.884 19 16.1602H21ZM13.5 10.8301V14.6601H15.5V10.8301H13.5ZM5 19.9902V14.6601H3V19.9902H5ZM3 2V22H5V2H3Z" fill="currentColor"/>
</svg>
