<svg width="24" height="24" viewBox="0 0 24 24" fill="none" xmlns="http://www.w3.org/2000/svg">
<path fill-rule="evenodd" clip-rule="evenodd" d="M9.09998 5.20006C9.54181 5.53143 9.63136 6.15823 9.29998 6.60006L6.29998 10.6001C5.98154 11.0246 5.38688 11.1265 4.94528 10.8321L3.44528 9.83211C2.98576 9.52576 2.86158 8.90489 3.16793 8.44536C3.47429 7.98583 4.09516 7.86166 4.55468 8.16801L5.26758 8.64327L7.69998 5.40006C8.03135 4.95823 8.65816 4.86869 9.09998 5.20006ZM12 8.00006C12 7.44777 12.4477 7.00006 13 7.00006H20C20.5523 7.00006 21 7.44777 21 8.00006C21 8.55234 20.5523 9.00006 20 9.00006H13C12.4477 9.00006 12 8.55234 12 8.00006ZM9.09998 13.2001C9.54181 13.5314 9.63136 14.1582 9.29998 14.6001L6.29998 18.6001C5.98154 19.0246 5.38688 19.1265 4.94528 18.8321L3.44528 17.8321C2.98576 17.5258 2.86158 16.9049 3.16793 16.4454C3.47429 15.9858 4.09516 15.8617 4.55468 16.168L5.26758 16.6433L7.69998 13.4001C8.03135 12.9582 8.65816 12.8687 9.09998 13.2001ZM12 16.0001C12 15.4478 12.4477 15.0001 13 15.0001H20C20.5523 15.0001 21 15.4478 21 16.0001C21 16.5523 20.5523 17.0001 20 17.0001H13C12.4477 17.0001 12 16.5523 12 16.0001Z" fill="currentColor" style="fill:currentColor;fill-opacity:1;"/>
</svg>
