<svg width="24" height="24" viewBox="0 0 24 24" fill="none" xmlns="http://www.w3.org/2000/svg">
<path d="M3 16V15C2.44772 15 2 15.4477 2 16H3ZM21 16H22C22 15.4477 21.5523 15 21 15V16ZM4.23463 18.8478L4.61732 17.9239L4.23463 18.8478ZM3.15224 17.7654L4.07612 17.3827L3.15224 17.7654ZM19.7654 18.8478L19.3827 17.9239L19.7654 18.8478ZM20.8478 17.7654L19.9239 17.3827L20.8478 17.7654ZM16.5 12.625L16.8846 13.5481H16.8846L16.5 12.625ZM19.5 12.625L19.1154 13.5481L19.5 12.625ZM13.5 12.625L13.1154 13.5481L13.5 12.625ZM10.5 12.625L10.8846 13.5481L10.5 12.625ZM7.5 12.625L7.11538 13.5481L7.5 12.625ZM3 11.925C2.44772 11.925 2 12.3727 2 12.925C2 13.4773 2.44772 13.925 3 13.925V11.925ZM20.9994 13.925C21.5517 13.9251 21.9994 13.4774 21.9995 12.9251C21.9996 12.3728 21.5519 11.9251 20.9996 11.925L20.9994 13.925ZM3 9H2C2 9.55228 2.44772 10 3 10V9ZM21 9V10C21.5523 10 22 9.55228 22 9H21ZM18 18H6V20H18V18ZM3 17H21V15H3V17ZM6 18C5.52038 18 5.21074 17.9995 4.97376 17.9833C4.74576 17.9677 4.65893 17.9411 4.61732 17.9239L3.85195 19.7716C4.17788 19.9066 4.50779 19.9561 4.83762 19.9787C5.15846 20.0005 5.54774 20 6 20V18ZM2 16C2 16.4523 1.99946 16.8415 2.02135 17.1624C2.04385 17.4922 2.09336 17.8221 2.22836 18.1481L4.07612 17.3827C4.05888 17.3411 4.03227 17.2542 4.01671 17.0262C4.00054 16.7893 4 16.4796 4 16H2ZM4.61732 17.9239C4.37229 17.8224 4.17761 17.6277 4.07612 17.3827L2.22836 18.1481C2.53284 18.8831 3.11686 19.4672 3.85195 19.7716L4.61732 17.9239ZM18 20C18.4523 20 18.8415 20.0005 19.1624 19.9787C19.4922 19.9561 19.8221 19.9066 20.1481 19.7716L19.3827 17.9239C19.3411 17.9411 19.2542 17.9677 19.0262 17.9833C18.7893 17.9995 18.4796 18 18 18V20ZM20 16C20 16.4796 19.9995 16.7893 19.9833 17.0262C19.9677 17.2542 19.9411 17.3411 19.9239 17.3827L21.7716 18.1481C21.9066 17.8221 21.9561 17.4922 21.9787 17.1624C22.0005 16.8415 22 16.4523 22 16H20ZM20.1481 19.7716C20.8831 19.4672 21.4672 18.8831 21.7716 18.1481L19.9239 17.3827C19.8224 17.6277 19.6277 17.8224 19.3827 17.9239L20.1481 19.7716ZM16.8846 13.5481C17.5985 13.2506 18.4015 13.2506 19.1154 13.5481L19.8846 11.7019C18.6785 11.1994 17.3215 11.1994 16.1154 11.7019L16.8846 13.5481ZM13.1154 13.5481C14.3215 14.0506 15.6785 14.0506 16.8846 13.5481L16.1154 11.7019C15.4015 11.9994 14.5985 11.9994 13.8846 11.7019L13.1154 13.5481ZM10.8846 13.5481C11.5985 13.2506 12.4015 13.2506 13.1154 13.5481L13.8846 11.7019C12.6785 11.1994 11.3215 11.1994 10.1154 11.7019L10.8846 13.5481ZM7.11538 13.5481C8.32154 14.0506 9.67846 14.0506 10.8846 13.5481L10.1154 11.7019C9.40154 11.9994 8.59846 11.9994 7.88462 11.7019L7.11538 13.5481ZM4.88462 13.5481C5.59846 13.2506 6.40154 13.2506 7.11538 13.5481L7.88462 11.7019C6.67846 11.1994 5.32154 11.1994 4.11538 11.7019L4.88462 13.5481ZM4.11538 11.7019C3.75845 11.8506 3.37928 11.925 3 11.925V13.925C3.64072 13.925 4.28155 13.7994 4.88462 13.5481L4.11538 11.7019ZM19.1154 13.5481C19.7183 13.7993 20.3589 13.9249 20.9994 13.925L20.9996 11.925C20.6205 11.925 20.2414 11.8506 19.8846 11.7019L19.1154 13.5481ZM3 10H21V8H3V10ZM12 6C13.4055 6 15.545 6.20573 17.2979 6.77036C18.177 7.05355 18.8868 7.40453 19.3595 7.80712C19.8124 8.19292 20 8.57842 20 9H22C22 7.84629 21.4307 6.94413 20.6564 6.28456C19.9017 5.64179 18.9138 5.18967 17.9111 4.86669C15.9003 4.21897 13.5398 4 12 4V6ZM4 9C4 8.57841 4.18755 8.19292 4.6405 7.80712C5.11316 7.40453 5.82298 7.05355 6.70213 6.77036C8.45501 6.20573 10.5945 6 12 6V4C10.4602 4 8.09973 4.21897 6.08892 4.86669C5.08623 5.18967 4.09829 5.64179 3.34365 6.28456C2.56929 6.94413 2 7.84629 2 9H4Z" fill="currentColor"/>
</svg>
