<svg width="24" height="24" viewBox="0 0 24 24" fill="none" xmlns="http://www.w3.org/2000/svg">
<path fill-rule="evenodd" clip-rule="evenodd" d="M9.70692 7.29289C10.0974 7.68342 10.0974 8.31658 9.70692 8.70711L6.5908 11.8232C6.49317 11.9209 6.49317 12.0791 6.5908 12.1768L9.70692 15.2929C10.0974 15.6834 10.0974 16.3166 9.70692 16.7071C9.31639 17.0976 8.68323 17.0976 8.2927 16.7071L5.17659 13.591C4.29791 12.7123 4.29791 11.2877 5.17659 10.409L8.29271 7.29289C8.68323 6.90237 9.31639 6.90237 9.70692 7.29289ZM14.2927 7.29289C14.6832 6.90237 15.3164 6.90237 15.7069 7.29289L18.823 10.409C19.7017 11.2877 19.7017 12.7123 18.823 13.591L15.7069 16.7071C15.3164 17.0976 14.6832 17.0976 14.2927 16.7071C13.9022 16.3166 13.9022 15.6834 14.2927 15.2929L17.4088 12.1768C17.5065 12.0791 17.5065 11.9209 17.4088 11.8232L14.2927 8.70711C13.9022 8.31658 13.9022 7.68342 14.2927 7.29289Z" fill="currentColor" style="fill:currentColor;fill-opacity:1;"/>
</svg>
