<svg width="24" height="24" viewBox="0 0 24 24" fill="none" xmlns="http://www.w3.org/2000/svg">
<path fill-rule="evenodd" clip-rule="evenodd" d="M10.7069 7.29289C11.0974 7.68342 11.0974 8.31658 10.7069 8.70711L7.76754 11.6464C7.57228 11.8417 7.57228 12.1583 7.76754 12.3536L10.7069 15.2929C11.0974 15.6834 11.0974 16.3166 10.7069 16.7071C10.3164 17.0976 9.68319 17.0976 9.29267 16.7071L6.35333 13.7678C5.37701 12.7915 5.37702 11.2085 6.35333 10.2322L9.29267 7.29289C9.68319 6.90237 10.3164 6.90237 10.7069 7.29289ZM17.7069 7.29289C18.0974 7.68342 18.0974 8.31658 17.7069 8.70711L14.7675 11.6464C14.5723 11.8417 14.5723 12.1583 14.7675 12.3536L17.7069 15.2929C18.0974 15.6834 18.0974 16.3166 17.7069 16.7071C17.3164 17.0976 16.6832 17.0976 16.2927 16.7071L13.3533 13.7678C12.377 12.7915 12.377 11.2085 13.3533 10.2322L16.2927 7.29289C16.6832 6.90237 17.3164 6.90237 17.7069 7.29289Z" fill="currentColor" style="fill:currentColor;fill-opacity:1;"/>
</svg>
