<svg width="24" height="24" viewBox="0 0 24 24" fill="none" xmlns="http://www.w3.org/2000/svg">
<path d="M14 14H10V10H14V14Z" fill="currentColor"/>
<path fill-rule="evenodd" clip-rule="evenodd" d="M14 1C14.5523 1 15 1.44772 15 2V3H17C19.2091 3 21 4.79086 21 7V9H22L22.1025 9.00488C22.6067 9.05621 23 9.48232 23 10C23 10.5177 22.6067 10.9438 22.1025 10.9951L22 11H21V13H22L22.1025 13.0049C22.6067 13.0562 23 13.4823 23 14C23 14.5177 22.6067 14.9438 22.1025 14.9951L22 15H21V17C21 19.2091 19.2091 21 17 21H15V22C15 22.5523 14.5523 23 14 23C13.4477 23 13 22.5523 13 22V21H11V22C11 22.5523 10.5523 23 10 23C9.44771 23 9 22.5523 9 22V21H7C4.79086 21 3 19.2091 3 17V15H2C1.44772 15 1 14.5523 1 14C1 13.4477 1.44772 13 2 13H3V11H2C1.44772 11 1 10.5523 1 10C1 9.44771 1.44772 9 2 9H3V7C3 4.79086 4.79086 3 7 3H9V2C9 1.44772 9.44771 1 10 1C10.5523 1 11 1.44772 11 2V3H13V2C13 1.44772 13.4477 1 14 1ZM9 8C8.48232 8 8.05621 8.39333 8.00488 8.89746L8 9V15C8 15.5523 8.44772 16 9 16H15C15.5523 16 16 15.5523 16 15V9C16 8.48232 15.6067 8.05621 15.1025 8.00488L15 8H9Z" fill="currentColor"/>
</svg>
