<svg width="24" height="24" viewBox="0 0 24 24" fill="none" xmlns="http://www.w3.org/2000/svg">
<path fill-rule="evenodd" clip-rule="evenodd" d="M1 12C1 7.58172 4.58172 4 9 4C11.9301 4 14.4911 5.57586 15.8835 7.92149C15.9289 7.99785 16.0519 8.0728 16.1982 8.05323C16.4609 8.01808 16.7286 8 17 8C20.3137 8 23 10.6863 23 14C23 16.4619 21.5174 18.5754 19.4004 19.5003C18.8943 19.7214 18.3048 19.4904 18.0836 18.9843C17.8625 18.4782 18.0935 17.8887 18.5996 17.6676C20.0144 17.0494 21 15.6387 21 14C21 11.7909 19.2091 10 17 10C16.8175 10 16.6384 10.0122 16.4634 10.0356C15.5816 10.1535 14.6479 9.75797 14.1637 8.9424C13.1167 7.1786 11.1955 6 9 6C5.68629 6 3 8.68629 3 12C3 14.0381 4.01524 15.8392 5.5721 16.9251C6.02507 17.2411 6.13615 17.8644 5.82019 18.3174C5.50422 18.7704 4.88088 18.8815 4.4279 18.5655C2.35779 17.1215 1 14.7194 1 12ZM9.29289 15.2929C9.68342 14.9024 10.3166 14.9024 10.7071 15.2929L12 16.5858L13.2929 15.2929C13.6834 14.9024 14.3166 14.9024 14.7071 15.2929C15.0976 15.6834 15.0976 16.3166 14.7071 16.7071L13.4142 18L14.7071 19.2929C15.0976 19.6834 15.0976 20.3166 14.7071 20.7071C14.3166 21.0976 13.6834 21.0976 13.2929 20.7071L12 19.4142L10.7071 20.7071C10.3166 21.0976 9.68342 21.0976 9.29289 20.7071C8.90237 20.3166 8.90237 19.6834 9.29289 19.2929L10.5858 18L9.29289 16.7071C8.90237 16.3166 8.90237 15.6834 9.29289 15.2929Z" fill="currentColor" style="fill:currentColor;fill-opacity:1;"/>
</svg>
