<svg width="24" height="24" viewBox="0 0 24 24" fill="none" xmlns="http://www.w3.org/2000/svg">
<path fill-rule="evenodd" clip-rule="evenodd" d="M7 20C3.68629 20 1 17.3137 1 14C1 11.342 2.72831 9.08774 5.12243 8.29963C5.41842 8.20219 5.66814 7.99536 5.81435 7.72017C6.99026 5.50705 9.31914 4 12 4C14.6809 4 17.0097 5.50705 18.1856 7.72017C18.3319 7.99536 18.5816 8.20219 18.8776 8.29963C21.2717 9.08774 23 11.342 23 14C23 17.3137 20.3137 20 17 20H7ZM15.6579 11.1141C15.9971 10.7507 15.9775 10.1812 15.6141 9.84205C15.2507 9.5029 14.6812 9.52254 14.3421 9.88591L10.3333 14.181L8.65795 12.3859C8.3188 12.0225 7.74929 12.0029 7.38591 12.3421C7.02254 12.6812 7.0029 13.2507 7.34205 13.6141L9.67538 16.1141C9.8456 16.2965 10.0839 16.4 10.3333 16.4C10.5828 16.4 10.8211 16.2965 10.9913 16.1141L15.6579 11.1141Z" fill="currentColor" style="fill:currentColor;fill-opacity:1;"/>
</svg>
