<svg width="24" height="24" viewBox="0 0 24 24" fill="none" xmlns="http://www.w3.org/2000/svg">
<path d="M19.9847 1.4329C19.9568 1.18651 19.7485 1.00025 19.5005 1C19.2525 0.999747 19.0438 1.18557 19.0154 1.43191C18.838 2.96993 17.9699 3.83801 16.4319 4.01541C16.1856 4.04382 15.9997 4.25253 16 4.5005C16.0003 4.74847 16.1865 4.9568 16.4329 4.9847C17.9491 5.15645 18.8774 6.01617 19.0141 7.55536C19.0365 7.80725 19.2477 8.00028 19.5005 8C19.7534 7.99971 19.9642 7.80621 19.986 7.55426C20.1173 6.03683 21.0368 5.11734 22.5543 4.98599C22.8062 4.96418 22.9997 4.75344 23 4.50055C23.0003 4.24766 22.8073 4.03648 22.5554 4.01411C21.0162 3.87738 20.1564 2.94911 19.9847 1.4329Z" fill="currentColor"/>
<path fill-rule="evenodd" clip-rule="evenodd" d="M15.1865 3C14.7642 3.36673 14.4994 3.90569 14.5 4.50195L14.5088 4.68945C14.5967 5.61565 15.3225 6.36881 16.2637 6.47559L16.4463 6.50195C16.8463 6.57317 17.0679 6.70844 17.1924 6.83008C17.3262 6.96094 17.4762 7.20083 17.5195 7.68848L17.5459 7.87793C17.7195 8.8099 18.5361 9.50095 19.502 9.5L19.6934 9.49023C20.212 9.44001 20.6741 9.18919 21 8.81445V17C21 19.2091 19.2091 21 17 21H7C4.79086 21 3 19.2091 3 17V7C3 4.79086 4.79086 3 7 3H15.1865ZM14.6309 9.22461C14.2381 8.90426 13.6591 8.92685 13.293 9.29297C12.9269 9.65908 12.9043 10.2381 13.2246 10.6309L13.293 10.707L14.5859 12L13.293 13.293C12.9024 13.6835 12.9024 14.3165 13.293 14.707C13.6835 15.0976 14.3165 15.0976 14.707 14.707L16.707 12.707C17.0731 12.3409 17.0957 11.7619 16.7754 11.3691L16.707 11.293L14.707 9.29297L14.6309 9.22461ZM10.707 9.29297C10.3409 8.92685 9.76191 8.90426 9.36914 9.22461L9.29297 9.29297L7.29297 11.293C6.90244 11.6835 6.90244 12.3165 7.29297 12.707L9.29297 14.707L9.36914 14.7754C9.76191 15.0957 10.3409 15.0731 10.707 14.707C11.0731 14.3409 11.0957 13.7619 10.7754 13.3691L10.707 13.293L9.41406 12L10.707 10.707L10.7754 10.6309C11.0957 10.2381 11.0731 9.65908 10.707 9.29297Z" fill="currentColor"/>
</svg>
