<svg width="24" height="24" viewBox="0 0 24 24" fill="none" xmlns="http://www.w3.org/2000/svg">
<path fill-rule="evenodd" clip-rule="evenodd" d="M14.2426 3.02985C14.7784 3.1638 15.1041 3.70673 14.9702 4.24253L10.9702 20.2426C10.8362 20.7784 10.2933 21.1041 9.75749 20.9702C9.2217 20.8362 8.89594 20.2933 9.02988 19.7575L13.0299 3.75746C13.1638 3.22166 13.7068 2.8959 14.2426 3.02985ZM6.74744 7.33567C7.11435 7.74845 7.07717 8.38052 6.66439 8.74744L4.6869 10.5052C3.79187 11.3008 3.79187 12.6993 4.6869 13.4949L6.66439 15.2526C7.07717 15.6195 7.11435 16.2516 6.74744 16.6644C6.38052 17.0772 5.74845 17.1144 5.33566 16.7474L3.35817 14.9897C1.56811 13.3985 1.56811 10.6016 3.35817 9.01039L5.33566 7.25262C5.74845 6.8857 6.38052 6.92289 6.74744 7.33567ZM17.2526 7.33567C17.6195 6.92289 18.2516 6.8857 18.6644 7.25262L20.6419 9.01039C22.4319 10.6016 22.4319 13.3985 20.6419 14.9897L18.6644 16.7474C18.2516 17.1144 17.6195 17.0772 17.2526 16.6644C16.8857 16.2516 16.9229 15.6195 17.3357 15.2526L19.3132 13.4949C20.2082 12.6993 20.2082 11.3008 19.3132 10.5052L17.3357 8.74744C16.9229 8.38052 16.8857 7.74845 17.2526 7.33567Z" fill="currentColor" style="fill:currentColor;fill-opacity:1;"/>
</svg>
