<svg width="24" height="24" viewBox="0 0 24 24" fill="none" xmlns="http://www.w3.org/2000/svg">
<path d="M12 2C17.5228 2 22 6.47715 22 12C22 17.5228 17.5228 22 12 22C6.47715 22 2 17.5228 2 12C2 6.47715 6.47715 2 12 2ZM16.2471 7.88477C15.7989 7.75678 15.3329 7.99203 15.1641 8.41602L15.1348 8.50293L14 12.4746L12.8652 8.50293C12.7548 8.11656 12.4018 7.84961 12 7.84961C11.6483 7.84961 11.3345 8.05431 11.1875 8.36426L11.1348 8.50293L10 12.4746L8.86523 8.50293L8.83594 8.41602C8.66713 7.99203 8.20113 7.75678 7.75293 7.88477C7.30493 8.01277 7.034 8.45826 7.11426 8.90723L7.13477 8.99707L7.73535 11.0996H7C6.50294 11.0996 6.09961 11.5029 6.09961 12C6.09961 12.4971 6.50294 12.9004 7 12.9004H8.25L9.13477 15.9971C9.24516 16.3834 9.59817 16.6504 10 16.6504C10.4018 16.6504 10.7548 16.3834 10.8652 15.9971L12 12.0254L13.1348 15.9971C13.2452 16.3834 13.5982 16.6504 14 16.6504C14.4018 16.6504 14.7548 16.3834 14.8652 15.9971L15.75 12.9004H17L17.0918 12.8955C17.5457 12.8495 17.9004 12.4661 17.9004 12C17.9004 11.5339 17.5457 11.1505 17.0918 11.1045L17 11.0996H16.2646L16.8652 8.99707L16.8857 8.90723C16.966 8.45826 16.6951 8.01277 16.2471 7.88477Z" fill="currentColor"/>
</svg>
