<svg width="24" height="24" viewBox="0 0 24 24" fill="none" xmlns="http://www.w3.org/2000/svg">
<path fill-rule="evenodd" clip-rule="evenodd" d="M2 6C2 3.79086 3.79086 2 6 2H9C10.1017 2 11.0994 2.44538 11.8228 3.16591C12.4855 2.97399 13.2093 3.05382 13.8245 3.40902L16.0477 4.69257C16.9762 5.22866 17.6085 6.08081 17.8871 7.03466C18.5105 7.1473 19.0616 7.52839 19.3848 8.08816L20.8055 10.5489C21.9101 12.4621 21.2545 14.9085 19.3414 16.013L11.5001 20.5402C10.2562 21.2584 9.0182 22 7.5 22C4.46243 22 2 19.5376 2 16.5V6ZM13.5253 17.0616L18.3414 14.281C19.298 13.7287 19.6257 12.5055 19.0734 11.5489L17.844 9.41947C17.76 9.67108 17.6496 9.91802 17.5118 10.1567L13.5253 17.0616ZM13 13.9714L15.7798 9.15667C16.3321 8.20008 16.0043 6.9769 15.0477 6.42462L12.9191 5.19566C12.9721 5.4555 13 5.7245 13 6V13.9714ZM6 16.5C6 15.6716 6.67157 15 7.5 15C8.32843 15 9 15.6716 9 16.5C9 17.3284 8.32843 18 7.5 18C6.67157 18 6 17.3284 6 16.5Z" fill="currentColor" style="fill:currentColor;fill-opacity:1;"/>
</svg>
