<svg width="24" height="24" viewBox="0 0 24 24" fill="none" xmlns="http://www.w3.org/2000/svg">
<path d="M18 6H13V19C13 19.5523 12.5523 20 12 20H6C3.79086 20 2 18.2091 2 16V8C2 5.79086 3.79086 4 6 4H18C20.2091 4 22 5.79086 22 8V10C22 10.5523 21.5523 11 21 11C20.4477 11 20 10.5523 20 10V8C20 6.89543 19.1046 6 18 6Z" fill="currentColor" style="fill:currentColor;fill-opacity:1;"/>
<path d="M20 14C20 13.4477 19.5523 13 19 13C18.4477 13 18 13.4477 18 14V16H16C15.4477 16 15 16.4477 15 17C15 17.5523 15.4477 18 16 18H18V20C18 20.5523 18.4477 21 19 21C19.5523 21 20 20.5523 20 20V18H22C22.5523 18 23 17.5523 23 17C23 16.4477 22.5523 16 22 16H20V14Z" fill="currentColor" style="fill:currentColor;fill-opacity:1;"/>
</svg>
