<svg width="24" height="24" viewBox="0 0 24 24" fill="none" xmlns="http://www.w3.org/2000/svg">
<path fill-rule="evenodd" clip-rule="evenodd" d="M2 12C2 6.47715 6.47715 2 12 2C17.5228 2 22 6.47715 22 12C22 17.5228 17.5228 22 12 22C6.47715 22 2 17.5228 2 12ZM13 7C13 6.44772 12.5523 6 12 6C11.4477 6 11 6.44772 11 7V7.61151C8.99601 8.06624 7.5 9.85841 7.5 12C7.5 14.1416 8.99601 15.9338 11 16.3885V17C11 17.5523 11.4477 18 12 18C12.5523 18 13 17.5523 13 17V16.3883C13.8569 16.1937 14.6212 15.7545 15.2142 15.1494C15.6008 14.7549 15.5944 14.1218 15.1999 13.7353C14.8054 13.3487 14.1723 13.3551 13.7858 13.7496C13.3308 14.2138 12.6997 14.5 12 14.5C10.6193 14.5 9.5 13.3807 9.5 12C9.5 10.6193 10.6193 9.5 12 9.5C12.6997 9.5 13.3308 9.78617 13.7858 10.2504C14.1723 10.6449 14.8054 10.6513 15.1999 10.2647C15.5944 9.87821 15.6008 9.24507 15.2142 8.85061C14.6212 8.24546 13.8569 7.80631 13 7.61167V7Z" fill="currentColor" style="fill:currentColor;fill-opacity:1;"/>
</svg>
