<svg width="24" height="24" viewBox="0 0 24 24" fill="none" xmlns="http://www.w3.org/2000/svg">
<path fill-rule="evenodd" clip-rule="evenodd" d="M5 6C5 3.79086 6.79086 2 9 2H15C17.2091 2 19 3.79086 19 6H21C21.5523 6 22 6.44772 22 7C22 7.55228 21.5523 8 21 8H19V16C19 18.2091 17.2091 20 15 20H12V21C12 21.5523 11.5523 22 11 22H6C5.44772 22 5 21.5523 5 21V14.8293C3.83481 14.4175 3 13.3062 3 12C3 10.6938 3.83481 9.58254 5 9.17071V6ZM7 6H17C17 4.89543 16.1046 4 15 4H9C7.89543 4 7 4.89543 7 6ZM10 10C10 9.44772 10.4477 9 11 9H11.01C11.5623 9 12.01 9.44772 12.01 10C12.01 10.5523 11.5623 11 11.01 11H11C10.4477 11 10 10.5523 10 10ZM14 10C14 9.44772 14.4477 9 15 9H15.01C15.5623 9 16.01 9.44772 16.01 10C16.01 10.5523 15.5623 11 15.01 11H15C14.4477 11 14 10.5523 14 10ZM11.9123 14.1047C12.3123 14.2247 12.8694 14.2519 13.7575 14.0299C14.2933 13.8959 14.8362 14.2217 14.9701 14.7575C15.1041 15.2933 14.7783 15.8362 14.2425 15.9701C13.1306 16.2481 12.1877 16.2753 11.3377 16.0203C10.4883 15.7655 9.84905 15.2633 9.29289 14.7071C8.90237 14.3166 8.90237 13.6834 9.29289 13.2929C9.68342 12.9024 10.3166 12.9024 10.7071 13.2929C11.1509 13.7367 11.5117 13.9845 11.9123 14.1047Z" fill="currentColor" style="fill:currentColor;fill-opacity:1;"/>
</svg>
