<svg width="24" height="24" viewBox="0 0 24 24" fill="none" xmlns="http://www.w3.org/2000/svg">
<path d="M9.50001 9.97937L11.5 8.8247C11.8094 8.64608 12.1906 8.64608 12.5 8.8247L14.5 9.97937C14.8094 10.158 15 10.4881 15 10.8454V13.1547C15 13.5119 14.8094 13.8421 14.5 14.0207L12.5 15.1754C12.1906 15.354 11.8094 15.354 11.5 15.1754L9.50001 14.0207C9.1906 13.8421 9 13.5119 9 13.1547V10.8454C9 10.4881 9.1906 10.158 9.50001 9.97937Z" fill="currentColor" style="fill:currentColor;fill-opacity:1;"/>
<path fill-rule="evenodd" clip-rule="evenodd" d="M2 12C2 6.47715 6.47715 2 12 2C17.5228 2 22 6.47715 22 12C22 17.5228 17.5228 22 12 22C6.47715 22 2 17.5228 2 12ZM15.5 8.24731L13.5 7.09264C12.5718 6.55676 11.4282 6.55676 10.5 7.09264L8.50003 8.24731C7.57181 8.7832 7 9.77359 7 10.8454V13.1547C7 14.2265 7.57181 15.2169 8.50003 15.7527L10.5 16.9074C11.4282 17.4433 12.5718 17.4433 13.5 16.9074L15.5 15.7527C16.4282 15.2169 17 14.2265 17 13.1547V10.8454C17 9.77359 16.4282 8.7832 15.5 8.24731Z" fill="currentColor" style="fill:currentColor;fill-opacity:1;"/>
</svg>
