<svg width="24" height="24" viewBox="0 0 24 24" fill="none" xmlns="http://www.w3.org/2000/svg">
<path d="M16.797 3.44129C17.2435 2.91497 18.0322 2.85037 18.5587 3.29675C19.085 3.74326 19.1496 4.53201 18.7032 5.05847L14.1309 10.4501H16.7501C17.4404 10.4501 18.0001 11.0097 18.0001 11.7001C18 12.3904 17.4404 12.9501 16.7501 12.9501H13.2501V14.4999H16.7501C17.4404 14.4999 18.0001 15.0595 18.0001 15.7499C18 16.4402 17.4404 16.9999 16.7501 16.9999H13.2501V19.7499C13.25 20.4402 12.6904 20.9999 12.0001 20.9999C11.3098 20.9998 10.7501 20.4401 10.7501 19.7499V16.9999H7.25009C6.55983 16.9998 6.00015 16.4401 6.00009 15.7499C6.00009 15.0596 6.55979 14.5 7.25009 14.4999H10.7501V12.9501H7.25009C6.55983 12.95 6.00015 12.3903 6.00009 11.7001C6.00009 11.0098 6.55979 10.4501 7.25009 10.4501H9.86923L5.29696 5.05847L5.21884 4.95691C4.86 4.43488 4.94814 3.7154 5.44149 3.29675C5.93526 2.87807 6.65985 2.90882 7.1163 3.34851L7.20321 3.44129L12.0001 9.09754L16.797 3.44129Z" fill="currentColor"/>
</svg>
