<svg width="24" height="24" viewBox="0 0 24 24" fill="none" xmlns="http://www.w3.org/2000/svg">
<path fill-rule="evenodd" clip-rule="evenodd" d="M12.0002 0.5C12.6904 0.500095 13.2502 1.0597 13.2502 1.75V2.58398C15.0933 2.81534 16.9219 3.54471 18.1847 4.87012C18.6607 5.36983 18.6422 6.16052 18.1427 6.63672C17.6429 7.11276 16.8513 7.09345 16.3752 6.59375C15.6494 5.8322 14.5057 5.31815 13.2502 5.10742V11.1787C14.4553 11.4936 15.7677 11.8651 16.8175 12.457C17.4679 12.8238 18.0868 13.3095 18.5412 13.9805C19.0055 14.6664 19.2501 15.476 19.2502 16.4004C19.2502 18.0859 18.3639 19.3594 17.1466 20.1826C16.0463 20.9266 14.6533 21.3251 13.2502 21.4512V22.25C13.2502 22.9403 12.6904 23.4999 12.0002 23.5C11.3099 23.4999 10.7502 22.9403 10.7502 22.25V21.3965C9.93511 21.2864 9.1312 21.0877 8.38199 20.793C6.96933 20.2372 5.65265 19.3049 4.89957 17.9082C4.57233 17.3007 4.80001 16.5424 5.40738 16.2148C6.01487 15.8877 6.77314 16.1144 7.10074 16.7217C7.49047 17.4445 8.24567 18.0531 9.29703 18.4668C9.75039 18.6451 10.2421 18.7769 10.7502 18.8662V13.0996C9.67158 12.7912 8.55321 12.403 7.62809 11.8174C6.25547 10.9483 5.25016 9.60822 5.25016 7.57129C5.2502 6.06868 5.94169 4.87255 6.96891 4.04102C7.9657 3.23431 9.26215 2.77561 10.5744 2.59375C10.6325 2.58571 10.6915 2.58026 10.7502 2.57324V1.75C10.7502 1.05972 11.3099 0.50013 12.0002 0.5ZM13.2502 18.9414C14.2578 18.8229 15.1304 18.5277 15.7462 18.1113C16.4216 17.6545 16.7502 17.094 16.7502 16.4004C16.7501 15.9392 16.6353 15.6248 16.4709 15.3818C16.2964 15.1243 16.0161 14.8756 15.589 14.6348C14.9646 14.2828 14.1746 14.0242 13.2502 13.7686V18.9414ZM10.7502 5.09766C9.82454 5.2489 9.05884 5.56627 8.54215 5.98438C8.02524 6.40279 7.7502 6.91573 7.75016 7.57129C7.75016 8.6038 8.18277 9.20925 8.96598 9.70508C9.45736 10.0161 10.0596 10.2605 10.7502 10.4844V5.09766Z" fill="currentColor"/>
</svg>
