<svg width="24" height="24" viewBox="0 0 24 24" fill="none" xmlns="http://www.w3.org/2000/svg">
<path d="M8 19V20C8.54519 20 8.98991 19.5633 8.99983 19.0182L8 19ZM16 19L15.0002 19.0182C15.0101 19.5633 15.4548 20 16 20V19ZM9 17H8V19H9V17ZM15 19H16V17H15V19ZM9.88859 4.89115C9.82847 4.34215 9.33468 3.94583 8.78568 4.00594C8.23667 4.06606 7.84035 4.55985 7.90047 5.10885L9.88859 4.89115ZM16.0995 5.10885C16.1596 4.55985 15.7633 4.06606 15.2143 4.00594C14.6653 3.94583 14.1715 4.34215 14.1114 4.89115L16.0995 5.10885ZM8 18H6V20H8V18ZM6 6H18V4H6V6ZM18 18H16V20H18V18ZM20 8V14H22V8H20ZM20 14V16H22V14H20ZM4 16V14H2V16H4ZM4 14V8H2V14H4ZM9 19H15V17H9V19ZM16.9998 18.9818C16.9777 17.7674 17.3894 16.6922 18.0664 15.9712C18.7272 15.2676 19.6787 14.8558 20.8867 14.9936L21.1133 13.0064C19.2737 12.7967 17.6989 13.4409 16.6085 14.6021C15.5343 15.7461 14.9697 17.3446 15.0002 19.0182L16.9998 18.9818ZM8.99983 19.0182C9.03029 17.3446 8.46574 15.7461 7.39152 14.6021C6.30107 13.4409 4.72629 12.7967 2.88672 13.0064L3.11328 14.9936C4.32129 14.8558 5.27279 15.2676 5.93359 15.9712C6.61061 16.6922 7.02227 17.7674 7.00017 18.9818L8.99983 19.0182ZM3.26306 14.9648C5.86568 14.2551 7.74506 13.1401 8.85303 11.3835C9.95123 9.64241 10.1699 7.46039 9.88859 4.89115L7.90047 5.10885C8.16117 7.48961 7.90819 9.13259 7.16142 10.3165C6.42442 11.4849 5.08552 12.3949 2.73694 13.0352L3.26306 14.9648ZM21.2631 13.0352C18.9145 12.3949 17.5756 11.4849 16.8386 10.3165C16.0918 9.13259 15.8388 7.48961 16.0995 5.10885L14.1114 4.89115C13.8301 7.46039 14.0488 9.64241 15.147 11.3835C16.2549 13.1401 18.1343 14.2551 20.7369 14.9648L21.2631 13.0352ZM18 20C20.2091 20 22 18.2091 22 16H20C20 17.1046 19.1046 18 18 18V20ZM18 6C19.1046 6 20 6.89543 20 8H22C22 5.79086 20.2091 4 18 4V6ZM6 4C3.79086 4 2 5.79086 2 8H4C4 6.89543 4.89543 6 6 6V4ZM6 18C4.89543 18 4 17.1046 4 16H2C2 18.2091 3.79086 20 6 20V18Z" fill="currentColor"/>
</svg>
