<svg width="25" height="24" viewBox="0 0 25 24" fill="none" xmlns="http://www.w3.org/2000/svg">
<path fill-rule="evenodd" clip-rule="evenodd" d="M12.75 1C13.3023 1 13.75 1.44772 13.75 2V3H17.75C19.4069 3 20.75 4.34315 20.75 6V11C20.75 11.8885 20.3638 12.6868 19.75 13.2361V14.5858L21.4571 16.2929C21.8476 16.6834 21.8476 17.3166 21.4571 17.7071C21.0666 18.0976 20.4334 18.0976 20.0429 17.7071L19.431 17.0952C18.5405 19.9377 15.8861 22 12.75 22C9.6139 22 6.95948 19.9377 6.06897 17.0952L5.45711 17.7071C5.06658 18.0976 4.43342 18.0976 4.04289 17.7071C3.65237 17.3166 3.65237 16.6834 4.04289 16.2929L5.75 14.5858V13.2361C5.13625 12.6868 4.75 11.8885 4.75 11V6C4.75 4.34315 6.09315 3 7.75 3H11.75V2C11.75 1.44772 12.1977 1 12.75 1ZM7.75 5C7.19772 5 6.75 5.44772 6.75 6V11C6.75 11.5523 7.19772 12 7.75 12H17.75C18.3023 12 18.75 11.5523 18.75 11V6C18.75 5.44772 18.3023 5 17.75 5H7.75ZM9.75 7C10.3023 7 10.75 7.44772 10.75 8V9C10.75 9.55228 10.3023 10 9.75 10C9.19772 10 8.75 9.55228 8.75 9V8C8.75 7.44772 9.19772 7 9.75 7ZM15.75 7C16.3023 7 16.75 7.44772 16.75 8V9C16.75 9.55228 16.3023 10 15.75 10C15.1977 10 14.75 9.55228 14.75 9V8C14.75 7.44772 15.1977 7 15.75 7Z" fill="currentColor" style="fill:currentColor;fill-opacity:1;"/>
</svg>
