<svg width="24" height="24" viewBox="0 0 24 24" fill="none" xmlns="http://www.w3.org/2000/svg">
<path fill-rule="evenodd" clip-rule="evenodd" d="M11 5C11 3.89543 11.8954 3 13 3H18C18.9443 3 19.8334 3.44458 20.4 4.2L21.9 6.2C22.7 7.26667 22.7 8.73333 21.9 9.8L20.4 11.8C19.8334 12.5554 18.9443 13 18 13H13V20C13 20.5523 12.5523 21 12 21C11.4477 21 11 20.5523 11 20V17H6C5.05573 17 4.16656 16.5554 3.6 15.8L2.1 13.8C1.3 12.7333 1.3 11.2667 2.1 10.2L3.6 8.2C4.16656 7.44458 5.05573 7 6 7H11V5ZM13 11H18C18.3148 11 18.6111 10.8518 18.8 10.6L20.3 8.6C20.5667 8.24444 20.5667 7.75556 20.3 7.4L18.8 5.4C18.6111 5.14819 18.3148 5 18 5H13V11Z" fill="currentColor" style="fill:currentColor;fill-opacity:1;"/>
</svg>
