<svg width="24" height="24" viewBox="0 0 24 24" fill="none" xmlns="http://www.w3.org/2000/svg">
<path fill-rule="evenodd" clip-rule="evenodd" d="M12.3001 17.7148L6.49955 11.9142L4.82798 13.5858C4.04693 14.3669 4.04693 15.6332 4.82797 16.4142L6.82798 18.4142C7.20305 18.7893 7.71176 19 8.24219 19H10.2168C10.763 19 11.2854 18.7766 11.6628 18.3818L12.3001 17.7148ZM12.4211 3.16425C13.9832 1.60215 16.5159 1.60215 18.078 3.16425L20.883 5.96927C22.4201 7.50633 22.4483 9.98955 20.9465 11.5611L13.1087 19.7635C12.3541 20.5533 11.3092 21 10.2168 21H8.24219C7.18132 21 6.16391 20.5786 5.41376 19.8285L3.41376 17.8285C1.85166 16.2664 1.85167 13.7337 3.41376 12.1716L12.4211 3.16425Z" fill="currentColor" style="fill:currentColor;fill-opacity:1;"/>
</svg>
