<svg width="24" height="24" viewBox="0 0 24 24" fill="none" xmlns="http://www.w3.org/2000/svg">
<path d="M13 3H8C5.79086 3 4 4.79086 4 7V12H20V10H16C14.3431 10 13 8.65685 13 7V3Z" fill="currentColor" style="fill:currentColor;fill-opacity:1;"/>
<path d="M19.8834 8C19.7442 7.51572 19.484 7.06977 19.1213 6.70711L16.2929 3.87868C15.9302 3.51602 15.4843 3.2558 15 3.11664V7C15 7.55228 15.4477 8 16 8H19.8834Z" fill="currentColor" style="fill:currentColor;fill-opacity:1;"/>
<path fill-rule="evenodd" clip-rule="evenodd" d="M3 15C3 14.4477 3.44772 14 4 14H5.75C7.13071 14 8.25 15.1193 8.25 16.5C8.25 17.8807 7.13071 19 5.75 19H5V20C5 20.5523 4.55228 21 4 21C3.44772 21 3 20.5523 3 20V15ZM5 17H5.75C6.02614 17 6.25 16.7761 6.25 16.5C6.25 16.2239 6.02614 16 5.75 16H5V17Z" fill="currentColor" style="fill:currentColor;fill-opacity:1;"/>
<path fill-rule="evenodd" clip-rule="evenodd" d="M9 15C9 14.4477 9.44772 14 10 14H10.25C10.6013 14 10.9268 14.1843 11.1075 14.4855L12.5 16.8063V15C12.5 14.4477 12.9477 14 13.5 14C14.0523 14 14.5 14.4477 14.5 15V20C14.5 20.5523 14.0523 21 13.5 21H13.25C12.8987 21 12.5732 20.8157 12.3925 20.5145L11 18.1937V20C11 20.5523 10.5523 21 10 21C9.44772 21 9 20.5523 9 20V15Z" fill="currentColor" style="fill:currentColor;fill-opacity:1;"/>
<path fill-rule="evenodd" clip-rule="evenodd" d="M18.706 15.9895C18.5585 15.9532 18.4054 15.9449 18.3087 15.9508C17.9167 15.9746 17.25 16.4676 17.25 17.5333C17.25 18.588 17.8447 19.0468 18.3847 19.05C18.6734 19.0456 18.9317 18.9813 19.125 18.8885V18.0536C19.125 17.5013 19.5727 17.0536 20.125 17.0536C20.6773 17.0536 21.125 17.5013 21.125 18.0536V19.3816C21.125 19.6326 21.0306 19.8745 20.8605 20.0592C20.1836 20.7938 19.1744 21.0406 18.4024 21.0499L18.3903 21.0501C16.4473 21.0501 15.25 19.3737 15.25 17.5333C15.25 15.7003 16.4728 14.0586 18.1874 13.9544C18.4716 13.9372 18.8276 13.9597 19.184 14.0474C19.5314 14.1329 19.9689 14.3025 20.3228 14.6465C20.7189 15.0314 20.7279 15.6645 20.343 16.0606C19.9581 16.4566 19.325 16.4657 18.929 16.0808C18.929 16.0808 18.913 16.0666 18.8741 16.0476C18.833 16.0276 18.7768 16.0069 18.706 15.9895Z" fill="currentColor" style="fill:currentColor;fill-opacity:1;"/>
</svg>
