<svg width="24" height="24" viewBox="0 0 24 24" fill="none" xmlns="http://www.w3.org/2000/svg">
<path d="M8 2H12V6C12 8.20914 13.7909 10 16 10H20V18C20 20.2091 18.2091 22 16 22H10V20H12V18H10V16H12V14H10V12H8V14H10V16H8V18H10V20H8V22C5.79086 22 4 20.2091 4 18V6C4 3.79086 5.79086 2 8 2Z" fill="currentColor" style="fill:currentColor;fill-opacity:1;"/>
<path d="M18.8284 6.91421C19.1477 7.23348 19.4074 7.60116 19.6004 8H16C14.8954 8 14 7.10457 14 6V2.39955C14.3988 2.59258 14.7665 2.85231 15.0858 3.17157L18.8284 6.91421Z" fill="currentColor" style="fill:currentColor;fill-opacity:1;"/>
</svg>
