<svg width="24" height="24" viewBox="0 0 24 24" fill="none" xmlns="http://www.w3.org/2000/svg">
<path d="M3 5.5C3 4.11929 4.11929 3 5.5 3H8.75C10.1307 3 11.25 4.11929 11.25 5.5C11.25 6.88071 10.1307 8 8.75 8H5.5C4.11929 8 3 6.88071 3 5.5Z" fill="currentColor" style="fill:currentColor;fill-opacity:1;"/>
<path d="M8.5 12C8.5 10.6193 9.61929 9.5 11 9.5H13C14.3807 9.5 15.5 10.6193 15.5 12C15.5 13.3807 14.3807 14.5 13 14.5H11C9.61929 14.5 8.5 13.3807 8.5 12Z" fill="currentColor" style="fill:currentColor;fill-opacity:1;"/>
<path d="M3 11.375C3 10.3395 3.83947 9.5 4.875 9.5C5.91053 9.5 6.75 10.3395 6.75 11.375V12.625C6.75 13.6605 5.91053 14.5 4.875 14.5C3.83947 14.5 3 13.6605 3 12.625V11.375Z" fill="currentColor" style="fill:currentColor;fill-opacity:1;"/>
<path d="M17.2 11.375C17.2 10.3395 18.0394 9.5 19.075 9.5C20.1105 9.5 20.95 10.3395 20.95 11.375V12.625C20.95 13.6605 20.1105 14.5 19.075 14.5C18.0394 14.5 17.2 13.6605 17.2 12.625V11.375Z" fill="currentColor" style="fill:currentColor;fill-opacity:1;"/>
<path d="M12.75 5.5C12.75 4.11929 13.8693 3 15.25 3H18.5C19.8807 3 21 4.11929 21 5.5C21 6.88071 19.8807 8 18.5 8H15.25C13.8693 8 12.75 6.88071 12.75 5.5Z" fill="currentColor" style="fill:currentColor;fill-opacity:1;"/>
<path d="M3 18.5C3 17.1193 4.11929 16 5.5 16H8.75C10.1307 16 11.25 17.1193 11.25 18.5C11.25 19.8807 10.1307 21 8.75 21H5.5C4.11929 21 3 19.8807 3 18.5Z" fill="currentColor" style="fill:currentColor;fill-opacity:1;"/>
<path d="M12.75 18.5C12.75 17.1193 13.8693 16 15.25 16H18.5C19.8807 16 21 17.1193 21 18.5C21 19.8807 19.8807 21 18.5 21H15.25C13.8693 21 12.75 19.8807 12.75 18.5Z" fill="currentColor" style="fill:currentColor;fill-opacity:1;"/>
</svg>
