<svg width="24" height="24" viewBox="0 0 24 24" fill="none" xmlns="http://www.w3.org/2000/svg">
<path d="M5.99924 3C3.79011 3 1.99924 4.79086 1.99924 7V10.254C4.72892 8.34904 8.5132 8.61446 10.949 11.0503C13.3848 13.486 13.6502 17.2703 11.7453 20H17.9992C20.2084 20 21.9992 18.2091 21.9992 16V10C21.9992 7.79086 20.2084 6 17.9992 6H13.0696C12.7353 6 12.423 5.8329 12.2376 5.5547L11.425 4.3359C10.8686 3.5013 9.93194 3 8.92888 3H5.99924Z" fill="currentColor" style="fill:currentColor;fill-opacity:1;"/>
<path fill-rule="evenodd" clip-rule="evenodd" d="M2.46447 12.4645C0.511845 14.4171 0.511845 17.5829 2.46447 19.5355C4.41709 21.4882 7.58291 21.4882 9.53553 19.5355C11.4882 17.5829 11.4882 14.4171 9.53553 12.4645C7.58291 10.5118 4.41709 10.5118 2.46447 12.4645ZM3.87868 18.1213C2.95504 17.1977 2.75958 15.8216 3.29228 14.7065L7.29351 18.7077C6.17838 19.2404 4.80232 19.045 3.87868 18.1213ZM8.70772 17.2935L4.70649 13.2923C5.82162 12.7596 7.19768 12.955 8.12132 13.8787C9.04496 14.8023 9.24042 16.1784 8.70772 17.2935Z" fill="currentColor" style="fill:currentColor;fill-opacity:1;"/>
</svg>
