<svg width="24" height="24" viewBox="0 0 24 24" fill="none" xmlns="http://www.w3.org/2000/svg">
<path fill-rule="evenodd" clip-rule="evenodd" d="M6 3C3.79086 3 2 4.79086 2 7V17.5592C2 18.9072 3.09277 20 4.44076 20H18.0296C18.0345 20 18.0401 20 18.045 20C18.0636 19.9999 18.0821 19.9996 18.1006 19.9992C19.3837 19.9693 20.5093 19.1248 20.8937 17.8948L22.5494 12.5965C22.9151 11.4264 22.1542 10.2391 21 10.0318V9C21 7.34315 19.6569 6 18 6H13.0704C12.736 6 12.4238 5.8329 12.2383 5.5547L11.7226 4.7812C10.9808 3.6684 9.73186 3 8.39445 3H6ZM19 10V9C19 8.44772 18.5523 8 18 8H13.0704C12.0673 8 11.1306 7.4987 10.5742 6.6641L10.0585 5.8906C9.68762 5.3342 9.06316 5 8.39445 5H6C4.89543 5 4 5.89543 4 7V17.5592C4 17.8027 4.19734 18 4.44076 18C4.63355 18 4.80396 17.8747 4.86146 17.6907L6.60694 12.1052C6.99833 10.8527 8.15823 10 9.47038 10H19Z" fill="currentColor" style="fill:currentColor;fill-opacity:1;"/>
</svg>
