<svg width="24" height="24" viewBox="0 0 24 24" fill="none" xmlns="http://www.w3.org/2000/svg">
<path d="M13 4.99999C13 4.44771 12.5523 4 12 4C11.4477 4 11 4.44772 11 5.00001V5.04937C6.31157 5.51479 2.57663 9.21793 2.06079 13.8919C1.92673 15.1066 2.92866 16 4.00001 16H20C21.0713 16 22.0733 15.1066 21.9392 13.8919C21.4234 9.21793 17.6884 5.51478 13 5.04937V4.99999Z" fill="currentColor" style="fill:currentColor;fill-opacity:1;"/>
<path d="M3 17C2.44772 17 2 17.4477 2 18C2 18.5523 2.44772 19 3 19H9C9 19.5523 9.44772 20 10 20H14C14.5523 20 15 19.5523 15 19H21C21.5523 19 22 18.5523 22 18C22 17.4477 21.5523 17 21 17H3Z" fill="currentColor" style="fill:currentColor;fill-opacity:1;"/>
</svg>
