<svg width="24" height="24" viewBox="0 0 24 24" fill="none" xmlns="http://www.w3.org/2000/svg">
<path d="M11.0468 5.02236C11.5984 4.99654 12.0247 4.52838 11.9989 3.9767C11.9731 3.42502 11.5049 2.99873 10.9532 3.02455C7.71921 3.17595 4.76275 4.02495 2.4915 5.36625C2.01595 5.64708 1.8581 6.26026 2.13894 6.73581C2.41978 7.21136 3.03295 7.36921 3.5085 7.08837C5.45883 5.9366 8.08841 5.16085 11.0468 5.02236Z" fill="currentColor"/>
<path d="M21.5085 18.634C21.9841 18.3532 22.1419 17.74 21.8611 17.2645C21.5802 16.7889 20.967 16.6311 20.4915 16.9119C18.5412 18.0637 15.9116 18.8394 12.9532 18.9779C12.4016 19.0037 11.9753 19.4719 12.0011 20.0236C12.0269 20.5753 12.4951 21.0016 13.0468 20.9757C16.2808 20.8243 19.2373 19.9753 21.5085 18.634Z" fill="currentColor"/>
<path d="M6.34051 7.48088C4.89697 8.24511 4.25 9.17208 4.25 10C4.25 10.828 4.89697 11.7549 6.34051 12.5192C7.75049 13.2656 9.75014 13.75 12 13.75C14.2499 13.75 16.2495 13.2656 17.6595 12.5192C19.103 11.7549 19.75 10.828 19.75 10C19.75 9.17208 19.103 8.24511 17.6595 7.48088C16.2495 6.73442 14.2499 6.25002 12 6.25002C9.75014 6.25002 7.75049 6.73442 6.34051 7.48088Z" fill="currentColor"/>
<path d="M1 12.0001C1 10.499 1.91505 9.26389 3.20208 8.33736C2.91459 8.84383 2.75 9.40002 2.75 10C2.75 11.6574 4.00582 12.9804 5.63868 13.8448C7.30509 14.7271 9.55544 15.25 12 15.25C14.4446 15.25 16.6949 14.7271 18.3613 13.8448C19.9942 12.9804 21.25 11.6574 21.25 10C21.25 9.40002 21.0854 8.84384 20.7979 8.33736C22.085 9.26389 23 10.499 23 12.0001C23 13.9636 21.4342 15.472 19.5183 16.43C17.5425 17.4179 14.883 18.0001 12 18.0001C9.11699 18.0001 6.45748 17.4179 4.48172 16.43C2.56577 15.472 1 13.9636 1 12.0001Z" fill="currentColor"/>
</svg>
