<svg width="24" height="24" viewBox="0 0 24 24" fill="none" xmlns="http://www.w3.org/2000/svg">
<path d="M10.5 2C9.11929 2 8 3.11929 8 4.5V6.12868C8 6.79172 8.26339 7.42761 8.73223 7.89645L10.5858 9.75C11.3668 10.531 12.6332 10.531 13.4142 9.75L15.2678 7.89645C15.7366 7.42761 16 6.79172 16 6.12868V4.5C16 3.11929 14.8807 2 13.5 2H10.5Z" fill="currentColor" style="fill:currentColor;fill-opacity:1;"/>
<path d="M19.5 16C20.8807 16 22 14.8807 22 13.5V10.5C22 9.11929 20.8807 8 19.5 8H17.8713C17.2083 8 16.5724 8.26339 16.1036 8.73223L14.25 10.5858C13.469 11.3668 13.469 12.6332 14.25 13.4142L16.1036 15.2678C16.5724 15.7366 17.2083 16 17.8713 16H19.5Z" fill="currentColor" style="fill:currentColor;fill-opacity:1;"/>
<path d="M13.5 22C14.8807 22 16 20.8807 16 19.5V17.8713C16 17.2083 15.7366 16.5724 15.2678 16.1035L13.4142 14.25C12.6332 13.4689 11.3668 13.4689 10.5858 14.25L8.73223 16.1035C8.26339 16.5724 8 17.2083 8 17.8713V19.5C8 20.8807 9.11929 22 10.5 22H13.5Z" fill="currentColor" style="fill:currentColor;fill-opacity:1;"/>
<path d="M2 13.5C2 14.8807 3.11929 16 4.5 16H6.12868C6.79172 16 7.42761 15.7366 7.89645 15.2678L9.75 13.4142C10.531 12.6332 10.531 11.3668 9.75 10.5858L7.89645 8.73223C7.42761 8.26339 6.79172 8 6.12868 8H4.5C3.11929 8 2 9.11929 2 10.5V13.5Z" fill="currentColor" style="fill:currentColor;fill-opacity:1;"/>
</svg>
