<svg width="24" height="24" viewBox="0 0 24 24" fill="none" xmlns="http://www.w3.org/2000/svg">
<path d="M13.5 2C14.8807 2 16 3.11929 16 4.5V6.12868C16 6.79172 15.7366 7.42761 15.2678 7.89645L13.4142 9.75C12.6332 10.531 11.3668 10.531 10.5858 9.75L8.73223 7.89645C8.26339 7.42761 8 6.79172 8 6.12868V4.5C8 3.11929 9.11929 2 10.5 2H13.5Z" fill="currentColor" style="fill:currentColor;fill-opacity:1;"/>
<path d="M19.5 8C20.8807 8 22 9.11929 22 10.5V13.5C22 14.8807 20.8807 16 19.5 16H17.8713C17.2083 16 16.5724 15.7366 16.1036 15.2678L14.25 13.4142C13.469 12.6332 13.469 11.3668 14.25 10.5858L16.1036 8.73223C16.5724 8.26339 17.2083 8 17.8713 8H19.5Z" fill="currentColor" style="fill:currentColor;fill-opacity:1;"/>
<path d="M10.5858 14.25C11.3668 13.469 12.6332 13.469 13.4142 14.25L15.2678 16.1036C15.7366 16.5724 16 17.2083 16 17.8713V19.5C16 20.8807 14.8807 22 13.5 22H10.5C9.11929 22 8 20.8807 8 19.5V17.8713C8 17.2083 8.26339 16.5724 8.73223 16.1036L10.5858 14.25Z" fill="currentColor" style="fill:currentColor;fill-opacity:1;"/>
<path fill-rule="evenodd" clip-rule="evenodd" d="M2 13.5C2 14.8807 3.11929 16 4.5 16H6.12868C6.79172 16 7.42761 15.7366 7.89645 15.2678L9.75 13.4142C10.531 12.6332 10.531 11.3668 9.75 10.5858L7.89645 8.73223C7.42761 8.26339 6.79172 8 6.12868 8H4.5C3.11929 8 2 9.11929 2 10.5V13.5ZM4 10.5C4 10.2239 4.22386 10 4.5 10H6.12868C6.26129 10 6.38846 10.0527 6.48223 10.1464L8.33579 12L6.48223 13.8536C6.38846 13.9473 6.26129 14 6.12868 14H4.5C4.22386 14 4 13.7761 4 13.5V10.5Z" fill="currentColor" style="fill:currentColor;fill-opacity:1;"/>
</svg>
