<svg width="24" height="24" viewBox="0 0 24 24" fill="none" xmlns="http://www.w3.org/2000/svg">
<path d="M8.25 5.75C8.25 3.67893 9.92893 2 12 2C14.0711 2 15.75 3.67893 15.75 5.75C15.75 7.82107 14.0711 9.5 12 9.5C9.92893 9.5 8.25 7.82107 8.25 5.75Z" fill="currentColor" style="fill:currentColor;fill-opacity:1;"/>
<path d="M14.5 12C14.5 9.92893 16.1789 8.25 18.25 8.25C20.3211 8.25 22 9.92893 22 12C22 14.0711 20.3211 15.75 18.25 15.75C16.1789 15.75 14.5 14.0711 14.5 12Z" fill="currentColor" style="fill:currentColor;fill-opacity:1;"/>
<path d="M2 12C2 9.92893 3.67893 8.25 5.75 8.25C7.82107 8.25 9.5 9.92893 9.5 12C9.5 14.0711 7.82107 15.75 5.75 15.75C3.67893 15.75 2 14.0711 2 12Z" fill="currentColor" style="fill:currentColor;fill-opacity:1;"/>
<path fill-rule="evenodd" clip-rule="evenodd" d="M12 14.5C9.92893 14.5 8.25 16.1789 8.25 18.25C8.25 20.3211 9.92893 22 12 22C14.0711 22 15.75 20.3211 15.75 18.25C15.75 16.1789 14.0711 14.5 12 14.5ZM10.25 18.25C10.25 17.2835 11.0335 16.5 12 16.5C12.9665 16.5 13.75 17.2835 13.75 18.25C13.75 19.2165 12.9665 20 12 20C11.0335 20 10.25 19.2165 10.25 18.25Z" fill="currentColor" style="fill:currentColor;fill-opacity:1;"/>
</svg>
