<svg width="24" height="24" viewBox="0 0 24 24" fill="none" xmlns="http://www.w3.org/2000/svg">
<path fill-rule="evenodd" clip-rule="evenodd" d="M8 5C4.13401 5 1 8.13401 1 12C1 15.866 4.13401 19 8 19H16C19.866 19 23 15.866 23 12C23 8.13401 19.866 5 16 5H8ZM16.5 10.5C16.5 11.1904 17.0596 11.75 17.75 11.75C18.4404 11.75 19 11.1904 19 10.5C19 9.80964 18.4404 9.25 17.75 9.25C17.0596 9.25 16.5 9.80964 16.5 10.5ZM13.5 13.5C13.5 14.1904 14.0596 14.75 14.75 14.75C15.4404 14.75 16 14.1904 16 13.5C16 12.8096 15.4404 12.25 14.75 12.25C14.0596 12.25 13.5 12.8096 13.5 13.5ZM9 10C9 9.44772 8.55228 9 8 9C7.44772 9 7 9.44772 7 10V11H6C5.44772 11 5 11.4477 5 12C5 12.5523 5.44772 13 6 13H7V14C7 14.5523 7.44772 15 8 15C8.55228 15 9 14.5523 9 14V13H10C10.5523 13 11 12.5523 11 12C11 11.4477 10.5523 11 10 11H9V10Z" fill="currentColor" style="fill:currentColor;fill-opacity:1;"/>
</svg>
