<svg width="24" height="24" viewBox="0 0 24 24" fill="none" xmlns="http://www.w3.org/2000/svg">
<path d="M13 4H6C3.79086 4 2 5.79086 2 8V11H11.5858L10.2929 9.70711C9.90237 9.31658 9.90237 8.68342 10.2929 8.29289C10.6834 7.90237 11.3166 7.90237 11.7071 8.29289L13 9.58579V4Z" fill="currentColor" style="fill:currentColor;fill-opacity:1;"/>
<path d="M2 13V16C2 18.2091 3.79086 20 6 20H13V14.4142L11.7071 15.7071C11.3166 16.0976 10.6834 16.0976 10.2929 15.7071C9.90237 15.3166 9.90237 14.6834 10.2929 14.2929L11.5858 13H2Z" fill="currentColor" style="fill:currentColor;fill-opacity:1;"/>
<path d="M15 20H18C20.2091 20 22 18.2091 22 16V13H16.4142L17.7071 14.2929C18.0976 14.6834 18.0976 15.3166 17.7071 15.7071C17.3166 16.0976 16.6834 16.0976 16.2929 15.7071L15 14.4142V20Z" fill="currentColor" style="fill:currentColor;fill-opacity:1;"/>
<path d="M22 11V8C22 5.79086 20.2091 4 18 4H15V9.58579L16.2929 8.29289C16.6834 7.90237 17.3166 7.90237 17.7071 8.29289C18.0976 8.68342 18.0976 9.31658 17.7071 9.70711L16.4142 11H22Z" fill="currentColor" style="fill:currentColor;fill-opacity:1;"/>
</svg>
