<?xml version="1.0" encoding="UTF-8"?>
<svg
  width="24"
  height="24"
  viewBox="0 0 24 24"
  fill="none"
  version="1.1" xmlns="http://www.w3.org/2000/svg" xmlns:xlink="http://www.w3.org/1999/xlink"
>
  <path
    d="M22.5018 12.2331C22.5018 11.3698 22.4303 10.7398 22.2756 10.0864H12.2161V13.983H18.1208C18.0018 14.9514 17.3589 16.4097 15.9303 17.3897L15.9103 17.5202L19.0909 19.9349L19.3113 19.9564C21.3351 18.1247 22.5018 15.4297 22.5018 12.2331Z"
    fill="#4285F4"
  />
  <path
    d="M12.2144 22.5001C15.1072 22.5001 17.5357 21.5667 19.3096 19.9567L15.9286 17.39C15.0239 18.0083 13.8096 18.44 12.2144 18.44C9.38106 18.44 6.97632 16.6083 6.1191 14.0767L5.99345 14.0871L2.6862 16.5955L2.64294 16.7133C4.40482 20.1433 8.02387 22.5001 12.2144 22.5001Z"
    fill="#34A853"
  />
  <path
    d="M6.11967 14.0767C5.89348 13.4234 5.76258 12.7233 5.76258 12C5.76258 11.2767 5.89348 10.5767 6.10777 9.92337L6.10178 9.78423L2.75306 7.2356L2.6435 7.28667C1.91734 8.71002 1.50067 10.3084 1.50067 12C1.50067 13.6917 1.91734 15.29 2.6435 16.7133L6.11967 14.0767Z"
    fill="#FBBC05"
  />
  <path
    d="M12.2144 5.55997C14.2263 5.55997 15.5834 6.41163 16.3573 7.12335L19.3811 4.23C17.524 2.53834 15.1072 1.5 12.2144 1.5C8.0239 1.5 4.40483 3.85665 2.64294 7.28662L6.10722 9.92332C6.97635 7.39166 9.3811 5.55997 12.2144 5.55997Z"
    fill="#EB4335"
  />
</svg>
