<svg width="24" height="24" viewBox="0 0 24 24" fill="none" xmlns="http://www.w3.org/2000/svg">
<path fill-rule="evenodd" clip-rule="evenodd" d="M5.01537 17.572C2.15513 13.6054 2.37824 9.2325 5.11743 6.22156C7.96945 3.08658 13.2839 1.72043 19.7714 3.53692C20.1077 3.6311 20.3706 3.89393 20.4647 4.23026C22.2812 10.7178 20.915 16.0322 17.78 18.8842C14.7691 21.6233 10.3962 21.8464 6.42958 18.9862L4.70881 20.707C4.31828 21.0975 3.68512 21.0975 3.29459 20.707C2.90407 20.3165 2.90407 19.6833 3.29459 19.2928L5.01537 17.572ZM12.6168 7.94198C12.9198 7.56318 13.5201 7.78233 13.5201 8.27177V10.4584H14.9915C15.4211 10.4584 15.6577 10.9689 15.3856 11.3089L12.3866 15.0579C12.0836 15.4367 11.4833 15.2175 11.4833 14.7281V12.5415H10.0119C9.5823 12.5415 9.34575 12.031 9.61777 11.6909L12.6168 7.94198Z" fill="currentColor" style="fill:currentColor;fill-opacity:1;"/>
</svg>
