<svg width="24" height="24" viewBox="0 0 24 24" fill="none" xmlns="http://www.w3.org/2000/svg">
<path d="M14.2163 16.486C12.9963 13.5647 10.5439 12 7.99835 12C5.45279 12 3.00034 13.5647 1.78041 16.486C1.28328 17.6764 1.5856 18.8525 2.29476 19.6858C2.98578 20.4978 4.06381 21 5.21727 21H10.7794C11.9329 21 13.0109 20.4978 13.7019 19.6858C14.4111 18.8525 14.7134 17.6764 14.2163 16.486Z" fill="currentColor" style="fill:currentColor;fill-opacity:1;"/>
<path d="M3.99854 7C3.99854 4.79086 5.7894 3 7.99854 3C10.2077 3 11.9985 4.79086 11.9985 7C11.9985 9.20914 10.2077 11 7.99854 11C5.7894 11 3.99854 9.20914 3.99854 7Z" fill="currentColor" style="fill:currentColor;fill-opacity:1;"/>
<path d="M13.4985 7.5C13.4985 5.567 15.0655 4 16.9985 4C18.9315 4 20.4985 5.567 20.4985 7.5C20.4985 9.433 18.9315 11 16.9985 11C15.0655 11 13.4985 9.433 13.4985 7.5Z" fill="currentColor" style="fill:currentColor;fill-opacity:1;"/>
<path d="M14.1954 12.7735C14.9518 13.5934 15.5881 14.5805 16.062 15.7152C16.7004 17.2441 16.5274 18.7698 15.8866 20H18.9253C20.0795 20 21.1653 19.4917 21.8485 18.6751C22.5548 17.8307 22.8335 16.6324 22.2428 15.4523C21.1171 13.2036 19.0949 12 17.0014 12C16.0223 12 15.0589 12.2632 14.1954 12.7735Z" fill="currentColor" style="fill:currentColor;fill-opacity:1;"/>
</svg>
