<svg width="24" height="24" viewBox="0 0 24 24" fill="none" xmlns="http://www.w3.org/2000/svg">
<path fill-rule="evenodd" clip-rule="evenodd" d="M19.611 4.38899C19.0454 3.82336 18.1117 3.88253 17.622 4.51506L14.2117 8.92008C14.3709 9.04591 14.5244 9.1822 14.6711 9.32891C14.8178 9.47562 14.9541 9.62908 15.0799 9.78832L19.4849 6.37798C20.1175 5.88829 20.1766 4.95463 19.611 4.38899ZM16.0053 11.6012L20.7093 7.95943C22.2945 6.73219 22.4428 4.39233 21.0252 2.97478C19.6077 1.55723 17.2678 1.70553 16.0406 3.29071L12.3988 7.99466C10.6372 7.49742 8.66452 7.9409 7.27651 9.32891L5.98785 10.6176C5.72412 10.8813 5.36641 11.0295 4.99344 11.0295H4.40957C3.88 11.0295 3.37213 11.2398 2.99767 11.6143C2.2179 12.3941 2.2179 13.6583 2.99767 14.4381L3.8194 15.2598C2.65943 16.6318 2.72611 18.6872 4.01944 19.9806C5.31277 21.2739 7.36825 21.3406 8.74017 20.1806L9.5619 21.0023C10.3417 21.7821 11.6059 21.7821 12.3857 21.0023C12.7602 20.6279 12.9705 20.12 12.9705 19.5904V19.0066C12.9705 18.6336 13.1187 18.2759 13.3824 18.0121L14.6711 16.7235C16.0591 15.3355 16.5026 13.3628 16.0053 11.6012ZM7.31401 18.7544L5.24556 16.686C4.85983 17.2655 4.92253 18.0552 5.43365 18.5663C5.94478 19.0775 6.73453 19.1402 7.31401 18.7544Z" fill="currentColor" style="fill:currentColor;fill-opacity:1;"/>
</svg>
