<svg width="24" height="24" viewBox="0 0 24 24" fill="none" xmlns="http://www.w3.org/2000/svg">
<path d="M19 12H21M19 12V18C19 19.6569 17.6569 21 16 21H8C6.34315 21 5 19.6569 5 18V12M19 12H5M3 12H5M6.74526 12C6.53864 11.219 6.36319 10.3557 6.23274 9.44016C5.68297 5.58195 6.14046 2.25719 7.25456 2.01409C8.36867 1.771 9.7175 4.70163 10.2673 8.55984C10.4423 9.78802 10.5152 10.9621 10.4974 12M16.5 12C17.5 10.5 17.7838 9.12123 18 8.00002L19.999 8.25002C23.499 8.75002 17.5 2.25004 15.499 4.25002C13.504 6.24397 13.5025 8.48643 13.5 11.9684L13.5 12" stroke="currentColor" stroke-width="2" stroke-linecap="round" stroke-linejoin="round"/>
</svg>
