<svg width="24" height="24" viewBox="0 0 24 24" fill="none" xmlns="http://www.w3.org/2000/svg">
<path fill-rule="evenodd" clip-rule="evenodd" d="M14.5224 2.26096C13.0528 1.0669 10.9472 1.0669 9.47763 2.26096L4.47763 6.32346C3.54279 7.08302 3 8.2234 3 9.42792V17C3 19.2091 4.79086 21 7 21H17C19.2091 21 21 19.2091 21 17V9.42792C21 8.2234 20.4572 7.08302 19.5224 6.32346L14.5224 2.26096ZM8 15C7.44772 15 7 15.4477 7 16C7 16.5523 7.44772 17 8 17H16C16.5523 17 17 16.5523 17 16C17 15.4477 16.5523 15 16 15H8Z" fill="currentColor" style="fill:currentColor;fill-opacity:1;"/>
</svg>
