<svg width="24" height="24" viewBox="0 0 24 24" fill="none" xmlns="http://www.w3.org/2000/svg">
<path fill-rule="evenodd" clip-rule="evenodd" d="M10 9C10.5523 9 11 9.44772 11 10V11H13V10C13 9.44772 13.4477 9 14 9C14.5523 9 15 9.44772 15 10V11.2676C15.5978 11.6134 16 12.2597 16 13C16 14.8638 14.7252 16.4299 13 16.874V20C13 20.5523 12.5523 21 12 21C11.4477 21 11 20.5523 11 20V16.874C9.27477 16.4299 8 14.8638 8 13C8 12.2597 8.4022 11.6134 9 11.2676V10C9 9.44772 9.44772 9 10 9Z" fill="currentColor" style="fill:currentColor;fill-opacity:1;"/>
<path d="M16.0069 21.02C15.4569 21.02 15.0069 20.57 15.0069 20.02C15.0069 19.47 15.4569 19.02 16.0069 19.02C17.1069 19.02 18.0069 18.12 18.0069 17.02V8.55L12.3569 4.5C12.1769 4.37 12.0669 4.28 11.9669 4.24C11.9369 4.29 11.8369 4.37 11.6569 4.5L6.00692 8.55V17.02C6.00692 18.12 6.90692 19.02 8.00692 19.02C8.55692 19.02 9.00692 19.47 9.00692 20.02C9.00692 20.57 8.55692 21.02 8.00692 21.02C5.79692 21.02 4.00692 19.23 4.00692 17.02V9.98L3.08692 10.64C2.63692 10.96 2.01692 10.86 1.68692 10.41C1.36692 9.96 1.46692 9.34 1.91692 9.01L4.40692 7.23C4.40692 7.23 4.41692 7.23 4.42692 7.22L10.4969 2.87C10.8969 2.59 11.1569 2.4 11.5169 2.31C11.8369 2.23 12.1769 2.23 12.4969 2.31C12.8569 2.4 13.1169 2.59 13.5169 2.87L19.5769 7.21C19.5769 7.21 19.5869 7.21 19.5969 7.22L22.0869 9C22.5369 9.32 22.6369 9.95 22.3169 10.4C21.9969 10.85 21.3669 10.95 20.9169 10.63L19.9969 9.97V17.01C19.9969 19.22 18.2069 21.01 15.9969 21.01L16.0069 21.02Z" fill="currentColor" style="fill:currentColor;fill-opacity:1;"/>
</svg>
