<svg width="24" height="24" viewBox="0 0 24 24" fill="none" xmlns="http://www.w3.org/2000/svg">
<path d="M4 3C3.44772 3 3 3.44772 3 4C3 4.55228 3.44772 5 4 5H20C20.5523 5 21 4.55228 21 4C21 3.44772 20.5523 3 20 3H4Z" fill="currentColor" style="fill:currentColor;fill-opacity:1;"/>
<path d="M8.5 7C7.11929 7 6 8.11929 6 9.5V18.5C6 19.8807 7.11929 21 8.5 21C9.88071 21 11 19.8807 11 18.5V9.5C11 8.11929 9.88071 7 8.5 7Z" fill="currentColor" style="fill:currentColor;fill-opacity:1;"/>
<path d="M15.5 7C14.1193 7 13 8.11929 13 9.5V14.5C13 15.8807 14.1193 17 15.5 17C16.8807 17 18 15.8807 18 14.5V9.5C18 8.11929 16.8807 7 15.5 7Z" fill="currentColor" style="fill:currentColor;fill-opacity:1;"/>
</svg>
