<svg width="24" height="24" viewBox="0 0 24 24" fill="none" xmlns="http://www.w3.org/2000/svg">
<path fill-rule="evenodd" clip-rule="evenodd" d="M5 4H4C3.44772 4 3 3.55228 3 3C3 2.44772 3.44772 2 4 2H20C20.5523 2 21 2.44772 21 3C21 3.55228 20.5523 4 20 4H19V6.39445C19 7.73186 18.3316 8.98079 17.2188 9.72265L13.8028 12L17.2188 14.2773C18.3316 15.0192 19 16.2681 19 17.6056V20H20C20.5523 20 21 20.4477 21 21C21 21.5523 20.5523 22 20 22H4C3.44772 22 3 21.5523 3 21C3 20.4477 3.44772 20 4 20H5V17.6056C5 16.2681 5.6684 15.0192 6.7812 14.2774L10.1972 12L6.7812 9.72265C5.6684 8.98079 5 7.73186 5 6.39445V4ZM7 4V6.39445C7 6.6027 7.03241 6.80665 7.09385 7H16.9061C16.9676 6.80665 17 6.6027 17 6.39445V4H7ZM17 18V17.6056C17 16.9368 16.6658 16.3124 16.1094 15.9415L12 13.2019L7.8906 15.9415C7.3342 16.3124 7 16.9368 7 17.6056V18H17Z" fill="currentColor" style="fill:currentColor;fill-opacity:1;"/>
</svg>
