<svg width="24" height="24" viewBox="0 0 24 24" fill="none" xmlns="http://www.w3.org/2000/svg">
<path d="M4.26656 16.6791L3.42959 16.1319L3.42959 16.1319L4.26656 16.6791ZM6.14368 13.8082L6.98065 14.3555L6.14368 13.8082ZM8.27099 13.4085L8.85223 12.5948L8.27099 13.4085ZM9.28306 14.1314L9.8643 13.3177L9.8643 13.3177L9.28306 14.1314ZM11.3722 13.7873L10.5607 13.203L11.3722 13.7873ZM13.6781 10.5847L14.4896 11.169L13.6781 10.5847ZM16.1761 10.6803L17.0299 10.1597L16.1761 10.6803ZM19.8583 16.7191L20.7121 16.1985L19.8583 16.7191ZM5.10353 17.2264L6.98065 14.3555L5.30671 13.261L3.42959 16.1319L5.10353 17.2264ZM7.68975 14.2222L8.70183 14.9452L9.8643 13.3177L8.85223 12.5948L7.68975 14.2222ZM12.1838 14.3716L14.4896 11.169L12.8665 10.0004L10.5607 13.203L12.1838 14.3716ZM15.3223 11.2009L19.0045 17.2397L20.7121 16.1985L17.0299 10.1597L15.3223 11.2009ZM5.52202 20H18.5776V18H5.52202V20ZM19.0045 17.2397C19.2076 17.5729 18.9678 18 18.5776 18V20C20.5288 20 21.7279 17.8644 20.7121 16.1985L19.0045 17.2397ZM14.4896 11.169C14.6986 10.8787 15.136 10.8954 15.3223 11.2009L17.0299 10.1597C16.0987 8.63249 13.9117 8.54884 12.8665 10.0004L14.4896 11.169ZM8.70183 14.9452C9.82236 15.7455 11.3792 15.4891 12.1838 14.3716L10.5607 13.203C10.3998 13.4265 10.0884 13.4778 9.8643 13.3177L8.70183 14.9452ZM6.98065 14.3555C7.13619 14.1176 7.45848 14.0571 7.68975 14.2222L8.85223 12.5948C7.69584 11.7688 6.0844 12.0716 5.30671 13.261L6.98065 14.3555ZM3.42959 16.1319C2.3424 17.7946 3.53538 20 5.52202 20V18C5.12469 18 4.88609 17.5589 5.10353 17.2264L3.42959 16.1319ZM10.4991 6.5C10.4991 7.32843 9.8275 8 8.99907 8V10C10.9321 10 12.4991 8.433 12.4991 6.5H10.4991ZM8.99907 8C8.17064 8 7.49907 7.32843 7.49907 6.5H5.49907C5.49907 8.433 7.06607 10 8.99907 10V8ZM7.49907 6.5C7.49907 5.67157 8.17064 5 8.99907 5V3C7.06607 3 5.49907 4.567 5.49907 6.5H7.49907ZM8.99907 5C9.8275 5 10.4991 5.67157 10.4991 6.5H12.4991C12.4991 4.567 10.9321 3 8.99907 3V5Z" fill="currentColor"/>
</svg>
