<svg width="24" height="24" viewBox="0 0 24 24" fill="none" xmlns="http://www.w3.org/2000/svg">
<path fill-rule="evenodd" clip-rule="evenodd" d="M7 5.00001C5.89543 5.00001 5 5.89544 5 7.00001V17C5 18.1046 5.89543 19 7 19H7.10002C7.56329 16.7178 9.58104 15 12 15C14.419 15 16.4367 16.7178 16.9 19H17C18.1046 19 19 18.1046 19 17V13C19 12.4477 19.4477 12 20 12C20.5523 12 21 12.4477 21 13V17C21 19.2091 19.2091 21 17 21H7C4.79086 21 3 19.2091 3 17V7.00001C3 4.79087 4.79086 3.00001 7 3.00001H11C11.5523 3.00001 12 3.44772 12 4.00001C12 4.55229 11.5523 5.00001 11 5.00001H7ZM9.17071 19H14.8293C14.4175 17.8348 13.3062 17 12 17C10.6938 17 9.58254 17.8348 9.17071 19ZM12 9.00001C11.1716 9.00001 10.5 9.67158 10.5 10.5C10.5 11.3284 11.1716 12 12 12C12.8284 12 13.5 11.3284 13.5 10.5C13.5 9.67158 12.8284 9.00001 12 9.00001ZM8.5 10.5C8.5 8.56701 10.067 7.00001 12 7.00001C13.933 7.00001 15.5 8.56701 15.5 10.5C15.5 12.433 13.933 14 12 14C10.067 14 8.5 12.433 8.5 10.5Z" fill="currentColor"/>
<path d="M18.9472 1.89444C18.763 1.52591 18.237 1.52591 18.0528 1.89444L17.0745 3.85094C17.0262 3.9477 16.9477 4.02616 16.8509 4.07454L14.8944 5.05279C14.5259 5.23706 14.5259 5.76296 14.8944 5.94722L16.8509 6.92547C16.9477 6.97386 17.0262 7.05232 17.0745 7.14908L18.0528 9.10558C18.237 9.47411 18.763 9.47411 18.9472 9.10558L19.9255 7.14908C19.9738 7.05232 20.0523 6.97386 20.1491 6.92547L22.1056 5.94722C22.4741 5.76296 22.4741 5.23706 22.1056 5.05279L20.1491 4.07454C20.0523 4.02616 19.9738 3.9477 19.9255 3.85094L18.9472 1.89444Z" fill="currentColor"/>
</svg>
