<svg width="24" height="24" viewBox="0 0 24 24" fill="none" xmlns="http://www.w3.org/2000/svg">
<path d="M12 4C16.9704 4 20.9997 7.17684 21 11.0957C21 15.0149 16.9706 18.1924 12 18.1924C11.4545 18.1924 10.9202 18.1545 10.4014 18.0811C9.88137 18.4475 6.88184 20.5541 6.59863 20.5938C6.59863 20.5938 6.48249 20.6391 6.38379 20.5811C6.28535 20.5231 6.30263 20.371 6.30273 20.3701C6.3325 20.1672 7.08089 17.5838 7.21875 17.1084C4.68473 15.853 3 13.6295 3 11.0957C3.00031 7.17684 7.02959 4 12 4ZM5.69434 8.97559C5.41357 8.97575 5.18555 9.20418 5.18555 9.48438C5.18555 9.76457 5.41348 9.993 5.69434 9.99316H6.50488V13.0771C6.50488 13.3506 6.73806 13.5732 7.02441 13.5732C7.3106 13.573 7.54297 13.3505 7.54297 13.0771V9.99316H8.35352C8.63439 9.99312 8.86328 9.76465 8.86328 9.48438C8.86328 9.2041 8.63447 8.97563 8.35352 8.97559H5.69434ZM10.0957 8.97559C9.75762 8.98329 9.49187 9.23973 9.4043 9.48828L8.16211 12.7578C8.00458 13.2473 8.14207 13.4291 8.28516 13.4951C8.3887 13.5424 8.5014 13.5665 8.61523 13.5664C8.83156 13.5664 8.99695 13.4788 9.04688 13.3379L9.30469 12.6641H10.8877L11.1445 13.3369C11.1945 13.4783 11.3606 13.5664 11.5771 13.5664C11.691 13.5665 11.8037 13.5423 11.9072 13.4951C12.0503 13.4292 12.1873 13.2476 12.0293 12.7568L10.7881 9.48926C10.7004 9.24011 10.4348 8.9832 10.0957 8.97559ZM15.75 8.97559C15.4637 8.97562 15.2305 9.20882 15.2305 9.49512V13.0469C15.2305 13.3332 15.4637 13.5664 15.75 13.5664C15.8877 13.5662 16.0198 13.5114 16.1172 13.4141C16.2145 13.3167 16.2694 13.1845 16.2695 13.0469V11.9141L16.4492 11.7344L17.667 13.3477C17.7152 13.4121 17.7786 13.4642 17.8506 13.5C17.9225 13.5357 18.0017 13.5541 18.082 13.5537C18.1948 13.554 18.3047 13.5175 18.3945 13.4492C18.4491 13.4083 18.4947 13.3566 18.5293 13.2979C18.5639 13.2391 18.5865 13.174 18.5957 13.1064C18.6054 13.039 18.602 12.9703 18.585 12.9043C18.5678 12.8383 18.5374 12.776 18.4961 12.7217L17.2178 11.0283L18.4014 9.8457C18.4827 9.76427 18.5232 9.65175 18.5156 9.5293C18.5081 9.40798 18.4542 9.29099 18.3633 9.2002C18.2658 9.1028 18.1355 9.04688 18.0059 9.04688C17.8948 9.0469 17.7923 9.0877 17.7178 9.16211L16.2695 10.6113V9.49512C16.2695 9.2088 16.0363 8.97559 15.75 8.97559ZM12.8975 8.97559C12.6054 8.97579 12.3682 9.20892 12.3682 9.49512V13.0215C12.3682 13.2838 12.5909 13.498 12.8652 13.498H14.5312C14.8057 13.498 15.0293 13.2839 15.0293 13.0215C15.0292 12.7592 14.8056 12.5459 14.5312 12.5459H13.4277V9.49512C13.4277 9.2088 13.1897 8.97559 12.8975 8.97559ZM10.6152 11.7441H9.57715L10.0957 10.2715L10.6152 11.7441Z" fill="currentColor"/>
</svg>
