<svg width="24" height="24" viewBox="0 0 24 24" fill="none" xmlns="http://www.w3.org/2000/svg">
<path fill-rule="evenodd" clip-rule="evenodd" d="M22 8.5C22 12.0899 19.0899 15 15.5 15C14.7504 15 14.0304 14.8731 13.3604 14.6396L11.5858 16.4142C11.2107 16.7893 10.702 17 10.1716 17H9.5C9.22386 17 9 17.2239 9 17.5V18.1716C9 18.702 8.78929 19.2107 8.41421 19.5858L8.17157 19.8284C7.42143 20.5786 6.40401 21 5.34315 21H4C3.44772 21 3 20.5523 3 20V18.6569C3 17.596 3.42143 16.5786 4.17157 15.8284L9.36037 10.6396C9.12689 9.96959 9 9.24962 9 8.5C9 4.91015 11.9101 2 15.5 2C19.0899 2 22 4.91015 22 8.5ZM17 8.5C17 9.32843 16.3284 10 15.5 10C14.6716 10 14 9.32843 14 8.5C14 7.67157 14.6716 7 15.5 7C16.3284 7 17 7.67157 17 8.5Z" fill="currentColor" style="fill:currentColor;fill-opacity:1;"/>
</svg>
