<svg width="24" height="24" viewBox="0 0 24 24" fill="none" xmlns="http://www.w3.org/2000/svg">
<path fill-rule="evenodd" clip-rule="evenodd" d="M7 3C4.79086 3 3 4.79086 3 7V18C3 20.2091 4.79086 22 7 22H17C19.2091 22 21 20.2091 21 18V7C21 4.79086 19.2091 3 17 3H7ZM6.5 5.06301C5.63739 5.28503 5 6.06808 5 7V18C5 19.1046 5.89543 20 7 20H8V14H7.5C6.94772 14 6.5 13.5523 6.5 13V5.06301ZM10 20H14V14H13.5C12.9477 14 12.5 13.5523 12.5 13V5H11.5V13C11.5 13.5523 11.0523 14 10.5 14H10V20ZM17.5 5.06301V13C17.5 13.5523 17.0523 14 16.5 14H16V20H17C18.1046 20 19 19.1046 19 18V7C19 6.06808 18.3626 5.28503 17.5 5.06301Z" fill="currentColor" style="fill:currentColor;fill-opacity:1;"/>
</svg>
