<svg width="24" height="24" viewBox="0 0 24 24" fill="none" xmlns="http://www.w3.org/2000/svg">
<path d="M8.7587 3C7.95373 2.99999 7.28937 2.99998 6.74817 3.04419C6.18608 3.09012 5.66937 3.18868 5.18404 3.43597C4.43139 3.81947 3.81947 4.43139 3.43597 5.18404C3.18868 5.66937 3.09012 6.18608 3.04419 6.74817C2.99998 7.28937 2.99999 7.95373 3 8.7587L3 10C3 10.5523 3.44772 11 4 11H10C10.5523 11 11 10.5523 11 10V4C11 3.44772 10.5523 3 10 3L8.7587 3Z" fill="currentColor" style="fill:currentColor;fill-opacity:1;"/>
<path d="M18.816 3.43597C18.3306 3.18868 17.8139 3.09012 17.2518 3.04419C16.7106 2.99998 16.0463 2.99999 15.2413 3L14 3C13.4477 3 13 3.44772 13 4V10C13 10.5523 13.4477 11 14 11H20C20.5523 11 21 10.5523 21 10V8.75868C21 7.95372 21 7.28936 20.9558 6.74817C20.9099 6.18608 20.8113 5.66937 20.564 5.18404C20.1805 4.43139 19.5686 3.81947 18.816 3.43597Z" fill="currentColor" style="fill:currentColor;fill-opacity:1;"/>
<path d="M4 13C3.44772 13 3 13.4477 3 14L3 15.2413C2.99999 16.0463 2.99998 16.7106 3.04419 17.2518C3.09012 17.8139 3.18868 18.3306 3.43597 18.816C3.81947 19.5686 4.43139 20.1805 5.18404 20.564C5.66937 20.8113 6.18608 20.9099 6.74817 20.9558C7.28936 21 7.95372 21 8.75868 21H10C10.5523 21 11 20.5523 11 20V14C11 13.4477 10.5523 13 10 13H4Z" fill="currentColor" style="fill:currentColor;fill-opacity:1;"/>
<path d="M14 13C13.4477 13 13 13.4477 13 14V20C13 20.5523 13.4477 21 14 21H15.2413C16.0463 21 16.7106 21 17.2518 20.9558C17.8139 20.9099 18.3306 20.8113 18.816 20.564C19.5686 20.1805 20.1805 19.5686 20.564 18.816C20.8113 18.3306 20.9099 17.8139 20.9558 17.2518C21 16.7106 21 16.0463 21 15.2413V14C21 13.4477 20.5523 13 20 13H14Z" fill="currentColor" style="fill:currentColor;fill-opacity:1;"/>
</svg>
