<svg width="24" height="24" viewBox="0 0 24 24" fill="none" xmlns="http://www.w3.org/2000/svg">
<path d="M12 2C7.58172 2 4 5.58172 4 10C4 12.9113 5.55568 15.4582 7.87631 16.8565C7.9173 16.8812 7.95853 16.9056 8 16.9296V17H16V16.9296C16.0415 16.9056 16.0827 16.8812 16.1237 16.8565C18.4443 15.4582 20 12.9113 20 10C20 5.58172 16.4183 2 12 2Z" fill="currentColor"/>
<path d="M12 23C9.79086 23 8 21.2091 8 19H16C16 21.2091 14.2091 23 12 23Z" fill="currentColor"/>
<path d="M2.2803 12.1114C2.77555 12.0045 3.28145 12.2881 3.44143 12.7803C3.61209 13.3056 3.3241 13.8694 2.79885 14.0401L1.84768 14.3497C1.32254 14.5201 0.758533 14.2322 0.587912 13.7071C0.417534 13.182 0.705375 12.618 1.23049 12.4473L2.18069 12.1387L2.2803 12.1114Z" fill="currentColor"/>
<path d="M0.587912 6.29109C0.747893 5.79872 1.2537 5.51512 1.74905 5.62214L1.84768 5.64851L2.79885 5.95808L2.89455 5.99421C3.35842 6.19868 3.60145 6.72535 3.44143 7.21785C3.28145 7.71011 2.77555 7.99367 2.2803 7.88679L2.18069 7.85945L1.23049 7.55085L1.13479 7.51472C0.670851 7.3104 0.42813 6.78357 0.587912 6.29109Z" fill="currentColor"/>
<path d="M22.252 5.62214C22.7474 5.51496 23.2531 5.79869 23.4131 6.29109C23.5837 6.81626 23.2966 7.38009 22.7715 7.55085L21.8203 7.86042L21.7217 7.88679C21.2262 7.99407 20.7206 7.71036 20.5606 7.21785C20.39 6.69267 20.677 6.12875 21.2022 5.95808L22.1533 5.64949L22.252 5.62214Z" fill="currentColor"/>
<path d="M23.4131 13.7074C23.5838 13.1822 23.2966 12.6184 22.7715 12.4476L21.8203 12.138C21.2951 11.9674 20.7312 12.2554 20.5606 12.7806C20.3901 13.3058 20.677 13.8697 21.2022 14.0404L22.1534 14.349C22.6786 14.5196 23.2424 14.2325 23.4131 13.7074Z" fill="currentColor"/>
</svg>
