<svg width="24" height="24" viewBox="0 0 24 24" fill="none" xmlns="http://www.w3.org/2000/svg">
<path d="M12 2C6.01672 2 1 5.78116 1 10.6215C1 14.94 4.97654 18.4476 10.1685 19.1221H10.1698C10.3065 19.1503 10.4637 19.1955 10.5565 19.2378C10.5755 19.2465 10.5734 19.2472 10.5834 19.2534C10.5816 19.3081 10.5991 19.5598 10.5726 19.7528C10.5661 19.7902 10.4535 20.4356 10.4303 20.5631V20.5644C10.3982 20.7421 10.2771 21.1001 10.5901 21.5567C10.7466 21.785 11.0707 21.9698 11.3743 21.995C11.6778 22.0203 11.9564 21.9476 12.2672 21.8207C12.9788 21.5352 14.3997 20.7219 16.0404 19.6345C17.6796 18.548 19.4499 17.2299 20.6085 15.9643C22.1843 14.3217 23 12.5501 23 10.6215C23 5.78176 17.9833 2 12 2ZM12 3.33179C17.3893 3.33179 21.625 6.68876 21.625 10.6215C21.625 12.2015 21.0104 13.5919 19.5988 15.0617L19.592 15.0682L19.5867 15.0747C18.5816 16.1746 16.8565 17.4789 15.2643 18.5342C13.7133 19.5621 12.2654 20.3518 11.8281 20.5384C11.873 20.2827 11.9315 19.9505 11.9315 19.9505L11.9342 19.9388L11.9355 19.9271C11.9738 19.6485 12.0767 19.2259 11.8577 18.7033V18.702V18.7007C11.6944 18.3158 11.3906 18.147 11.142 18.0335C10.8933 17.92 10.6543 17.8612 10.4558 17.8202L10.429 17.8137L10.4008 17.8111C5.70899 17.221 2.375 14.1531 2.375 10.6215C2.375 6.68803 6.61065 3.33179 12 3.33179ZM11.3071 7.99174C10.9608 7.99797 10.625 8.25399 10.625 8.65894V12.6543C10.625 13.0219 10.933 13.3202 11.3125 13.3202C11.692 13.3202 12 13.0219 12 12.6543V10.7373L13.5026 13.0406C13.8917 13.568 14.75 13.3022 14.75 12.6543V8.65894C14.75 8.29136 14.442 7.99304 14.0625 7.99304C13.683 7.99304 13.375 8.29136 13.375 8.65894V10.6566L11.8724 8.27267C11.7265 8.0749 11.5149 7.98801 11.3071 7.99174ZM5.125 7.99304C4.7455 7.99304 4.4375 8.29136 4.4375 8.65894V12.6543C4.4375 13.0219 4.7455 13.3202 5.125 13.3202H7.1875C7.567 13.3202 7.875 13.0219 7.875 12.6543C7.875 12.2867 7.567 11.9884 7.1875 11.9884H5.8125V8.65894C5.8125 8.29136 5.5045 7.99304 5.125 7.99304ZM9.25 7.99304C8.8705 7.99304 8.5625 8.29136 8.5625 8.65894V12.6543C8.5625 13.0219 8.8705 13.3202 9.25 13.3202C9.6295 13.3202 9.9375 13.0219 9.9375 12.6543V8.65894C9.9375 8.29136 9.6295 7.99304 9.25 7.99304ZM16.125 7.99304C15.7455 7.99304 15.4375 8.29136 15.4375 8.65894V12.6543C15.4375 13.0219 15.7455 13.3202 16.125 13.3202H18.1875C18.567 13.3202 18.875 13.0219 18.875 12.6543C18.875 12.2867 18.567 11.9884 18.1875 11.9884H16.8125V11.3225H18.1875C18.5677 11.3225 18.875 11.0242 18.875 10.6566C18.875 10.289 18.5677 9.99072 18.1875 9.99072H16.8125V9.32483H18.1875C18.567 9.32483 18.875 9.02651 18.875 8.65894C18.875 8.29136 18.567 7.99304 18.1875 7.99304H16.125Z" fill="currentColor"/>
</svg>
