<svg width="24" height="24" viewBox="0 0 24 24" fill="none" xmlns="http://www.w3.org/2000/svg">
<path d="M5 4C5 3.44772 4.55228 3 4 3C3.44772 3 3 3.44772 3 4V17C3 19.2091 4.79086 21 7 21H21C21.5523 21 22 20.5523 22 20C22 19.4477 21.5523 19 21 19H7C5.89543 19 5 18.1046 5 17V4Z" fill="currentColor" style="fill:currentColor;fill-opacity:1;"/>
<path d="M15 5C15 4.44772 14.5523 4 14 4C13.4477 4 13 4.44772 13 5V16C13 16.5523 13.4477 17 14 17C14.5523 17 15 16.5523 15 16V5Z" fill="currentColor" style="fill:currentColor;fill-opacity:1;"/>
<path d="M10 11C10 10.4477 9.55228 10 9 10C8.44772 10 8 10.4477 8 11V16C8 16.5523 8.44772 17 9 17C9.55228 17 10 16.5523 10 16V11Z" fill="currentColor" style="fill:currentColor;fill-opacity:1;"/>
<path d="M20 13C20 12.4477 19.5523 12 19 12C18.4477 12 18 12.4477 18 13V16C18 16.5523 18.4477 17 19 17C19.5523 17 20 16.5523 20 16V13Z" fill="currentColor" style="fill:currentColor;fill-opacity:1;"/>
</svg>
