<svg width="24" height="24" viewBox="0 0 24 24" fill="none" xmlns="http://www.w3.org/2000/svg">
<path fill-rule="evenodd" clip-rule="evenodd" d="M3 5C3 4.44772 3.44772 4 4 4H20C20.5523 4 21 4.44772 21 5C21 5.55228 20.5523 6 20 6H4C3.44772 6 3 5.55228 3 5ZM3 12C3 11.4477 3.44772 11 4 11H16.75C19.2353 11 21.25 13.0147 21.25 15.5C21.25 17.9853 19.2353 20 16.75 20H14.4142L15.2071 20.7929C15.5976 21.1834 15.5976 21.8166 15.2071 22.2071C14.8166 22.5976 14.1834 22.5976 13.7929 22.2071L11.2929 19.7071C10.9024 19.3166 10.9024 18.6834 11.2929 18.2929L13.7929 15.7929C14.1834 15.4024 14.8166 15.4024 15.2071 15.7929C15.5976 16.1834 15.5976 16.8166 15.2071 17.2071L14.4142 18H16.75C18.1307 18 19.25 16.8807 19.25 15.5C19.25 14.1193 18.1307 13 16.75 13H4C3.44772 13 3 12.5523 3 12ZM3 19C3 18.4477 3.44772 18 4 18H7C7.55228 18 8 18.4477 8 19C8 19.5523 7.55228 20 7 20H4C3.44772 20 3 19.5523 3 19Z" fill="currentColor" style="fill:currentColor;fill-opacity:1;"/>
</svg>
