<svg width="24" height="24" viewBox="0 0 24 24" fill="none" xmlns="http://www.w3.org/2000/svg">
<path d="M16 10.0039C17.1046 10.0139 18 10.9093 18 12.0039V13C17.9998 14.9328 16.4329 16.5 14.5 16.5H10.25C9.97386 16.5 9.75 16.7239 9.75 17C9.7498 17.2412 9.52631 17.4232 9.30859 17.3193C8.68275 17.0206 8.25013 16.3821 8.25 15.6426C8.25015 15.0116 8.76162 14.5002 9.39258 14.5H14.5C15.3283 14.5 15.9998 13.8283 16 13V11.0039C16 10.7199 15.8816 10.4633 15.6914 10.2812C15.658 10.2492 15.6367 10.2055 15.6367 10.1592C15.6369 10.0735 15.7063 10.0041 15.792 10.0039H16Z" fill="currentColor"/>
<path fill-rule="evenodd" clip-rule="evenodd" d="M14 3.5C16.2091 3.5 18 5.29086 18 7.5V7.81445C20.6111 8.65809 22.5 11.1081 22.5 14C22.5 17.5899 19.5899 20.5 16 20.5H11.5C8.79572 20.5 6.4774 18.8484 5.49805 16.499C3.28981 16.498 1.5 14.7085 1.5 12.5V7.5C1.5 5.29086 3.29086 3.5 5.5 3.5H14ZM11.5 9.5C9.01472 9.5 7 11.5147 7 14C7 16.4853 9.01472 18.5 11.5 18.5H16C18.4853 18.5 20.5 16.4853 20.5 14C20.5 11.5147 18.4853 9.5 16 9.5H11.5ZM5.5 5.5C4.39543 5.5 3.5 6.39543 3.5 7.5V12.5C3.5 13.4373 4.14539 14.2217 5.01562 14.4385C5.00597 14.2935 5 14.1474 5 14C5 10.4101 7.91015 7.5 11.5 7.5H16C16 6.39543 15.1046 5.5 14 5.5H5.5Z" fill="currentColor"/>
</svg>
