<svg width="25" height="24" viewBox="0 0 25 24" fill="none" xmlns="http://www.w3.org/2000/svg">
<path d="M4.75 5C4.19772 5 3.75 5.44772 3.75 6C3.75 6.55228 4.19772 7 4.75 7H20.75C21.3023 7 21.75 6.55228 21.75 6C21.75 5.44772 21.3023 5 20.75 5H4.75Z" fill="currentColor" style="fill:currentColor;fill-opacity:1;"/>
<path d="M18.6691 9.60608C18.5116 9.2384 18.15 9 17.75 9C17.35 9 16.9884 9.2384 16.8309 9.60608L15.4884 12.7384L12.3561 14.0809C11.9884 14.2384 11.75 14.6 11.75 15C11.75 15.4 11.9884 15.7616 12.3561 15.9191L15.4884 17.2616L16.8309 20.3939C16.9884 20.7616 17.35 21 17.75 21C18.15 21 18.5116 20.7616 18.6691 20.3939L20.0116 17.2616L23.1439 15.9191C23.5116 15.7616 23.75 15.4 23.75 15C23.75 14.6 23.5116 14.2384 23.1439 14.0809L20.0116 12.7384L18.6691 9.60608Z" fill="currentColor" style="fill:currentColor;fill-opacity:1;"/>
<path d="M4.75 11C4.19772 11 3.75 11.4477 3.75 12C3.75 12.5523 4.19772 13 4.75 13H9.75C10.3023 13 10.75 12.5523 10.75 12C10.75 11.4477 10.3023 11 9.75 11H4.75Z" fill="currentColor" style="fill:currentColor;fill-opacity:1;"/>
<path d="M4.75 17C4.19772 17 3.75 17.4477 3.75 18C3.75 18.5523 4.19772 19 4.75 19H7.75C8.30228 19 8.75 18.5523 8.75 18C8.75 17.4477 8.30228 17 7.75 17H4.75Z" fill="currentColor" style="fill:currentColor;fill-opacity:1;"/>
</svg>
