<svg width="24" height="24" viewBox="0 0 24 24" fill="none" xmlns="http://www.w3.org/2000/svg">
<path d="M8.5 8.00001C8.5 8.13808 8.38808 8.25001 8.25 8.25001M8.5 8.00001C8.5 7.86194 8.38808 7.75001 8.25 7.75001M8.5 8.00001H8M8.25 8.25001C8.11193 8.25001 8 8.13808 8 8.00001M8.25 8.25001V7.75001M8 8.00001C8 7.86194 8.11193 7.75001 8.25 7.75001M8.46655 7.87501C8.53558 7.99458 8.49462 8.14748 8.37504 8.21652M8.46655 7.87501C8.39751 7.75544 8.24462 7.71447 8.12504 7.7835M8.46655 7.87501L8.03354 8.12501M8.37504 8.21652C8.25547 8.28555 8.10257 8.24458 8.03354 8.12501M8.37504 8.21652L8.12504 7.7835M8.03354 8.12501C7.9645 8.00544 8.00547 7.85254 8.12504 7.7835M8.37508 7.78352C8.49465 7.85256 8.53562 8.00545 8.46659 8.12503M8.37508 7.78352C8.25551 7.71448 8.10261 7.75545 8.03357 7.87503M8.37508 7.78352L8.12508 8.21653M8.46659 8.12503C8.39755 8.2446 8.24465 8.28557 8.12508 8.21653M8.46659 8.12503L8.03357 7.87503M8.12508 8.21653C8.00551 8.1475 7.96454 7.9946 8.03357 7.87503M8.5 12C8.5 12.1381 8.38808 12.25 8.25 12.25M8.5 12C8.5 11.8619 8.38808 11.75 8.25 11.75M8.5 12H8M8.25 12.25C8.11193 12.25 8 12.1381 8 12M8.25 12.25V11.75M8 12C8 11.8619 8.11193 11.75 8.25 11.75M8.46655 11.875C8.53558 11.9946 8.49462 12.1475 8.37504 12.2165M8.46655 11.875C8.39751 11.7554 8.24462 11.7145 8.12504 11.7835M8.46655 11.875L8.03354 12.125M8.37504 12.2165C8.25547 12.2856 8.10257 12.2446 8.03354 12.125M8.37504 12.2165L8.12504 11.7835M8.03354 12.125C7.9645 12.0054 8.00547 11.8525 8.12504 11.7835M8.37508 11.7835C8.49465 11.8526 8.53562 12.0055 8.46659 12.125M8.37508 11.7835C8.25551 11.7145 8.10261 11.7555 8.03357 11.875M8.37508 11.7835L8.12508 12.2165M8.46659 12.125C8.39755 12.2446 8.24465 12.2856 8.12508 12.2165M8.46659 12.125L8.03357 11.875M8.12508 12.2165C8.00551 12.1475 7.96454 11.9946 8.03357 11.875M8.5 16C8.5 16.1381 8.38808 16.25 8.25 16.25M8.5 16C8.5 15.8619 8.38808 15.75 8.25 15.75M8.5 16H8M8.25 16.25C8.11193 16.25 8 16.1381 8 16M8.25 16.25V15.75M8 16C8 15.8619 8.11193 15.75 8.25 15.75M8.46655 15.875C8.53558 15.9946 8.49462 16.1475 8.37504 16.2165M8.46655 15.875C8.39751 15.7554 8.24462 15.7145 8.12504 15.7835M8.46655 15.875L8.03354 16.125M8.37504 16.2165C8.25547 16.2856 8.10257 16.2446 8.03354 16.125M8.37504 16.2165L8.12504 15.7835M8.03354 16.125C7.9645 16.0054 8.00547 15.8525 8.12504 15.7835M8.37508 15.7835C8.49465 15.8526 8.53562 16.0055 8.46659 16.125M8.37508 15.7835C8.25551 15.7145 8.10261 15.7555 8.03357 15.875M8.37508 15.7835L8.12508 16.2165M8.46659 16.125C8.39755 16.2446 8.24465 16.2856 8.12508 16.2165M8.46659 16.125L8.03357 15.875M8.12508 16.2165C8.00551 16.1475 7.96454 15.9946 8.03357 15.875M7 20H17C18.6569 20 20 18.6569 20 17V7C20 5.34315 18.6569 4 17 4H7C5.34315 4 4 5.34315 4 7V17C4 18.6569 5.34315 20 7 20Z" stroke="currentColor" stroke-width="2" stroke-linejoin="round"/>
</svg>
