<svg width="24" height="24" viewBox="0 0 24 24" fill="none" xmlns="http://www.w3.org/2000/svg">
<path d="M9.17157 7.75725C9.5621 8.14777 9.5621 8.78094 9.17157 9.17146C8.44662 9.89641 8 10.895 8 11.9999C8 13.1047 8.44662 14.1034 9.17157 14.8283C9.5621 15.2188 9.5621 15.852 9.17157 16.2425C8.78105 16.6331 8.14788 16.6331 7.75736 16.2425C6.67267 15.1578 6 13.6565 6 11.9999C6 10.3433 6.67267 8.84194 7.75736 7.75725C8.14788 7.36672 8.78105 7.36672 9.17157 7.75725Z" fill="currentColor" style="fill:currentColor;fill-opacity:1;"/>
<path d="M14.8284 7.75725C15.219 7.36672 15.8521 7.36672 16.2426 7.75725C17.3273 8.84194 18 10.3433 18 11.9999C18 13.6565 17.3273 15.1578 16.2426 16.2425C15.8521 16.6331 15.219 16.6331 14.8284 16.2425C14.4379 15.852 14.4379 15.2188 14.8284 14.8283C15.5534 14.1034 16 13.1047 16 11.9999C16 10.895 15.5534 9.89641 14.8284 9.17146C14.4379 8.78094 14.4379 8.14777 14.8284 7.75725Z" fill="currentColor" style="fill:currentColor;fill-opacity:1;"/>
<path d="M9.87877 14.1215C9.48825 13.731 9.48825 13.0978 9.87877 12.7073L10.5857 12.0003L9.87846 11.293C9.48794 10.9025 9.48794 10.2694 9.87846 9.87883C10.269 9.48831 10.9022 9.48831 11.2927 9.87883L12 10.5861L12.7072 9.87887C13.0977 9.48834 13.7309 9.48834 14.1214 9.87887C14.5119 10.2694 14.5119 10.9026 14.1214 11.2931L13.4142 12.0003L14.1211 12.7073C14.5116 13.0978 14.5116 13.7309 14.1211 14.1215C13.7306 14.512 13.0974 14.512 12.7069 14.1215L12 13.4145L11.293 14.1215C10.9025 14.512 10.2693 14.512 9.87877 14.1215Z" fill="currentColor" style="fill:currentColor;fill-opacity:1;"/>
</svg>
