<svg width="561" height="92" viewBox="0 0 561 92" fill="none" xmlns="http://www.w3.org/2000/svg">
<path d="M7.87158 18.8462V24.2222H0V35.1655H7.87158V71.4507H20.7349V35.1655H31.3897V24.2222H20.7349V19.0386C20.7349 13.7593 24.4785 12.5112 27.3584 12.5112C29.4702 12.5112 30.7178 12.7993 31.3897 12.9907V2.23975C30.334 1.75928 27.7422 1.27979 25.0542 1.27979C14.5913 1.27979 7.87158 8.19091 7.87158 18.8462Z" fill="currentColor"/>
<path d="M43.1978 0.799316C38.8784 0.799316 35.3267 4.35108 35.3267 8.76709C35.3267 12.9907 38.8784 16.5425 43.1978 16.5425C47.6138 16.5425 51.0693 12.9907 51.0693 8.76709C51.0693 4.35107 47.6138 0.799316 43.1978 0.799316Z" fill="currentColor"/>
<path d="M49.6294 24.2222H36.8623V71.4507H49.6294V24.2222Z" fill="currentColor"/>
<path d="M85.9155 22.9741C80.8276 22.9741 75.1645 25.1821 72.2847 30.0776V24.2222H59.9014V71.4507H72.6685V44.2847C72.6685 38.813 75.9321 34.4937 81.4995 34.4937C87.6431 34.4937 90.2349 38.6206 90.2349 43.9009V71.4507H103.002V41.6929C103.002 31.3257 97.6265 22.9741 85.9155 22.9741Z" fill="currentColor"/>
<path d="M144.667 29.7896C143.036 26.6216 138.716 23.3579 131.229 23.3579C118.27 23.3579 109.247 33.9175 109.247 46.397C109.247 59.6431 118.654 69.3384 131.229 69.3384C138.044 69.3384 142.459 66.3628 144.379 63.2915V66.7466C144.379 75.8667 139.868 79.8979 131.804 79.8979C125.757 79.8979 121.629 76.1548 120.765 70.9712L109.247 74.0425C110.59 83.0659 119.23 91.1294 132.189 91.1294C149.948 91.1294 156.955 79.3218 156.955 66.3628V24.2222H144.667L144.667 29.7896ZM133.436 58.396C126.813 58.396 122.109 53.7876 122.109 46.397C122.109 39.1011 127.101 34.4937 133.436 34.4937C139.581 34.4937 144.572 39.1011 144.572 46.397C144.572 53.6919 139.964 58.396 133.436 58.396Z" fill="currentColor"/>
<path d="M186.235 22.7817C174.14 22.7817 163.004 32.5737 163.004 47.644C163.004 63.5796 174.427 72.8901 187.387 72.8901C199.001 72.8901 206.49 66.0747 208.889 57.9155L198.234 54.7475C196.698 58.9712 193.434 61.9478 187.483 61.9478C181.147 61.9478 175.868 57.436 175.58 51.1958H209.369C209.369 51.0044 209.561 49.0845 209.561 47.2603C209.561 32.0933 200.826 22.7817 186.235 22.7817ZM175.868 42.4604C176.156 38.1411 179.803 33.1499 186.427 33.1499C193.722 33.1499 196.794 37.7573 196.986 42.4604H175.868Z" fill="currentColor"/>
<path d="M228.667 31.23V24.2222H216.284V71.4507H229.051V49.8521C229.051 39.6773 234.714 36.5093 241.242 36.5093C242.394 36.5093 243.642 36.605 245.082 36.8931V24.0298C244.122 23.9341 243.162 23.8384 242.106 23.8384C238.074 23.8384 231.546 24.9898 228.667 31.23Z" fill="currentColor"/>
<path d="M268.313 10.1108H256.793V16.7349C256.793 20.9585 254.49 24.2222 249.499 24.2222H247.098V35.5493H255.642V57.5317C255.642 66.6509 261.401 72.1225 270.617 72.1225C274.36 72.1225 276.665 71.4507 277.816 70.9712V60.4116C277.145 60.603 275.417 60.7954 273.881 60.7954C270.233 60.7954 268.313 59.4516 268.313 55.3237V35.5493H277.816V24.2222H268.313V10.1108Z" fill="currentColor"/>
<path d="M298.071 24.2222H285.304V71.4507H298.071V24.2222Z" fill="currentColor"/>
<path d="M291.64 0.799316C287.319 0.799316 283.768 4.35108 283.768 8.76709C283.768 12.9907 287.319 16.5425 291.64 16.5425C296.055 16.5425 299.511 12.9907 299.511 8.76709C299.511 4.35107 296.055 0.799316 291.64 0.799316Z" fill="currentColor"/>
<path d="M335.221 23.1665C328.117 23.1665 322.838 26.3335 320.726 29.9819V24.2222H308.343V89.689H321.11V66.8433C323.414 70.0112 328.214 72.603 334.741 72.603C348.084 72.603 357.012 62.0435 357.012 47.7407C357.012 33.7251 349.044 23.1665 335.221 23.1665ZM332.725 61.1792C326.197 61.1792 320.918 56.188 320.918 47.8364C320.918 39.4849 326.197 34.5894 332.725 34.5894C339.253 34.5894 344.437 39.4849 344.437 47.8364C344.437 56.2837 339.253 61.1792 332.725 61.1792Z" fill="currentColor"/>
<path d="M370.071 54.6519C365.271 54.6519 361.336 58.5874 361.336 63.3872C361.336 68.187 365.271 72.1226 370.071 72.1226C374.967 72.1226 378.902 68.187 378.902 63.3872C378.902 58.5874 374.967 54.6519 370.071 54.6519Z" fill="currentColor"/>
<path d="M408.087 61.1792C401.56 61.1792 395.992 56.3794 395.992 47.8364C395.992 39.2935 401.464 34.5894 407.991 34.5894C414.326 34.5894 417.302 38.6206 418.454 42.5571L429.877 38.7173C427.861 30.7495 420.566 22.7817 407.703 22.7817C393.976 22.7817 383.225 33.2456 383.225 47.8364C383.225 62.3315 394.168 72.8901 408.087 72.8901C420.662 72.8901 428.054 64.8276 430.165 56.9556L418.935 53.2124C417.878 56.8599 414.614 61.1792 408.087 61.1792Z" fill="currentColor"/>
<path d="M456.95 22.7817C442.839 22.7817 432.184 33.2456 432.184 47.8364C432.184 62.3315 442.839 72.8901 456.95 72.8901C471.061 72.8901 481.716 62.3315 481.716 47.8364C481.716 33.2456 471.061 22.7817 456.95 22.7817ZM456.95 61.2759C450.71 61.2759 444.951 56.6675 444.951 47.8364C444.951 38.9087 450.71 34.397 456.95 34.397C463.189 34.397 468.949 38.9087 468.949 47.8364C468.949 56.7642 463.189 61.2759 456.95 61.2759Z" fill="currentColor"/>
<path d="M543.443 22.8784C537.204 22.8784 532.212 24.9898 528.469 30.7495C526.068 25.6616 520.885 22.8784 514.454 22.8784C509.271 22.8784 503.223 25.3735 500.631 29.9819V24.2222H488.439V71.4507H501.207V43.8052C501.207 38.6206 504.471 34.4937 510.038 34.4937C515.798 34.4937 518.39 38.3335 518.39 43.4204V71.4507H531.061V43.8052C531.061 38.7173 534.324 34.4937 539.796 34.4937C545.651 34.4937 548.147 38.3335 548.147 43.4204V71.4507H560.53V40.8286C560.53 28.1577 552.179 22.8784 543.443 22.8784Z" fill="currentColor"/>
</svg>
