<svg width="24" height="24" viewBox="0 0 24 24" fill="none" xmlns="http://www.w3.org/2000/svg">
<path fill-rule="evenodd" clip-rule="evenodd" d="M9.04569 3.81734C9.71439 2.49784 10.8787 1.15838 12.6342 1.43466C13.3133 1.54153 13.9293 1.81092 14.4081 2.28745C14.8856 2.76277 15.1473 3.36525 15.2573 4.00127C15.4686 5.22302 15.1477 6.7142 14.5472 8.28097C13.6863 10.5269 12.1261 13.2407 10.0296 16.163C10.2468 17.2212 10.551 18.0536 10.9087 18.5845C12.974 21.6499 16.2055 20.3464 16.6265 18.328C16.7506 17.7333 17.3332 17.3517 17.928 17.4758C18.5227 17.5998 18.9042 18.1825 18.7802 18.7772C17.908 22.9587 12.0874 24.2713 9.08419 19.8138C8.80421 19.3982 8.5675 18.9121 8.369 18.3771C7.9744 18.8818 7.56586 19.3906 7.14414 19.9022C6.75773 20.371 6.06445 20.4378 5.59567 20.0513C5.12689 19.6649 5.06013 18.9717 5.44654 18.5029C6.25565 17.5213 7.00904 16.5575 7.70276 15.6203C7.67214 15.4099 7.64488 15.1978 7.62077 14.9849C7.40733 13.0995 7.42565 10.9924 7.65818 9.03409C7.88881 7.09179 8.34017 5.20948 9.04569 3.81734ZM9.67779 12.7792C10.9614 10.7972 11.9153 9.00066 12.4929 7.49359C13.0507 6.03842 13.1979 5.00343 13.0895 4.37609C13.0396 4.08756 12.9445 3.93476 12.8561 3.84672C12.7688 3.7599 12.6097 3.65787 12.2922 3.60791C12.0545 3.57051 11.5858 3.67189 11.0081 4.81185C10.4672 5.87918 10.0588 7.47497 9.84283 9.29349C9.70758 10.4326 9.6518 11.6253 9.67779 12.7792Z" fill="currentColor" style="fill:currentColor;fill-opacity:1;"/>
</svg>
