<svg width="25" height="24" viewBox="0 0 25 24" fill="none" xmlns="http://www.w3.org/2000/svg">
<path fill-rule="evenodd" clip-rule="evenodd" d="M17.2911 3.5429C18.372 2.46202 20.1245 2.46202 21.2053 3.5429C22.2862 4.62378 22.2862 6.37623 21.2053 7.45711L8.20534 20.4571C7.12446 21.538 5.37201 21.538 4.29113 20.4571C3.21025 19.3762 3.21025 17.6238 4.29113 16.5429L17.2911 3.5429ZM19.7911 4.95711C19.4913 4.65728 19.0052 4.65728 18.7053 4.95711L16.9124 6.75001L17.9982 7.83579L19.7911 6.0429C20.091 5.74307 20.091 5.25694 19.7911 4.95711Z" fill="currentColor" style="fill:currentColor;fill-opacity:1;"/>
<path d="M10.6001 2.07454C10.6968 2.02616 10.7753 1.9477 10.8237 1.85094L11.3019 0.894435C11.4862 0.525911 12.0121 0.525911 12.1964 0.894435L12.6746 1.85094C12.723 1.9477 12.8015 2.02616 12.8982 2.07454L13.8547 2.55279C14.2233 2.73706 14.2233 3.26296 13.8547 3.44722L12.8982 3.92547C12.8015 3.97385 12.723 4.05232 12.6746 4.14908L12.1964 5.10558C12.0121 5.47411 11.4862 5.47411 11.3019 5.10558L10.8237 4.14908C10.7753 4.05232 10.6968 3.97385 10.6001 3.92547L9.64358 3.44722C9.27506 3.26296 9.27506 2.73706 9.64358 2.55279L10.6001 2.07454Z" fill="currentColor" style="fill:currentColor;fill-opacity:1;"/>
<path d="M19.6001 13.0745C19.6968 13.0262 19.7753 12.9477 19.8237 12.8509L20.3019 11.8944C20.4862 11.5259 21.0121 11.5259 21.1964 11.8944L21.6746 12.8509C21.723 12.9477 21.8015 13.0262 21.8982 13.0745L22.8547 13.5528C23.2233 13.7371 23.2233 14.263 22.8547 14.4472L21.8982 14.9255C21.8015 14.9739 21.723 15.0523 21.6746 15.1491L21.1964 16.1056C21.0121 16.4741 20.4862 16.4741 20.3019 16.1056L19.8237 15.1491C19.7753 15.0523 19.6968 14.9739 19.6001 14.9255L18.6436 14.4472C18.2751 14.263 18.2751 13.7371 18.6436 13.5528L19.6001 13.0745Z" fill="currentColor" style="fill:currentColor;fill-opacity:1;"/>
<path d="M5.60008 7.07454C5.69685 7.02616 5.77531 6.9477 5.82369 6.85094L6.30194 5.89443C6.4862 5.52591 7.01211 5.52591 7.19637 5.89444L7.67462 6.85094C7.723 6.9477 7.80146 7.02616 7.89822 7.07454L8.85473 7.55279C9.22325 7.73706 9.22325 8.26296 8.85473 8.44722L7.89822 8.92547C7.80146 8.97385 7.723 9.05232 7.67462 9.14908L7.19637 10.1056C7.01211 10.4741 6.4862 10.4741 6.30194 10.1056L5.82369 9.14908C5.77531 9.05232 5.69685 8.97385 5.60008 8.92547L4.64358 8.44722C4.27506 8.26296 4.27506 7.73706 4.64358 7.55279L5.60008 7.07454Z" fill="currentColor" style="fill:currentColor;fill-opacity:1;"/>
</svg>
