<svg width="24" height="24" viewBox="0 0 24 24" fill="none" xmlns="http://www.w3.org/2000/svg">
<path d="M19 3C20.1046 3 21 3.89543 21 5C21 6.10457 20.1046 7 19 7C17.8954 7 17 6.10457 17 5C17 3.89543 17.8954 3 19 3Z" stroke="currentColor" stroke-width="1.995" stroke-linecap="square" stroke-linejoin="round"/>
<path d="M5.75736 18.2426C3.41421 15.8995 3.41421 12.1005 5.75736 9.75734L9.46967 6.04503C10.1531 5.36162 11.2611 5.36162 11.9445 6.04503C12.628 6.72845 12.628 7.83649 11.9445 8.51991L8.23223 12.2322C7.25592 13.2085 7.25592 14.7914 8.23223 15.7678C9.20854 16.7441 10.7915 16.7441 11.7678 15.7678L15.4801 12.0554C16.1635 11.372 17.2715 11.372 17.955 12.0554C18.6384 12.7389 18.6384 13.8469 17.955 14.5303L14.2426 18.2426C13.0711 19.4142 11.5355 20 10 20C8.46447 20 6.92893 19.4142 5.75736 18.2426Z" stroke="currentColor" stroke-width="1.995" stroke-linecap="square" stroke-linejoin="round"/>
<path d="M13.8887 13.6465L16.3635 16.1214" stroke="currentColor" stroke-width="1.995" stroke-linecap="square" stroke-linejoin="round"/>
<path d="M7.87891 7.63599L10.3538 10.1109" stroke="currentColor" stroke-width="1.995" stroke-linecap="square" stroke-linejoin="round"/>
</svg>
