<svg width="24" height="24" viewBox="0 0 24 24" fill="none" xmlns="http://www.w3.org/2000/svg">
<path fill-rule="evenodd" clip-rule="evenodd" d="M22 12C22 17.5228 17.5228 22 12 22C6.47715 22 2 17.5228 2 12C2 6.47715 6.47715 2 12 2C17.5228 2 22 6.47715 22 12ZM6.50305 17.8124C6.88703 17.3213 7.19433 16.8549 7.44863 16.3611C7.84911 15.5834 8.59563 15 9.4704 15H14.5296C15.4044 15 16.1509 15.5834 16.5514 16.3611C16.8057 16.8549 17.113 17.3213 17.4969 17.8124C16.0636 19.1684 14.1289 20 12 20C9.87107 20 7.93641 19.1684 6.50305 17.8124ZM9 13V11.0616C9 10.1438 9.62459 9.34385 10.5149 9.12127L12.5149 8.62127C13.7772 8.30569 15 9.26041 15 10.5616V13H9Z" fill="currentColor" style="fill:currentColor;fill-opacity:1;"/>
</svg>
