<svg width="24" height="24" viewBox="0 0 24 24" fill="none" xmlns="http://www.w3.org/2000/svg">
<path fill-rule="evenodd" clip-rule="evenodd" d="M4 9C4 4.58172 7.58172 1 12 1C16.4183 1 20 4.58172 20 9C20 11.5264 18.8289 13.7793 17 15.2454V20.6308C17 22.1176 15.4354 23.0846 14.1056 22.4197L12 21.3669L9.89443 22.4197C8.56462 23.0846 7 22.1176 7 20.6308V15.2454C5.17108 13.7793 4 11.5264 4 9ZM9 16.4185V20.6308L11.1056 19.578C11.6686 19.2965 12.3314 19.2965 12.8944 19.578L15 20.6308V16.4185C14.0736 16.7935 13.0609 17 12 17C10.9391 17 9.92643 16.7935 9 16.4185Z" fill="currentColor" style="fill:currentColor;fill-opacity:1;"/>
</svg>
