<svg width="24" height="24" viewBox="0 0 24 24" fill="none" xmlns="http://www.w3.org/2000/svg">
<path d="M17.4789 3.63124C15.3039 1.45625 11.7775 1.45625 9.60252 3.63124L7.3206 5.91316L10.2945 8.88704C11.7349 7.75024 13.5538 7.0718 15.5311 7.0718C16.8073 7.0718 18.0174 7.35438 19.1024 7.86039C19.1817 6.33986 18.6407 4.79313 17.4789 3.63124Z" fill="currentColor" style="fill:currentColor;fill-opacity:1;"/>
<path d="M8.88704 10.2945L5.91316 7.3206L3.63124 9.60252C1.45625 11.7775 1.45625 15.3039 3.63124 17.4789C4.79313 18.6407 6.33986 19.1817 7.86039 19.1024C7.35438 18.0174 7.0718 16.8073 7.0718 15.5311C7.0718 13.5538 7.75024 11.7349 8.88704 10.2945Z" fill="currentColor" style="fill:currentColor;fill-opacity:1;"/>
<path d="M13.3013 9.4568C10.8273 10.3653 9.06223 12.7421 9.06223 15.5311C9.06223 19.1038 11.9584 22 15.5311 22C15.6241 22 15.7167 21.998 15.8088 21.9941L13.3013 9.4568Z" fill="currentColor" style="fill:currentColor;fill-opacity:1;"/>
<path d="M17.7609 21.6054C20.2349 20.697 22 18.3202 22 15.5311C22 11.9584 19.1038 9.06223 15.5311 9.06223C15.4381 9.06223 15.3455 9.06419 15.2534 9.06808L17.7609 21.6054Z" fill="currentColor" style="fill:currentColor;fill-opacity:1;"/>
</svg>
