<svg width="24" height="24" viewBox="0 0 24 24" fill="none" xmlns="http://www.w3.org/2000/svg">
<path d="M9 13C10.6569 13 12 14.3431 12 16V19C12 20.6569 10.6569 22 9 22H5C3.34315 22 2 20.6569 2 19V16C2 14.3431 3.34315 13 5 13H9Z" fill="currentColor" style="fill:currentColor;fill-opacity:1;"/>
<path d="M20 7C20 5.89543 19.1046 5 18 5H7C5.89543 5 5 5.89543 5 7V10C5 10.5523 4.55228 11 4 11C3.44772 11 3 10.5523 3 10V7C3 4.79086 4.79086 3 7 3H18C20.2091 3 22 4.79086 22 7V12C22 14.2091 20.2091 16 18 16H15C14.4477 16 14 15.5523 14 15C14 14.4477 14.4477 14 15 14H18C19.1046 14 20 13.1046 20 12V7Z" fill="currentColor" style="fill:currentColor;fill-opacity:1;"/>
<path d="M14 12C13.4477 12 13 11.5523 13 11V8C13 7.44772 13.4477 7 14 7C14.5523 7 15 7.44772 15 8V8.58579L16.2929 7.29289C16.6834 6.90237 17.3166 6.90237 17.7071 7.29289C18.0976 7.68342 18.0976 8.31658 17.7071 8.70711L16.4142 10H17C17.5523 10 18 10.4477 18 11C18 11.5523 17.5523 12 17 12H14Z" fill="currentColor" style="fill:currentColor;fill-opacity:1;"/>
</svg>
