<svg width="24" height="24" viewBox="0 0 24 24" fill="none" xmlns="http://www.w3.org/2000/svg">
<path fill-rule="evenodd" clip-rule="evenodd" d="M3 7C3 4.79086 4.79086 3 7 3H17C19.2091 3 21 4.79086 21 7V13.2574C21 14.3182 20.5786 15.3356 19.8284 16.0858L16.0858 19.8284C15.3356 20.5786 14.3182 21 13.2574 21H7C4.79086 21 3 19.2091 3 17V7ZM19 11C19 12.1046 18.1046 13 17 13C14.7909 13 13 14.7909 13 17C13 18.1046 12.1046 19 11 19H7C5.89543 19 5 18.1046 5 17V7C5 5.89543 5.89543 5 7 5H17C18.1046 5 19 5.89543 19 7V11Z" fill="currentColor" style="fill:currentColor;fill-opacity:1;"/>
</svg>
