<svg width="24" height="24" viewBox="0 0 24 24" fill="none" xmlns="http://www.w3.org/2000/svg">
<path fill-rule="evenodd" clip-rule="evenodd" d="M3 7C3 4.79086 4.79086 3 7 3H17C19.2091 3 21 4.79086 21 7V14H18C15.7909 14 14 15.7909 14 18V21H7C4.79086 21 3 19.2091 3 17V7ZM8 9C8 8.44772 8.44772 8 9 8H15C15.5523 8 16 8.44772 16 9C16 9.55228 15.5523 10 15 10H9C8.44772 10 8 9.55228 8 9ZM9 12C8.44772 12 8 12.4477 8 13C8 13.5523 8.44772 14 9 14H11C11.5523 14 12 13.5523 12 13C12 12.4477 11.5523 12 11 12H9Z" fill="currentColor" style="fill:currentColor;fill-opacity:1;"/>
<path d="M16 20.8021C16.5923 20.6085 17.1369 20.2773 17.5858 19.8284L19.8284 17.5858C20.2773 17.1369 20.6085 16.5923 20.8021 16H18C16.8954 16 16 16.8954 16 18V20.8021Z" fill="currentColor" style="fill:currentColor;fill-opacity:1;"/>
</svg>
