<svg width="24" height="24" viewBox="0 0 24 24" fill="none" xmlns="http://www.w3.org/2000/svg">
<path fill-rule="evenodd" clip-rule="evenodd" d="M1 11.9997C1 10.8954 1.89361 9.99992 2.9954 9.99992C4.09764 9.99992 4.99131 10.8954 4.99131 11.9997C4.99131 13.1046 4.09764 14 2.9954 14C1.89361 14 1 13.105 1 11.9997ZM15.0174 14C13.9152 14 13.022 13.1046 13.022 11.9997C13.022 10.8954 13.9152 9.99992 15.0174 9.99992C16.1192 9.99992 17.0133 10.8954 17.0133 11.9997C17.0133 13.1046 16.1192 14 15.0174 14ZM15.0174 4C10.6094 4 7.03528 7.58181 7.03528 11.9997C7.03528 16.4186 10.6089 20 15.0174 20C19.4264 20 23 16.4186 23 11.9997C23 7.58226 19.4264 4 15.0174 4Z" fill="currentColor"/>
</svg>
