<svg width="24" height="24" viewBox="0 0 24 24" fill="none" xmlns="http://www.w3.org/2000/svg">
<path fill-rule="evenodd" clip-rule="evenodd" d="M18.4127 0.663518C17.033 0.435997 15.6589 0.401471 14.2648 1.20633C13.394 1.70911 12.7133 2.41576 12.2484 3.23047C11.5745 2.32137 10.5258 1.58511 9.277 1.22512C8.74632 1.07214 8.19211 1.37832 8.03913 1.90899C7.88615 2.43967 8.19233 2.99388 8.723 3.14686C9.44752 3.35572 10.0121 3.72758 10.4042 4.14105C6.19488 4.89423 3 8.57402 3 13C3 17.9706 7.02944 22 12 22C16.9706 22 21 17.9706 21 13C21 9.74015 19.2669 6.88508 16.6718 5.30598C17.9996 4.5283 18.8803 3.27439 19.221 1.88908C19.2876 1.61842 19.2382 1.33227 19.0848 1.0996C18.9313 0.866932 18.6877 0.708867 18.4127 0.663518ZM16.787 2.52429C16.5009 2.94965 16.1159 3.31764 15.6418 3.59135C15.1501 3.87523 14.6185 4.02544 14.0881 4.05305C14.3772 3.60754 14.7731 3.22226 15.2648 2.93838C15.7416 2.66308 16.2236 2.5387 16.787 2.52429ZM18.6483 14.1727C18.7437 13.6288 18.3801 13.1104 17.8361 13.015C17.2921 12.9197 16.7738 13.2833 16.6784 13.8273C16.3348 15.7867 14.7867 17.3348 12.8273 17.6784C12.2833 17.7738 11.9196 18.2921 12.015 18.8361C12.1104 19.3801 12.6287 19.7437 13.1727 19.6483C15.9617 19.1593 18.1592 16.9617 18.6483 14.1727Z" fill="currentColor" style="fill:currentColor;fill-opacity:1;"/>
</svg>
