<svg width="24" height="24" viewBox="0 0 24 24" fill="none" xmlns="http://www.w3.org/2000/svg">
<path d="M12.6566 4.87958L11.6856 4.64069C11.5575 5.16144 11.8629 5.69054 12.378 5.83997L12.6566 4.87958ZM18.25 1.65023L19.221 1.88912C19.2876 1.61846 19.2382 1.33231 19.0848 1.09964C18.9313 0.866971 18.6877 0.708907 18.4127 0.663558L18.25 1.65023ZM9.277 1.22516C8.74632 1.07218 8.19211 1.37836 8.03913 1.90904C7.88615 2.43971 8.19233 2.99393 8.723 3.14691L9.277 1.22516ZM17 13.0001C17 12.4478 16.5523 12.0001 16 12.0001C15.4477 12.0001 15 12.4478 15 13.0001H17ZM12 16.0001C11.4477 16.0001 11 16.4478 11 17.0001C11 17.5523 11.4477 18.0001 12 18.0001V16.0001ZM19 13.0001C19 16.8661 15.866 20.0001 12 20.0001V22.0001C16.9706 22.0001 21 17.9706 21 13.0001H19ZM12 20.0001C8.13401 20.0001 5 16.8661 5 13.0001H3C3 17.9706 7.02944 22.0001 12 22.0001V20.0001ZM5 13.0001C5 9.13407 8.13401 6.00006 12 6.00006V4.00006C7.02944 4.00006 3 8.0295 3 13.0001H5ZM12 6.00006C15.866 6.00006 19 9.13407 19 13.0001H21C21 8.0295 16.9706 4.00006 12 4.00006V6.00006ZM14.2648 1.20637C12.9202 1.98267 12.0289 3.24499 11.6856 4.64069L13.6277 5.11846C13.8463 4.22975 14.4112 3.43126 15.2648 2.93842L14.2648 1.20637ZM18.4127 0.663558C17.033 0.436036 15.6589 0.40151 14.2648 1.20637L15.2648 2.93842C16.069 2.47414 16.8877 2.43908 18.0873 2.63691L18.4127 0.663558ZM16.6418 5.32344C17.9864 4.54714 18.8777 3.28482 19.221 1.88912L17.279 1.41135C17.0603 2.30006 16.4954 3.09855 15.6418 3.59139L16.6418 5.32344ZM12.378 5.83997C13.7584 6.24047 15.2972 6.09974 16.6418 5.32344L15.6418 3.59139C14.7882 4.08423 13.8142 4.1742 12.9353 3.91918L12.378 5.83997ZM12.9762 4.78318C12.625 3.20261 11.1844 1.77501 9.277 1.22516L8.723 3.14691C10.0669 3.53432 10.8606 4.48253 11.0238 5.21695L12.9762 4.78318ZM15 13.0001C15 14.6569 13.6569 16.0001 12 16.0001V18.0001C14.7614 18.0001 17 15.7615 17 13.0001H15Z" fill="currentColor"/>
</svg>
