<svg width="24" height="24" viewBox="0 0 24 24" fill="none" xmlns="http://www.w3.org/2000/svg">
<path d="M8 3H7C4.79086 3 3 4.79086 3 7V17C3 19.2091 4.79086 21 7 21H12.5276C10.4169 18.6442 10.4935 15.0213 12.7574 12.7574C15.0213 10.4935 18.6442 10.4169 21 12.5276V7C21 4.79086 19.2091 3 17 3H16V6.5C16 7.88071 14.8807 9 13.5 9H10.5C9.11929 9 8 7.88071 8 6.5V3Z" fill="currentColor" style="fill:currentColor;fill-opacity:1;"/>
<path d="M14 3H10V6.5C10 6.77614 10.2239 7 10.5 7H13.5C13.7761 7 14 6.77614 14 6.5V3Z" fill="currentColor" style="fill:currentColor;fill-opacity:1;"/>
<path fill-rule="evenodd" clip-rule="evenodd" d="M19.8284 14.1716C18.2663 12.6095 15.7337 12.6095 14.1716 14.1716C12.6095 15.7337 12.6095 18.2663 14.1716 19.8284C15.4895 21.1464 17.4983 21.3524 19.0322 20.4464L20.2929 21.7071C20.6834 22.0976 21.3166 22.0976 21.7071 21.7071C22.0976 21.3166 22.0976 20.6834 21.7071 20.2929L20.4464 19.0322C21.3524 17.4983 21.1464 15.4895 19.8284 14.1716ZM15.5858 18.4142C14.8047 17.6332 14.8047 16.3668 15.5858 15.5858C16.3668 14.8047 17.6332 14.8047 18.4142 15.5858C19.1953 16.3668 19.1953 17.6332 18.4142 18.4142C17.6332 19.1953 16.3668 19.1953 15.5858 18.4142Z" fill="currentColor" style="fill:currentColor;fill-opacity:1;"/>
</svg>
