<svg width="24" height="24" viewBox="0 0 24 24" fill="none" xmlns="http://www.w3.org/2000/svg">
<path fill-rule="evenodd" clip-rule="evenodd" d="M7 5C5.89543 5 5 5.89543 5 7V17C5 18.1046 5.89543 19 7 19H11C11.5523 19 12 19.4477 12 20C12 20.5523 11.5523 21 11 21H7C4.79086 21 3 19.2091 3 17V7C3 4.79086 4.79086 3 7 3H17C19.2091 3 21 4.79086 21 7V10C21 10.5523 20.5523 11 20 11C19.4477 11 19 10.5523 19 10V7C19 5.89543 18.1046 5 17 5H16V7C16 8.65685 14.6569 10 13 10H11C9.34315 10 8 8.65685 8 7V5H7ZM17.2071 13.2929C17.5976 13.6834 17.5976 14.3166 17.2071 14.7071L16.9142 15H19C20.6569 15 22 16.3431 22 18V20C22 20.5523 21.5523 21 21 21C20.4477 21 20 20.5523 20 20V18C20 17.4477 19.5523 17 19 17H16.9142L17.2071 17.2929C17.5976 17.6834 17.5976 18.3166 17.2071 18.7071C16.8166 19.0976 16.1834 19.0976 15.7929 18.7071L13.7929 16.7071C13.4024 16.3166 13.4024 15.6834 13.7929 15.2929L15.7929 13.2929C16.1834 12.9024 16.8166 12.9024 17.2071 13.2929Z" fill="currentColor" style="fill:currentColor;fill-opacity:1;"/>
</svg>
