<svg width="24" height="24" viewBox="0 0 24 24" fill="none" xmlns="http://www.w3.org/2000/svg">
<path d="M8 2C5.79086 2 4 3.79086 4 6V18C4 20.2091 5.79086 22 8 22H15.1707C15.0602 21.6872 15 21.3506 15 21C13.3431 21 12 19.6569 12 18C12 16.3431 13.3431 15 15 15C15 13.3431 16.3431 12 18 12C18.7684 12 19.4692 12.2889 20 12.7639V6C20 3.79086 18.2091 2 16 2H8Z" fill="currentColor" style="fill:currentColor;fill-opacity:1;"/>
<path d="M19 15C19 14.4477 18.5523 14 18 14C17.4477 14 17 14.4477 17 15V17H15C14.4477 17 14 17.4477 14 18C14 18.5523 14.4477 19 15 19H17V21C17 21.5523 17.4477 22 18 22C18.5523 22 19 21.5523 19 21V19H21C21.5523 19 22 18.5523 22 18C22 17.4477 21.5523 17 21 17H19V15Z" fill="currentColor" style="fill:currentColor;fill-opacity:1;"/>
</svg>
