<svg width="24" height="24" viewBox="0 0 24 24" fill="none" xmlns="http://www.w3.org/2000/svg">
<path d="M4 6C4 3.79086 5.79086 2 8 2H16C18.2091 2 20 3.79086 20 6V11.9996C19.1643 11.3719 18.1256 11 17 11C14.7242 11 12.8035 12.5205 12.1983 14.601C11.4706 15.1484 11 16.0193 11 17V21C11 21.3506 11.0602 21.6872 11.1707 22H8C5.79086 22 4 20.2091 4 18V6Z" fill="currentColor" style="fill:currentColor;fill-opacity:1;"/>
<path fill-rule="evenodd" clip-rule="evenodd" d="M20 16.2676V16C20 14.3431 18.6569 13 17 13C15.3431 13 14 14.3431 14 16V16.2676C13.4022 16.6134 13 17.2597 13 18V20C13 21.1046 13.8954 22 15 22H19C20.1046 22 21 21.1046 21 20V18C21 17.2597 20.5978 16.6134 20 16.2676ZM16 16H18C18 15.4477 17.5523 15 17 15C16.4477 15 16 15.4477 16 16ZM19 18H15V20H19V18Z" fill="currentColor" style="fill:currentColor;fill-opacity:1;"/>
</svg>
