<svg width="24" height="24" viewBox="0 0 24 24" fill="none" xmlns="http://www.w3.org/2000/svg">
<path fill-rule="evenodd" clip-rule="evenodd" d="M2.75 8C2.75 5.23858 4.98858 3 7.75 3H20C20.5523 3 21 3.44772 21 4C21 4.55228 20.5523 5 20 5H16V20C16 20.5523 15.5523 21 15 21C14.4477 21 14 20.5523 14 20V5H11V20C11 20.5523 10.5523 21 10 21C9.44772 21 9 20.5523 9 20V13H7.75C4.98858 13 2.75 10.7614 2.75 8ZM9 11V5H7.75C6.09315 5 4.75 6.34315 4.75 8C4.75 9.65685 6.09315 11 7.75 11H9Z" fill="currentColor" style="fill:currentColor;fill-opacity:1;"/>
</svg>
