<svg width="24" height="24" viewBox="0 0 24 24" fill="none" xmlns="http://www.w3.org/2000/svg">
<path d="M16.5013 19.7945L11.6263 11.3508M7.50126 4.20605C3.19663 6.69134 1.72175 12.1956 4.20703 16.5003C5.43908 14.6343 7.17113 13.6343 8.97017 13.7503M7.50126 4.20605C11.8059 1.72077 17.3102 3.19565 19.7955 7.50028C17.5634 7.63423 15.8314 8.63426 15.0323 10.2503M7.50126 4.20605C5.82724 5.17255 6.48489 9.44565 8.97017 13.7503M7.50126 4.20605C9.17528 3.23956 12.5471 5.94565 15.0323 10.2503M8.97017 13.7503C9.8027 12.6923 10.652 11.9133 11.6263 11.3508M15.0323 10.2503C13.6998 10.4423 12.6005 10.7883 11.6263 11.3508" stroke="currentColor" stroke-width="2" stroke-linecap="round" stroke-linejoin="round"/>
</svg>
