<svg width="24" height="24" viewBox="0 0 24 24" fill="none" xmlns="http://www.w3.org/2000/svg">
<path d="M10.1131 13.4938C9.84064 13.7234 9.56409 13.9717 9.30046 14.2308C8.23455 12.0609 7.44892 9.60468 7.05279 7.49844C6.81499 6.2341 6.727 5.14481 6.78276 4.34717C6.81074 3.94696 6.87218 3.66374 6.94181 3.48277C6.96694 3.41747 6.98885 3.37609 7.0041 3.35141C7.0331 3.35054 7.07989 3.35226 7.14901 3.36315C7.34054 3.39333 7.61654 3.48174 7.97712 3.65761C8.69577 4.00814 9.59514 4.62899 10.5712 5.46709C12.1972 6.86327 13.9316 8.77178 15.2778 10.7798C14.9216 10.8786 14.5682 10.9939 14.2332 11.1151C13.3992 11.4167 12.603 11.7825 12.0546 12.0991C11.5061 12.4157 10.7913 12.9224 10.1131 13.4938Z" fill="currentColor" style="fill:currentColor;fill-opacity:1;"/>
<path d="M4.76941 5.08673C1.77398 8.21553 1.0626 13.0604 3.33751 17.0007C3.7092 17.6445 4.62845 17.672 5.03805 17.0517C5.73704 15.993 6.57339 15.3092 7.43963 14.9778C6.31937 12.6628 5.50497 10.0892 5.08725 7.86812C4.90063 6.8759 4.78812 5.92787 4.76941 5.08673Z" fill="currentColor" style="fill:currentColor;fill-opacity:1;"/>
<path d="M9.62428 2.28377C10.3434 2.72054 11.1081 3.292 11.8741 3.94972C13.5887 5.422 15.4104 7.41411 16.8551 9.54179C17.5752 8.95728 18.5856 8.57489 19.8519 8.4989C20.5939 8.45437 21.0297 7.64448 20.658 7.00069C18.3831 3.06044 13.8316 1.25405 9.62428 2.28377Z" fill="currentColor" style="fill:currentColor;fill-opacity:1;"/>
<path d="M13.9508 13.3834C13.5962 13.5413 13.2868 13.6971 13.0546 13.8312C12.8223 13.9652 12.5327 14.1552 12.2187 14.3834L15.6317 20.2949C15.9079 20.7732 16.5195 20.9371 16.9978 20.6609C17.4761 20.3848 17.6399 19.7732 17.3638 19.2949L13.9508 13.3834Z" fill="currentColor" style="fill:currentColor;fill-opacity:1;"/>
</svg>
