<svg width="25" height="24" viewBox="0 0 25 24" fill="none" xmlns="http://www.w3.org/2000/svg">
<path d="M4.93342 7.40782C5.03018 7.35944 5.10864 7.28098 5.15702 7.18422L5.80194 5.89438C5.9862 5.52586 6.51211 5.52586 6.69637 5.89438L7.34128 7.18422C7.38967 7.28098 7.46813 7.35944 7.56489 7.40782L8.85473 8.05274C9.22325 8.237 9.22325 8.7629 8.85473 8.94717L7.56489 9.59208C7.46813 9.64047 7.38967 9.71893 7.34128 9.81569L6.69637 11.1055C6.5121 11.4741 5.9862 11.4741 5.80194 11.1055L5.15702 9.81569C5.10864 9.71893 5.03018 9.64047 4.93342 9.59208L3.64358 8.94717C3.27506 8.7629 3.27506 8.237 3.64358 8.05274L4.93342 7.40782Z" fill="currentColor" style="fill:currentColor;fill-opacity:1;"/>
<path d="M9.30934 3.71986C9.37846 3.6853 9.4345 3.62926 9.46906 3.56014L9.92972 2.63883C10.0613 2.3756 10.437 2.3756 10.5686 2.63883L11.0292 3.56014C11.0638 3.62926 11.1198 3.6853 11.189 3.71986L12.1103 4.18051C12.3735 4.31213 12.3735 4.68778 12.1103 4.81939L11.189 5.28005C11.1198 5.3146 11.0638 5.37065 11.0292 5.43977L10.5686 6.36108C10.437 6.62431 10.0613 6.62431 9.92972 6.36108L9.46906 5.43977C9.4345 5.37065 9.37846 5.3146 9.30934 5.28005L8.38803 4.81939C8.1248 4.68778 8.1248 4.31213 8.38803 4.18051L9.30934 3.71986Z" fill="currentColor" style="fill:currentColor;fill-opacity:1;"/>
<path d="M14.5312 15.8246L21.5758 7.72331C22.4431 6.7259 22.3909 5.22748 21.4563 4.29285C20.5216 3.35823 19.0232 3.30602 18.0258 4.17333L9.92453 11.2179C12.1679 11.8147 13.9344 13.5812 14.5312 15.8246Z" fill="currentColor" style="fill:currentColor;fill-opacity:1;"/>
<path d="M8.24915 13C5.76387 13 3.74915 15.0147 3.74915 17.5V21C3.74915 21.5522 4.19687 22 4.74915 22H8.24915C10.7344 22 12.7492 19.9852 12.7492 17.5C12.7492 15.0147 10.7344 13 8.24915 13Z" fill="currentColor" style="fill:currentColor;fill-opacity:1;"/>
</svg>
