<svg width="24" height="24" viewBox="0 0 24 24" fill="none" xmlns="http://www.w3.org/2000/svg">
<path d="M11.9997 20H7.79494C6.02717 20 4.59593 18.4191 5.43304 16.8621C6.67402 14.5539 9.02123 13 11.9997 13C12.3416 13 12.6751 13.0205 12.9997 13.0602M19.9997 16L17.9997 18M17.9997 18L15.9997 20M17.9997 18L15.9997 16M17.9997 18L19.9997 20M15.4997 6.5C15.4997 8.433 13.9327 10 11.9997 10C10.0667 10 8.49969 8.433 8.49969 6.5C8.49969 4.567 10.0667 3 11.9997 3C13.9327 3 15.4997 4.567 15.4997 6.5Z" stroke="currentColor" stroke-width="2" stroke-linecap="round" stroke-linejoin="round"/>
</svg>
