<svg width="24" height="24" viewBox="0 0 24 24" fill="none" xmlns="http://www.w3.org/2000/svg">
<path d="M12 1.75C9.51472 1.75 7.5 3.76472 7.5 6.25C7.5 8.73528 9.51472 10.75 12 10.75C14.4853 10.75 16.5 8.73528 16.5 6.25C16.5 3.76472 14.4853 1.75 12 1.75Z" fill="currentColor" style="fill:currentColor;fill-opacity:1;"/>
<path d="M12.0001 11.75C8.64237 11.75 5.96263 13.5161 4.55269 16.1386C3.92347 17.3089 4.16063 18.5237 4.85818 19.3914C5.53148 20.229 6.62375 20.75 7.79536 20.75H13.3335L13.2002 20.65C12.4217 20.0662 12.0078 19.1767 12.0001 18.2734V18.222C12.0054 17.6041 12.201 16.9823 12.6002 16.45C13.4248 15.3505 14.8594 14.9782 16.0812 15.4507L17.2461 13.5091C15.9168 12.4667 14.2443 11.8247 12.3411 11.7561C12.2282 11.7521 12.1145 11.75 12.0001 11.75Z" fill="currentColor" style="fill:currentColor;fill-opacity:1;"/>
<path d="M20.8576 15.2646C21.1417 14.7911 20.9881 14.1768 20.5146 13.8927C20.041 13.6085 19.4267 13.7621 19.1426 14.2357L16.713 18.2849L15.6001 17.4502C15.1582 17.1188 14.5314 17.2083 14.2001 17.6502C13.8687 18.092 13.9582 18.7188 14.4001 19.0502L16.4001 20.5502C16.6266 20.72 16.9144 20.7859 17.1923 20.7315C17.4701 20.6771 17.7119 20.5074 17.8576 20.2646L20.8576 15.2646Z" fill="currentColor" style="fill:currentColor;fill-opacity:1;"/>
</svg>
