<svg width="24" height="24" viewBox="0 0 24 24" fill="none" xmlns="http://www.w3.org/2000/svg">
<path d="M17 7V6C17 4.34315 15.6569 3 14 3H6C4.34315 3 3 4.34315 3 6V14C3 15.6569 4.34315 17 6 17H7M9.52734 21C9.77607 18.75 11.6836 17 13.9999 17C16.3162 17 18.2237 18.75 18.4724 21M16 12.5C16 13.6046 15.1046 14.5 14 14.5C12.8954 14.5 12 13.6046 12 12.5C12 11.3954 12.8954 10.5 14 10.5C15.1046 10.5 16 11.3954 16 12.5ZM18 21H10C8.34315 21 7 19.6569 7 18V10C7 8.34315 8.34315 7 10 7H18C19.6569 7 21 8.34315 21 10V18C21 19.6569 19.6569 21 18 21Z" stroke="currentColor" stroke-width="2" stroke-linecap="round" stroke-linejoin="round"/>
</svg>
