<svg width="24" height="24" viewBox="0 0 24 24" fill="none" xmlns="http://www.w3.org/2000/svg">
<path d="M14.5 22C14.2239 22 14 21.7761 14 21.5V20.7426C14 19.947 14.3161 19.1839 14.8787 18.6213L18.75 14.75C19.4404 14.0596 20.5596 14.0596 21.25 14.75C21.9404 15.4404 21.9404 16.5596 21.25 17.25L17.3787 21.1213C16.8161 21.6839 16.053 22 15.2574 22H14.5Z" fill="currentColor"/>
<path d="M4.55269 16.3886C5.96263 13.7661 8.64237 12 12.0001 12C13.9541 12 15.6786 12.5981 17.0567 13.615L13.4645 17.2073C12.5268 18.145 12 19.4167 12 20.7428V21H7.79536C6.62375 21 5.53148 20.479 4.85818 19.6414C4.16063 18.7737 3.92347 17.5589 4.55269 16.3886Z" fill="currentColor"/>
<path d="M12 2C9.51472 2 7.5 4.01472 7.5 6.5C7.5 8.98528 9.51472 11 12 11C14.4853 11 16.5 8.98528 16.5 6.5C16.5 4.01472 14.4853 2 12 2Z" fill="currentColor"/>
</svg>
