<svg width="24" height="24" viewBox="0 0 24 24" fill="none" xmlns="http://www.w3.org/2000/svg">
<path fill-rule="evenodd" clip-rule="evenodd" d="M6.00088 7C6.00088 4.79086 7.79175 3 10.0009 3H14.0009C16.21 3 18.0009 4.79086 18.0009 7V17C18.0009 19.2091 16.21 21 14.0009 21H10.0009C7.79175 21 6.00088 19.2091 6.00088 17V7ZM10.0009 6C10.0009 5.44772 10.4486 5 11.0009 5H13.0009C13.5532 5 14.0009 5.44772 14.0009 6C14.0009 6.55228 13.5532 7 13.0009 7H11.0009C10.4486 7 10.0009 6.55228 10.0009 6ZM4.20799 7.29289C4.59852 7.68342 4.59852 8.31658 4.20799 8.70711L3.15598 9.75912C2.96392 9.95118 2.94231 10.2552 3.10528 10.4725C3.78416 11.3777 3.78416 12.6223 3.10528 13.5275C2.94231 13.7448 2.96392 14.0488 3.15598 14.2409L4.20799 15.2929C4.59852 15.6834 4.59852 16.3166 4.20799 16.7071C3.81747 17.0976 3.1843 17.0976 2.79378 16.7071L1.74177 15.6551C0.845922 14.7593 0.745131 13.341 1.50528 12.3275C1.65082 12.1334 1.65082 11.8666 1.50528 11.6725C0.745131 10.659 0.845921 9.24075 1.74176 8.34491L2.79378 7.29289C3.1843 6.90237 3.81747 6.90237 4.20799 7.29289ZM19.7938 7.29289C20.1843 6.90237 20.8175 6.90237 21.208 7.29289L22.26 8.34491C23.1558 9.24075 23.2566 10.659 22.4965 11.6725C22.3509 11.8666 22.3509 12.1334 22.4965 12.3275C23.2566 13.341 23.1558 14.7593 22.26 15.6551L21.208 16.7071C20.8175 17.0976 20.1843 17.0976 19.7938 16.7071C19.4033 16.3166 19.4033 15.6834 19.7938 15.2929L20.8458 14.2409C21.0378 14.0488 21.0595 13.7448 20.8965 13.5275C20.2176 12.6223 20.2176 11.3777 20.8965 10.4725C21.0595 10.2552 21.0378 9.95118 20.8458 9.75912L19.7938 8.70711C19.4033 8.31658 19.4033 7.68342 19.7938 7.29289Z" fill="currentColor" style="fill:currentColor;fill-opacity:1;"/>
</svg>
