<svg width="24" height="24" viewBox="0 0 24 24" fill="none" xmlns="http://www.w3.org/2000/svg">
  <path
    d="M9.79229 4.4807L10.5224 5.78899C11.1813 6.96966 10.9168 8.51848 9.87905 9.55629C9.87905 9.55629 8.62036 10.8152 10.9026 13.0975C13.1841 15.379 14.4437 14.121 14.4437 14.121C15.4815 13.0832 17.0303 12.8187 18.211 13.4776L19.5193 14.2077C21.3022 15.2027 21.5127 17.7029 19.9456 19.27C19.004 20.2116 17.8504 20.9444 16.5753 20.9926C14.4286 21.0741 10.7831 20.5308 7.12616 16.8739C3.46927 13.2169 2.92599 9.57137 3.00737 7.42474C3.05571 6.14956 3.7884 4.99601 4.73004 4.05439C6.29711 2.48731 8.79732 2.69787 9.79229 4.4807Z"
    stroke="currentColor" stroke-width="2" />
</svg>
  
