<svg width="24" height="24" viewBox="0 0 24 24" fill="none" xmlns="http://www.w3.org/2000/svg">
<path d="M22.7314 11.9999C22.9016 12.2941 22.999 12.6356 22.999 12.9999C22.999 14.1045 22.1035 14.9999 20.999 14.9999C20.5646 14.9999 20.1625 14.8614 19.8346 14.6262M19.8346 14.6262C19.7385 14.5573 19.6487 14.4801 19.5664 14.3956L19.8346 14.6262ZM8.5 10.7499C8.5 10.888 8.38808 10.9999 8.25 10.9999M8.5 10.7499C8.5 10.6119 8.38808 10.4999 8.25 10.4999M8.5 10.7499H8M8.25 10.9999C8.11193 10.9999 8 10.888 8 10.7499M8.25 10.9999V10.4999M8 10.7499C8 10.6119 8.11193 10.4999 8.25 10.4999M8.46655 10.6249C8.53558 10.7445 8.49462 10.8974 8.37504 10.9664M8.46655 10.6249C8.39751 10.5054 8.24462 10.4644 8.12504 10.5334M8.46655 10.6249L8.03354 10.8749M8.37504 10.9664C8.25547 11.0355 8.10257 10.9945 8.03354 10.8749M8.37504 10.9664L8.12504 10.5334M8.03354 10.8749C7.9645 10.7554 8.00547 10.6025 8.12504 10.5334M8.37508 10.5334C8.49465 10.6025 8.53562 10.7554 8.46659 10.8749M8.37508 10.5334C8.25551 10.4644 8.10261 10.5054 8.03357 10.6249M8.37508 10.5334L8.12508 10.9665M8.46659 10.8749C8.39755 10.9945 8.24465 11.0355 8.12508 10.9665M8.46659 10.8749L8.03357 10.6249M8.12508 10.9665C8.00551 10.8974 7.96454 10.7445 8.03357 10.6249M5.5 7.49989V4.99989C5.5 4.44761 5.95165 3.98853 6.49636 4.07973C8.7202 4.45206 9.474 5.99994 9.474 5.99994H14C17.314 5.99994 20 8.68589 20 11.9999C20 13.7749 19.225 15.3639 18 16.4629V18.9999C18 19.5522 17.5523 19.9999 17 19.9999H15C14.4477 19.9999 14 19.5522 14 18.9999C14 18.4477 13.5523 17.9999 13 17.9999H11C10.4477 17.9999 10 18.4477 10 18.9999C10 19.5522 9.55228 19.9999 9 19.9999H7C6.44772 19.9999 6 19.5522 6 18.9999V16.9999C5.094 16.4729 4.525 15.9079 4 14.9999H3C2.44772 14.9999 2 14.5522 2 13.9999V10.9349C2 10.3827 2.44772 9.93494 3 9.93494H4C4.338 9.00994 4.782 8.14789 5.5 7.49989Z" stroke="currentColor" stroke-width="2" stroke-linecap="round" stroke-linejoin="round"/>
</svg>
