<svg width="24" height="24" viewBox="0 0 24 24" fill="none" xmlns="http://www.w3.org/2000/svg">
<path fill-rule="evenodd" clip-rule="evenodd" d="M2 6C2 4.34315 3.34315 3 5 3C5.26842 3 5.5301 3.0355 5.77989 3.10263C6.00416 3.1629 6.22688 3.2356 6.422 3.29928L6.44651 3.30729C6.65699 3.37596 6.83882 3.43471 7.01547 3.48137C7.37313 3.57584 7.60769 3.59093 7.78844 3.55058C9.10268 3.2572 10.6347 3 12 3C13.3653 3 14.8973 3.2572 16.2116 3.55058C16.3923 3.59093 16.6269 3.57584 16.9845 3.48137C17.1612 3.43471 17.343 3.37596 17.5535 3.30729L17.578 3.29929C17.7731 3.2356 17.9958 3.1629 18.2201 3.10263C18.4699 3.0355 18.7316 3 19 3C20.6569 3 22 4.34315 22 6C22 6.23294 21.9733 6.4609 21.9223 6.68049C21.8705 6.90327 21.8069 7.12486 21.7511 7.31952L21.7443 7.34335C21.6841 7.55298 21.6326 7.73468 21.5923 7.91114C21.5109 8.2682 21.5009 8.50589 21.5449 8.68992C21.7944 9.73348 22 10.9145 22 12C22 13.0855 21.7944 14.2665 21.5449 15.3101C21.5009 15.4941 21.5109 15.7318 21.5923 16.0889C21.6326 16.2653 21.6841 16.447 21.7443 16.6566L21.7511 16.6805C21.8069 16.8751 21.8705 17.0967 21.9223 17.3195C21.9733 17.5391 22 17.7671 22 18C22 19.6569 20.6569 21 19 21C18.7335 21 18.4736 20.965 18.2254 20.8988C18.0016 20.8391 17.7792 20.767 17.5844 20.7038L17.5597 20.6958C17.3495 20.6277 17.1678 20.5694 16.9913 20.5232C16.634 20.4295 16.3992 20.4145 16.2182 20.4549C14.911 20.7464 13.3844 21 12 21C10.6156 21 9.08905 20.7464 7.78183 20.4549C7.60076 20.4145 7.366 20.4295 7.00868 20.5232C6.83219 20.5694 6.65053 20.6277 6.44032 20.6958L6.41568 20.7038C6.22083 20.767 5.99849 20.8391 5.77462 20.8988C5.52641 20.965 5.26653 21 5 21C3.34315 21 2 19.6569 2 18C2 17.7671 2.02674 17.5391 2.07774 17.3195C2.12948 17.0967 2.19305 16.8752 2.24889 16.6805L2.25574 16.6566C2.31586 16.447 2.36744 16.2653 2.40768 16.0889C2.48911 15.7318 2.49907 15.4941 2.45508 15.3101C2.20563 14.2665 2 13.0855 2 12C2 10.9145 2.20563 9.73348 2.45508 8.68992C2.49907 8.50589 2.48911 8.2682 2.40768 7.91114C2.36744 7.73468 2.31586 7.55298 2.25574 7.34335L2.24889 7.31948C2.19305 7.12484 2.12947 6.90325 2.07774 6.68049C2.02674 6.4609 2 6.23294 2 6ZM10 8.5C9.44772 8.5 9 8.94772 9 9.5C9 10.0523 9.44772 10.5 10 10.5H11.9194L9.21913 13.8753C8.979 14.1755 8.93218 14.5867 9.0987 14.9332C9.26522 15.2797 9.61559 15.5 10 15.5H14C14.5523 15.5 15 15.0523 15 14.5C15 13.9477 14.5523 13.5 14 13.5H12.0806L14.7809 10.1247C15.021 9.82452 15.0678 9.41328 14.9013 9.06681C14.7348 8.72035 14.3844 8.5 14 8.5H10Z" fill="currentColor" style="fill:currentColor;fill-opacity:1;"/>
</svg>
