<svg width="24" height="24" viewBox="0 0 24 24" fill="none" xmlns="http://www.w3.org/2000/svg">
<path d="M11.9978 11C12.3822 11.0003 12.7671 10.8539 13.0608 10.5605C13.6462 9.97556 13.6467 9.02551 13.0604 8.4392C12.4748 7.85356 11.5254 7.85352 10.9389 8.43955C10.3539 9.024 10.3533 9.97432 10.9395 10.5611C11.2314 10.8533 11.6144 10.9997 11.9978 11Z" fill="currentColor" style="fill:currentColor;fill-opacity:1;"/>
<path fill-rule="evenodd" clip-rule="evenodd" d="M12 2C6.47715 2 2 6.47715 2 12C2 17.5228 6.47715 22 12 22C17.5228 22 22 17.5228 22 12C22 6.47715 17.5228 2 12 2ZM13 12.8545C13.5397 12.6941 14.0484 12.4009 14.4744 11.9753C15.8421 10.6088 15.8416 8.392 14.4747 7.02504C13.1072 5.6574 10.8919 5.65935 9.52528 7.02469C8.15713 8.3916 8.15958 10.6082 9.52459 11.9746C9.95092 12.4014 10.4599 12.6948 11 12.8551V17C11 17.5523 11.4477 18 12 18C12.5523 18 13 17.5523 13 17V12.8545Z" fill="currentColor" style="fill:currentColor;fill-opacity:1;"/>
</svg>
