<svg width="24" height="24" viewBox="0 0 24 24" fill="none" xmlns="http://www.w3.org/2000/svg">
<path fill-rule="evenodd" clip-rule="evenodd" d="M9.5 4C9.5 3.44772 9.94772 3 10.5 3H13.5C14.0523 3 14.5 3.44772 14.5 4C14.5 4.55228 14.0523 5 13.5 5H10.5C9.94772 5 9.5 4.55228 9.5 4ZM17.0572 3.83746C17.2412 3.31674 17.8125 3.04382 18.3332 3.22787C19.4705 3.62983 20.3702 4.52949 20.7721 5.66675C20.9562 6.18747 20.6833 6.75879 20.1625 6.94284C19.6418 7.12689 19.0705 6.85396 18.8865 6.33325C18.6859 5.76568 18.2343 5.31415 17.6668 5.11355C17.146 4.9295 16.8731 4.35818 17.0572 3.83746ZM6.94284 3.83746C7.12689 4.35818 6.85396 4.9295 6.33325 5.11355C5.76568 5.31415 5.31415 5.76568 5.11355 6.33325C4.9295 6.85396 4.35818 7.12689 3.83746 6.94284C3.31674 6.75879 3.04382 6.18747 3.22787 5.66675C3.62983 4.52949 4.52949 3.62983 5.66675 3.22787C6.18747 3.04382 6.75879 3.31674 6.94284 3.83746ZM4 9.5C4.55228 9.5 5 9.94772 5 10.5V13.5C5 14.0523 4.55228 14.5 4 14.5C3.44772 14.5 3 14.0523 3 13.5V10.5C3 9.94772 3.44772 9.5 4 9.5ZM20 9.5C20.5523 9.5 21 9.94772 21 10.5V13.5C21 14.0523 20.5523 14.5 20 14.5C19.4477 14.5 19 14.0523 19 13.5V10.5C19 9.94772 19.4477 9.5 20 9.5ZM3.83746 17.0572C4.35818 16.8731 4.9295 17.146 5.11355 17.6668C5.31415 18.2343 5.76568 18.6858 6.33325 18.8865C6.85396 19.0705 7.12689 19.6418 6.94284 20.1625C6.75879 20.6833 6.18747 20.9562 5.66675 20.7721C4.52949 20.3702 3.62983 19.4705 3.22787 18.3332C3.04382 17.8125 3.31674 17.2412 3.83746 17.0572ZM20.1625 17.0572C20.6833 17.2412 20.9562 17.8125 20.7721 18.3332C20.3702 19.4705 19.4705 20.3702 18.3332 20.7721C17.8125 20.9562 17.2412 20.6833 17.0572 20.1625C16.8731 19.6418 17.146 19.0705 17.6668 18.8865C18.2343 18.6858 18.6858 18.2343 18.8865 17.6668C19.0705 17.146 19.6418 16.8731 20.1625 17.0572ZM9.5 20C9.5 19.4477 9.94772 19 10.5 19H13.5C14.0523 19 14.5 19.4477 14.5 20C14.5 20.5523 14.0523 21 13.5 21H10.5C9.94772 21 9.5 20.5523 9.5 20Z" fill="currentColor" style="fill:currentColor;fill-opacity:1;"/>
</svg>
