<svg width="24" height="24" viewBox="0 0 24 24" fill="none" xmlns="http://www.w3.org/2000/svg">
<path fill-rule="evenodd" clip-rule="evenodd" d="M2 8C2 5.79086 3.79086 4 6 4H18C20.2091 4 22 5.79086 22 8V16C22 18.2091 20.2091 20 18 20H6C3.79086 20 2 18.2091 2 16V8ZM6 10C6 9.44772 6.44772 9 7 9H11C11.5523 9 12 9.44772 12 10C12 10.5523 11.5523 11 11 11H7C6.44772 11 6 10.5523 6 10ZM14 10C14 9.44772 14.4477 9 15 9H17C17.5523 9 18 9.44772 18 10V13C18 13.5523 17.5523 14 17 14H15C14.4477 14 14 13.5523 14 13V10ZM6 13.5C6 12.9477 6.44772 12.5 7 12.5H9C9.55228 12.5 10 12.9477 10 13.5C10 14.0523 9.55228 14.5 9 14.5H7C6.44772 14.5 6 14.0523 6 13.5Z" fill="currentColor" style="fill:currentColor;fill-opacity:1;"/>
</svg>
