<svg xmlns="http://www.w3.org/2000/svg" width="24" height="24" viewBox="0 0 73 73" fill="none"><rect y="-0.000610352" width="72.5523" height="72.5523" rx="36.2762" fill="white" fill-opacity="0.05"></rect><path d="M34.9564 42.392L33.3531 43.9804L34.9564 42.392ZM35.7045 55.1088L34.7566 57.1569L35.7045 55.1088ZM22.2087 36.3505L21.7649 38.5633L22.2087 36.3505ZM55.0138 35.2111L57.1947 35.7919L55.0138 35.2111ZM28.0038 16.3276L28.1565 18.5793L28.0038 16.3276ZM33.3531 43.9804C35.8734 46.5242 37.301 48.5558 38.0299 50.084C38.7674 51.6299 38.7004 52.459 38.6068 52.7706C38.5384 52.998 38.4087 53.1408 38.111 53.2288C37.7557 53.3337 37.2105 53.319 36.6525 53.0607L34.7566 57.1569C36.1964 57.8234 37.8697 58.0068 39.3901 57.5575C40.9681 57.0912 42.3712 55.9273 42.9295 54.0697C43.4625 52.2963 43.1159 50.2621 42.1039 48.1406C41.0834 46.0014 39.2918 43.5614 36.5597 40.8036L33.3531 43.9804ZM36.6525 53.0607C32.2599 51.0276 27.1856 46.2545 24.1782 42.1228C23.4411 41.11 22.862 40.181 22.4611 39.3873C22.0432 38.56 21.8908 38.0196 21.8633 37.7511C21.8364 37.4885 21.9487 37.9952 21.4098 38.37C21.0506 38.6198 20.949 38.3997 21.7649 38.5633L22.6525 34.1377C21.4923 33.9051 20.0271 33.8336 18.8325 34.6644C17.4582 35.6203 17.2633 37.1404 17.373 38.2112C17.4822 39.2761 17.9102 40.389 18.4322 41.4224C18.9712 42.4896 19.6915 43.6287 20.5289 44.7791C23.8196 49.3 29.4454 54.6987 34.7566 57.1569L36.6525 53.0607ZM21.7649 38.5633C25.2226 39.2568 33.0655 41.1058 40.2669 41.7009C43.8566 41.9975 47.4974 42.005 50.4643 41.3144C53.3866 40.6341 56.3155 39.093 57.1947 35.7919L52.833 34.6302C52.5992 35.508 51.7631 36.3777 49.4409 36.9182C47.1632 37.4484 44.0799 37.4868 40.6386 37.2025C33.778 36.6356 26.3313 34.8755 22.6525 34.1377L21.7649 38.5633ZM57.1947 35.7919C58.0062 32.7447 57.2556 29.727 55.6818 27.0838C54.1165 24.455 51.6757 22.0738 48.8084 20.1035C43.0938 16.1768 35.2313 13.5754 27.8511 14.0759L28.1565 18.5793C34.3763 18.1575 41.2473 20.3846 46.2521 23.8236C48.7445 25.5362 50.6597 27.4722 51.8035 29.3931C52.9387 31.2997 53.2501 33.0643 52.833 34.6302L57.1947 35.7919ZM27.8511 14.0759C23.7914 14.3512 20.7615 15.8795 19.7287 19.0598C18.8225 21.8504 19.8117 25.0779 21.1652 27.8823C23.962 33.6772 29.569 40.1608 33.3531 43.9804L36.5597 40.8036C32.8674 37.0768 27.6932 31.0235 25.2303 25.9204C23.954 23.2759 23.6937 21.4641 24.0218 20.4539C24.2232 19.8334 24.9112 18.7993 28.1565 18.5793L27.8511 14.0759Z" fill="#FFAD9B"></path></svg>
