<svg width="24" height="24" viewBox="0 0 24 24" fill="none" xmlns="http://www.w3.org/2000/svg">
<path d="M6 3C4.34315 3 3 4.34315 3 6C3 7.30622 3.83481 8.41746 5 8.82929V15.1707C3.83481 15.5825 3 16.6938 3 18C3 19.6569 4.34315 21 6 21C7.65685 21 9 19.6569 9 18C9 16.6938 8.16519 15.5825 7 15.1707V8.82929C8.16519 8.41746 9 7.30622 9 6C9 4.34315 7.65685 3 6 3Z" fill="currentColor"/>
<path d="M14.4142 5L14.7071 4.70711C15.0976 4.31658 15.0976 3.68342 14.7071 3.29289C14.3166 2.90237 13.6834 2.90237 13.2929 3.29289L11.2929 5.29289C10.9024 5.68342 10.9024 6.31658 11.2929 6.70711L13.2929 8.70711C13.6834 9.09763 14.3166 9.09763 14.7071 8.70711C15.0976 8.31658 15.0976 7.68342 14.7071 7.29289L14.4142 7H15C16.1046 7 17 7.89543 17 9V15.1707C15.8348 15.5825 15 16.6938 15 18C15 19.6569 16.3431 21 18 21C19.6569 21 21 19.6569 21 18C21 16.6938 20.1652 15.5825 19 15.1707V9C19 6.79086 17.2091 5 15 5H14.4142Z" fill="currentColor"/>
</svg>
