<svg width="24" height="24" viewBox="0 0 24 24" fill="none" xmlns="http://www.w3.org/2000/svg">
<path fill-rule="evenodd" clip-rule="evenodd" d="M12.632 3.44236C14.7331 2.25172 17.4486 1.74366 21.0712 2.00242C21.5674 2.03786 21.962 2.43252 21.9975 2.92863C22.2562 6.55133 21.7482 9.26676 20.5575 11.3679C19.4692 13.2885 17.868 14.5939 16 15.6066V16.6201C16 17.7878 15.4897 18.8972 14.6032 19.6571L12.1508 21.7591C11.8984 21.9755 11.5551 22.0522 11.2346 21.964C10.9142 21.8758 10.6586 21.6342 10.5524 21.3193L10.55 21.3124L10.5405 21.2848C10.5318 21.2597 10.5184 21.2215 10.5005 21.1715C10.4647 21.0714 10.411 20.9246 10.341 20.7423C10.2007 20.3768 9.99621 19.8722 9.74049 19.317C9.21438 18.1749 8.52476 16.9389 7.79289 16.207C7.06103 15.4751 5.82502 14.7855 4.68287 14.2594C4.1277 14.0037 3.6231 13.7992 3.25763 13.6589C3.07525 13.5889 2.92843 13.5351 2.82839 13.4993C2.77839 13.4814 2.74015 13.468 2.71506 13.4593L2.68749 13.4498L2.68145 13.4478C2.36656 13.3416 2.12406 13.0857 2.03586 12.7653C1.94765 12.4448 2.02443 12.1015 2.24074 11.8491L4.34278 9.39672C5.10271 8.51013 6.21211 7.99988 7.3798 7.99988H8.39325C9.40598 6.13185 10.7113 4.53072 12.632 3.44236ZM15.5 10.4999C16.6046 10.4999 17.5 9.60445 17.5 8.49988C17.5 7.39531 16.6046 6.49988 15.5 6.49988C14.3954 6.49988 13.5 7.39531 13.5 8.49988C13.5 9.60445 14.3954 10.4999 15.5 10.4999Z" fill="currentColor" style="fill:currentColor;fill-opacity:1;"/>
<path d="M5.20711 16.7928C5.59763 17.1833 5.59763 17.8165 5.20711 18.207L2.70711 20.707C2.31658 21.0975 1.68342 21.0975 1.29289 20.707C0.902369 20.3165 0.902369 19.6833 1.29289 19.2928L3.79289 16.7928C4.18342 16.4023 4.81658 16.4023 5.20711 16.7928Z" fill="currentColor" style="fill:currentColor;fill-opacity:1;"/>
<path d="M7.20711 20.207C7.59763 19.8165 7.59763 19.1833 7.20711 18.7928C6.81658 18.4023 6.18342 18.4023 5.79289 18.7928L4.29289 20.2928C3.90237 20.6833 3.90237 21.3165 4.29289 21.707C4.68342 22.0975 5.31658 22.0975 5.70711 21.707L7.20711 20.207Z" fill="currentColor" style="fill:currentColor;fill-opacity:1;"/>
</svg>
