<svg width="24" height="24" viewBox="0 0 24 24" fill="none" xmlns="http://www.w3.org/2000/svg">
  <path
    d="M5.88387 21.7548C4.74839 21.7548 3.81936 21.5226 3.09677 21.0581C2.37419 20.5936 1.78065 20 1.31613 19.2774C0.8 18.4 0.43871 17.4968 0.232258 16.5677C0.0774195 15.5871 0 14.7871 0 14.1677C0 11.6387 0.645161 9.34194 1.93548 7.27743C3.22581 5.21291 5.23871 3.53549 7.97419 2.24516L8.67097 3.63871C7.07097 4.30968 5.67742 5.36775 4.49032 6.81291C3.35484 8.25807 2.7871 9.72903 2.7871 11.2258C2.7871 11.8452 2.86452 12.3871 3.01936 12.8516C3.84516 12.1806 4.8 11.8452 5.88387 11.8452C7.22581 11.8452 8.3871 12.2839 9.36774 13.1613C10.3484 14.0387 10.8387 15.2516 10.8387 16.8C10.8387 18.2452 10.3484 19.4323 9.36774 20.3613C8.3871 21.2903 7.22581 21.7548 5.88387 21.7548ZM19.0452 21.7548C17.9097 21.7548 16.9806 21.5226 16.2581 21.0581C15.5355 20.5936 14.9419 20 14.4774 19.2774C13.9613 18.4 13.6 17.4968 13.3935 16.5677C13.2387 15.5871 13.1613 14.7871 13.1613 14.1677C13.1613 11.6387 13.8065 9.34194 15.0968 7.27743C16.3871 5.21291 18.4 3.53549 21.1355 2.24516L21.8323 3.63871C20.2323 4.30968 18.8387 5.36775 17.6516 6.81291C16.5161 8.25807 15.9484 9.72903 15.9484 11.2258C15.9484 11.8452 16.0258 12.3871 16.1806 12.8516C17.0065 12.1806 17.9613 11.8452 19.0452 11.8452C20.3871 11.8452 21.5484 12.2839 22.529 13.1613C23.5097 14.0387 24 15.2516 24 16.8C24 18.2452 23.5097 19.4323 22.529 20.3613C21.5484 21.2903 20.3871 21.7548 19.0452 21.7548Z"
    fill="currentColor" />
</svg>
