<svg width="24" height="24" viewBox="0 0 24 24" fill="none" xmlns="http://www.w3.org/2000/svg">
<path fill-rule="evenodd" clip-rule="evenodd" d="M11.9982 8C6.78233 8 2.4982 11.994 2.039 17.0898C1.98943 17.6398 1.50334 18.0455 0.953281 17.996C0.403225 17.9464 -0.00250047 17.4603 0.0470678 16.9102C0.598322 10.793 5.73796 6 11.9982 6C18.2584 6 23.3981 10.793 23.9493 16.9102C23.9989 17.4603 23.5932 17.9464 23.0431 17.996C22.493 18.0455 22.0069 17.6398 21.9574 17.0898C21.4982 11.994 17.214 8 11.9982 8ZM11.9982 12C8.97636 12 6.47478 14.2349 6.059 17.1416C5.9808 17.6883 5.4742 18.0681 4.92748 17.9899C4.38076 17.9117 4.00095 17.4051 4.07915 16.8584C4.63384 12.9806 7.96708 10 11.9982 10C16.0293 10 19.3625 12.9806 19.9172 16.8584C19.9954 17.4051 19.6156 17.9117 19.0689 17.9899C18.5222 18.0681 18.0156 17.6883 17.9374 17.1416C17.5216 14.2349 15.02 12 11.9982 12ZM11.9982 16C11.1289 16 10.3868 16.5551 10.1117 17.3332C9.92769 17.854 9.35637 18.1269 8.83565 17.9428C8.31493 17.7588 8.04201 17.1875 8.22606 16.6668C8.77469 15.1145 10.255 14 11.9982 14C13.7414 14 15.2217 15.1145 15.7703 16.6668C15.9544 17.1875 15.6814 17.7588 15.1607 17.9428C14.64 18.1269 14.0687 17.854 13.8846 17.3332C13.6096 16.5551 12.8674 16 11.9982 16Z" fill="currentColor" style="fill:currentColor;fill-opacity:1;"/>
</svg>
