<svg width="24" height="24" viewBox="0 0 24 24" fill="none" xmlns="http://www.w3.org/2000/svg">
<path fill-rule="evenodd" clip-rule="evenodd" d="M8 2C5.79086 2 4 3.79086 4 6V21C4 21.3905 4.22734 21.7453 4.58214 21.9085C4.93694 22.0717 5.35428 22.0134 5.65079 21.7593L7.33333 20.3171L9.01587 21.7593C9.39036 22.0802 9.94297 22.0802 10.3175 21.7593L12 20.3171L13.6825 21.7593C14.057 22.0802 14.6096 22.0802 14.9841 21.7593L16.6667 20.3171L18.3492 21.7593C18.6457 22.0134 19.0631 22.0717 19.4179 21.9085C19.7727 21.7453 20 21.3905 20 21V6C20 3.79086 18.2091 2 16 2H8ZM8 15C8 14.4477 8.44771 14 9 14H15C15.5523 14 16 14.4477 16 15C16 15.5523 15.5523 16 15 16H9C8.44771 16 8 15.5523 8 15ZM15.2071 8.70711C15.5976 8.31658 15.5976 7.68342 15.2071 7.29289C14.8166 6.90237 14.1834 6.90237 13.7929 7.29289L11.5 9.58578L10.7071 8.79289C10.3166 8.40236 9.68342 8.40236 9.29289 8.79289C8.90237 9.18341 8.90237 9.81658 9.29289 10.2071L10.7929 11.7071C10.9804 11.8946 11.2348 12 11.5 12C11.7652 12 12.0196 11.8946 12.2071 11.7071L15.2071 8.70711Z" fill="currentColor" style="fill:currentColor;fill-opacity:1;"/>
</svg>
