<svg width="24" height="24" viewBox="0 0 24 24" fill="none" xmlns="http://www.w3.org/2000/svg">
<path fill-rule="evenodd" clip-rule="evenodd" d="M8 2C5.79086 2 4 3.79086 4 6V21C4 21.3905 4.22734 21.7453 4.58214 21.9085C4.93694 22.0717 5.35428 22.0134 5.65079 21.7593L7.33333 20.3171L9.01588 21.7593C9.39036 22.0802 9.94297 22.0802 10.3175 21.7593L12 20.3171L13.6825 21.7593C14.057 22.0802 14.6096 22.0802 14.9841 21.7593L16.6667 20.3171L18.3492 21.7593C18.6457 22.0134 19.0631 22.0717 19.4179 21.9085C19.7727 21.7453 20 21.3905 20 21V6C20 3.79086 18.2091 2 16 2H8ZM15.9571 7.04289C16.3476 7.43342 16.3476 8.06658 15.9571 8.45711L9.45711 14.9571C9.06658 15.3476 8.43342 15.3476 8.04289 14.9571C7.65237 14.5666 7.65237 13.9334 8.04289 13.5429L14.5429 7.04289C14.9334 6.65237 15.5666 6.65237 15.9571 7.04289ZM10.25 8C10.25 8.69036 9.69036 9.25 9 9.25C8.30964 9.25 7.75 8.69036 7.75 8C7.75 7.30964 8.30964 6.75 9 6.75C9.69036 6.75 10.25 7.30964 10.25 8ZM15 15.25C15.6904 15.25 16.25 14.6904 16.25 14C16.25 13.3096 15.6904 12.75 15 12.75C14.3096 12.75 13.75 13.3096 13.75 14C13.75 14.6904 14.3096 15.25 15 15.25Z" fill="currentColor" style="fill:currentColor;fill-opacity:1;"/>
</svg>
