<svg width="24" height="24" viewBox="0 0 24 24" fill="none" xmlns="http://www.w3.org/2000/svg">
<path fill-rule="evenodd" clip-rule="evenodd" d="M8 2C5.79086 2 4 3.79086 4 6V21C4 21.3905 4.22734 21.7453 4.58214 21.9085C4.93694 22.0717 5.35428 22.0134 5.65079 21.7593L7.33333 20.3171L9.01588 21.7593C9.39036 22.0802 9.94297 22.0802 10.3175 21.7593L12 20.3171L13.6825 21.7593C14.057 22.0802 14.6096 22.0802 14.9841 21.7593L16.6667 20.3171L18.3492 21.7593C18.6457 22.0134 19.0631 22.0717 19.4179 21.9085C19.7727 21.7453 20 21.3905 20 21V6C20 3.79086 18.2091 2 16 2H8ZM8 15C8 14.4477 8.44772 14 9 14H15C15.5523 14 16 14.4477 16 15C16 15.5523 15.5523 16 15 16H9C8.44772 16 8 15.5523 8 15ZM14.4268 8.23744C14.8173 7.84692 14.8173 7.21375 14.4268 6.82323C14.0363 6.4327 13.4031 6.4327 13.0126 6.82323L12 7.83579L10.9874 6.82323C10.5969 6.4327 9.96375 6.4327 9.57323 6.82323C9.1827 7.21375 9.1827 7.84692 9.57323 8.23744L10.5858 9.25L9.57323 10.2626C9.1827 10.6531 9.1827 11.2863 9.57323 11.6768C9.96375 12.0673 10.5969 12.0673 10.9874 11.6768L12 10.6642L13.0126 11.6768C13.4031 12.0673 14.0363 12.0673 14.4268 11.6768C14.8173 11.2863 14.8173 10.6531 14.4268 10.2626L13.4142 9.25L14.4268 8.23744Z" fill="currentColor" style="fill:currentColor;fill-opacity:1;"/>
</svg>
