<svg width="24" height="24" viewBox="0 0 24 24" fill="none" xmlns="http://www.w3.org/2000/svg">
<path fill-rule="evenodd" clip-rule="evenodd" d="M9.17113 3.16424C10.7332 1.60215 13.2659 1.60215 14.828 3.16424L20.8353 9.17158C22.3974 10.7337 22.3974 13.2663 20.8353 14.8284L14.828 20.8358C13.2659 22.3979 10.7332 22.3979 9.17111 20.8358L3.16375 14.8284C1.60166 13.2663 1.60167 10.7337 3.16377 9.17158L9.17113 3.16424ZM9.49951 11C8.94723 11 8.49951 11.4477 8.49951 12C8.49951 12.5523 8.94723 13 9.49951 13H14.4995C15.0518 13 15.4995 12.5523 15.4995 12C15.4995 11.4477 15.0518 11 14.4995 11H9.49951Z" fill="currentColor"/>
</svg>
