<svg width="24" height="24" viewBox="0 0 24 24" fill="none" xmlns="http://www.w3.org/2000/svg">
<path d="M6.5 3C4.567 3 3 4.567 3 6.5C3 8.433 4.567 10 6.5 10C8.433 10 10 8.433 10 6.5C10 4.567 8.433 3 6.5 3Z" fill="currentColor" style="fill:currentColor;fill-opacity:1;"/>
<path d="M16.2071 5.20711C16.5976 4.81658 16.5976 4.18342 16.2071 3.79289C15.8166 3.40237 15.1834 3.40237 14.7929 3.79289L12.7929 5.79289C12.4024 6.18342 12.4024 6.81658 12.7929 7.20711L14.7929 9.20711C15.1834 9.59763 15.8166 9.59763 16.2071 9.20711C16.5976 8.81658 16.5976 8.18342 16.2071 7.79289L15.9142 7.5H17C18.1046 7.5 19 8.39543 19 9.5V14.5C19 15.6046 18.1046 16.5 17 16.5H14C13.4477 16.5 13 16.9477 13 17.5C13 18.0523 13.4477 18.5 14 18.5H17C19.2091 18.5 21 16.7091 21 14.5V9.5C21 7.29086 19.2091 5.5 17 5.5H15.9142L16.2071 5.20711Z" fill="currentColor" style="fill:currentColor;fill-opacity:1;"/>
<path d="M6.5 14C4.567 14 3 15.567 3 17.5C3 19.433 4.567 21 6.5 21C8.433 21 10 19.433 10 17.5C10 15.567 8.433 14 6.5 14Z" fill="currentColor" style="fill:currentColor;fill-opacity:1;"/>
</svg>
