<svg width="24" height="24" viewBox="0 0 24 24" fill="none" xmlns="http://www.w3.org/2000/svg">
<path d="M9.52249 4.61172L6.81539 2.4122C6.48864 2.14671 6.0001 2.37924 6.0001 2.80026V4.00799C5.60829 4.02093 5.27229 4.05369 4.96482 4.13607C3.58445 4.50594 2.50626 5.58413 2.13639 6.9645C1.9993 7.47615 1.99962 8.06681 2.00005 8.8622L2.0001 14.2411C2.00008 15.046 2.00007 15.7104 2.04429 16.2516C2.09022 16.8137 2.18878 17.3304 2.43607 17.8157C2.81956 18.5684 3.43149 19.1803 4.18413 19.5638C4.66947 19.8111 5.18617 19.9097 5.74827 19.9556C6.28947 19.9998 6.95384 19.9998 7.75882 19.9998H11.0001C11.5524 19.9998 12.0001 19.5521 12.0001 18.9998C12.0001 18.4475 11.5524 17.9998 11.0001 17.9998H7.8001C6.94352 17.9998 6.36122 17.999 5.91113 17.9622C5.47272 17.9264 5.24852 17.8615 5.09211 17.7818C4.71579 17.59 4.40983 17.2841 4.21808 16.9078C4.13839 16.7514 4.07347 16.5272 4.03765 16.0887C4.00087 15.6386 4.0001 15.0564 4.0001 14.1998V8.99978C4.0001 8.00542 4.00869 7.70442 4.06824 7.48214C4.25318 6.79195 4.79227 6.25286 5.48246 6.06792C5.60125 6.0361 5.74252 6.01882 6.0001 6.00964V7.19929C6.0001 7.62031 6.48863 7.85284 6.81539 7.58735L9.52249 5.38783C9.76876 5.18774 9.76876 4.81182 9.52249 4.61172Z" fill="currentColor" style="fill:currentColor;fill-opacity:1;"/>
<path d="M16.2001 5.99978C17.0567 5.99978 17.639 6.00055 18.0891 6.03733C18.5275 6.07315 18.7517 6.13807 18.9081 6.21776C19.2844 6.40951 19.5904 6.71547 19.7821 7.0918C19.8618 7.2482 19.9267 7.4724 19.9625 7.91081C19.9993 8.3609 20.0001 8.9432 20.0001 9.79978V15.4998C20.0001 15.996 19.9979 16.1472 19.983 16.2608C19.8648 17.1583 19.1586 17.8645 18.2611 17.9827C18.2005 17.9907 18.1291 17.995 18.0001 17.9973V16.8003C18.0001 16.3792 17.5116 16.1467 17.1848 16.4122L14.4777 18.6117C14.2314 18.8118 14.2314 19.1877 14.4777 19.3878L17.1848 21.5873C17.5116 21.8528 18.0001 21.6203 18.0001 21.1993V19.9977C18.1962 19.9945 18.3651 19.9862 18.5222 19.9656C20.3171 19.7292 21.7296 18.3168 21.9659 16.5219C22.0003 16.2604 22.0002 15.966 22.0001 15.5685L22.0001 9.7585C22.0001 8.95352 22.0001 8.28915 21.9559 7.74795C21.91 7.18585 21.8114 6.66915 21.5641 6.18381C21.1806 5.43117 20.5687 4.81924 19.8161 4.43575C19.3307 4.18846 18.814 4.0899 18.2519 4.04397C17.7107 3.99975 17.0464 3.99976 16.2414 3.99978L13.0001 3.99978C12.4478 3.99978 12.0001 4.44749 12.0001 4.99978C12.0001 5.55206 12.4478 5.99978 13.0001 5.99978H16.2001Z" fill="currentColor" style="fill:currentColor;fill-opacity:1;"/>
<path d="M8.0001 9.99978C8.0001 9.44749 8.44781 8.99978 9.0001 8.99978H15.0001C15.5524 8.99978 16.0001 9.44749 16.0001 9.99978C16.0001 10.5521 15.5524 10.9998 15.0001 10.9998H9.0001C8.44781 10.9998 8.0001 10.5521 8.0001 9.99978Z" fill="currentColor" style="fill:currentColor;fill-opacity:1;"/>
<path d="M9.0001 12.9998C8.44781 12.9998 8.0001 13.4475 8.0001 13.9998C8.0001 14.5521 8.44781 14.9998 9.0001 14.9998H13.0001C13.5524 14.9998 14.0001 14.5521 14.0001 13.9998C14.0001 13.4475 13.5524 12.9998 13.0001 12.9998H9.0001Z" fill="currentColor" style="fill:currentColor;fill-opacity:1;"/>
</svg>
