<svg width="24" height="24" viewBox="0 0 24 24" fill="none" xmlns="http://www.w3.org/2000/svg">
<path d="M13.5385 2.30987C12.5984 1.71987 11.4017 1.71987 10.4616 2.30986C9.30506 3.03566 8.25849 3.9941 7.70264 5.13129C9.26869 5.37506 10.7263 5.94947 12 6.77951C13.2738 5.94947 14.7314 5.37507 16.2974 5.13129C15.7415 3.9941 14.695 3.03566 13.5385 2.30987Z" fill="currentColor" style="fill:currentColor;fill-opacity:1;"/>
<path d="M7.97458 7.37705C5.81884 6.89426 4 8.79088 4 11V12C4 16.0796 7.05369 19.446 11 19.9381V21C11 21.5523 11.4477 22 12 22C12.5523 22 13 21.5523 13 21V13C13 9.5064 10.7115 7.99 7.97458 7.37705Z" fill="currentColor" style="fill:currentColor;fill-opacity:1;"/>
<path d="M15 19.4185C17.9318 18.2317 20 15.3574 20 12V11C20 8.79088 18.1809 6.82691 16.016 7.26659C15.1885 7.43464 14.3781 7.7086 13.586 8.15518C14.4811 9.55379 15 11.2163 15 13V19.4185Z" fill="currentColor" style="fill:currentColor;fill-opacity:1;"/>
</svg>
