<svg width="24" height="24" viewBox="0 0 24 24" fill="none" xmlns="http://www.w3.org/2000/svg">
<path fill-rule="evenodd" clip-rule="evenodd" d="M8.00719 2.82925C8.09382 1.80461 8.95295 1 10 1H14C15.0471 1 15.9062 1.80461 15.9928 2.82925C19.5274 4.37028 22 7.89524 22 12C22 17.5228 17.5228 22 12 22C6.47715 22 2 17.5228 2 12C2 7.89524 4.47264 4.37028 8.00719 2.82925ZM9.11969 4.5339C8.38608 4.8171 7.7048 5.20528 7.09421 5.67998L8.46446 7.05019C8.85499 7.44071 8.855 8.07387 8.46448 8.4644C8.07396 8.85493 7.44079 8.85494 7.05026 8.46442L5.68008 7.09428C4.81987 8.20104 4.24404 9.53958 4.06191 11H6C6.55228 11 7 11.4477 7 12C7 12.5523 6.55228 13 6 13H4.06189C4.24404 14.4607 4.81998 15.7991 5.68014 16.9056L7.05024 15.5355C7.44076 15.145 8.07393 15.145 8.46446 15.5355C8.85499 15.926 8.855 16.5592 8.46448 16.9497L7.09435 18.3199C8.20087 19.18 9.53929 19.756 11 19.9381V18C11 17.4477 11.4477 17 12 17C12.5523 17 13 17.4477 13 18V19.9381C14.4607 19.756 15.7991 19.18 16.9057 18.3199L15.5355 16.9497C15.145 16.5592 15.145 15.926 15.5355 15.5355C15.9261 15.145 16.5592 15.145 16.9498 15.5355L18.3199 16.9056C19.18 15.7991 19.756 14.4607 19.9381 13H18C17.4477 13 17 12.5523 17 12C17 11.4477 17.4477 11 18 11H19.9381C19.756 9.53958 19.1801 8.20103 18.3199 7.09428L16.9497 8.46442C16.5592 8.85494 15.926 8.85493 15.5355 8.4644C15.145 8.07387 15.145 7.44071 15.5355 7.05019L16.9058 5.67998C16.2952 5.20528 15.6139 4.8171 14.8803 4.5339L12.7071 6.70711C12.3166 7.09763 11.6834 7.09763 11.2929 6.70711L9.11969 4.5339ZM9 12C9 10.3431 10.3431 9 12 9C13.6569 9 15 10.3431 15 12C15 13.6569 13.6569 15 12 15C10.3431 15 9 13.6569 9 12Z" fill="currentColor" style="fill:currentColor;fill-opacity:1;"/>
</svg>
