<svg width="32" height="32" viewBox="0 0 32 32" fill="none" xmlns="http://www.w3.org/2000/svg">
<path d="M28 25.3333V28H25.3333V25.3333H28ZM22.6667 25.3333V28H20V25.3333H22.6667ZM17.3333 25.3333V28H14.6667V25.3333H17.3333ZM12 25.3333V28H9.33333V25.3333H12ZM6.66667 25.3333V28H4V25.3333H6.66667ZM28 20V22.6667H25.3333V20H28ZM6.66667 20V22.6667H4V20H6.66667ZM6.66667 14.6667V17.3333H4V14.6667H6.66667ZM21.3333 4C24.9165 4 27.8423 6.83155 27.9939 10.3776L28 10.6667V17.3333H25.3333V10.6667C25.3333 8.54524 23.6596 6.79575 21.5675 6.67349L21.3333 6.66667H14.6667V4H21.3333ZM6.66667 9.33333V12H4V9.33333H6.66667ZM6.66667 4V6.66667H4V4H6.66667ZM12 4V6.66667H9.33333V4H12Z" fill="currentColor"/>
</svg>
