<svg width="24" height="24" viewBox="0 0 24 24" fill="none" xmlns="http://www.w3.org/2000/svg">
<path fill-rule="evenodd" clip-rule="evenodd" d="M18.2372 11.2366C19.761 9.72722 19.7669 7.26643 18.2503 5.74978C16.7336 4.23313 14.2728 4.23901 12.7634 5.76289L6.56742 12.0184C5.43568 12.1162 4.33089 12.5981 3.46479 13.4642C3.07426 13.8548 3.07426 14.4879 3.46479 14.8785L5.58608 16.9997L4.29316 18.2927C3.90263 18.6832 3.90263 19.3164 4.29316 19.7069C4.68368 20.0974 5.31685 20.0974 5.70737 19.7069L7.00029 18.414L9.12164 20.5353C9.30918 20.7228 9.56353 20.8282 9.82875 20.8282C10.094 20.8282 10.3483 20.7228 10.5359 20.5353C11.402 19.6692 11.8839 18.5644 11.9817 17.4326L18.2372 11.2366Z" fill="currentColor" style="fill:currentColor;fill-opacity:1;"/>
<path d="M8.50026 2.49978C7.53377 1.53328 5.96676 1.53328 5.00027 2.49978L3.50026 3.99978C2.53377 4.96627 2.53377 6.53328 3.50026 7.49978L8.50026 2.49978Z" fill="currentColor" style="fill:currentColor;fill-opacity:1;"/>
<path d="M9.50026 3.49978L4.50026 8.49978L6.25026 10.2498L11.2503 5.24978L9.50026 3.49978Z" fill="currentColor" style="fill:currentColor;fill-opacity:1;"/>
<path d="M18.7503 12.7498L13.7503 17.7498L15.5003 19.4998L20.5003 14.4998L18.7503 12.7498Z" fill="currentColor" style="fill:currentColor;fill-opacity:1;"/>
<path d="M21.5003 15.4998L16.5003 20.4998C17.4668 21.4663 19.0338 21.4663 20.0003 20.4998L21.5003 18.9998C22.4668 18.0333 22.4668 16.4663 21.5003 15.4998Z" fill="currentColor" style="fill:currentColor;fill-opacity:1;"/>
</svg>
