<svg width="24" height="24" viewBox="0 0 24 24" fill="none" xmlns="http://www.w3.org/2000/svg">
<path fill-rule="evenodd" clip-rule="evenodd" d="M6 5C4.89543 5 4 5.89543 4 7C4 8.10457 4.89543 9 6 9C7.10457 9 8 8.10457 8 7C8 5.89543 7.10457 5 6 5ZM2 7C2 4.79086 3.79086 3 6 3C8.20914 3 10 4.79086 10 7C10 9.20914 8.20914 11 6 11C3.79086 11 2 9.20914 2 7Z" fill="currentColor" style="fill:currentColor;fill-opacity:1;"/>
<path fill-rule="evenodd" clip-rule="evenodd" d="M6 15C4.89543 15 4 15.8954 4 17C4 18.1046 4.89543 19 6 19C7.10457 19 8 18.1046 8 17C8 15.8954 7.10457 15 6 15ZM2 17C2 14.7909 3.79086 13 6 13C8.20914 13 10 14.7909 10 17C10 19.2091 8.20914 21 6 21C3.79086 21 2 19.2091 2 17Z" fill="currentColor" style="fill:currentColor;fill-opacity:1;"/>
<path d="M20.5961 5.94572C19.41 4.95731 17.761 4.73976 16.3592 5.38677L13.3233 6.78793C11.9067 7.44174 10.9995 8.85956 10.9995 10.4198V10.5732L7.38189 9.07625L6.61719 10.9243L9.21748 12.0003L6.61719 13.0763L7.38189 14.9243L10.9995 13.4273V13.5808C10.9995 15.141 11.9067 16.5588 13.3233 17.2126L16.3592 18.6138C17.761 19.2608 19.41 19.0432 20.5961 18.0548L22.1397 16.7685C22.4087 16.5443 22.5409 16.1958 22.4881 15.8496C22.4354 15.5035 22.2054 15.2101 21.8819 15.0763L14.4483 12.0003L21.8819 8.92429C22.2054 8.79041 22.4354 8.49705 22.4881 8.15089C22.5409 7.80474 22.4087 7.45621 22.1397 7.23205L20.5961 5.94572Z" fill="currentColor" style="fill:currentColor;fill-opacity:1;"/>
</svg>
