<svg width="24" height="24" viewBox="0 0 24 24" fill="none" xmlns="http://www.w3.org/2000/svg">
<path fill-rule="evenodd" clip-rule="evenodd" d="M5 6C4.44772 6 4 6.44772 4 7C4 7.55228 3.55228 8 3 8C2.44772 8 2 7.55228 2 7C2 5.34315 3.34315 4 5 4C5.55228 4 6 4.44772 6 5C6 5.55228 5.55228 6 5 6ZM8 5C8 4.44772 8.44772 4 9 4H10C10.5523 4 11 4.44772 11 5C11 5.55228 10.5523 6 10 6H9C8.44772 6 8 5.55228 8 5ZM13 5C13 4.44772 13.4477 4 14 4H15C15.5523 4 16 4.44772 16 5C16 5.55228 15.5523 6 15 6H14C13.4477 6 13 5.55228 13 5ZM18 5C18 4.44772 18.4477 4 19 4C20.6569 4 22 5.34315 22 7C22 7.55228 21.5523 8 21 8C20.4477 8 20 7.55228 20 7C20 6.44772 19.5523 6 19 6C18.4477 6 18 5.55228 18 5ZM3 10C3.55228 10 4 10.4477 4 11V13C4 13.5523 3.55228 14 3 14C2.44772 14 2 13.5523 2 13V11C2 10.4477 2.44772 10 3 10ZM18.5 12C16.567 12 15 13.567 15 15.5C15 17.433 16.567 19 18.5 19C20.433 19 22 17.433 22 15.5C22 13.567 20.433 12 18.5 12ZM13 15.5C13 12.4624 15.4624 10 18.5 10C21.5376 10 24 12.4624 24 15.5C24 18.5376 21.5376 21 18.5 21C15.4624 21 13 18.5376 13 15.5ZM16 15.5C16 14.1193 17.1193 13 18.5 13C19.8807 13 21 14.1193 21 15.5C21 16.8807 19.8807 18 18.5 18C17.1193 18 16 16.8807 16 15.5ZM3 16C3.55228 16 4 16.4477 4 17C4 17.5523 4.44772 18 5 18C5.55228 18 6 18.4477 6 19C6 19.5523 5.55228 20 5 20C3.34315 20 2 18.6569 2 17C2 16.4477 2.44772 16 3 16ZM8 19C8 18.4477 8.44772 18 9 18H10C10.5523 18 11 18.4477 11 19C11 19.5523 10.5523 20 10 20H9C8.44772 20 8 19.5523 8 19Z" fill="currentColor" style="fill:currentColor;fill-opacity:1;"/>
</svg>
