<svg width="24" height="24" viewBox="0 0 24 24" fill="none" xmlns="http://www.w3.org/2000/svg">
<path d="M21 12V8C21 6.34315 19.6569 5 18 5H6C4.34315 5 3 6.34315 3 8V12M21 12H3M21 12V16C21 17.6569 19.6569 19 18 19H6C4.34315 19 3 17.6569 3 16V12" stroke="currentColor" stroke-width="2" stroke-linecap="square"/>
<path d="M6.5 9.375C6.98325 9.375 7.375 8.98325 7.375 8.5C7.375 8.01675 6.98325 7.625 6.5 7.625C6.01675 7.625 5.625 8.01675 5.625 8.5C5.625 8.98325 6.01675 9.375 6.5 9.375ZM6.5 16.375C6.98325 16.375 7.375 15.9832 7.375 15.5C7.375 15.0168 6.98325 14.625 6.5 14.625C6.01675 14.625 5.625 15.0168 5.625 15.5C5.625 15.9832 6.01675 16.375 6.5 16.375Z" fill="currentColor" stroke="currentColor" style="fill:currentColor;fill-opacity:1;stroke:currentColor;stroke-opacity:1;" stroke-width="0.75"/>
</svg>
