<svg width="24" height="24" viewBox="0 0 24 24" fill="none" xmlns="http://www.w3.org/2000/svg">
<path d="M12 2C6.47702 2 2 6.47702 2 12C2 17.523 6.47702 22 12 22C17.523 22 22 17.523 22 12C22 6.47702 17.523 2 12 2ZM20.7901 10.4124C20.7901 12.7081 18.9292 14.5689 16.6335 14.5689C14.3379 14.5689 12.477 12.7081 12.477 10.4124C12.477 8.11677 14.3379 6.2559 16.6335 6.2559C18.9292 6.2559 20.7901 8.11677 20.7901 10.4124ZM12 2.95217C14.5099 2.95217 16.7813 3.97453 18.4205 5.62485C17.864 5.41677 17.2615 5.30311 16.6329 5.30311H5.91553C7.52236 3.84223 9.65713 2.95217 12 2.95217ZM11.5236 10.4124V21.0348C8.49938 20.8783 5.86832 19.236 4.34472 16.8249L11.5913 9.57827C11.5466 9.84967 11.5236 10.1286 11.5236 10.4124ZM3.86273 15.9603C3.2795 14.764 2.95217 13.4205 2.95217 12C2.95217 9.81927 3.7236 7.81863 5.00869 6.2559H13.6609C13.3919 6.44845 13.1429 6.66584 12.9168 6.90559L3.86273 15.9603ZM12.4764 21.0354V13.3839C12.6869 13.6777 12.9279 13.9485 13.1944 14.1913L17.8801 18.877C16.4112 20.1341 14.5348 20.9286 12.4764 21.0354ZM18.5702 18.2205L15.8043 15.4547C16.0739 15.4987 16.3503 15.5217 16.6323 15.5217C18.4702 15.5217 20.082 14.5509 20.982 13.0944C20.7441 15.0695 19.8695 16.8485 18.5702 18.2205Z" fill="currentColor"/>
</svg>
