<svg width="24" height="24" viewBox="0 0 24 24" fill="none" xmlns="http://www.w3.org/2000/svg">
<path fill-rule="evenodd" clip-rule="evenodd" d="M12 4V5.75H16.9942C15.6255 4.65487 13.8892 4 12 4ZM18.779 7.75H12V9.25H19.5148C19.3214 8.72167 19.0739 8.21944 18.779 7.75ZM19.9653 11.25H12V12.75H19.9653C19.9883 12.5031 20 12.2529 20 12C20 11.7471 19.9883 11.4969 19.9653 11.25ZM19.5148 14.75H12V16.25H18.779C19.0739 15.7806 19.3214 15.2783 19.5148 14.75ZM16.9942 18.25H12V20C13.8892 20 15.6255 19.3451 16.9942 18.25ZM2 12C2 6.47715 6.47715 2 12 2C17.5228 2 22 6.47715 22 12C22 17.5228 17.5228 22 12 22C6.47715 22 2 17.5228 2 12Z" fill="currentColor" style="fill:currentColor;fill-opacity:1;"/>
</svg>
