<svg width="24" height="24" viewBox="0 0 24 24" fill="none" xmlns="http://www.w3.org/2000/svg">
<path fill-rule="evenodd" clip-rule="evenodd" d="M10.6997 2.38913C11.5424 2.09946 12.4576 2.09946 13.3003 2.38913L18.9752 4.33988C20.1866 4.7563 21 5.89596 21 7.17694V11.9119C21 14.7187 19.8511 16.7414 18.1875 18.3163C16.6151 19.805 14.5552 20.9158 12.6319 21.9529L12.4748 22.0376C12.1785 22.1975 11.8215 22.1975 11.5252 22.0376L11.3681 21.9529C9.44484 20.9158 7.38493 19.805 5.8125 18.3163C4.14891 16.7414 3 14.7187 3 11.9119V7.17694C3 5.89596 3.81336 4.7563 5.02476 4.33988L10.6997 2.38913ZM12 8C10.6193 8 9.5 9.11929 9.5 10.5C9.5 11.5252 10.117 12.4062 11 12.792V15C11 15.5523 11.4477 16 12 16C12.5523 16 13 15.5523 13 15V12.792C13.883 12.4062 14.5 11.5252 14.5 10.5C14.5 9.11929 13.3807 8 12 8Z" fill="currentColor" style="fill:currentColor;fill-opacity:1;"/>
</svg>
