<svg width="24" height="24" viewBox="0 0 24 24" fill="none" xmlns="http://www.w3.org/2000/svg">
<path fill-rule="evenodd" clip-rule="evenodd" d="M12 22C16.9706 22 21 17.9706 21 13V7.96204C21 6.37284 20.0592 4.93438 18.6033 4.29741L13.6033 2.10991C12.5812 1.66275 11.4188 1.66275 10.3967 2.10991L5.39672 4.29741C3.94077 4.93438 3 6.37285 3 7.96204V13C3 17.9706 7.02944 22 12 22ZM15.7071 10.7071C16.0976 10.3166 16.0976 9.68342 15.7071 9.29289C15.3166 8.90237 14.6834 8.90237 14.2929 9.29289L11 12.5858L9.70711 11.2929C9.31658 10.9024 8.68342 10.9024 8.29289 11.2929C7.90237 11.6834 7.90237 12.3166 8.29289 12.7071L10.2929 14.7071C10.6834 15.0976 11.3166 15.0976 11.7071 14.7071L15.7071 10.7071Z" fill="currentColor" style="fill:currentColor;fill-opacity:1;"/>
</svg>
