<svg width="24" height="24" viewBox="0 0 24 24" fill="none" xmlns="http://www.w3.org/2000/svg">
<path d="M18.889 18.7918L21.3753 20.7809C21.8066 21.1259 22.4359 21.056 22.7809 20.6247C23.1259 20.1934 23.056 19.5641 22.6247 19.2191L2.62473 3.21914C2.19347 2.87413 1.56418 2.94405 1.21917 3.37531C0.874158 3.80657 0.94408 4.43587 1.37534 4.78088L3.33851 6.35141C3.11924 6.8496 3 7.39627 3 7.96204V13C3 17.9706 7.02944 22 12 22C14.7646 22 17.2381 20.7535 18.889 18.7918Z" fill="currentColor" style="fill:currentColor;fill-opacity:1;"/>
<path d="M21 13C21 13.741 20.9105 14.461 20.7416 15.1499L6.54694 3.79419L10.3967 2.10991C11.4188 1.66275 12.5812 1.66275 13.6033 2.10991L18.6033 4.29741C20.0592 4.93438 21 6.37284 21 7.96204V13Z" fill="currentColor" style="fill:currentColor;fill-opacity:1;"/>
</svg>
