<svg width="24" height="24" viewBox="0 0 24 24" fill="none" xmlns="http://www.w3.org/2000/svg">
<path fill-rule="evenodd" clip-rule="evenodd" d="M9 3C9 2.44772 9.44772 2 10 2H14C14.5523 2 15 2.44772 15 3V6H17C18.1046 6 19 6.89543 19 8V10.6577L12.9699 9.15019C12.3329 8.99095 11.6666 8.99095 11.0296 9.15019L5 10.6576V8C5 6.89543 5.89543 6 7 6H9V3Z" fill="currentColor" style="fill:currentColor;fill-opacity:1;"/>
<path d="M19.2205 18.5801L21.2171 19.0238C21.7563 19.1436 22.0962 19.6778 21.9764 20.2169C21.8566 20.7561 21.3224 21.096 20.7833 20.9762L16.9341 20.1208C16.6483 20.0573 16.3521 20.0573 16.0664 20.1208L12.8679 20.8316C12.2964 20.9586 11.704 20.9586 11.1325 20.8316L7.93408 20.1208C7.64832 20.0573 7.35211 20.0573 7.06635 20.1208L3.21714 20.9762C2.67801 21.096 2.14383 20.7561 2.02403 20.2169C1.90422 19.6778 2.24415 19.1436 2.78328 19.0238L4.77995 18.5801C3.42293 16.3113 2.63049 13.3117 6.33672 12.3851L11.0301 11.2118C11.667 11.0525 12.3334 11.0525 12.9704 11.2118L17.6637 12.3851C21.3699 13.3117 20.5775 16.3113 19.2205 18.5801Z" fill="currentColor" style="fill:currentColor;fill-opacity:1;"/>
</svg>
