<svg width="24" height="24" viewBox="0 0 24 24" fill="none" xmlns="http://www.w3.org/2000/svg">
<path fill-rule="evenodd" clip-rule="evenodd" d="M8.00012 6C8.00012 3.79086 9.79098 2 12.0001 2C14.2093 2 16.0001 3.79086 16.0001 6V7.14621C17.4826 7.55898 18.636 8.80686 18.8798 10.3918L19.3287 13.3095C18.9283 13.1114 18.4772 13 18.0001 13C16.3433 13 15.0001 14.3431 15.0001 16C13.3433 16 12.0001 17.3431 12.0001 19C12.0001 20.6569 13.3433 22 15.0001 22H7.99695C5.54541 22 3.67069 19.8148 4.04347 17.3918L5.12039 10.3918C5.36422 8.80685 6.51766 7.55897 8.00012 7.14621V6ZM14.0001 7V6C14.0001 4.89543 13.1047 4 12.0001 4C10.8956 4 10.0001 4.89543 10.0001 6V7H14.0001Z" fill="currentColor" style="fill:currentColor;fill-opacity:1;"/>
<path d="M19.0001 16C19.0001 15.4477 18.5524 15 18.0001 15C17.4478 15 17.0001 15.4477 17.0001 16V18H15.0001C14.4478 18 14.0001 18.4477 14.0001 19C14.0001 19.5523 14.4478 20 15.0001 20H17.0001V22C17.0001 22.5523 17.4478 23 18.0001 23C18.5524 23 19.0001 22.5523 19.0001 22V20H21.0001C21.5524 20 22.0001 19.5523 22.0001 19C22.0001 18.4477 21.5524 18 21.0001 18H19.0001V16Z" fill="currentColor" style="fill:currentColor;fill-opacity:1;"/>
</svg>
