<svg width="24" height="24" viewBox="0 0 24 24" fill="none" xmlns="http://www.w3.org/2000/svg">
<path fill-rule="evenodd" clip-rule="evenodd" d="M16.0229 2.58318C16.8004 1.80561 18.0611 1.8056 18.8387 2.58316L21.4129 5.15737C22.1904 5.93492 22.1904 7.19556 21.4129 7.97311L20.1258 9.26022C18.881 10.5051 16.9892 10.7088 15.5326 9.87129L11.8701 13.5338L13.2426 14.9063C14.394 16.0577 14.4463 17.9952 13.1627 19.1344C10.2236 21.7427 6.98424 22.7154 3.1788 21.4469C2.88153 21.3478 2.64827 21.1145 2.54918 20.8173C1.28068 17.0118 2.25318 13.7724 4.86161 10.8333C6.0008 9.54966 7.9383 9.60203 9.08967 10.7534L10.4622 12.1259L14.1247 8.4634C13.2873 7.00685 13.491 5.11512 14.7358 3.87027L16.0229 2.58318ZM16.1504 7.85896C16.1482 7.85672 16.146 7.85449 16.1438 7.85226C16.1415 7.85005 16.1393 7.84784 16.1371 7.84565C15.4329 7.13428 15.4351 5.98675 16.1438 5.27813L17.4308 3.99104L20.005 6.56525L18.718 7.85236C18.0093 8.56098 16.8618 8.56318 16.1504 7.85896Z" fill="currentColor" style="fill:currentColor;fill-opacity:1;"/>
</svg>
