<svg width="24" height="24" viewBox="0 0 24 24" fill="none" xmlns="http://www.w3.org/2000/svg">
<path fill-rule="evenodd" clip-rule="evenodd" d="M6 4C3.79086 4 2 5.79086 2 8V16C2 18.2091 3.79086 20 6 20H18C20.2091 20 22 18.2091 22 16V8C22 5.79086 20.2091 4 18 4H6ZM4 8C4 6.89543 4.89543 6 6 6H10V18H6C4.89543 18 4 17.1046 4 16V8Z" fill="currentColor" style="fill:currentColor;fill-opacity:1;"/>
<path fill-rule="evenodd" clip-rule="evenodd" d="M7 10C6.30964 10 5.75 9.44036 5.75 8.75C5.75 8.05964 6.30964 7.5 7 7.5C7.69036 7.5 8.25 8.05964 8.25 8.75C8.25 9.44036 7.69036 10 7 10ZM7 13.25C6.30964 13.25 5.75 12.6904 5.75 12C5.75 11.3096 6.30964 10.75 7 10.75C7.69036 10.75 8.25 11.3096 8.25 12C8.25 12.6904 7.69036 13.25 7 13.25ZM7 16.5C6.30964 16.5 5.75 15.9404 5.75 15.25C5.75 14.5596 6.30964 14 7 14C7.69036 14 8.25 14.5596 8.25 15.25C8.25 15.9404 7.69036 16.5 7 16.5Z" fill="currentColor" style="fill:currentColor;fill-opacity:1;"/>
</svg>
