<svg width="24" height="24" viewBox="0 0 24 24" fill="none" xmlns="http://www.w3.org/2000/svg">
<path d="M20 6V18C20 20.2091 18.2091 22 16 22H8C5.79086 22 4 20.2091 4 18V8.24264C4 7.18178 4.42143 6.16436 5.17157 5.41421L7.41421 3.17157C8.16436 2.42143 9.18177 2 10.2426 2H11V7C11 7.55228 11.4477 8 12 8C12.5523 8 13 7.55228 13 7V2H15V7C15 7.55228 15.4477 8 16 8C16.5523 8 17 7.55228 17 7V2.12602C18.7252 2.57006 20 4.13616 20 6Z" fill="currentColor" style="fill:currentColor;fill-opacity:1;"/>
</svg>
