<svg width="24" height="24" viewBox="0 0 24 24" fill="none" xmlns="http://www.w3.org/2000/svg">
<path d="M10 13.5C10 13.2239 10.2239 13 10.5 13H13.5C13.7761 13 14 13.2239 14 13.5V15.5C14 15.7761 13.7761 16 13.5 16H10.5C10.2239 16 10 15.7761 10 15.5V13.5Z" fill="currentColor" style="fill:currentColor;fill-opacity:1;"/>
<path fill-rule="evenodd" clip-rule="evenodd" d="M4 6C4 3.79086 5.79086 2 8 2H12.3431C13.6692 2 14.941 2.52678 15.8787 3.46447L18.5355 6.12132C19.4732 7.059 20 8.33077 20 9.65685V18C20 20.2091 18.2091 22 16 22H8C5.79086 22 4 20.2091 4 18V6ZM10.5 11C9.11929 11 8 12.1193 8 13.5V15.5C8 16.8807 9.11929 18 10.5 18H13.5C14.8807 18 16 16.8807 16 15.5V13.5C16 12.1193 14.8807 11 13.5 11H10.5Z" fill="currentColor" style="fill:currentColor;fill-opacity:1;"/>
</svg>
