<svg width="24" height="24" viewBox="0 0 24 24" fill="none" xmlns="http://www.w3.org/2000/svg">
<path fill-rule="evenodd" clip-rule="evenodd" d="M2 6C2 3.79086 3.79086 2 6 2H14C16.2091 2 18 3.79086 18 6C20.2091 6 22 7.79086 22 10V18C22 20.2091 20.2091 22 18 22H10C7.79086 22 6 20.2091 6 18C3.79086 18 2 16.2091 2 14V6ZM16 6H10C7.79086 6 6 7.79086 6 10V16C4.89543 16 4 15.1046 4 14V6C4 4.89543 4.89543 4 6 4H14C15.1046 4 16 4.89543 16 6ZM15 11C15 10.4477 14.5523 10 14 10C13.4477 10 13 10.4477 13 11V13H11C10.4477 13 10 13.4477 10 14C10 14.5523 10.4477 15 11 15H13V17C13 17.5523 13.4477 18 14 18C14.5523 18 15 17.5523 15 17V15H17C17.5523 15 18 14.5523 18 14C18 13.4477 17.5523 13 17 13H15V11Z" fill="currentColor" style="fill:currentColor;fill-opacity:1;"/>
</svg>
