<svg width="24" height="24" viewBox="0 0 24 24" fill="none" xmlns="http://www.w3.org/2000/svg">
<path fill-rule="evenodd" clip-rule="evenodd" d="M17.4686 6.1611L17.2905 4.55827C17.0654 2.53254 15.3532 1 13.315 1H10.6852C8.64702 1 6.93476 2.53254 6.70968 4.55827L6.53161 6.16091C4.97445 7.61987 4 9.69573 4 12C4 14.3033 4.97339 16.3793 6.53125 17.8389L6.70934 19.4417C6.93442 21.4675 8.64667 23 10.6849 23H13.3146C15.3528 23 17.0651 21.4675 17.2901 19.4417L17.4682 17.8395C19.0264 16.3798 20 14.3036 20 12C20 9.69583 19.0256 7.62005 17.4686 6.1611ZM8.70671 4.70742C9.71195 4.25284 10.8275 4 12 4C13.1726 4 14.2882 4.25287 15.2935 4.7075C15.1495 3.73036 14.3099 3 13.315 3H10.6852C9.69031 3 8.85073 3.73032 8.70671 4.70742ZM15.2931 19.293C14.2888 19.7472 13.1739 20 12 20C10.8259 20 9.71084 19.7471 8.70639 19.2927C8.85046 20.2697 9.69001 21 10.6849 21H13.3146C14.3094 21 15.1489 20.2699 15.2931 19.293ZM12 8C12.5523 8 13 8.44772 13 9V11.5858L14.2071 12.7929C14.5976 13.1834 14.5976 13.8166 14.2071 14.2071C13.8166 14.5976 13.1834 14.5976 12.7929 14.2071L11.2929 12.7071C11.1054 12.5196 11 12.2652 11 12V9C11 8.44772 11.4477 8 12 8Z" fill="currentColor" style="fill:currentColor;fill-opacity:1;"/>
</svg>
