<svg width="24" height="24" viewBox="0 0 24 24" fill="none" xmlns="http://www.w3.org/2000/svg">
<path d="M6 3C4.34315 3 3 4.34315 3 6C3 7.41096 3.97406 8.59443 5.28642 8.91462L5.51731 11.2235C3.47982 11.8553 2 13.7548 2 16C2 18.7614 4.23858 21 7 21C9.261 21 11.1715 19.4993 11.7897 17.4396L15.0919 17.7398C15.4214 19.0389 16.5984 20 18 20C19.6569 20 21 18.6569 21 17C21 15.3431 19.6569 14 18 14C16.79 14 15.7474 14.7163 15.273 15.748L11.9698 15.4477C11.8901 14.7217 11.6548 14.0424 11.2982 13.444L16.5793 8.64295C17.0022 8.87074 17.486 9 18 9C19.6569 9 21 7.65685 21 6C21 4.34315 19.6569 3 18 3C16.3431 3 15 4.34315 15 6C15 6.41247 15.0832 6.80549 15.2338 7.16319L9.95251 11.9644C9.25348 11.4521 8.4164 11.1171 7.50748 11.0254L7.2765 8.71566C8.29502 8.23607 9 7.20036 9 6C9 4.34315 7.65685 3 6 3Z" fill="currentColor"/>
</svg>
