<svg width="24" height="24" viewBox="0 0 24 24" fill="none" xmlns="http://www.w3.org/2000/svg">
<path d="M10 6C9.44772 6 9 6.44772 9 7C9 7.55228 9.44772 8 10 8V6ZM14 8C14.5523 8 15 7.55228 15 7C15 6.44772 14.5523 6 14 6V8ZM8 4H16V2H8V4ZM18 6V18H20V6H18ZM16 20H8V22H16V20ZM6 18V6H4V18H6ZM8 20C6.89543 20 6 19.1046 6 18H4C4 20.2091 5.79086 22 8 22V20ZM18 18C18 19.1046 17.1046 20 16 20V22C18.2091 22 20 20.2091 20 18H18ZM16 4C17.1046 4 18 4.89543 18 6H20C20 3.79086 18.2091 2 16 2V4ZM8 2C5.79086 2 4 3.79086 4 6H6C6 4.89543 6.89543 4 8 4V2ZM14 14C14 15.1046 13.1046 16 12 16V18C14.2091 18 16 16.2091 16 14H14ZM12 16C10.8954 16 10 15.1046 10 14H8C8 16.2091 9.79086 18 12 18V16ZM10 14C10 12.8954 10.8954 12 12 12V10C9.79086 10 8 11.7909 8 14H10ZM12 12C13.1046 12 14 12.8954 14 14H16C16 11.7909 14.2091 10 12 10V12ZM10 8H14V6H10V8Z" fill="currentColor"/>
</svg>
