<svg width="24" height="24" viewBox="0 0 24 24" fill="none" xmlns="http://www.w3.org/2000/svg">
<path fill-rule="evenodd" clip-rule="evenodd" d="M3 6.5C3 4.567 4.567 3 6.5 3C7.05228 3 7.5 3.44772 7.5 4C7.5 4.55228 7.05228 5 6.5 5C5.67157 5 5 5.67157 5 6.5C5 7.05228 4.55228 7.5 4 7.5C3.44772 7.5 3 7.05228 3 6.5ZM9.5 4C9.5 3.44772 9.94772 3 10.5 3H13.5C14.0523 3 14.5 3.44772 14.5 4C14.5 4.55228 14.0523 5 13.5 5H10.5C9.94772 5 9.5 4.55228 9.5 4ZM16.5 4C16.5 3.44772 16.9477 3 17.5 3C19.433 3 21 4.567 21 6.5C21 7.05228 20.5523 7.5 20 7.5C19.4477 7.5 19 7.05228 19 6.5C19 5.67157 18.3284 5 17.5 5C16.9477 5 16.5 4.55228 16.5 4ZM4 9.5C4.55228 9.5 5 9.94772 5 10.5V13.5C5 14.0523 4.55228 14.5 4 14.5C3.44772 14.5 3 14.0523 3 13.5V10.5C3 9.94772 3.44772 9.5 4 9.5ZM20 9.5C20.5523 9.5 21 9.94772 21 10.5V13.5C21 14.0523 20.5523 14.5 20 14.5C19.4477 14.5 19 14.0523 19 13.5V10.5C19 9.94772 19.4477 9.5 20 9.5ZM4 16.5C4.55228 16.5 5 16.9477 5 17.5C5 18.3284 5.67157 19 6.5 19C7.05228 19 7.5 19.4477 7.5 20C7.5 20.5523 7.05228 21 6.5 21C4.567 21 3 19.433 3 17.5C3 16.9477 3.44772 16.5 4 16.5ZM20 16.5C20.5523 16.5 21 16.9477 21 17.5C21 19.433 19.433 21 17.5 21C16.9477 21 16.5 20.5523 16.5 20C16.5 19.4477 16.9477 19 17.5 19C18.3284 19 19 18.3284 19 17.5C19 16.9477 19.4477 16.5 20 16.5ZM9.5 20C9.5 19.4477 9.94772 19 10.5 19H13.5C14.0523 19 14.5 19.4477 14.5 20C14.5 20.5523 14.0523 21 13.5 21H10.5C9.94772 21 9.5 20.5523 9.5 20Z" fill="currentColor" style="fill:currentColor;fill-opacity:1;"/>
<path d="M7 9C7 7.89543 7.89543 7 9 7H15C16.1046 7 17 7.89543 17 9V15C17 16.1046 16.1046 17 15 17H9C7.89543 17 7 16.1046 7 15V9Z" fill="currentColor" style="fill:currentColor;fill-opacity:1;"/>
</svg>
