<svg width="24" height="24" viewBox="0 0 24 24" fill="none" xmlns="http://www.w3.org/2000/svg">
<path fill-rule="evenodd" clip-rule="evenodd" d="M16 8V5.25C16 3.45508 14.5449 2 12.75 2H5.25C3.45507 2 2 3.45507 2 5.25V12.75C2 14.5449 3.45508 16 5.25 16H8V18.75C8 20.5449 9.45508 22 11.25 22H18.75C20.5449 22 22 20.5449 22 18.75V11.25C22 9.45508 20.5449 8 18.75 8H16ZM12.75 16C14.5449 16 16 14.5449 16 12.75V10H18.75C19.4404 10 20 10.5596 20 11.25V18.75C20 19.4404 19.4404 20 18.75 20H11.25C10.5596 20 10 19.4404 10 18.75V16H12.75Z" fill="currentColor" style="fill:currentColor;fill-opacity:1;"/>
</svg>
