<svg width="24" height="24" viewBox="0 0 24 24" fill="none" xmlns="http://www.w3.org/2000/svg">
<path fill-rule="evenodd" clip-rule="evenodd" d="M6 3C4.34315 3 3 4.34315 3 6V6.17157C3 6.96722 3.31607 7.73028 3.87868 8.29289C4.2692 8.68342 4.2692 9.31658 3.87868 9.70711C3.31607 10.2697 3 11.0328 3 11.8284V12.1716C3 12.9672 3.31607 13.7303 3.87868 14.2929C4.2692 14.6834 4.2692 15.3166 3.87868 15.7071C3.31607 16.2697 3 17.0328 3 17.8284V18C3 19.6569 4.34315 21 6 21H6.17157C6.96722 21 7.73028 20.6839 8.29289 20.1213C8.68342 19.7308 9.31658 19.7308 9.70711 20.1213C10.2697 20.6839 11.0328 21 11.8284 21H12.1716C12.9672 21 13.7303 20.6839 14.2929 20.1213C14.6834 19.7308 15.3166 19.7308 15.7071 20.1213C16.2697 20.6839 17.0328 21 17.8284 21H18C19.6569 21 21 19.6569 21 18V17.8284C21 17.0328 20.6839 16.2697 20.1213 15.7071C19.7308 15.3166 19.7308 14.6834 20.1213 14.2929C20.6839 13.7303 21 12.9672 21 12.1716V11.8284C21 11.0328 20.6839 10.2697 20.1213 9.70711C19.7308 9.31658 19.7308 8.68342 20.1213 8.29289C20.6839 7.73028 21 6.96722 21 6.17157V6C21 4.34315 19.6569 3 18 3H17.8284C17.0328 3 16.2697 3.31607 15.7071 3.87868C15.3166 4.2692 14.6834 4.2692 14.2929 3.87868C13.7303 3.31607 12.9672 3 12.1716 3H11.8284C11.0328 3 10.2697 3.31607 9.70711 3.87868C9.31658 4.2692 8.68342 4.2692 8.29289 3.87868C7.73028 3.31607 6.96722 3 6.17157 3H6ZM6.11112 15.6009C5.99777 16.158 5.72502 16.6892 5.29289 17.1213C5.10536 17.3089 5 17.5632 5 17.8284V18C5 18.5523 5.44772 19 6 19H6.17157C6.43679 19 6.69114 18.8946 6.87868 18.7071C8.05025 17.5355 9.94975 17.5355 11.1213 18.7071C11.3089 18.8946 11.5632 19 11.8284 19H12.1716C12.4368 19 12.6911 18.8946 12.8787 18.7071C14.0503 17.5355 15.9497 17.5355 17.1213 18.7071C17.3089 18.8946 17.5632 19 17.8284 19H18C18.5523 19 19 18.5523 19 18V17.8284C19 17.5632 18.8946 17.3089 18.7071 17.1213C18.4851 16.8993 18.3052 16.6512 18.1673 16.3869C16.3607 16.6904 14.8808 16.3386 13.5816 15.8623C13.1531 15.7052 12.739 15.5326 12.3521 15.3714L12.2806 15.3416C11.8657 15.1688 11.4823 15.0106 11.1005 14.8763C10.3439 14.6101 9.64899 14.4588 8.91243 14.5098C8.14663 14.5628 7.24177 14.8419 6.11112 15.6009ZM8.77427 12.5146C8.69662 12.52 8.61877 12.5269 8.54067 12.5353C8.51389 12.3608 8.5 12.182 8.5 12C8.5 10.067 10.067 8.5 12 8.5C13.933 8.5 15.5 10.067 15.5 12C15.5 12.8118 15.2236 13.559 14.7599 14.1527C14.5956 14.1006 14.4325 14.0441 14.2701 13.9846C13.8836 13.8429 13.5065 13.6858 13.1107 13.5208L13.0497 13.4954C12.6391 13.3244 12.2065 13.1452 11.7642 12.9896C10.8727 12.676 9.88757 12.4375 8.77427 12.5146Z" fill="currentColor" style="fill:currentColor;fill-opacity:1;"/>
</svg>
