<svg width="25" height="24" viewBox="0 0 25 24" fill="none" xmlns="http://www.w3.org/2000/svg">
<path d="M9.5115 15.4668L5.3615 21M18.2975 9.42811L21.4465 12.5812C22.0234 13.1589 21.7023 14.1472 20.896 14.2754L16.4951 14.9753C16.1794 15.0255 15.9067 15.2236 15.7614 15.5084L13.7358 19.4776C13.3646 20.2048 12.3255 20.2048 11.9544 19.4776L9.92873 15.5084C9.78343 15.2236 9.51077 15.0255 9.19508 14.9753L4.79416 14.2754C3.98782 14.1472 3.6667 13.1589 4.24367 12.5812L7.39268 9.42811C7.61856 9.20194 7.72271 8.88141 7.67291 8.56566L6.97862 4.16384C6.85141 3.35733 7.6921 2.74654 8.41983 3.11675L12.3917 5.13729C12.6766 5.28222 13.0136 5.28222 13.2985 5.13729L17.2703 3.11675C17.998 2.74654 18.8387 3.35733 18.7115 4.16384L18.0172 8.56566C17.9674 8.88141 18.0716 9.20194 18.2975 9.42811Z" stroke="currentColor" style="stroke:currentColor;stroke-opacity:1;" stroke-width="2" stroke-linecap="round" stroke-linejoin="round"/>
</svg>
