<svg width="24" height="24" viewBox="0 0 24 24" fill="none" xmlns="http://www.w3.org/2000/svg">
<path d="M2.05312 8.28014C3.06809 5.4403 5.38992 3.50935 7.97577 3.49414L8.02243 3.71071C9.24135 9.36795 8.04996 15.3379 4.19589 18.4692C3.22695 17.4854 2.4524 16.1224 1.91075 14.3314C1.31802 12.3714 1.36792 10.1973 2.05312 8.28014Z" fill="currentColor" style="fill:currentColor;fill-opacity:1;"/>
<path d="M6.55112 20.0133C6.3084 19.9207 6.07223 19.8146 5.84288 19.6946C7.46493 18.2583 8.62875 16.4267 9.38443 14.3893C11.0671 14.1852 12.6787 14.023 14.2684 14.4015C15.7478 14.7537 17.2782 15.5966 18.7737 17.5212C16.9262 18.7324 14.7276 19.4902 13.0407 19.9499C10.8834 20.5379 8.5871 20.7904 6.55112 20.0133Z" fill="currentColor" style="fill:currentColor;fill-opacity:1;"/>
<path d="M20.3425 16.2807C21.8175 14.8539 22.8024 12.9298 22.4166 10.4326L22.4087 10.3816L22.3956 10.3318C22.0165 8.88525 21.5217 7.84256 20.8522 7.13021C20.1505 6.38351 19.342 6.08894 18.5446 5.97861C18.0333 5.90786 17.447 5.91018 16.9277 5.91223C16.7275 5.91302 16.5373 5.91377 16.3652 5.91028C15.6789 5.89637 15.028 5.82868 14.3644 5.56898L10.1035 3.91765C10.6179 6.68989 10.6171 9.60908 10.0028 12.304C11.4628 12.1479 13.0897 12.0649 14.7316 12.4559C16.6883 12.9217 18.594 14.0364 20.3425 16.2807Z" fill="currentColor" style="fill:currentColor;fill-opacity:1;"/>
</svg>
