<svg width="24" height="24" viewBox="0 0 24 24" fill="none" xmlns="http://www.w3.org/2000/svg">
<path d="M14 12C15.1046 12 16 11.1046 16 10C16 8.89543 15.1046 8 14 8M14 12C13.4477 12 12.9477 11.7761 12.5858 11.4142M14 12V20M14 8C12.8954 8 12 8.89543 12 10C12 10.5523 12.2239 11.0523 12.5858 11.4142M14 8V4M14 4H7C5.34315 4 4 5.34315 4 7V17C4 18.6569 5.34315 20 7 20H14M14 4H17C18.6569 4 20 5.34315 20 7V17C20 18.6569 18.6569 20 17 20H14M12.5858 11.4142L9 15L7 13L4.5 15.5" stroke="currentColor" stroke-width="2" stroke-linecap="round" stroke-linejoin="round"/>
</svg>
