<svg width="24" height="24" viewBox="0 0 24 24" fill="none" xmlns="http://www.w3.org/2000/svg">
<path fill-rule="evenodd" clip-rule="evenodd" d="M2 8C2 5.79086 3.79086 4 6 4H18C20.2091 4 22 5.79086 22 8V16C22 18.2091 20.2091 20 18 20H6C3.79086 20 2 18.2091 2 16V8ZM17.75 9.5C18.4404 9.5 19 8.94036 19 8.25C19 7.55964 18.4404 7 17.75 7C17.0596 7 16.5 7.55964 16.5 8.25C16.5 8.94036 17.0596 9.5 17.75 9.5ZM14.5 11C14.5 12.3807 13.3807 13.5 12 13.5C10.6193 13.5 9.5 12.3807 9.5 11C9.5 9.61929 10.6193 8.5 12 8.5C13.3807 8.5 14.5 9.61929 14.5 11ZM7.80931 17.0613C8.38962 16.0888 9.78652 15 12 15C14.2135 15 15.6104 16.0888 16.1907 17.0613C16.4737 17.5356 16.0523 18 15.5 18H8.5C7.94772 18 7.52631 17.5356 7.80931 17.0613Z" fill="currentColor" style="fill:currentColor;fill-opacity:1;"/>
</svg>
