<svg width="24" height="24" viewBox="0 0 24 24" fill="none" xmlns="http://www.w3.org/2000/svg">
<path d="M9.50094 12.5L10.6474 13.6464C10.8427 13.8417 11.1592 13.8417 11.3545 13.6464L14.501 10.5M8.54899 4.99923L7.33831 4.80718C6.38438 4.65585 5.51718 5.38352 5.50056 6.34923L5.47946 7.57487C5.47002 8.123 5.17872 8.62755 4.70875 8.90978L3.65786 9.54087C2.82984 10.0381 2.63326 11.153 3.24128 11.9034L4.01294 12.8559C4.35804 13.2818 4.45921 13.8556 4.28061 14.3739L3.88124 15.5328C3.56657 16.446 4.13259 17.4264 5.08075 17.6104L6.2841 17.8441C6.82226 17.9485 7.26856 18.323 7.4649 18.8349L7.90392 19.9794C8.24983 20.8812 9.31361 21.2683 10.1583 20.7999L11.2302 20.2053C11.7096 19.9394 12.2922 19.9394 12.7717 20.2053L13.8436 20.7999C14.6883 21.2683 15.7521 20.8812 16.098 19.9794L16.537 18.8349C16.7333 18.323 17.1796 17.9485 17.7178 17.8441L18.9211 17.6104C19.8693 17.4264 20.4353 16.446 20.1207 15.5328L19.7213 14.3739C19.5427 13.8556 19.6439 13.2818 19.989 12.8559L20.7606 11.9034C21.3686 11.153 21.1721 10.0381 20.344 9.54087L19.2931 8.90978C18.8232 8.62755 18.5319 8.123 18.5224 7.57487L18.5013 6.34923C18.4847 5.38352 17.6175 4.65585 16.6636 4.80718L15.4529 4.99923C14.9115 5.08512 14.364 4.88585 14.0044 4.47203L13.2005 3.5467C12.567 2.8176 11.4349 2.81761 10.8014 3.5467L9.99745 4.47203C9.6379 4.88585 9.09043 5.08512 8.54899 4.99923Z" stroke="currentColor" stroke-width="2" stroke-linecap="round"/>
</svg>
