<svg width="24" height="24" viewBox="0 0 24 24" fill="none" xmlns="http://www.w3.org/2000/svg">
<path fill-rule="evenodd" clip-rule="evenodd" d="M9.664 2.86996C10.9674 1.6091 13.0358 1.6091 14.3392 2.86996C14.6411 3.16206 15.0609 3.29847 15.4769 3.23964C17.2725 2.98567 18.9459 4.20148 19.2592 5.98763C19.3318 6.40142 19.5912 6.75855 19.9624 6.95545C21.5643 7.80538 22.2035 9.7726 21.4071 11.4018C21.2226 11.7792 21.2226 12.2207 21.4071 12.5981C22.2035 14.2273 21.5643 16.1945 19.9624 17.0444C19.5912 17.2413 19.3318 17.5985 19.2592 18.0122C18.9459 19.7984 17.2725 21.0142 15.4769 20.7602C15.0609 20.7014 14.6411 20.8378 14.3392 21.1299C13.0358 22.3908 10.9674 22.3908 9.664 21.1299C9.36207 20.8378 8.94223 20.7014 8.52626 20.7602C6.73071 21.0142 5.05729 19.7984 4.74398 18.0122C4.67139 17.5985 4.41192 17.2413 4.04082 17.0444C2.43891 16.1945 1.79972 14.2273 2.59611 12.5981C2.78061 12.2207 2.78061 11.7792 2.59611 11.4018C1.79972 9.7726 2.43891 7.80538 4.04082 6.95545C4.41192 6.75855 4.67139 6.40142 4.74398 5.98763C5.05729 4.20148 6.73071 2.98567 8.52626 3.23964C8.94223 3.29847 9.36207 3.16206 9.664 2.86996ZM12.6741 8.11268C12.399 7.55524 11.6041 7.55524 11.329 8.11268L10.6332 9.52269C10.5239 9.74405 10.3127 9.89747 10.0684 9.93297L8.51241 10.1591C7.89725 10.2485 7.65161 11.0044 8.09675 11.4383L9.22271 12.5359C9.39948 12.7082 9.48014 12.9564 9.43841 13.1997L9.17261 14.7495C9.06752 15.3622 9.7106 15.8294 10.2608 15.5401L11.6526 14.8084C11.8711 14.6936 12.1321 14.6936 12.3506 14.8084L13.7424 15.5401C14.2926 15.8294 14.9356 15.3622 14.8306 14.7495L14.5648 13.1997C14.523 12.9564 14.6037 12.7082 14.7805 12.5359L15.9064 11.4383C16.3516 11.0044 16.1059 10.2485 15.4908 10.1591L13.9347 9.93297C13.6904 9.89747 13.4793 9.74405 13.37 9.52269L12.6741 8.11268Z" fill="currentColor" style="fill:currentColor;fill-opacity:1;"/>
</svg>
