<svg width="24" height="24" viewBox="0 0 24 24" fill="none" xmlns="http://www.w3.org/2000/svg">
<path fill-rule="evenodd" clip-rule="evenodd" d="M4 5C4.55228 5 5 5.44772 5 6V14C5 15.1046 5.89543 16 7 16H17V15C17 14.6156 17.2203 14.2652 17.5668 14.0987C17.9133 13.9322 18.3245 13.979 18.6247 14.2191L21.1247 16.2191C21.3619 16.4089 21.5 16.6962 21.5 17C21.5 17.3038 21.3619 17.5911 21.1247 17.7809L18.6247 19.7809C18.3245 20.021 17.9133 20.0678 17.5668 19.9013C17.2203 19.7348 17 19.3844 17 19V18H7C4.79086 18 3 16.2091 3 14V6C3 5.44772 3.44772 5 4 5ZM8 7C8 6.44772 8.44772 6 9 6H17C17.5523 6 18 6.44772 18 7C18 7.55228 17.5523 8 17 8H9C8.44772 8 8 7.55228 8 7ZM8 12C8 11.4477 8.44772 11 9 11H13C13.5523 11 14 11.4477 14 12C14 12.5523 13.5523 13 13 13H9C8.44772 13 8 12.5523 8 12Z" fill="currentColor" style="fill:currentColor;fill-opacity:1;"/>
</svg>
