<svg width="24" height="24" viewBox="0 0 24 24" fill="none" xmlns="http://www.w3.org/2000/svg">
<path d="M4.29593 18.5293C2.32869 9.85304 10.6849 14.0439 14.794 18.8662C14.4625 18.849 14.1744 18.7949 13.9668 18.7217C13.8798 18.691 13.8255 18.6648 13.7959 18.6484C13.3725 18.0853 12.7085 17.7501 11.9991 17.75C11.2888 17.75 10.6226 18.0851 10.1993 18.6494C10.1692 18.6658 10.116 18.6918 10.0313 18.7217C9.7819 18.8097 9.4167 18.875 8.99905 18.875C8.58146 18.875 8.21625 18.8097 7.96683 18.7217C7.87981 18.691 7.8255 18.6648 7.79593 18.6484C7.37252 18.0853 6.7085 17.7501 5.99905 17.75C5.34072 17.75 4.72029 18.0379 4.29593 18.5293Z" fill="currentColor"/>
<path d="M7.07816 8.18457C9.2839 7.00756 12.128 6.0134 14.4991 7.00586C15.6523 7.48863 16.0049 8.24776 16.9991 9.00586C17.7478 9.57681 18.9146 10.1362 19.795 10.5176C20.4404 10.7974 20.7565 11.5505 20.4707 12.1934C20.2067 12.7869 19.5226 13.0692 18.917 12.834L15.4991 11.5059L14.4991 13.5059L16.8076 15.8145C17.2438 16.2508 17.4545 16.8643 17.378 17.4766L17.3301 17.8555C16.9702 17.9677 16.6414 18.1658 16.378 18.4395C15.4734 17.2849 14.35 16.1675 13.168 15.21C12.0198 14.2798 10.7538 13.4461 9.5098 12.8623C9.53889 12.569 9.63174 12.2844 9.78421 12.0303L10.9991 10.0059C10.9874 10.0051 10.078 9.94597 9.49905 10.0059C9.09726 10.0474 8.63723 10.169 8.20023 10.3135C7.39615 10.5792 6.49927 10.0148 6.49905 9.16797C6.49906 8.75852 6.71695 8.37737 7.07816 8.18457Z" fill="currentColor"/>
<path d="M15.2491 2C16.4917 2 17.4991 3.00736 17.4991 4.25C17.4991 5.49264 16.4917 6.5 15.2491 6.5C14.0065 6.49994 12.9991 5.4926 12.9991 4.25C12.9991 3.0074 14.0065 2.00006 15.2491 2Z" fill="currentColor"/>
<path d="M17.9991 19.0996C18.2999 19.0997 18.5812 19.2507 18.7481 19.501C19.0339 19.9295 19.513 20.1156 20.0567 20.166C20.32 20.1904 20.5649 20.1782 20.7451 20.1592C20.834 20.1498 20.9042 20.1396 20.9493 20.1318C20.9715 20.128 20.9874 20.1248 20.9961 20.123C20.9987 20.1225 21.002 20.1211 21.002 20.1211C21.4858 20.0126 21.9662 20.3169 22.0762 20.8008C22.1863 21.2854 21.8831 21.7678 21.3985 21.8779H21.3955L21.3916 21.8789C21.3889 21.8795 21.3856 21.8801 21.3819 21.8809C21.3741 21.8825 21.3636 21.8853 21.3516 21.8877C21.3276 21.8925 21.2954 21.8984 21.2559 21.9053C21.1768 21.919 21.0674 21.9362 20.9346 21.9502C20.6711 21.978 20.3024 21.9971 19.8907 21.959C19.3209 21.9062 18.5952 21.7324 17.9659 21.2578C17.6868 21.4423 17.3831 21.5854 17.0801 21.6924C16.4362 21.9196 15.7069 22.0254 14.9991 22.0254C14.2911 22.0254 13.562 21.9197 12.918 21.6924C12.603 21.5812 12.2861 21.4327 11.9981 21.2373C11.7104 21.4322 11.3946 21.5814 11.0801 21.6924C10.4362 21.9196 9.7069 22.0254 8.99905 22.0254C8.29114 22.0254 7.56198 21.9197 6.918 21.6924C6.61479 21.5854 6.31059 21.4425 6.03128 21.2578C5.40197 21.7322 4.67616 21.9062 4.10648 21.959C3.69492 21.9971 3.32695 21.978 3.06351 21.9502C2.93073 21.9362 2.82134 21.919 2.74222 21.9053C2.70283 21.8985 2.67046 21.8925 2.64652 21.8877C2.63451 21.8853 2.62405 21.8825 2.61624 21.8809C2.6125 21.8801 2.60922 21.8795 2.60648 21.8789L2.60257 21.8779H2.59964L2.51077 21.8525C2.07852 21.7071 1.81784 21.2551 1.92093 20.8008C2.03084 20.3172 2.51156 20.0131 2.99515 20.1211C2.99515 20.1211 2.99882 20.1224 3.00198 20.123C3.01079 20.1248 3.02675 20.128 3.04886 20.1318C3.09392 20.1396 3.16415 20.1498 3.25296 20.1592C3.43309 20.1782 3.67739 20.1903 3.94046 20.166C4.48423 20.1157 4.96414 19.9297 5.25003 19.501L5.31741 19.4121C5.48715 19.2153 5.73556 19.0996 5.99905 19.0996C6.2999 19.0997 6.5812 19.2507 6.74808 19.501C6.8494 19.6527 7.08613 19.8428 7.51761 19.9951C7.93606 20.1427 8.45715 20.2246 8.99905 20.2246C9.54104 20.2246 10.062 20.1428 10.4805 19.9951C10.9121 19.8428 11.1488 19.6528 11.25 19.501L11.3174 19.4121C11.4871 19.2153 11.7356 19.0996 11.9991 19.0996C12.2999 19.0997 12.5812 19.2507 12.7481 19.501C12.8494 19.6527 13.0861 19.8428 13.5176 19.9951C13.9361 20.1427 14.4572 20.2246 14.9991 20.2246C15.541 20.2246 16.062 20.1428 16.4805 19.9951C16.9121 19.8428 17.1488 19.6528 17.25 19.501L17.3174 19.4121C17.4871 19.2153 17.7356 19.0996 17.9991 19.0996Z" fill="currentColor"/>
</svg>
