<svg width="24" height="24" viewBox="0 0 24 24" fill="none" xmlns="http://www.w3.org/2000/svg">
<path fill-rule="evenodd" clip-rule="evenodd" d="M12 5C11.8046 5 11.6108 5.00416 11.4187 5.0124C10.6621 5.04488 10 5.73934 10 6.72369V18H14V6.72369C14 5.73934 13.3379 5.04488 12.5813 5.0124C12.3892 5.00416 12.1954 5 12 5ZM7 20C4.79086 20 3 18.2091 3 16V15.7238C2.72194 15.7502 2.40839 15.7244 2.09746 15.5781C1.5965 15.3423 1.3254 14.9019 1.18463 14.4748C1.04798 14.0601 1 13.5653 1 13.0217C1 8.42745 4.4141 5.33252 8.78023 4.34891L8.78362 4.364C9.36285 3.59714 10.2394 3.06118 11.333 3.01424C11.5538 3.00477 11.7762 3 12 3C12.2238 3 12.4462 3.00477 12.667 3.01424C13.7606 3.06118 14.6372 3.59714 15.2164 4.364L15.2198 4.34891C19.5859 5.33252 23 8.42745 23 13.0217C23 13.5653 22.952 14.0601 22.8154 14.4748C22.6746 14.9019 22.4035 15.3423 21.9025 15.5781C21.5916 15.7244 21.2781 15.7502 21 15.7238V16C21 18.2091 19.2091 20 17 20H7ZM19 14.8803V16C19 17.1046 18.1046 18 17 18H16V13.1257C16.4437 13.3404 16.8758 13.5808 17.2951 13.8295C17.6068 14.0144 17.9379 14.2213 18.2632 14.4245C18.5163 14.5827 18.7659 14.7387 19 14.8803ZM8 13.1257C7.55628 13.3404 7.12415 13.5808 6.70488 13.8295C6.39321 14.0144 6.06209 14.2213 5.73685 14.4245C5.48368 14.5827 5.23407 14.7387 5 14.8803V16C5 17.1046 5.89543 18 7 18H8V13.1257Z" fill="currentColor" style="fill:currentColor;fill-opacity:1;"/>
</svg>
