<svg width="24" height="24" viewBox="0 0 24 24" fill="none" xmlns="http://www.w3.org/2000/svg">
<path d="M16.5547 3.16795C16.334 3.02084 16.064 2.96741 15.8039 3.01942C15.5438 3.07144 15.3151 3.22463 15.1679 3.4453L13.1679 6.4453C12.8616 6.90483 12.9858 7.5257 13.4453 7.83205C13.9048 8.13841 14.5257 8.01423 14.8321 7.5547L15.5252 6.51501C15.8932 8.02399 15.3856 9.20025 14.5755 10.1723C13.7367 11.1789 12.6314 11.8962 11.8189 12.4235C11.6857 12.5099 11.5603 12.5913 11.4453 12.668C10.9858 12.9743 10.8616 13.5952 11.1679 14.0547C11.4743 14.5142 12.0952 14.6384 12.5547 14.3321C12.644 14.2725 12.75 14.2042 12.8695 14.1272C13.6649 13.6146 15.0591 12.7162 16.112 11.4527C17.2027 10.1439 17.981 8.38119 17.5071 6.20659L18.4453 6.83206C18.9048 7.13842 19.5257 7.01424 19.8321 6.55472C20.1384 6.09519 20.0142 5.47432 19.5547 5.16796L16.5547 3.16795Z" fill="currentColor" style="fill:currentColor;fill-opacity:1;"/>
<path d="M4.70711 5.29291C4.31658 4.90238 3.68342 4.90238 3.29289 5.29291C2.90237 5.68343 2.90237 6.3166 3.29289 6.70712L4.58579 8.00001L3.29289 9.29291C2.90237 9.68343 2.90237 10.3166 3.29289 10.7071C3.68342 11.0976 4.31658 11.0976 4.70711 10.7071L6 9.41423L7.29289 10.7071C7.68342 11.0976 8.31658 11.0976 8.70711 10.7071C9.09763 10.3166 9.09763 9.68343 8.70711 9.29291L7.41421 8.00001L8.70711 6.70712C9.09763 6.3166 9.09763 5.68343 8.70711 5.29291C8.31658 4.90238 7.68342 4.90238 7.29289 5.29291L6 6.5858L4.70711 5.29291Z" fill="currentColor" style="fill:currentColor;fill-opacity:1;"/>
<path d="M6.5 14C4.567 14 3 15.567 3 17.5C3 19.433 4.567 21 6.5 21C8.433 21 10 19.433 10 17.5C10 15.567 8.433 14 6.5 14Z" fill="currentColor" style="fill:currentColor;fill-opacity:1;"/>
<path d="M20.7071 15.2929C20.3166 14.9024 19.6834 14.9024 19.2929 15.2929L18 16.5858L16.7071 15.2929C16.3166 14.9024 15.6834 14.9024 15.2929 15.2929C14.9024 15.6834 14.9024 16.3166 15.2929 16.7071L16.5858 18L15.2929 19.2929C14.9024 19.6834 14.9024 20.3166 15.2929 20.7071C15.6834 21.0976 16.3166 21.0976 16.7071 20.7071L18 19.4142L19.2929 20.7071C19.6834 21.0976 20.3166 21.0976 20.7071 20.7071C21.0976 20.3166 21.0976 19.6834 20.7071 19.2929L19.4142 18L20.7071 16.7071C21.0976 16.3166 21.0976 15.6834 20.7071 15.2929Z" fill="currentColor" style="fill:currentColor;fill-opacity:1;"/>
</svg>
