<svg width="24" height="24" viewBox="0 0 24 24" fill="none" xmlns="http://www.w3.org/2000/svg">
<path fill-rule="evenodd" clip-rule="evenodd" d="M17.2929 3.29289C17.6834 2.90237 18.3166 2.90237 18.7071 3.29289L20.7071 5.29289C21.0976 5.68342 21.0976 6.31658 20.7071 6.70711L18.7071 8.70711C18.3166 9.09763 17.6834 9.09763 17.2929 8.70711C16.9024 8.31658 16.9024 7.68342 17.2929 7.29289L17.5858 7H15C13.8954 7 13 7.89543 13 9V15C13 17.2091 11.2091 19 9 19H8.82929C8.41746 20.1652 7.30622 21 6 21C4.34315 21 3 19.6569 3 18C3 16.3431 4.34315 15 6 15C7.30622 15 8.41746 15.8348 8.82929 17H9C10.1046 17 11 16.1046 11 15V9C11 6.79086 12.7909 5 15 5H17.5858L17.2929 4.70711C16.9024 4.31658 16.9024 3.68342 17.2929 3.29289ZM3.54289 3.54289C3.93342 3.15237 4.56658 3.15237 4.95711 3.54289L6 4.58579L7.04289 3.54289C7.43342 3.15237 8.06658 3.15237 8.45711 3.54289C8.84763 3.93342 8.84763 4.56658 8.45711 4.95711L7.41421 6L8.45711 7.04289C8.84763 7.43342 8.84763 8.06658 8.45711 8.45711C8.06658 8.84763 7.43342 8.84763 7.04289 8.45711L6 7.41421L4.95711 8.45711C4.56658 8.84763 3.93342 8.84763 3.54289 8.45711C3.15237 8.06658 3.15237 7.43342 3.54289 7.04289L4.58579 6L3.54289 4.95711C3.15237 4.56658 3.15237 3.93342 3.54289 3.54289ZM15.5429 15.5429C15.9334 15.1524 16.5666 15.1524 16.9571 15.5429L18 16.5858L19.0429 15.5429C19.4334 15.1524 20.0666 15.1524 20.4571 15.5429C20.8476 15.9334 20.8476 16.5666 20.4571 16.9571L19.4142 18L20.4571 19.0429C20.8476 19.4334 20.8476 20.0666 20.4571 20.4571C20.0666 20.8476 19.4334 20.8476 19.0429 20.4571L18 19.4142L16.9571 20.4571C16.5666 20.8476 15.9334 20.8476 15.5429 20.4571C15.1524 20.0666 15.1524 19.4334 15.5429 19.0429L16.5858 18L15.5429 16.9571C15.1524 16.5666 15.1524 15.9334 15.5429 15.5429Z" fill="currentColor" style="fill:currentColor;fill-opacity:1;"/>
</svg>
