<svg width="24" height="24" viewBox="0 0 24 24" fill="none" xmlns="http://www.w3.org/2000/svg">
<path d="M12 2C10.067 2 8.5 3.567 8.5 5.5C8.5 7.433 10.067 9 12 9C13.933 9 15.5 7.433 15.5 5.5C15.5 3.567 13.933 2 12 2Z" fill="currentColor" style="fill:currentColor;fill-opacity:1;"/>
<path d="M5 9.5C5 8.94772 4.55228 8.5 4 8.5C3.44772 8.5 3 8.94772 3 9.5V11C2.44772 11 2 11.4477 2 12C2 12.5523 2.44772 13 3 13V17C3 19.2091 4.79086 21 7 21H17C19.2091 21 21 19.2091 21 17V13C21.5523 13 22 12.5523 22 12C22 11.4477 21.5523 11 21 11H15.6698C14.7685 10.0637 13.484 9.5 12 9.5C10.516 9.5 9.23148 10.0637 8.3302 11H7.5V9.5C7.5 8.94772 7.05228 8.5 6.5 8.5C5.94772 8.5 5.5 8.94772 5.5 9.5V11H5V9.5Z" fill="currentColor" style="fill:currentColor;fill-opacity:1;"/>
</svg>
