<svg width="24" height="24" viewBox="0 0 24 24" fill="none" xmlns="http://www.w3.org/2000/svg">
<path d="M2 7C2 4.79086 3.79086 3 6 3H18C20.2091 3 22 4.79086 22 7V13C22 15.2091 20.2091 17 18 17H6C3.79086 17 2 15.2091 2 13V7Z" fill="currentColor" style="fill:currentColor;fill-opacity:1;"/>
<path d="M6.32554 20.9456C8.10859 20.3323 10.0161 20 12.0003 20C13.9845 20 15.892 20.3323 17.675 20.9456C18.1973 21.1253 18.7663 20.8475 18.9459 20.3253C19.1255 19.803 18.8478 19.234 18.3255 19.0544C16.3366 18.3702 14.2094 18 12.0003 18C9.79115 18 7.66398 18.3702 5.675 19.0544C5.15275 19.234 4.87501 19.803 5.05465 20.3253C5.23429 20.8475 5.80329 21.1253 6.32554 20.9456Z" fill="currentColor" style="fill:currentColor;fill-opacity:1;"/>
</svg>
