<svg width="25" height="24" viewBox="0 0 25 24" fill="none" xmlns="http://www.w3.org/2000/svg">
<path fill-rule="evenodd" clip-rule="evenodd" d="M12.75 9C11.6454 9 10.75 9.89543 10.75 11V19C10.75 20.1046 11.6454 21 12.75 21H20.75C21.8546 21 22.75 20.1046 22.75 19V11C22.75 9.89543 21.8546 9 20.75 9H12.75ZM20.75 17L20.1642 16.4142C19.3832 15.6332 18.1168 15.6332 17.3358 16.4142L14.75 19H19.75C20.3023 19 20.75 18.5523 20.75 18V17ZM15 14.5C15.6904 14.5 16.25 13.9404 16.25 13.25C16.25 12.5596 15.6904 12 15 12C14.3096 12 13.75 12.5596 13.75 13.25C13.75 13.9404 14.3096 14.5 15 14.5Z" fill="currentColor" style="fill:currentColor;fill-opacity:1;"/>
<path d="M21.5052 2.15769C21.4001 1.94744 21.1 1.94744 20.9949 2.15769C20.3405 3.46646 20.2165 3.5905 18.9077 4.24488C18.6974 4.35001 18.6974 4.65005 18.9077 4.75518C20.2165 5.40956 20.3405 5.5336 20.9949 6.84237C21.1 7.05262 21.4001 7.05262 21.5052 6.84237C22.1596 5.5336 22.2836 5.40956 23.5924 4.75518C23.8026 4.65005 23.8026 4.35001 23.5924 4.24488C22.2836 3.5905 22.1596 3.46646 21.5052 2.15769Z" fill="currentColor" style="fill:currentColor;fill-opacity:1;"/>
<path d="M16.0145 4.16345C15.9055 3.94552 15.5945 3.94552 15.4855 4.16345C14.9999 5.13469 14.8847 5.24991 13.9135 5.73553C13.6955 5.8445 13.6955 6.1555 13.9135 6.26447C14.8847 6.75009 14.9999 6.86532 15.4855 7.83655C15.5945 8.05448 15.9055 8.05448 16.0145 7.83655C16.5001 6.86532 16.6153 6.75009 17.5865 6.26447C17.8045 6.1555 17.8045 5.8445 17.5865 5.73553C16.6153 5.24991 16.5001 5.13468 16.0145 4.16345Z" fill="currentColor" style="fill:currentColor;fill-opacity:1;"/>
<path d="M5.50514 16.1577C5.40002 15.9474 5.09998 15.9474 4.99486 16.1577C4.34048 17.4664 4.21644 17.5905 2.90769 18.2449C2.69744 18.35 2.69744 18.65 2.90769 18.7551C4.21644 19.4095 4.34048 19.5336 4.99486 20.8423C5.09998 21.0526 5.40002 21.0526 5.50514 20.8423C6.15952 19.5336 6.28356 19.4095 7.59231 18.7551C7.80256 18.65 7.80256 18.35 7.59231 18.2449C6.28356 17.5905 6.15952 17.4664 5.50514 16.1577Z" fill="currentColor" style="fill:currentColor;fill-opacity:1;"/>
<path fill-rule="evenodd" clip-rule="evenodd" d="M1.75 5C1.75 3.89543 2.64543 3 3.75 3H9.75C10.8546 3 11.75 3.89543 11.75 5C11.75 5.55228 11.3023 6 10.75 6C10.1977 6 9.75 5.55228 9.75 5H7.75V12C8.30228 12 8.75 12.4477 8.75 13C8.75 13.5523 8.30228 14 7.75 14H5.75C5.19772 14 4.75 13.5523 4.75 13C4.75 12.4477 5.19772 12 5.75 12V5H3.75C3.75 5.55228 3.30228 6 2.75 6C2.19772 6 1.75 5.55228 1.75 5Z" fill="currentColor" style="fill:currentColor;fill-opacity:1;"/>
</svg>
