<svg width="24" height="24" viewBox="0 0 24 24" fill="none" xmlns="http://www.w3.org/2000/svg">
<path d="M4 2C2.34315 2 1 3.34315 1 5C1 6.30622 1.83481 7.41746 3 7.82929V18C3 18.5523 3.44772 19 4 19C4.55228 19 5 18.5523 5 18V7.82929C6.16519 7.41746 7 6.30622 7 5C7 3.34315 5.65685 2 4 2Z" fill="currentColor" style="fill:currentColor;fill-opacity:1;"/>
<path d="M21 6C21 5.44772 20.5523 5 20 5C19.4477 5 19 5.44772 19 6V16.1707C17.8348 16.5825 17 17.6938 17 19C17 20.6569 18.3431 22 20 22C21.6569 22 23 20.6569 23 19C23 17.6938 22.1652 16.5825 21 16.1707V6Z" fill="currentColor" style="fill:currentColor;fill-opacity:1;"/>
<path d="M7 18C7 17.4477 7.44772 17 8 17H9C9.55228 17 10 17.4477 10 18C10 18.5523 9.55228 19 9 19H8C7.44772 19 7 18.5523 7 18Z" fill="currentColor" style="fill:currentColor;fill-opacity:1;"/>
<path d="M13 17C12.4477 17 12 17.4477 12 18C12 18.5523 12.4477 19 13 19H14C14.5523 19 15 18.5523 15 18C15 17.4477 14.5523 17 14 17H13Z" fill="currentColor" style="fill:currentColor;fill-opacity:1;"/>
<path d="M9 6C9 5.44772 9.44771 5 10 5H11C11.5523 5 12 5.44772 12 6C12 6.55228 11.5523 7 11 7H10C9.44771 7 9 6.55228 9 6Z" fill="currentColor" style="fill:currentColor;fill-opacity:1;"/>
<path d="M15 5C14.4477 5 14 5.44772 14 6C14 6.55228 14.4477 7 15 7H16C16.5523 7 17 6.55228 17 6C17 5.44772 16.5523 5 16 5H15Z" fill="currentColor" style="fill:currentColor;fill-opacity:1;"/>
</svg>
