<svg width="24" height="24" viewBox="0 0 24 24" fill="none" xmlns="http://www.w3.org/2000/svg">
<path d="M4.75 16.5C3.23122 16.5 2 17.7312 2 19.25C2 20.7688 3.23122 22 4.75 22C6.26878 22 7.5 20.7688 7.5 19.25C7.5 17.7312 6.26878 16.5 4.75 16.5Z" fill="currentColor"/>
<path d="M13 2C11.6529 2 10.4616 2.66685 9.73841 3.68399C9.58641 3.89775 9.34153 4.00854 9.16822 4.00279C9.11234 4.00093 9.05626 4 9 4C6.23858 4 4 6.23858 4 9C4 10.6367 4.78747 12.0898 6 13.0003C6.00016 15.2093 7.79096 17 10 17C11.0314 17 11.9737 16.6083 12.6826 15.9672C12.9141 15.7577 13.2582 15.6928 13.4609 15.7583C13.947 15.9155 14.4646 16 15 16C16.8611 16 18.4833 14.9827 19.3432 13.4787C19.3753 13.4225 19.4225 13.3753 19.4787 13.3432C20.9827 12.4833 22 10.8611 22 9C22 6.23858 19.7614 4 17 4C16.9437 4 16.8877 4.00093 16.8318 4.00279C16.6585 4.00854 16.4136 3.89775 16.2616 3.68399C15.5384 2.66685 14.3471 2 13 2Z" fill="currentColor"/>
</svg>
