<svg width="24" height="24" viewBox="0 0 24 24" fill="none" xmlns="http://www.w3.org/2000/svg">
<path fill-rule="evenodd" clip-rule="evenodd" d="M9.4453 14.1679C9.90483 13.8616 10.5257 13.9858 10.8321 14.4453C11.5026 15.4512 12.0242 16.701 12.4058 17.83C12.8585 16.727 13.6125 15.9731 14.2619 15.3239C14.2723 15.3135 14.2826 15.3032 14.2929 15.2929C14.6834 14.9024 15.3166 14.9024 15.7071 15.2929C16.0976 15.6834 16.0976 16.3166 15.7071 16.7071C14.9559 17.4583 14.3614 18.0675 14.1186 19H15.3755C15.6178 18.526 15.9325 17.9705 16.3197 17.4446C16.8671 16.7011 17.6449 15.8976 18.6838 15.5513C19.2077 15.3767 19.774 15.6598 19.9487 16.1838C20.1233 16.7077 19.8402 17.274 19.3162 17.4487C18.8551 17.6024 18.3829 18.0156 17.9303 18.6304C17.8415 18.751 17.7567 18.8748 17.6759 19H20C20.5523 19 21 19.4477 21 20C21 20.5523 20.5523 21 20 21H16.0211C16.0066 21.0003 15.9921 21.0003 15.9776 21H12.0209C12.0064 21.0003 11.992 21.0003 11.9776 21H9.0173C9.00639 21.0002 8.99549 21.0002 8.98459 21H4C3.44772 21 3 20.5523 3 20C3 19.4477 3.44772 19 4 19H7.20766C6.65444 18.2105 5.90638 17.4396 4.62861 16.9285C4.11583 16.7234 3.86641 16.1414 4.07152 15.6286C4.27664 15.1158 4.85861 14.8664 5.37139 15.0715C7.84345 16.0603 8.9344 17.8983 9.57092 19H10.6823C10.3248 17.8458 9.815 16.5253 9.16795 15.5547C8.8616 15.0952 8.98577 14.4743 9.4453 14.1679Z" fill="currentColor" style="fill:currentColor;fill-opacity:1;"/>
<path d="M10.3112 8.89861L7.20075 10.0329C5.97431 10.4855 4.60493 9.91382 4.07188 8.72657C3.89712 8.33735 4.0509 7.87997 4.426 7.67329L11.3778 3.8428C12.381 3.29003 13.5092 3 14.6563 3H18.1222C18.6141 3 19.034 3.35341 19.1149 3.8356L19.9863 9.03108C20.0555 9.44398 19.8586 9.85604 19.4929 10.0637L17.9893 10.9175C16.8083 11.5881 15.423 11.8115 14.0892 11.5464L11.4861 11.0291C11.019 10.9363 10.7542 10.4421 10.9374 10.0052L11.496 8.67308C11.7304 8.11411 12.28 7.75 12.8894 7.75H14.8214C15.0975 7.75 15.3214 7.52614 15.3214 7.25C15.3214 6.97386 15.0975 6.75 14.8214 6.75H12.8894C11.8737 6.75 10.9577 7.35684 10.567 8.28846L10.3112 8.89861Z" fill="currentColor" style="fill:currentColor;fill-opacity:1;"/>
</svg>
