<svg width="24" height="24" viewBox="0 0 24 24" fill="none" xmlns="http://www.w3.org/2000/svg">
<path d="M13.25 8.25V11H16.5385C18.4502 11 20 12.5498 20 14.4615V16.2308C20 19.417 17.417 22 14.2308 22H13.1665C11.607 22 10.1529 21.2124 9.30087 19.9063L6.28135 15.2775C6.1048 15.0068 6.06991 14.6675 6.18769 14.3666L6.27412 14.1458C6.75826 12.9088 8.18408 12.335 9.39013 12.8916L9.75 13.0577V8.25C9.75 7.2835 10.5335 6.5 11.5 6.5C12.4665 6.5 13.25 7.2835 13.25 8.25Z" fill="currentColor" style="fill:currentColor;fill-opacity:1;"/>
<path fill-rule="evenodd" clip-rule="evenodd" d="M11.5 4C8.73858 4 6.5 6.23858 6.5 9C6.5 9.28505 6.52375 9.56379 6.56918 9.83454C6.66055 10.3792 6.29309 10.8948 5.74841 10.9862C5.20374 11.0776 4.68812 10.7101 4.59674 10.1655C4.53305 9.78579 4.5 9.39638 4.5 9C4.5 5.13401 7.63401 2 11.5 2C14.9695 2 17.8477 4.52312 18.4033 7.83454C18.4946 8.37922 18.1272 8.89484 17.5825 8.98622C17.0378 9.0776 16.5222 8.71013 16.4308 8.16546C16.0342 5.80145 13.9765 4 11.5 4Z" fill="currentColor" style="fill:currentColor;fill-opacity:1;"/>
</svg>
