<svg width="24" height="24" viewBox="0 0 24 24" fill="none" xmlns="http://www.w3.org/2000/svg">
<path d="M8.08615 2C7.1504 2 6.24427 2.32806 5.52541 2.92711L4.43926 3.83224C3.52729 4.59221 3 5.718 3 6.90512V10H21V6.90512C21 5.71801 20.4727 4.59221 19.5607 3.83224L18.4746 2.92711C17.7557 2.32806 16.8496 2 15.9138 2H8.08615Z" fill="currentColor"/>
<path fill-rule="evenodd" clip-rule="evenodd" d="M3 14V12H21V14C21 16.0066 19.5225 17.668 17.5961 17.9559L19.2564 21.2764C19.4226 21.6088 19.1809 22 18.8092 22H17.6911C17.5017 22 17.3286 21.893 17.2439 21.7236L15.3821 18H8.61813L6.75632 21.7236C6.67163 21.893 6.49849 22 6.30911 22H5.19107C4.81938 22 4.57764 21.6088 4.74386 21.2764L6.4041 17.9559C4.47759 17.6682 3 16.0066 3 14ZM8 16C8.55228 16 9 15.5523 9 15C9 14.4477 8.55228 14 8 14C7.44772 14 7 14.4477 7 15C7 15.5523 7.44772 16 8 16ZM17 15C17 15.5523 16.5523 16 16 16C15.4477 16 15 15.5523 15 15C15 14.4477 15.4477 14 16 14C16.5523 14 17 14.4477 17 15Z" fill="currentColor"/>
</svg>
