<svg width="24" height="24" viewBox="0 0 24 24" fill="none" xmlns="http://www.w3.org/2000/svg">
<path d="M16.7583 21.5627L16.0251 21.8029C14.4614 22.3152 12.7488 21.8076 11.7097 20.531L11.3776 20.123L9.80398 21.0068C8.58559 21.6911 7.09847 21.6753 5.89476 20.9655C4.83993 20.3434 4.13426 19.2652 3.97961 18.0492L3.73749 16.1454C3.70254 15.8707 3.54999 15.6282 3.32448 15.4805C2.49619 14.9378 2 14.012 2 13.0228V12.5954C2 11.1775 2.80155 9.87857 4.07333 9.2529L3.99639 8.6479C3.72222 6.49222 5.20649 4.4978 7.35668 4.17267L11.2564 3.583L12.6812 2.64943C14.0028 1.78352 15.7073 1.78352 17.0289 2.64943L17.8177 3.16632C18.6124 3.68699 19.0882 4.57497 19.0882 5.52373C19.0882 5.83962 19.2668 6.12256 19.5398 6.25673L19.9849 6.47543C22.029 7.47994 22.6364 10.1137 21.2568 11.9216L20.3664 13.0883L20.9204 14.0411C21.8937 15.7151 21.5379 17.8532 20.0698 19.1158L18.1134 20.7983C17.7162 21.1398 17.2558 21.3997 16.7583 21.5627Z" fill="currentColor" style="fill:currentColor;fill-opacity:1;"/>
</svg>
