<svg width="24" height="24" viewBox="0 0 24 24" fill="none" xmlns="http://www.w3.org/2000/svg">
<path fill-rule="evenodd" clip-rule="evenodd" d="M12.8642 18.9959L9.87898 9.39105C9.30105 7.53154 6.68468 7.50606 6.07168 9.35511L4.89129 12.9157L3.92265 10.6026C3.70932 10.0931 3.12342 9.8531 2.614 10.0664C2.10458 10.2798 1.86454 10.8657 2.07787 11.3751L3.04734 13.6901C3.76299 15.3991 6.20702 15.3026 6.78924 13.5463L7.96955 9.98607L10.9548 19.5911C11.5613 21.5427 14.3465 21.439 14.8113 19.4526L18.1925 5.00389L20.0567 10.3146C20.2396 10.8357 20.8104 11.1098 21.3315 10.9269C21.8526 10.744 22.1267 10.1733 21.9438 9.65214L20.079 4.33963C19.4146 2.44681 16.7013 2.59877 16.2454 4.54733L12.8642 18.9959Z" fill="currentColor" style="fill:currentColor;fill-opacity:1;"/>
</svg>
