<svg width="24" height="24" viewBox="0 0 24 24" fill="none" xmlns="http://www.w3.org/2000/svg">
<path d="M16.843 18.257L20.2929 21.7069C20.6834 22.0974 21.3166 22.0974 21.7071 21.7069C22.0976 21.3163 22.0976 20.6832 21.7071 20.2926L3.70711 2.29265C3.31658 1.90212 2.68342 1.90212 2.29289 2.29265C1.90237 2.68317 1.90237 3.31634 2.29289 3.70686L5.74275 7.15672C3.1302 8.11586 2.18836 11.6023 4.322 13.736L6.58579 15.9998L3.29289 19.2926C2.90237 19.6832 2.90237 20.3163 3.29289 20.7069C3.68342 21.0974 4.31658 21.0974 4.70711 20.7069L8 17.414L10.2638 19.6777C12.3974 21.8114 15.8839 20.8695 16.843 18.257Z" fill="currentColor" style="fill:currentColor;fill-opacity:1;"/>
<path d="M18.3935 12.6159C18.0369 12.8079 17.7528 13.1002 17.5702 13.4486L10.5511 6.42958C10.8996 6.24696 11.1918 5.96282 11.3838 5.60623L12.2079 4.07579C13.4782 1.71661 16.6636 1.24911 18.5582 3.14376L20.856 5.44153C22.7506 7.33618 22.2831 10.5215 19.924 11.7918L18.3935 12.6159Z" fill="currentColor" style="fill:currentColor;fill-opacity:1;"/>
</svg>
