<svg width="24" height="24" viewBox="0 0 24 24" fill="none" xmlns="http://www.w3.org/2000/svg">
<path fill-rule="evenodd" clip-rule="evenodd" d="M9.99902 2.74977C11.2366 2.03523 12.7614 2.03523 13.999 2.74977L19.0098 5.64271C20.2474 6.35725 21.0098 7.67775 21.0098 9.10682V14.8927C21.0098 16.3218 20.2474 17.6423 19.0098 18.3568L13.999 21.2498C12.7614 21.9643 11.2366 21.9643 9.99902 21.2498L4.98828 18.3568C3.75068 17.6423 2.98828 16.3218 2.98828 14.8927V9.10682C2.98828 7.67775 3.75068 6.35725 4.98828 5.64271L9.99902 2.74977ZM9.49902 11.9998C9.49902 10.619 10.6183 9.49976 11.999 9.49976C13.3797 9.49976 14.499 10.619 14.499 11.9998C14.499 13.3805 13.3797 14.4998 11.999 14.4998C10.6183 14.4998 9.49902 13.3805 9.49902 11.9998Z" fill="currentColor" style="fill:currentColor;fill-opacity:1;"/>
</svg>
