<svg width="22" height="20" viewBox="0 0 22 20" fill="none" xmlns="http://www.w3.org/2000/svg">
  <path fill-rule="evenodd" clip-rule="evenodd" d="M7.68043 2.57827C8.02116 2.63232 8.3657 2.50692 8.59197 2.24649L10.2448 0.344153C10.6435 -0.114683 11.3559 -0.114684 11.7546 0.344151L13.4074 2.24649C13.6337 2.50692 13.9782 2.63232 14.319 2.57827L16.808 2.18343C17.4083 2.0882 17.9541 2.54612 17.9645 3.15385L18.0079 5.67363C18.0139 6.01856 18.1972 6.33607 18.4929 6.51369L20.6534 7.81116C21.1745 8.12409 21.2982 8.82568 20.9156 9.29796L19.3291 11.2561C19.112 11.5241 19.0483 11.8852 19.1607 12.2114L19.9817 14.594C20.1798 15.1686 19.8236 15.7856 19.2269 15.9014L16.7529 16.3817C16.4143 16.4475 16.1334 16.6831 16.0099 17.0052L15.1073 19.3581C14.8896 19.9256 14.2202 20.1693 13.6886 19.8745L11.4847 18.6522C11.183 18.4849 10.8164 18.4849 10.5147 18.6522L8.31085 19.8745C7.7793 20.1693 7.10986 19.9256 6.89217 19.3581L5.98961 17.0052C5.86605 16.6831 5.58519 16.4475 5.24652 16.3817L2.77259 15.9014C2.1759 15.7856 1.81969 15.1686 2.01772 14.594L2.83876 12.2114C2.95116 11.8852 2.88749 11.5241 2.67031 11.2561L1.08389 9.29796C0.701257 8.82568 0.824961 8.1241 1.34604 7.81116L3.50653 6.51369C3.80229 6.33608 3.9856 6.01856 3.99154 5.67362L4.03492 3.15387C4.04538 2.54613 4.59112 2.0882 5.19144 2.18343L7.68043 2.57827ZM14.2068 9.207C14.5973 8.81648 14.5973 8.18332 14.2068 7.7928C13.8163 7.40228 13.1831 7.40227 12.7926 7.7928L9.99969 10.5857L9.20679 9.7928C8.81626 9.40228 8.18311 9.40228 7.79258 9.7928C7.40206 10.1833 7.40206 10.8165 7.79258 11.207L9.29259 12.707C9.68311 13.0975 10.3163 13.0975 10.7068 12.707L14.2068 9.207Z" fill="currentColor"/>
</svg>
