<svg width="24" height="24" viewBox="0 0 24 24" fill="none" xmlns="http://www.w3.org/2000/svg">
<path d="M5 4C5 3.44772 4.55228 3 4 3C3.44772 3 3 3.44772 3 4V20C3 20.5523 3.44772 21 4 21C4.55228 21 5 20.5523 5 20V4Z" fill="currentColor" style="fill:currentColor;fill-opacity:1;"/>
<path d="M9.5 6C8.11929 6 7 7.11929 7 8.5C7 9.88071 8.11929 11 9.5 11H18.5C19.8807 11 21 9.88071 21 8.5C21 7.11929 19.8807 6 18.5 6H9.5Z" fill="currentColor" style="fill:currentColor;fill-opacity:1;"/>
<path d="M9.5 13C8.11929 13 7 14.1193 7 15.5C7 16.8807 8.11929 18 9.5 18H14.5C15.8807 18 17 16.8807 17 15.5C17 14.1193 15.8807 13 14.5 13H9.5Z" fill="currentColor" style="fill:currentColor;fill-opacity:1;"/>
</svg>
