<svg width="24" height="24" viewBox="0 0 24 24" fill="none" xmlns="http://www.w3.org/2000/svg">
<path d="M13 4C13 3.44772 12.5523 3 12 3C11.4477 3 11 3.44772 11 4V6H6.5C5.11929 6 4 7.11929 4 8.5C4 9.88071 5.11929 11 6.5 11H11V13H8.5C7.11929 13 6 14.1193 6 15.5C6 16.8807 7.11929 18 8.5 18H11V20C11 20.5523 11.4477 21 12 21C12.5523 21 13 20.5523 13 20V18H15.5C16.8807 18 18 16.8807 18 15.5C18 14.1193 16.8807 13 15.5 13H13V11H17.5C18.8807 11 20 9.88071 20 8.5C20 7.11929 18.8807 6 17.5 6H13V4Z" fill="currentColor" style="fill:currentColor;fill-opacity:1;"/>
</svg>
