<svg width="24" height="24" viewBox="0 0 24 24" fill="none" xmlns="http://www.w3.org/2000/svg">
<path fill-rule="evenodd" clip-rule="evenodd" d="M18.001 20C20.4293 18.1755 22 15.2712 22 12C22 6.47715 17.5228 2 12 2C6.47715 2 2 6.47715 2 12C2 17.5228 6.47715 22 12 22H21C21.5523 22 22 21.5523 22 21C22 20.4477 21.5523 20 21 20H18.001ZM12 9.75C12.9665 9.75 13.75 8.9665 13.75 8C13.75 7.0335 12.9665 6.25 12 6.25C11.0335 6.25 10.25 7.0335 10.25 8C10.25 8.9665 11.0335 9.75 12 9.75ZM8 13.75C8.9665 13.75 9.75 12.9665 9.75 12C9.75 11.0335 8.9665 10.25 8 10.25C7.0335 10.25 6.25 11.0335 6.25 12C6.25 12.9665 7.0335 13.75 8 13.75ZM17.75 12C17.75 12.9665 16.9665 13.75 16 13.75C15.0335 13.75 14.25 12.9665 14.25 12C14.25 11.0335 15.0335 10.25 16 10.25C16.9665 10.25 17.75 11.0335 17.75 12ZM12 17.75C12.9665 17.75 13.75 16.9665 13.75 16C13.75 15.0335 12.9665 14.25 12 14.25C11.0335 14.25 10.25 15.0335 10.25 16C10.25 16.9665 11.0335 17.75 12 17.75Z" fill="currentColor" style="fill:currentColor;fill-opacity:1;"/>
</svg>
