<svg width="24" height="24" viewBox="0 0 24 24" fill="none" xmlns="http://www.w3.org/2000/svg">
<path fill-rule="evenodd" clip-rule="evenodd" d="M3 7C3 4.79086 4.79086 3 7 3H17C19.2091 3 21 4.79086 21 7V17C21 19.2091 19.2091 21 17 21H7C4.79086 21 3 19.2091 3 17V7ZM7 5C5.89543 5 5 5.89543 5 7H7V5ZM17 5V7H19C19 5.89543 18.1046 5 17 5ZM19 9H17V11H19V9ZM19 13H17V15.4444H19V13ZM18.9504 17.4444H17V19C17.9518 19 18.7483 18.3351 18.9504 17.4444ZM15 13V11H9V13H15ZM7 19V17H5C5 18.1046 5.89543 19 7 19ZM5 15H7V13H5V15ZM5 11H7V9H5V11Z" fill="currentColor" style="fill:currentColor;fill-opacity:1;"/>
</svg>
