<svg width="24" height="24" viewBox="0 0 24 24" fill="none" xmlns="http://www.w3.org/2000/svg">
<path fill-rule="evenodd" clip-rule="evenodd" d="M2 8C2 5.79086 3.79086 4 6 4H13C15.0066 4 16.6681 5.47755 16.9559 7.40402L19.1056 6.32918C20.4354 5.66428 22 6.63127 22 8.11803V15.882C22 17.3687 20.4354 18.3357 19.1056 17.6708L16.9559 16.596C16.6681 18.5225 15.0066 20 13 20H6C3.79086 20 2 18.2091 2 16V8ZM9.5 15C11.1569 15 12.5 13.6569 12.5 12C12.5 10.3431 11.1569 9 9.5 9C7.84315 9 6.5 10.3431 6.5 12C6.5 13.6569 7.84315 15 9.5 15Z" fill="currentColor" style="fill:currentColor;fill-opacity:1;"/>
</svg>
