<svg width="24" height="24" viewBox="0 0 24 24" fill="none" xmlns="http://www.w3.org/2000/svg">
<path d="M3.2871 2.38316C2.94641 1.94848 2.31784 1.87229 1.88316 2.21299C1.44848 2.55368 1.37229 3.18225 1.71299 3.61693L3.03983 5.30979C2.3938 6.02022 2.00003 6.96414 2.00003 8.00003V16C2.00003 18.2092 3.79089 20 6.00003 20H12C12.7667 20 13.483 19.7843 14.0916 19.4103L16.213 22.1169C16.5537 22.5516 17.1822 22.6278 17.6169 22.2871C18.0516 21.9464 18.1278 21.3178 17.7871 20.8832L3.2871 2.38316Z" fill="currentColor" style="fill:currentColor;fill-opacity:1;"/>
<path fill-rule="evenodd" clip-rule="evenodd" d="M7.09547 4.00003L16.3313 15.7837L19.1056 17.1708C20.4354 17.8357 22 16.8688 22 15.382V8.61806C22 7.1313 20.4354 6.1643 19.1056 6.8292L16 8.38199V8.00003C16 5.79089 14.2092 4.00003 12 4.00003H7.09547ZM16 13.382L20 15.382V8.61806L16 10.6181V13.382Z" fill="currentColor" style="fill:currentColor;fill-opacity:1;"/>
</svg>
