<svg width="24" height="24" viewBox="0 0 24 24" fill="none" xmlns="http://www.w3.org/2000/svg">
<g clip-path="url(#clip0_7604_65896)">
<path d="M12 5C9.50599 4.99999 6.58475 5.11757 4.26786 6.00344C3.09203 6.45303 2.01234 7.12169 1.22749 8.12669C0.432638 9.14448 0 10.4311 0 12C0 13.6479 0.409179 15.3707 1.37682 16.7105C2.3723 18.0888 3.92041 19 6 19C7.02892 19 7.84708 18.7768 8.53039 18.415C9.19906 18.061 9.69166 17.5976 10.0821 17.2071L10.2216 17.0673C10.9548 16.3316 11.2853 16 12 16C12.7147 16 13.0452 16.3316 13.7784 17.0673L13.9179 17.2071C14.3083 17.5976 14.8009 18.061 15.4696 18.415C16.1529 18.7768 16.9711 19 18 19C20.0875 19 21.6339 18.0659 22.6252 16.6836C23.5894 15.3389 24 13.6189 24 12C24 10.4311 23.5674 9.14448 22.7725 8.12669C21.9877 7.1217 20.908 6.45304 19.7321 6.00345C17.4153 5.11759 14.494 5.00001 12 5Z" fill="currentColor" style="fill:currentColor;fill-opacity:1;"/>
</g>
<defs>
<clipPath id="clip0_7604_65896">
<rect width="24" height="24" fill="white" style="fill:white;fill-opacity:1;"/>
</clipPath>
</defs>
</svg>
