<svg width="24" height="24" viewBox="0 0 24 24" fill="none" xmlns="http://www.w3.org/2000/svg">
<path fill-rule="evenodd" clip-rule="evenodd" d="M3 8C3 5.79086 4.79086 4 7 4H19C21.2091 4 23 5.79086 23 8V14C23 15.8742 21.711 17.4474 19.9711 17.8813C19.7875 19.081 18.7511 20 17.5 20H8.5C7.24893 20 6.2125 19.081 6.02889 17.8813C4.28903 17.4474 3 15.8742 3 14V8ZM18 17.5C18 17.2239 17.7761 17 17.5 17H8.5C8.22386 17 8 17.2239 8 17.5C8 17.7761 8.22386 18 8.5 18H17.5C17.7761 18 18 17.7761 18 17.5ZM1 8C1.55228 8 2 8.44772 2 9V13C2 13.5523 1.55228 14 1 14C0.447715 14 0 13.5523 0 13V9C0 8.44772 0.447715 8 1 8Z" fill="currentColor" style="fill:currentColor;fill-opacity:1;"/>
</svg>
