<svg width="24" height="24" viewBox="0 0 24 24" fill="none" xmlns="http://www.w3.org/2000/svg">
<path d="M9.71963 3.59848C11.0223 2.51294 13 3.43926 13 5.13493V18.8648C13 20.5605 11.0223 21.4868 9.71963 20.4013L5.91608 17.2317C5.73637 17.0819 5.50984 16.9999 5.2759 16.9999H4C2.34315 16.9999 1 15.6567 1 13.9999V9.99989C1 8.34303 2.34315 6.99989 4 6.99989H5.2759C5.50984 6.99989 5.73637 6.91787 5.91608 6.76811L9.71963 3.59848Z" fill="currentColor" style="fill:currentColor;fill-opacity:1;"/>
<path d="M22.2071 10.707C22.5976 10.3165 22.5976 9.68331 22.2071 9.29278C21.8166 8.90226 21.1834 8.90226 20.7929 9.29278L19.3787 10.707L17.9644 9.29278C17.5739 8.90226 16.9408 8.90226 16.5502 9.29278C16.1597 9.68331 16.1597 10.3165 16.5502 10.707L17.9644 12.1212L16.5502 13.5354C16.1597 13.9259 16.1597 14.5591 16.5502 14.9496C16.9408 15.3402 17.5739 15.3402 17.9644 14.9496L19.3787 13.5354L20.7929 14.9496C21.1834 15.3402 21.8166 15.3402 22.2071 14.9496C22.5976 14.5591 22.5976 13.9259 22.2071 13.5354L20.7929 12.1212L22.2071 10.707Z" fill="currentColor" style="fill:currentColor;fill-opacity:1;"/>
</svg>
