<svg width="24" height="24" viewBox="0 0 24 24" fill="none" xmlns="http://www.w3.org/2000/svg">
<path fill-rule="evenodd" clip-rule="evenodd" d="M8.7587 3H15.2413C16.0463 2.99999 16.7106 2.99998 17.2518 3.04419C17.8139 3.09012 18.3306 3.18868 18.816 3.43598C19.5686 3.81947 20.1805 4.43139 20.564 5.18404C20.8113 5.66937 20.9099 6.18608 20.9558 6.74818C21 7.28936 21 7.95372 21 8.75868V15.2413C21 16.0463 21 16.7106 20.9558 17.2518C20.9099 17.8139 20.8113 18.3306 20.564 18.816C20.1805 19.5686 19.5686 20.1805 18.816 20.564C18.3306 20.8113 17.8139 20.9099 17.2518 20.9558C16.7106 21 16.0463 21 15.2413 21H8.75868C7.95372 21 7.28937 21 6.74818 20.9558C6.18608 20.9099 5.66937 20.8113 5.18404 20.564C4.43139 20.1805 3.81947 19.5686 3.43598 18.816C3.18868 18.3306 3.09012 17.8139 3.04419 17.2518C2.99998 16.7106 2.99999 16.0463 3 15.2413V8.7587C2.99999 7.95374 2.99998 7.28937 3.04419 6.74818C3.09012 6.18608 3.18868 5.66937 3.43598 5.18404C3.81947 4.43139 4.43139 3.81947 5.18404 3.43598C5.66937 3.18868 6.18608 3.09012 6.74818 3.04419C7.28937 2.99998 7.95374 2.99999 8.7587 3ZM12 7C10.443 7 8.88269 7.40138 7.49699 8.20786C7.01966 8.48567 6.85792 9.09782 7.13572 9.57515C7.41353 10.0525 8.02568 10.2142 8.50301 9.93642C9.57353 9.31338 10.7851 9 12 9C13.2149 9 14.4265 9.31338 15.497 9.93642C15.9743 10.2142 16.5865 10.0525 16.8643 9.57515C17.1421 9.09782 16.9803 8.48567 16.503 8.20786C15.1173 7.40138 13.557 7 12 7ZM12 12.75C11.4598 12.75 10.9218 12.8681 10.4302 13.102C9.93143 13.3392 9.3348 13.1273 9.09753 12.6285C8.86027 12.1298 9.07222 11.5332 9.57094 11.2959C10.3375 10.9312 11.1698 10.75 12 10.75C12.8302 10.75 13.6627 10.9312 14.4295 11.2959C14.9282 11.5331 15.1403 12.1297 14.9031 12.6284C14.6659 13.1272 14.0693 13.3392 13.5705 13.102C13.0785 12.8681 12.5403 12.75 12 12.75ZM12.0005 17C11.3101 17 10.7505 16.4404 10.7505 15.75C10.7505 15.0596 11.3101 14.5 12.0005 14.5C12.6908 14.5 13.2505 15.0596 13.2505 15.75C13.2505 16.4404 12.6908 17 12.0005 17Z" fill="currentColor" style="fill:currentColor;fill-opacity:1;"/>
</svg>
