<svg width="24" height="24" viewBox="0 0 24 24" fill="none" xmlns="http://www.w3.org/2000/svg">
<path d="M15.0274 18.1673L15.9311 18.5956L15.0274 18.1673ZM12.7102 19.8567L12.579 18.8653L12.579 18.8653L12.7102 19.8567ZM3 21.1424L2.00776 21.018C1.96922 21.3255 2.07544 21.6336 2.29535 21.8519C2.51527 22.0703 2.82401 22.1744 3.13126 22.1337L3 21.1424ZM4.22161 11.3969L5.21384 11.5212L4.22161 11.3969ZM5.94282 9.04534L5.52432 8.13712L5.52432 8.13712L5.94282 9.04534ZM10.7071 14.8495C11.0976 14.459 11.0976 13.8258 10.7071 13.4353C10.3166 13.0448 9.68342 13.0448 9.29289 13.4353L10.7071 14.8495ZM12.2647 5.89239L12.9718 5.18529L12.9718 5.18529L12.2647 5.89239ZM14.7647 3.3924L15.4718 2.68529V2.68529L14.7647 3.3924ZM20.75 9.37769L20.0429 10.0848L20.75 9.37769ZM18.25 11.8777L18.9571 11.1706L18.25 11.8777ZM20.75 11.8777L20.0429 11.1706L20.75 11.8777ZM12.2647 3.3924L11.5576 2.68529V2.68529L12.2647 3.3924ZM17.1821 11.2852L14.1238 17.7391L15.9311 18.5956L18.9895 12.1417L17.1821 11.2852ZM12.579 18.8653L2.86874 20.151L3.13126 22.1337L12.8415 20.848L12.579 18.8653ZM3.99224 21.2668L5.21384 11.5212L3.22937 11.2725L2.00776 21.018L3.99224 21.2668ZM6.36132 9.95356L12.8474 6.96483L12.0104 5.14839L5.52432 8.13712L6.36132 9.95356ZM11.7218 6.76371L17.3787 12.4206L18.7929 11.0064L13.136 5.3495L11.7218 6.76371ZM9.29289 13.4353L2.29289 20.4353L3.70711 21.8495L10.7071 14.8495L9.29289 13.4353ZM13.136 5.3495L12.9718 5.18529L11.5576 6.5995L11.7218 6.76371L13.136 5.3495ZM14.0576 4.09951L20.0429 10.0848L21.4571 8.67058L15.4718 2.68529L14.0576 4.09951ZM18.9571 11.1706L18.7929 11.0064L17.3787 12.4206L17.5429 12.5848L18.9571 11.1706ZM20.0429 11.1706C19.7431 11.4704 19.2569 11.4704 18.9571 11.1706L17.5429 12.5848C18.6238 13.6657 20.3762 13.6657 21.4571 12.5848L20.0429 11.1706ZM12.9718 4.0995C13.2717 3.79968 13.7578 3.79968 14.0576 4.09951L15.4718 2.68529C14.391 1.60442 12.6385 1.60441 11.5576 2.68529L12.9718 4.0995ZM20.0429 10.0848C20.3427 10.3846 20.3427 10.8707 20.0429 11.1706L21.4571 12.5848C22.538 11.5039 22.538 9.75146 21.4571 8.67058L20.0429 10.0848ZM5.21384 11.5212C5.2998 10.8355 5.73367 10.2428 6.36132 9.95356L5.52432 8.13712C4.26902 8.71555 3.40128 9.90106 3.22937 11.2725L5.21384 11.5212ZM12.9718 5.18529C12.672 4.88546 12.672 4.39933 12.9718 4.0995L11.5576 2.68529C10.4767 3.76617 10.4767 5.51862 11.5576 6.5995L12.9718 5.18529ZM14.1238 17.7391C13.8332 18.3523 13.2516 18.7763 12.579 18.8653L12.8415 20.848C14.1868 20.6699 15.35 19.8219 15.9311 18.5956L14.1238 17.7391ZM9.99998 14.12V16.12C11.1046 16.12 12 15.2245 12 14.12H9.99998ZM9.99998 14.12H7.99998C7.99998 15.2245 8.89541 16.12 9.99998 16.12V14.12ZM9.99998 14.12V12.12C8.89541 12.12 7.99998 13.0154 7.99998 14.12H9.99998ZM9.99998 14.12H12C12 13.0154 11.1046 12.12 9.99998 12.12V14.12Z" fill="currentColor"/>
</svg>
