<svg width="24" height="24" viewBox="0 0 24 24" fill="none" xmlns="http://www.w3.org/2000/svg">
<path d="M11 16.0001V15.0001H13V16.0001C13 16.5523 12.5523 17.0001 12 17.0001C11.4477 17.0001 11 16.5523 11 16.0001Z" fill="currentColor" style="fill:currentColor;fill-opacity:1;"/>
<path fill-rule="evenodd" clip-rule="evenodd" d="M3 7C3 4.79086 4.79086 3 7 3H17C19.2092 3 21 4.79087 21 7.00001L21 17.0001C21 19.2092 19.2092 21.0001 17 21.0001H7.00001C4.79087 21.0001 3.00001 19.2092 3.00001 17L3 7ZM10 5.00006C9.44772 5.00006 9 5.44778 9 6.00006C9 6.55235 9.44772 7.00006 10 7.00006H14C14.5523 7.00006 15 6.55235 15 6.00006C15 5.44778 14.5523 5.00006 14 5.00006H10ZM9 10.0001C9 9.44778 9.44772 9.00006 10 9.00006H14C14.5523 9.00006 15 9.44778 15 10.0001C15 10.5523 14.5523 11.0001 14 11.0001H10C9.44772 11.0001 9 10.5523 9 10.0001ZM10 13.0001C9.44772 13.0001 9 13.4478 9 14.0001V16.0001C9 17.6569 10.3431 19.0001 12 19.0001C13.6569 19.0001 15 17.6569 15 16.0001V14.0001C15 13.4478 14.5523 13.0001 14 13.0001H10Z" fill="currentColor" style="fill:currentColor;fill-opacity:1;"/>
</svg>
